<svg width="25" height="24" viewBox="0 0 25 24" fill="none" xmlns="http://www.w3.org/2000/svg">
<path d="M17.0767 2H8.69672C5.05672 2 2.88672 4.17 2.88672 7.81V16.18C2.88672 19.83 5.05672 22 8.69672 22H17.0667C20.7067 22 22.8767 19.83 22.8767 16.19V7.81C22.8867 4.17 20.7167 2 17.0767 2ZM16.8867 12.75H13.6367V16C13.6367 16.41 13.2967 16.75 12.8867 16.75C12.4767 16.75 12.1367 16.41 12.1367 16V12.75H8.88672C8.47672 12.75 8.13672 12.41 8.13672 12C8.13672 11.59 8.47672 11.25 8.88672 11.25H12.1367V8C12.1367 7.59 12.4767 7.25 12.8867 7.25C13.2967 7.25 13.6367 7.59 13.6367 8V11.25H16.8867C17.2967 11.25 17.6367 11.59 17.6367 12C17.6367 12.41 17.2967 12.75 16.8867 12.75Z" fill="#292D32"/>
</svg>
