<svg width="18" height="18" viewBox="0 0 18 18" fill="none" xmlns="http://www.w3.org/2000/svg">
<path d="M9 7.00001C8.71667 7.00001 8.47933 7.09601 8.288 7.28801C8.09667 7.48001 8.00067 7.71734 8 8.00001V11.2L7.1 10.3C6.91667 10.1167 6.68333 10.025 6.4 10.025C6.11667 10.025 5.88333 10.1167 5.7 10.3C5.51667 10.4833 5.425 10.7167 5.425 11C5.425 11.2833 5.51667 11.5167 5.7 11.7L8.3 14.3C8.5 14.5 8.73333 14.6 9 14.6C9.26667 14.6 9.5 14.5 9.7 14.3L12.3 11.7C12.4833 11.5167 12.575 11.2833 12.575 11C12.575 10.7167 12.4833 10.4833 12.3 10.3C12.1167 10.1167 11.8833 10.025 11.6 10.025C11.3167 10.025 11.0833 10.1167 10.9 10.3L10 11.2V8.00001C10 7.71667 9.904 7.47934 9.712 7.28801C9.52 7.09667 9.28267 7.00067 9 7.00001ZM2 5.00001V16H16V5.00001H2ZM2 18C1.45 18 0.979333 17.8043 0.588 17.413C0.196667 17.0217 0.000666667 16.5507 0 16V3.52501C0 3.29167 0.0376666 3.06667 0.113 2.85001C0.188333 2.63334 0.300667 2.43334 0.45 2.25001L1.7 0.725005C1.88333 0.491672 2.11233 0.312339 2.387 0.187005C2.66167 0.061672 2.94933 -0.000661376 3.25 5.291e-06H14.75C15.05 5.291e-06 15.3377 0.0626719 15.613 0.188005C15.8883 0.313339 16.1173 0.492339 16.3 0.725005L17.55 2.25001C17.7 2.43334 17.8127 2.63334 17.888 2.85001C17.9633 3.06667 18.0007 3.29167 18 3.52501V16C18 16.55 17.8043 17.021 17.413 17.413C17.0217 17.805 16.5507 18.0007 16 18H2ZM2.4 3.00001H15.6L14.75 2.00001H3.25L2.4 3.00001Z" fill="white"/>
</svg>
