<svg width="25" height="24" viewBox="0 0 25 24" fill="none" xmlns="http://www.w3.org/2000/svg">
<path d="M12.1367 18.25H9.88672C8.78672 18.25 7.88672 19.15 7.88672 20.25V20.5H6.88672C6.47672 20.5 6.13672 20.84 6.13672 21.25C6.13672 21.66 6.47672 22 6.88672 22H18.8867C19.2967 22 19.6367 21.66 19.6367 21.25C19.6367 20.84 19.2967 20.5 18.8867 20.5H17.8867V20.25C17.8867 19.15 16.9867 18.25 15.8867 18.25H13.6367V15.96C13.3867 15.99 13.1367 16 12.8867 16C12.6367 16 12.3867 15.99 12.1367 15.96V18.25Z" fill="#292D32"/>
<path d="M19.368 11.64C20.028 11.39 20.608 10.98 21.068 10.52C21.998 9.49 22.608 8.26 22.608 6.82C22.608 5.38 21.478 4.25 20.038 4.25H19.478C18.828 2.92 17.468 2 15.888 2H9.88797C8.30797 2 6.94797 2.92 6.29797 4.25H5.73797C4.29797 4.25 3.16797 5.38 3.16797 6.82C3.16797 8.26 3.77797 9.49 4.70797 10.52C5.16797 10.98 5.74797 11.39 6.40797 11.64C7.44797 14.2 9.94797 16 12.888 16C15.828 16 18.328 14.2 19.368 11.64ZM15.728 8.45L15.108 9.21C15.008 9.32 14.938 9.54 14.948 9.69L15.008 10.67C15.048 11.27 14.618 11.58 14.058 11.36L13.148 11C13.008 10.95 12.768 10.95 12.628 11L11.718 11.36C11.158 11.58 10.728 11.27 10.768 10.67L10.828 9.69C10.838 9.54 10.768 9.32 10.668 9.21L10.048 8.45C9.65797 7.99 9.82797 7.48 10.408 7.33L11.358 7.09C11.508 7.05 11.688 6.91 11.768 6.78L12.298 5.96C12.628 5.45 13.148 5.45 13.478 5.96L14.008 6.78C14.088 6.91 14.268 7.05 14.418 7.09L15.368 7.33C15.948 7.48 16.118 7.99 15.728 8.45Z" fill="#292D32"/>
</svg>
