<svg width="13" height="17" viewBox="0 0 13 17" fill="none" xmlns="http://www.w3.org/2000/svg">
<path d="M2.8 4.75371C2.8 3.44375 4.05563 2.37871 5.6 2.37871H7C8.54438 2.37871 9.8 3.44375 9.8 4.75371V4.8873C9.8 5.69629 9.31438 6.44961 8.51375 6.88379L6.6675 7.88945C5.565 8.49062 4.9 9.52598 4.9 10.6355V10.6875C4.9 11.3443 5.52563 11.875 6.3 11.875C7.07438 11.875 7.7 11.3443 7.7 10.6875V10.6355C7.7 10.3312 7.88375 10.0492 8.18125 9.88594L10.0275 8.88027C11.6287 8.00449 12.6 6.50156 12.6 4.88359V4.75C12.6 2.12637 10.0931 0 7 0L5.6 0C2.50688 0.00371094 0 2.13008 0 4.75371C0 5.41055 0.625625 5.94121 1.4 5.94121C2.17438 5.94121 2.8 5.41055 2.8 4.75371ZM6.3 16.6287C6.76413 16.6287 7.20925 16.4723 7.53744 16.1939C7.86563 15.9156 8.05 15.538 8.05 15.1443C8.05 14.7507 7.86563 14.3731 7.53744 14.0947C7.20925 13.8163 6.76413 13.66 6.3 13.66C5.83587 13.66 5.39075 13.8163 5.06256 14.0947C4.73437 14.3731 4.55 14.7507 4.55 15.1443C4.55 15.538 4.73437 15.9156 5.06256 16.1939C5.39075 16.4723 5.83587 16.6287 6.3 16.6287Z" fill="white"/>
</svg>
