<svg width="25" height="24" viewBox="0 0 25 24" fill="none" xmlns="http://www.w3.org/2000/svg">
<path d="M21.6796 8.01002L15.1296 2.77002C13.8496 1.75002 11.8496 1.74002 10.5796 2.76002L4.02957 8.01002C3.08957 8.76002 2.51957 10.26 2.71957 11.44L3.97957 18.98C4.26957 20.67 5.83957 22 7.54957 22H18.1496C19.8396 22 21.4396 20.64 21.7296 18.97L22.9896 11.43C23.1696 10.26 22.5996 8.76002 21.6796 8.01002ZM13.5996 18C13.5996 18.41 13.2596 18.75 12.8496 18.75C12.4396 18.75 12.0996 18.41 12.0996 18V15C12.0996 14.59 12.4396 14.25 12.8496 14.25C13.2596 14.25 13.5996 14.59 13.5996 15V18Z" fill="#292D32"/>
</svg>
