<svg width="68" height="68" viewBox="0 0 68 68" fill="none" xmlns="http://www.w3.org/2000/svg">
<g filter="url(#filter0_d_4960_6489)">
<circle cx="34" cy="30" r="30" fill="url(#paint0_linear_4960_6489)"/>
</g>
<g clip-path="url(#clip0_4960_6489)">
<path d="M49.9329 50.5994C49.9329 51.6437 42.4434 52.4902 33.2046 52.4902C23.9661 52.4902 16.4766 51.6437 16.4766 50.5994C16.4766 49.5553 23.9661 48.7088 33.2046 48.7088C42.4434 48.7088 49.9329 49.5553 49.9329 50.5994Z" fill="#60827F"/>
<path d="M18.696 23.8153C18.4765 25.8782 18.2805 28.0664 19.293 29.9242C20.1054 31.4149 21.6159 32.5084 23.2456 33.2688C25.8087 34.4646 28.7158 34.9366 31.5943 35.0642C34.4728 35.1917 37.355 34.99 40.2357 34.915C42.4722 34.8568 44.8718 34.8302 46.6948 33.6529C48.0668 32.7669 48.9124 31.3212 49.2581 29.8255C49.6037 28.3298 49.4927 26.7772 49.2549 25.2643C48.7982 22.3589 47.8779 19.5137 46.5319 16.8454C45.6903 15.1774 44.6457 13.5376 43.07 12.3887C41.2657 11.0732 38.9255 10.5199 36.6272 10.2726C33.5778 9.94425 30.4241 10.1045 27.5428 11.0679C24.6616 12.0313 22.0696 13.8448 20.618 16.3006C19.2693 18.5826 18.97 21.2378 18.696 23.8153" fill="#2E2227"/>
<path d="M47.2582 27.5697C47.0268 26.7684 46.7932 25.9582 46.7744 25.1301C46.7557 24.297 46.9553 23.4734 47.0175 22.6421C47.2987 18.892 44.419 15.1393 40.4461 14.0781L41.6065 15.0046C40.2989 14.1625 38.3834 14.3027 36.7326 14.5475C35.8121 14.684 34.8591 14.846 33.9819 15.1346C33.1046 14.846 32.1517 14.684 31.2313 14.5475C29.5805 14.3027 27.6648 14.1625 26.3573 15.0046L27.5178 14.0781C23.5448 15.1393 20.6652 18.892 20.9462 22.6421C21.0086 23.4734 21.2081 24.297 21.1893 25.1301C21.1707 25.9582 20.9369 26.7684 20.7056 27.5697C19.6524 31.2176 18.6093 34.9689 19.0682 38.717C19.5271 42.465 21.8147 46.2651 25.6762 47.6574C28.3071 48.606 31.3051 48.3227 33.9819 47.4638C36.6586 48.3227 39.6566 48.606 42.2877 47.6574C46.1491 46.2651 48.4368 42.465 48.8955 38.717C49.3544 34.9689 48.3114 31.2176 47.2582 27.5697" fill="#F2591D"/>
<path d="M33.9823 47.3037C34.0022 47.3037 34.0222 47.3067 34.0412 47.3129C35.6481 47.8284 37.215 48.0899 38.6984 48.0899C39.9674 48.0899 41.1532 47.8943 42.223 47.5085C45.6671 46.2668 48.2175 42.8089 48.7207 38.6994C49.1879 34.8833 48.0722 31.0193 47.088 27.6102C46.8569 26.8095 46.6177 25.9812 46.5985 25.1334C46.5867 24.6104 46.6595 24.0883 46.7297 23.5833C46.7732 23.2709 46.8182 22.9478 46.8419 22.6312C47.0965 19.2354 44.6936 15.824 41.2534 14.5091L41.7234 14.8844C41.794 14.9408 41.8036 15.0372 41.7452 15.104C41.6871 15.1708 41.5814 15.1843 41.5049 15.1352C40.8616 14.721 40.0094 14.5196 38.8997 14.5196C38.1072 14.5196 37.2998 14.6256 36.7615 14.7055C35.7158 14.8605 34.8533 15.0185 34.0424 15.2851C34.0036 15.2979 33.9611 15.2979 33.9223 15.2851C33.1115 15.0185 32.2489 14.8605 31.2032 14.7055C30.6648 14.6256 29.8574 14.5196 29.065 14.5196C27.9552 14.5196 27.103 14.721 26.4598 15.1352C26.3833 15.1843 26.2776 15.1708 26.2195 15.104C26.1612 15.0372 26.1707 14.9408 26.2412 14.8844L26.7112 14.5091C23.2711 15.824 20.8682 19.2354 21.1227 22.6312C21.1465 22.9478 21.1914 23.2709 21.2349 23.5833C21.3051 24.0883 21.378 24.6104 21.3662 25.1332C21.3471 25.9809 21.108 26.8094 20.8766 27.6102C19.8925 31.0193 18.7769 34.8833 19.2439 38.6994C19.7471 42.8089 22.2976 46.2668 25.7417 47.5085C26.8116 47.8943 27.9974 48.0899 29.2663 48.0899C30.7498 48.0899 32.3166 47.8284 33.9236 47.3129C33.9425 47.3067 33.9624 47.3037 33.9823 47.3037ZM38.6985 48.4102C38.6984 48.4102 38.6985 48.4102 38.6984 48.4102C37.193 48.4102 35.6067 48.1488 33.9823 47.6335C32.3581 48.1488 30.7717 48.4102 29.2663 48.4102C27.9526 48.4102 26.7228 48.207 25.6114 47.8061C22.0476 46.5212 19.4105 42.9604 18.8933 38.7346C18.4189 34.8595 19.5433 30.9651 20.5354 27.5291C20.7614 26.7461 20.9953 25.9365 21.0134 25.1267C21.0247 24.6274 20.9536 24.117 20.8849 23.6234C20.8408 23.3064 20.7951 22.9787 20.7707 22.6529C20.4848 18.838 23.4267 15.004 27.4683 13.9245C27.548 13.9034 27.6328 13.935 27.6726 14.0007C27.7126 14.0665 27.6968 14.1486 27.6348 14.1983L27.3986 14.3868C27.8845 14.2611 28.4373 14.1994 29.065 14.1994C29.8832 14.1994 30.7096 14.3078 31.2601 14.3893C32.1609 14.5231 33.1129 14.6853 33.9823 14.9645C34.852 14.6851 35.8037 14.5231 36.7045 14.3893C37.255 14.3078 38.0815 14.1994 38.8997 14.1994C39.5273 14.1994 40.0801 14.2611 40.5661 14.3868L40.3301 14.1983C40.2678 14.1486 40.2521 14.0665 40.2921 14.0007C40.3321 13.935 40.4167 13.9034 40.4964 13.9245C44.5381 15.004 47.48 18.838 47.1941 22.6529C47.1697 22.9787 47.1241 23.3064 47.0799 23.6234C47.011 24.117 46.94 24.6274 46.9513 25.1267C46.9695 25.9368 47.2034 26.7463 47.4292 27.5291C48.4213 30.9651 49.5457 34.8595 49.0714 38.7346C48.5541 42.9604 45.917 46.5212 42.3534 47.8061C41.2418 48.207 40.0121 48.4102 38.6985 48.4102" fill="#292625"/>
<path d="M47.8229 35.9093C47.6266 35.4291 47.1548 35.1016 46.6146 35.0765C46.6148 35.0845 47.0534 34.9542 47.104 34.9295C47.2897 34.8392 47.4507 34.707 47.5753 34.5475C47.801 34.2589 47.887 33.892 47.8402 33.5369C47.7499 32.852 47.117 32.3185 46.3887 32.3536C46.3882 32.3503 46.3879 32.347 46.3872 32.3435C47.1548 32.1935 47.5947 31.4533 47.4067 30.7389C47.3219 30.417 47.1354 30.1334 46.8493 29.9405C46.686 29.8301 46.4966 29.7588 46.2988 29.7305C46.2369 29.7216 45.7144 29.7427 45.7206 29.7585C46.4282 29.4461 46.6891 28.6266 46.3296 27.9729C45.972 27.3219 45.1552 27.0257 44.4605 27.3951C44.4646 27.4009 44.7613 27.0696 44.7902 27.0229C44.8861 26.8682 44.9427 26.6963 44.9625 26.518C45.0025 26.1581 44.8702 25.7891 44.6244 25.5162C44.1234 24.9596 43.2599 24.846 42.6694 25.3494C42.6713 25.3512 42.8751 24.9965 42.893 24.9476C42.9584 24.7692 42.9776 24.5805 42.9554 24.393C42.9129 24.036 42.7045 23.7111 42.4091 23.4927C41.8005 23.0372 40.9136 23.1148 40.4517 23.7242C40.4571 23.7273 40.5767 23.3092 40.582 23.2548C40.6009 23.0613 40.5699 22.8662 40.4961 22.6852C40.3663 22.3668 40.1001 22.1114 39.7788 21.9658C39.0818 21.6457 38.2337 21.9037 37.9196 22.5922C37.9212 22.5928 37.9498 22.191 37.9444 22.1392C37.9252 21.9524 37.8603 21.7751 37.7589 21.6148C37.5749 21.3241 37.2675 21.1182 36.9268 21.0291C36.1582 20.8277 35.3477 21.2473 35.1925 22.0113C35.1978 22.0119 35.1218 21.5853 35.1026 21.5337C35.0399 21.3654 34.9391 21.2143 34.808 21.0873C34.543 20.8308 34.1654 20.6832 33.787 20.6912C33.4028 20.6992 33.0396 20.8269 32.768 21.0917C32.6374 21.219 32.5377 21.3725 32.476 21.5407C32.4569 21.5925 32.3832 22.0188 32.3883 22.0184C32.2335 21.277 31.4771 20.8753 30.7249 21.025C30.3761 21.0946 30.0573 21.2985 29.8575 21.5794C29.7469 21.7347 29.6729 21.9098 29.6451 22.0959C29.6364 22.153 29.6558 22.6156 29.6646 22.6126C29.3458 21.9236 28.5154 21.6849 27.8155 21.9876C27.4732 22.1357 27.2002 22.418 27.0745 22.7558C27.0148 22.9162 26.9894 23.0855 27.0027 23.2556C27.0071 23.313 27.13 23.7615 27.1384 23.7566C26.6721 23.1477 25.8061 23.0854 25.1914 23.5242C24.8902 23.7392 24.6867 24.0708 24.6399 24.4267C24.6177 24.596 24.6311 24.7668 24.6826 24.9305C24.6998 24.9855 24.9221 25.399 24.9294 25.3922C24.3356 24.8914 23.4751 25.0105 22.974 25.5674C22.4712 26.1265 22.5437 26.984 23.1554 27.4374C23.1574 27.4345 22.7548 27.3071 22.7017 27.299C22.503 27.2691 22.2969 27.2827 22.1057 27.3428C21.7393 27.458 21.4595 27.7097 21.2821 28.0328C20.9228 28.6871 21.1968 29.5083 21.9026 29.8162C21.9087 29.8005 21.3853 29.7816 21.3232 29.7907C21.1256 29.8198 20.9366 29.892 20.7739 30.0034C20.4891 30.1983 20.3056 30.4829 20.2208 30.8048C20.123 31.176 20.1901 31.5814 20.4224 31.8957C20.5237 32.0337 20.6543 32.1513 20.8046 32.2395C20.8508 32.2666 21.2476 32.4205 21.2482 32.416C20.564 32.3842 19.9528 32.8569 19.8182 33.4943C19.6545 34.269 20.1889 35.0486 21.0305 35.1283C21.0307 35.1201 20.5871 35.2298 20.5354 35.2519C20.364 35.3253 20.2083 35.4333 20.0824 35.5666C19.8303 35.8335 19.7131 36.1944 19.7325 36.55C19.7513 36.8938 19.8899 37.2168 20.1461 37.4622C20.2787 37.5893 20.4422 37.6859 20.6188 37.7469C20.6758 37.7668 21.1956 37.848 21.1926 37.8285C20.4045 37.9879 19.9962 38.7285 20.1788 39.4553C20.2626 39.7891 20.4966 40.0924 20.8023 40.2697C20.9767 40.3708 21.1702 40.4327 21.3744 40.4441C21.431 40.4474 21.9423 40.3898 21.9328 40.369C21.1802 40.7208 21.0136 41.5743 21.4436 42.2278C21.6339 42.5166 21.9544 42.7402 22.3059 42.8086C22.4972 42.846 22.6951 42.8442 22.8839 42.7958C22.9403 42.7814 23.4344 42.5539 23.4112 42.5301C22.8373 43.0917 22.9629 43.973 23.6105 44.4278C24.2509 44.8776 25.1438 44.7659 25.568 44.0984C25.5578 44.0933 25.4566 44.5045 25.4528 44.5533C25.4378 44.747 25.4702 44.9454 25.5534 45.123C25.7077 45.4527 25.9975 45.7088 26.3514 45.8323C27.0782 46.1005 27.9032 45.7765 28.1594 45.0597C28.1547 45.0587 28.1566 45.4663 28.1655 45.5166C28.1986 45.7036 28.2766 45.88 28.3883 46.0365C28.5874 46.315 28.9049 46.494 29.2448 46.57C30.0112 46.7414 30.7958 46.2834 30.9442 45.5378C30.9435 45.5376 31.0089 45.9332 31.0263 45.9829C31.0884 46.1612 31.1916 46.3242 31.3244 46.4626C31.5738 46.7225 31.9311 46.8628 32.2961 46.8836C33.048 46.9321 33.7363 46.4034 33.7913 45.6749C33.7942 45.6749 33.8932 46.0358 33.9147 46.0814C33.9895 46.2424 34.0999 46.3873 34.2363 46.5056C34.5285 46.7592 34.9204 46.8812 35.3124 46.852C35.6612 46.8259 36.0026 46.6952 36.2482 46.4524C36.3824 46.3195 36.4885 46.1596 36.555 45.9861C36.576 45.9317 36.6579 45.4794 36.6503 45.4803C36.8058 46.1864 37.5496 46.6475 38.291 46.5017C38.634 46.4343 38.9606 46.2659 39.1737 45.9956C39.2927 45.8448 39.3773 45.6685 39.4183 45.4837C39.4306 45.428 39.4445 44.9624 39.4334 44.9654C39.6978 45.6762 40.5209 45.9948 41.2445 45.725C41.5818 45.6109 41.8619 45.3644 42.0182 45.0579C42.1062 44.8854 42.15 44.6979 42.1455 44.506C42.1443 44.4518 42.0461 43.9885 42.0308 43.9963C42.45 44.6559 43.3432 44.7806 43.9825 44.334C44.6299 43.882 44.7723 43.0133 44.2069 42.4416C44.1949 42.4536 44.5897 42.6678 44.6367 42.6847C44.8286 42.7529 45.0352 42.7687 45.2373 42.7431C45.6225 42.6946 45.9611 42.4643 46.1778 42.162C46.6274 41.5187 46.4506 40.653 45.71 40.2982C45.7043 40.3102 46.1428 40.3797 46.1934 40.3798C46.401 40.3815 46.6036 40.3312 46.7859 40.2367C47.1218 40.0627 47.3758 39.7494 47.4689 39.394C47.6591 38.6677 47.2444 37.9239 46.4584 37.765C46.4539 37.7931 47.0303 37.6856 47.0916 37.6612C47.3206 37.5698 47.5143 37.4178 47.6573 37.2245C47.9356 36.8481 47.9972 36.3381 47.8229 35.9093C47.7527 35.7376 47.8926 36.0808 47.8229 35.9093" fill="#F7A80E"/>
<path d="M45.5504 33.4403C45.3859 33.038 44.9906 32.7637 44.538 32.7426C44.5382 32.7492 44.9058 32.64 44.9481 32.6195C45.1038 32.5438 45.2385 32.4331 45.3431 32.2995C45.532 32.0577 45.6041 31.7503 45.5648 31.4528C45.4891 30.8791 44.9589 30.4322 44.3488 30.4615C44.3485 30.4587 44.3482 30.456 44.3477 30.4531C44.9906 30.3273 45.3592 29.7074 45.2017 29.1088C45.1307 28.839 44.9743 28.6016 44.7347 28.4399C44.5979 28.3474 44.4393 28.2877 44.2735 28.2639C44.2216 28.2566 43.7839 28.2742 43.7891 28.2874C44.3819 28.0258 44.6004 27.3391 44.2994 26.7914C43.9997 26.2462 43.3154 25.9981 42.7334 26.3075C42.7369 26.3124 42.9855 26.0348 43.0097 25.9957C43.09 25.866 43.1375 25.7221 43.1541 25.5726C43.1875 25.2712 43.0768 24.9621 42.8708 24.7333C42.4511 24.2671 41.7277 24.1719 41.233 24.5937C41.2346 24.5952 41.4052 24.298 41.4203 24.257C41.4749 24.1076 41.4912 23.9494 41.4725 23.7923C41.4369 23.4933 41.2624 23.2212 41.0149 23.0382C40.5049 22.6566 39.7619 22.7215 39.3751 23.2322C39.3796 23.2347 39.4798 22.8845 39.4843 22.839C39.5 22.6767 39.474 22.5134 39.4123 22.3617C39.3034 22.0949 39.0805 21.8811 38.8113 21.7591C38.2273 21.4909 37.5168 21.7069 37.2538 22.2838C37.2551 22.2843 37.279 21.9476 37.2746 21.9043C37.2585 21.7478 37.2042 21.5992 37.119 21.465C36.965 21.2215 36.7075 21.049 36.422 20.9741C35.7783 20.8054 35.0992 21.1572 34.9692 21.7972C34.9737 21.7976 34.91 21.4403 34.8939 21.397C34.8413 21.2561 34.7568 21.1294 34.6471 21.0231C34.425 20.8082 34.1087 20.6845 33.7916 20.6913C33.4698 20.6979 33.1656 20.8048 32.9379 21.0267C32.8285 21.1334 32.7451 21.262 32.6933 21.4028C32.6773 21.4462 32.6156 21.8035 32.6199 21.803C32.4903 21.1819 31.8565 20.8454 31.2264 20.9708C30.9341 21.0291 30.6669 21.1999 30.4996 21.4354C30.407 21.5655 30.3451 21.7121 30.3217 21.8681C30.3146 21.9159 30.3307 22.3033 30.338 22.3008C30.0711 21.7237 29.3753 21.5238 28.7891 21.7773C28.5022 21.9014 28.2735 22.1379 28.1683 22.4209C28.1181 22.5553 28.0969 22.6971 28.108 22.8396C28.1117 22.8877 28.2146 23.2633 28.2217 23.2593C27.831 22.7493 27.1056 22.697 26.5905 23.0645C26.3382 23.2447 26.1678 23.5226 26.1286 23.8207C26.1099 23.9625 26.1212 24.1056 26.1643 24.2427C26.1788 24.2888 26.365 24.6352 26.3711 24.6295C25.8737 24.2099 25.1528 24.3097 24.7331 24.7764C24.3117 25.2447 24.3725 25.9631 24.8849 26.3429C24.8866 26.3405 24.5494 26.2337 24.5047 26.2269C24.3384 26.2019 24.1657 26.2133 24.0057 26.2636C23.6985 26.3602 23.4642 26.5711 23.3155 26.8417C23.0144 27.3899 23.2441 28.0779 23.8354 28.3358C23.8406 28.3227 23.4021 28.3069 23.3502 28.3144C23.1844 28.3388 23.0261 28.3992 22.8898 28.4926C22.6513 28.656 22.4975 28.8943 22.4264 29.1639C22.3445 29.475 22.4007 29.8146 22.5954 30.0779C22.6802 30.1936 22.7896 30.2919 22.9155 30.3659C22.9542 30.3885 23.2866 30.5174 23.2871 30.5138C22.7141 30.4872 22.2019 30.8831 22.0892 31.4171C21.9521 32.0661 22.3997 32.7193 23.1047 32.786C23.1049 32.7792 22.7333 32.8711 22.6902 32.8896C22.5464 32.9511 22.416 33.0416 22.3104 33.1532C22.0993 33.3769 22.0011 33.6792 22.0174 33.977C22.0331 34.2651 22.1493 34.5356 22.3639 34.7412C22.4751 34.8477 22.6118 34.9286 22.7599 34.9798C22.8077 34.9964 23.2431 35.0645 23.2406 35.0482C22.5803 35.1817 22.2384 35.8022 22.3913 36.4111C22.4615 36.6906 22.6575 36.9447 22.9135 37.0933C23.0597 37.1781 23.2219 37.2297 23.3928 37.2395C23.4403 37.2421 23.8686 37.1939 23.8607 37.1764C23.2302 37.4713 23.0906 38.1862 23.4509 38.7337C23.6104 38.9756 23.8787 39.163 24.1733 39.2204C24.3335 39.2515 24.4993 39.2502 24.6576 39.2095C24.7047 39.1975 25.1186 39.0069 25.0992 38.9871C24.6184 39.4575 24.7238 40.1958 25.2663 40.5767C25.8027 40.9536 26.5507 40.8599 26.9062 40.3008C26.8977 40.2964 26.8127 40.6411 26.8096 40.6819C26.7971 40.8441 26.8242 41.0104 26.8939 41.1592C27.0232 41.4353 27.2658 41.6499 27.5625 41.7533C28.1714 41.9782 28.8625 41.7066 29.077 41.1062C29.0732 41.1053 29.0747 41.4468 29.0822 41.4889C29.1099 41.6456 29.1751 41.7935 29.2689 41.9244C29.4357 42.1577 29.7015 42.3077 29.9863 42.3714C30.6284 42.515 31.2858 42.1313 31.4099 41.5067C31.4094 41.5066 31.4644 41.8379 31.4788 41.8795C31.5309 42.0291 31.6174 42.1655 31.7286 42.2814C31.9375 42.4992 32.2369 42.6167 32.5426 42.6341C33.1726 42.6748 33.7491 42.2318 33.7954 41.6216C33.7976 41.6216 33.8807 41.9239 33.8986 41.9622C33.9614 42.097 34.0538 42.2184 34.1681 42.3175C34.4129 42.5299 34.7412 42.6322 35.0695 42.6076C35.3617 42.5858 35.6478 42.4763 35.8534 42.2729C35.9661 42.1616 36.0548 42.0276 36.1105 41.8822C36.1281 41.8366 36.1968 41.4578 36.1905 41.4585C36.3206 42.05 36.9438 42.4364 37.565 42.3142C37.8523 42.2577 38.1259 42.1166 38.3045 41.8902C38.4041 41.7638 38.4751 41.6162 38.5093 41.4614C38.5197 41.4147 38.5313 41.0247 38.5221 41.0271C38.7434 41.6225 39.433 41.8896 40.0392 41.6635C40.3219 41.5679 40.5564 41.3615 40.6875 41.1047C40.7612 40.9602 40.7978 40.8031 40.7942 40.6423C40.793 40.5968 40.7109 40.2088 40.6981 40.2153C41.0491 40.7679 41.7976 40.8723 42.3331 40.4983C42.8753 40.1196 42.9948 39.3918 42.521 38.9128C42.511 38.9229 42.8418 39.1023 42.8811 39.1164C43.0418 39.1735 43.2149 39.1868 43.3843 39.1654C43.7069 39.1247 43.9905 38.9318 44.1721 38.6786C44.5488 38.1396 44.4008 37.4145 43.7803 37.1171C43.7755 37.1273 44.1429 37.1854 44.1852 37.1856C44.3591 37.1868 44.5289 37.1448 44.6816 37.0657C44.9629 36.9199 45.1758 36.6573 45.2538 36.3596C45.4131 35.7512 45.0658 35.1281 44.4073 34.9949C44.4036 35.0184 44.8864 34.9285 44.9377 34.908C45.1295 34.8313 45.2918 34.704 45.4116 34.5421C45.6448 34.2269 45.6964 33.7995 45.5504 33.4403C45.4916 33.2965 45.6088 33.584 45.5504 33.4403" fill="#F3D055"/>
<path d="M43.2816 30.9713C43.149 30.6469 42.8302 30.4258 42.4652 30.4087C42.4654 30.414 42.7618 30.326 42.796 30.3095C42.9214 30.2485 43.0301 30.1592 43.1144 30.0515C43.2668 29.8564 43.3249 29.6086 43.2933 29.3687C43.2323 28.9061 42.8046 28.5457 42.3127 28.5695C42.3125 28.5672 42.3122 28.5649 42.3117 28.5627C42.8302 28.4613 43.1274 27.9612 43.0004 27.4786C42.9432 27.2611 42.817 27.0697 42.6239 26.9393C42.5135 26.8647 42.3856 26.8165 42.252 26.7975C42.2101 26.7915 41.8573 26.8057 41.8615 26.8163C42.3394 26.6053 42.5157 26.0516 42.2729 25.6101C42.0312 25.1703 41.4794 24.9703 41.0101 25.2197C41.0129 25.2238 41.2134 25 41.233 24.9683C41.2977 24.864 41.3359 24.7478 41.3493 24.6273C41.3764 24.3842 41.2869 24.1349 41.121 23.9506C40.7826 23.5746 40.1992 23.4979 39.8003 23.838C39.8016 23.8391 39.9392 23.5996 39.9513 23.5665C39.9954 23.446 40.0085 23.3185 39.9934 23.1919C39.9647 22.9507 39.824 22.7313 39.6245 22.5836C39.2133 22.2759 38.6142 22.3283 38.3022 22.7401C38.3058 22.7421 38.3866 22.4598 38.3901 22.4231C38.4029 22.2922 38.382 22.1605 38.332 22.0382C38.2444 21.8231 38.0647 21.6507 37.8476 21.5523C37.3768 21.336 36.8039 21.5103 36.5916 21.9754C36.5928 21.9759 36.612 21.7043 36.6086 21.6694C36.5954 21.5433 36.5516 21.4234 36.4831 21.3151C36.3588 21.1188 36.1512 20.9798 35.921 20.9194C35.4019 20.7834 34.8544 21.0669 34.7495 21.583C34.7531 21.5833 34.7019 21.2952 34.6888 21.2603C34.6464 21.1467 34.5784 21.0447 34.4898 20.9589C34.3107 20.7855 34.0556 20.6859 33.8 20.6912C33.5405 20.6966 33.2952 20.7829 33.1117 20.9619C33.0235 21.0479 32.9562 21.1514 32.9145 21.2651C32.9016 21.3 32.8518 21.5882 32.8552 21.5877C32.7507 21.0869 32.2397 20.8156 31.7315 20.9167C31.4959 20.9637 31.2805 21.1015 31.1455 21.2913C31.0709 21.3961 31.0209 21.5144 31.0022 21.6401C30.9964 21.6787 31.0093 21.9911 31.0153 21.9891C30.8 21.5239 30.2391 21.3625 29.7663 21.5669C29.5349 21.6669 29.3505 21.8578 29.2656 22.0858C29.2252 22.1943 29.2082 22.3086 29.2171 22.4235C29.2201 22.4622 29.3031 22.7653 29.3087 22.762C28.9939 22.3506 28.4089 22.3086 27.9935 22.605C27.79 22.7502 27.6526 22.9742 27.6211 23.2146C27.606 23.3291 27.6151 23.4445 27.6498 23.5549C27.6616 23.5921 27.8116 23.8715 27.8166 23.8668C27.4155 23.5285 26.8341 23.6091 26.4957 23.9852C26.156 24.3628 26.205 24.9421 26.6182 25.2483C26.6197 25.2465 26.3477 25.1604 26.3117 25.155C26.1776 25.1348 26.0384 25.144 25.9092 25.1845C25.6616 25.2623 25.4726 25.4324 25.3528 25.6507C25.11 26.0926 25.295 26.6473 25.772 26.8554C25.776 26.8447 25.4225 26.832 25.3807 26.8382C25.2471 26.8578 25.1193 26.9066 25.0094 26.9817C24.8171 27.1135 24.6931 27.3057 24.6358 27.5231C24.5698 27.7739 24.6151 28.0477 24.7721 28.2601C24.8405 28.3533 24.9286 28.4327 25.0302 28.4923C25.0614 28.5106 25.3295 28.6145 25.3299 28.6116C24.8677 28.5901 24.4548 28.9094 24.3638 29.3399C24.2533 29.8633 24.6143 30.3899 25.1828 30.4437C25.1828 30.4383 24.8833 30.5124 24.8484 30.5273C24.7326 30.5768 24.6274 30.6497 24.5424 30.7398C24.3721 30.9201 24.293 31.164 24.3061 31.4041C24.3187 31.6363 24.4123 31.8546 24.5854 32.0203C24.675 32.1063 24.7854 32.1714 24.9047 32.2126C24.9432 32.226 25.2944 32.2809 25.2924 32.2679C24.7598 32.3754 24.4842 32.8758 24.6075 33.3667C24.6641 33.5922 24.822 33.797 25.0287 33.9168C25.1465 33.9852 25.2771 34.0269 25.4152 34.0347C25.4534 34.0368 25.7987 33.998 25.7922 33.9838C25.2839 34.2217 25.1714 34.7981 25.4618 35.2396C25.5904 35.4346 25.8068 35.5857 26.0443 35.632C26.1736 35.6571 26.3072 35.6561 26.4348 35.6232C26.4728 35.6136 26.8066 35.4599 26.791 35.4438C26.4033 35.8231 26.4883 36.4185 26.9257 36.7258C27.3582 37.0296 27.9615 36.9541 28.2479 36.5033C28.2411 36.4997 28.1727 36.7775 28.1701 36.8104C28.1601 36.9413 28.1819 37.0754 28.2381 37.1954C28.3424 37.4181 28.538 37.591 28.7773 37.6744C29.2682 37.8558 29.8255 37.6368 29.9984 37.1527C29.9953 37.1519 29.9966 37.4273 30.0026 37.4613C30.025 37.5875 30.0776 37.7068 30.1531 37.8124C30.2877 38.0005 30.5021 38.1215 30.7316 38.1728C31.2494 38.2887 31.7795 37.9793 31.8796 37.4754C31.8792 37.4754 31.9234 37.7427 31.9352 37.7763C31.9772 37.8968 32.0469 38.0067 32.1365 38.1002C32.3051 38.2759 32.5464 38.3706 32.793 38.3846C33.3008 38.4175 33.7657 38.0603 33.803 37.5682C33.8049 37.5682 33.8719 37.8119 33.8862 37.8428C33.937 37.9516 34.0115 38.0493 34.1036 38.1293C34.3011 38.3006 34.5658 38.383 34.8305 38.3632C35.0661 38.3458 35.2967 38.2573 35.4626 38.0935C35.5534 38.0037 35.6249 37.8955 35.6699 37.7784C35.684 37.7416 35.7394 37.4361 35.7343 37.4367C35.8393 37.9136 36.3419 38.2251 36.8426 38.1268C37.0742 38.0811 37.2948 37.9674 37.4388 37.7848C37.5193 37.6829 37.5764 37.5639 37.6041 37.439C37.6124 37.4013 37.6219 37.0868 37.6144 37.089C37.793 37.569 38.349 37.7842 38.8377 37.602C39.0656 37.5249 39.2548 37.3584 39.3605 37.1513C39.4199 37.0349 39.4494 36.9082 39.4464 36.7785C39.4456 36.7419 39.3792 36.4289 39.3689 36.4343C39.6521 36.8797 40.2555 36.9641 40.6873 36.6624C41.1246 36.3571 41.2209 35.7702 40.839 35.384C40.8307 35.3922 41.0976 35.5369 41.1293 35.5482C41.2589 35.5943 41.3984 35.605 41.535 35.5877C41.7951 35.555 42.0238 35.3994 42.1703 35.1951C42.4738 34.7606 42.3545 34.1759 41.8543 33.9361C41.8505 33.9442 42.1466 33.9912 42.1808 33.9912C42.321 33.9923 42.4579 33.9584 42.5811 33.8945C42.8079 33.777 42.9797 33.5654 43.0424 33.3253C43.1709 32.8347 42.8907 32.3322 42.3598 32.2248C42.3568 32.2438 42.7462 32.1714 42.7875 32.1548C42.9422 32.093 43.0731 31.9903 43.1697 31.8597C43.3577 31.6056 43.3992 31.261 43.2816 30.9713C43.2343 30.8554 43.3287 31.0872 43.2816 30.9713" fill="#F8E298"/>
<path d="M22.9149 41.7422C22.6369 40.7744 22.3589 39.8065 22.0809 38.8387C22.7784 39.9504 23.9933 40.7844 25.3616 41.0912C25.1536 40.2968 24.9459 39.5025 24.7379 38.7082C25.3204 39.3138 26.0549 39.7984 26.8695 40.1144C27.0909 40.2002 27.3597 40.2703 27.56 40.1489C27.7623 40.0263 27.7924 39.7705 27.7881 39.5498C27.7466 37.4009 26.3884 35.4779 25.0514 33.7039C23.7144 31.93 22.3035 30.0572 22.1319 27.9136C22.0733 27.1808 22.0657 26.2783 21.3479 25.9385C20.8482 25.7017 20.2049 25.893 19.8094 26.2574C19.4138 26.6219 19.2137 27.1213 19.0447 27.6094C17.9515 30.765 17.6945 34.1563 18.3016 37.4181C18.4976 38.4718 18.8172 39.57 19.6539 40.3219C19.6149 39.2753 19.5758 38.2287 19.5368 37.1822C20.0751 38.9817 21.282 40.6107 22.9149 41.7422" fill="#F2591D"/>
<path d="M19.5375 37.0221C19.616 37.0221 19.6864 37.0695 19.7076 37.1402C20.1911 38.7562 21.2132 40.2205 22.6092 41.3108L21.9107 38.8792C21.8885 38.8014 21.9331 38.7207 22.0151 38.6904C22.0966 38.6603 22.1909 38.6897 22.2348 38.7596C22.8564 39.7502 23.9211 40.522 25.1212 40.8638L24.5669 38.7452C24.5481 38.6736 24.5856 38.5996 24.6578 38.5659C24.7302 38.5323 24.8181 38.5475 24.8714 38.6029C25.4355 39.1894 26.1506 39.6612 26.9394 39.9671C27.1897 40.0641 27.3563 40.0801 27.4627 40.0158C27.5681 39.9519 27.617 39.8004 27.6122 39.5526C27.5725 37.4976 26.3096 35.6562 24.9064 33.7944C23.5423 31.9846 22.1316 30.1129 21.9565 27.9253L21.9434 27.7502C21.8953 27.095 21.8409 26.3523 21.267 26.0804C21.1462 26.0232 21.0106 25.9943 20.8639 25.9943C20.5427 25.9943 20.1871 26.1381 19.9357 26.3698C19.5616 26.7144 19.3739 27.1949 19.2136 27.6575C18.1287 30.7888 17.8738 34.1547 18.4761 37.3914C18.6324 38.2316 18.8737 39.1616 19.4613 39.8761L19.3609 37.1876C19.358 37.1063 19.4225 37.036 19.5111 37.0238C19.5199 37.0226 19.5287 37.0221 19.5375 37.0221V37.0221ZM22.9154 41.9023C22.8776 41.9023 22.8399 41.8913 22.8084 41.8695C21.458 40.9337 20.4 39.6748 19.7539 38.2539L19.8296 40.2855C19.8326 40.2973 19.8343 40.3095 19.8343 40.322C19.8343 40.4104 19.7553 40.4821 19.6578 40.4821C19.6568 40.482 19.6557 40.4821 19.6547 40.4821C19.609 40.4821 19.5642 40.466 19.5304 40.4357C18.6355 39.6318 18.3194 38.4726 18.128 37.4448C17.5167 34.1584 17.7755 30.7408 18.8768 27.5614C19.0426 27.0834 19.2552 26.5404 19.6842 26.145C20.0044 25.8501 20.4455 25.674 20.8639 25.674C21.068 25.674 21.2585 25.7152 21.4301 25.7965C22.1797 26.1517 22.2438 27.0262 22.2954 27.729L22.3084 27.9021C22.4766 30.0036 23.8599 31.8388 25.1975 33.6136C26.6322 35.5172 27.9236 37.4033 27.965 39.547C27.9695 39.7802 27.9426 40.1101 27.6585 40.2822C27.4474 40.41 27.1792 40.4083 26.8008 40.2616C26.1621 40.014 25.5689 39.6638 25.0578 39.2354L25.5261 41.0251C25.5361 41.0453 25.5419 41.0676 25.5419 41.0912C25.5419 41.1796 25.4629 41.2513 25.3655 41.2513C25.3645 41.2513 25.3631 41.2513 25.3622 41.2513C25.348 41.2513 25.3338 41.2498 25.3198 41.2467C24.2326 41.003 23.2283 40.4274 22.4971 39.6511L23.0862 41.7019C23.1053 41.768 23.0759 41.8377 23.0132 41.8757C22.9835 41.8935 22.9495 41.9023 22.9154 41.9023" fill="#292625"/>
<path d="M45.0454 41.7422C45.3234 40.7744 45.6014 39.8065 45.8794 38.8387C45.1818 39.9504 43.9672 40.7844 42.5989 41.0912C42.8066 40.2968 43.0144 39.5025 43.2224 38.7082C42.6399 39.3138 41.9053 39.7984 41.0908 40.1144C40.8694 40.2002 40.6006 40.2703 40.4003 40.1489C40.198 40.0263 40.1681 39.7705 40.1722 39.5498C40.2139 37.4009 41.5719 35.4779 42.9089 33.7039C44.246 31.93 45.6568 30.0572 45.8284 27.9136C45.8872 27.1808 45.8946 26.2783 46.6124 25.9385C47.1121 25.7017 47.7554 25.893 48.151 26.2574C48.5465 26.6219 48.7466 27.1213 48.9156 27.6094C50.0089 30.765 50.2658 34.1563 49.6587 37.4181C49.4627 38.4718 49.1433 39.57 48.3063 40.3219C48.3455 39.2753 48.3845 38.2287 48.4235 37.1822C47.8851 38.9817 46.6783 40.6107 45.0454 41.7422" fill="#F2591D"/>
<path d="M45.8802 38.6787C45.9023 38.6787 45.9249 38.6824 45.9466 38.6904C46.0286 38.7207 46.0731 38.8014 46.0508 38.8792L45.3523 41.3108C46.7485 40.2205 47.7705 38.7562 48.2539 37.1402C48.2775 37.0617 48.3625 37.0122 48.4504 37.0238C48.539 37.036 48.6036 37.1063 48.6006 37.1876L48.5002 39.8761C49.0879 39.1616 49.3292 38.2316 49.4855 37.3914C50.0879 34.1547 49.8328 30.7888 48.748 27.6575C48.5878 27.1949 48.4 26.7144 48.0259 26.3698C47.7745 26.1381 47.4188 25.9943 47.0977 25.9943C46.951 25.9943 46.8154 26.0232 46.6946 26.0804C46.1207 26.3523 46.0663 27.095 46.0183 27.7502L46.005 27.9253C45.8299 30.1129 44.4193 31.9846 43.0553 33.7944C41.6519 35.6562 40.389 37.4976 40.3493 39.5526C40.3445 39.8004 40.3935 39.9519 40.499 40.0158C40.6052 40.0802 40.772 40.0641 41.0223 39.9671C41.8111 39.6612 42.5262 39.1894 43.0901 38.6029C43.1436 38.5475 43.2319 38.5323 43.3037 38.5659C43.3759 38.5996 43.4134 38.6736 43.3947 38.7452L42.8404 40.8638C44.0406 40.522 45.1052 39.7502 45.7267 38.7596C45.7591 38.7082 45.8185 38.6787 45.8802 38.6787V38.6787ZM45.0461 41.9023C45.0121 41.9023 44.9781 41.8935 44.9484 41.8757C44.8856 41.8377 44.8564 41.768 44.8753 41.7019L45.4645 39.6511C44.7333 40.4274 43.7289 41.003 42.6417 41.2467C42.582 41.2601 42.5189 41.2443 42.4754 41.205C42.4316 41.1656 42.4137 41.1086 42.4278 41.0543L42.9038 39.2354C42.3926 39.6638 41.7995 40.014 41.1609 40.2616C40.7823 40.4083 40.5143 40.4101 40.3032 40.2822C40.0189 40.1101 39.992 39.7802 39.9965 39.547C40.038 37.4033 41.3293 35.5172 42.764 33.6136C44.1017 31.8388 45.4849 30.0036 45.6532 27.9021L45.6663 27.729C45.7177 27.0262 45.7818 26.1517 46.5314 25.7965C46.703 25.7152 46.8937 25.674 47.0977 25.674C47.5162 25.674 47.9572 25.8501 48.2773 26.145C48.7063 26.5404 48.9191 27.0834 49.0847 27.5614C50.186 30.7408 50.4451 34.1584 49.8335 37.4448C49.6422 38.4726 49.326 39.6318 48.4312 40.4357C48.3797 40.4818 48.3027 40.4948 48.2363 40.4687C48.1701 40.4423 48.1283 40.3821 48.1308 40.3166L48.2078 38.2539C47.5615 39.6748 46.5036 40.9337 45.1532 41.8695C45.1216 41.8913 45.0838 41.9023 45.0461 41.9023" fill="#292625"/>
<path d="M27.7444 46.5794C27.4407 46.3826 27.0117 46.5163 26.7063 46.7111C26.0118 47.1538 25.5695 47.8683 25.3566 48.6141C25.1436 49.3598 25.1403 50.1411 25.1793 50.9106C25.1851 51.0257 25.2077 51.1631 25.323 51.2113C25.4781 51.2759 25.6311 51.1227 25.7189 50.99C26.184 50.2884 26.6491 49.5867 27.1142 48.8849C27.3628 48.5098 27.6119 48.1337 27.8149 47.7367C27.9125 47.5458 28.0003 47.3454 28.0087 47.1352C28.0172 46.9251 27.9331 46.7016 27.7444 46.5794" fill="#EDA263"/>
<path d="M27.3903 46.6428C27.2166 46.6428 27.003 46.7155 26.8043 46.8422C26.2029 47.2256 25.748 47.8692 25.524 48.6544C25.3107 49.4018 25.3153 50.1771 25.3522 50.9034C25.3595 51.0478 25.393 51.0657 25.3933 51.0659L25.395 51.0665C25.4166 51.0665 25.4908 51.0186 25.5643 50.9076L26.9597 48.8025C27.2016 48.4375 27.4519 48.0603 27.6515 47.6695C27.7393 47.4974 27.8218 47.3131 27.8289 47.1295C27.8347 46.99 27.7875 46.8064 27.6386 46.7098C27.5691 46.6648 27.4877 46.6428 27.3903 46.6428ZM25.395 51.3867C25.3948 51.3867 25.3948 51.3867 25.3948 51.3867C25.3436 51.3867 25.2936 51.3768 25.246 51.3569C25.0171 51.2612 25.004 51.0031 24.9997 50.9181C24.9633 50.2027 24.9567 49.3647 25.1824 48.5741C25.4275 47.7154 25.9315 47.0073 26.6015 46.5801C26.7524 46.4839 27.0554 46.3226 27.3903 46.3226C27.5614 46.3226 27.7139 46.3652 27.8434 46.4491C28.0634 46.5917 28.1931 46.8568 28.1816 47.1411C28.172 47.3813 28.0749 47.6018 27.9715 47.8041C27.7639 48.2107 27.5086 48.5953 27.2619 48.9675L25.8667 51.0728C25.789 51.19 25.6242 51.3867 25.395 51.3867" fill="#292625"/>
<path d="M27.2104 47.9102C27.2488 47.7331 27.2785 47.5496 27.2368 47.3732C27.1623 47.7005 26.921 47.9933 26.596 48.1508C26.6641 48.3931 26.6712 48.6563 26.5673 48.8878C26.4633 49.1193 26.2354 49.3125 25.9629 49.3496C26.0012 49.7782 25.9062 50.2163 25.6914 50.5996C26.0874 49.9667 26.4832 49.3336 26.879 48.7005C26.9522 48.5838 27.0254 48.4666 27.0803 48.3419C27.1414 48.203 27.1789 48.0568 27.2104 47.9102Z" fill="#DC7029"/>
<path d="M28.8585 46.5794C29.1624 46.3826 29.5912 46.5163 29.8968 46.7111C30.5913 47.1538 31.0336 47.8683 31.2463 48.6141C31.4593 49.3598 31.4627 50.1411 31.4236 50.9106C31.4178 51.0257 31.3954 51.1631 31.28 51.2113C31.125 51.2759 30.972 51.1227 30.8841 50.99C30.419 50.2884 29.9539 49.5867 29.4887 48.8849C29.2401 48.5098 28.991 48.1337 28.788 47.7367C28.6906 47.5458 28.6026 47.3454 28.5943 47.1352C28.5859 46.9251 28.67 46.7016 28.8585 46.5794" fill="#EDA263"/>
<path d="M29.2062 46.6428C29.1086 46.6428 29.0275 46.6648 28.9579 46.7098C28.8089 46.8062 28.7618 46.9898 28.7674 47.1295C28.7747 47.3132 28.857 47.4976 28.945 47.6695C29.1441 48.0591 29.3946 48.437 29.6367 48.8025L31.0321 50.9077C31.1053 51.0181 31.1793 51.0662 31.2012 51.0665C31.2042 51.0653 31.237 51.046 31.2442 50.9034C31.281 50.1769 31.2858 49.4015 31.0724 48.6544C30.8482 47.8692 30.3936 47.2256 29.7922 46.8421C29.5935 46.7156 29.38 46.6428 29.2062 46.6428V46.6428ZM31.2015 51.0665V51.2266V51.0665ZM31.2015 51.3867C30.9722 51.3867 30.8075 51.19 30.7297 51.0728L29.3345 48.9675C29.0874 48.5949 28.832 48.2094 28.6248 47.8041C28.5215 47.6018 28.4244 47.3815 28.4147 47.1411C28.4035 46.8567 28.5331 46.5916 28.753 46.4491C28.8826 46.3652 29.0351 46.3226 29.2062 46.3226C29.5411 46.3226 29.8441 46.4839 29.9948 46.5801C30.6648 47.0072 31.1688 47.7152 31.4139 48.5741C31.6396 49.3644 31.633 50.2025 31.5967 50.9181C31.5918 51.012 31.5792 51.2612 31.3505 51.3569C31.3029 51.3768 31.2528 51.3867 31.2015 51.3867" fill="#292625"/>
<path d="M30.0704 48.0276C30.0402 48.3065 30.0925 48.5924 30.2203 48.8476C30.2654 48.938 30.3215 49.0262 30.404 49.0913C30.4865 49.1565 30.5993 49.1958 30.7064 49.1762C30.6557 49.4346 30.7434 49.6982 30.8506 49.9419C30.9203 50.1 30.9986 50.2552 31.0854 50.4062C31.029 50.3834 30.9883 50.3379 30.95 50.2939C30.7515 50.0651 30.561 49.8309 30.3703 49.5966C30.2842 49.4909 30.198 49.385 30.1117 49.2791C30.0586 49.2138 30.0053 49.1482 29.9542 49.0815C29.5978 48.6158 29.3463 48.0841 29.22 47.5287C29.1825 47.3633 29.1591 47.1799 29.2559 47.0357C29.4532 47.4145 29.6721 47.8155 30.0704 48.0276" fill="#DC7029"/>
<path d="M29.3714 48.2586C29.3714 49.4026 28.88 51.5273 28.2736 51.5273C27.6674 51.5273 27.1758 49.4026 27.1758 48.2586C27.1758 47.1145 27.6674 46.1871 28.2736 46.1871C28.88 46.1871 29.3714 47.1145 29.3714 48.2586Z" fill="#EDA263"/>
<path d="M28.2703 46.3473C27.8345 46.3473 27.3489 47.1322 27.3489 48.2585C27.3489 49.5369 27.8914 51.3673 28.2703 51.3673C28.6492 51.3673 29.1917 49.5369 29.1917 48.2585C29.1917 47.1322 28.7061 46.3473 28.2703 46.3473ZM28.2703 51.6875C27.4296 51.6875 26.9961 49.284 26.9961 48.2585C26.9961 47.0073 27.5559 46.027 28.2703 46.027C28.9849 46.027 29.5445 47.0073 29.5445 48.2585C29.5445 49.284 29.1111 51.6875 28.2703 51.6875Z" fill="#292625"/>
<path d="M26.2818 47.6001C26.288 47.6739 26.3412 47.7371 26.3972 47.7911C26.4453 47.8376 26.5044 47.8838 26.5747 47.8848C26.6856 47.8861 26.756 47.7805 26.8026 47.6892C26.8628 47.5713 26.9241 47.4508 26.9399 47.3216C26.9558 47.1923 26.9186 47.0504 26.8101 46.9656C26.6634 47.0882 26.5263 47.2203 26.4002 47.3604C26.3376 47.43 26.2745 47.5106 26.2818 47.6001" fill="#F3ED99"/>
<path d="M26.0884 47.9524C26.041 47.9605 26.0108 48.002 25.9874 48.0402C25.7773 48.3858 25.6825 48.7882 25.7184 49.1815C25.7222 49.2238 25.7348 49.2746 25.7791 49.288C25.8332 49.3043 25.88 49.2516 25.9077 49.2062C26.0172 49.0271 26.1266 48.8479 26.2361 48.6688C26.2967 48.5698 26.359 48.4644 26.3535 48.3513C26.3482 48.2383 26.2108 47.9312 26.0884 47.9524Z" fill="#F3ED99"/>
<path d="M25.577 50.4461C25.6651 50.2613 25.7177 50.0626 25.7318 49.8617C25.7368 49.7916 25.7366 49.719 25.7064 49.6544C25.6762 49.5898 25.6095 49.5348 25.5321 49.5336C25.4669 49.7192 25.4301 49.9129 25.4228 50.1075C25.4181 50.2308 25.4289 50.3638 25.5144 50.4599C25.5214 50.4678 25.5302 50.4759 25.5413 50.4765C25.5587 50.4776 25.57 50.4607 25.577 50.4461" fill="#F3ED99"/>
<path d="M27.6251 48.2638C27.6534 48.3507 27.7077 48.4427 27.8038 48.4669C27.8979 48.4907 27.9991 48.4371 28.0521 48.3626C28.105 48.2882 28.1203 48.1972 28.1324 48.1092C28.1975 47.6381 28.2112 47.1612 28.1736 46.6875C28.1694 46.637 28.1462 46.5707 28.0904 46.5742C28.0619 46.5759 28.0401 46.5972 28.0222 46.6176C27.7641 46.9092 27.652 47.2859 27.6005 47.6572C27.5725 47.8593 27.5612 48.0684 27.6251 48.2638Z" fill="#F3ED99"/>
<path d="M27.8683 48.6534C27.8287 48.6612 27.7906 48.6811 27.7691 48.7123C27.7563 48.7307 27.7497 48.7521 27.744 48.7733C27.6703 49.0487 27.7307 49.3386 27.8177 49.6106C27.8393 49.6784 27.8642 49.7483 27.9173 49.7997C27.9475 49.8289 27.9906 49.8518 28.0338 49.8443C28.0988 49.8333 28.1274 49.7646 28.1418 49.7061C28.1934 49.4986 28.2148 49.2851 28.2085 49.0725C28.2055 48.9729 28.1953 48.8697 28.1405 48.7834C28.0859 48.6971 27.9755 48.6325 27.8683 48.6534" fill="#F3ED99"/>
<path d="M30.178 47.3269C30.0336 47.1796 29.8781 47.0342 29.682 46.9496C29.6549 46.938 29.624 46.9274 29.596 46.9368C29.5746 47.0476 29.6113 47.1627 29.673 47.2603C29.7347 47.3581 29.8204 47.4412 29.9052 47.5235C29.976 47.5921 30.0467 47.6608 30.1176 47.7295C30.18 47.7899 30.2585 47.8557 30.3484 47.8419C30.4047 47.7599 30.3991 47.6527 30.3591 47.5634C30.3191 47.4739 30.2487 47.3989 30.178 47.3269Z" fill="#F3ED99"/>
<path d="M30.7504 48.5402C30.7919 48.3718 30.6978 48.2013 30.5896 48.0596C30.5587 48.0194 30.5063 47.9751 30.4588 47.9983C30.3753 48.1644 30.3786 48.3645 30.4674 48.5282C30.4878 48.566 30.5137 48.603 30.5519 48.627C30.5901 48.6509 30.643 48.6594 30.6835 48.6386C30.7215 48.619 30.7408 48.5789 30.7504 48.5402" fill="#F3ED99"/>
<path d="M28.2344 51.1309C28.4322 51.1277 28.5497 50.9329 28.6166 50.7639C28.986 49.8304 29.1063 48.8165 28.9644 47.8329C28.8951 47.3514 28.7359 46.8375 28.3061 46.5484C28.4282 47.5827 28.4745 48.6245 28.445 49.6644C28.4395 49.8549 28.4315 50.0455 28.4202 50.2358C28.4022 50.5409 28.3736 50.8527 28.2344 51.1309" fill="#DC7029"/>
<path d="M36.4904 46.5794C36.1867 46.3826 35.7577 46.5163 35.4523 46.7111C34.7578 47.1538 34.3155 47.8683 34.1026 48.6141C33.8898 49.3598 33.8863 50.1411 33.9255 50.9106C33.9313 51.0257 33.9537 51.1631 34.0691 51.2113C34.2241 51.2759 34.3771 51.1227 34.465 50.99C34.93 50.2884 35.3952 49.5867 35.8602 48.8849C36.109 48.5098 36.3581 48.1337 36.5609 47.7367C36.6585 47.5458 36.7465 47.3454 36.7548 47.1352C36.7632 46.9251 36.6791 46.7016 36.4904 46.5794" fill="#EDA263"/>
<path d="M36.1402 46.6428C35.9664 46.6428 35.7528 46.7155 35.5542 46.8422C34.9527 47.2256 34.4982 47.8692 34.2738 48.6544C34.0605 49.4016 34.0653 50.1769 34.1022 50.9034C34.1095 51.0478 34.1428 51.0659 34.1432 51.0659L34.1448 51.0665C34.1666 51.0665 34.2408 51.0186 34.3143 50.9076L35.7097 48.8025C35.9518 48.437 36.2022 48.0591 36.4014 47.6695C36.4893 47.4976 36.5716 47.3132 36.5789 47.1295C36.5846 46.9898 36.5375 46.8062 36.3884 46.7098C36.3189 46.6648 36.2377 46.6428 36.1402 46.6428V46.6428ZM34.1448 51.3867C34.0936 51.3867 34.0434 51.3768 33.9958 51.3569C33.7671 51.2612 33.7545 51.012 33.7497 50.9181C33.7133 50.2027 33.7067 49.3644 33.9322 48.5741C34.1775 47.7152 34.6815 47.0072 35.3514 46.5801C35.5022 46.4839 35.8052 46.3226 36.1402 46.3226C36.3113 46.3226 36.4638 46.3652 36.5934 46.4491C36.8133 46.5916 36.9429 46.8567 36.9316 47.1411C36.922 47.3815 36.8249 47.6018 36.7215 47.8041C36.5144 48.2094 36.259 48.5949 36.0119 48.9675L34.6167 51.0728C34.5388 51.19 34.3742 51.3867 34.1448 51.3867" fill="#292625"/>
<path d="M35.9604 47.9102C35.9986 47.7331 36.0283 47.5496 35.9866 47.3732C35.9121 47.7005 35.6708 47.9933 35.346 48.1508C35.4139 48.3931 35.4212 48.6563 35.3172 48.8878C35.2131 49.1193 34.9854 49.3125 34.7129 49.3496C34.7512 49.7782 34.6562 50.2163 34.4414 50.5996C34.8372 49.9667 35.233 49.3336 35.629 48.7005C35.702 48.5838 35.7752 48.4666 35.8301 48.3419C35.8912 48.203 35.9287 48.0568 35.9604 47.9102Z" fill="#DC7029"/>
<path d="M37.6087 46.5794C37.9124 46.3826 38.3414 46.5163 38.6468 46.7111C39.3413 47.1538 39.7836 47.8683 39.9965 48.6141C40.2094 49.3598 40.2127 50.1411 40.1737 50.9106C40.1678 51.0257 40.1454 51.1631 40.03 51.2113C39.875 51.2759 39.722 51.1227 39.6342 50.99C39.169 50.2884 38.7039 49.5867 38.2388 48.8849C37.9902 48.5098 37.741 48.1337 37.5382 47.7367C37.4406 47.5458 37.3528 47.3454 37.3443 47.1352C37.3359 46.9251 37.42 46.7016 37.6087 46.5794" fill="#EDA263"/>
<path d="M37.9562 46.6428C37.8588 46.6428 37.7775 46.6648 37.7079 46.7098C37.5589 46.8062 37.5118 46.9898 37.5174 47.1295C37.5247 47.3131 37.607 47.4974 37.695 47.6695C37.8945 48.0597 38.1447 48.4373 38.3867 48.8025L39.7821 50.9077C39.8554 51.0181 39.9294 51.0662 39.9513 51.0665C39.9543 51.0654 39.987 51.0462 39.9943 50.9034C40.0312 50.1771 40.0358 49.4018 39.8226 48.6544C39.5984 47.8692 39.1436 47.2256 38.5422 46.8421C38.3435 46.7156 38.13 46.6428 37.9562 46.6428V46.6428ZM39.9515 51.0665V51.2266V51.0665ZM39.9515 51.3867C39.7225 51.3867 39.5575 51.19 39.4799 51.0728L38.0845 48.9675C37.8375 48.5952 37.5825 48.2101 37.375 47.8041C37.2716 47.6018 37.1745 47.3813 37.1647 47.1411C37.1535 46.8567 37.2831 46.5916 37.5031 46.4491C37.6326 46.3652 37.7851 46.3226 37.9562 46.3226C38.2911 46.3226 38.5941 46.4839 38.745 46.58C39.415 47.0073 39.919 47.7154 40.1641 48.5741C40.3898 49.3647 40.3832 50.2027 40.3468 50.9181C40.3425 51.0031 40.3294 51.2612 40.1005 51.3569C40.0529 51.3768 40.0028 51.3867 39.9515 51.3867" fill="#292625"/>
<path d="M38.8204 48.0276C38.7903 48.3065 38.8425 48.5924 38.9702 48.8476C39.0155 48.938 39.0715 49.0262 39.154 49.0913C39.2364 49.1565 39.3493 49.1958 39.4565 49.1762C39.4057 49.4346 39.4933 49.6982 39.6005 49.9419C39.6703 50.1 39.7486 50.2552 39.8354 50.4062C39.779 50.3834 39.7383 50.3379 39.7001 50.2939C39.5016 50.0651 39.3109 49.8309 39.1203 49.5966C39.0341 49.4909 38.948 49.385 38.8619 49.2791C38.8086 49.2138 38.7553 49.1482 38.7042 49.0815C38.3477 48.6158 38.0963 48.0841 37.9702 47.5287C37.9325 47.3633 37.9091 47.1799 38.0059 47.0357C38.2032 47.4145 38.4222 47.8155 38.8204 48.0276" fill="#DC7029"/>
<path d="M38.1177 48.2586C38.1177 49.4026 37.6261 51.5273 37.0197 51.5273C36.4134 51.5273 35.9219 49.4026 35.9219 48.2586C35.9219 47.1145 36.4134 46.1871 37.0197 46.1871C37.6261 46.1871 38.1177 47.1145 38.1177 48.2586Z" fill="#EDA263"/>
<path d="M37.0203 46.3473C36.5845 46.3473 36.0989 47.1322 36.0989 48.2585C36.0989 49.5369 36.6414 51.3673 37.0203 51.3673C37.3994 51.3673 37.9419 49.5369 37.9419 48.2585C37.9419 47.1322 37.4561 46.3473 37.0203 46.3473ZM37.0203 51.6875C36.1796 51.6875 35.7461 49.284 35.7461 48.2585C35.7461 47.0073 36.3059 46.027 37.0203 46.027C37.7349 46.027 38.2947 47.0073 38.2947 48.2585C38.2947 49.284 37.8611 51.6875 37.0203 51.6875Z" fill="#292625"/>
<path d="M35.0319 47.6001C35.0378 47.6739 35.0911 47.7371 35.147 47.7911C35.1953 47.8376 35.2542 47.8838 35.3246 47.8848C35.4356 47.8861 35.5058 47.7805 35.5525 47.6892C35.6129 47.5713 35.6739 47.4508 35.6899 47.3216C35.7056 47.1923 35.6686 47.0504 35.5599 46.9656C35.4132 47.0882 35.2761 47.2203 35.15 47.3604C35.0874 47.43 35.0244 47.5106 35.0319 47.6001" fill="#F3ED99"/>
<path d="M34.8384 47.9524C34.791 47.9605 34.7608 48.002 34.7374 48.0402C34.5274 48.3858 34.4325 48.7882 34.4683 49.1815C34.4723 49.2238 34.4848 49.2746 34.5291 49.288C34.5832 49.3043 34.63 49.2516 34.6577 49.2062C34.7672 49.0271 34.8768 48.8479 34.9863 48.6688C35.0467 48.5698 35.1089 48.4644 35.1036 48.3513C35.0982 48.2383 34.9609 47.9312 34.8384 47.9524Z" fill="#F3ED99"/>
<path d="M34.3271 50.4461C34.4151 50.2613 34.4677 50.0626 34.4818 49.8617C34.4868 49.7916 34.4866 49.719 34.4564 49.6544C34.4262 49.5898 34.3595 49.5348 34.2821 49.5336C34.2169 49.7192 34.1801 49.9129 34.1728 50.1075C34.1681 50.2308 34.1791 50.3638 34.2644 50.4599C34.2715 50.4678 34.2801 50.4759 34.2913 50.4765C34.3087 50.4776 34.3201 50.4607 34.3271 50.4461" fill="#F3ED99"/>
<path d="M36.375 48.2638C36.4034 48.3507 36.4576 48.4427 36.5537 48.4669C36.6478 48.4907 36.7492 48.4371 36.802 48.3626C36.8549 48.2882 36.8702 48.1972 36.8823 48.1092C36.9475 47.6381 36.9613 47.1612 36.9235 46.6875C36.9195 46.637 36.8961 46.5707 36.8405 46.5742C36.8119 46.5759 36.79 46.5972 36.7721 46.6176C36.514 46.9092 36.4019 47.2859 36.3506 47.6572C36.3225 47.8593 36.3111 48.0684 36.375 48.2638Z" fill="#F3ED99"/>
<path d="M36.6183 48.6534C36.5787 48.6612 36.5408 48.6811 36.5191 48.7123C36.5063 48.7307 36.4997 48.7521 36.494 48.7733C36.4203 49.0487 36.4807 49.3386 36.5677 49.6106C36.5894 49.6784 36.6142 49.7483 36.6674 49.7997C36.6975 49.8289 36.7406 49.8518 36.7839 49.8443C36.8488 49.8333 36.8774 49.7646 36.892 49.7061C36.9434 49.4986 36.9648 49.2851 36.9585 49.0725C36.9555 48.9729 36.9453 48.8697 36.8907 48.7834C36.8359 48.6971 36.7255 48.6325 36.6183 48.6534" fill="#F3ED99"/>
<path d="M38.9279 47.3269C38.7835 47.1796 38.628 47.0342 38.4319 46.9496C38.405 46.938 38.3739 46.9274 38.3461 46.9368C38.3245 47.0476 38.3612 47.1627 38.4229 47.2603C38.4846 47.3581 38.5703 47.4412 38.6551 47.5235C38.7259 47.5921 38.7968 47.6608 38.8675 47.7295C38.9299 47.7899 39.0086 47.8557 39.0984 47.8419C39.1546 47.7599 39.1491 47.6527 39.109 47.5634C39.069 47.4739 38.9986 47.3989 38.9279 47.3269Z" fill="#F3ED99"/>
<path d="M39.5003 48.5402C39.542 48.3718 39.4479 48.2013 39.3395 48.0596C39.3086 48.0194 39.2562 47.9751 39.2087 47.9983C39.1254 48.1644 39.1286 48.3645 39.2174 48.5282C39.2378 48.566 39.2637 48.603 39.3018 48.627C39.3402 48.6509 39.3929 48.6594 39.4334 48.6386C39.4716 48.619 39.4909 48.5789 39.5003 48.5402" fill="#F3ED99"/>
<path d="M36.9844 51.1309C37.1822 51.1277 37.2995 50.9329 37.3664 50.7639C37.7358 49.8304 37.8562 48.8165 37.7144 47.8329C37.6449 47.3514 37.4857 46.8375 37.0559 46.5484C37.178 47.5827 37.2245 48.6245 37.1948 49.6644C37.1893 49.8549 37.1814 50.0455 37.1701 50.2358C37.152 50.5409 37.1234 50.8527 36.9844 51.1309Z" fill="#DC7029"/>
<path d="M31.3177 17.4499C29.8418 16.4772 27.8204 16.57 26.0462 16.9538C24.2717 17.3377 22.528 17.973 20.704 17.9495C19.0414 17.9283 17.4504 17.3586 15.9375 16.7322C16.2649 17.8441 17.2072 18.7918 18.3924 19.2012C17.8288 19.1955 17.265 19.1896 16.7014 19.1839C17.3126 19.9663 18.0414 20.6727 18.8613 21.2776C18.4363 21.3576 17.999 21.3833 17.5664 21.3537C17.497 21.5969 17.7189 21.8245 17.9366 21.9797C19.5497 23.128 21.9092 23.1512 23.7624 22.3553C26.1942 21.3109 27.8488 19.0731 30.3536 18.1821C31.0078 17.9495 31.7813 17.8262 32.3889 18.1463L31.3177 17.4499" fill="#F2591D"/>
<path d="M21.0969 23.0605C19.8817 23.0607 18.7163 22.737 17.8283 22.1048C17.3761 21.783 17.3437 21.4965 17.3961 21.3129C17.4176 21.2378 17.4942 21.188 17.58 21.1933C17.872 21.2133 18.1649 21.2071 18.4546 21.1753C17.7417 20.6134 17.1049 19.9756 16.5581 19.2758C16.5197 19.2267 16.5149 19.1622 16.5458 19.1089C16.5765 19.0556 16.6354 19.024 16.7039 19.0231L17.6267 19.0325C16.7273 18.5237 16.0419 17.7043 15.7678 16.7727C15.75 16.7129 15.7721 16.6492 15.8242 16.6091C15.8765 16.5692 15.949 16.56 16.0114 16.5856C17.4904 17.1982 19.0829 17.7679 20.7072 17.7887C22.0007 17.8071 23.2885 17.4749 24.533 17.1555C25.0145 17.032 25.5122 16.9042 26.0057 16.7973C28.3154 16.2977 30.1376 16.4733 31.4219 17.3196C31.5008 17.3716 31.5182 17.4718 31.4611 17.5433C31.4038 17.6149 31.2935 17.6308 31.2146 17.5789C30.0176 16.7897 28.2928 16.6317 26.0875 17.1089C25.6009 17.2141 25.1069 17.341 24.6291 17.4636C23.3602 17.7894 22.0493 18.1267 20.702 18.1089C19.1475 18.089 17.6394 17.5933 16.2288 17.0258C16.6171 17.942 17.4426 18.7009 18.4556 19.0508C18.5356 19.0785 18.5823 19.1541 18.5663 19.2303C18.5504 19.3065 18.4757 19.3555 18.3911 19.3606L17.0526 19.3469C17.6102 20.0164 18.255 20.6228 18.9731 21.1526C19.0259 21.1916 19.0493 21.2546 19.0332 21.3147C19.0171 21.3748 18.9643 21.421 18.8977 21.4335C18.5185 21.505 18.1315 21.5349 17.745 21.5222C17.7918 21.654 17.9431 21.7795 18.046 21.8528C19.5027 22.8897 21.7698 23.0334 23.6875 22.2098C24.8148 21.7257 25.7963 20.9611 26.7456 20.2219C27.8246 19.3814 28.9404 18.5123 30.2898 18.0324C31.1632 17.7218 31.9198 17.7129 32.4779 18.0071C32.5622 18.0515 32.5909 18.1494 32.542 18.226C32.4932 18.3025 32.3852 18.3282 32.3008 18.2841C31.7173 17.9765 30.9553 18.1398 30.4185 18.3305C29.1247 18.7906 28.0321 19.6417 26.9752 20.4648C26.0084 21.218 25.0085 21.9967 23.8383 22.4993C22.9622 22.8756 22.0153 23.0605 21.0969 23.0605" fill="#292625"/>
<path d="M36.5516 17.4499C38.0276 16.4772 40.0488 16.57 41.8232 16.9538C43.5975 17.3377 45.3414 17.973 47.1652 17.9495C48.828 17.9283 50.4189 17.3586 51.9317 16.7322C51.6043 17.8441 50.6621 18.7918 49.4769 19.2012C50.0406 19.1955 50.6042 19.1896 51.1678 19.1839C50.5568 19.9663 49.8279 20.6727 49.008 21.2776C49.4329 21.3576 49.8702 21.3833 50.303 21.3537C50.3724 21.5969 50.1505 21.8245 49.9326 21.9797C48.3195 23.128 45.9601 23.1512 44.107 22.3553C41.6752 21.3109 40.0204 19.0731 37.5156 18.1821C36.8616 17.9495 36.088 17.8262 35.4805 18.1463L36.5516 17.4499" fill="#F2591D"/>
<path d="M46.7738 23.0605C45.8552 23.0605 44.9086 22.8756 44.0322 22.4993C42.862 21.9967 41.8621 21.218 40.8952 20.4648C39.8386 19.6417 38.7457 18.7906 37.4521 18.3305C36.9154 18.1396 36.1531 17.9765 35.5696 18.2841C35.4853 18.3281 35.3775 18.3023 35.3285 18.226C35.2797 18.1494 35.3083 18.0515 35.3926 18.0071C35.9507 17.7131 36.7074 17.7218 37.5807 18.0324C38.9301 18.5123 40.046 19.3814 41.1251 20.2219C42.0742 20.9611 43.0558 21.7257 44.183 22.2098C46.1008 23.0334 48.3678 22.89 49.8244 21.8528C49.9275 21.7796 50.0789 21.654 50.1257 21.5222C49.739 21.5346 49.352 21.5049 48.9729 21.4335C48.9062 21.421 48.8534 21.3748 48.8373 21.3147C48.8212 21.2546 48.8446 21.1916 48.8974 21.1526C49.6155 20.6228 50.2602 20.0164 50.8179 19.3469L49.4796 19.3606C49.3964 19.3552 49.3203 19.3065 49.3043 19.2303C49.2882 19.1541 49.335 19.0785 49.4149 19.0508C50.4279 18.7009 51.2535 17.942 51.6417 17.0258C50.231 17.5933 48.7231 18.089 47.1684 18.1089C45.8222 18.1277 44.5103 17.7893 43.2414 17.4636C42.7636 17.341 42.2695 17.2141 41.7829 17.1089C39.5779 16.6317 37.8531 16.7899 36.656 17.5789C36.5772 17.6308 36.4668 17.6149 36.4096 17.5433C36.3523 17.4718 36.3699 17.3716 36.4487 17.3196C37.7331 16.4733 39.5551 16.2975 41.8649 16.7973C42.3585 16.9042 42.8562 17.032 43.3375 17.1555C44.5822 17.4751 45.869 17.8084 47.1635 17.7887C48.7875 17.7679 50.3802 17.1982 51.8593 16.5856C51.9213 16.56 51.9942 16.5692 52.0465 16.6091C52.0986 16.6492 52.1205 16.7129 52.1029 16.7727C51.8285 17.7043 51.1431 18.5237 50.244 19.0325L51.1667 19.0231C51.2284 19.0249 51.294 19.0556 51.3249 19.1089C51.3557 19.1622 51.3509 19.2267 51.3126 19.2758C50.7658 19.9756 50.1288 20.6134 49.416 21.1753C49.7058 21.2071 49.9984 21.2133 50.2905 21.1933C50.3763 21.1877 50.4531 21.2378 50.4743 21.3129C50.5268 21.4965 50.4944 21.783 50.0422 22.1048C49.1543 22.737 47.9886 23.0605 46.7738 23.0605" fill="#292625"/>
<path d="M20.2006 21.8754C20.5853 22.1055 21.0548 22.2348 21.5112 22.1781C22.1493 22.0991 22.6802 21.6705 23.0131 21.1703C23.346 20.6699 23.5156 20.0971 23.7083 19.5394C23.9008 18.9817 24.1291 18.4174 24.552 17.9766C22.9236 18.7823 21.0234 19.128 19.1786 18.954C19.1466 19.2007 19.3922 19.3964 19.6128 19.5434C19.9847 19.7913 20.3566 20.0393 20.7287 20.2872C20.4349 20.2855 20.1412 20.2839 19.8474 20.2822C19.6657 20.2813 19.4123 20.3547 19.4534 20.5154C19.4667 20.5674 19.5115 20.6071 19.555 20.6428C19.8902 20.918 20.2804 21.1379 20.7009 21.2884C20.5046 21.4417 20.1128 21.2655 19.982 21.4684C19.8889 21.6127 20.0467 21.7835 20.2006 21.8754" fill="#D34B20"/>
<path d="M44.0856 18.2717C45.5691 18.9992 47.3485 19.2149 48.9903 18.8665C49.0822 19.1656 48.746 19.4187 48.4533 19.5799C48.0968 19.7763 47.7403 19.9725 47.3838 20.1689C47.5617 20.2882 47.776 20.3622 47.9962 20.3804C47.9921 20.6192 47.8244 20.8358 47.6123 20.9771C47.4004 21.1183 47.1468 21.1968 46.8977 21.2733C47.1858 21.1894 47.4343 21.5505 47.3267 21.8073C47.2192 22.064 46.9191 22.2043 46.6373 22.3044C46.1104 22.4914 45.556 22.6205 44.9915 22.6555C44.809 22.6668 44.6118 22.6645 44.462 22.5693C44.215 22.4125 44.2079 22.0893 44.2215 21.816C44.2696 20.8474 44.2412 19.8123 43.6484 19.0057L44.0856 18.2717" fill="#D34B20"/>
<path d="M46.422 22.3227C46.422 25.3772 43.6938 27.8535 40.3282 27.8535C36.9627 27.8535 34.2344 25.3772 34.2344 22.3227C34.2344 19.2682 36.9627 16.7919 40.3282 16.7919C43.6938 16.7919 46.422 19.2682 46.422 22.3227Z" fill="#523B1A"/>
<path d="M45.6081 22.503C45.6081 25.2704 43.1363 27.5137 40.0873 27.5137C37.0382 27.5137 34.5664 25.2704 34.5664 22.503C34.5664 19.7357 37.0382 17.4923 40.0873 17.4923C43.1363 17.4923 45.6081 19.7357 45.6081 22.503Z" fill="#D1B86C"/>
<path d="M41.1977 26.2142C38.5653 26.2142 36.2997 24.7896 35.2852 22.7435C35.3456 24.3808 36.445 25.9111 38.2263 26.5645C39.8042 27.1434 41.5248 26.8903 42.7986 26.0331C42.2866 26.1512 41.7502 26.2142 41.1977 26.2142" fill="#D4C18D"/>
<path d="M21.5391 22.3227C21.5391 25.3772 24.2674 27.8535 27.6329 27.8535C30.9983 27.8535 33.7267 25.3772 33.7267 22.3227C33.7267 19.2682 30.9983 16.7919 27.6329 16.7919C24.2674 16.7919 21.5391 19.2682 21.5391 22.3227" fill="#523B1A"/>
<path d="M22.3555 22.503C22.3555 25.2704 24.8272 27.5137 27.8764 27.5137C30.9254 27.5137 33.3972 25.2704 33.3972 22.503C33.3972 19.7357 30.9254 17.4923 27.8764 17.4923C24.8272 17.4923 22.3555 19.7357 22.3555 22.503Z" fill="#D1B86C"/>
<path d="M22.3555 22.503C22.3555 25.2704 24.8272 27.5137 27.8764 27.5137C30.9254 27.5137 33.3972 25.2704 33.3972 22.503C33.3972 19.7357 30.9254 17.4923 27.8764 17.4923C24.8272 17.4923 22.3555 19.7357 22.3555 22.503Z" fill="#D1B86C"/>
<path d="M22.8828 22.5026C22.8828 25.0047 25.1178 27.0332 27.8747 27.0332C30.6316 27.0332 32.8665 25.0047 32.8665 22.5026C32.8665 20.0004 30.6316 17.9719 27.8747 17.9719C25.1178 17.9719 22.8828 20.0004 22.8828 22.5026Z" fill="#F3ED99"/>
<path d="M25.4844 22.5015C25.4844 23.7002 26.555 24.6719 27.8757 24.6719C29.1962 24.6719 30.2668 23.7002 30.2668 22.5015C30.2668 21.3029 29.1962 20.3312 27.8757 20.3312C26.555 20.3312 25.4844 21.3029 25.4844 22.5015Z" fill="#D4C18D"/>
<path d="M26.1445 22.502C26.1445 23.3693 26.9191 24.0723 27.8746 24.0723C28.8301 24.0723 29.6046 23.3693 29.6046 22.502C29.6046 21.6349 28.8301 20.9317 27.8746 20.9317C26.9191 20.9317 26.1445 21.6349 26.1445 22.502Z" fill="#2E2227"/>
<path d="M27.875 22.0419C27.875 22.296 28.1019 22.502 28.3818 22.502C28.6618 22.502 28.8887 22.296 28.8887 22.0419C28.8887 21.7878 28.6618 21.5818 28.3818 21.5818C28.1019 21.5818 27.875 21.7878 27.875 22.0419Z" fill="white"/>
<path d="M26.4283 19.1334C26.8393 19.4905 26.6061 20.317 25.9074 20.9793C25.2087 21.6416 24.3092 21.8889 23.8981 21.5318C23.4872 21.1747 23.7204 20.3482 24.4191 19.6859C25.1176 19.0236 26.0173 18.7763 26.4283 19.1334Z" fill="white"/>
<path d="M26.7612 26.2142C29.3934 26.2142 31.6591 24.7896 32.6736 22.7435C32.6132 24.3808 31.5137 25.9111 29.7325 26.5645C28.1545 27.1434 26.4341 26.8903 25.1602 26.0331C25.6721 26.1512 26.2085 26.2142 26.7612 26.2142" fill="#D4C18D"/>
<path d="M34.9702 23.0342C34.8179 22.8824 34.64 22.7459 34.4319 22.6989C34.2299 22.6531 33.9964 22.7105 33.8714 22.8769C33.7468 22.7102 33.5135 22.6524 33.3115 22.6977C33.1032 22.7442 32.925 22.8804 32.7721 23.0318C31.9586 23.8378 31.7351 25.1115 31.9204 26.2521C32.106 27.3928 32.643 28.4377 33.1726 29.4601C33.2116 29.5356 33.5425 30.0036 33.8681 30.0039C34.1937 30.0042 34.5142 29.537 34.5534 29.4615C35.0854 28.4403 35.6253 27.3966 35.8136 26.2562C36.0022 25.116 35.7818 23.8419 34.9702 23.0342" fill="#2D1615"/>
<path d="M33.2482 22.8979C33.0961 22.9229 32.9829 23.0415 32.8909 23.1582C32.2371 23.9878 32.0256 25.0701 32.1061 26.1C32.1954 27.2415 32.6252 28.3576 33.3337 29.2879C33.4563 29.449 33.6348 29.6226 33.8409 29.5819C34.0774 29.5352 34.1479 29.2547 34.1696 29.0283C34.35 27.1558 34.4835 25.2212 33.8498 23.4381C33.8017 23.3028 33.7473 23.1656 33.6487 23.0571C33.5501 22.9488 33.3976 22.8732 33.2482 22.8979" fill="#EE8B40"/>
<path d="M34.3061 22.8965C34.0989 22.9417 34.0014 23.1529 33.94 23.338C33.3103 25.2357 33.2159 27.2776 33.6681 29.2164C33.7002 29.3535 33.7557 29.512 33.9023 29.5556C34.086 29.6105 34.2536 29.4455 34.357 29.2973C35.2975 27.9495 35.7232 26.3119 35.5458 24.7246C35.4759 24.0981 35.2836 23.4324 34.7465 23.0334C34.622 22.9409 34.4626 22.8625 34.3061 22.8965" fill="#F2591D"/>
<path d="M34.3539 26.5148C34.3539 28.0514 34.1146 29.2969 33.8195 29.2969C33.5245 29.2969 33.2852 28.0514 33.2852 26.5148C33.2852 24.9783 33.5245 23.7328 33.8195 23.7328C34.1146 23.7328 34.3539 24.9783 34.3539 26.5148Z" fill="#F3DE3E"/>
<path d="M33.892 25.5884C34.0109 25.5549 34.0585 25.4268 34.0764 25.315C34.1332 24.9619 34.0656 24.5935 33.8862 24.2761C33.5983 24.5287 33.4831 24.9202 33.5495 25.2785C33.5646 25.3606 33.59 25.4441 33.6483 25.5084C33.7065 25.5726 33.8044 25.6131 33.892 25.5884" fill="white"/>
<path d="M33.9881 26.4764C33.9262 26.2624 33.8643 26.0483 33.8023 25.8344C33.6709 26.0516 33.6113 26.3042 33.6334 26.5513C33.6395 26.6196 33.6527 26.6901 33.6955 26.7466C33.7383 26.8033 33.8176 26.842 33.8903 26.8234C33.961 26.8055 34.0061 26.7392 34.0159 26.6733C34.0256 26.6071 34.0068 26.5407 33.9881 26.4764" fill="white"/>
<path d="M44.2546 23.0723C44.2088 23.0723 44.1628 23.0561 44.1283 23.0239C42.9621 21.9391 41.3354 21.3006 39.6655 21.2723C37.995 21.2423 36.344 21.8271 35.134 22.8719C35.0631 22.9329 34.9518 22.9304 34.8846 22.8664C34.8174 22.8022 34.8202 22.7008 34.8907 22.64C36.1674 21.5375 37.9068 20.9233 39.6721 20.9521C41.4339 20.982 43.1503 21.6556 44.3809 22.8004C44.4489 22.8637 44.4476 22.965 44.3777 23.0268C44.3435 23.0571 44.299 23.0723 44.2546 23.0723" fill="#292625"/>
<path d="M42.8756 21.9434C42.8358 21.9434 42.7958 21.9313 42.7627 21.9063C42.6879 21.8498 42.6778 21.7487 42.74 21.6808L43.9623 20.3484C44.0245 20.2805 44.1359 20.2713 44.2107 20.3278C44.2856 20.3844 44.2957 20.4853 44.2334 20.5532L43.0112 21.8857C42.9763 21.9238 42.926 21.9434 42.8756 21.9434" fill="#292625"/>
<path d="M40.8522 21.3574C40.8286 21.3574 40.8046 21.353 40.7817 21.3439C40.6924 21.3086 40.6516 21.2142 40.6906 21.1331L41.3327 19.7971C41.3717 19.7161 41.4757 19.6789 41.565 19.7144C41.6543 19.7498 41.6949 19.8441 41.6559 19.9251L41.0139 21.2612C40.985 21.3214 40.9201 21.3574 40.8522 21.3574" fill="#292625"/>
<path d="M38.8601 21.2676C38.858 21.2676 38.8558 21.2676 38.8536 21.2676C38.7562 21.2643 38.6802 21.1902 38.6837 21.1017L38.7368 19.7621C38.7403 19.6737 38.8166 19.6045 38.9194 19.6077C39.0168 19.611 39.093 19.6853 39.0895 19.7735L39.0364 21.1133C39.0329 21.1996 38.9546 21.2676 38.8601 21.2676" fill="#292625"/>
<path d="M37.1174 21.75C37.0671 21.75 37.0173 21.7306 36.9825 21.6931C36.6693 21.3561 36.4396 20.9524 36.3182 20.5256C36.2938 20.44 36.3505 20.3527 36.4448 20.3305C36.5385 20.3087 36.6353 20.3599 36.6597 20.4456C36.7681 20.8262 36.9729 21.1862 37.2522 21.4866C37.3149 21.5542 37.3054 21.6553 37.2311 21.7122C37.1979 21.7377 37.1576 21.75 37.1174 21.75" fill="#292625"/>
<path d="M26.6439 37.6327C25.5967 35.9651 24.3468 34.4086 23.2764 32.7532C22.206 31.0977 21.3057 29.3099 21.0504 27.4044C20.7427 30.6466 22.3157 33.7866 24.1406 36.5878C24.662 37.3884 25.374 38.2682 26.3982 38.2945C26.4902 38.2968 26.5878 38.2902 26.6634 38.2426C26.8667 38.1147 26.7663 37.8278 26.6439 37.6327" fill="#D34B20"/>
<path d="M41.8375 38.6733C42.2357 38.941 42.7664 38.5628 43.0674 38.2055C45.5367 35.2743 46.9051 31.5929 46.8964 27.9031C45.7819 30.7499 44.1087 33.3837 42.4959 36.0265C42.1417 36.607 41.7856 37.1998 41.6377 37.8494C41.5715 38.1409 41.5742 38.496 41.8375 38.6733" fill="#D34B20"/>
<path d="M47.4405 31.8687C47.3349 32.6606 46.9569 33.3982 46.584 34.1203C46.2436 34.7794 45.9031 35.4385 45.5627 36.0977C45.3677 36.4751 45.1677 36.8823 45.2427 37.2936C45.3751 37.3542 45.5305 37.2718 45.6455 37.1867C46.3228 36.686 46.7921 35.9778 47.0585 35.2225C47.3246 34.4674 47.4655 32.6613 47.4405 31.8687" fill="#D34B20"/>
<path d="M47.9997 35.9865C48.1101 36.0738 48.293 36.035 48.3932 35.9381C48.4934 35.8413 48.5309 35.7054 48.5597 35.5751C48.7777 34.5851 48.7042 33.5435 48.3484 32.5869C48.3715 33.6461 47.7982 34.6711 47.8935 35.7268C47.902 35.8213 47.9209 35.9243 47.9997 35.9865" fill="#D34B20"/>
<path d="M20.6484 31.9186C21.0907 33.6552 22.1266 35.2099 23.0986 36.7587C23.257 37.0111 23.4188 37.2798 23.4143 37.5702C23.4098 37.8608 23.1708 38.1696 22.8509 38.164C22.7292 38.1619 22.6137 38.1161 22.5073 38.0625C21.5234 37.5675 21.1556 36.4621 20.9749 35.4542C20.8245 34.6166 20.7414 33.7691 20.7261 32.9204L20.6484 31.9186" fill="#D34B20"/>
<path d="M18.8434 33.4412C19.0497 32.8309 19.3078 32.235 19.6146 31.6605C19.6858 32.564 19.7568 33.4674 19.828 34.3709C19.8516 34.6704 19.8732 34.9819 19.7505 35.2609C19.7147 35.3424 19.6651 35.4218 19.5886 35.4755C19.4462 35.5757 19.2342 35.5643 19.0802 35.4793C18.9262 35.3944 18.8233 35.2492 18.7556 35.0975C18.5223 34.5747 18.6612 33.9806 18.8434 33.4412" fill="#D34B20"/>
<path d="M29.508 38.2847C29.4373 38.3044 29.182 37.7359 28.9379 37.0149C28.6936 36.2939 28.5531 35.6933 28.6238 35.6736C28.6944 35.6538 28.9499 36.2225 29.194 36.9433C29.4381 37.6644 29.5788 38.2649 29.508 38.2847" fill="#292625"/>
<path d="M30.4683 38.1939C30.4357 38.2071 30.3607 38.1292 30.2779 37.983C30.1978 37.8363 30.1193 37.6186 30.0846 37.3695C30.0545 37.1198 30.0753 36.8914 30.1158 36.7319C30.1589 36.5722 30.212 36.4807 30.2469 36.4867C30.2847 36.4932 30.2982 36.5938 30.3043 36.7477C30.3133 36.9024 30.3234 37.1113 30.3506 37.341C30.3828 37.5701 30.4264 37.7756 30.4573 37.9279C30.4907 38.0789 30.5033 38.1797 30.4683 38.1939" fill="#292625"/>
<path d="M24.4951 45.7233C24.4715 45.7458 24.3168 45.6515 24.1046 45.4584C23.8971 45.2621 23.6469 44.9557 23.4481 44.5784C23.258 44.1973 23.1609 43.8263 23.1291 43.5558C23.103 43.2841 23.1231 43.116 23.1571 43.114C23.1968 43.1112 23.2439 43.2722 23.3155 43.5242C23.3928 43.7759 23.5123 44.1163 23.691 44.4758C23.8789 44.8313 24.089 45.1336 24.2513 45.3495C24.4176 45.5614 24.523 45.6977 24.4951 45.7233" fill="#292625"/>
<path d="M25.8217 44.8216C25.7665 44.8534 25.5394 44.5953 25.4634 44.2034C25.406 43.8089 25.5371 43.5009 25.6003 43.5161C25.6813 43.5315 25.678 43.8216 25.7283 44.1664C25.7945 44.509 25.8938 44.7848 25.8217 44.8216Z" fill="#292625"/>
<path d="M37.3477 44.7242C37.2759 44.7083 37.3501 44.2028 37.5137 43.5951C37.6772 42.9874 37.868 42.5078 37.9399 42.5237C38.0117 42.5396 37.9376 43.0451 37.7739 43.6528C37.6105 44.2605 37.4196 44.7402 37.3477 44.7242Z" fill="#292625"/>
<path d="M38.9781 44.3153C38.9081 44.2936 38.9697 43.9598 39.1157 43.5694C39.2618 43.1791 39.4368 42.8803 39.5069 42.9018C39.5769 42.9235 39.5153 43.2575 39.3693 43.6477C39.2234 44.038 39.0482 44.3369 38.9781 44.3153Z" fill="#292625"/>
<path d="M43.2883 43.9132C43.3216 43.9212 43.312 44.0658 43.242 44.2899C43.1671 44.5118 43.0158 44.8076 42.781 45.0944C42.5393 45.3763 42.2658 45.588 42.0501 45.7125C41.8308 45.8338 41.68 45.8809 41.6626 45.854C41.642 45.8234 41.7552 45.7253 41.9339 45.5768C42.11 45.4241 42.3425 45.2093 42.5677 44.9472C42.7858 44.6802 42.9516 44.4193 43.0667 44.2245C43.1766 44.0286 43.2504 43.9034 43.2883 43.9132" fill="#292625"/>
<path d="M40.5361 28.847C40.5414 28.877 40.3333 28.9347 39.9841 28.9691C39.6349 28.9969 39.1435 28.9783 38.62 28.8614C38.0995 28.7336 37.6597 28.5338 37.369 28.3563C37.0817 28.1726 36.9305 28.0306 36.9511 28.0068C36.9753 27.9773 37.1647 28.0686 37.4639 28.2074C37.7679 28.3409 38.1943 28.5046 38.687 28.626C39.1829 28.7363 39.6432 28.7804 39.9803 28.7973C40.3164 28.8072 40.5306 28.8107 40.5361 28.847" fill="#292625"/>
<path d="M42.0885 29.6681C42.0993 29.6984 41.9582 29.7704 41.7125 29.8461C41.4662 29.9184 41.112 29.9837 40.7154 29.9987C40.3184 30.0081 39.9603 29.9645 39.7092 29.9075C39.4582 29.8469 39.3122 29.7838 39.3207 29.7528C39.3296 29.7186 39.4893 29.7219 39.738 29.7375C39.988 29.7499 40.3292 29.7642 40.7062 29.7556C41.0831 29.7412 41.4225 29.7059 41.671 29.6784C41.9181 29.6475 42.0771 29.6345 42.0885 29.6681" fill="#292625"/>
<path d="M26.9297 29.1639C26.931 29.1284 27.0827 29.1028 27.3195 29.0699C27.5567 29.0327 27.8785 28.9758 28.2252 28.8812C28.5694 28.7798 28.8697 28.6605 29.088 28.5685C29.3032 28.4733 29.4441 28.4159 29.4675 28.4444C29.4886 28.4695 29.3859 28.5774 29.1851 28.7162C28.9823 28.8512 28.6731 29.0053 28.305 29.1133C27.9346 29.2147 27.5837 29.2476 27.3323 29.2415C27.0801 29.2311 26.928 29.1954 26.9297 29.1639" fill="#292625"/>
<path d="M25.6016 30.3759C25.5963 30.2996 26.2068 30.2112 26.9359 30.0305C27.6593 29.8325 28.2284 29.6132 28.2685 29.6804C28.3011 29.7301 27.766 30.0571 27.0099 30.2642C26.2478 30.4531 25.6031 30.4338 25.6016 30.3759Z" fill="#292625"/>
</g>
<defs>
<filter id="filter0_d_4960_6489" x="0" y="0" width="68" height="68" filterUnits="userSpaceOnUse" color-interpolation-filters="sRGB">
<feFlood flood-opacity="0" result="BackgroundImageFix"/>
<feColorMatrix in="SourceAlpha" type="matrix" values="0 0 0 0 0 0 0 0 0 0 0 0 0 0 0 0 0 0 127 0" result="hardAlpha"/>
<feOffset dy="4"/>
<feGaussianBlur stdDeviation="2"/>
<feComposite in2="hardAlpha" operator="out"/>
<feColorMatrix type="matrix" values="0 0 0 0 0 0 0 0 0 0 0 0 0 0 0 0 0 0 0.25 0"/>
<feBlend mode="normal" in2="BackgroundImageFix" result="effect1_dropShadow_4960_6489"/>
<feBlend mode="normal" in="SourceGraphic" in2="effect1_dropShadow_4960_6489" result="shape"/>
</filter>
<linearGradient id="paint0_linear_4960_6489" x1="-21.9444" y1="31.8889" x2="107.333" y2="32.5278" gradientUnits="userSpaceOnUse">
<stop stop-color="#EF4136"/>
<stop offset="0.467708" stop-color="#F5753B"/>
<stop offset="1" stop-color="#FAA83F"/>
</linearGradient>
<clipPath id="clip0_4960_6489">
<rect width="47" height="49" fill="white" transform="translate(10 5)"/>
</clipPath>
</defs>
</svg>
