<svg width="47" height="49" viewBox="0 0 47 49" fill="none" xmlns="http://www.w3.org/2000/svg">
<g clip-path="url(#clip0_2446_19241)">
<path d="M39.9329 45.5994C39.9329 46.6437 32.4434 47.4902 23.2046 47.4902C13.9661 47.4902 6.47656 46.6437 6.47656 45.5994C6.47656 44.5553 13.9661 43.7088 23.2046 43.7088C32.4434 43.7088 39.9329 44.5553 39.9329 45.5994Z" fill="#60827F"/>
<path d="M8.69604 18.8153C8.47648 20.8782 8.28048 23.0664 9.29299 24.9242C10.1054 26.4149 11.6159 27.5084 13.2456 28.2688C15.8087 29.4646 18.7158 29.9366 21.5943 30.0642C24.4728 30.1917 27.355 29.99 30.2357 29.915C32.4722 29.8568 34.8718 29.8302 36.6948 28.6529C38.0668 27.7669 38.9124 26.3212 39.2581 24.8255C39.6037 23.3298 39.4927 21.7772 39.2549 20.2643C38.7982 17.3589 37.8779 14.5137 36.5319 11.8454C35.6903 10.1774 34.6457 8.53756 33.07 7.38874C31.2657 6.07319 28.9255 5.51994 26.6272 5.27261C23.5778 4.94425 20.4241 5.10451 17.5428 6.06791C14.6616 7.0313 12.0696 8.84483 10.618 11.3006C9.26926 13.5826 8.97004 16.2378 8.69604 18.8153Z" fill="#2E2227"/>
<path d="M37.2582 22.5697C37.0268 21.7684 36.7932 20.9582 36.7744 20.1301C36.7557 19.297 36.9553 18.4734 37.0175 17.6421C37.2987 13.892 34.419 10.1393 30.4461 9.07814L31.6065 10.0046C30.2989 9.16249 28.3834 9.30272 26.7326 9.54749C25.8121 9.68395 24.8591 9.84602 23.9819 10.1346C23.1046 9.84602 22.1517 9.68395 21.2313 9.54749C19.5805 9.30272 17.6648 9.16249 16.3573 10.0046L17.5178 9.07814C13.5448 10.1393 10.6652 13.892 10.9462 17.6421C11.0086 18.4734 11.2081 19.297 11.1893 20.1301C11.1707 20.9582 10.9369 21.7684 10.7056 22.5697C9.65239 26.2176 8.60934 29.9689 9.06821 33.717C9.52709 37.465 11.8147 41.2651 15.6762 42.6574C18.3071 43.606 21.3051 43.3227 23.9819 42.4638C26.6586 43.3227 29.6566 43.606 32.2877 42.6574C36.1491 41.2651 38.4368 37.465 38.8955 33.717C39.3544 29.9689 38.3114 26.2176 37.2582 22.5697Z" fill="#F2591D"/>
<path d="M23.9823 42.3037C24.0022 42.3037 24.0222 42.3067 24.0412 42.3129C25.6481 42.8284 27.215 43.0899 28.6984 43.0899C29.9674 43.0899 31.1532 42.8943 32.223 42.5085C35.6671 41.2668 38.2176 37.8089 38.7207 33.6994C39.1879 29.8833 38.0722 26.0193 37.088 22.6102C36.8569 21.8095 36.6177 20.9812 36.5985 20.1334C36.5867 19.6104 36.6595 19.0883 36.7297 18.5833C36.7732 18.2709 36.8182 17.9478 36.8419 17.6312C37.0965 14.2354 34.6936 10.824 31.2534 9.50906L31.7234 9.88442C31.794 9.94075 31.8036 10.0372 31.7452 10.104C31.6871 10.1708 31.5814 10.1843 31.5049 10.1352C30.8616 9.72099 30.0094 9.5196 28.8997 9.5196C28.1072 9.5196 27.2998 9.62564 26.7615 9.70547C25.7158 9.86046 24.8533 10.0185 24.0424 10.2851C24.0036 10.2979 23.9611 10.2979 23.9223 10.2851C23.1115 10.0185 22.2489 9.86046 21.2032 9.70547C20.6648 9.62564 19.8574 9.5196 19.065 9.5196C17.9552 9.5196 17.103 9.72099 16.4598 10.1352C16.3833 10.1843 16.2776 10.1708 16.2195 10.104C16.1612 10.0372 16.1707 9.94075 16.2412 9.88442L16.7112 9.50906C13.2711 10.824 10.8682 14.2354 11.1227 17.6312C11.1465 17.9478 11.1914 18.2709 11.2349 18.5833C11.3051 19.0883 11.378 19.6104 11.3662 20.1332C11.3471 20.9809 11.108 21.8094 10.8766 22.6102C9.89249 26.0193 8.77692 29.8833 9.24393 33.6994C9.74711 37.8089 12.2976 41.2668 15.7417 42.5085C16.8116 42.8943 17.9974 43.0899 19.2663 43.0899C20.7498 43.0899 22.3166 42.8284 23.9236 42.3129C23.9425 42.3067 23.9624 42.3037 23.9823 42.3037ZM28.6985 43.4102C28.6984 43.4102 28.6985 43.4102 28.6984 43.4102C27.193 43.4102 25.6067 43.1488 23.9823 42.6335C22.3581 43.1488 20.7717 43.4102 19.2663 43.4102C17.9526 43.4102 16.7228 43.207 15.6114 42.8061C12.0476 41.5212 9.41055 37.9604 8.89326 33.7346C8.41895 29.8595 9.54332 25.9651 10.5354 22.5291C10.7614 21.7461 10.9953 20.9365 11.0134 20.1267C11.0247 19.6274 10.9536 19.117 10.8849 18.6234C10.8408 18.3064 10.7951 17.9787 10.7707 17.6529C10.4848 13.838 13.4267 10.004 17.4683 8.92449C17.548 8.9034 17.6328 8.93503 17.6726 9.0007C17.7126 9.06652 17.6968 9.14861 17.6348 9.19832L17.3986 9.38675C17.8845 9.26113 18.4373 9.19938 19.065 9.19938C19.8832 9.19938 20.7096 9.30782 21.2601 9.38931C22.1609 9.52307 23.1129 9.68529 23.9823 9.96455C24.852 9.68514 25.8037 9.52307 26.7045 9.38931C27.255 9.30782 28.0815 9.19938 28.8997 9.19938C29.5273 9.19938 30.0801 9.26113 30.5661 9.38675L30.3301 9.19832C30.2678 9.14861 30.2521 9.06652 30.2921 9.0007C30.3321 8.93503 30.4167 8.9034 30.4964 8.92449C34.5381 10.004 37.48 13.838 37.1941 17.6529C37.1697 17.9787 37.1241 18.3064 37.0799 18.6234C37.011 19.117 36.94 19.6274 36.9513 20.1267C36.9695 20.9368 37.2034 21.7463 37.4292 22.5291C38.4213 25.9651 39.5457 29.8595 39.0714 33.7346C38.5541 37.9604 35.917 41.5212 32.3534 42.8061C31.2418 43.207 30.0121 43.4102 28.6985 43.4102Z" fill="#292625"/>
<path d="M37.8229 30.9093C37.6266 30.4291 37.1548 30.1016 36.6146 30.0765C36.6148 30.0845 37.0534 29.9542 37.104 29.9295C37.2897 29.8392 37.4507 29.707 37.5753 29.5475C37.801 29.2589 37.887 28.892 37.8402 28.5369C37.7499 27.852 37.117 27.3185 36.3887 27.3536C36.3882 27.3503 36.3879 27.347 36.3872 27.3435C37.1548 27.1935 37.5947 26.4533 37.4067 25.7389C37.3219 25.417 37.1354 25.1334 36.8493 24.9405C36.686 24.8301 36.4966 24.7588 36.2988 24.7305C36.2369 24.7216 35.7144 24.7427 35.7206 24.7585C36.4282 24.4461 36.6891 23.6266 36.3296 22.9729C35.972 22.3219 35.1552 22.0257 34.4605 22.3951C34.4646 22.4009 34.7613 22.0696 34.7902 22.0229C34.8861 21.8682 34.9427 21.6963 34.9625 21.518C35.0025 21.1581 34.8702 20.7891 34.6244 20.5162C34.1234 19.9596 33.2599 19.846 32.6694 20.3494C32.6713 20.3512 32.8751 19.9965 32.893 19.9476C32.9584 19.7692 32.9776 19.5805 32.9554 19.393C32.9129 19.036 32.7045 18.7111 32.409 18.4927C31.8005 18.0372 30.9136 18.1148 30.4517 18.7242C30.4571 18.7273 30.5767 18.3092 30.582 18.2548C30.6009 18.0613 30.5699 17.8662 30.4961 17.6852C30.3663 17.3668 30.1001 17.1115 29.7788 16.9658C29.0818 16.6457 28.2337 16.9037 27.9196 17.5922C27.9212 17.5928 27.9498 17.191 27.9445 17.1392C27.9252 16.9524 27.8603 16.7751 27.7589 16.6148C27.5749 16.3241 27.2675 16.1182 26.9268 16.0291C26.1582 15.8277 25.3477 16.2473 25.1925 17.0113C25.1978 17.0119 25.1218 16.5853 25.1026 16.5337C25.0399 16.3654 24.9391 16.2143 24.808 16.0873C24.543 15.8308 24.1654 15.6832 23.787 15.6912C23.4028 15.6992 23.0396 15.8269 22.768 16.0917C22.6374 16.219 22.5377 16.3725 22.476 16.5407C22.4569 16.5925 22.3832 17.0188 22.3883 17.0184C22.2335 16.277 21.4771 15.8753 20.7249 16.025C20.3761 16.0946 20.0573 16.2985 19.8575 16.5794C19.7469 16.7347 19.6729 16.9098 19.6451 17.0959C19.6364 17.153 19.6558 17.6156 19.6646 17.6126C19.3458 16.9236 18.5154 16.6849 17.8155 16.9876C17.4732 17.1357 17.2002 17.418 17.0745 17.7558C17.0148 17.9162 16.9894 18.0855 17.0027 18.2556C17.0071 18.313 17.13 18.7615 17.1384 18.7566C16.6721 18.1477 15.8061 18.0854 15.1914 18.5242C14.8902 18.7393 14.6867 19.0708 14.6399 19.4267C14.6177 19.596 14.6311 19.7668 14.6826 19.9305C14.6998 19.9855 14.9221 20.399 14.9294 20.3922C14.3356 19.8914 13.4751 20.0105 12.974 20.5674C12.4712 21.1265 12.5437 21.984 13.1554 22.4374C13.1574 22.4345 12.7548 22.3071 12.7017 22.299C12.503 22.2691 12.2969 22.2827 12.1057 22.3428C11.7393 22.458 11.4595 22.7097 11.2821 23.0328C10.9228 23.6871 11.1968 24.5083 11.9026 24.8162C11.9087 24.8005 11.3853 24.7816 11.3232 24.7907C11.1256 24.8198 10.9366 24.892 10.7739 25.0034C10.4891 25.1983 10.3056 25.4829 10.2208 25.8048C10.123 26.176 10.1901 26.5814 10.4224 26.8957C10.5237 27.0337 10.6543 27.1513 10.8046 27.2395C10.8508 27.2666 11.2476 27.4205 11.2482 27.416C10.564 27.3842 9.95277 27.8569 9.81817 28.4943C9.65454 29.269 10.1889 30.0486 11.0305 30.1283C11.0307 30.1201 10.5871 30.2298 10.5354 30.2519C10.364 30.3253 10.2083 30.4333 10.0824 30.5666C9.83029 30.8335 9.71312 31.1944 9.73254 31.55C9.75129 31.8938 9.88987 32.2168 10.1461 32.4622C10.2787 32.5893 10.4422 32.6859 10.6188 32.7469C10.6758 32.7668 11.1956 32.848 11.1926 32.8285C10.4045 32.9879 9.99625 33.7285 10.1788 34.4553C10.2626 34.7891 10.4966 35.0924 10.8023 35.2697C10.9767 35.3708 11.1702 35.4327 11.3744 35.4441C11.431 35.4474 11.9423 35.3898 11.9328 35.369C11.1802 35.7208 11.0136 36.5743 11.4436 37.2278C11.6339 37.5166 11.9544 37.7402 12.3059 37.8086C12.4972 37.846 12.6951 37.8442 12.8839 37.7958C12.9403 37.7814 13.4344 37.5539 13.4112 37.5301C12.8373 38.0917 12.9629 38.973 13.6105 39.4278C14.2509 39.8776 15.1438 39.7659 15.568 39.0984C15.5578 39.0933 15.4566 39.5045 15.4528 39.5533C15.4378 39.747 15.4702 39.9454 15.5534 40.123C15.7077 40.4527 15.9975 40.7088 16.3514 40.8323C17.0782 41.1005 17.9032 40.7765 18.1594 40.0597C18.1547 40.0587 18.1566 40.4663 18.1655 40.5166C18.1986 40.7036 18.2766 40.88 18.3883 41.0365C18.5874 41.315 18.9049 41.494 19.2448 41.57C20.0112 41.7414 20.7958 41.2834 20.9442 40.5378C20.9435 40.5376 21.0089 40.9332 21.0263 40.9829C21.0884 41.1612 21.1916 41.3242 21.3244 41.4626C21.5738 41.7225 21.9311 41.8628 22.2961 41.8836C23.048 41.9321 23.7363 41.4034 23.7913 40.6749C23.7942 40.6749 23.8932 41.0358 23.9147 41.0814C23.9895 41.2424 24.0999 41.3873 24.2363 41.5056C24.5285 41.7592 24.9204 41.8812 25.3124 41.852C25.6612 41.8259 26.0026 41.6952 26.2482 41.4524C26.3824 41.3195 26.4885 41.1596 26.555 40.9861C26.576 40.9317 26.6579 40.4794 26.6503 40.4803C26.8058 41.1864 27.5496 41.6475 28.291 41.5017C28.634 41.4343 28.9606 41.2659 29.1737 40.9956C29.2927 40.8448 29.3773 40.6685 29.4183 40.4837C29.4306 40.428 29.4445 39.9624 29.4334 39.9654C29.6978 40.6762 30.5209 40.9948 31.2445 40.725C31.5818 40.6109 31.8619 40.3644 32.0182 40.0579C32.1062 39.8854 32.15 39.6979 32.1455 39.506C32.1444 39.4518 32.0461 38.9885 32.0308 38.9963C32.45 39.6559 33.3432 39.7806 33.9825 39.334C34.6299 38.882 34.7723 38.0133 34.2069 37.4416C34.1949 37.4536 34.5897 37.6678 34.6367 37.6847C34.8286 37.7529 35.0352 37.7687 35.2373 37.7431C35.6225 37.6946 35.9611 37.4643 36.1778 37.162C36.6274 36.5187 36.4506 35.653 35.71 35.2982C35.7043 35.3102 36.1428 35.3797 36.1934 35.3798C36.401 35.3815 36.6036 35.3312 36.7859 35.2367C37.1218 35.0627 37.3758 34.7494 37.4689 34.394C37.6591 33.6677 37.2444 32.9239 36.4584 32.765C36.4539 32.7931 37.0303 32.6856 37.0916 32.6612C37.3206 32.5698 37.5143 32.4178 37.6573 32.2245C37.9356 31.8481 37.9972 31.3381 37.8229 30.9093C37.8926 31.0808 37.7527 30.7376 37.8229 30.9093Z" fill="#F7A80E"/>
<path d="M35.5504 28.4403C35.3859 28.038 34.9906 27.7637 34.538 27.7426C34.5382 27.7492 34.9058 27.64 34.9481 27.6195C35.1038 27.5438 35.2385 27.4331 35.3431 27.2995C35.532 27.0577 35.6041 26.7503 35.5648 26.4528C35.4891 25.8791 34.9589 25.4322 34.3488 25.4615C34.3485 25.4587 34.3482 25.456 34.3477 25.4531C34.9906 25.3273 35.3592 24.7074 35.2017 24.1088C35.1307 23.839 34.9743 23.6016 34.7347 23.4399C34.5979 23.3474 34.4393 23.2877 34.2735 23.2639C34.2216 23.2566 33.7839 23.2742 33.7891 23.2874C34.3819 23.0258 34.6004 22.3391 34.2994 21.7914C33.9997 21.2462 33.3154 20.9981 32.7334 21.3075C32.7369 21.3124 32.9855 21.0348 33.0097 20.9957C33.09 20.866 33.1375 20.7221 33.1541 20.5726C33.1875 20.2712 33.0768 19.9621 32.8708 19.7333C32.4511 19.2671 31.7277 19.1719 31.233 19.5937C31.2346 19.5952 31.4052 19.298 31.4203 19.257C31.4749 19.1076 31.4912 18.9494 31.4725 18.7923C31.4369 18.4933 31.2624 18.2212 31.0149 18.0382C30.5049 17.6566 29.7619 17.7215 29.3751 18.2322C29.3796 18.2347 29.4798 17.8845 29.4843 17.839C29.5 17.6767 29.474 17.5134 29.4123 17.3617C29.3034 17.0949 29.0805 16.8811 28.8113 16.7591C28.2273 16.4909 27.5168 16.7069 27.2538 17.2838C27.2551 17.2843 27.279 16.9476 27.2746 16.9043C27.2585 16.7478 27.2042 16.5992 27.119 16.465C26.965 16.2215 26.7075 16.049 26.422 15.9741C25.7783 15.8054 25.0992 16.1572 24.9692 16.7972C24.9737 16.7976 24.91 16.4403 24.8939 16.397C24.8413 16.2561 24.7568 16.1294 24.6471 16.0231C24.425 15.8082 24.1087 15.6845 23.7916 15.6913C23.4698 15.6979 23.1656 15.8048 22.9379 16.0267C22.8285 16.1334 22.7451 16.262 22.6933 16.4028C22.6773 16.4462 22.6156 16.8035 22.6199 16.803C22.4903 16.1819 21.8565 15.8454 21.2264 15.9708C20.9341 16.0291 20.6669 16.1999 20.4996 16.4354C20.407 16.5655 20.3451 16.7121 20.3217 16.8681C20.3146 16.9159 20.3307 17.3033 20.338 17.3008C20.0711 16.7237 19.3753 16.5238 18.7891 16.7773C18.5022 16.9014 18.2735 17.1379 18.1683 17.4209C18.1181 17.5553 18.0969 17.6971 18.108 17.8396C18.1117 17.8877 18.2146 18.2633 18.2217 18.2593C17.831 17.7493 17.1056 17.697 16.5905 18.0645C16.3382 18.2447 16.1678 18.5226 16.1286 18.8207C16.1099 18.9625 16.1212 19.1056 16.1643 19.2427C16.1788 19.2888 16.365 19.6352 16.3711 19.6295C15.8737 19.2099 15.1528 19.3097 14.7331 19.7764C14.3117 20.2447 14.3725 20.9631 14.8849 21.3429C14.8866 21.3405 14.5494 21.2337 14.5047 21.2269C14.3384 21.2019 14.1657 21.2133 14.0057 21.2636C13.6985 21.3602 13.4642 21.5711 13.3155 21.8417C13.0144 22.3899 13.2441 23.0779 13.8354 23.3358C13.8406 23.3227 13.4021 23.3069 13.3502 23.3144C13.1844 23.3388 13.0261 23.3992 12.8898 23.4926C12.6513 23.656 12.4975 23.8943 12.4264 24.1639C12.3445 24.475 12.4007 24.8146 12.5954 25.0779C12.6802 25.1936 12.7896 25.2919 12.9155 25.3659C12.9542 25.3885 13.2866 25.5174 13.2871 25.5138C12.7141 25.4872 12.2019 25.8831 12.0892 26.4171C11.9521 27.0661 12.3997 27.7193 13.1047 27.786C13.1049 27.7792 12.7333 27.8711 12.6902 27.8896C12.5464 27.9511 12.416 28.0416 12.3104 28.1532C12.0993 28.3769 12.0011 28.6792 12.0174 28.977C12.0331 29.2651 12.1493 29.5356 12.3639 29.7412C12.4751 29.8477 12.6118 29.9286 12.7599 29.9798C12.8077 29.9964 13.2431 30.0645 13.2406 30.0482C12.5803 30.1817 12.2384 30.8022 12.3913 31.4111C12.4615 31.6906 12.6575 31.9447 12.9135 32.0933C13.0597 32.1781 13.2219 32.2297 13.3928 32.2395C13.4403 32.2421 13.8686 32.1939 13.8607 32.1764C13.2302 32.4713 13.0906 33.1862 13.4509 33.7337C13.6104 33.9756 13.8787 34.163 14.1733 34.2204C14.3335 34.2515 14.4993 34.2502 14.6576 34.2095C14.7047 34.1975 15.1186 34.0069 15.0992 33.9871C14.6184 34.4575 14.7238 35.1958 15.2663 35.5767C15.8027 35.9536 16.5507 35.8599 16.9062 35.3008C16.8977 35.2964 16.8127 35.6411 16.8096 35.6819C16.7971 35.8441 16.8242 36.0104 16.8939 36.1592C17.0232 36.4353 17.2658 36.6499 17.5625 36.7533C18.1714 36.9782 18.8625 36.7066 19.077 36.1062C19.0732 36.1053 19.0747 36.4468 19.0822 36.4889C19.1099 36.6456 19.1751 36.7935 19.2689 36.9244C19.4357 37.1577 19.7015 37.3077 19.9863 37.3714C20.6284 37.515 21.2858 37.1313 21.4099 36.5067C21.4094 36.5066 21.4644 36.8379 21.4788 36.8795C21.5309 37.0291 21.6174 37.1655 21.7286 37.2814C21.9375 37.4992 22.2369 37.6167 22.5426 37.6341C23.1726 37.6748 23.7491 37.2318 23.7954 36.6216C23.7976 36.6216 23.8807 36.9239 23.8986 36.9622C23.9614 37.097 24.0538 37.2184 24.1681 37.3175C24.4129 37.5299 24.7412 37.6322 25.0695 37.6076C25.3617 37.5858 25.6478 37.4763 25.8534 37.2729C25.9661 37.1616 26.0548 37.0276 26.1105 36.8822C26.1281 36.8366 26.1968 36.4578 26.1905 36.4585C26.3206 37.05 26.9438 37.4364 27.565 37.3142C27.8523 37.2577 28.1259 37.1166 28.3045 36.8902C28.4041 36.7638 28.4751 36.6162 28.5093 36.4614C28.5197 36.4147 28.5313 36.0247 28.5221 36.0271C28.7434 36.6225 29.433 36.8896 30.0392 36.6635C30.3219 36.5679 30.5564 36.3615 30.6875 36.1047C30.7612 35.9602 30.7978 35.8031 30.7942 35.6423C30.793 35.5968 30.7109 35.2088 30.6981 35.2153C31.0491 35.7679 31.7976 35.8723 32.3331 35.4983C32.8753 35.1196 32.9948 34.3918 32.521 33.9128C32.511 33.9229 32.8418 34.1023 32.8811 34.1164C33.0418 34.1735 33.2149 34.1868 33.3843 34.1654C33.7069 34.1247 33.9905 33.9318 34.1721 33.6786C34.5488 33.1396 34.4008 32.4145 33.7803 32.1171C33.7755 32.1273 34.1429 32.1854 34.1852 32.1856C34.3591 32.1868 34.5289 32.1448 34.6816 32.0657C34.9629 31.9199 35.1758 31.6573 35.2538 31.3596C35.4131 30.7512 35.0658 30.1281 34.4073 29.9949C34.4036 30.0184 34.8864 29.9285 34.9377 29.908C35.1295 29.8313 35.2918 29.704 35.4116 29.5421C35.6448 29.2269 35.6964 28.7995 35.5504 28.4403C35.6088 28.584 35.4916 28.2965 35.5504 28.4403Z" fill="#F3D055"/>
<path d="M33.2816 25.9713C33.149 25.6469 32.8302 25.4258 32.4652 25.4087C32.4654 25.414 32.7618 25.326 32.796 25.3095C32.9214 25.2485 33.0301 25.1592 33.1144 25.0515C33.2668 24.8564 33.3249 24.6086 33.2933 24.3687C33.2323 23.9061 32.8046 23.5457 32.3127 23.5695C32.3125 23.5672 32.3122 23.5649 32.3117 23.5627C32.8302 23.4613 33.1274 22.9612 33.0004 22.4786C32.9432 22.2611 32.817 22.0697 32.6239 21.9393C32.5135 21.8647 32.3856 21.8165 32.252 21.7975C32.2101 21.7915 31.8573 21.8057 31.8615 21.8163C32.3394 21.6053 32.5157 21.0516 32.2729 20.6101C32.0312 20.1703 31.4794 19.9703 31.0101 20.2197C31.0129 20.2238 31.2134 20 31.233 19.9683C31.2977 19.864 31.3359 19.7478 31.3493 19.6273C31.3764 19.3842 31.2869 19.1349 31.121 18.9506C30.7826 18.5746 30.1992 18.4979 29.8003 18.838C29.8016 18.8391 29.9392 18.5996 29.9513 18.5665C29.9954 18.446 30.0085 18.3185 29.9934 18.1919C29.9647 17.9507 29.824 17.7313 29.6245 17.5836C29.2133 17.2759 28.6142 17.3283 28.3022 17.7401C28.3058 17.7421 28.3866 17.4598 28.3901 17.4231C28.4029 17.2922 28.382 17.1605 28.332 17.0382C28.2444 16.8231 28.0647 16.6507 27.8476 16.5523C27.3768 16.336 26.8039 16.5103 26.5916 16.9754C26.5928 16.9759 26.612 16.7043 26.6086 16.6694C26.5954 16.5433 26.5516 16.4234 26.4831 16.3151C26.3588 16.1188 26.1512 15.9798 25.921 15.9194C25.4019 15.7834 24.8544 16.0669 24.7495 16.583C24.7531 16.5833 24.7019 16.2952 24.6888 16.2603C24.6464 16.1467 24.5784 16.0447 24.4898 15.9589C24.3107 15.7855 24.0556 15.6859 23.8 15.6912C23.5405 15.6966 23.2952 15.7829 23.1117 15.9619C23.0235 16.0479 22.9562 16.1514 22.9145 16.2651C22.9016 16.3 22.8518 16.5882 22.8552 16.5877C22.7507 16.0869 22.2397 15.8156 21.7315 15.9167C21.4959 15.9637 21.2805 16.1015 21.1455 16.2913C21.0709 16.3961 21.0209 16.5144 21.0022 16.6401C20.9964 16.6787 21.0093 16.9911 21.0153 16.9891C20.8 16.5238 20.2391 16.3625 19.7663 16.5669C19.5349 16.6669 19.3505 16.8578 19.2656 17.0858C19.2252 17.1943 19.2082 17.3086 19.2171 17.4235C19.2201 17.4622 19.3031 17.7653 19.3087 17.762C18.9939 17.3506 18.4089 17.3086 17.9935 17.605C17.79 17.7502 17.6526 17.9742 17.6211 18.2146C17.606 18.3291 17.6151 18.4445 17.6498 18.5549C17.6616 18.5921 17.8116 18.8715 17.8166 18.8668C17.4155 18.5285 16.8341 18.6091 16.4957 18.9852C16.156 19.3628 16.205 19.9421 16.6182 20.2483C16.6197 20.2465 16.3477 20.1604 16.3117 20.155C16.1776 20.1348 16.0384 20.144 15.9092 20.1845C15.6616 20.2623 15.4726 20.4324 15.3528 20.6507C15.11 21.0926 15.295 21.6473 15.772 21.8554C15.776 21.8447 15.4225 21.832 15.3807 21.8382C15.2471 21.8578 15.1193 21.9066 15.0094 21.9817C14.8171 22.1135 14.6931 22.3057 14.6358 22.5231C14.5698 22.7739 14.6151 23.0477 14.7721 23.2601C14.8405 23.3533 14.9286 23.4327 15.0302 23.4923C15.0614 23.5106 15.3295 23.6145 15.3299 23.6116C14.8677 23.5901 14.4548 23.9094 14.3638 24.3399C14.2533 24.8633 14.6143 25.3899 15.1828 25.4437C15.1828 25.4383 14.8833 25.5124 14.8484 25.5273C14.7326 25.5768 14.6274 25.6497 14.5424 25.7398C14.3721 25.9201 14.293 26.164 14.3061 26.4041C14.3187 26.6363 14.4123 26.8546 14.5854 27.0203C14.675 27.1063 14.7854 27.1714 14.9047 27.2126C14.9432 27.226 15.2944 27.2809 15.2924 27.2679C14.7598 27.3754 14.4842 27.8758 14.6075 28.3667C14.6641 28.5922 14.822 28.797 15.0287 28.9168C15.1465 28.9852 15.2771 29.0269 15.4152 29.0347C15.4534 29.0368 15.7987 28.998 15.7922 28.9838C15.2839 29.2217 15.1714 29.7981 15.4618 30.2396C15.5904 30.4346 15.8068 30.5857 16.0443 30.632C16.1736 30.6571 16.3072 30.6561 16.4348 30.6232C16.4728 30.6136 16.8066 30.4599 16.791 30.4438C16.4033 30.8231 16.4883 31.4185 16.9257 31.7258C17.3582 32.0296 17.9615 31.9541 18.2479 31.5033C18.2411 31.4997 18.1727 31.7775 18.1701 31.8104C18.1601 31.9413 18.1819 32.0754 18.2381 32.1954C18.3424 32.4181 18.538 32.591 18.7773 32.6744C19.2682 32.8558 19.8255 32.6368 19.9984 32.1527C19.9953 32.1519 19.9966 32.4273 20.0026 32.4613C20.025 32.5875 20.0776 32.7068 20.1531 32.8124C20.2877 33.0005 20.5021 33.1215 20.7316 33.1728C21.2494 33.2887 21.7795 32.9793 21.8796 32.4754C21.8792 32.4754 21.9234 32.7427 21.9352 32.7763C21.9772 32.8968 22.0469 33.0067 22.1365 33.1002C22.3051 33.2759 22.5464 33.3706 22.793 33.3846C23.3008 33.4175 23.7657 33.0603 23.803 32.5682C23.8049 32.5682 23.8719 32.8119 23.8862 32.8428C23.937 32.9516 24.0115 33.0493 24.1036 33.1293C24.3011 33.3006 24.5658 33.383 24.8305 33.3632C25.0661 33.3458 25.2967 33.2573 25.4626 33.0935C25.5534 33.0037 25.6249 32.8955 25.6699 32.7784C25.684 32.7416 25.7394 32.4361 25.7343 32.4367C25.8393 32.9136 26.3419 33.2251 26.8426 33.1268C27.0742 33.0811 27.2948 32.9674 27.4388 32.7848C27.5193 32.6829 27.5764 32.5639 27.6041 32.439C27.6124 32.4013 27.6219 32.0868 27.6144 32.089C27.793 32.569 28.349 32.7842 28.8377 32.602C29.0656 32.5249 29.2548 32.3584 29.3605 32.1513C29.4199 32.0349 29.4494 31.9082 29.4464 31.7785C29.4456 31.7419 29.3792 31.4289 29.3689 31.4343C29.6521 31.8797 30.2555 31.9641 30.6873 31.6624C31.1246 31.3571 31.2209 30.7702 30.839 30.384C30.8307 30.3922 31.0976 30.5369 31.1293 30.5482C31.2589 30.5943 31.3984 30.605 31.535 30.5877C31.7951 30.555 32.0238 30.3994 32.1703 30.1951C32.4738 29.7606 32.3545 29.1759 31.8543 28.9361C31.8505 28.9442 32.1466 28.9912 32.1808 28.9912C32.321 28.9923 32.4579 28.9584 32.5811 28.8945C32.8079 28.777 32.9797 28.5654 33.0424 28.3253C33.1709 27.8347 32.8907 27.3322 32.3598 27.2248C32.3568 27.2438 32.7462 27.1714 32.7875 27.1548C32.9422 27.093 33.0731 26.9903 33.1697 26.8597C33.3577 26.6056 33.3992 26.261 33.2816 25.9713C33.3287 26.0872 33.2343 25.8554 33.2816 25.9713Z" fill="#F8E298"/>
<path d="M12.9149 36.7422C12.6369 35.7744 12.3589 34.8065 12.0809 33.8387C12.7784 34.9504 13.9933 35.7844 15.3616 36.0912C15.1536 35.2968 14.9459 34.5025 14.7379 33.7082C15.3204 34.3138 16.0549 34.7984 16.8695 35.1144C17.0909 35.2002 17.3597 35.2703 17.56 35.1489C17.7623 35.0263 17.7924 34.7705 17.7881 34.5498C17.7466 32.4009 16.3884 30.4779 15.0514 28.7039C13.7144 26.93 12.3035 25.0572 12.1319 22.9136C12.0733 22.1808 12.0657 21.2783 11.3479 20.9385C10.8482 20.7017 10.2049 20.893 9.80945 21.2574C9.41381 21.6219 9.21366 22.1213 9.04472 22.6094C7.95155 25.765 7.69448 29.1563 8.30155 32.4181C8.49755 33.4718 8.81719 34.57 9.65395 35.3219C9.61495 34.2753 9.57578 33.2287 9.53678 32.1822C10.0751 33.9817 11.282 35.6107 12.9149 36.7422Z" fill="#F2591D"/>
<path d="M9.53752 32.0221C9.61602 32.0221 9.68639 32.0695 9.70763 32.1402C10.1911 33.7562 11.2132 35.2205 12.6092 36.3108L11.9107 33.8792C11.8885 33.8014 11.9331 33.7207 12.0151 33.6904C12.0966 33.6603 12.1909 33.6897 12.2348 33.7596C12.8564 34.7502 13.9211 35.522 15.1212 35.8638L14.5669 33.7452C14.5481 33.6736 14.5856 33.5996 14.6578 33.5659C14.7302 33.5323 14.8181 33.5475 14.8714 33.6029C15.4355 34.1894 16.1506 34.6612 16.9394 34.9671C17.1897 35.0641 17.3563 35.0801 17.4627 35.0158C17.5681 34.9519 17.617 34.8004 17.6122 34.5526C17.5725 32.4976 16.3096 30.6562 14.9064 28.7944C13.5423 26.9846 12.1316 25.1129 11.9565 22.9253L11.9434 22.7502C11.8953 22.095 11.8409 21.3523 11.267 21.0804C11.1462 21.0232 11.0106 20.9943 10.8639 20.9943C10.5427 20.9943 10.1871 21.1381 9.93566 21.3698C9.56159 21.7144 9.37389 22.1949 9.21357 22.6575C8.1287 25.7888 7.87379 29.1547 8.47605 32.3914C8.63239 33.2316 8.87369 34.1616 9.46135 34.8761L9.36094 32.1876C9.35796 32.1063 9.42251 32.036 9.51113 32.0238C9.51993 32.0226 9.52873 32.0221 9.53752 32.0221ZM12.9154 36.9023C12.8776 36.9023 12.8399 36.8913 12.8084 36.8695C11.458 35.9337 10.4 34.6748 9.75393 33.2539L9.82961 35.2855C9.8326 35.2973 9.83425 35.3095 9.83425 35.322C9.83425 35.4104 9.75526 35.4821 9.65784 35.4821C9.65684 35.482 9.65568 35.4821 9.65469 35.4821C9.60905 35.4821 9.56424 35.466 9.53039 35.4357C8.63554 34.6318 8.31939 33.4726 8.12804 32.4448C7.51665 29.1584 7.77554 25.7408 8.87684 22.5614C9.04263 22.0834 9.25523 21.5404 9.68423 21.145C10.0044 20.8501 10.4455 20.674 10.8639 20.674C11.068 20.674 11.2585 20.7152 11.4301 20.7965C12.1797 21.1517 12.2438 22.0262 12.2954 22.729L12.3084 22.9021C12.4766 25.0036 13.8599 26.8388 15.1975 28.6136C16.6322 30.5172 17.9236 32.4033 17.965 34.547C17.9695 34.7802 17.9426 35.1101 17.6585 35.2822C17.4474 35.41 17.1792 35.4083 16.8008 35.2616C16.1621 35.014 15.5689 34.6638 15.0578 34.2354L15.5261 36.0251C15.5361 36.0453 15.5419 36.0676 15.5419 36.0912C15.5419 36.1796 15.4629 36.2513 15.3655 36.2513C15.3645 36.2513 15.3631 36.2513 15.3622 36.2513C15.348 36.2513 15.3338 36.2498 15.3198 36.2467C14.2326 36.003 13.2283 35.4274 12.4971 34.6511L13.0862 36.7019C13.1053 36.768 13.0759 36.8377 13.0132 36.8757C12.9835 36.8935 12.9495 36.9023 12.9154 36.9023Z" fill="#292625"/>
<path d="M35.0454 36.7422C35.3234 35.7744 35.6014 34.8065 35.8794 33.8387C35.1818 34.9504 33.9672 35.7844 32.5989 36.0912C32.8066 35.2968 33.0144 34.5025 33.2224 33.7082C32.6399 34.3138 31.9053 34.7984 31.0908 35.1144C30.8694 35.2002 30.6006 35.2703 30.4003 35.1489C30.198 35.0263 30.1681 34.7705 30.1722 34.5498C30.2139 32.4009 31.5719 30.4779 32.9089 28.7039C34.246 26.93 35.6568 25.0572 35.8284 22.9136C35.8872 22.1808 35.8946 21.2783 36.6124 20.9385C37.1121 20.7017 37.7554 20.893 38.151 21.2574C38.5465 21.6219 38.7466 22.1213 38.9156 22.6094C40.0089 25.765 40.2658 29.1563 39.6587 32.4181C39.4627 33.4718 39.1433 34.57 38.3063 35.3219C38.3455 34.2753 38.3845 33.2287 38.4235 32.1822C37.8851 33.9817 36.6783 35.6107 35.0454 36.7422Z" fill="#F2591D"/>
<path d="M35.8802 33.6787C35.9023 33.6787 35.9249 33.6824 35.9466 33.6904C36.0286 33.7207 36.0731 33.8014 36.0508 33.8792L35.3523 36.3108C36.7485 35.2205 37.7705 33.7562 38.2539 32.1402C38.2775 32.0617 38.3625 32.0122 38.4504 32.0238C38.539 32.036 38.6036 32.1063 38.6006 32.1876L38.5002 34.8761C39.0879 34.1616 39.3292 33.2316 39.4855 32.3914C40.0879 29.1547 39.8328 25.7888 38.748 22.6575C38.5878 22.1949 38.4 21.7144 38.0259 21.3698C37.7745 21.1381 37.4188 20.9943 37.0977 20.9943C36.951 20.9943 36.8154 21.0232 36.6946 21.0804C36.1207 21.3523 36.0663 22.095 36.0183 22.7502L36.005 22.9253C35.8299 25.1129 34.4193 26.9846 33.0553 28.7944C31.6519 30.6562 30.389 32.4976 30.3493 34.5526C30.3445 34.8004 30.3935 34.9519 30.499 35.0158C30.6052 35.0802 30.772 35.0641 31.0223 34.9671C31.8111 34.6612 32.5262 34.1894 33.0901 33.6029C33.1436 33.5475 33.2319 33.5323 33.3037 33.5659C33.3759 33.5996 33.4134 33.6736 33.3947 33.7452L32.8404 35.8638C34.0406 35.522 35.1052 34.7502 35.7267 33.7596C35.7591 33.7082 35.8185 33.6787 35.8802 33.6787ZM35.0461 36.9023C35.0121 36.9023 34.9781 36.8935 34.9484 36.8757C34.8856 36.8377 34.8564 36.768 34.8753 36.7019L35.4645 34.6511C34.7333 35.4274 33.7289 36.003 32.6417 36.2467C32.582 36.2601 32.5189 36.2443 32.4754 36.205C32.4316 36.1656 32.4137 36.1086 32.4278 36.0543L32.9038 34.2354C32.3926 34.6638 31.7995 35.014 31.1609 35.2616C30.7823 35.4083 30.5143 35.4101 30.3032 35.2822C30.0189 35.1101 29.992 34.7802 29.9965 34.547C30.038 32.4033 31.3293 30.5172 32.764 28.6136C34.1017 26.8388 35.4849 25.0036 35.6532 22.9021L35.6663 22.729C35.7177 22.0262 35.7818 21.1517 36.5314 20.7965C36.703 20.7152 36.8937 20.674 37.0977 20.674C37.5162 20.674 37.9572 20.8501 38.2773 21.145C38.7063 21.5404 38.9191 22.0834 39.0847 22.5614C40.186 25.7408 40.4451 29.1584 39.8335 32.4448C39.6422 33.4726 39.326 34.6318 38.4312 35.4357C38.3797 35.4818 38.3027 35.4948 38.2363 35.4687C38.1701 35.4423 38.1283 35.3821 38.1308 35.3166L38.2078 33.2539C37.5615 34.6748 36.5036 35.9337 35.1532 36.8695C35.1216 36.8913 35.0838 36.9023 35.0461 36.9023Z" fill="#292625"/>
<path d="M17.7444 41.5794C17.4407 41.3826 17.0117 41.5163 16.7063 41.7111C16.0118 42.1538 15.5695 42.8683 15.3566 43.6141C15.1436 44.3598 15.1403 45.1411 15.1793 45.9106C15.1851 46.0257 15.2077 46.1631 15.323 46.2113C15.4781 46.2759 15.6311 46.1227 15.7189 45.99C16.184 45.2884 16.6491 44.5867 17.1142 43.8849C17.3628 43.5098 17.6119 43.1337 17.8149 42.7367C17.9125 42.5458 18.0003 42.3454 18.0087 42.1352C18.0172 41.9251 17.9331 41.7016 17.7444 41.5794Z" fill="#EDA263"/>
<path d="M17.3903 41.6428C17.2166 41.6428 17.003 41.7155 16.8043 41.8422C16.2029 42.2256 15.748 42.8692 15.524 43.6544C15.3107 44.4018 15.3153 45.1771 15.3522 45.9034C15.3595 46.0478 15.393 46.0657 15.3933 46.0659L15.395 46.0665C15.4166 46.0665 15.4908 46.0186 15.5643 45.9076L16.9597 43.8025C17.2016 43.4375 17.4519 43.0603 17.6515 42.6695C17.7393 42.4974 17.8218 42.3131 17.8289 42.1295C17.8347 41.99 17.7875 41.8064 17.6386 41.7098C17.5691 41.6648 17.4877 41.6428 17.3903 41.6428ZM15.395 46.3867C15.3948 46.3867 15.3948 46.3867 15.3948 46.3867C15.3436 46.3867 15.2936 46.3768 15.246 46.3569C15.0171 46.2612 15.004 46.0031 14.9997 45.9181C14.9633 45.2027 14.9567 44.3647 15.1824 43.5741C15.4275 42.7154 15.9315 42.0073 16.6015 41.5801C16.7524 41.4839 17.0554 41.3226 17.3903 41.3226C17.5614 41.3226 17.7139 41.3652 17.8434 41.4491C18.0634 41.5917 18.1931 41.8568 18.1816 42.1411C18.172 42.3813 18.0749 42.6018 17.9715 42.8041C17.7639 43.2107 17.5086 43.5953 17.2619 43.9675L15.8667 46.0728C15.789 46.19 15.6242 46.3867 15.395 46.3867Z" fill="#292625"/>
<path d="M17.2104 42.9102C17.2488 42.7331 17.2785 42.5496 17.2368 42.3732C17.1623 42.7005 16.921 42.9933 16.596 43.1508C16.6641 43.3931 16.6712 43.6563 16.5673 43.8878C16.4633 44.1193 16.2354 44.3125 15.9629 44.3496C16.0012 44.7782 15.9062 45.2163 15.6914 45.5996C16.0874 44.9667 16.4832 44.3336 16.879 43.7005C16.9522 43.5838 17.0254 43.4666 17.0803 43.3419C17.1414 43.203 17.1789 43.0568 17.2104 42.9102Z" fill="#DC7029"/>
<path d="M18.8585 41.5794C19.1624 41.3826 19.5912 41.5163 19.8968 41.7111C20.5913 42.1538 21.0336 42.8683 21.2463 43.6141C21.4593 44.3598 21.4627 45.1411 21.4236 45.9106C21.4178 46.0257 21.3954 46.1631 21.28 46.2113C21.125 46.2759 20.972 46.1227 20.8841 45.99C20.419 45.2884 19.9539 44.5867 19.4887 43.8849C19.2401 43.5098 18.991 43.1337 18.788 42.7367C18.6906 42.5458 18.6026 42.3454 18.5943 42.1352C18.5859 41.9251 18.67 41.7016 18.8585 41.5794Z" fill="#EDA263"/>
<path d="M19.2062 41.6428C19.1086 41.6428 19.0275 41.6648 18.9579 41.7098C18.8089 41.8062 18.7618 41.9898 18.7674 42.1295C18.7747 42.3132 18.857 42.4976 18.945 42.6695C19.1441 43.0591 19.3946 43.437 19.6367 43.8025L21.0321 45.9077C21.1053 46.0181 21.1793 46.0662 21.2012 46.0665C21.2042 46.0653 21.237 46.046 21.2442 45.9034C21.281 45.1769 21.2858 44.4015 21.0724 43.6544C20.8482 42.8692 20.3936 42.2256 19.7922 41.8421C19.5935 41.7156 19.38 41.6428 19.2062 41.6428ZM21.2015 46.0665V46.2266V46.0665ZM21.2015 46.3867C20.9722 46.3867 20.8075 46.19 20.7297 46.0728L19.3345 43.9675C19.0874 43.5949 18.832 43.2094 18.6248 42.8041C18.5215 42.6018 18.4244 42.3815 18.4147 42.1411C18.4035 41.8567 18.5331 41.5916 18.753 41.4491C18.8826 41.3652 19.0351 41.3226 19.2062 41.3226C19.5411 41.3226 19.8441 41.4839 19.9948 41.5801C20.6648 42.0072 21.1688 42.7152 21.4139 43.5741C21.6396 44.3644 21.633 45.2025 21.5967 45.9181C21.5918 46.012 21.5792 46.2612 21.3505 46.3569C21.3029 46.3768 21.2528 46.3867 21.2015 46.3867Z" fill="#292625"/>
<path d="M20.0704 43.0276C20.0402 43.3065 20.0925 43.5924 20.2203 43.8476C20.2654 43.938 20.3215 44.0262 20.404 44.0913C20.4865 44.1565 20.5993 44.1958 20.7064 44.1762C20.6557 44.4346 20.7434 44.6982 20.8506 44.9419C20.9203 45.1 20.9986 45.2552 21.0854 45.4062C21.029 45.3834 20.9883 45.3379 20.95 45.2939C20.7515 45.0651 20.561 44.8309 20.3703 44.5966C20.2842 44.4909 20.198 44.385 20.1117 44.2791C20.0586 44.2138 20.0053 44.1482 19.9542 44.0815C19.5978 43.6158 19.3463 43.0841 19.22 42.5287C19.1825 42.3633 19.1591 42.1799 19.2559 42.0357C19.4532 42.4145 19.6721 42.8155 20.0704 43.0276Z" fill="#DC7029"/>
<path d="M19.3714 43.2586C19.3714 44.4026 18.88 46.5273 18.2736 46.5273C17.6674 46.5273 17.1758 44.4026 17.1758 43.2586C17.1758 42.1145 17.6674 41.1871 18.2736 41.1871C18.88 41.1871 19.3714 42.1145 19.3714 43.2586Z" fill="#EDA263"/>
<path d="M18.2703 41.3473C17.8345 41.3473 17.3489 42.1322 17.3489 43.2585C17.3489 44.5369 17.8914 46.3673 18.2703 46.3673C18.6492 46.3673 19.1917 44.5369 19.1917 43.2585C19.1917 42.1322 18.7061 41.3473 18.2703 41.3473ZM18.2703 46.6875C17.4296 46.6875 16.9961 44.284 16.9961 43.2585C16.9961 42.0073 17.5559 41.027 18.2703 41.027C18.9849 41.027 19.5445 42.0073 19.5445 43.2585C19.5445 44.284 19.1111 46.6875 18.2703 46.6875Z" fill="#292625"/>
<path d="M16.2818 42.6001C16.288 42.6739 16.3412 42.7371 16.3972 42.7911C16.4453 42.8376 16.5044 42.8838 16.5747 42.8848C16.6856 42.8861 16.756 42.7805 16.8026 42.6892C16.8628 42.5713 16.9241 42.4508 16.9399 42.3216C16.9558 42.1923 16.9186 42.0504 16.8101 41.9656C16.6634 42.0882 16.5263 42.2203 16.4002 42.3604C16.3376 42.43 16.2745 42.5106 16.2818 42.6001Z" fill="#F3ED99"/>
<path d="M16.0884 42.9524C16.041 42.9605 16.0108 43.002 15.9874 43.0402C15.7773 43.3858 15.6825 43.7882 15.7184 44.1815C15.7222 44.2238 15.7348 44.2746 15.7791 44.288C15.8332 44.3043 15.88 44.2516 15.9077 44.2062C16.0172 44.0271 16.1266 43.8479 16.2361 43.6688C16.2967 43.5698 16.359 43.4644 16.3535 43.3513C16.3482 43.2383 16.2108 42.9312 16.0884 42.9524Z" fill="#F3ED99"/>
<path d="M15.577 45.4461C15.6651 45.2613 15.7177 45.0626 15.7318 44.8617C15.7368 44.7916 15.7366 44.719 15.7064 44.6544C15.6762 44.5898 15.6095 44.5348 15.5321 44.5336C15.4669 44.7192 15.4301 44.9129 15.4228 45.1075C15.4181 45.2308 15.4289 45.3638 15.5144 45.4599C15.5214 45.4678 15.5302 45.4759 15.5413 45.4765C15.5587 45.4776 15.57 45.4607 15.577 45.4461Z" fill="#F3ED99"/>
<path d="M17.6251 43.2638C17.6534 43.3507 17.7077 43.4427 17.8038 43.4669C17.8979 43.4907 17.9991 43.4371 18.0521 43.3626C18.105 43.2882 18.1203 43.1972 18.1324 43.1092C18.1975 42.6381 18.2112 42.1612 18.1736 41.6875C18.1694 41.637 18.1462 41.5707 18.0904 41.5742C18.0619 41.5759 18.0401 41.5972 18.0222 41.6176C17.7641 41.9092 17.652 42.2859 17.6005 42.6572C17.5725 42.8593 17.5612 43.0684 17.6251 43.2638Z" fill="#F3ED99"/>
<path d="M17.8683 43.6534C17.8287 43.6612 17.7906 43.6811 17.7691 43.7123C17.7563 43.7307 17.7497 43.7521 17.744 43.7733C17.6703 44.0487 17.7307 44.3386 17.8177 44.6106C17.8393 44.6784 17.8642 44.7483 17.9173 44.7997C17.9475 44.8289 17.9906 44.8518 18.0338 44.8443C18.0988 44.8333 18.1274 44.7646 18.1418 44.7061C18.1934 44.4986 18.2148 44.2851 18.2085 44.0725C18.2055 43.9729 18.1953 43.8697 18.1405 43.7834C18.0859 43.6971 17.9755 43.6325 17.8683 43.6534Z" fill="#F3ED99"/>
<path d="M20.178 42.3269C20.0336 42.1796 19.8781 42.0342 19.682 41.9496C19.6549 41.938 19.624 41.9274 19.596 41.9368C19.5746 42.0476 19.6113 42.1627 19.673 42.2603C19.7347 42.3581 19.8204 42.4412 19.9052 42.5235C19.976 42.5921 20.0467 42.6608 20.1176 42.7295C20.18 42.7899 20.2585 42.8557 20.3484 42.8419C20.4047 42.7599 20.3991 42.6527 20.3591 42.5634C20.3191 42.4739 20.2487 42.3989 20.178 42.3269Z" fill="#F3ED99"/>
<path d="M20.7504 43.5402C20.7919 43.3718 20.6978 43.2013 20.5896 43.0596C20.5587 43.0194 20.5063 42.9751 20.4588 42.9983C20.3753 43.1644 20.3786 43.3645 20.4674 43.5282C20.4878 43.566 20.5137 43.603 20.5519 43.627C20.5901 43.6509 20.643 43.6594 20.6835 43.6386C20.7215 43.619 20.7408 43.5789 20.7504 43.5402Z" fill="#F3ED99"/>
<path d="M18.2344 46.1309C18.4322 46.1277 18.5497 45.9329 18.6166 45.7639C18.986 44.8304 19.1063 43.8165 18.9644 42.8329C18.8951 42.3514 18.7359 41.8375 18.3061 41.5484C18.4282 42.5827 18.4745 43.6245 18.445 44.6644C18.4395 44.8549 18.4315 45.0455 18.4202 45.2358C18.4022 45.5409 18.3736 45.8527 18.2344 46.1309Z" fill="#DC7029"/>
<path d="M26.4904 41.5794C26.1867 41.3826 25.7577 41.5163 25.4523 41.7111C24.7578 42.1538 24.3155 42.8683 24.1026 43.6141C23.8898 44.3598 23.8863 45.1411 23.9255 45.9106C23.9313 46.0257 23.9537 46.1631 24.0691 46.2113C24.2241 46.2759 24.3771 46.1227 24.465 45.99C24.93 45.2884 25.3952 44.5867 25.8602 43.8849C26.109 43.5098 26.3581 43.1337 26.5609 42.7367C26.6585 42.5458 26.7465 42.3454 26.7548 42.1352C26.7632 41.9251 26.6791 41.7016 26.4904 41.5794Z" fill="#EDA263"/>
<path d="M26.1402 41.6428C25.9664 41.6428 25.7528 41.7155 25.5542 41.8422C24.9527 42.2256 24.4982 42.8692 24.2738 43.6544C24.0605 44.4016 24.0653 45.1769 24.1022 45.9034C24.1095 46.0478 24.1428 46.0659 24.1432 46.0659L24.1448 46.0665C24.1666 46.0665 24.2408 46.0186 24.3143 45.9076L25.7097 43.8025C25.9518 43.437 26.2022 43.0591 26.4014 42.6695C26.4893 42.4976 26.5716 42.3132 26.5789 42.1295C26.5846 41.9898 26.5375 41.8062 26.3884 41.7098C26.3189 41.6648 26.2377 41.6428 26.1402 41.6428ZM24.1448 46.3867C24.0936 46.3867 24.0434 46.3768 23.9958 46.3569C23.7671 46.2612 23.7545 46.012 23.7497 45.9181C23.7133 45.2027 23.7067 44.3644 23.9322 43.5741C24.1775 42.7152 24.6815 42.0072 25.3514 41.5801C25.5022 41.4839 25.8052 41.3226 26.1402 41.3226C26.3113 41.3226 26.4638 41.3652 26.5934 41.4491C26.8133 41.5916 26.9429 41.8567 26.9316 42.1411C26.922 42.3815 26.8249 42.6018 26.7215 42.8041C26.5144 43.2094 26.259 43.5949 26.0119 43.9675L24.6167 46.0728C24.5388 46.19 24.3742 46.3867 24.1448 46.3867Z" fill="#292625"/>
<path d="M25.9604 42.9102C25.9986 42.7331 26.0283 42.5496 25.9866 42.3732C25.9121 42.7005 25.6708 42.9933 25.346 43.1508C25.4139 43.3931 25.4212 43.6563 25.3172 43.8878C25.2131 44.1193 24.9854 44.3125 24.7129 44.3496C24.7512 44.7782 24.6562 45.2163 24.4414 45.5996C24.8372 44.9667 25.233 44.3336 25.629 43.7005C25.702 43.5838 25.7752 43.4666 25.8301 43.3419C25.8912 43.203 25.9287 43.0568 25.9604 42.9102Z" fill="#DC7029"/>
<path d="M27.6087 41.5794C27.9124 41.3826 28.3414 41.5163 28.6468 41.7111C29.3413 42.1538 29.7836 42.8683 29.9965 43.6141C30.2094 44.3598 30.2127 45.1411 30.1737 45.9106C30.1678 46.0257 30.1454 46.1631 30.03 46.2113C29.875 46.2759 29.722 46.1227 29.6342 45.99C29.169 45.2884 28.7039 44.5867 28.2388 43.8849C27.9902 43.5098 27.741 43.1337 27.5382 42.7367C27.4406 42.5458 27.3528 42.3454 27.3443 42.1352C27.3359 41.9251 27.42 41.7016 27.6087 41.5794Z" fill="#EDA263"/>
<path d="M27.9562 41.6428C27.8588 41.6428 27.7775 41.6648 27.7079 41.7098C27.5589 41.8062 27.5118 41.9898 27.5174 42.1295C27.5247 42.3131 27.607 42.4974 27.695 42.6695C27.8945 43.0597 28.1447 43.4373 28.3867 43.8025L29.7821 45.9077C29.8554 46.0181 29.9294 46.0662 29.9513 46.0665C29.9543 46.0654 29.987 46.0462 29.9943 45.9034C30.0312 45.1771 30.0358 44.4018 29.8226 43.6544C29.5984 42.8692 29.1436 42.2256 28.5422 41.8421C28.3435 41.7156 28.13 41.6428 27.9562 41.6428ZM29.9515 46.0665V46.2266V46.0665ZM29.9515 46.3867C29.7225 46.3867 29.5575 46.19 29.4799 46.0728L28.0845 43.9675C27.8375 43.5952 27.5825 43.2101 27.375 42.8041C27.2716 42.6018 27.1745 42.3813 27.1647 42.1411C27.1535 41.8567 27.2831 41.5916 27.5031 41.4491C27.6326 41.3652 27.7851 41.3226 27.9562 41.3226C28.2911 41.3226 28.5941 41.4839 28.745 41.58C29.415 42.0073 29.919 42.7154 30.1641 43.5741C30.3898 44.3647 30.3832 45.2027 30.3468 45.9181C30.3425 46.0031 30.3294 46.2612 30.1005 46.3569C30.0529 46.3768 30.0028 46.3867 29.9515 46.3867Z" fill="#292625"/>
<path d="M28.8204 43.0276C28.7903 43.3065 28.8425 43.5924 28.9702 43.8476C29.0155 43.938 29.0715 44.0262 29.154 44.0913C29.2364 44.1565 29.3493 44.1958 29.4565 44.1762C29.4057 44.4346 29.4933 44.6982 29.6005 44.9419C29.6703 45.1 29.7486 45.2552 29.8354 45.4062C29.779 45.3834 29.7383 45.3379 29.7001 45.2939C29.5016 45.0651 29.3109 44.8309 29.1203 44.5966C29.0341 44.4909 28.948 44.385 28.8619 44.2791C28.8086 44.2138 28.7553 44.1482 28.7042 44.0815C28.3477 43.6158 28.0963 43.0841 27.9702 42.5287C27.9325 42.3633 27.9091 42.1799 28.0059 42.0357C28.2032 42.4145 28.4222 42.8155 28.8204 43.0276Z" fill="#DC7029"/>
<path d="M28.1177 43.2586C28.1177 44.4026 27.6261 46.5273 27.0197 46.5273C26.4134 46.5273 25.9219 44.4026 25.9219 43.2586C25.9219 42.1145 26.4134 41.1871 27.0197 41.1871C27.6261 41.1871 28.1177 42.1145 28.1177 43.2586Z" fill="#EDA263"/>
<path d="M27.0203 41.3473C26.5845 41.3473 26.0989 42.1322 26.0989 43.2585C26.0989 44.5369 26.6414 46.3673 27.0203 46.3673C27.3994 46.3673 27.9419 44.5369 27.9419 43.2585C27.9419 42.1322 27.4561 41.3473 27.0203 41.3473ZM27.0203 46.6875C26.1796 46.6875 25.7461 44.284 25.7461 43.2585C25.7461 42.0073 26.3059 41.027 27.0203 41.027C27.7349 41.027 28.2947 42.0073 28.2947 43.2585C28.2947 44.284 27.8611 46.6875 27.0203 46.6875Z" fill="#292625"/>
<path d="M25.0319 42.6001C25.0378 42.6739 25.0911 42.7371 25.147 42.7911C25.1953 42.8376 25.2542 42.8838 25.3246 42.8848C25.4356 42.8861 25.5058 42.7805 25.5525 42.6892C25.6129 42.5713 25.6739 42.4508 25.6899 42.3216C25.7056 42.1923 25.6686 42.0504 25.5599 41.9656C25.4132 42.0882 25.2761 42.2203 25.15 42.3604C25.0874 42.43 25.0244 42.5106 25.0319 42.6001Z" fill="#F3ED99"/>
<path d="M24.8384 42.9524C24.791 42.9605 24.7608 43.002 24.7374 43.0402C24.5274 43.3858 24.4325 43.7882 24.4683 44.1815C24.4723 44.2238 24.4848 44.2746 24.5291 44.288C24.5832 44.3043 24.63 44.2516 24.6577 44.2062C24.7672 44.0271 24.8768 43.8479 24.9863 43.6688C25.0467 43.5698 25.1089 43.4644 25.1036 43.3513C25.0982 43.2383 24.9609 42.9312 24.8384 42.9524Z" fill="#F3ED99"/>
<path d="M24.3271 45.4461C24.4151 45.2613 24.4677 45.0626 24.4818 44.8617C24.4868 44.7916 24.4866 44.719 24.4564 44.6544C24.4262 44.5898 24.3595 44.5348 24.2821 44.5336C24.2169 44.7192 24.1801 44.9129 24.1728 45.1075C24.1681 45.2308 24.1791 45.3638 24.2644 45.4599C24.2715 45.4678 24.2801 45.4759 24.2913 45.4765C24.3087 45.4776 24.3201 45.4607 24.3271 45.4461Z" fill="#F3ED99"/>
<path d="M26.375 43.2638C26.4034 43.3507 26.4576 43.4427 26.5537 43.4669C26.6478 43.4907 26.7492 43.4371 26.802 43.3626C26.8549 43.2882 26.8702 43.1972 26.8823 43.1092C26.9475 42.6381 26.9613 42.1612 26.9235 41.6875C26.9195 41.637 26.8961 41.5707 26.8405 41.5742C26.8119 41.5759 26.79 41.5972 26.7721 41.6176C26.514 41.9092 26.4019 42.2859 26.3506 42.6572C26.3225 42.8593 26.3111 43.0684 26.375 43.2638Z" fill="#F3ED99"/>
<path d="M26.6183 43.6534C26.5787 43.6612 26.5408 43.6811 26.5191 43.7123C26.5063 43.7307 26.4997 43.7521 26.494 43.7733C26.4203 44.0487 26.4807 44.3386 26.5677 44.6106C26.5894 44.6784 26.6142 44.7483 26.6674 44.7997C26.6975 44.8289 26.7406 44.8518 26.7839 44.8443C26.8488 44.8333 26.8774 44.7646 26.892 44.7061C26.9434 44.4986 26.9648 44.2851 26.9585 44.0725C26.9555 43.9729 26.9453 43.8697 26.8907 43.7834C26.8359 43.6971 26.7255 43.6325 26.6183 43.6534Z" fill="#F3ED99"/>
<path d="M28.9279 42.3269C28.7835 42.1796 28.628 42.0342 28.4319 41.9496C28.405 41.938 28.3739 41.9274 28.3461 41.9368C28.3245 42.0476 28.3612 42.1627 28.4229 42.2603C28.4846 42.3581 28.5703 42.4412 28.6551 42.5235C28.7259 42.5921 28.7968 42.6608 28.8675 42.7295C28.9299 42.7899 29.0086 42.8557 29.0984 42.8419C29.1546 42.7599 29.1491 42.6527 29.109 42.5634C29.069 42.4739 28.9986 42.3989 28.9279 42.3269Z" fill="#F3ED99"/>
<path d="M29.5003 43.5402C29.542 43.3718 29.4479 43.2013 29.3395 43.0596C29.3086 43.0194 29.2562 42.9751 29.2087 42.9983C29.1254 43.1644 29.1286 43.3645 29.2174 43.5282C29.2378 43.566 29.2637 43.603 29.3018 43.627C29.3402 43.6509 29.3929 43.6594 29.4334 43.6386C29.4716 43.619 29.4909 43.5789 29.5003 43.5402Z" fill="#F3ED99"/>
<path d="M26.9844 46.1309C27.1822 46.1277 27.2995 45.9329 27.3664 45.7639C27.7358 44.8304 27.8562 43.8165 27.7144 42.8329C27.6449 42.3514 27.4857 41.8375 27.0559 41.5484C27.178 42.5827 27.2245 43.6245 27.1948 44.6644C27.1893 44.8549 27.1814 45.0455 27.1701 45.2358C27.152 45.5409 27.1234 45.8527 26.9844 46.1309Z" fill="#DC7029"/>
<path d="M21.3177 12.4499C19.8418 11.4772 17.8204 11.57 16.0462 11.9538C14.2717 12.3377 12.528 12.973 10.704 12.9495C9.04141 12.9283 7.45037 12.3586 5.9375 11.7322C6.26494 12.8441 7.20725 13.7918 8.39235 14.2012C7.82876 14.1955 7.265 14.1896 6.70141 14.1839C7.31263 14.9663 8.04135 15.6727 8.86135 16.2776C8.43633 16.3576 7.99903 16.3833 7.56638 16.3537C7.49701 16.5969 7.7189 16.8245 7.93663 16.9797C9.54974 18.128 11.9092 18.1512 13.7624 17.3553C16.1942 16.3109 17.8488 14.0731 20.3536 13.1821C21.0078 12.9495 21.7813 12.8262 22.3889 13.1463L21.3177 12.4499Z" fill="#F2591D"/>
<path d="M11.0969 18.0605C9.88171 18.0607 8.71635 17.737 7.82831 17.1048C7.37607 16.783 7.34371 16.4965 7.39615 16.3129C7.41756 16.2378 7.49423 16.188 7.58003 16.1933C7.87195 16.2133 8.16487 16.2071 8.45463 16.1753C7.74167 15.6134 7.10489 14.9756 6.55806 14.2758C6.51973 14.2267 6.51491 14.1622 6.54578 14.1089C6.57648 14.0556 6.6354 14.024 6.70394 14.0231L7.62667 14.0325C6.72734 13.5237 6.04193 12.7043 5.76777 11.7727C5.75001 11.7129 5.77208 11.6492 5.8242 11.6091C5.87647 11.5692 5.949 11.56 6.0114 11.5856C7.49042 12.1982 9.08295 12.7679 10.7072 12.7887C12.0007 12.8071 13.2885 12.4749 14.533 12.1555C15.0145 12.032 15.5122 11.9042 16.0057 11.7973C18.3154 11.2977 20.1376 11.4733 21.4219 12.3196C21.5008 12.3716 21.5182 12.4718 21.4611 12.5433C21.4038 12.6149 21.2935 12.6308 21.2147 12.5789C20.0176 11.7897 18.2928 11.6317 16.0875 12.1089C15.6009 12.2141 15.1069 12.341 14.6291 12.4636C13.3602 12.7894 12.0493 13.1267 10.702 13.1089C9.14751 13.089 7.63944 12.5933 6.2288 12.0258C6.61714 12.942 7.44262 13.7009 8.45563 14.0508C8.53562 14.0785 8.58225 14.1541 8.56632 14.2303C8.55039 14.3065 8.47571 14.3555 8.39107 14.3606L7.05262 14.3469C7.61024 15.0164 8.25498 15.6228 8.97308 16.1526C9.02586 16.1916 9.04926 16.2546 9.03316 16.3147C9.01706 16.3748 8.96429 16.421 8.89774 16.4335C8.51853 16.505 8.13151 16.5349 7.74499 16.5222C7.79179 16.654 7.94315 16.7795 8.04604 16.8528C9.50266 17.8897 11.7698 18.0334 13.6875 17.2098C14.8148 16.7257 15.7963 15.9611 16.7456 15.2219C17.8246 14.3814 18.9404 13.5123 20.2898 13.0324C21.1632 12.7218 21.9198 12.7129 22.4779 13.0071C22.5622 13.0515 22.5909 13.1494 22.542 13.226C22.4932 13.3025 22.3852 13.3282 22.3008 13.2841C21.7173 12.9765 20.9553 13.1398 20.4185 13.3305C19.1247 13.7906 18.0321 14.6417 16.9752 15.4648C16.0084 16.218 15.0085 16.9967 13.8383 17.4993C12.9622 17.8756 12.0153 18.0605 11.0969 18.0605Z" fill="#292625"/>
<path d="M26.5516 12.4499C28.0276 11.4772 30.0488 11.57 31.8232 11.9538C33.5975 12.3377 35.3414 12.973 37.1652 12.9495C38.828 12.9283 40.4189 12.3586 41.9317 11.7322C41.6043 12.8441 40.6621 13.7918 39.4769 14.2012C40.0406 14.1955 40.6042 14.1896 41.1678 14.1839C40.5568 14.9663 39.8279 15.6727 39.008 16.2776C39.4329 16.3576 39.8702 16.3833 40.303 16.3537C40.3724 16.5969 40.1505 16.8245 39.9326 16.9797C38.3195 18.128 35.9601 18.1512 34.107 17.3553C31.6752 16.3109 30.0204 14.0731 27.5156 13.1821C26.8616 12.9495 26.088 12.8262 25.4805 13.1463L26.5516 12.4499Z" fill="#F2591D"/>
<path d="M36.7738 18.0605C35.8552 18.0605 34.9086 17.8756 34.0322 17.4993C32.862 16.9967 31.8621 16.218 30.8952 15.4648C29.8386 14.6417 28.7457 13.7906 27.4521 13.3305C26.9154 13.1396 26.1531 12.9765 25.5696 13.2841C25.4853 13.3281 25.3775 13.3023 25.3285 13.226C25.2797 13.1494 25.3083 13.0515 25.3926 13.0071C25.9507 12.7131 26.7074 12.7218 27.5807 13.0324C28.9301 13.5123 30.046 14.3814 31.1251 15.2219C32.0742 15.9611 33.0558 16.7257 34.183 17.2098C36.1008 18.0334 38.3678 17.89 39.8244 16.8528C39.9275 16.7796 40.0789 16.654 40.1257 16.5222C39.739 16.5346 39.352 16.5049 38.9729 16.4335C38.9062 16.421 38.8534 16.3748 38.8373 16.3147C38.8212 16.2546 38.8446 16.1916 38.8974 16.1526C39.6155 15.6228 40.2602 15.0164 40.8179 14.3469L39.4796 14.3606C39.3964 14.3552 39.3203 14.3065 39.3043 14.2303C39.2882 14.1541 39.335 14.0785 39.4149 14.0508C40.4279 13.7009 41.2535 12.942 41.6417 12.0258C40.231 12.5933 38.7231 13.089 37.1684 13.1089C35.8222 13.1277 34.5103 12.7893 33.2414 12.4636C32.7636 12.341 32.2695 12.2141 31.7829 12.1089C29.5779 11.6317 27.8531 11.7899 26.656 12.5789C26.5772 12.6308 26.4668 12.6149 26.4096 12.5433C26.3523 12.4718 26.3699 12.3716 26.4487 12.3196C27.7331 11.4733 29.5551 11.2975 31.8649 11.7973C32.3585 11.9042 32.8562 12.032 33.3375 12.1555C34.5822 12.4751 35.869 12.8084 37.1635 12.7887C38.7875 12.7679 40.3802 12.1982 41.8593 11.5856C41.9213 11.56 41.9942 11.5692 42.0465 11.6091C42.0986 11.6492 42.1205 11.7129 42.1029 11.7727C41.8286 12.7043 41.1431 13.5237 40.244 14.0325L41.1667 14.0231C41.2284 14.0249 41.294 14.0556 41.3249 14.1089C41.3557 14.1622 41.3509 14.2267 41.3126 14.2758C40.7658 14.9756 40.1288 15.6134 39.416 16.1753C39.7058 16.2071 39.9984 16.2133 40.2905 16.1933C40.3763 16.1877 40.4531 16.2378 40.4743 16.3129C40.5268 16.4965 40.4944 16.783 40.0422 17.1048C39.1543 17.737 37.9886 18.0605 36.7738 18.0605Z" fill="#292625"/>
<path d="M10.2006 16.8754C10.5853 17.1055 11.0548 17.2348 11.5112 17.1781C12.1493 17.0991 12.6802 16.6705 13.0131 16.1703C13.346 15.6699 13.5156 15.0971 13.7083 14.5394C13.9008 13.9817 14.1291 13.4174 14.552 12.9766C12.9236 13.7823 11.0234 14.128 9.17861 13.954C9.14658 14.2007 9.3922 14.3964 9.61276 14.5434C9.98467 14.7913 10.3566 15.0393 10.7287 15.2872C10.4349 15.2855 10.1412 15.2839 9.84742 15.2822C9.6657 15.2813 9.41228 15.3547 9.45344 15.5154C9.46672 15.5674 9.51152 15.6071 9.55501 15.6428C9.89024 15.918 10.2804 16.1379 10.7009 16.2884C10.5046 16.4417 10.1128 16.2655 9.98202 16.4684C9.88891 16.6127 10.0467 16.7835 10.2006 16.8754Z" fill="#D34B20"/>
<path d="M34.0856 13.2717C35.5691 13.9992 37.3485 14.2149 38.9903 13.8665C39.0822 14.1656 38.746 14.4187 38.4533 14.5799C38.0968 14.7763 37.7403 14.9725 37.3838 15.1689C37.5617 15.2882 37.776 15.3622 37.9962 15.3804C37.9921 15.6192 37.8244 15.8358 37.6123 15.9771C37.4004 16.1183 37.1468 16.1968 36.8977 16.2733C37.1858 16.1894 37.4343 16.5505 37.3267 16.8073C37.2192 17.064 36.9191 17.2043 36.6373 17.3044C36.1104 17.4914 35.556 17.6205 34.9915 17.6555C34.809 17.6668 34.6118 17.6645 34.462 17.5693C34.215 17.4125 34.2079 17.0893 34.2215 16.816C34.2696 15.8474 34.2412 14.8123 33.6484 14.0057L34.0856 13.2717Z" fill="#D34B20"/>
<path d="M36.422 17.3227C36.422 20.3772 33.6938 22.8535 30.3282 22.8535C26.9627 22.8535 24.2344 20.3772 24.2344 17.3227C24.2344 14.2682 26.9627 11.7919 30.3282 11.7919C33.6938 11.7919 36.422 14.2682 36.422 17.3227Z" fill="#523B1A"/>
<path d="M35.6081 17.503C35.6081 20.2704 33.1363 22.5137 30.0873 22.5137C27.0382 22.5137 24.5664 20.2704 24.5664 17.503C24.5664 14.7357 27.0382 12.4923 30.0873 12.4923C33.1363 12.4923 35.6081 14.7357 35.6081 17.503Z" fill="#D1B86C"/>
<path d="M31.1977 21.2142C28.5653 21.2142 26.2997 19.7896 25.2852 17.7435C25.3456 19.3808 26.445 20.9111 28.2263 21.5645C29.8042 22.1434 31.5248 21.8903 32.7986 21.0331C32.2866 21.1512 31.7502 21.2142 31.1977 21.2142Z" fill="#D4C18D"/>
<path d="M11.5391 17.3227C11.5391 20.3772 14.2674 22.8535 17.6329 22.8535C20.9983 22.8535 23.7267 20.3772 23.7267 17.3227C23.7267 14.2682 20.9983 11.7919 17.6329 11.7919C14.2674 11.7919 11.5391 14.2682 11.5391 17.3227Z" fill="#523B1A"/>
<path d="M12.3555 17.503C12.3555 20.2704 14.8272 22.5137 17.8764 22.5137C20.9254 22.5137 23.3972 20.2704 23.3972 17.503C23.3972 14.7357 20.9254 12.4923 17.8764 12.4923C14.8272 12.4923 12.3555 14.7357 12.3555 17.503Z" fill="#D1B86C"/>
<path d="M12.3555 17.503C12.3555 20.2704 14.8272 22.5137 17.8764 22.5137C20.9254 22.5137 23.3972 20.2704 23.3972 17.503C23.3972 14.7357 20.9254 12.4923 17.8764 12.4923C14.8272 12.4923 12.3555 14.7357 12.3555 17.503Z" fill="#D1B86C"/>
<path d="M12.8828 17.5026C12.8828 20.0047 15.1178 22.0332 17.8747 22.0332C20.6316 22.0332 22.8665 20.0047 22.8665 17.5026C22.8665 15.0004 20.6316 12.9719 17.8747 12.9719C15.1178 12.9719 12.8828 15.0004 12.8828 17.5026Z" fill="#F3ED99"/>
<path d="M15.4844 17.5015C15.4844 18.7002 16.555 19.6719 17.8757 19.6719C19.1962 19.6719 20.2668 18.7002 20.2668 17.5015C20.2668 16.3029 19.1962 15.3312 17.8757 15.3312C16.555 15.3312 15.4844 16.3029 15.4844 17.5015Z" fill="#D4C18D"/>
<path d="M16.1445 17.502C16.1445 18.3693 16.9191 19.0723 17.8746 19.0723C18.8301 19.0723 19.6046 18.3693 19.6046 17.502C19.6046 16.6349 18.8301 15.9317 17.8746 15.9317C16.9191 15.9317 16.1445 16.6349 16.1445 17.502Z" fill="#2E2227"/>
<path d="M17.875 17.0419C17.875 17.296 18.1019 17.502 18.3818 17.502C18.6618 17.502 18.8887 17.296 18.8887 17.0419C18.8887 16.7878 18.6618 16.5818 18.3818 16.5818C18.1019 16.5818 17.875 16.7878 17.875 17.0419Z" fill="white"/>
<path d="M16.4283 14.1334C16.8393 14.4905 16.6061 15.317 15.9074 15.9793C15.2087 16.6416 14.3092 16.8889 13.8981 16.5318C13.4872 16.1747 13.7204 15.3482 14.4191 14.6859C15.1176 14.0236 16.0173 13.7763 16.4283 14.1334Z" fill="white"/>
<path d="M16.7612 21.2142C19.3934 21.2142 21.6591 19.7896 22.6736 17.7435C22.6132 19.3808 21.5137 20.9111 19.7325 21.5645C18.1545 22.1434 16.4341 21.8903 15.1602 21.0331C15.6721 21.1512 16.2085 21.2142 16.7612 21.2142Z" fill="#D4C18D"/>
<path d="M24.9702 18.0342C24.8179 17.8824 24.64 17.7459 24.4319 17.6989C24.2299 17.6531 23.9964 17.7105 23.8714 17.8769C23.7468 17.7102 23.5135 17.6524 23.3115 17.6977C23.1032 17.7442 22.925 17.8804 22.7721 18.0318C21.9586 18.8378 21.7351 20.1115 21.9204 21.2521C22.106 22.3928 22.643 23.4377 23.1726 24.4601C23.2116 24.5356 23.5425 25.0036 23.8681 25.0039C24.1937 25.0042 24.5142 24.537 24.5534 24.4615C25.0854 23.4403 25.6253 22.3966 25.8136 21.2562C26.0022 20.116 25.7818 18.8419 24.9702 18.0342Z" fill="#2D1615"/>
<path d="M23.2482 17.8979C23.0961 17.9229 22.9829 18.0415 22.8909 18.1582C22.2371 18.9878 22.0256 20.0701 22.1061 21.1C22.1954 22.2415 22.6252 23.3576 23.3337 24.2879C23.4563 24.449 23.6348 24.6226 23.8409 24.5819C24.0774 24.5352 24.1479 24.2547 24.1696 24.0283C24.35 22.1558 24.4835 20.2212 23.8498 18.4381C23.8017 18.3028 23.7473 18.1656 23.6487 18.0571C23.5501 17.9488 23.3976 17.8732 23.2482 17.8979Z" fill="#EE8B40"/>
<path d="M24.3061 17.8965C24.0989 17.9417 24.0014 18.1529 23.94 18.338C23.3103 20.2357 23.2159 22.2776 23.6681 24.2164C23.7002 24.3535 23.7557 24.512 23.9023 24.5556C24.086 24.6105 24.2536 24.4455 24.357 24.2973C25.2975 22.9495 25.7232 21.3119 25.5458 19.7246C25.4759 19.0981 25.2836 18.4324 24.7465 18.0334C24.622 17.9409 24.4626 17.8625 24.3061 17.8965Z" fill="#F2591D"/>
<path d="M24.3539 21.5148C24.3539 23.0514 24.1146 24.2969 23.8195 24.2969C23.5245 24.2969 23.2852 23.0514 23.2852 21.5148C23.2852 19.9783 23.5245 18.7328 23.8195 18.7328C24.1146 18.7328 24.3539 19.9783 24.3539 21.5148Z" fill="#F3DE3E"/>
<path d="M23.892 20.5884C24.0109 20.5549 24.0585 20.4268 24.0764 20.315C24.1332 19.9619 24.0656 19.5935 23.8862 19.2761C23.5983 19.5287 23.4831 19.9202 23.5495 20.2785C23.5646 20.3606 23.59 20.4441 23.6483 20.5084C23.7065 20.5726 23.8044 20.6131 23.892 20.5884Z" fill="white"/>
<path d="M23.9881 21.4764C23.9262 21.2624 23.8643 21.0483 23.8023 20.8344C23.6709 21.0516 23.6113 21.3042 23.6334 21.5513C23.6395 21.6196 23.6527 21.6901 23.6955 21.7466C23.7383 21.8033 23.8176 21.842 23.8903 21.8234C23.961 21.8055 24.0061 21.7392 24.0159 21.6733C24.0256 21.6071 24.0068 21.5407 23.9881 21.4764Z" fill="white"/>
<path d="M34.2546 18.0723C34.2088 18.0723 34.1628 18.0561 34.1283 18.0239C32.9621 16.9391 31.3354 16.3006 29.6655 16.2723C27.995 16.2423 26.344 16.8271 25.134 17.8719C25.0631 17.9329 24.9518 17.9304 24.8846 17.8664C24.8174 17.8022 24.8202 17.7008 24.8907 17.64C26.1674 16.5375 27.9068 15.9233 29.6721 15.9521C31.4339 15.982 33.1503 16.6556 34.3809 17.8004C34.4489 17.8637 34.4476 17.965 34.3777 18.0268C34.3435 18.0571 34.299 18.0723 34.2546 18.0723Z" fill="#292625"/>
<path d="M32.8756 16.9434C32.8358 16.9434 32.7958 16.9313 32.7627 16.9063C32.6879 16.8498 32.6778 16.7487 32.74 16.6808L33.9623 15.3484C34.0245 15.2805 34.1359 15.2713 34.2107 15.3278C34.2856 15.3844 34.2957 15.4853 34.2334 15.5532L33.0112 16.8857C32.9763 16.9238 32.926 16.9434 32.8756 16.9434Z" fill="#292625"/>
<path d="M30.8522 16.3574C30.8286 16.3574 30.8046 16.353 30.7817 16.3439C30.6924 16.3086 30.6516 16.2142 30.6906 16.1331L31.3327 14.7971C31.3717 14.7161 31.4757 14.6789 31.565 14.7144C31.6543 14.7498 31.6949 14.8441 31.6559 14.9251L31.0139 16.2612C30.985 16.3214 30.9201 16.3574 30.8522 16.3574Z" fill="#292625"/>
<path d="M28.8601 16.2676C28.858 16.2676 28.8558 16.2676 28.8536 16.2676C28.7562 16.2643 28.6802 16.1902 28.6837 16.1017L28.7368 14.7621C28.7403 14.6737 28.8166 14.6045 28.9194 14.6077C29.0168 14.611 29.093 14.6853 29.0895 14.7735L29.0364 16.1133C29.0329 16.1996 28.9546 16.2676 28.8601 16.2676Z" fill="#292625"/>
<path d="M27.1174 16.75C27.0671 16.75 27.0173 16.7306 26.9825 16.6931C26.6693 16.3561 26.4396 15.9524 26.3182 15.5256C26.2938 15.44 26.3505 15.3527 26.4448 15.3305C26.5385 15.3087 26.6353 15.3599 26.6597 15.4456C26.7681 15.8262 26.9729 16.1862 27.2522 16.4866C27.3149 16.5542 27.3054 16.6553 27.2311 16.7122C27.1979 16.7377 27.1576 16.75 27.1174 16.75Z" fill="#292625"/>
<path d="M16.6439 32.6327C15.5967 30.9651 14.3468 29.4086 13.2764 27.7532C12.206 26.0977 11.3057 24.3099 11.0504 22.4044C10.7427 25.6466 12.3157 28.7866 14.1406 31.5878C14.662 32.3884 15.374 33.2682 16.3982 33.2945C16.4902 33.2968 16.5878 33.2902 16.6634 33.2426C16.8667 33.1147 16.7663 32.8278 16.6439 32.6327Z" fill="#D34B20"/>
<path d="M31.8375 33.6733C32.2357 33.941 32.7664 33.5628 33.0674 33.2055C35.5367 30.2743 36.9051 26.5929 36.8964 22.9031C35.7819 25.7499 34.1087 28.3837 32.4959 31.0265C32.1417 31.607 31.7856 32.1998 31.6377 32.8494C31.5715 33.1409 31.5742 33.496 31.8375 33.6733Z" fill="#D34B20"/>
<path d="M37.4405 26.8687C37.3349 27.6606 36.9569 28.3982 36.584 29.1203C36.2436 29.7794 35.9031 30.4385 35.5627 31.0977C35.3677 31.4751 35.1677 31.8823 35.2427 32.2936C35.3751 32.3542 35.5305 32.2718 35.6455 32.1867C36.3228 31.686 36.7921 30.9778 37.0585 30.2225C37.3246 29.4674 37.4655 27.6613 37.4405 26.8687Z" fill="#D34B20"/>
<path d="M37.9997 30.9865C38.1101 31.0738 38.293 31.035 38.3932 30.9381C38.4934 30.8413 38.5309 30.7054 38.5597 30.5751C38.7777 29.5851 38.7042 28.5435 38.3484 27.5869C38.3715 28.6461 37.7982 29.6711 37.8935 30.7268C37.902 30.8213 37.9209 30.9243 37.9997 30.9865Z" fill="#D34B20"/>
<path d="M10.6484 26.9186C11.0907 28.6552 12.1266 30.2099 13.0986 31.7587C13.257 32.0111 13.4188 32.2798 13.4143 32.5702C13.4098 32.8608 13.1708 33.1696 12.8509 33.164C12.7292 33.1619 12.6137 33.1161 12.5073 33.0625C11.5234 32.5675 11.1556 31.4621 10.9749 30.4542C10.8245 29.6166 10.7414 28.7691 10.7261 27.9204L10.6484 26.9186Z" fill="#D34B20"/>
<path d="M8.84341 28.4412C9.0497 27.8309 9.30777 27.235 9.61462 26.6605C9.68582 27.564 9.75685 28.4674 9.82804 29.3709C9.85161 29.6704 9.87318 29.9819 9.75054 30.2609C9.71469 30.3424 9.66507 30.4218 9.58857 30.4755C9.44617 30.5757 9.23425 30.5643 9.08024 30.4793C8.92623 30.3944 8.82333 30.2492 8.75562 30.0975C8.52229 29.5747 8.66119 28.9806 8.84341 28.4412Z" fill="#D34B20"/>
<path d="M19.508 33.2847C19.4373 33.3044 19.182 32.7359 18.9379 32.0149C18.6936 31.2939 18.5531 30.6933 18.6238 30.6736C18.6944 30.6538 18.9499 31.2225 19.194 31.9433C19.4381 32.6644 19.5788 33.2649 19.508 33.2847Z" fill="#292625"/>
<path d="M20.4683 33.1939C20.4357 33.2071 20.3607 33.1292 20.2779 32.983C20.1978 32.8363 20.1193 32.6186 20.0846 32.3695C20.0545 32.1198 20.0753 31.8914 20.1158 31.7319C20.1589 31.5722 20.212 31.4807 20.2469 31.4867C20.2847 31.4932 20.2982 31.5938 20.3043 31.7477C20.3133 31.9024 20.3234 32.1113 20.3506 32.341C20.3828 32.5701 20.4264 32.7756 20.4573 32.9279C20.4907 33.0789 20.5033 33.1797 20.4683 33.1939Z" fill="#292625"/>
<path d="M14.4951 40.7233C14.4715 40.7458 14.3168 40.6515 14.1046 40.4584C13.8971 40.2621 13.6469 39.9557 13.4481 39.5784C13.258 39.1973 13.1609 38.8263 13.1291 38.5558C13.103 38.2841 13.1231 38.116 13.1571 38.114C13.1968 38.1112 13.2439 38.2722 13.3155 38.5242C13.3928 38.7759 13.5123 39.1163 13.691 39.4758C13.8789 39.8313 14.089 40.1336 14.2513 40.3495C14.4176 40.5614 14.523 40.6977 14.4951 40.7233Z" fill="#292625"/>
<path d="M15.8217 39.8216C15.7665 39.8534 15.5394 39.5953 15.4634 39.2034C15.406 38.8089 15.5371 38.5009 15.6003 38.5161C15.6813 38.5315 15.678 38.8216 15.7283 39.1664C15.7945 39.509 15.8938 39.7848 15.8217 39.8216Z" fill="#292625"/>
<path d="M27.3477 39.7242C27.2759 39.7083 27.3501 39.2028 27.5137 38.5951C27.6772 37.9874 27.868 37.5078 27.9399 37.5237C28.0117 37.5396 27.9376 38.0451 27.7739 38.6528C27.6105 39.2605 27.4196 39.7402 27.3477 39.7242Z" fill="#292625"/>
<path d="M28.9781 39.3153C28.9081 39.2936 28.9697 38.9598 29.1157 38.5694C29.2618 38.1791 29.4368 37.8803 29.5069 37.9018C29.5769 37.9235 29.5153 38.2575 29.3693 38.6477C29.2234 39.038 29.0482 39.3369 28.9781 39.3153Z" fill="#292625"/>
<path d="M33.2883 38.9132C33.3216 38.9212 33.312 39.0658 33.242 39.2899C33.1671 39.5118 33.0158 39.8076 32.781 40.0944C32.5393 40.3763 32.2658 40.588 32.0501 40.7125C31.8308 40.8338 31.68 40.8809 31.6626 40.854C31.642 40.8234 31.7552 40.7253 31.9339 40.5768C32.11 40.4241 32.3425 40.2093 32.5677 39.9472C32.7858 39.6802 32.9516 39.4193 33.0667 39.2245C33.1766 39.0286 33.2504 38.9034 33.2883 38.9132Z" fill="#292625"/>
<path d="M30.5361 23.847C30.5414 23.877 30.3333 23.9347 29.9841 23.9691C29.6349 23.9969 29.1435 23.9783 28.62 23.8614C28.0995 23.7336 27.6597 23.5338 27.369 23.3563C27.0817 23.1726 26.9305 23.0306 26.9511 23.0068C26.9753 22.9773 27.1647 23.0686 27.4639 23.2074C27.7679 23.3409 28.1943 23.5046 28.687 23.626C29.1829 23.7363 29.6432 23.7804 29.9803 23.7973C30.3164 23.8072 30.5306 23.8107 30.5361 23.847Z" fill="#292625"/>
<path d="M32.0885 24.6681C32.0993 24.6984 31.9582 24.7704 31.7125 24.8461C31.4662 24.9184 31.112 24.9837 30.7154 24.9987C30.3184 25.0081 29.9603 24.9645 29.7092 24.9075C29.4582 24.8469 29.3122 24.7838 29.3207 24.7528C29.3296 24.7186 29.4893 24.7219 29.738 24.7375C29.988 24.7499 30.3292 24.7642 30.7062 24.7556C31.0831 24.7412 31.4225 24.7059 31.671 24.6784C31.9181 24.6475 32.0771 24.6345 32.0885 24.6681Z" fill="#292625"/>
<path d="M16.9297 24.1639C16.931 24.1284 17.0827 24.1028 17.3195 24.0699C17.5567 24.0327 17.8785 23.9758 18.2252 23.8812C18.5694 23.7798 18.8697 23.6605 19.088 23.5685C19.3032 23.4733 19.4441 23.4159 19.4675 23.4444C19.4886 23.4695 19.3859 23.5774 19.1851 23.7162C18.9823 23.8512 18.6731 24.0053 18.305 24.1133C17.9346 24.2147 17.5837 24.2476 17.3323 24.2415C17.0801 24.2311 16.928 24.1954 16.9297 24.1639Z" fill="#292625"/>
<path d="M15.6016 25.3759C15.5963 25.2996 16.2068 25.2112 16.9359 25.0305C17.6593 24.8325 18.2284 24.6132 18.2685 24.6804C18.3011 24.7301 17.766 25.0571 17.0099 25.2642C16.2478 25.4531 15.6031 25.4338 15.6016 25.3759Z" fill="#292625"/>
</g>
<defs>
<clipPath id="clip0_2446_19241">
<rect width="47" height="49" fill="white"/>
</clipPath>
</defs>
</svg>
