<svg width="21" height="21" viewBox="0 0 21 21" fill="none" xmlns="http://www.w3.org/2000/svg">
<path d="M20.3913 10.5002C20.3913 15.9634 15.9626 20.3921 10.4991 20.3921C5.03609 20.3921 0.607422 15.9634 0.607422 10.5002C0.607422 5.0372 5.03609 0.607986 10.4991 0.607986C15.9626 0.607986 20.3913 5.0372 20.3913 10.5002Z" fill="#EFEFEF"/>
<path d="M18.324 10.5001C18.324 14.8213 14.8208 18.3245 10.4994 18.3245C6.17799 18.3245 2.6748 14.8213 2.6748 10.5001C2.6748 6.17872 6.17799 2.67554 10.4994 2.67554C14.8208 2.67554 18.324 6.17872 18.324 10.5001Z" fill="white"/>
<path d="M9.67612 14.2728C9.53955 14.2728 9.42871 14.3837 9.42871 14.5202V15.5856C9.42871 15.7222 9.53955 15.833 9.67612 15.833C9.81269 15.833 9.92353 15.7222 9.92353 15.5856V14.5202C9.92353 14.3837 9.81269 14.2728 9.67612 14.2728Z" fill="white"/>
<path d="M11.3236 14.2728C11.187 14.2728 11.0762 14.3837 11.0762 14.5202V15.5856C11.0762 15.7222 11.187 15.833 11.3236 15.833C11.4602 15.833 11.571 15.7222 11.571 15.5856V14.5202C11.571 14.3837 11.4602 14.2728 11.3236 14.2728Z" fill="white"/>
<path d="M11.145 13.0999H9.85449V12.555C9.85449 12.1988 10.1435 11.9098 10.4997 11.9098C10.856 11.9098 11.145 12.1988 11.145 12.555V13.0999Z" fill="white"/>
<path d="M3.68936 3.32627C3.56958 3.43957 3.4525 3.55612 3.33865 3.67536C3.33865 3.6759 3.33919 3.67644 3.33919 3.67644L4.0077 4.34441C4.05572 4.39297 4.11885 4.41725 4.18252 4.41725C4.24565 4.41725 4.30932 4.39297 4.35788 4.34441C4.45392 4.24783 4.45392 4.09136 4.35788 3.99478L3.68936 3.32627ZM4.0077 16.6285L3.33919 17.2965C3.33487 17.3014 3.3311 17.3069 3.32678 17.3118C3.43901 17.4306 3.55501 17.5464 3.67318 17.6597C3.67857 17.6548 3.68397 17.6513 3.68936 17.6463L4.35788 16.9783C4.45392 16.8813 4.45392 16.7249 4.35788 16.6285C4.26076 16.5315 4.10428 16.5315 4.0077 16.6285ZM10.4991 19.1724C10.3626 19.1724 10.252 19.2832 10.252 19.4198V20.3644C10.252 20.3728 10.2536 20.3807 10.2541 20.3891C10.3356 20.3911 10.4171 20.3921 10.4991 20.3921C10.5811 20.3921 10.6626 20.3911 10.7441 20.3891C10.7451 20.3807 10.7468 20.3728 10.7468 20.3644V19.4198C10.7468 19.2832 10.6361 19.1724 10.4991 19.1724ZM16.991 16.6285C16.8944 16.5315 16.7374 16.5315 16.6409 16.6285C16.5448 16.7249 16.5448 16.8813 16.6409 16.9783L17.3088 17.6463C17.3148 17.6513 17.3202 17.6548 17.3256 17.6597C17.4437 17.5464 17.5592 17.4306 17.6719 17.3118C17.6671 17.3069 17.6639 17.3014 17.659 17.2965L16.991 16.6285ZM20.3881 10.2401C20.3843 10.2401 20.3811 10.2391 20.3773 10.2391H19.4331C19.296 10.2391 19.1854 10.3497 19.1854 10.4862C19.1854 10.6232 19.296 10.7338 19.4331 10.7338H20.3773C20.3816 10.7338 20.3848 10.7327 20.3881 10.7327C20.3902 10.6556 20.3913 10.5779 20.3913 10.5002C20.3913 10.4133 20.3902 10.3265 20.3881 10.2401ZM1.56568 10.2391H0.621453C0.617677 10.2391 0.614439 10.2401 0.610662 10.2401C0.608504 10.3265 0.607422 10.4133 0.607422 10.5002C0.607422 10.5779 0.608501 10.6556 0.61012 10.7327C0.613897 10.7327 0.617137 10.7338 0.621453 10.7338H1.56568C1.70218 10.7338 1.81333 10.6232 1.81333 10.4862C1.81333 10.3497 1.70218 10.2391 1.56568 10.2391ZM10.252 0.611221V1.55329C10.252 1.6898 10.3626 1.8004 10.4991 1.8004C10.6361 1.8004 10.7468 1.6898 10.7468 1.55329V0.611221C10.6647 0.609602 10.5822 0.607986 10.4991 0.607986C10.4165 0.607986 10.334 0.609602 10.252 0.611221ZM16.8162 4.41725C16.8793 4.41725 16.943 4.39297 16.991 4.34441L17.659 3.67644C17.6595 3.6759 17.6595 3.6759 17.6601 3.67536C17.5462 3.55612 17.4291 3.43957 17.3094 3.32627C17.3094 3.32627 17.3094 3.32627 17.3088 3.32627L16.6409 3.99478C16.5448 4.09136 16.5448 4.24783 16.6409 4.34441C16.6894 4.39297 16.7531 4.41725 16.8162 4.41725Z" fill="white"/>
<path d="M19.8736 13.739C19.7432 13.6933 19.5975 13.7562 19.5493 13.8795C19.5022 13.9992 19.4518 14.1198 19.3997 14.238C19.3455 14.3593 19.4063 14.4987 19.5345 14.5495C19.5663 14.5621 19.5997 14.5681 19.632 14.5681C19.7306 14.5681 19.8243 14.5131 19.8642 14.422C19.9201 14.2977 19.9727 14.1709 20.0226 14.0449C20.0708 13.9217 20.0039 13.7847 19.8736 13.739Z" fill="white"/>
<path d="M17.6645 3.332C17.6623 3.33037 17.6612 3.32821 17.6601 3.32658C17.6574 3.32442 17.6553 3.3228 17.6526 3.32063C15.8178 1.49234 13.2888 0.360956 10.5001 0.360956C7.71085 0.360956 5.18187 1.49234 3.34708 3.32063C3.34492 3.3228 3.34222 3.32442 3.34005 3.32658C3.33843 3.32821 3.33681 3.33037 3.33518 3.332C1.49878 5.1684 0.360352 7.70388 0.360352 10.5002C0.360352 16.091 4.90863 20.6394 10.5001 20.6394C13.9083 20.6394 17.0693 18.9416 18.9555 16.0977C19.0312 15.9839 18.9998 15.8303 18.8862 15.7549C18.7726 15.6792 18.6184 15.7104 18.5432 15.8242C18.2304 16.2958 17.8804 16.7332 17.4989 17.1355L16.9914 16.6284C16.8951 16.5314 16.7387 16.5314 16.6418 16.6284C16.545 16.7248 16.545 16.8812 16.6418 16.9782L17.1499 17.4863C15.4342 19.1213 13.1633 20.0792 10.7474 20.1406V19.4197C10.7474 19.2831 10.6364 19.1722 10.5001 19.1722C10.3632 19.1722 10.2523 19.2831 10.2523 19.4197V20.1416C7.77632 20.0787 5.5287 19.0782 3.85353 17.4824L4.35835 16.9782C4.45467 16.8812 4.45467 16.7248 4.35835 16.6284C4.26096 16.5314 4.10459 16.5314 4.00828 16.6284L3.504 17.1321C1.91324 15.455 0.917117 13.2083 0.85814 10.7339H1.56641C1.70276 10.7339 1.81368 10.623 1.81368 10.4861C1.81368 10.3497 1.70276 10.2388 1.56641 10.2388H0.858685C0.925237 7.76827 1.9246 5.52606 3.51752 3.85359L4.00828 4.34434C4.05643 4.3925 4.11974 4.41685 4.18304 4.41685C4.24635 4.41685 4.30966 4.3925 4.35835 4.34434C4.45467 4.24803 4.45467 4.09113 4.35835 3.99427L3.8676 3.50406C5.54168 1.91654 7.78336 0.920969 10.2523 0.858746V1.55294C10.2523 1.68929 10.3632 1.80022 10.5001 1.80022C10.6364 1.80022 10.7474 1.68929 10.7474 1.55294V0.858746C13.2163 0.920969 15.458 1.91654 17.132 3.50406L16.6418 3.99427C16.545 4.09113 16.545 4.24803 16.6418 4.34434C16.69 4.3925 16.7533 4.41685 16.8166 4.41685C16.8799 4.41685 16.9432 4.3925 16.9914 4.34434L17.4821 3.85359C19.075 5.52606 20.075 7.76827 20.141 10.2388H19.4332C19.2963 10.2388 19.186 10.3497 19.186 10.4861C19.186 10.623 19.2963 10.7339 19.4332 10.7339H20.1415C20.1291 11.2631 20.0733 11.7917 19.9754 12.3076C19.95 12.4418 20.0382 12.5713 20.1723 12.5967C20.3065 12.6221 20.4359 12.534 20.4618 12.3998C20.5792 11.7777 20.6393 11.1386 20.6393 10.5002C20.6393 7.70388 19.5014 5.1684 17.6645 3.332Z" fill="white"/>
<path d="M10.4995 18.077C6.32146 18.077 2.92231 14.6779 2.92231 10.4996C2.92231 6.32164 6.32146 2.92301 10.4995 2.92301C14.6775 2.92301 18.0771 6.32164 18.0771 10.4996C18.0771 14.6779 14.6775 18.077 10.4995 18.077ZM10.4995 2.42791C6.04881 2.42791 2.42773 6.04899 2.42773 10.4996C2.42773 14.9508 6.04881 18.5718 10.4995 18.5718C14.9506 18.5718 18.5717 14.9508 18.5717 10.4996C18.5717 6.04899 14.9506 2.42791 10.4995 2.42791Z" fill="white"/>
<path d="M10.4912 0.74292C15.9583 0.74292 20.3876 5.14186 20.3877 10.5652C20.3877 15.9886 15.9584 20.3884 10.4912 20.3884C5.02419 20.3883 0.595703 15.9885 0.595703 10.5652C0.595787 5.14197 5.02425 0.743096 10.4912 0.74292Z" stroke="white" stroke-width="0.469852"/>
<path d="M8.5945 9.11796C8.79413 9.11796 8.98559 9.03866 9.12675 8.8975C9.2679 8.75634 9.34721 8.56488 9.34721 8.36525C9.34721 8.16562 9.2679 7.97417 9.12675 7.83301C8.98559 7.69185 8.79413 7.61255 8.5945 7.61255C8.39487 7.61255 8.20342 7.69185 8.06226 7.83301C7.9211 7.97417 7.8418 8.16562 7.8418 8.36525C7.8418 8.56488 7.9211 8.75634 8.06226 8.8975C8.20342 9.03866 8.39487 9.11796 8.5945 9.11796ZM13.3045 8.36525C13.3045 8.56488 13.2252 8.75634 13.084 8.8975C12.9429 9.03866 12.7514 9.11796 12.5518 9.11796C12.3522 9.11796 12.1607 9.03866 12.0196 8.8975C11.8784 8.75634 11.7991 8.56488 11.7991 8.36525C11.7991 8.16562 11.8784 7.97417 12.0196 7.83301C12.1607 7.69185 12.3522 7.61255 12.5518 7.61255C12.7514 7.61255 12.9429 7.69185 13.084 7.83301C13.2252 7.97417 13.3045 8.16562 13.3045 8.36525Z" fill="white"/>
<path d="M8.62012 5.30444C9.04646 5.30444 9.43896 5.44581 9.75684 5.68042H11.3291C11.647 5.44574 12.0394 5.30445 12.4658 5.30444H14.7666V5.49976C14.7666 5.9301 14.6248 6.32162 14.3887 6.64038C14.6916 7.04172 14.8749 7.5392 14.875 8.07788C14.875 8.64322 14.759 9.1048 14.543 9.47827C14.7389 9.97255 14.8486 10.5105 14.8486 11.074C14.8486 12.6011 14.057 13.9417 12.8643 14.7126C13.008 14.9865 13.1088 15.2872 13.1484 15.6072C13.1998 16.0223 12.8547 16.3152 12.5068 16.3152H8.58301C8.23515 16.3151 7.89098 16.0223 7.94238 15.6072C7.98079 15.2976 8.07432 15.0056 8.21094 14.739C7.6194 14.3668 7.12473 13.8585 6.77246 13.2527C6.3879 12.5912 6.1852 11.8391 6.18555 11.074C6.18558 10.4884 6.30245 9.92988 6.51367 9.41968C6.3186 9.05664 6.21484 8.61357 6.21484 8.07788C6.21494 7.53943 6.39754 7.04163 6.7002 6.64038C6.45665 6.31149 6.32358 5.91189 6.32324 5.49976V5.30444H8.62012ZM12.1904 15.0691C11.9321 15.1774 11.6614 15.2612 11.3809 15.3181C11.1748 15.3982 10.9596 15.4509 10.7402 15.4724L10.5137 15.4841C10.2107 15.4841 9.91763 15.4238 9.64062 15.3171C9.38064 15.2635 9.12966 15.1856 8.88867 15.0876C8.81458 15.2325 8.76041 15.3882 8.72656 15.5515H12.3633C12.3283 15.3832 12.2702 15.2213 12.1904 15.0691ZM7.57129 10.3816C7.51921 10.5922 7.49299 10.8086 7.49316 11.0261C7.49316 11.8121 7.83357 12.7183 8.39258 13.4275C8.95205 14.1372 9.70529 14.6199 10.5137 14.6199C11.3219 14.6197 12.0744 14.137 12.6338 13.4275C13.1928 12.7183 13.5332 11.8121 13.5332 11.0261C13.5332 10.814 13.5078 10.6076 13.4609 10.4089C12.7059 10.7473 11.7205 10.823 10.6846 10.823H10.4053C9.34339 10.823 8.33435 10.7433 7.57129 10.3816ZM8.59473 7.33862C8.32242 7.33862 8.06072 7.44685 7.86816 7.6394C7.67575 7.83188 7.56745 8.09284 7.56738 8.36499C7.56738 8.6373 7.67561 8.899 7.86816 9.09155C8.06071 9.28404 8.32247 9.39233 8.59473 9.39233C8.86681 9.39221 9.12788 9.28392 9.32031 9.09155C9.51286 8.899 9.62109 8.6373 9.62109 8.36499C9.62102 8.09283 9.51274 7.83188 9.32031 7.6394C9.12787 7.44696 8.86687 7.33875 8.59473 7.33862ZM12.5518 7.33862C12.2794 7.33862 12.0177 7.44685 11.8252 7.6394C11.6329 7.83187 11.5245 8.0929 11.5244 8.36499C11.5244 8.63728 11.6327 8.899 11.8252 9.09155C12.0177 9.2841 12.2795 9.39233 12.5518 9.39233C12.8239 9.39228 13.0849 9.2839 13.2773 9.09155C13.4699 8.899 13.5781 8.6373 13.5781 8.36499C13.5781 8.09278 13.4698 7.83189 13.2773 7.6394C13.0848 7.44692 12.824 7.33868 12.5518 7.33862ZM10.5752 9.04175C10.4348 9.04227 10.3132 9.11909 10.2461 9.23218H10.9043C10.838 9.11978 10.7171 9.04369 10.5752 9.04175Z" fill="#262626" stroke="white" stroke-width="0.390952"/>
<path d="M11.9602 15.4107L12.1804 15.2639L9.09702 15.4107L8.9502 15.2639" stroke="white" stroke-width="0.146829"/>
</svg>
