<svg width="24" height="11" viewBox="0 0 24 11" fill="none" xmlns="http://www.w3.org/2000/svg">
<path fill-rule="evenodd" clip-rule="evenodd" d="M5.41667 2.16667C4.55471 2.16667 3.72806 2.50908 3.11857 3.11857C2.50908 3.72806 2.16667 4.55471 2.16667 5.41667C2.16667 6.27862 2.50908 7.10527 3.11857 7.71476C3.72806 8.32426 4.55471 8.66667 5.41667 8.66667H8.66667C8.95399 8.66667 9.22954 8.7808 9.4327 8.98397C9.63586 9.18713 9.75 9.46268 9.75 9.75C9.75 10.0373 9.63586 10.3129 9.4327 10.516C9.22954 10.7192 8.95399 10.8333 8.66667 10.8333H5.41667C3.98008 10.8333 2.60233 10.2626 1.5865 9.24683C0.570683 8.23101 0 6.85326 0 5.41667C0 3.98008 0.570683 2.60233 1.5865 1.5865C2.60233 0.570683 3.98008 0 5.41667 0H8.66667C8.95399 0 9.22954 0.114137 9.4327 0.317301C9.63586 0.520466 9.75 0.796015 9.75 1.08333C9.75 1.37065 9.63586 1.6462 9.4327 1.84937C9.22954 2.05253 8.95399 2.16667 8.66667 2.16667H5.41667ZM6.5 5.41667C6.5 5.12935 6.61414 4.8538 6.8173 4.65063C7.02047 4.44747 7.29602 4.33333 7.58333 4.33333H16.25C16.5373 4.33333 16.8129 4.44747 17.016 4.65063C17.2192 4.8538 17.3333 5.12935 17.3333 5.41667C17.3333 5.70398 17.2192 5.97953 17.016 6.1827C16.8129 6.38586 16.5373 6.5 16.25 6.5H7.58333C7.29602 6.5 7.02047 6.38586 6.8173 6.1827C6.61414 5.97953 6.5 5.70398 6.5 5.41667ZM15.1667 0C14.8793 0 14.6038 0.114137 14.4006 0.317301C14.1975 0.520466 14.0833 0.796015 14.0833 1.08333C14.0833 1.37065 14.1975 1.6462 14.4006 1.84937C14.6038 2.05253 14.8793 2.16667 15.1667 2.16667H18.4167C19.2786 2.16667 20.1053 2.50908 20.7148 3.11857C21.3243 3.72806 21.6667 4.55471 21.6667 5.41667C21.6667 6.27862 21.3243 7.10527 20.7148 7.71476C20.1053 8.32426 19.2786 8.66667 18.4167 8.66667H15.1667C14.8793 8.66667 14.6038 8.7808 14.4006 8.98397C14.1975 9.18713 14.0833 9.46268 14.0833 9.75C14.0833 10.0373 14.1975 10.3129 14.4006 10.516C14.6038 10.7192 14.8793 10.8333 15.1667 10.8333H18.4167C19.8533 10.8333 21.231 10.2626 22.2468 9.24683C23.2627 8.23101 23.8333 6.85326 23.8333 5.41667C23.8333 3.98008 23.2627 2.60233 22.2468 1.5865C21.231 0.570683 19.8533 0 18.4167 0H15.1667Z" fill="white"/>
</svg>
