<svg width="800" height="800" viewBox="0 0 24 24" xmlns="http://www.w3.org/2000/svg" fill="#000000"><path d="M16.365 1.43c.146 1.028-.302 2.058-.92 2.8-.627.752-1.7 1.333-2.744 1.255-.166-1.003.368-2.06.942-2.69.648-.7 1.758-1.24 2.722-1.365zM20.53 17.184c-.474 1.103-.694 1.59-1.296 2.565-.842 1.367-2.028 3.078-3.5 3.094-1.306.013-1.64-.828-3.42-.818-1.781.01-2.15.835-3.458.822-1.472-.014-2.596-1.55-3.438-2.918C3.02 17.825 1.4 13.5 3.27 10.37c.95-1.64 2.64-2.677 4.482-2.7 1.402-.024 2.724.908 3.42.908.695 0 2.35-1.12 3.965-.956.676.028 2.582.272 3.804 2.053-.098.06-2.27 1.33-2.25 3.955.022 3.155 2.76 4.21 2.84 4.454z"/></svg>
