<svg width="800" height="800" viewBox="0 0 256 262" xmlns="http://www.w3.org/2000/svg" preserveAspectRatio="xMidYMid"><path d="M255.878 133.451c0-10.734-.871-18.567-2.756-26.69H130.55v48.443h71.947c-1.453 12.04-9.29 30.172-26.69 42.356l-.244 1.622 38.755 29.997 2.685.268c24.659-22.774 38.875-56.282 38.875-96.996" fill="#4285F4"/><path d="M130.55 261.1c35.258 0 64.839-11.605 86.453-31.552l-41.228-31.936c-11.06 7.688-25.82 13.055-45.225 13.055-34.523 0-63.824-22.773-74.269-54.25l-1.531.13-40.33 31.187-.527 1.465C35.393 231.798 79.49 261.1 130.55 261.1" fill="#34A853"/><path d="M56.281 156.417c-2.756-8.123-4.351-16.827-4.351-25.818 0-8.99 1.595-17.695 4.206-25.818l-.073-1.732L15.11 71.29l-1.342.635C5.078 89.644 0 109.517 0 130.599c0 21.082 5.078 40.955 13.768 58.674l42.513-32.856" fill="#FBBC05"/><path d="M130.55 50.479c24.53 0 41.04 10.61 50.45 19.465l36.844-35.986C195.245 12.91 165.808 0 130.55 0 79.49 0 35.393 29.301 13.768 71.925l42.439 32.856c10.52-31.477 39.821-54.302 74.343-54.302" fill="#EB4335"/></svg>
