<svg width="28" height="27" viewBox="0 0 28 27" fill="none" xmlns="http://www.w3.org/2000/svg">
<path d="M27.9869 13.6958C27.6999 14.198 27.129 14.4575 26.5513 14.6327C25.4388 14.9437 24.2945 15.0948 23.1379 15.2036C23.0657 15.2105 22.9935 15.2174 22.919 15.2245C22.4801 15.2626 22.0466 15.2801 21.6056 15.2832C21.453 15.2857 21.3004 15.2883 21.1478 15.2911C21.0486 15.292 20.9494 15.2916 20.8502 15.2898C20.5346 15.284 20.2583 15.292 19.9569 15.3814C19.7537 15.5695 19.6451 15.7734 19.536 16.0116C19.4489 16.1933 19.3388 16.3637 19.2318 16.5366C19.1901 16.6061 19.1486 16.6757 19.1073 16.7454C19.0868 16.7798 19.0664 16.8142 19.0453 16.8497C19.0247 16.8844 19.004 16.9192 18.9827 16.9551C18.9394 17.0279 18.896 17.1006 18.8526 17.1734C18.7482 17.3486 18.644 17.5238 18.5399 17.6991C18.6145 17.7306 18.6145 17.7306 18.6907 17.7627C18.7554 17.7906 18.8201 17.8185 18.8868 17.8473C18.9512 17.8748 19.0155 17.9023 19.0819 17.9306C19.2484 18.0152 19.2484 18.0152 19.3665 18.1732C19.3997 18.3214 19.3997 18.3214 19.3665 18.4893C19.0956 18.8339 18.6212 18.9267 18.1856 19.016C18.0071 19.0421 17.8349 19.0578 17.6542 19.0687C17.641 19.1104 17.6279 19.1521 17.6143 19.195C17.5126 19.4419 17.3734 19.6625 17.2298 19.8918C17.1663 19.9943 17.1029 20.097 17.0396 20.1996C17.0056 20.2545 16.9716 20.3095 16.9367 20.3661C16.7581 20.6569 16.5825 20.9491 16.4072 21.2415C16.3486 21.3391 16.29 21.4367 16.2313 21.5343C16.0232 21.8798 16.0232 21.8798 15.8238 22.2293C15.8823 22.2325 15.9408 22.2358 16.001 22.2391C16.3263 22.2793 16.5987 22.4464 16.8276 22.6507C16.8571 22.8252 16.8571 22.8252 16.8276 23.0194C16.4369 23.3934 15.8744 23.5296 15.3137 23.5525C15.1885 23.5527 15.0633 23.5498 14.9382 23.5462C14.9223 23.592 14.9065 23.6379 14.8902 23.6851C14.8221 23.8571 14.7411 24.0074 14.6439 24.1676C14.6085 24.2261 14.5731 24.2847 14.5367 24.345C14.4983 24.408 14.4599 24.4709 14.4215 24.5338C14.3821 24.599 14.3426 24.6642 14.3032 24.7293C14.2215 24.8642 14.1397 24.999 14.0578 25.1338C13.9374 25.3321 13.8177 25.5308 13.6983 25.7295C13.6606 25.7921 13.623 25.8546 13.5854 25.9171C13.5144 26.0352 13.4434 26.1533 13.3724 26.2714C13.3402 26.3248 13.308 26.3782 13.2748 26.4333C13.2467 26.4799 13.2187 26.5265 13.1897 26.5745C13.1627 26.6181 13.1357 26.6618 13.1078 26.7067C13.0756 26.7752 13.0756 26.7752 13.0427 26.8451C12.9307 26.9701 12.9307 26.9701 12.7263 27C12.6423 27 12.5582 26.9985 12.4742 26.9958C12.4299 26.9954 12.3856 26.9951 12.34 26.9947C12.1985 26.9932 12.0572 26.9899 11.9159 26.9866C11.82 26.9852 11.724 26.984 11.6281 26.983C11.3931 26.9801 11.1582 26.9755 10.9232 26.9701C10.9315 26.9188 10.9398 26.8675 10.9483 26.8146C11.1514 25.5595 11.3545 24.3044 11.5576 23.0493C11.6558 22.4423 11.754 21.8353 11.8523 21.2283C11.938 20.6986 12.0237 20.1688 12.1094 19.639C12.1547 19.3592 12.2 19.0793 12.2453 18.7994C12.4353 17.6251 12.6252 16.4507 12.8126 15.276C12.7687 15.2747 12.7248 15.2734 12.6797 15.272C11.7231 15.2432 10.7702 15.1981 9.8161 15.1312C9.7513 15.1267 9.6865 15.1222 9.61974 15.1176C8.43376 15.0354 7.2515 14.9292 6.06956 14.8098C6.01998 14.8049 5.9704 14.8 5.91932 14.7949C5.68346 14.7712 5.44928 14.7442 5.21509 14.7096C5.17185 14.7036 5.1286 14.6976 5.08405 14.6914C4.9683 14.675 4.85282 14.6571 4.73738 14.6391C4.53846 14.6275 4.53846 14.6275 4.3879 14.752C4.27484 14.8746 4.1781 15.0008 4.08316 15.1349C3.96109 15.2933 3.8097 15.4275 3.66074 15.5658C3.39709 15.8162 3.15069 16.0749 2.90954 16.3429C2.76219 16.5014 2.60753 16.6529 2.45033 16.8036C2.19611 17.0475 1.95578 17.2986 1.7222 17.5586C1.67996 17.605 1.63772 17.6513 1.59419 17.6991C1.57022 17.7315 1.54624 17.764 1.52154 17.7974C1.39836 17.9509 1.31225 18.0526 1.10095 18.0972C0.941139 18.1041 0.786985 18.1002 0.627346 18.0909C0.57262 18.0892 0.517897 18.0876 0.461514 18.0859C0.327152 18.0815 0.193232 18.0752 0.0590439 18.0679C0.0958691 17.6245 0.219149 17.2044 0.343426 16.7754C0.365877 16.697 0.388298 16.6186 0.410686 16.5401C0.46929 16.3351 0.52832 16.1301 0.587444 15.9252C0.647865 15.7155 0.707874 15.5057 0.767921 15.2959C0.885496 14.8853 1.00352 14.4749 1.12184 14.0645C1.06904 14.0469 1.01624 14.0293 0.961845 14.0112C0.892637 13.9878 0.823429 13.9645 0.752123 13.9404C0.683493 13.9174 0.614862 13.8943 0.544153 13.8706C0.33741 13.7949 0.175978 13.7115 0 13.5904C0.00853348 13.4692 0.00853348 13.4692 0.0590439 13.327C0.207348 13.2359 0.207348 13.2359 0.394859 13.1591C0.455976 13.1334 0.517094 13.1076 0.580063 13.0811C0.758627 13.0143 0.937912 12.9593 1.12184 12.9056C1.10853 12.8593 1.09521 12.8131 1.08149 12.7654C0.956017 12.3291 0.830881 11.8928 0.706125 11.4564C0.641977 11.232 0.577698 11.0077 0.513121 10.7834C0.450792 10.5669 0.388809 10.3504 0.327063 10.1338C0.303457 10.0512 0.279724 9.96863 0.255869 9.8861C0.222452 9.77042 0.18948 9.65464 0.156607 9.53884C0.128284 9.44006 0.128284 9.44006 0.09939 9.33928C0.063961 9.18678 0.050333 9.05707 0.0590439 8.90224C1.0846 8.80791 1.0846 8.80791 1.40968 9.00533C1.53146 9.14587 1.53146 9.14587 1.64517 9.30534C1.79477 9.51444 1.97053 9.68203 2.16249 9.86028C2.22886 9.92324 2.29514 9.98627 2.36131 10.0494C2.39219 10.0788 2.42307 10.1082 2.45489 10.1385C2.59143 10.2696 2.72298 10.4044 2.85396 10.5399C2.97083 10.6596 3.09072 10.7767 3.21053 10.8941C3.39641 11.0776 3.57485 11.2648 3.74931 11.457C3.79315 11.5046 3.83699 11.5522 3.88216 11.6013C3.97224 11.6999 4.06077 11.7997 4.14786 11.9004C4.1917 11.9486 4.23554 11.9967 4.2807 12.0463C4.31907 12.09 4.35743 12.1337 4.39695 12.1786C4.71677 12.3816 5.21445 12.2665 5.58752 12.2233C5.68709 12.2124 5.78666 12.2014 5.88623 12.1905C5.93838 12.1847 5.99052 12.1789 6.04425 12.173C7.85907 11.9724 9.68104 11.833 11.5062 11.7336C11.5459 11.7314 11.5855 11.7292 11.6264 11.727C11.9572 11.7092 12.2867 11.6932 12.6181 11.6937C12.6657 11.6937 12.7133 11.6938 12.7623 11.6938C12.7983 11.6939 12.8344 11.694 12.8716 11.6941C12.859 11.6259 12.8465 11.5577 12.8335 11.4875C12.6349 10.4009 12.4569 9.31165 12.2777 8.22242C12.2505 8.05738 12.2233 7.89234 12.1961 7.7273C12.1011 7.15042 12.0061 6.57352 11.9113 5.99661C11.8231 5.46015 11.7346 4.92373 11.6461 4.38732C11.5697 3.92457 11.4934 3.4618 11.4174 2.999C11.3721 2.72349 11.3267 2.44798 11.2812 2.1725C11.2385 1.91444 11.1961 1.65635 11.1538 1.39823C11.1383 1.30364 11.1227 1.20906 11.107 1.11449C11.0855 0.985411 11.0644 0.856292 11.0434 0.72716C11.0371 0.689832 11.0309 0.652503 11.0244 0.614044C10.9906 0.403923 10.9822 0.214791 10.9822 0C11.6252 0 12.2682 0 12.9307 0C13.3689 0.693571 13.7887 1.39504 14.2047 2.0993C14.2379 2.15549 14.2379 2.15549 14.2718 2.21281C14.3152 2.28625 14.3586 2.3597 14.4019 2.43317C14.5567 2.69497 14.716 2.95433 14.8788 3.21222C14.9382 3.31859 14.9382 3.31859 14.9382 3.42394C15.0076 3.41959 15.077 3.41525 15.1485 3.41077C15.7454 3.41077 16.3996 3.56891 16.8276 3.9507C16.8571 4.12519 16.8571 4.12519 16.8276 4.31943C16.6027 4.53471 16.3692 4.64377 16.06 4.74084C15.9821 4.74084 15.9041 4.74084 15.8238 4.74084C16.3493 5.65272 16.8753 6.56487 17.4445 7.45586C17.4716 7.49846 17.4987 7.54105 17.5267 7.58493C17.5512 7.62301 17.5757 7.6611 17.6009 7.70034C17.6542 7.79604 17.6542 7.79604 17.6542 7.9014C17.707 7.90656 17.7599 7.91172 17.8143 7.91704C18.3497 7.97611 18.8196 8.04683 19.2558 8.34256C19.3665 8.48083 19.3665 8.48083 19.4034 8.63886C19.3524 8.85735 19.2687 8.92368 19.0713 9.06027C18.98 9.10001 18.8876 9.13767 18.7943 9.17344C18.7227 9.20108 18.7227 9.20108 18.6498 9.22928C18.6135 9.24304 18.5772 9.2568 18.5399 9.27097C18.8913 9.87772 19.245 10.4832 19.6137 11.0817C19.6414 11.1267 19.6691 11.1718 19.6977 11.2182C19.8088 11.4153 19.8088 11.4153 19.9569 11.5887C20.0972 11.5984 20.2362 11.6049 20.3767 11.6095C20.4675 11.613 20.5582 11.6165 20.6489 11.6201C20.7214 11.6228 20.7214 11.6228 20.7954 11.6256C26.4228 11.846 26.4228 11.846 27.6479 12.8577C27.9188 13.1282 28.0426 13.322 27.9869 13.6958Z" fill="#F2591D"/>
</svg>
