<svg width="337" height="31" viewBox="0 0 337 31" fill="none" xmlns="http://www.w3.org/2000/svg">
<line x1="16.7383" y1="15.3732" x2="319.146" y2="15.3732" stroke="#F9E8DB" stroke-width="2.23179" stroke-dasharray="4.46 4.46"/>
<rect x="0.557948" y="8.11984" width="15.6226" height="15.6226" rx="7.81128" fill="#D3B3A4" stroke="#F9E8DB" stroke-width="1.1159"/>
<rect x="320.82" y="8.11984" width="15.6226" height="15.6226" rx="7.81128" fill="#D3B3A4" stroke="#F9E8DB" stroke-width="1.1159"/>
<path d="M165.863 5.34488L168.398 11.2348L168.953 12.5465C169.054 12.7483 169.319 12.9249 169.546 12.9249H173.406C174.616 12.9249 176.054 13.8204 176.609 14.905C176.798 15.2834 176.798 15.7374 176.609 16.1158C176.054 17.1878 174.604 18.0833 173.393 18.0833H169.534C169.307 18.0833 169.042 18.2599 168.941 18.4617L165.851 25.6507C165.523 26.4453 164.526 27.0885 163.669 27.0885H162.004C160.932 27.0885 160.402 26.2813 160.831 25.2849L163.555 18.9662C163.77 18.4743 163.505 18.0707 162.963 18.0707H161.563H159.292C159.002 18.0707 158.586 18.2347 158.384 18.4365L155.446 21.3625C155.143 21.6652 154.55 21.8039 154.121 21.6652L152.406 21.0977C151.662 20.8706 151.309 20.0256 151.662 19.3319L154.184 16.3302C154.575 15.8762 154.575 15.132 154.184 14.678L151.662 11.6763C151.321 10.9826 151.662 10.1376 152.406 9.88531L154.121 9.31776C154.538 9.17903 155.143 9.31776 155.446 9.62045L158.384 12.5465C158.586 12.7609 159.002 12.9249 159.292 12.9249L162.963 12.9249C163.505 12.9249 163.757 12.5339 163.555 12.0294L160.831 5.71064C160.402 4.71427 160.932 3.90708 162.004 3.90708H163.669C164.526 3.90708 165.523 4.55031 165.863 5.34488Z" fill="#F5753B"/>
</svg>
