<svg width="88" height="98" viewBox="0 0 88 98" fill="none" xmlns="http://www.w3.org/2000/svg">
<path d="M75.4503 93.7725C75.4503 96.0551 60.5374 97.9054 42.1416 97.9054C23.7459 97.9054 8.83301 96.0551 8.83301 93.7725C8.83301 91.4902 23.7459 89.6399 42.1416 89.6399C60.5374 89.6399 75.4503 91.4902 75.4503 93.7725Z" fill="#60827F"/>
<path d="M35.9091 8.0063H48.5816C59.4763 8.69901 66.8022 15.3216 71.0187 20.8623H75.4565C75.4796 20.1986 67.2847 1.53024 48.5816 0.341035H42.3495H42.1413H35.9091C17.2061 1.53024 9.01439 20.1986 9.03422 20.8623H13.4721C17.6885 15.3216 25.0144 8.69901 35.9091 8.0063" fill="#F3ED99"/>
<path d="M71.1005 20.6977H75.2509C74.937 19.7235 72.8552 15.2851 68.8469 10.8289C64.9113 6.4573 58.2 1.11775 48.5709 0.505368L35.9084 0.505705C26.2892 1.11776 19.5779 6.4573 15.6456 10.8289C11.634 15.2851 9.55225 19.7235 9.23833 20.6977H13.3887C17.5886 15.2038 24.8881 8.54203 35.8984 7.84207L48.5808 7.84174C59.6011 8.54202 66.9039 15.2038 71.1005 20.6977ZM75.4558 21.027H71.0179C70.9683 21.027 70.9188 21.003 70.8857 20.9621C66.7387 15.51 59.4987 8.86567 48.5709 8.17065L35.9084 8.17097C24.9905 8.86566 17.7538 15.51 13.6035 20.9621C13.5737 21.003 13.5242 21.027 13.4713 21.027H9.03344C8.94423 21.027 8.87153 20.9562 8.86822 20.8673C8.85501 20.4014 11.0591 15.4589 15.3284 10.6893C19.3102 6.23672 26.114 0.798718 35.8984 0.176791L48.5808 0.176469C58.3785 0.798725 65.179 6.23672 69.1641 10.6893C73.4335 15.4589 75.6375 20.4014 75.621 20.8673C75.621 20.9562 75.5483 21.027 75.4558 21.027" fill="#292625"/>
<path d="M35.9091 8.00655H48.5816C61.1847 8.80791 69.0162 17.5458 72.7766 23.3638H75.4565C75.4796 22.6997 67.2847 4.03136 48.5816 2.84216H42.3495H42.1413H35.9091C17.2061 4.03136 9.01439 22.6997 9.03422 23.3638H11.7174C15.4779 17.5458 23.306 8.80791 35.9091 8.00655" fill="#2E2227"/>
<path d="M20.2389 32.1572C16.842 40.4707 10.0811 45.5854 5.1377 43.581C0.197577 41.5766 -1.05811 33.2124 2.33884 24.8988C5.73579 16.5853 12.4967 11.471 17.4368 13.4753C22.3802 15.4797 23.6326 23.844 20.2389 32.1572" fill="#F2591D"/>
<path d="M15.1598 13.3907C10.603 13.3907 5.46464 18.1774 2.66578 25.0311C-0.651861 33.1524 0.514596 41.3286 5.26967 43.257C5.94047 43.5286 6.66085 43.6662 7.41425 43.6662C11.9744 43.6662 17.1128 38.8795 19.9116 32.0257C21.5308 28.0621 22.1355 23.9697 21.6167 20.5025C21.1078 17.1008 19.5745 14.7208 17.3044 13.7996C16.6369 13.5283 15.9132 13.3907 15.1598 13.3907ZM7.41425 44.3658C6.57163 44.3658 5.75872 44.2111 5.00531 43.9053C-0.106637 41.8314 -1.45154 33.2462 2.01481 24.7671C4.9194 17.6566 10.3254 12.6907 15.1598 12.6907C16.0057 12.6907 16.8153 12.8458 17.5688 13.1513C20.0801 14.1693 21.7654 16.7433 22.3106 20.3991C22.8492 23.9888 22.228 28.2116 20.5626 32.2895C17.658 39.4 12.2519 44.3658 7.41425 44.3658Z" fill="#292625"/>
<path d="M20.9562 33.0616C17.2354 42.1706 19.0561 55.7615 7.52369 47.1299C4.42083 44.6221 3.84585 36.7405 7.56664 27.6319C11.2874 18.5232 17.1528 12.7929 20.9991 13.854C34.5936 17.6043 24.677 23.953 20.9562 33.0616" fill="#F3ED99"/>
<path d="M20.0411 13.8929C16.1683 13.8929 10.987 19.6974 7.7189 27.6942C3.85272 37.1597 4.78455 44.7068 7.62635 47.0025C10.0716 48.8308 11.9882 49.7211 13.4851 49.7211C16.6739 49.7211 17.5958 45.5289 18.6599 40.6746C19.2282 38.0885 19.8164 35.4141 20.8044 33.0001C21.8024 30.5516 23.2695 28.2703 24.5615 26.2577C26.6268 23.044 28.4079 20.2686 27.5587 18.0538C26.9143 16.3833 24.7565 15.0617 20.9531 14.0131C20.6657 13.9334 20.3583 13.8929 20.0411 13.8929V13.8929ZM13.4851 50.0503C11.9122 50.0503 9.92955 49.1383 7.4248 47.262C4.48716 44.8882 3.48592 37.1824 7.41489 27.5701C10.7292 19.4544 16.0394 13.5637 20.0411 13.5637C20.3881 13.5637 20.7251 13.6082 21.0423 13.6957C25.0043 14.7891 27.1754 16.1364 27.866 17.936C28.778 20.3061 26.9507 23.1464 24.8391 26.4352C23.5537 28.436 22.0964 30.7034 21.1084 33.1243C20.1336 35.5119 19.5487 38.1725 18.9837 40.7451C17.8866 45.7383 16.9383 50.0503 13.4851 50.0503" fill="#292625"/>
<path d="M25.2259 35.0725C21.5051 44.1811 15.4911 50.3497 11.7934 48.8503C8.09907 47.351 8.11559 38.7513 11.8364 29.6427C15.5605 20.534 21.5712 14.3655 25.2689 15.8648C28.9665 17.3642 28.9467 25.9638 25.2259 35.0725" fill="#2E2227"/>
<path d="M67.347 32.1572C70.7439 40.4707 77.5048 45.5854 82.4482 43.581C87.3883 41.5766 88.644 33.2124 85.247 24.8988C81.8501 16.5853 75.0892 11.471 70.1491 13.4753C65.2057 15.4797 63.9533 23.844 67.347 32.1572" fill="#F2591D"/>
<path d="M72.4224 13.3907C71.6723 13.3907 70.9486 13.5283 70.2811 13.7996C65.5261 15.7282 64.3563 23.9042 67.6739 32.0257C70.4728 38.8791 75.6112 43.6659 80.1713 43.6662C80.9247 43.6662 81.645 43.5286 82.3125 43.257C84.586 42.3361 86.1159 39.9557 86.6248 36.5544C87.1469 33.0869 86.5389 28.9945 84.9197 25.0311C82.1209 18.1774 76.9825 13.3907 72.4224 13.3907ZM80.1713 44.3658C75.3336 44.3658 69.9275 39.3997 67.0229 32.2895C63.5599 23.8107 64.9015 15.2252 70.0168 13.1513C70.7702 12.8458 71.5798 12.6907 72.4224 12.6907C77.2601 12.6907 82.6661 17.6566 85.5707 24.7671C87.2362 28.845 87.8574 33.0681 87.3221 36.6578C86.7735 40.3136 85.0883 42.8876 82.5802 43.9053C81.8235 44.2111 81.0139 44.3658 80.1713 44.3658Z" fill="#292625"/>
<path d="M66.6302 33.0616C70.351 42.1706 68.5303 55.7615 80.0627 47.1299C83.1656 44.6221 83.7406 36.7405 80.0198 27.6319C76.299 18.5232 70.4336 12.7929 66.5873 13.854C52.9929 17.6043 62.9095 23.953 66.6302 33.0616" fill="#F3ED99"/>
<path d="M67.545 13.8929C67.2277 13.8929 66.9204 13.9334 66.6329 14.0131C62.8295 15.0617 60.6717 16.3833 60.0274 18.0538C59.1781 20.2686 60.9592 23.0441 63.0245 26.2581C64.3165 28.2703 65.7837 30.5516 66.7816 33.0001C67.7696 35.4141 68.3578 38.0882 68.9262 40.6746C69.9902 45.5289 70.9121 49.7211 74.1009 49.7211C75.5978 49.7211 77.5144 48.8308 79.963 46.9986C82.7982 44.7068 83.7333 37.1597 79.8671 27.6942C76.5991 19.6974 71.4177 13.8929 67.545 13.8929V13.8929ZM74.1009 50.0503C70.6478 50.0503 69.6994 45.7383 68.6024 40.7448C68.0373 38.1724 67.4524 35.5119 66.4776 33.1243C65.4863 30.7034 64.0323 28.436 62.7469 26.4352C60.6354 23.1464 58.808 20.3061 59.72 17.9363C60.4107 16.1363 62.5784 14.7891 66.5437 13.6957C66.8609 13.6082 67.198 13.5637 67.545 13.5637C71.5466 13.5637 76.8568 19.4544 80.1712 27.5701C84.1001 37.1824 83.0989 44.8882 80.1645 47.258C77.6532 49.1383 75.6705 50.0503 74.1009 50.0503" fill="#292625"/>
<path d="M62.3603 35.0725C66.0811 44.1811 72.0952 50.3497 75.7895 48.8503C79.4872 47.351 79.4707 38.7513 75.7466 29.6427C72.0258 20.534 66.0117 14.3655 62.3174 15.8648C58.6197 17.3642 58.6362 25.9638 62.3603 35.0725" fill="#2E2227"/>
<path d="M72.228 38.1874C74.703 36.0332 76.6857 33.2159 77.9546 30.0552C73.4375 31.1717 68.4147 29.3596 65.4077 25.5296C67.2516 25.3732 69.1351 25.8855 70.6948 26.9664C69.5449 23.6108 67.2318 20.7431 64.3239 19.0621C66.2404 18.9419 68.1834 19.4229 69.8621 20.432C62.2553 15.2393 52.7616 13.4262 43.9818 15.4905C43.8992 15.5096 43.8166 15.5303 43.734 15.5508C43.6513 15.5303 43.5687 15.5096 43.4861 15.4905C34.7096 13.4262 25.216 15.2393 17.6092 20.432C19.2878 19.4229 21.2308 18.9419 23.1474 19.0621C20.2362 20.7431 17.9264 23.6108 16.7764 26.9664C18.3328 25.8855 20.2196 25.3732 22.0635 25.5296C19.0565 29.3596 14.0338 31.1717 9.5166 30.0552C10.7855 33.2159 12.7682 36.0332 15.2432 38.1874C13.5843 38.244 12.9532 40.5407 12.8078 42.338C12.2758 48.8596 12.061 55.4752 13.1416 61.9161C14.2221 68.3569 16.6839 74.6614 20.9169 79.3208C25.1465 83.9801 31.2829 86.807 37.2474 85.9193C39.4448 85.5924 41.5894 84.7878 43.734 84.097C45.8785 84.7878 48.0264 85.5924 50.2205 85.9193C56.1883 86.807 62.3247 83.9801 66.5544 79.3208C70.784 74.6614 73.2491 68.3569 74.3297 61.9161C75.4102 55.4752 75.1954 48.8596 74.6634 42.338C74.5147 40.5407 73.8835 38.244 72.228 38.1874" fill="#F2591D"/>
<path d="M43.7339 83.7464C43.7702 83.7464 43.8066 83.752 43.8429 83.7636C44.2427 83.8926 44.6459 84.0256 45.049 84.1593C46.7541 84.7256 48.5187 85.3113 50.2733 85.5727C50.9805 85.6777 51.7075 85.7311 52.4344 85.7311C57.3349 85.7314 62.5162 83.247 66.2932 79.0855C70.1429 74.8452 72.8029 68.888 73.9826 61.8575C75.1226 55.0733 74.7889 48.1972 74.3131 42.3654C74.1644 40.5441 73.5365 38.5815 72.2147 38.5367C72.0694 38.5318 71.9438 38.4396 71.8942 38.3043C71.848 38.169 71.8876 38.0179 71.9966 37.9234C74.2701 35.943 76.1206 33.4003 77.3697 30.538C76.6757 30.666 75.9653 30.7306 75.2482 30.7306C71.3622 30.7306 67.5819 28.8668 65.13 25.7446C65.0507 25.6435 65.0342 25.5069 65.0838 25.389C65.1367 25.2712 65.249 25.1912 65.3779 25.1803C66.9442 25.0463 68.5799 25.3894 70.0041 26.1377C68.7947 23.2743 66.6996 20.84 64.1486 19.364C64.0131 19.287 63.9471 19.1313 63.9834 18.9811C64.0164 18.831 64.1486 18.722 64.3006 18.7121C65.0441 18.6657 65.7876 18.7059 66.5212 18.828C61.8157 16.3469 56.5022 15.0059 51.2217 15.0059C48.7996 15.0059 46.3906 15.2831 44.0643 15.8303L43.8198 15.8899C43.7636 15.9038 43.7074 15.9038 43.6513 15.8899L43.4068 15.8303C41.0804 15.2831 38.6715 15.0059 36.2493 15.0059C30.9689 15.0059 25.652 16.3469 20.9498 18.828C21.6801 18.7059 22.4269 18.6654 23.1671 18.7121C23.3224 18.722 23.4513 18.831 23.4876 18.9811C23.524 19.1313 23.4546 19.287 23.3224 19.364C20.7681 20.84 18.6764 23.2743 17.467 26.1377C18.8912 25.3894 20.5236 25.0463 22.0932 25.1803C22.2221 25.1912 22.3344 25.2712 22.3873 25.389C22.4368 25.5069 22.4203 25.6435 22.341 25.7446C19.8891 28.8664 16.1055 30.7302 12.2195 30.7306C11.5058 30.7306 10.7953 30.666 10.1014 30.538C11.3505 33.4007 13.201 35.9434 15.4744 37.9234C15.5834 38.0179 15.6231 38.169 15.5735 38.3043C15.5273 38.4396 15.3984 38.5318 15.2563 38.5367C13.9345 38.5815 13.3067 40.5441 13.158 42.3654C12.6822 48.1972 12.3484 55.0736 13.4885 61.8575C14.6681 68.888 17.3282 74.8455 21.1779 79.0855C24.9548 83.2467 30.1361 85.7311 35.0366 85.7311C35.7636 85.7311 36.4873 85.6777 37.1977 85.5727C38.9524 85.3113 40.7169 84.7256 42.422 84.1593C42.8251 84.026 43.225 83.8926 43.6281 83.7636C43.6612 83.752 43.6975 83.7464 43.7339 83.7464V83.7464ZM52.4344 86.431C51.6744 86.431 50.9111 86.3751 50.1709 86.2648C48.3535 85.9945 46.5592 85.3992 44.8243 84.8234C44.4608 84.7025 44.0974 84.5817 43.7339 84.4642C43.3704 84.582 43.0069 84.7029 42.6434 84.8234C40.9086 85.3992 39.1176 85.9945 37.3001 86.2648C36.5566 86.3751 35.7966 86.431 35.0366 86.431C29.9412 86.431 24.5649 83.8607 20.6558 79.5549C16.7169 75.2156 13.9973 69.1359 12.7945 61.9731C11.6446 55.1134 11.9783 48.1834 12.4575 42.3088C12.6425 40.0226 13.3926 38.4814 14.5095 37.9981C12.2262 35.8706 10.3922 33.1827 9.1894 30.1844C9.14314 30.0625 9.16625 29.9236 9.25217 29.8245C9.33808 29.7257 9.47358 29.6833 9.60246 29.7149C10.4484 29.9246 11.3306 30.0306 12.2195 30.0306C15.6628 30.0303 19.0234 28.4799 21.3398 25.8516C19.8065 25.8664 18.26 26.3629 16.9746 27.2528C16.8524 27.3394 16.6838 27.3361 16.5649 27.2453C16.4426 27.1541 16.3931 26.9957 16.4426 26.8525C17.4802 23.8301 19.4529 21.1775 21.9478 19.4147C20.4905 19.5148 19.0663 19.9649 17.7908 20.731C17.6289 20.8288 17.4174 20.7804 17.315 20.6207C17.2125 20.4617 17.2555 20.2497 17.4108 20.1427C22.9226 16.3788 29.6141 14.306 36.2493 14.306C38.7277 14.306 41.1895 14.5898 43.5687 15.1491L43.7339 15.1896L43.9024 15.1491C46.2816 14.5898 48.7434 14.306 51.2217 14.306C57.8405 14.306 64.5154 16.3693 70.0206 20.1167C70.1363 20.1736 70.2189 20.2931 70.2189 20.4314C70.2189 20.6247 70.0603 20.7814 69.8686 20.7814C69.8653 20.781 69.862 20.7817 69.862 20.7814C69.7992 20.7814 69.7364 20.7653 69.6802 20.731C68.4047 19.9649 66.9805 19.5148 65.5233 19.4147C67.9983 21.1656 69.9644 23.7946 71.0053 26.7916C71.035 26.8426 71.0549 26.9022 71.0549 26.9658C71.0549 27.159 70.8963 27.3157 70.7013 27.3157C70.7013 27.3157 70.698 27.3161 70.6947 27.3157C70.6253 27.3157 70.5559 27.2947 70.4964 27.2528C69.211 26.3629 67.6645 25.8664 66.1313 25.8516C68.4477 28.4802 71.8083 30.0306 75.2482 30.0306C76.1404 30.0306 77.0227 29.9243 77.8686 29.7149C77.9975 29.6833 78.1297 29.7261 78.2189 29.8245C78.3048 29.9236 78.3279 30.0625 78.2784 30.1844C77.0789 33.1827 75.2449 35.8706 72.9615 37.9981C74.0784 38.4814 74.8253 40.0226 75.0136 42.3088C75.4927 48.1834 75.8265 55.1134 74.6765 61.9731C73.4737 69.1356 70.7542 75.2153 66.8153 79.5549C62.9062 83.8607 57.5299 86.431 52.4344 86.431" fill="#292625"/>
<path d="M36.8935 19.1786C38.8761 18.9995 40.915 19.5315 42.554 20.6555C42.1046 18.6864 40.2376 17.293 38.2781 16.7761C36.3185 16.2596 34.2533 16.4505 32.231 16.5997C33.1033 16.8601 33.936 17.2489 34.696 17.75C31.3817 17.4636 27.9881 18.203 25.1 19.8403C25.9691 19.8943 26.8414 19.9483 27.7138 20.0026C25.2256 20.8205 22.8199 21.8895 20.5498 23.1877C25.6948 21.8098 31.2991 22.1944 36.2095 24.262C36.2855 22.3801 34.5176 21.0062 32.9348 19.974C35.1752 19.8999 37.4321 20.4303 39.4016 21.4941C38.6316 20.6549 37.7923 19.8792 36.8935 19.1786" fill="#D34B20"/>
<path d="M50.1175 19.1786C48.1349 18.9995 46.096 19.5315 44.457 20.6555C44.9064 18.6864 46.7734 17.293 48.7297 16.7761C50.6892 16.2596 52.7577 16.4505 54.78 16.5997C53.9077 16.8601 53.075 17.2489 52.315 17.75C55.6293 17.4636 59.023 18.203 61.911 19.8403C61.042 19.8943 60.1696 19.9483 59.2972 20.0026C61.7854 20.8205 64.1911 21.8895 66.4612 23.1877C61.3162 21.8098 55.7119 22.1944 50.8015 24.262C50.7255 22.3801 52.4934 21.0062 54.0762 19.974C51.8358 19.8999 49.5789 20.4303 47.6094 21.4941C48.3794 20.6549 49.2187 19.8792 50.1175 19.1786" fill="#D34B20"/>
<path d="M64.8986 33.3342C64.8953 32.6497 64.9317 31.9251 65.3117 31.3539C65.576 30.9535 65.999 30.6615 66.4682 30.5555C66.574 30.5314 66.6863 30.5166 66.7921 30.5278C66.987 30.5482 67.1589 30.6483 67.3307 30.7412C69.2076 31.7661 71.4414 32.1319 73.5529 31.7601C73.7809 32.016 73.7677 32.4245 73.5992 32.7238C73.4307 33.0228 73.1366 33.2305 72.8326 33.3958C72.294 33.6921 71.6959 33.8854 71.0812 33.9621C71.5967 34.3318 71.6628 35.1819 71.2101 35.6264C70.9325 35.898 70.536 36.0027 70.1593 36.0965C69.6669 36.2196 69.1746 36.3425 68.6822 36.4653C67.8693 36.6681 66.9738 36.8633 66.2237 36.4896C65.6851 36.2206 65.315 35.6869 65.1233 35.1164C64.9317 34.5458 64.9052 33.9357 64.8986 33.3342" fill="#F7A80E"/>
<path d="M18.1812 36.8245C18.548 36.8666 18.9247 36.8636 19.2782 36.7675C20.4943 36.4399 21.1948 35.0831 21.1783 33.8284C21.1585 32.574 20.5868 31.4006 20.0184 30.2825C18.1283 31.7611 15.5046 32.2537 13.208 31.561C13.7037 32.5335 14.7016 33.1591 15.7227 33.5532C15.9441 33.6388 16.2216 33.862 16.0762 34.0497C15.7061 33.8873 15.2204 34.1178 15.1147 34.5043C15.0023 34.9264 15.2964 35.3475 15.6169 35.6458C16.3175 36.295 17.2295 36.7145 18.1812 36.8245" fill="#F7A80E"/>
<path d="M73.1531 55.6768C72.74 54.6275 71.752 53.9118 70.6186 53.8565C70.6186 53.8739 71.5372 53.5891 71.643 53.5355C72.0329 53.3379 72.37 53.0492 72.6343 52.7005C73.1069 52.0697 73.2853 51.2677 73.1895 50.4913C72.9978 48.9946 71.6727 47.8285 70.1461 47.9052C70.1428 47.8979 70.1428 47.8904 70.1428 47.8831C71.752 47.5552 72.674 45.9373 72.2807 44.3758C72.1023 43.6719 71.7091 43.0523 71.111 42.6302C70.7673 42.3892 70.3708 42.2334 69.9577 42.1715C69.8256 42.1521 68.7318 42.1979 68.745 42.2328C70.2287 41.5499 70.7739 39.7586 70.0205 38.3294C69.2704 36.9067 67.5587 36.2594 66.1015 37.0664C66.1114 37.0796 66.7326 36.3553 66.7954 36.2532C66.9937 35.9151 67.1126 35.5394 67.1556 35.1493C67.2382 34.3631 66.9606 33.5564 66.4484 32.9595C65.3976 31.7433 63.5868 31.4951 62.3476 32.5954C62.3509 32.5993 62.7805 31.824 62.8168 31.717C62.9523 31.3272 62.9953 30.9146 62.949 30.5047C62.8598 29.7241 62.4203 29.0143 61.8024 28.5366C60.5269 27.5413 58.6665 27.7108 57.6983 29.0429C57.7115 29.0495 57.9627 28.1359 57.9726 28.017C58.0122 27.5936 57.9461 27.1673 57.7908 26.7719C57.5199 26.0758 56.9614 25.5178 56.2873 25.1994C54.8268 24.4998 53.049 25.0638 52.3914 26.5687C52.3947 26.57 52.4542 25.6916 52.4443 25.5784C52.4013 25.1701 52.2658 24.7823 52.0543 24.432C51.6677 23.7969 51.0233 23.3468 50.3096 23.1516C48.7003 22.7114 46.9985 23.629 46.6747 25.2989C46.6846 25.3002 46.526 24.3678 46.4864 24.2545C46.3542 23.8871 46.1427 23.5569 45.8685 23.2793C45.3133 22.7183 44.5202 22.396 43.7272 22.4134C42.9209 22.4309 42.1609 22.7101 41.5925 23.2889C41.3182 23.5671 41.1101 23.9022 40.9812 24.27C40.9382 24.3833 40.7862 25.3153 40.7962 25.314C40.4723 23.6935 38.8862 22.8158 37.31 23.143C36.5764 23.2948 35.9089 23.7406 35.4892 24.3549C35.2579 24.6944 35.1026 25.077 35.0465 25.4839C35.0266 25.6087 35.0663 26.6194 35.0861 26.6132C34.4186 25.1072 32.6772 24.5854 31.21 25.2472C30.4929 25.5708 29.9213 26.1878 29.6569 26.9259C29.5313 27.2769 29.4785 27.647 29.5049 28.0187C29.5148 28.1441 29.7726 29.1243 29.7891 29.1137C28.8143 27.7829 26.9968 27.6466 25.7081 28.6057C25.077 29.0755 24.6507 29.8005 24.5516 30.5785C24.5053 30.9485 24.5351 31.3219 24.6408 31.6794C24.6771 31.7996 25.1431 32.7037 25.1596 32.6889C23.9138 31.5942 22.1096 31.8546 21.0621 33.0718C20.0047 34.2939 20.16 36.1682 21.4421 37.1592C21.4454 37.153 20.6028 36.8741 20.4904 36.8567C20.0741 36.7912 19.6412 36.8211 19.2413 36.9525C18.4714 37.2044 17.8865 37.7545 17.5131 38.4607C16.7597 39.8909 17.3347 41.6859 18.8151 42.3586C18.8283 42.3246 17.7312 42.2832 17.5991 42.3032C17.186 42.3668 16.7895 42.5245 16.4491 42.7678C15.851 43.1941 15.4677 43.8161 15.2893 44.5193C15.0844 45.3312 15.2232 46.2172 15.7122 46.904C15.9237 47.2059 16.198 47.4627 16.5119 47.6556C16.611 47.7146 17.4405 48.051 17.4438 48.0415C16.0096 47.972 14.7275 49.0052 14.4433 50.3985C14.103 52.0917 15.2232 53.7959 16.9878 53.97C16.9878 53.9519 16.0559 54.1919 15.9502 54.24C15.59 54.4007 15.2628 54.6367 14.9985 54.9281C14.4698 55.5115 14.2252 56.3004 14.2649 57.0774C14.3045 57.829 14.5953 58.5349 15.1307 59.0712C15.4115 59.3494 15.7519 59.5601 16.122 59.6938C16.2443 59.7369 17.3314 59.9147 17.3248 59.8722C15.6726 60.2203 14.8167 61.8394 15.2 63.428C15.3752 64.1576 15.8676 64.8207 16.5086 65.2082C16.8721 65.4291 17.2785 65.5641 17.7081 65.5894C17.8271 65.5963 18.8977 65.4702 18.8779 65.4248C17.3016 66.1942 16.9514 68.0597 17.8535 69.4879C18.25 70.1194 18.9241 70.608 19.661 70.7578C20.0609 70.8391 20.4772 70.8355 20.8705 70.7295C20.9894 70.6982 22.027 70.201 21.9774 70.149C20.7746 71.3764 21.039 73.3028 22.3938 74.2971C23.7387 75.2798 25.609 75.0359 26.4979 73.577C26.4781 73.5655 26.2633 74.4643 26.2567 74.571C26.2269 74.9944 26.293 75.4283 26.4681 75.8165C26.792 76.5372 27.4 77.0969 28.1402 77.3665C29.6635 77.9532 31.395 77.2447 31.9303 75.6782C31.9204 75.6756 31.9238 76.5665 31.9436 76.6768C32.013 77.0857 32.1749 77.4712 32.4095 77.813C32.8292 78.4217 33.4934 78.8132 34.2071 78.9791C35.8131 79.3538 37.4587 78.3529 37.7693 76.7229C37.766 76.7229 37.9048 77.5875 37.9411 77.6961C38.07 78.0859 38.2881 78.4418 38.5657 78.7444C39.0878 79.3126 39.8379 79.6192 40.6012 79.6646C42.1774 79.7709 43.6214 78.6153 43.7371 77.0228C43.7437 77.0228 43.9519 77.8117 43.9948 77.9114C44.1534 78.263 44.3847 78.5798 44.6689 78.8385C45.2835 79.3926 46.1031 79.6593 46.9259 79.5955C47.6561 79.5388 48.3732 79.2527 48.8887 78.7223C49.1696 78.4319 49.391 78.082 49.5298 77.703C49.576 77.5838 49.7478 76.5955 49.7313 76.5974C50.0551 78.1409 51.6149 79.1487 53.1712 78.83C53.8883 78.6828 54.5723 78.3144 55.0217 77.7238C55.2696 77.3942 55.448 77.0087 55.5339 76.605C55.5603 76.4832 55.5868 75.4655 55.5636 75.4718C56.1188 77.0254 57.8437 77.7221 59.3604 77.1321C60.0676 76.8826 60.6557 76.3443 60.9829 75.6743C61.1679 75.2973 61.2605 74.8874 61.2506 74.4679C61.2473 74.3491 61.0424 73.3367 61.0093 73.3538C61.8883 74.7955 63.7619 75.0678 65.1002 74.0919C66.4583 73.1039 66.7557 71.2052 65.5728 69.9554C65.5463 69.9818 66.3724 70.4499 66.4716 70.4868C66.8747 70.636 67.3076 70.6702 67.7305 70.6146C68.5401 70.5086 69.2473 70.0048 69.7033 69.3444C70.645 67.9379 70.2749 66.0461 68.7219 65.2701C68.712 65.2967 69.6306 65.4485 69.7363 65.4488C70.1725 65.4521 70.5955 65.3422 70.9788 65.1361C71.6826 64.7555 72.2146 64.0707 72.4096 63.294C72.8094 61.7064 71.9404 60.0807 70.2915 59.7333C70.2816 59.7946 71.491 59.5598 71.6199 59.5065C72.099 59.3066 72.5054 58.9744 72.8061 58.5517C73.3877 57.7293 73.5166 56.6145 73.1531 55.6768C73.0044 55.3018 73.2985 56.0521 73.1531 55.6768" fill="#F7A80E"/>
<path d="M68.3915 50.2798C68.0479 49.4008 67.2185 48.8012 66.2701 48.7548C66.2701 48.7696 67.04 48.5309 67.1292 48.4858C67.4564 48.3205 67.7372 48.0785 67.9553 47.7865C68.3519 47.2581 68.5039 46.5858 68.4213 45.9359C68.2627 44.6818 67.1524 43.7046 65.8736 43.7692C65.8702 43.7629 65.8703 43.7567 65.8703 43.7507C67.2185 43.4758 67.9917 42.1207 67.6613 40.8123C67.5126 40.2226 67.1821 39.7034 66.6798 39.3498C66.3957 39.148 66.0619 39.0173 65.7149 38.9656C65.6059 38.9495 64.6873 38.988 64.7005 39.017C65.9429 38.4448 66.399 36.9441 65.7678 35.747C65.14 34.5549 63.7058 34.0126 62.4865 34.6889C62.4931 34.7 63.0152 34.0929 63.0648 34.0073C63.2333 33.7242 63.3325 33.4094 63.3688 33.0828C63.4382 32.424 63.2069 31.7481 62.774 31.2483C61.895 30.2294 60.3783 30.0213 59.3407 30.9431C59.344 30.9464 59.7009 30.2968 59.7339 30.2073C59.8463 29.8807 59.8826 29.535 59.843 29.1916C59.767 28.5377 59.4035 27.9431 58.8847 27.5428C57.8141 26.7088 56.2577 26.8511 55.4448 27.9672C55.4547 27.9728 55.6662 27.2073 55.6761 27.1075C55.7091 26.7529 55.653 26.3957 55.5241 26.0642C55.2961 25.4814 54.8269 25.0136 54.2651 24.7472C53.0392 24.1612 51.5489 24.6333 51.0003 25.8943C51.0003 25.8953 51.0532 25.1595 51.0433 25.0646C51.0102 24.7226 50.8946 24.3979 50.7161 24.1042C50.3923 23.5722 49.8537 23.1952 49.2556 23.0316C47.9041 22.6629 46.4832 23.4313 46.2089 24.8305C46.2188 24.8315 46.0867 24.0503 46.0503 23.9558C45.9413 23.6479 45.7661 23.371 45.5348 23.1386C45.0689 22.6688 44.4047 22.3985 43.7405 22.413C43.0664 22.4278 42.4287 22.6615 41.9528 23.1465C41.7215 23.3796 41.5464 23.6604 41.4373 23.9686C41.4043 24.0634 41.2754 24.8444 41.2853 24.8434C41.0144 23.4856 39.686 22.7501 38.3642 23.0243C37.7496 23.1518 37.1911 23.5251 36.8409 24.0397C36.6459 24.3238 36.517 24.6445 36.4675 24.9853C36.4509 25.09 36.4873 25.9368 36.5005 25.9315C35.9421 24.6699 34.4848 24.2326 33.2556 24.7871C32.6542 25.058 32.1717 25.5753 31.9536 26.1936C31.8479 26.4876 31.8016 26.7974 31.828 27.1089C31.8346 27.2139 32.0494 28.0353 32.066 28.0261C31.2465 26.9113 29.7264 26.7971 28.6459 27.6007C28.1172 27.9945 27.7603 28.6016 27.6777 29.2535C27.638 29.5636 27.6611 29.8764 27.7504 30.176C27.7834 30.2768 28.1733 31.034 28.1866 31.0215C27.1424 30.1042 25.6322 30.3225 24.75 31.3422C23.8677 32.3661 23.9965 33.9362 25.0705 34.7665C25.0738 34.7613 24.3667 34.5279 24.2741 34.513C23.9239 34.4584 23.5637 34.4834 23.2266 34.5934C22.5823 34.8044 22.0899 35.2653 21.7793 35.857C21.1481 37.0551 21.6306 38.5587 22.8698 39.1223C22.8797 39.0937 21.961 39.0591 21.852 39.0759C21.505 39.1293 21.1746 39.2613 20.8871 39.4654C20.3881 39.8223 20.0643 40.3435 19.9156 40.9328C19.7437 41.6127 19.8627 42.3548 20.2692 42.9306C20.4476 43.1835 20.6789 43.3985 20.94 43.5601C21.0226 43.6095 21.7198 43.8913 21.7198 43.8834C20.5203 43.8252 19.4463 44.6907 19.2084 45.8578C18.9209 47.2765 19.8594 48.7041 21.3365 48.85C21.3398 48.8348 20.5599 49.036 20.4674 49.0761C20.1667 49.2108 19.8958 49.4083 19.6744 49.6526C19.2316 50.1415 19.0234 50.8023 19.0597 51.4532C19.0928 52.083 19.334 52.6744 19.7834 53.1238C20.018 53.3565 20.3055 53.5333 20.6161 53.6453C20.7153 53.6815 21.6273 53.83 21.624 53.7947C20.2394 54.0865 19.5223 55.4426 19.8429 56.7733C19.9883 57.3847 20.4013 57.9402 20.9367 58.2648C21.244 58.4498 21.5843 58.5631 21.9412 58.5841C22.0403 58.5901 22.9391 58.4844 22.9226 58.4465C21.6008 59.0908 21.31 60.6537 22.0635 61.8502C22.3972 62.3792 22.959 62.7888 23.5769 62.9139C23.9139 62.9824 24.2609 62.9791 24.5946 62.8906C24.6905 62.8642 25.5595 62.4474 25.5199 62.4043C24.512 63.4321 24.7334 65.0461 25.8702 65.879C26.9937 66.7024 28.5633 66.498 29.3068 65.2759C29.2902 65.2663 29.1118 66.0193 29.1052 66.1088C29.0787 66.4634 29.1349 66.8269 29.2803 67.1522C29.5513 67.7557 30.0602 68.2245 30.6814 68.4507C31.9602 68.9422 33.4076 68.3486 33.857 67.0363C33.8504 67.034 33.8536 67.7804 33.8702 67.8729C33.9263 68.2153 34.0651 68.5383 34.2601 68.8247C34.6104 69.3347 35.1688 69.6626 35.7636 69.8019C37.1085 70.1156 38.4898 69.2771 38.7475 67.9114C38.7475 67.9114 38.8632 68.6357 38.8929 68.7266C39.0019 69.0532 39.1837 69.3515 39.415 69.605C39.8545 70.0811 40.4823 70.3379 41.1234 70.3761C42.4419 70.4649 43.6513 69.4967 43.7504 68.1626C43.7537 68.1626 43.9288 68.8234 43.9652 68.907C44.0974 69.2017 44.2924 69.467 44.5303 69.684C45.0425 70.1482 45.7331 70.3715 46.4204 70.3181C47.0317 70.2704 47.6331 70.031 48.0627 69.5865C48.3006 69.3432 48.4856 69.0502 48.6013 68.7325C48.6377 68.6328 48.7831 67.8047 48.7698 67.8064C49.0441 69.0993 50.3494 69.9434 51.6513 69.6768C52.2527 69.5533 52.8277 69.2448 53.2011 68.75C53.4093 68.4737 53.558 68.1508 53.6306 67.8126C53.6538 67.7106 53.6769 66.8582 53.6571 66.8634C54.123 68.1649 55.5671 68.7483 56.8393 68.2545C57.4308 68.0454 57.9231 67.5943 58.1974 67.0327C58.3527 66.7169 58.4287 66.3735 58.4221 66.0222C58.4188 65.9228 58.2469 65.0747 58.2205 65.0889C58.9541 66.2965 60.5237 66.525 61.6472 65.7075C62.7839 64.8795 63.035 63.2889 62.0404 62.2419C62.0206 62.264 62.7145 62.6561 62.7971 62.6871C63.1309 62.8119 63.4944 62.8408 63.8512 62.7941C64.5253 62.7052 65.1201 62.2834 65.5035 61.73C66.2899 60.5517 65.9826 58.9667 64.6807 58.3168C64.6708 58.3389 65.4407 58.4663 65.5299 58.4663C65.8934 58.4692 66.2503 58.377 66.5708 58.2042C67.159 57.8855 67.6051 57.312 67.7703 56.6611C68.1041 55.3313 67.3738 53.9692 65.9958 53.6782C65.9859 53.7296 67.0004 53.533 67.1061 53.4882C67.5092 53.3206 67.8496 53.0424 68.1007 52.6885C68.5898 51.9994 68.6955 51.0654 68.3915 50.2798C68.2693 49.9657 68.5138 50.5942 68.3915 50.2798" fill="#F2CC46"/>
<path d="M63.6291 44.8831C63.3516 44.1743 62.684 43.691 61.9174 43.6538C61.9174 43.6653 62.5386 43.473 62.6113 43.4368C62.8757 43.3031 63.1037 43.1082 63.2788 42.8728C63.5994 42.4464 63.7216 41.9045 63.6556 41.3804C63.5267 40.3693 62.6312 39.5814 61.6002 39.6335C61.5969 39.6282 61.5969 39.6232 61.5969 39.6183C62.6841 39.3967 63.3053 38.304 63.0409 37.2491C62.9186 36.7737 62.6576 36.3553 62.2512 36.0701C62.0199 35.9072 61.7522 35.8018 61.4713 35.76C61.3821 35.7472 60.6452 35.7781 60.6518 35.8015C61.6564 35.3402 62.0232 34.13 61.5143 33.1646C61.0087 32.2036 59.8521 31.7664 58.8674 32.3116C58.874 32.3205 59.2937 31.8312 59.3367 31.7621C59.4721 31.5339 59.5514 31.2801 59.5779 31.0167C59.6374 30.4853 59.449 29.9404 59.1021 29.5374C58.3916 28.7157 57.1689 28.5481 56.3329 29.2912C56.3362 29.2938 56.6237 28.77 56.6502 28.6979C56.7427 28.4345 56.7691 28.156 56.7361 27.8791C56.6766 27.3516 56.3825 26.8723 55.9629 26.5496C55.1004 25.877 53.8447 25.9916 53.1904 26.8914C53.2003 26.896 53.3688 26.2787 53.3755 26.1987C53.4019 25.9126 53.359 25.6245 53.2532 25.3571C53.0715 24.8873 52.6948 24.51 52.2388 24.295C51.2507 23.8226 50.0512 24.2035 49.6051 25.2202C49.6084 25.2212 49.6481 24.6275 49.6415 24.5512C49.615 24.2753 49.5225 24.0135 49.3771 23.7768C49.116 23.3475 48.6832 23.0436 48.2007 22.9119C47.1103 22.6146 45.9636 23.2342 45.7456 24.3622C45.7522 24.3632 45.6431 23.7333 45.6167 23.657C45.5274 23.4087 45.3854 23.1855 45.2003 22.9982C44.8236 22.6192 44.2883 22.4013 43.753 22.4131C43.2111 22.425 42.6956 22.6136 42.3089 23.0044C42.1272 23.1924 41.9851 23.4189 41.8959 23.6675C41.8695 23.7439 41.767 24.3734 41.7736 24.3727C41.5522 23.278 40.4816 22.6847 39.4176 22.906C38.9219 23.0087 38.4725 23.3096 38.1883 23.7244C38.033 23.9539 37.9273 24.2124 37.8876 24.4873C37.8744 24.5716 37.9041 25.2544 37.9173 25.2501C37.4646 24.2328 36.2883 23.8805 35.2969 24.3273C34.8112 24.5459 34.4246 24.9627 34.2494 25.4615C34.1635 25.6985 34.1272 25.9484 34.147 26.1996C34.1536 26.2843 34.3254 26.9467 34.3387 26.9391C33.6778 26.0403 32.4518 25.9481 31.5828 26.596C31.1532 26.9138 30.8657 27.4033 30.7996 27.9288C30.7699 28.179 30.7864 28.4309 30.8591 28.6725C30.8855 28.7538 31.1994 29.3646 31.2094 29.3544C30.37 28.6149 29.1507 28.7907 28.4403 29.6132C27.7298 30.4386 27.8322 31.7048 28.698 32.3741C28.7013 32.3699 28.1297 32.1815 28.057 32.17C27.7728 32.1256 27.482 32.146 27.211 32.2345C26.6922 32.4048 26.2957 32.7761 26.0445 33.2535C25.5357 34.2195 25.9256 35.4321 26.9235 35.8864C26.9334 35.8634 26.1899 35.8357 26.104 35.8489C25.8231 35.892 25.5555 35.9984 25.3242 36.163C24.921 36.4511 24.6633 36.8712 24.541 37.3463C24.4055 37.8944 24.4981 38.493 24.8285 38.9572C24.9706 39.161 25.1556 39.3345 25.3704 39.4646C25.4332 39.5047 25.995 39.7319 25.9983 39.7253C25.0301 39.6782 24.1643 40.3762 23.9727 41.3175C23.7414 42.4613 24.4981 43.6126 25.6877 43.7301C25.6877 43.718 25.0598 43.8799 24.9871 43.9125C24.7459 44.0212 24.5245 44.1805 24.3461 44.3774C23.9892 44.7715 23.824 45.3042 23.8504 45.8294C23.8768 46.337 24.0751 46.8141 24.4353 47.1762C24.6236 47.3639 24.8549 47.5065 25.1061 47.5967C25.1854 47.626 25.9223 47.7458 25.919 47.7172C24.8021 47.9526 24.2238 49.0463 24.4816 50.1193C24.6005 50.6122 24.9343 51.0599 25.3671 51.3217C25.6117 51.4711 25.8859 51.5623 26.1767 51.5795C26.256 51.5841 26.9797 51.4988 26.9665 51.4682C25.9025 51.988 25.6645 53.248 26.2726 54.213C26.5435 54.6394 26.9962 54.9696 27.4952 55.0707C27.7662 55.1257 28.047 55.123 28.3147 55.0516C28.394 55.0302 29.0945 54.6944 29.0615 54.6595C28.2486 55.4885 28.427 56.79 29.3424 57.4616C30.2478 58.1253 31.5134 57.9604 32.1148 56.975C32.1016 56.9674 31.9562 57.5745 31.9529 57.6466C31.9297 57.9327 31.976 58.2257 32.0949 58.4878C32.313 58.9748 32.7228 59.3527 33.2251 59.5351C34.2527 59.9312 35.4225 59.4528 35.7827 58.3946C35.7761 58.3927 35.7794 58.9945 35.7926 59.0689C35.8389 59.3451 35.9512 59.6056 36.1098 59.8367C36.3907 60.2479 36.8401 60.5123 37.3226 60.6246C38.4064 60.8774 39.5167 60.2012 39.7282 59.1002C39.7282 59.1002 39.8207 59.6843 39.8438 59.7577C39.933 60.0211 40.0785 60.2614 40.2668 60.4659C40.6204 60.8494 41.126 61.0568 41.6414 61.0875C42.7055 61.1592 43.6803 60.3786 43.7596 59.3027C43.7629 59.3027 43.905 59.8357 43.9347 59.9032C44.0405 60.1406 44.1958 60.3546 44.3907 60.5294C44.8038 60.9037 45.3589 61.0838 45.9141 61.0407C46.4064 61.0025 46.8922 60.8093 47.2392 60.4507C47.4275 60.2548 47.5795 60.0184 47.672 59.7623C47.7018 59.682 47.8207 59.0143 47.8075 59.0156C48.0289 60.0579 49.083 60.7388 50.1305 60.5235C50.6163 60.4241 51.0789 60.1755 51.3829 59.7761C51.5514 59.5536 51.6704 59.2935 51.7266 59.0205C51.7464 58.9382 51.7662 58.2508 51.7497 58.255C52.1231 59.3046 53.2896 59.7751 54.3139 59.3768C54.7931 59.2082 55.1896 58.8444 55.411 58.3917C55.5333 58.1372 55.596 57.8603 55.5894 57.5768C55.5894 57.4968 55.4507 56.8127 55.4275 56.8242C56.0223 57.7981 57.2846 57.9821 58.19 57.323C59.1086 56.6556 59.3102 55.3729 58.5106 54.5288C58.4907 54.5465 59.0525 54.8626 59.1186 54.8876C59.3895 54.9884 59.6836 55.0114 59.9678 54.9739C60.513 54.9021 60.9922 54.562 61.2995 54.1159C61.9373 53.1657 61.6861 51.8879 60.6386 51.3638C60.6287 51.3816 61.2499 51.484 61.3226 51.4843C61.6167 51.4866 61.9042 51.4125 62.1619 51.2729C62.6378 51.0161 62.998 50.5536 63.1301 50.0288C63.3978 48.9564 62.8096 47.8581 61.696 47.6234C61.6927 47.6648 62.5089 47.5061 62.5948 47.4703C62.9186 47.3349 63.1929 47.1107 63.3945 46.8253C63.791 46.2695 63.877 45.5166 63.6291 44.8831C63.53 44.6299 63.7283 45.1366 63.6291 44.8831" fill="#F8E298"/>
<path d="M36.2626 34.1549C37.5909 34.4548 38.9127 34.8927 40.0131 35.6927C41.1135 36.4928 41.9726 37.6988 42.1048 39.0493C42.2964 41.0027 40.9912 42.7772 39.6 44.1669C36.9664 46.7972 33.5694 48.9083 29.8453 49.0719C31.3522 48.5869 32.7565 47.7961 33.9527 46.7617C31.2299 48.2406 27.8429 48.4414 24.9614 47.2947C26.7425 47.8201 28.7152 47.6717 30.3972 46.8851C28.0907 47.3717 25.5793 46.6428 23.8346 45.0605C22.0931 43.4782 21.1382 41.0981 21.2142 38.7504C21.2439 37.7794 21.4719 36.7611 22.1394 36.0542C22.6318 35.5344 23.3092 35.2367 23.98 34.9862C27.8792 33.5313 32.2047 33.2386 36.2626 34.1549" fill="#F7A80E"/>
<path d="M51.3474 34.1549C50.019 34.4548 48.6939 34.8927 47.5935 35.6927C46.4965 36.4928 45.6373 37.6988 45.5052 39.0493C45.3135 41.0027 46.6154 42.7772 48.0066 44.1669C50.6402 46.7972 54.0372 48.9083 57.7646 49.0719C56.2578 48.5869 54.8501 47.7961 53.6572 46.7617C56.38 48.2406 59.767 48.4414 62.6452 47.2947C60.8641 47.8201 58.8947 47.6717 57.2127 46.8851C59.5192 47.3717 62.0306 46.6428 63.772 45.0605C65.5168 43.4782 66.4717 41.0981 66.3957 38.7504C66.3627 37.7794 66.138 36.7611 65.4705 36.0542C64.9781 35.5344 64.2974 35.2367 63.6266 34.9862C59.7307 33.5313 55.4052 33.2386 51.3474 34.1549" fill="#F7A80E"/>
<path d="M68.074 31.9647C68.074 38.6413 62.6448 44.054 55.9434 44.054C49.2421 44.054 43.8096 38.6413 43.8096 31.9647C43.8096 25.2878 49.2421 19.8755 55.9434 19.8755C62.6448 19.8755 68.074 25.2878 68.074 31.9647Z" fill="#523B1A"/>
<path d="M66.4512 32.3577C66.4512 38.4064 61.5309 43.3101 55.4573 43.3101C49.3871 43.3101 44.4668 38.4064 44.4668 32.3577C44.4668 26.309 49.3871 21.4053 55.4573 21.4053C61.5309 21.4053 66.4512 26.309 66.4512 32.3577Z" fill="#D1B86C"/>
<path d="M66.4512 32.3577C66.4512 38.4064 61.5309 43.3101 55.4573 43.3101C49.3871 43.3101 44.4668 38.4064 44.4668 32.3577C44.4668 26.309 49.3871 21.4053 55.4573 21.4053C61.5309 21.4053 66.4512 26.309 66.4512 32.3577Z" fill="#D1B86C"/>
<path d="M65.3976 32.3584C65.3976 37.8277 60.9498 42.2615 55.4579 42.2615C49.9692 42.2615 45.5215 37.8277 45.5215 32.3584C45.5215 26.8891 49.9692 22.4553 55.4579 22.4553C60.9498 22.4553 65.3976 26.8891 65.3976 32.3584Z" fill="#F3ED99"/>
<path d="M60.2193 27.6144C60.2193 30.2345 58.0879 32.3584 55.4576 32.3584C52.8306 32.3584 50.6992 30.2345 50.6992 27.6144C50.6992 24.9947 52.8306 22.8708 55.4576 22.8708C58.0879 22.8708 60.2193 24.9947 60.2193 27.6144Z" fill="#D4C18D"/>
<path d="M58.9044 27.6141C58.9044 29.5098 57.3612 31.0464 55.4578 31.0464C53.5578 31.0464 52.0146 29.5098 52.0146 27.6141C52.0146 25.7187 53.5578 24.1822 55.4578 24.1822C57.3612 24.1822 58.9044 25.7187 58.9044 27.6141Z" fill="#2E2227"/>
<path d="M55.4571 26.6082C55.4571 27.1636 55.0077 27.6136 54.4493 27.6136C53.8908 27.6136 53.4414 27.1636 53.4414 26.6082C53.4414 26.0527 53.8908 25.6027 54.4493 25.6027C55.0077 25.6027 55.4571 26.0527 55.4571 26.6082Z" fill="white"/>
<path d="M49.1296 27.0541C50.2333 27.3046 50.7687 29.0921 50.3226 31.0461C49.8732 33.0004 48.6175 34.3812 47.5105 34.1307C46.4068 33.8798 45.8748 32.0924 46.3209 30.1384C46.767 28.184 48.026 26.8032 49.1296 27.0541" fill="white"/>
<path d="M57.678 40.4705C52.4338 40.4705 47.9233 37.3566 45.9043 32.8842C46.0233 36.463 48.2141 39.8081 51.7598 41.2363C54.9023 42.5015 58.329 41.9484 60.8634 40.0747C59.8457 40.3329 58.775 40.4705 57.678 40.4705" fill="#D4C18D"/>
<path d="M18.5303 31.9647C18.5303 38.6413 23.9628 44.054 30.6641 44.054C37.3655 44.054 42.798 38.6413 42.798 31.9647C42.798 25.2878 37.3655 19.8755 30.6641 19.8755C23.9628 19.8755 18.5303 25.2878 18.5303 31.9647Z" fill="#523B1A"/>
<path d="M20.1562 32.3577C20.1562 38.4064 25.0766 43.3101 31.1468 43.3101C37.2203 43.3101 42.1406 38.4064 42.1406 32.3577C42.1406 26.309 37.2203 21.4053 31.1468 21.4053C25.0766 21.4053 20.1562 26.309 20.1562 32.3577Z" fill="#D1B86C"/>
<path d="M20.1562 32.3577C20.1562 38.4064 25.0766 43.3101 31.1468 43.3101C37.2203 43.3101 42.1406 38.4064 42.1406 32.3577C42.1406 26.309 37.2203 21.4053 31.1468 21.4053C25.0766 21.4053 20.1562 26.309 20.1562 32.3577Z" fill="#D1B86C"/>
<path d="M21.2109 32.3584C21.2109 37.8277 25.6587 42.2615 31.1474 42.2615C36.6393 42.2615 41.0871 37.8277 41.0871 32.3584C41.0871 26.8891 36.6393 22.4553 31.1474 22.4553C25.6587 22.4553 21.2109 26.8891 21.2109 32.3584Z" fill="#F3ED99"/>
<path d="M26.3887 27.6144C26.3887 30.2345 28.52 32.3584 31.147 32.3584C33.7774 32.3584 35.9087 30.2345 35.9087 27.6144C35.9087 24.9947 33.7774 22.8708 31.147 22.8708C28.52 22.8708 26.3887 24.9947 26.3887 27.6144Z" fill="#D4C18D"/>
<path d="M27.7041 27.6141C27.7041 29.5098 29.2473 31.0464 31.1473 31.0464C33.0507 31.0464 34.5938 29.5098 34.5938 27.6141C34.5938 25.7187 33.0507 24.1822 31.1473 24.1822C29.2473 24.1822 27.7041 25.7187 27.7041 27.6141Z" fill="#2E2227"/>
<path d="M31.1465 26.6082C31.1465 27.1636 31.5992 27.6136 32.1576 27.6136C32.7161 27.6136 33.1655 27.1636 33.1655 26.6082C33.1655 26.0527 32.7161 25.6027 32.1576 25.6027C31.5992 25.6027 31.1465 26.0527 31.1465 26.6082Z" fill="white"/>
<path d="M24.2668 27.7474C25.3903 27.8771 26.1173 29.596 25.886 31.5869C25.6547 33.5778 24.5543 35.087 23.4308 34.9573C22.304 34.8279 21.5803 33.109 21.8116 31.1178C22.0396 29.1269 23.14 27.618 24.2668 27.7474Z" fill="white"/>
<path d="M28.9296 40.4705C34.1737 40.4705 38.6843 37.3566 40.7033 32.8842C40.5843 36.463 38.3935 39.8081 34.8478 41.2363C31.7053 42.5015 28.2786 41.9484 25.7441 40.0747C26.7619 40.3329 27.8292 40.4705 28.9296 40.4705" fill="#D4C18D"/>
<path d="M45.2766 33.52C44.9726 33.1881 44.619 32.8898 44.2026 32.7868C43.8028 32.687 43.3369 32.8125 43.089 33.1763C42.8379 32.8118 42.3753 32.6854 41.9721 32.7845C41.5591 32.8862 41.2022 33.1838 40.8982 33.5147C39.279 35.2764 38.8329 38.0605 39.203 40.5538C39.5731 43.0471 40.6404 45.331 41.6946 47.5658C41.7739 47.7308 42.4314 48.7534 43.0824 48.7544C43.7301 48.7551 44.3678 47.7338 44.4438 47.5688C45.5046 45.3366 46.5785 43.055 46.9552 40.5627C47.3286 38.0704 46.8924 35.285 45.2766 33.52" fill="#2D1615"/>
<path d="M41.8464 33.2207C41.5424 33.2753 41.3176 33.5344 41.1326 33.7896C39.8339 35.603 39.411 37.9686 39.5729 40.2199C39.7481 42.7148 40.6039 45.1545 42.0149 47.1878C42.2594 47.5401 42.6163 47.9194 43.0261 47.8305C43.4953 47.7284 43.6374 47.1154 43.6803 46.6206C44.0405 42.5275 44.3049 38.2988 43.0426 34.4013C42.9467 34.1056 42.841 33.8057 42.6427 33.5687C42.4478 33.3316 42.1438 33.1667 41.8464 33.2207" fill="#EE8B40"/>
<path d="M43.9487 33.2182C43.5356 33.3169 43.3406 33.7785 43.2184 34.1832C41.966 38.3312 41.7777 42.7943 42.6798 47.0323C42.7426 47.3319 42.8516 47.6782 43.1457 47.7737C43.5092 47.8935 43.8429 47.533 44.0511 47.2091C45.9214 44.2631 46.7706 40.6836 46.4171 37.2141C46.2783 35.8445 45.895 34.3896 44.8243 33.5175C44.5765 33.3153 44.2593 33.1438 43.9487 33.2182" fill="#F2591D"/>
<path d="M44.0509 41.1275C44.0509 44.486 43.5718 47.2085 42.9869 47.2085C42.3987 47.2085 41.9229 44.486 41.9229 41.1275C41.9229 37.769 42.3987 35.0465 42.9869 35.0465C43.5718 35.0465 44.0509 37.769 44.0509 41.1275Z" fill="#F3DE3E"/>
<path d="M43.1254 39.105C43.3633 39.0319 43.4591 38.7517 43.4922 38.5074C43.6078 37.7357 43.4723 36.9303 43.1155 36.2366C42.5405 36.7888 42.3125 37.6445 42.4447 38.4277C42.4744 38.6072 42.524 38.7895 42.6396 38.9301C42.7586 39.0704 42.9536 39.1589 43.1254 39.105" fill="white"/>
<path d="M43.3201 41.0455C43.1978 40.5777 43.0755 40.1099 42.95 39.6423C42.6889 40.1171 42.57 40.6692 42.6162 41.2092C42.6261 41.3587 42.6526 41.5127 42.7385 41.6362C42.8244 41.76 42.983 41.8446 43.1251 41.8041C43.2672 41.7649 43.3564 41.6201 43.3762 41.4755C43.3961 41.3313 43.3564 41.1861 43.3201 41.0455" fill="white"/>
<path d="M34.3066 84.984C33.7019 84.5537 32.8494 84.8461 32.2414 85.2714C30.8568 86.2394 29.9778 87.8013 29.5549 89.4313C29.1286 91.0614 29.122 92.7691 29.2013 94.4512C29.2112 94.7027 29.2575 95.003 29.4855 95.1083C29.7961 95.2496 30.1001 94.9148 30.2752 94.6247C31.2005 93.0911 32.1257 91.5572 33.0542 90.0233C33.5466 89.2035 34.0456 88.3814 34.4487 87.5135C34.6437 87.0964 34.8188 86.6582 34.8353 86.1989C34.8519 85.7396 34.6833 85.2507 34.3066 84.984" fill="#EDA263"/>
<path d="M33.6089 85.1225C33.2619 85.1225 32.8389 85.2815 32.4424 85.5581C31.2462 86.396 30.3408 87.8028 29.8914 89.5195C29.4684 91.1518 29.4783 92.8471 29.551 94.4356C29.5642 94.751 29.6303 94.7902 29.6336 94.7905L29.6369 94.7919C29.6799 94.7919 29.8253 94.6872 29.974 94.4445L32.753 89.8431C33.2355 89.0408 33.7344 88.2157 34.1276 87.3663C34.3028 86.9906 34.468 86.5873 34.4812 86.1863C34.4944 85.8811 34.3986 85.4798 34.1045 85.269C33.9657 85.1706 33.8038 85.1225 33.6089 85.1225V85.1225ZM29.6369 95.4918C29.5345 95.4918 29.4354 95.4698 29.3395 95.4263C28.8835 95.2182 28.8604 94.673 28.8505 94.4676C28.7745 92.8244 28.7646 91.0662 29.214 89.344C29.6997 87.4667 30.7043 85.9186 32.0393 84.9852C32.34 84.7752 32.9414 84.4229 33.6089 84.4229C33.9492 84.4229 34.2532 84.5158 34.511 84.6991C34.9505 85.0106 35.2082 85.5901 35.1851 86.212C35.1652 86.7368 34.9736 87.2185 34.7654 87.6606C34.3557 88.5446 33.8468 89.3858 33.3577 90.1994L30.5754 94.8054C30.4201 95.0618 30.0929 95.4918 29.6369 95.4918" fill="#292625"/>
<path d="M33.2485 87.8941C33.3245 87.5069 33.384 87.1059 33.2981 86.7204C33.1527 87.4358 32.6703 88.0758 32.0226 88.4199C32.1581 88.9493 32.1746 89.5245 31.9664 90.0308C31.7582 90.5369 31.3055 90.9593 30.7636 91.0403C30.8396 91.9773 30.6513 92.9347 30.2217 93.7726C31.0114 92.3891 31.7979 91.0054 32.5876 89.6216C32.733 89.3664 32.8784 89.1103 32.9875 88.8373C33.1097 88.5341 33.1857 88.2144 33.2485 87.8941" fill="#DC7029"/>
<path d="M36.5265 84.984C37.1313 84.5537 37.9871 84.8461 38.5951 85.2714C39.9764 86.2394 40.8586 87.8013 41.2816 89.4313C41.7046 91.0614 41.7112 92.7691 41.6352 94.4512C41.622 94.7027 41.579 95.003 41.3477 95.1083C41.0404 95.2496 40.7331 94.9148 40.5579 94.6247C39.6327 93.0911 38.7075 91.5572 37.7822 90.0233C37.2866 89.2035 36.7909 88.3814 36.3845 87.5135C36.1928 87.0964 36.0176 86.6582 36.0011 86.1989C35.9846 85.7396 36.1498 85.2507 36.5265 84.984" fill="#EDA263"/>
<path d="M37.2238 85.1225C37.0321 85.1225 36.8702 85.1706 36.7314 85.269C36.434 85.4798 36.3415 85.8811 36.3514 86.1863C36.3646 86.588 36.5298 86.9906 36.705 87.3663C37.1015 88.2183 37.6005 89.0444 38.0829 89.8431L40.862 94.4445C41.0074 94.6862 41.1527 94.7912 41.1957 94.7919C41.2023 94.7892 41.2684 94.7471 41.2816 94.4356C41.3576 92.8474 41.3642 91.1528 40.9413 89.5195C40.4952 87.8032 39.5897 86.3963 38.3902 85.5584C37.997 85.2816 37.5707 85.1225 37.2238 85.1225V85.1225ZM41.199 94.7919V95.1418V94.7919ZM41.199 95.4918C40.7397 95.4918 40.4125 95.0615 40.2572 94.8054L37.4815 90.204C36.9891 89.3891 36.4803 88.5469 36.0672 87.6609C35.8623 87.2191 35.6674 86.7374 35.6476 86.212C35.6277 85.5901 35.8855 85.0106 36.3217 84.6991C36.5794 84.5158 36.8834 84.4229 37.2238 84.4229C37.8913 84.4229 38.496 84.7752 38.7967 84.9856C40.1284 85.919 41.1329 87.467 41.622 89.344C42.0714 91.0718 42.0582 92.9037 41.9855 94.4676C41.9756 94.6533 41.9491 95.2179 41.4931 95.4263C41.4006 95.4698 41.3014 95.4918 41.199 95.4918" fill="#292625"/>
<path d="M38.939 88.1515C38.8795 88.7613 38.9853 89.3862 39.2397 89.9439C39.3289 90.1414 39.4413 90.3344 39.6032 90.4766C39.7684 90.6192 39.9931 90.7051 40.2079 90.6623C40.1055 91.2269 40.2806 91.8031 40.4921 92.3358C40.6309 92.6815 40.7895 93.0206 40.9613 93.3508C40.849 93.3008 40.7664 93.2014 40.6904 93.1052C40.2971 92.6051 39.9171 92.0931 39.5371 91.5812C39.3653 91.3497 39.1935 91.1186 39.0216 90.8872C38.9159 90.7443 38.8101 90.6011 38.7077 90.4552C38.0006 89.4372 37.4983 88.275 37.2471 87.0611C37.1711 86.6996 37.1249 86.2986 37.3198 85.9835C37.7098 86.8115 38.146 87.688 38.939 88.1515" fill="#DC7029"/>
<path d="M37.5475 88.6559C37.5475 91.1568 36.5694 95.801 35.36 95.801C34.1539 95.801 33.1758 91.1568 33.1758 88.6559C33.1758 86.1554 34.1539 84.1283 35.36 84.1283C36.5694 84.1283 37.5475 86.1554 37.5475 88.6559Z" fill="#EDA263"/>
<path d="M35.3601 84.4777C34.4943 84.4777 33.5261 86.1933 33.5261 88.6553C33.5261 91.4496 34.6067 95.4504 35.3601 95.4504C36.1168 95.4504 37.194 91.4496 37.194 88.6553C37.194 86.1933 36.2292 84.4777 35.3601 84.4777ZM35.3601 96.1504C33.6881 96.1504 32.8223 90.8971 32.8223 88.6553C32.8223 85.9204 33.9392 83.7777 35.3601 83.7777C36.7843 83.7777 37.8979 85.9204 37.8979 88.6553C37.8979 90.8971 37.0354 96.1504 35.3601 96.1504Z" fill="#292625"/>
<path d="M31.398 87.2154C31.4079 87.3767 31.5169 87.515 31.626 87.6328C31.7218 87.7346 31.8407 87.8356 31.9795 87.8376C32.2009 87.8406 32.3397 87.6098 32.4356 87.4103C32.5545 87.1525 32.6768 86.8891 32.7065 86.6066C32.7395 86.3241 32.6635 86.014 32.4488 85.8286C32.158 86.0966 31.8837 86.3854 31.6326 86.6915C31.507 86.8437 31.3814 87.0195 31.398 87.2154" fill="#F3ED99"/>
<path d="M31.0119 87.9857C30.9161 88.0038 30.8566 88.0944 30.8104 88.178C30.3907 88.9333 30.2023 89.813 30.275 90.6726C30.2816 90.7651 30.3081 90.8761 30.3973 90.905C30.503 90.9409 30.5956 90.8257 30.6517 90.7266C30.8698 90.3351 31.0879 89.9434 31.306 89.5519C31.425 89.3356 31.5505 89.1051 31.5406 88.8579C31.5274 88.6109 31.2564 87.9396 31.0119 87.9857" fill="#F3ED99"/>
<path d="M29.9975 93.4377C30.1759 93.0337 30.2784 92.5994 30.3081 92.1602C30.318 92.0071 30.318 91.8484 30.2552 91.7072C30.1958 91.566 30.0636 91.4458 29.9083 91.4431C29.7794 91.8488 29.7067 92.2722 29.6935 92.6975C29.6836 92.9672 29.7034 93.2579 29.8752 93.468C29.8885 93.4851 29.905 93.5029 29.9281 93.5042C29.9611 93.5065 29.9843 93.4696 29.9975 93.4377" fill="#F3ED99"/>
<path d="M34.0748 88.6692C34.131 88.8592 34.2401 89.0604 34.4317 89.1134C34.6168 89.1654 34.8183 89.0482 34.9241 88.8852C35.0298 88.7226 35.0596 88.5237 35.086 88.3314C35.2149 87.3016 35.2413 86.2592 35.1686 85.2238C35.1587 85.1135 35.1124 84.9686 35.0034 84.9762C34.9439 84.9798 34.901 85.0266 34.8646 85.0707C34.3524 85.7084 34.1277 86.5318 34.0253 87.3431C33.9691 87.7852 33.9493 88.2422 34.0748 88.6692" fill="#F3ED99"/>
<path d="M34.5574 89.5201C34.4814 89.5372 34.4054 89.5807 34.3624 89.6488C34.336 89.689 34.3228 89.7358 34.3129 89.7822C34.1642 90.384 34.2864 91.0178 34.4583 91.6124C34.5012 91.7606 34.5508 91.9133 34.6565 92.0256C34.716 92.0891 34.8019 92.1392 34.8878 92.123C35.0167 92.0987 35.0762 91.9489 35.1026 91.8211C35.2051 91.3675 35.248 90.9009 35.2348 90.436C35.2315 90.2184 35.2084 89.9929 35.0993 89.8042C34.9936 89.6156 34.7722 89.4743 34.5574 89.5201" fill="#F3ED99"/>
<path d="M39.1566 86.6207C38.8691 86.2988 38.5585 85.981 38.1686 85.796C38.1157 85.7707 38.053 85.7476 37.9968 85.7677C37.9538 86.0104 38.0265 86.2619 38.1521 86.4752C38.2744 86.6889 38.4429 86.8706 38.6114 87.0504C38.7535 87.2005 38.8956 87.3507 39.0343 87.5008C39.1599 87.6328 39.3152 87.7767 39.497 87.7461C39.606 87.5673 39.5961 87.3329 39.5168 87.1373C39.4375 86.9421 39.2954 86.7781 39.1566 86.6207" fill="#F3ED99"/>
<path d="M40.297 89.2737C40.3796 88.9056 40.1945 88.5329 39.9764 88.2231C39.9169 88.1352 39.8112 88.0384 39.7187 88.0891C39.5501 88.4523 39.5568 88.8895 39.7352 89.2474C39.7749 89.33 39.8277 89.411 39.9037 89.4634C39.9797 89.5157 40.0855 89.5342 40.1648 89.4887C40.2408 89.4459 40.2771 89.3583 40.297 89.2737" fill="#F3ED99"/>
<path d="M35.2871 94.9354C35.6803 94.9285 35.915 94.5028 36.0471 94.1334C36.784 92.0928 37.0219 89.8767 36.7411 87.7265C36.6023 86.6742 36.285 85.5509 35.4292 84.9188C35.6737 87.18 35.7663 89.4569 35.7068 91.73C35.6969 92.1465 35.6803 92.563 35.6572 92.9791C35.6209 93.6455 35.5647 94.3273 35.2871 94.9354" fill="#DC7029"/>
<path d="M51.7299 84.984C51.1218 84.5537 50.2693 84.8461 49.6613 85.2714C48.2767 86.2394 47.3978 87.8013 46.9748 89.4313C46.5485 91.0614 46.5419 92.7691 46.6212 94.4512C46.6311 94.7027 46.6774 95.003 46.9054 95.1083C47.216 95.2496 47.52 94.9148 47.6952 94.6247C48.6204 93.0911 49.5489 91.5572 50.4742 90.0233C50.9698 89.2035 51.4655 88.3814 51.8686 87.5135C52.0636 87.0964 52.2387 86.6582 52.2553 86.1989C52.2718 85.7396 52.1033 85.2507 51.7299 84.984" fill="#EDA263"/>
<path d="M51.0293 85.1225C50.6823 85.1225 50.2594 85.2815 49.8628 85.5581C48.6666 86.3963 47.7612 87.8032 47.3151 89.5195C46.8889 91.1528 46.8988 92.8474 46.9715 94.4356C46.9847 94.751 47.0541 94.7902 47.0541 94.7905L47.0574 94.7919C47.1003 94.7919 47.249 94.6872 47.3944 94.4448L50.1735 89.8431C50.6559 89.0444 51.1549 88.2183 51.5481 87.3663C51.7265 86.9906 51.8884 86.588 51.905 86.1863C51.9149 85.8811 51.8223 85.4798 51.5249 85.269C51.3862 85.1706 51.2242 85.1225 51.0293 85.1225V85.1225ZM47.0574 95.4918C46.9549 95.4918 46.8558 95.4698 46.76 95.4263C46.304 95.2179 46.2775 94.6533 46.2709 94.4676C46.1982 92.9037 46.185 91.0718 46.6344 89.344C47.1201 87.467 48.1247 85.919 49.4597 84.9852C49.7604 84.7752 50.3618 84.4229 51.0293 84.4229C51.3696 84.4229 51.6737 84.5158 51.9314 84.6991C52.3709 85.0106 52.6286 85.5901 52.6055 86.212C52.5857 86.7374 52.394 87.2191 52.1858 87.6609C51.7761 88.5466 51.2672 89.3891 50.7749 90.204L47.9958 94.8054C47.8405 95.0615 47.5134 95.4918 47.0574 95.4918" fill="#292625"/>
<path d="M50.6695 87.8941C50.7455 87.5069 50.8049 87.1059 50.7223 86.7204C50.5736 87.4358 50.0912 88.0758 49.4468 88.4199C49.579 88.9493 49.5955 89.5245 49.3873 90.0308C49.1792 90.5369 48.7264 90.9593 48.1845 91.0403C48.2605 91.9773 48.0722 92.9347 47.6426 93.7726C48.4323 92.3891 49.2188 91.0054 50.0086 89.6216C50.154 89.3664 50.2993 89.1103 50.4084 88.8373C50.5307 88.5341 50.6067 88.2144 50.6695 87.8941" fill="#DC7029"/>
<path d="M53.9474 84.984C54.5521 84.5537 55.408 84.8461 56.016 85.2714C57.3972 86.2394 58.2795 87.8013 58.7025 89.4313C59.1255 91.0614 59.1321 92.7691 59.0561 94.4512C59.0429 94.7027 58.9999 95.003 58.7686 95.1083C58.4613 95.2496 58.1573 94.9148 57.9821 94.6247C57.0536 93.0911 56.1284 91.5572 55.2031 90.0233C54.7075 89.2035 54.2118 88.3814 53.8086 87.5135C53.6137 87.0964 53.4385 86.6582 53.422 86.1989C53.4055 85.7396 53.5707 85.2507 53.9474 84.984" fill="#EDA263"/>
<path d="M54.6479 85.1225C54.453 85.1225 54.2911 85.1706 54.1523 85.269C53.8549 85.4798 53.7623 85.8811 53.7723 86.1863C53.7855 86.5866 53.9507 86.9903 54.1258 87.3666C54.5224 88.2157 55.0181 89.0408 55.5005 89.8388L58.2828 94.4445C58.4282 94.6862 58.5736 94.7912 58.6199 94.7919C58.6265 94.7892 58.6893 94.7471 58.7058 94.4356C58.7785 92.8477 58.7884 91.1532 58.3621 89.5195C57.916 87.8032 57.0106 86.3963 55.8144 85.5581C55.4179 85.2815 54.9916 85.1225 54.6479 85.1225V85.1225ZM58.6199 94.7919V95.1418V94.7919ZM58.6199 95.4918C58.1639 95.4918 57.8334 95.0618 57.6781 94.8057L54.9024 90.204C54.4067 89.3858 53.9011 88.5446 53.4881 87.6609C53.2832 87.2178 53.0883 86.7358 53.0717 86.2116C53.0486 85.59 53.3064 85.0106 53.7425 84.6991C54.0003 84.5158 54.3043 84.4229 54.6479 84.4229C55.3121 84.4229 55.9168 84.7752 56.2175 84.9856C57.5492 85.919 58.5538 87.467 59.0428 89.344C59.4922 91.0722 59.479 92.9037 59.4063 94.4676C59.3964 94.673 59.37 95.2182 58.9173 95.4263C58.8214 95.4698 58.7223 95.4918 58.6199 95.4918" fill="#292625"/>
<path d="M56.3596 88.1515C56.3001 88.7613 56.4058 89.3862 56.6603 89.9439C56.7495 90.1414 56.8619 90.3344 57.0238 90.4766C57.189 90.6192 57.4137 90.7051 57.6285 90.6623C57.526 91.2269 57.7012 91.8031 57.916 92.3358C58.0548 92.6815 58.2101 93.0206 58.3819 93.3508C58.2695 93.3008 58.1902 93.2014 58.1142 93.1052C57.7177 92.6051 57.3377 92.0931 56.9577 91.5812C56.7859 91.3497 56.614 91.1186 56.4422 90.8872C56.3365 90.7443 56.2307 90.6011 56.1283 90.4552C55.4211 89.4372 54.9189 88.275 54.6677 87.0611C54.595 86.6996 54.5455 86.2986 54.7404 85.9835C55.1337 86.8115 55.5698 87.688 56.3596 88.1515" fill="#DC7029"/>
<path d="M54.9684 88.6559C54.9684 91.1568 53.9903 95.801 52.7809 95.801C51.5748 95.801 50.5967 91.1568 50.5967 88.6559C50.5967 86.1554 51.5748 84.1283 52.7809 84.1283C53.9903 84.1283 54.9684 86.1554 54.9684 88.6559Z" fill="#EDA263"/>
<path d="M52.781 84.4777C51.9152 84.4777 50.947 86.1933 50.947 88.6553C50.947 91.4496 52.0275 95.4504 52.781 95.4504C53.5377 95.4504 54.6149 91.4496 54.6149 88.6553C54.6149 86.1933 53.65 84.4777 52.781 84.4777ZM52.781 96.1504C51.1089 96.1504 50.2432 90.8971 50.2432 88.6553C50.2432 85.9204 51.3601 83.7777 52.781 83.7777C54.2052 83.7777 55.3188 85.9204 55.3188 88.6553C55.3188 90.8971 54.4563 96.1504 52.781 96.1504Z" fill="#292625"/>
<path d="M48.8193 87.2154C48.8325 87.3767 48.9383 87.515 49.0473 87.6328C49.1431 87.7346 49.2621 87.8356 49.4009 87.8376C49.6223 87.8406 49.7644 87.6098 49.8569 87.4103C49.9759 87.1525 50.0981 86.8891 50.1279 86.6066C50.1609 86.3241 50.0882 86.014 49.8701 85.8286C49.5793 86.0966 49.3051 86.3854 49.0539 86.6915C48.9317 86.8437 48.8061 87.0195 48.8193 87.2154" fill="#F3ED99"/>
<path d="M48.4326 87.9857C48.3368 88.0038 48.2773 88.0944 48.2311 88.178C47.8147 88.9333 47.6231 89.813 47.6958 90.6726C47.7024 90.7651 47.7288 90.8761 47.818 90.905C47.9238 90.9409 48.0196 90.8257 48.0724 90.7266C48.2905 90.3351 48.5087 89.9434 48.7268 89.5519C48.849 89.3356 48.9713 89.1051 48.9614 88.8579C48.9514 88.6109 48.6772 87.9396 48.4326 87.9857" fill="#F3ED99"/>
<path d="M47.4208 93.4377C47.5959 93.0337 47.6983 92.5994 47.7281 92.1602C47.738 92.0071 47.738 91.8484 47.6785 91.7072C47.6157 91.566 47.4835 91.4458 47.3315 91.4431C47.1994 91.8488 47.1266 92.2722 47.1134 92.6975C47.1035 92.9672 47.1233 93.2579 47.2952 93.468C47.3084 93.4851 47.3249 93.5029 47.3481 93.5042C47.3844 93.5065 47.4042 93.4696 47.4208 93.4377" fill="#F3ED99"/>
<path d="M51.4954 88.6692C51.5516 88.8592 51.6606 89.0604 51.8523 89.1134C52.0406 89.1654 52.2422 89.0482 52.3479 88.8852C52.4504 88.7226 52.4834 88.5237 52.5065 88.3314C52.6354 87.3016 52.6618 86.2592 52.5891 85.2238C52.5792 85.1135 52.533 84.9686 52.4239 84.9762C52.3644 84.9798 52.3215 85.0266 52.2851 85.0707C51.7729 85.7084 51.5483 86.5318 51.4458 87.3431C51.393 87.7852 51.3698 88.2422 51.4954 88.6692" fill="#F3ED99"/>
<path d="M51.9806 89.5201C51.9013 89.5372 51.8253 89.5807 51.7824 89.6488C51.7559 89.689 51.7427 89.7358 51.7328 89.7822C51.5841 90.384 51.7063 91.0178 51.8782 91.6124C51.9211 91.7606 51.9707 91.9133 52.0764 92.0256C52.1359 92.0891 52.2218 92.1392 52.3078 92.123C52.4366 92.0987 52.4961 91.9489 52.5225 91.8211C52.625 91.3675 52.668 90.9009 52.658 90.436C52.6514 90.2184 52.6316 89.9929 52.5225 89.8042C52.4135 89.6156 52.1921 89.4743 51.9806 89.5201" fill="#F3ED99"/>
<path d="M56.5775 86.6207C56.29 86.2988 55.9794 85.981 55.5895 85.796C55.5366 85.7707 55.4739 85.7476 55.4177 85.7677C55.3747 86.0104 55.4474 86.2619 55.573 86.4752C55.6952 86.6889 55.8638 86.8706 56.0356 87.0504C56.1744 87.2005 56.3165 87.3507 56.4586 87.5008C56.5808 87.6328 56.7394 87.7767 56.9179 87.7461C57.0302 87.5673 57.017 87.3329 56.9377 87.1373C56.8584 86.9421 56.7196 86.7781 56.5775 86.6207" fill="#F3ED99"/>
<path d="M57.7178 89.2737C57.8005 88.9056 57.6154 88.5329 57.3973 88.2231C57.3378 88.1352 57.2321 88.0384 57.1396 88.0891C56.971 88.4523 56.9777 88.8895 57.1561 89.2474C57.1957 89.33 57.2486 89.411 57.3246 89.4634C57.4006 89.5157 57.5064 89.5342 57.5857 89.4887C57.6617 89.4459 57.7013 89.3583 57.7178 89.2737" fill="#F3ED99"/>
<path d="M52.708 94.9354C53.1012 94.9285 53.3358 94.5028 53.468 94.1334C54.2049 92.0928 54.4461 89.8767 54.162 87.7265C54.0232 86.6742 53.7059 85.5509 52.8501 84.9188C53.0946 87.18 53.1871 89.4569 53.1276 91.73C53.1177 92.1465 53.1012 92.563 53.0781 92.9791C53.0417 93.6455 52.9856 94.3273 52.708 94.9354" fill="#DC7029"/>
<path d="M74.2729 40.5819C78.4001 48.2867 80.558 57.0256 80.4985 65.7579C79.3584 63.1599 78.2184 60.5623 77.0784 57.9643C77.4088 61.2731 77.3626 64.6188 76.9495 67.918C76.8173 68.968 76.4637 70.2276 75.4328 70.4812C74.1738 70.7903 73.2221 69.2979 73.0536 68.0178C72.885 66.7381 72.9908 65.271 72.0755 64.3567C72.0127 67.9793 70.2647 71.5386 67.4295 73.811C67.1717 70.8502 66.9107 67.8897 66.6529 64.9289C66.3753 65.804 66.0879 66.7038 65.4964 67.4067C64.9049 68.1093 63.9268 68.5729 63.0511 68.2954C62.149 68.0102 61.6335 67.0683 61.3625 66.1668C60.0573 61.8608 62.2084 57.3255 64.5017 53.4508C66.795 49.576 69.3857 45.4559 69.0156 40.9734L74.2729 40.5819" fill="#F2591D"/>
<path d="M67.4293 74.1609C67.383 74.1609 67.3367 74.1517 67.2938 74.1329C67.1748 74.0822 67.0922 73.9699 67.0823 73.8412L66.4412 66.5371C66.2628 66.9233 66.0447 67.297 65.7638 67.6315C65.1393 68.3742 64.0257 68.9705 62.9418 68.6287C61.8448 68.2804 61.2929 67.1524 61.0253 66.2675C59.6771 61.8201 61.8745 57.2029 64.1975 53.2729L64.5214 52.7299C66.7287 49.0106 69.0088 45.1651 68.6651 41.0019C68.6486 40.8093 68.7907 40.6404 68.9856 40.6243C69.1839 40.6062 69.3491 40.7517 69.3656 40.9443C69.7291 45.3294 67.3896 49.2726 65.1261 53.0862L64.8022 53.6284C62.5552 57.4278 60.4272 61.8768 61.6961 66.0653C61.9175 66.789 62.347 67.7056 63.1566 67.9614C63.9232 68.205 64.7659 67.7273 65.2252 67.1814C65.7804 66.522 66.0546 65.6587 66.319 64.8238C66.3685 64.6644 66.5238 64.563 66.6891 64.5808C66.8576 64.5992 66.9865 64.7319 67.003 64.8985L67.7201 73.1037C70.1818 70.886 71.6655 67.6624 71.725 64.3503C71.725 64.2097 71.8142 64.0846 71.9431 64.0319C72.0753 63.9796 72.224 64.0099 72.3231 64.1093C73.136 64.9209 73.2285 66.0581 73.3211 67.158C73.3442 67.4329 73.3673 67.7072 73.4003 67.9726C73.5094 68.7868 73.9522 69.6062 74.4776 69.9651C74.7552 70.1557 75.0493 70.2143 75.35 70.1412C76.0108 69.9779 76.4338 69.2154 76.6023 67.8745C77.0121 64.6032 77.055 61.2805 76.7279 57.9984C76.7114 57.8272 76.8237 57.6688 76.989 57.6253C77.1575 57.5816 77.3293 57.6662 77.3987 57.8239L80.1315 64.0464C79.92 55.9337 77.8019 47.9132 73.9654 40.7464C73.8729 40.5759 73.9357 40.3638 74.1075 40.273C74.2793 40.1821 74.4941 40.2466 74.5834 40.4168C78.7436 48.1891 80.9113 56.9527 80.8485 65.7601C80.8485 65.9254 80.7296 66.0676 80.5677 66.1009C80.4057 66.1348 80.2405 66.0492 80.1744 65.898L77.5838 59.9922C77.7259 62.6505 77.63 65.3222 77.2996 67.9614C77.0914 69.6191 76.49 70.5811 75.5185 70.8208C75.0228 70.9416 74.5272 70.8461 74.0811 70.5429C73.3805 70.0652 72.8386 69.0916 72.7064 68.0631C72.6701 67.7869 72.6436 67.5021 72.6205 67.216C72.5709 66.6036 72.5214 66.012 72.3529 65.5003C71.9861 68.8296 70.2777 71.9757 67.6506 74.0835C67.5879 74.1345 67.5086 74.1609 67.4293 74.1609" fill="#292625"/>
<path d="M13.1806 40.5819C9.05667 48.2867 6.89558 57.0256 6.95836 65.7579C8.09839 63.1599 9.2384 60.5623 10.3751 57.9643C10.048 61.2731 10.091 64.6188 10.504 67.918C10.6362 68.968 10.9897 70.2276 12.0207 70.4812C13.2797 70.7903 14.2347 69.2979 14.3999 68.0178C14.5684 66.7381 14.466 65.271 15.3813 64.3567C15.4441 67.9793 17.1922 71.5386 20.0241 73.811C20.2851 70.8502 20.5429 67.8897 20.8039 64.9289C21.0782 65.804 21.369 66.7038 21.9605 67.4067C22.552 68.1093 23.5268 68.5729 24.4057 68.2954C25.3045 68.0102 25.82 67.0683 26.0943 66.1668C27.3995 61.8608 25.2451 57.3255 22.9551 53.4508C20.6618 49.576 18.0678 45.4559 18.4412 40.9734L13.1806 40.5819" fill="#F2591D"/>
<path d="M20.0247 74.1609C19.9454 74.1609 19.8694 74.1345 19.8033 74.0835C17.1763 71.9761 15.4712 68.8296 15.1011 65.5003C14.9359 66.0116 14.8864 66.6033 14.8335 67.2153C14.8104 67.5018 14.7872 67.7866 14.7509 68.0631C14.6154 69.0916 14.0768 70.0652 13.3729 70.5429C12.9301 70.8461 12.4345 70.9416 11.9388 70.8208C10.964 70.5811 10.3659 69.6191 10.1577 67.9614C9.82728 65.3212 9.73144 62.6495 9.87023 59.9922L7.27954 65.898C7.21345 66.0492 7.05156 66.1348 6.88633 66.1009C6.72442 66.0676 6.60875 65.9254 6.60875 65.7601C6.54597 56.9527 8.71037 48.1894 12.8706 40.4168C12.9632 40.2466 13.1747 40.1824 13.3465 40.273C13.5183 40.3638 13.5811 40.5759 13.4919 40.7464C9.65543 47.9132 7.5373 55.9341 7.32582 64.0464L10.0553 57.8239C10.1247 57.6662 10.2998 57.5815 10.465 57.6253C10.6336 57.6688 10.7426 57.8272 10.7261 57.9984C10.4023 61.2792 10.4419 64.6019 10.8549 67.8745C11.0235 69.2154 11.4431 69.9779 12.1073 70.1412C12.4047 70.2143 12.6988 70.1557 12.9797 69.9651C13.5051 69.6062 13.9479 68.7868 14.0536 67.9726C14.09 67.7069 14.1131 67.4329 14.1329 67.1574C14.2255 66.0577 14.3213 64.9209 15.1309 64.1093C15.23 64.0099 15.382 63.9796 15.5109 64.0319C15.6431 64.0846 15.729 64.2097 15.7323 64.3503C15.7885 67.6628 17.2755 70.8863 19.7339 73.1037L20.4543 64.8982C20.4675 64.7319 20.5997 64.5989 20.7649 64.5808C20.9302 64.5623 21.0888 64.6644 21.1383 64.8238C21.4027 65.6584 21.6736 66.5213 22.2288 67.1814C22.6881 67.7273 23.534 68.2037 24.3007 67.9614C25.107 67.7059 25.5398 66.7893 25.7579 66.0653C27.0268 61.8771 24.8988 57.4278 22.6517 53.6284L22.3312 53.0852C20.0677 49.272 17.7282 45.329 18.0916 40.9443C18.1082 40.7517 18.2701 40.6068 18.4716 40.6243C18.6633 40.6404 18.8087 40.8093 18.7922 41.0022C18.4452 45.1647 20.7286 49.0099 22.9359 52.7286L23.2565 53.2728C25.5828 57.2033 27.7769 61.8205 26.4287 66.2675C26.161 67.1524 25.6125 68.2804 24.5121 68.6287C23.4316 68.9708 22.318 68.3742 21.6902 67.6315C21.4093 67.297 21.1912 66.9236 21.0161 66.5374L20.375 73.8412C20.3618 73.9699 20.2825 74.0822 20.1635 74.1329C20.1173 74.1517 20.071 74.1609 20.0247 74.1609" fill="#292625"/>
<path d="M17.9497 44.5797C17.3913 49.6436 18.6139 54.8854 21.3533 59.1862C21.6342 59.6254 22.0869 60.1147 22.5826 59.9504C23.0485 59.7956 23.1476 59.1806 23.1047 58.6907C22.9361 56.657 21.8424 54.8373 20.937 53.0068C19.8696 50.8493 18.528 46.9143 17.9497 44.5797" fill="#F2CC46"/>
<path d="M25.1365 65.5573C25.2753 64.6371 25.1993 63.6849 24.9118 62.7996C24.7962 62.4506 24.6475 62.1026 24.3831 61.8455C24.1221 61.5884 23.7255 61.4386 23.3753 61.5475C23.101 63.0232 23.4215 64.5999 24.2476 65.8539C24.3468 66.0037 24.4756 66.1634 24.6574 66.1743C24.9449 66.1921 25.0936 65.8411 25.1365 65.5573Z" fill="#F2CC46"/>
<path d="M70.0139 44.5797C70.5724 49.6436 69.3497 54.8854 66.6104 59.1862C66.3295 59.6254 65.8768 60.1147 65.3811 59.9504C64.9119 59.7956 64.8161 59.1806 64.8557 58.6907C65.0276 56.657 66.1213 54.8373 67.0267 53.0068C68.0941 50.8493 69.4357 46.9143 70.0139 44.5797" fill="#F2CC46"/>
<path d="M62.8271 65.5573C62.6883 64.6371 62.7644 63.6849 63.0519 62.7996C63.1642 62.4506 63.3162 62.1026 63.5806 61.8455C63.8416 61.5884 64.2348 61.4386 64.5884 61.5475C64.8627 63.0232 64.5421 64.5999 63.716 65.8539C63.6169 66.0037 63.4847 66.1634 63.3063 66.1743C63.0188 66.1921 62.8701 65.8411 62.8271 65.5573Z" fill="#F2CC46"/>
<path d="M11.2812 17.1126C11.225 16.5618 10.5674 16.2381 10.0189 16.3336C9.47367 16.4291 9.02756 16.8127 8.61781 17.1893C7.32578 18.3841 6.10315 19.6764 5.19444 21.1803C4.28241 22.6839 3.69754 24.4187 3.75372 26.1738C3.76363 26.3997 3.78674 26.6436 3.94205 26.8106C4.14692 27.0358 4.52034 27.0318 4.788 26.8827C5.05566 26.7332 5.23739 26.4741 5.40922 26.2206C7.1804 23.5811 8.50546 20.618 10.6666 18.286C10.9772 17.9512 11.3275 17.5659 11.2812 17.1126Z" fill="white"/>
<path d="M8.6168 28.131C8.68949 28.2554 8.83158 28.3193 8.96376 28.3749C9.61804 28.6502 10.269 28.9251 10.9233 29.2003C12.4301 25.8098 14.578 22.7453 16.7061 19.7042C15.9262 19.2729 15.1728 18.7922 14.4524 18.2661C13.2628 19.5323 12.288 20.979 11.3198 22.4184C10.2129 24.058 9.08936 25.741 8.61021 27.6572C8.57056 27.8146 8.53749 27.9904 8.6168 28.131" fill="white"/>
<path d="M72.8523 17.3825C72.4789 16.6961 71.9072 16.1192 71.2232 15.7423C70.787 15.5032 70.3046 15.338 69.9345 15.0071C69.2009 15.5378 68.3814 15.951 67.5156 16.2259C68.4508 16.9575 69.2637 17.8477 69.9047 18.8473C70.8861 18.359 71.8676 17.8708 72.8523 17.3825" fill="white"/>
<path d="M77.9839 19.7294C77.8583 17.671 76.3317 15.9389 74.6002 14.8133C74.24 14.5805 73.8666 14.3639 73.4568 14.2391C73.0074 14.1031 72.5349 14.0804 72.069 14.0883C71.9104 14.0912 71.6923 14.168 71.7286 14.322C71.7418 14.3816 71.7947 14.4234 71.8443 14.4606C73.9129 16.0469 75.7336 17.9539 77.2206 20.0922C77.3164 20.2305 77.4354 20.3839 77.6039 20.3922C77.8947 20.407 78.0004 20.0175 77.9839 19.7294" fill="white"/>
<path d="M28.2984 81.0178C28.3942 80.9065 29.5442 81.7391 30.8659 82.8773C32.1877 84.0155 33.179 85.0282 33.0832 85.1395C32.9874 85.2504 31.8374 84.4178 30.5157 83.2796C29.1939 82.1415 28.2026 81.1287 28.2984 81.0178Z" fill="#292625"/>
<path d="M31.4641 77.3548C31.5434 77.3634 31.5764 77.6798 31.6293 78.1664C31.6921 78.655 31.8176 79.3148 32.0589 80.0147C32.3232 80.7071 32.6504 81.2928 32.9147 81.7096C33.189 82.1166 33.3674 82.3803 33.3112 82.4373C33.265 82.4866 32.9874 82.3148 32.6173 81.9414C32.2604 81.5605 31.8441 80.9501 31.5566 80.1955C31.2922 79.434 31.2195 78.6994 31.2526 78.1779C31.2955 77.6551 31.398 77.3463 31.4641 77.3548" fill="#292625"/>
<path d="M42.7062 81.3049C42.7623 81.3464 42.6136 81.6532 42.2865 82.0941C41.9528 82.5286 41.4174 83.0781 40.74 83.5753C40.0527 84.0606 39.3621 84.3915 38.8433 84.5699C38.3179 84.7401 37.9808 84.7846 37.9577 84.7187C37.9313 84.6456 38.2253 84.4764 38.688 84.2262C39.1506 83.9677 39.7751 83.6039 40.4294 83.1443C41.0705 82.6722 41.6157 82.1961 42.0056 81.8409C42.3922 81.4807 42.6434 81.2581 42.7062 81.3049" fill="#292625"/>
<path d="M48.6732 80.9715C48.7492 80.9485 48.9045 81.231 49.1491 81.6646C49.4035 82.0946 49.7835 82.6609 50.2924 83.2166C50.8178 83.7569 51.3597 84.1704 51.7761 84.4519C52.1958 84.7206 52.4667 84.8934 52.4403 84.9678C52.4171 85.031 52.09 84.9816 51.5944 84.7818C51.1086 84.5708 50.4741 84.1691 49.9025 83.5804C49.3506 82.9769 48.9871 82.3217 48.8054 81.8233C48.6369 81.3186 48.6071 80.9897 48.6732 80.9715" fill="#292625"/>
<path d="M57.9222 81.4836C58.0247 81.56 57.3473 82.5865 56.1808 83.537C54.9846 84.4559 53.828 84.88 53.7785 84.7634C53.7025 84.6136 54.707 83.998 55.8471 83.1205C56.964 82.2138 57.7934 81.3792 57.9222 81.4836" fill="#292625"/>
<path d="M57.8859 72.2505C58.0346 72.2633 58.1139 72.7157 58.0676 73.2609C58.0181 73.8061 57.8628 74.2381 57.7141 74.2256C57.5687 74.2127 57.4894 73.7604 57.5356 73.2151C57.5819 72.6699 57.7405 72.238 57.8859 72.2505Z" fill="#292625"/>
<path d="M60.2188 67.8075C60.3411 67.7575 60.8235 68.6912 61.0317 69.9591C61.2035 71.2316 61.0119 72.265 60.883 72.2522C60.7211 72.241 60.6682 71.2437 60.503 70.0371C60.308 68.8351 60.0668 67.8655 60.2188 67.8075Z" fill="#292625"/>
<path d="M27.1922 68.9671C27.2649 68.998 27.2318 69.2413 27.1657 69.6074C27.1129 69.9778 27.0534 70.4802 27.0567 71.039C27.0798 71.597 27.1591 72.0965 27.2318 72.4639C27.3144 72.8267 27.3574 73.068 27.288 73.1026C27.2252 73.1339 27.0567 72.9459 26.8749 72.584C26.7031 72.2202 26.5478 71.6724 26.5247 71.0511C26.518 70.4299 26.6469 69.8754 26.8055 69.5041C26.9708 69.1343 27.1294 68.9384 27.1922 68.9671" fill="#292625"/>
<path d="M30.4564 69.1203C30.6018 69.1453 30.5588 70.0846 30.3639 71.2189C30.1656 72.3527 29.888 73.2516 29.7426 73.2265C29.5972 73.2015 29.6402 72.2622 29.8352 71.128C30.0334 69.9941 30.311 69.0953 30.4564 69.1203Z" fill="#292625"/>
<path d="M34.8044 63.202C34.9498 63.2228 34.9796 63.8638 34.8672 64.6339C34.7582 65.4043 34.5533 66.0117 34.4046 65.9913C34.2592 65.9706 34.2294 65.3296 34.3418 64.5591C34.4508 63.7891 34.6557 63.1816 34.8044 63.202" fill="#292625"/>
<path d="M31.6001 59.8957C31.7422 59.9352 31.6298 60.7767 31.3523 61.7753C31.0714 62.7739 30.731 63.5512 30.589 63.512C30.4469 63.4725 30.5592 62.631 30.8368 61.6324C31.1177 60.6338 31.458 59.8565 31.6001 59.8957Z" fill="#292625"/>
<path d="M53.2895 64.6793C53.1441 64.6971 52.9524 64.1219 52.8599 63.3946C52.7707 62.667 52.8169 62.0628 52.9623 62.0447C53.1077 62.027 53.2994 62.6018 53.3919 63.3294C53.4811 64.0567 53.4349 64.6612 53.2895 64.6793Z" fill="#292625"/>
<path d="M56.6139 63.3612C56.4652 63.3698 56.3099 62.7871 56.2669 62.0598C56.224 61.3322 56.3099 60.7356 56.4553 60.7267C56.604 60.7181 56.756 61.3009 56.8023 62.0282C56.8452 62.7558 56.7593 63.3527 56.6139 63.3612Z" fill="#292625"/>
<path d="M34.2832 75.3802C34.161 75.4243 33.6983 74.404 33.5397 73.0443C33.4142 71.6806 33.6587 70.5879 33.7876 70.6063C33.9495 70.6244 33.9528 71.6918 34.0684 72.9896C34.2204 74.2835 34.4385 75.3292 34.2832 75.3802Z" fill="#292625"/>
<path d="M36.2589 81.3075C36.1135 81.3355 35.9516 81.138 35.902 80.8664C35.8491 80.5951 35.9218 80.3524 36.0672 80.3248C36.2126 80.2971 36.3712 80.4946 36.4241 80.7659C36.477 81.0376 36.401 81.2799 36.2589 81.3075Z" fill="#292625"/>
<path d="M54.7678 50.2046C54.7645 50.2412 54.6587 50.2566 54.4638 50.2524C54.3679 50.2504 54.2523 50.2435 54.1135 50.232C53.978 50.2175 53.8194 50.2142 53.6542 50.1615C52.9801 50.0156 52.0747 49.6555 51.2188 49.0227C50.3828 48.3642 49.7979 47.5852 49.4807 46.9745C49.3849 46.8306 49.3419 46.6775 49.2923 46.5504C49.2461 46.422 49.2064 46.3104 49.18 46.2186C49.1271 46.0345 49.1139 45.9282 49.1469 45.9147C49.1833 45.9012 49.2593 45.9809 49.3683 46.1333C49.4245 46.2093 49.4873 46.3038 49.5567 46.4141C49.6294 46.5228 49.6922 46.6558 49.8012 46.7796C50.1845 47.3093 50.7694 47.9885 51.5426 48.6009C52.3357 49.1863 53.1486 49.5715 53.7599 49.8007C53.9086 49.8737 54.054 49.9004 54.1796 49.9416C54.3019 49.9794 54.4109 50.0153 54.5001 50.0482C54.6752 50.1141 54.7711 50.1681 54.7678 50.2046" fill="#292625"/>
<path d="M57.7279 48.8298C57.751 48.8937 57.5197 49.0379 57.1 49.16C56.6771 49.2703 56.0625 49.3164 55.4016 49.188C54.744 49.0408 54.1954 48.7514 53.8551 48.4821C53.5213 48.2016 53.366 47.9774 53.4123 47.9277C53.4652 47.8684 53.6998 47.9856 54.0567 48.1637C54.4201 48.3333 54.9257 48.5351 55.5106 48.6678C56.0988 48.7804 56.6407 48.7975 57.0438 48.7883C57.4404 48.7672 57.7047 48.7547 57.7279 48.8298Z" fill="#292625"/>
<path d="M33.2919 50.523C33.2225 50.3656 34.4385 49.7292 35.8033 48.7599C37.1416 47.7528 38.1164 46.7904 38.2485 46.9014C38.3014 46.9498 38.1065 47.2405 37.743 47.6771C37.4026 48.138 36.7913 48.6371 36.1205 49.1886C35.3902 49.661 34.7293 50.0907 34.1841 50.277C33.6554 50.4927 33.3216 50.5901 33.2919 50.523" fill="#292625"/>
<path d="M26.3547 50.2383C26.3381 50.0924 27.5806 49.8468 29.1238 49.6904C30.6669 49.5337 31.9325 49.5251 31.949 49.6713C31.9623 49.8172 30.7231 50.0624 29.1766 50.2192C27.6334 50.3759 26.3679 50.3844 26.3547 50.2383Z" fill="#292625"/>
</svg>
