<!-- ibm.svg -->
<svg xmlns="http://www.w3.org/2000/svg" viewBox="0 0 400 100">
  <g fill="#006699">
  <rect x="0" y="0" width="400" height="100" fill="#ffffff"/>
  
    <rect x="0" y="20" width="20" height="10"/>
    <rect x="0" y="40" width="20" height="10"/>
    <rect x="0" y="60" width="20" height="10"/>

    <rect x="40" y="20" width="20" height="10"/>
    <rect x="40" y="40" width="20" height="10"/>
    <rect x="40" y="60" width="20" height="10"/>
    <rect x="60" y="20" width="20" height="10"/>
    <rect x="60" y="40" width="20" height="10"/>
    <rect x="60" y="60" width="20" height="10"/>

    <rect x="100" y="20" width="20" height="10"/>
    <rect x="100" y="40" width="20" height="10"/>
    <rect x="100" y="60" width="20" height="10"/>
    <rect x="120" y="40" width="20" height="10"/>
    <rect x="140" y="20" width="20" height="10"/>
    <rect x="140" y="40" width="20" height="10"/>
    <rect x="140" y="60" width="20" height="10"/>
  </g>
</svg>
