<svg width="40" height="40" viewBox="0 0 40 40" fill="none" xmlns="http://www.w3.org/2000/svg">
<path d="M20.0007 30.0605C21.7636 30.0605 23.1928 28.6314 23.1928 26.8684C23.1928 25.1055 21.7636 23.6763 20.0007 23.6763C18.2377 23.6763 16.8086 25.1055 16.8086 26.8684C16.8086 28.6314 18.2377 30.0605 20.0007 30.0605Z" fill="url(#paint0_linear_2992_47416)"/>
<path d="M32.2987 14.7463V12.2983C32.2987 7.01083 31.0257 0 20.0003 0C8.97491 0 7.70199 7.01083 7.70199 12.2983V14.7463C2.21866 15.4317 0.416992 18.2125 0.416992 25.0471V28.6896C0.416992 36.7188 2.86491 39.1667 10.8941 39.1667H29.1066C37.1357 39.1667 39.5837 36.7188 39.5837 28.6896V25.0471C39.5837 18.2125 37.782 15.4317 32.2987 14.7463ZM20.0003 32.7825C16.7299 32.7825 14.0862 30.1192 14.0862 26.8683C14.0862 23.5979 16.7495 20.9542 20.0003 20.9542C23.2512 20.9542 25.9145 23.6175 25.9145 26.8683C25.9145 30.1388 23.2707 32.7825 20.0003 32.7825ZM10.8941 14.57C10.7374 14.57 10.6003 14.57 10.4437 14.57V12.2983C10.4437 6.56042 12.0691 2.74167 20.0003 2.74167C27.9316 2.74167 29.557 6.56042 29.557 12.2983V14.5896C29.4003 14.5896 29.2632 14.5896 29.1066 14.5896H10.8941V14.57Z" fill="url(#paint1_linear_2992_47416)"/>
<defs>
<linearGradient id="paint0_linear_2992_47416" x1="14.048" y1="27.0694" x2="27.8035" y2="27.1374" gradientUnits="userSpaceOnUse">
<stop stop-color="#EF4136"/>
<stop offset="0.467708" stop-color="#F5753B"/>
<stop offset="1" stop-color="#FAA83F"/>
</linearGradient>
<linearGradient id="paint1_linear_2992_47416" x1="-16.519" y1="20.8164" x2="67.8707" y2="21.2334" gradientUnits="userSpaceOnUse">
<stop stop-color="#EF4136"/>
<stop offset="0.467708" stop-color="#F5753B"/>
<stop offset="1" stop-color="#FAA83F"/>
</linearGradient>
</defs>
</svg>
