<svg width="212" height="264" viewBox="0 0 212 264" fill="none" xmlns="http://www.w3.org/2000/svg">
<g clip-path="url(#clip0_2856_58548)">
<path d="M182.414 242.149C182.414 247.384 148.273 251.626 106.159 251.626C64.0448 251.626 29.9048 247.384 29.9048 242.149C29.9048 236.916 64.0448 232.673 106.159 232.673C148.273 232.673 182.414 236.916 182.414 242.149Z" fill="#60827F"/>
<path d="M191.073 67.452C194.344 65.397 194.094 60.4934 190.582 58.8831C179.216 53.6707 171.823 41.4273 157.148 25.5782C140.05 7.11452 112.068 7.83323 107.823 8.05595C103.576 7.83323 75.5943 7.11452 58.497 25.5782C43.8214 41.4273 36.4287 53.6707 25.0628 58.8831C21.551 60.4934 21.3006 65.397 24.5718 67.452L53.24 85.4619L107.823 71.738L162.405 85.4619L191.073 67.452Z" fill="#2E2227"/>
<path d="M181.302 110.84C177.048 89.784 163.575 70.3721 145.453 65.5614C136.138 63.0888 126.425 64.5112 116.949 65.9449C113.917 66.4032 110.689 66.9913 107.995 68.5292C105.301 66.9913 102.073 66.4032 99.041 65.9449C89.5664 64.5112 79.8528 63.0888 70.5378 65.5614C52.4155 70.3721 38.9426 89.784 34.688 110.84C30.4341 131.897 34.1161 154.169 40.7492 174.375C46.8082 192.831 55.7146 204.46 69.4568 216.061C80.4414 225.333 94.9703 227.029 107.995 223.676C121.02 227.029 135.549 225.333 146.534 216.061C160.276 204.46 169.183 192.831 175.241 174.375C181.875 154.169 185.557 131.897 181.302 110.84Z" fill="#F2591D"/>
<path d="M107.995 222.876C108.062 222.876 108.13 222.884 108.196 222.901C112.222 223.937 116.301 224.463 120.321 224.463C130.144 224.463 139.029 221.346 146.014 215.45C160.651 203.093 168.898 191.121 174.478 174.127C182.195 150.616 184.227 129.377 180.513 111.001C176.006 88.6896 161.833 70.7416 145.246 66.3394C141.901 65.4515 138.306 65.0197 134.257 65.0197C128.44 65.0197 122.4 65.934 117.069 66.7395C114.096 67.1902 110.977 67.7534 108.394 69.2279C108.147 69.3698 107.844 69.3698 107.595 69.2279C105.013 67.7534 101.894 67.1902 98.9204 66.7395C93.59 65.934 87.5493 65.0197 81.7339 65.0197C77.6843 65.0197 74.0893 65.4515 70.7447 66.3394C54.1573 70.7416 39.9848 88.6896 35.4767 111.001C31.763 129.377 33.795 150.616 41.513 174.127C47.0923 191.121 55.3383 203.093 69.9762 215.45C76.9611 221.346 85.8455 224.463 95.6689 224.463C99.6883 224.463 103.768 223.937 107.794 222.901C107.859 222.884 107.928 222.876 107.995 222.876ZM120.322 226.068C120.321 226.068 120.322 226.068 120.321 226.068C116.233 226.068 112.086 225.543 107.995 224.507C103.903 225.543 99.7571 226.068 95.6689 226.068C85.4605 226.068 76.2166 222.82 68.9374 216.676C54.0522 204.11 45.664 191.927 39.9848 174.627C32.1783 150.848 30.1312 129.334 33.9001 110.684C38.5262 87.7874 53.1663 69.3434 70.3309 64.7879C73.8124 63.8646 77.5421 63.4146 81.7339 63.4146C87.6703 63.4146 93.7753 64.3379 99.161 65.1533C102.139 65.604 105.265 66.1672 107.995 67.6145C110.726 66.1672 113.851 65.604 116.829 65.1533C122.214 64.3379 128.319 63.4146 134.257 63.4146C138.448 63.4146 142.178 63.8646 145.66 64.7879C162.824 69.3442 177.464 87.7882 182.09 110.684C185.859 129.335 183.811 150.849 176.005 174.627C170.326 191.927 161.938 204.11 147.053 216.676C139.774 222.82 130.53 226.068 120.322 226.068Z" fill="#292625"/>
<path d="M179.261 152.045C178.326 149.531 176.079 147.817 173.507 147.685C173.507 147.727 175.596 147.045 175.837 146.916C176.722 146.442 177.488 145.751 178.082 144.916C179.156 143.404 179.566 141.484 179.343 139.624C178.913 136.039 175.899 133.245 172.431 133.43C172.429 133.412 172.427 133.394 172.425 133.377C176.079 132.591 178.174 128.716 177.279 124.975C176.875 123.29 175.986 121.805 174.625 120.794C173.847 120.217 172.945 119.843 172.003 119.695C171.708 119.649 169.22 119.759 169.25 119.842C172.619 118.206 173.861 113.915 172.15 110.492C170.446 107.084 166.558 105.533 163.25 107.467C163.269 107.499 164.682 105.763 164.82 105.518C165.276 104.709 165.546 103.809 165.64 102.875C165.83 100.991 165.201 99.0588 164.03 97.6296C161.644 94.7161 157.533 94.1212 154.721 96.7576C154.73 96.7666 155.7 94.9094 155.786 94.6535C156.097 93.7188 156.188 92.7313 156.082 91.7491C155.88 89.8798 154.888 88.1788 153.482 87.035C150.583 84.6508 146.36 85.0563 144.161 88.2475C144.186 88.2641 144.756 86.0755 144.781 85.7908C144.872 84.7762 144.723 83.7554 144.372 82.8072C143.754 81.141 142.486 79.8039 140.957 79.0414C137.637 77.3653 133.6 78.716 132.104 82.3217C132.111 82.324 132.248 80.2199 132.222 79.9489C132.13 78.9712 131.822 78.0425 131.338 77.203C130.462 75.6817 128.998 74.6037 127.376 74.1363C123.717 73.0816 119.857 75.2793 119.118 79.2792C119.144 79.2822 118.782 77.049 118.69 76.778C118.391 75.8977 117.912 75.1065 117.288 74.4421C116.026 73.0982 114.227 72.3259 112.425 72.3674C110.596 72.4097 108.867 73.0779 107.573 74.4647C106.951 75.1314 106.477 75.9347 106.183 76.815C106.092 77.0867 105.741 79.3192 105.766 79.3162C105.029 75.4341 101.426 73.3315 97.8451 74.1152C96.1838 74.4791 94.6655 75.5474 93.7138 77.0181C93.188 77.8311 92.8362 78.7477 92.703 79.7224C92.6622 80.0213 92.7545 82.4433 92.7961 82.4274C91.2785 78.8209 87.3235 77.5707 83.991 79.1554C82.3615 79.9307 81.061 81.409 80.4626 83.1771C80.1782 84.0174 80.0572 84.9037 80.1207 85.7939C80.1419 86.0943 80.7267 88.4431 80.7668 88.4166C78.5464 85.2299 74.4233 84.903 71.4956 87.2004C70.0612 88.326 69.0929 90.0625 68.8697 91.9258C68.7638 92.8129 68.8274 93.7068 69.0725 94.5637C69.155 94.8513 70.2134 97.0166 70.2482 96.9811C67.4211 94.3583 63.323 94.9827 60.9377 97.8984C58.5426 100.825 58.8883 105.315 61.8016 107.689C61.8107 107.674 59.8937 107.006 59.6403 106.964C58.6946 106.808 57.7134 106.88 56.8033 107.194C55.0581 107.797 53.7258 109.115 52.8808 110.807C51.1696 114.233 52.4746 118.532 55.8358 120.144C55.8645 120.061 53.3725 119.963 53.0775 120.011C52.1356 120.163 51.2354 120.541 50.4607 121.124C49.105 122.145 48.2305 123.635 47.8273 125.32C47.3613 127.264 47.6813 129.386 48.788 131.031C49.2699 131.754 49.8911 132.37 50.6075 132.832C50.8269 132.973 52.7166 133.779 52.7197 133.756C49.4614 133.589 46.551 136.064 45.9102 139.402C45.131 143.457 47.6752 147.539 51.6825 147.956C51.6832 147.914 49.571 148.488 49.3259 148.604C48.5089 148.988 47.7683 149.554 47.1684 150.252C45.9678 151.649 45.4102 153.538 45.5025 155.4C45.5918 157.2 46.2515 158.891 47.471 160.176C48.1034 160.842 48.8811 161.347 49.7216 161.667C49.9947 161.771 52.4693 162.196 52.4549 162.095C48.7018 162.929 46.7583 166.806 47.6276 170.611C48.0262 172.359 49.1406 173.948 50.5961 174.875C51.4268 175.405 52.3482 175.729 53.3203 175.789C53.5897 175.806 56.0249 175.504 55.9795 175.395C52.3959 177.238 51.6023 181.706 53.6494 185.127C54.5565 186.639 56.0816 187.81 57.7558 188.169C58.6666 188.364 59.6093 188.356 60.5088 188.102C60.7766 188.026 63.1293 186.835 63.0189 186.711C60.2863 189.65 60.8847 194.265 63.9683 196.647C67.017 199.001 71.2694 198.416 73.2893 194.922C73.2409 194.895 72.7582 197.048 72.7401 197.303C72.6697 198.317 72.8233 199.356 73.2197 200.286C73.9543 202.012 75.3334 203.353 77.0197 203.999C80.4808 205.405 84.4086 203.708 85.6289 199.956C85.6062 199.949 85.6152 202.083 85.6576 202.347C85.815 203.327 86.1864 204.25 86.7183 205.069C87.6669 206.527 89.1785 207.465 90.7967 207.863C94.4461 208.76 98.1825 206.362 98.8884 202.458C98.8853 202.458 99.197 204.529 99.2795 204.788C99.576 205.723 100.067 206.575 100.699 207.3C101.887 208.661 103.589 209.395 105.326 209.505C108.907 209.758 112.183 206.991 112.447 203.176C112.459 203.176 112.932 205.065 113.033 205.305C113.39 206.147 113.916 206.906 114.566 207.526C115.957 208.853 117.822 209.492 119.689 209.339C121.349 209.203 122.976 208.518 124.145 207.247C124.785 206.551 125.289 205.713 125.606 204.805C125.705 204.52 126.096 202.153 126.06 202.157C126.8 205.854 130.342 208.268 133.873 207.505C135.505 207.152 137.061 206.27 138.076 204.855C138.643 204.065 139.045 203.142 139.24 202.175C139.299 201.883 139.365 199.445 139.313 199.461C140.571 203.182 144.49 204.851 147.936 203.438C149.542 202.84 150.875 201.55 151.621 199.945C152.04 199.043 152.248 198.061 152.227 197.056C152.22 196.772 151.753 194.346 151.68 194.388C153.676 197.84 157.93 198.493 160.974 196.156C164.056 193.789 164.735 189.241 162.042 186.248C161.985 186.31 163.865 187.431 164.089 187.52C165.002 187.877 165.986 187.96 166.949 187.826C168.783 187.572 170.394 186.366 171.427 184.784C173.567 181.415 172.726 176.883 169.2 175.025C169.172 175.088 171.26 175.452 171.502 175.452C172.49 175.461 173.454 175.197 174.322 174.703C175.921 173.792 177.132 172.152 177.575 170.291C178.481 166.488 176.506 162.594 172.764 161.762C172.742 161.909 175.486 161.346 175.778 161.218C176.868 160.739 177.791 159.944 178.472 158.932C179.798 156.961 180.09 154.291 179.261 152.045C179.593 152.943 178.926 151.147 179.261 152.045Z" fill="#F7A80E"/>
<path d="M168.448 139.116C167.665 137.01 165.783 135.574 163.627 135.463C163.628 135.498 165.378 134.926 165.58 134.819C166.321 134.423 166.963 133.843 167.461 133.143C168.36 131.877 168.704 130.267 168.517 128.71C168.157 125.706 165.632 123.366 162.726 123.52C162.725 123.506 162.723 123.491 162.721 123.476C165.782 122.818 167.538 119.571 166.787 116.438C166.449 115.026 165.705 113.782 164.564 112.935C163.913 112.451 163.157 112.139 162.368 112.014C162.121 111.976 160.037 112.068 160.061 112.137C162.884 110.767 163.925 107.172 162.491 104.304C161.064 101.449 157.806 100.151 155.034 101.77C155.051 101.796 156.235 100.343 156.351 100.138C156.733 99.4597 156.958 98.7055 157.037 97.9226C157.196 96.3447 156.669 94.726 155.689 93.5286C153.69 91.0878 150.245 90.5895 147.89 92.7978C147.897 92.8054 148.711 91.2494 148.782 91.035C149.042 90.2528 149.119 89.4246 149.031 88.6024C148.861 87.0358 148.03 85.6112 146.851 84.6532C144.423 82.6555 140.885 82.9952 139.043 85.6686C139.064 85.6822 139.542 83.8491 139.563 83.6105C139.638 82.7604 139.514 81.9051 139.22 81.1116C138.702 79.7149 137.64 78.5945 136.359 77.9558C133.578 76.5523 130.195 77.684 128.942 80.7039C128.949 80.7062 129.062 78.9433 129.041 78.716C128.964 77.8976 128.706 77.1193 128.3 76.4164C127.567 75.1412 126.341 74.2383 124.982 73.8472C121.915 72.9639 118.682 74.8045 118.063 78.1559C118.084 78.1581 117.781 76.2873 117.705 76.0601C117.454 75.3224 117.053 74.6603 116.529 74.1032C115.472 72.9775 113.966 72.3305 112.456 72.3652C110.923 72.4007 109.475 72.9601 108.391 74.122C107.871 74.6807 107.473 75.3534 107.226 76.091C107.15 76.3183 106.856 78.1891 106.877 78.1861C106.259 74.9344 103.242 73.1723 100.241 73.8291C98.85 74.1341 97.5775 75.0288 96.7801 76.2609C96.3398 76.9426 96.0448 77.7104 95.9336 78.5265C95.8996 78.7772 95.9768 80.8058 96.0116 80.793C94.7399 77.7708 91.4271 76.7244 88.6356 78.0517C87.2693 78.7009 86.1806 79.9391 85.6791 81.4211C85.4408 82.1248 85.3394 82.8677 85.3924 83.6136C85.4105 83.865 85.9 85.8324 85.934 85.8105C84.0738 83.1402 80.6195 82.8669 78.1669 84.7913C76.9655 85.7343 76.1538 87.1891 75.9669 88.7504C75.8784 89.4933 75.9314 90.2422 76.1371 90.9602C76.206 91.201 77.0926 93.0152 77.1221 92.985C74.7534 90.7881 71.3203 91.3113 69.3216 93.7536C67.3154 96.2058 67.6051 99.9678 70.0456 101.956C70.0532 101.944 68.4471 101.384 68.2353 101.349C67.4432 101.218 66.6209 101.278 65.8584 101.541C64.396 102.046 63.2801 103.151 62.572 104.568C61.1384 107.438 62.2316 111.039 65.0481 112.39C65.0716 112.321 62.9843 112.238 62.7369 112.278C61.9479 112.406 61.1937 112.722 60.5446 113.211C59.409 114.066 58.6767 115.314 58.3386 116.726C57.9482 118.354 58.216 120.133 59.1435 121.512C59.5467 122.117 60.068 122.633 60.6679 123.019C60.8517 123.138 62.4351 123.813 62.4373 123.794C59.7078 123.654 57.2696 125.727 56.7325 128.523C56.0796 131.921 58.2115 135.341 61.5682 135.69C61.5689 135.655 59.7994 136.136 59.5944 136.232C58.9097 136.555 58.2886 137.029 57.7863 137.613C56.7809 138.784 56.3134 140.366 56.3905 141.926C56.4654 143.435 57.0184 144.851 58.0405 145.928C58.5701 146.485 59.2214 146.908 59.9258 147.176C60.1542 147.263 62.2278 147.619 62.215 147.535C59.0709 148.233 57.4429 151.483 58.1706 154.67C58.505 156.134 59.4385 157.464 60.658 158.242C61.354 158.686 62.1257 158.957 62.9404 159.007C63.1659 159.022 65.2062 158.768 65.1677 158.678C62.1658 160.221 61.5008 163.965 63.2166 166.831C63.9761 168.097 65.2539 169.079 66.6565 169.379C67.4198 169.542 68.2088 169.535 68.9623 169.323C69.187 169.259 71.1578 168.261 71.0655 168.157C68.7762 170.62 69.2778 174.486 71.8605 176.481C74.4153 178.453 77.977 177.963 79.6693 175.036C79.6292 175.014 79.2244 176.817 79.2101 177.031C79.1503 177.881 79.279 178.751 79.6111 179.531C80.2269 180.976 81.3821 182.099 82.7952 182.641C85.6942 183.818 88.9851 182.397 90.0071 179.253C89.9882 179.248 89.9957 181.035 90.0313 181.257C90.1629 182.077 90.4738 182.851 90.9202 183.537C91.7145 184.759 92.9809 185.543 94.3366 185.877C97.3937 186.629 100.524 184.62 101.116 181.349C101.113 181.349 101.375 183.084 101.443 183.302C101.691 184.085 102.103 184.799 102.633 185.406C103.627 186.546 105.053 187.161 106.509 187.253C109.509 187.465 112.254 185.146 112.474 181.951C112.485 181.951 112.88 183.534 112.965 183.734C113.265 184.44 113.705 185.076 114.249 185.595C115.415 186.707 116.978 187.242 118.541 187.114C119.933 187 121.294 186.426 122.274 185.361C122.81 184.779 123.233 184.077 123.499 183.316C123.582 183.077 123.909 181.093 123.879 181.097C124.499 184.194 127.466 186.217 130.423 185.578C131.792 185.282 133.094 184.543 133.945 183.358C134.42 182.696 134.757 181.923 134.921 181.112C134.97 180.868 135.025 178.826 134.981 178.839C136.036 181.956 139.319 183.354 142.205 182.171C143.551 181.67 144.668 180.589 145.293 179.245C145.643 178.488 145.818 177.666 145.8 176.824C145.795 176.586 145.403 174.554 145.342 174.589C147.014 177.481 150.578 178.028 153.128 176.07C155.71 174.087 156.279 170.277 154.024 167.769C153.975 167.822 155.55 168.761 155.738 168.835C156.503 169.134 157.327 169.203 158.134 169.092C159.67 168.879 161.021 167.868 161.885 166.543C163.678 163.72 162.974 159.924 160.019 158.367C159.996 158.42 161.746 158.724 161.948 158.725C162.776 158.732 163.584 158.511 164.311 158.098C165.65 157.334 166.665 155.96 167.036 154.401C167.794 151.215 166.141 147.953 163.005 147.256C162.987 147.379 165.286 146.908 165.531 146.8C166.444 146.399 167.216 145.733 167.787 144.885C168.898 143.235 169.143 140.998 168.448 139.116C168.726 139.869 168.168 138.363 168.448 139.116Z" fill="#F2CC46"/>
<path d="M157.636 126.191C157.004 124.492 155.486 123.335 153.749 123.245C153.749 123.274 155.16 122.812 155.323 122.726C155.921 122.406 156.439 121.939 156.84 121.375C157.565 120.354 157.842 119.056 157.691 117.8C157.4 115.378 155.365 113.491 153.023 113.615C153.021 113.603 153.019 113.592 153.018 113.58C155.486 113.049 156.902 110.431 156.297 107.904C156.024 106.766 155.424 105.763 154.504 105.08C153.979 104.69 153.369 104.438 152.733 104.338C152.534 104.307 150.854 104.381 150.873 104.437C153.15 103.332 153.989 100.433 152.833 98.1211C151.682 95.8184 149.055 94.7712 146.82 96.0773C146.833 96.0985 147.787 94.9268 147.881 94.7614C148.189 94.2141 148.371 93.6063 148.435 92.9752C148.564 91.703 148.138 90.3977 147.347 89.4321C145.736 87.4639 142.959 87.0622 141.059 88.8425C141.065 88.8492 141.72 87.5945 141.778 87.4216C141.988 86.7904 142.05 86.123 141.978 85.4594C141.842 84.1971 141.172 83.048 140.221 82.2749C138.264 80.6646 135.411 80.9386 133.926 83.0948C133.942 83.1054 134.327 81.6264 134.344 81.4346C134.405 80.7491 134.305 80.0598 134.068 79.4196C133.65 78.2932 132.794 77.3903 131.761 76.8754C129.518 75.7437 126.791 76.6557 125.78 79.0912C125.786 79.0927 125.877 77.6719 125.861 77.4884C125.799 76.8278 125.59 76.2004 125.264 75.6334C124.671 74.6059 123.683 73.8773 122.587 73.5618C120.115 72.8498 117.508 74.3341 117.008 77.0362C117.026 77.0384 116.782 75.5292 116.719 75.3465C116.518 74.7516 116.193 74.2178 115.772 73.7686C114.919 72.8604 113.705 72.3387 112.488 72.3674C111.251 72.3953 110.083 72.8468 109.21 73.7837C108.79 74.2337 108.469 74.7765 108.27 75.3715C108.209 75.5549 107.972 77.0626 107.989 77.0611C107.491 74.4391 105.057 73.0182 102.638 73.5474C101.516 73.7936 100.49 74.5153 99.8477 75.5089C99.4921 76.0577 99.2546 76.6768 99.1645 77.3351C99.1365 77.5375 99.1986 79.1735 99.2273 79.1629C98.2023 76.7259 95.5311 75.8818 93.2797 76.9524C92.1782 77.4756 91.2998 78.4744 90.8958 79.6695C90.7037 80.2373 90.622 80.8352 90.6644 81.4369C90.6787 81.64 91.0744 83.2262 91.1017 83.2088C89.6015 81.0556 86.816 80.8352 84.8385 82.3874C83.8694 83.1477 83.2157 84.3202 83.0644 85.5795C82.9933 86.1781 83.0364 86.7821 83.202 87.3604C83.2573 87.5552 83.9722 89.0176 83.9956 88.9942C82.0862 87.2223 79.3181 87.6443 77.7067 89.6133C76.0885 91.5913 76.3223 94.624 78.29 96.2276C78.2961 96.217 77.0017 95.7663 76.8299 95.7376C76.1914 95.6319 75.528 95.6802 74.9137 95.8931C73.7343 96.3001 72.8348 97.1902 72.2636 98.3332C71.1076 100.648 71.989 103.552 74.2601 104.641C74.2798 104.585 72.5958 104.519 72.3968 104.551C71.7606 104.654 71.1523 104.909 70.6288 105.303C69.7134 105.992 69.1225 106.999 68.8502 108.137C68.5355 109.45 68.7511 110.884 69.4993 111.996C69.8246 112.484 70.2445 112.9 70.7279 113.211C70.8762 113.307 72.1532 113.852 72.1547 113.836C69.954 113.723 67.9878 115.395 67.5551 117.65C67.0293 120.39 68.7474 123.147 71.4542 123.429C71.4549 123.4 70.0281 123.788 69.8625 123.866C69.311 124.125 68.8101 124.507 68.4046 124.979C67.5944 125.923 67.2169 127.2 67.2797 128.457C67.3402 129.673 67.7858 130.816 68.6096 131.683C69.0363 132.133 69.5621 132.475 70.1303 132.691C70.3141 132.761 71.986 133.048 71.9761 132.979C69.441 133.543 68.1277 136.163 68.7148 138.733C68.9848 139.913 69.7369 140.986 70.7203 141.613C71.2817 141.971 71.9043 142.19 72.5609 142.23C72.7425 142.242 74.3879 142.037 74.3569 141.964C71.936 143.209 71.4004 146.227 72.7833 148.538C73.3961 149.56 74.4265 150.351 75.5567 150.593C76.1725 150.725 76.8088 150.719 77.4162 150.547C77.5978 150.497 79.1865 149.692 79.1123 149.608C77.2664 151.594 77.6705 154.711 79.7539 156.32C81.8131 157.91 84.6856 157.515 86.0496 155.155C86.0171 155.137 85.6917 156.591 85.6796 156.764C85.6312 157.448 85.7357 158.151 86.0027 158.779C86.4997 159.944 87.431 160.85 88.5704 161.287C90.908 162.236 93.5618 161.09 94.3856 158.555C94.3705 158.551 94.3766 159.992 94.4054 160.171C94.5113 160.832 94.7624 161.456 95.1218 162.009C95.7625 162.994 96.7838 163.627 97.877 163.897C100.342 164.502 102.866 162.883 103.343 160.246C103.341 160.245 103.552 161.644 103.608 161.82C103.807 162.451 104.139 163.027 104.566 163.516C105.369 164.436 106.518 164.932 107.692 165.006C110.111 165.177 112.324 163.307 112.502 160.73C112.51 160.73 112.83 162.007 112.898 162.169C113.139 162.738 113.494 163.25 113.933 163.669C114.873 164.566 116.133 164.997 117.394 164.893C118.516 164.802 119.614 164.339 120.404 163.481C120.836 163.01 121.177 162.445 121.391 161.831C121.458 161.639 121.722 160.039 121.697 160.042C122.197 162.539 124.59 164.17 126.975 163.655C128.079 163.416 129.129 162.821 129.815 161.864C130.197 161.331 130.469 160.708 130.601 160.055C130.641 159.858 130.686 158.211 130.65 158.221C131.5 160.735 134.148 161.862 136.475 160.908C137.56 160.504 138.461 159.633 138.964 158.548C139.247 157.938 139.388 157.276 139.373 156.596C139.37 156.404 139.054 154.766 139.005 154.794C140.353 157.126 143.226 157.568 145.283 155.988C147.364 154.389 147.823 151.317 146.004 149.295C145.966 149.338 147.236 150.095 147.387 150.155C148.004 150.395 148.669 150.451 149.319 150.361C150.558 150.189 151.646 149.375 152.344 148.306C153.79 146.03 153.221 142.97 150.839 141.714C150.821 141.756 152.231 142.002 152.395 142.002C153.062 142.008 153.713 141.83 154.299 141.497C155.38 140.881 156.198 139.773 156.497 138.516C157.108 135.948 155.775 133.316 153.246 132.755C153.232 132.854 155.086 132.474 155.284 132.387C156.02 132.064 156.643 131.526 157.103 130.842C157.998 129.512 158.196 127.708 157.636 126.191C157.86 126.798 157.41 125.584 157.636 126.191Z" fill="#F8E298"/>
<path d="M155.512 134.991C154.514 135.345 153.407 135.387 152.384 135.11C158.254 132.602 163.744 128.854 167.365 123.606C170.987 118.359 172.535 111.482 170.52 105.435C170.584 108.365 169.67 111.308 167.957 113.689C169.865 108.439 169.03 102.508 166.861 97.3598C164.692 92.2117 161.286 87.6954 157.914 83.2381C156.159 80.9188 154.375 78.5685 152.055 76.8132C150.243 75.4429 148.151 74.4728 145.987 73.779C138.853 71.4907 130.974 72.1958 123.939 74.774C121.978 75.4935 120.056 76.3602 118.337 77.5471C116.517 78.8056 114.95 80.4054 113.58 82.1418C106.834 90.6896 105.013 102.032 103.998 112.865C103.172 121.673 102.755 130.758 105.496 139.17C106.015 140.762 106.682 142.377 107.916 143.511C109.15 144.645 111.088 145.17 112.547 144.343C113.705 143.688 114.301 142.389 114.93 141.219C115.833 139.54 116.944 137.972 118.23 136.563C118.621 136.134 119.044 135.709 119.58 135.484C121.319 134.757 123.059 136.378 124.411 137.689C128.606 141.758 134.425 144.112 140.275 144.108C136.461 142.754 133.002 140.417 130.326 137.387C134.426 139.259 138.911 140.456 143.414 140.237C147.917 140.018 152.438 138.282 155.512 134.991Z" fill="#F2591D"/>
<path d="M60.6854 134.991C61.6832 135.345 62.79 135.387 63.8128 135.11C57.9423 132.602 52.4538 128.854 48.8323 123.606C45.2101 118.359 43.6623 111.482 45.6776 105.435C45.6133 108.365 46.5264 111.308 48.2392 113.689C46.332 108.439 47.1664 102.508 49.3361 97.3598C51.5051 92.2117 54.9117 87.6954 58.2835 83.2381C60.0371 80.9188 61.8225 78.5685 64.142 76.8132C65.9531 75.4429 68.0456 74.4728 70.21 73.779C77.3439 71.4907 85.223 72.1958 92.2571 74.774C94.2195 75.4935 96.141 76.3602 97.8591 77.5471C99.6808 78.8056 101.246 80.4054 102.617 82.1418C109.363 90.6896 111.184 102.032 112.2 112.865C113.026 121.673 113.443 130.758 110.702 139.17C110.183 140.762 109.516 142.377 108.282 143.511C107.047 144.645 105.11 145.17 103.65 144.343C102.492 143.688 101.896 142.389 101.266 141.219C100.364 139.54 99.2526 137.972 97.9673 136.563C97.5762 136.134 97.1533 135.709 96.6169 135.484C94.8777 134.757 93.1385 136.378 91.7866 137.689C87.5902 141.758 81.7725 144.112 75.9224 144.108C79.736 142.754 83.1948 140.417 85.8713 137.387C81.7718 139.259 77.2864 140.456 72.7829 140.237C68.2801 140.018 63.7584 138.282 60.6854 134.991Z" fill="#F2591D"/>
<path d="M168.27 105.688C168.27 121.681 155.279 134.646 139.253 134.646C123.227 134.646 110.236 121.681 110.236 105.688C110.236 89.6951 123.227 76.73 139.253 76.73C155.279 76.73 168.27 89.6951 168.27 105.688Z" fill="#523B1A"/>
<path d="M164.387 106.63C164.387 121.119 152.617 132.865 138.098 132.865C123.579 132.865 111.81 121.119 111.81 106.63C111.81 92.1405 123.579 80.3946 138.098 80.3946C152.617 80.3946 164.387 92.1405 164.387 106.63Z" fill="#D1B86C"/>
<path d="M164.387 106.63C164.387 121.119 152.617 132.865 138.098 132.865C123.579 132.865 111.81 121.119 111.81 106.63C111.81 92.1405 123.579 80.3946 138.098 80.3946C152.617 80.3946 164.387 92.1405 164.387 106.63Z" fill="#D1B86C"/>
<path d="M161.868 106.63C161.868 119.73 151.226 130.351 138.098 130.351C124.97 130.351 114.328 119.73 114.328 106.63C114.328 93.529 124.97 82.9088 138.098 82.9088C151.226 82.9088 161.868 93.529 161.868 106.63Z" fill="#F3ED99"/>
<path d="M149.484 106.631C149.484 112.906 144.386 117.994 138.097 117.994C131.809 117.994 126.711 112.906 126.711 106.631C126.711 100.355 131.809 95.2672 138.097 95.2672C144.386 95.2672 149.484 100.355 149.484 106.631Z" fill="#D4C18D"/>
<path d="M146.336 106.63C146.336 111.17 142.647 114.851 138.097 114.851C133.547 114.851 129.859 111.17 129.859 106.63C129.859 102.089 133.547 98.408 138.097 98.408C142.647 98.408 146.336 102.089 146.336 106.63Z" fill="#2E2227"/>
<path d="M138.098 104.221C138.098 105.551 137.018 106.63 135.685 106.63C134.352 106.63 133.271 105.551 133.271 104.221C133.271 102.89 134.352 101.811 135.685 101.811C137.018 101.811 138.098 102.89 138.098 104.221Z" fill="white"/>
<path d="M131.267 88.988C133.224 90.8581 132.114 95.1848 128.787 98.6524C125.46 102.12 121.177 103.416 119.219 101.545C117.262 99.6754 118.372 95.3487 121.7 91.8811C125.026 88.4127 129.309 87.1179 131.267 88.988Z" fill="white"/>
<path d="M143.4 126.062C130.866 126.062 120.077 118.603 115.247 107.891C115.534 116.463 120.77 124.475 129.251 127.897C136.764 130.927 144.957 129.602 151.023 125.114C148.585 125.732 146.031 126.062 143.4 126.062Z" fill="#D4C18D"/>
<path d="M49.7871 105.688C49.7871 121.681 62.778 134.646 78.8041 134.646C94.8293 134.646 107.821 121.681 107.821 105.688C107.821 89.6951 94.8293 76.73 78.8041 76.73C62.778 76.73 49.7871 89.6951 49.7871 105.688Z" fill="#523B1A"/>
<path d="M53.6704 106.63C53.6704 121.119 65.4403 132.865 79.9586 132.865C94.4777 132.865 106.248 121.119 106.248 106.63C106.248 92.1405 94.4777 80.3946 79.9586 80.3946C65.4403 80.3946 53.6704 92.1405 53.6704 106.63Z" fill="#D1B86C"/>
<path d="M53.6704 106.63C53.6704 121.119 65.4403 132.865 79.9586 132.865C94.4777 132.865 106.248 121.119 106.248 106.63C106.248 92.1405 94.4777 80.3946 79.9586 80.3946C65.4403 80.3946 53.6704 92.1405 53.6704 106.63Z" fill="#D1B86C"/>
<path d="M56.1885 106.63C56.1885 119.73 66.8312 130.351 79.9582 130.351C93.0861 130.351 103.728 119.73 103.728 106.63C103.728 93.529 93.0861 82.9088 79.9582 82.9088C66.8312 82.9088 56.1885 93.529 56.1885 106.63Z" fill="#F3ED99"/>
<path d="M68.5708 106.631C68.5708 112.906 73.6689 117.994 79.9571 117.994C86.246 117.994 91.3442 112.906 91.3442 106.631C91.3442 100.355 86.246 95.2672 79.9571 95.2672C73.6689 95.2672 68.5708 100.355 68.5708 106.631Z" fill="#D4C18D"/>
<path d="M71.7202 106.63C71.7202 111.17 75.4083 114.851 79.958 114.851C84.5084 114.851 88.1964 111.17 88.1964 106.63C88.1964 102.089 84.5084 98.408 79.958 98.408C75.4083 98.408 71.7202 102.089 71.7202 106.63Z" fill="#2E2227"/>
<path d="M79.9585 104.221C79.9585 105.551 81.0396 106.63 82.3726 106.63C83.7055 106.63 84.7866 105.551 84.7866 104.221C84.7866 102.89 83.7055 101.811 82.3726 101.811C81.0396 101.811 79.9585 102.89 79.9585 104.221Z" fill="white"/>
<path d="M73.0551 88.988C75.0122 90.8581 73.9017 95.1848 70.5753 98.6524C67.2482 102.12 62.9647 103.416 61.0076 101.545C59.0505 99.6754 60.1611 95.3487 63.4875 91.8811C66.8146 88.4127 71.098 87.1179 73.0551 88.988Z" fill="white"/>
<path d="M74.6562 126.062C87.1909 126.062 97.9795 118.603 102.81 107.891C102.522 116.463 97.2865 124.475 88.8052 127.897C81.2915 130.927 73.0985 129.602 67.0327 125.114C69.471 125.732 72.025 126.062 74.6562 126.062Z" fill="#D4C18D"/>
<path d="M113.742 109.411C113.016 108.616 112.17 107.902 111.179 107.655C110.217 107.416 109.105 107.717 108.51 108.588C107.917 107.715 106.806 107.412 105.844 107.649C104.853 107.893 104.004 108.606 103.275 109.399C99.4019 113.618 98.3367 120.288 99.2204 126.259C100.104 132.232 102.661 137.703 105.182 143.055C105.368 143.451 106.944 145.901 108.494 145.903C110.045 145.905 111.57 143.458 111.757 143.064C114.291 137.716 116.861 132.251 117.759 126.281C118.655 120.311 117.606 113.639 113.742 109.411Z" fill="#2D1615"/>
<path d="M105.543 108.696C104.818 108.828 104.28 109.448 103.842 110.06C100.728 114.403 99.7209 120.069 100.104 125.462C100.53 131.438 102.576 137.283 105.95 142.153C106.534 142.997 107.384 143.905 108.366 143.692C109.491 143.448 109.827 141.979 109.931 140.794C110.789 130.99 111.425 120.861 108.407 111.525C108.178 110.816 107.919 110.098 107.45 109.531C106.98 108.963 106.254 108.567 105.543 108.696Z" fill="#EE8B40"/>
<path d="M110.568 108.69C109.582 108.926 109.118 110.032 108.825 111.002C105.827 120.937 105.378 131.628 107.532 141.78C107.684 142.497 107.948 143.327 108.646 143.555C109.521 143.842 110.319 142.979 110.811 142.203C115.289 135.146 117.317 126.572 116.472 118.262C116.139 114.98 115.223 111.495 112.666 109.407C112.073 108.923 111.314 108.512 110.568 108.69Z" fill="#F2591D"/>
<path d="M110.811 127.637C110.811 135.682 109.671 142.203 108.267 142.203C106.861 142.203 105.722 135.682 105.722 127.637C105.722 119.593 106.861 113.072 108.267 113.072C109.671 113.072 110.811 119.593 110.811 127.637Z" fill="#F3DE3E"/>
<path d="M108.603 122.791C109.169 122.616 109.395 121.945 109.481 121.36C109.751 119.511 109.43 117.582 108.575 115.921C107.205 117.243 106.656 119.292 106.972 121.169C107.044 121.599 107.165 122.036 107.443 122.372C107.72 122.709 108.186 122.92 108.603 122.791Z" fill="white"/>
<path d="M109.07 127.438C108.776 126.318 108.481 125.197 108.185 124.077C107.56 125.214 107.276 126.537 107.381 127.83C107.41 128.188 107.473 128.557 107.677 128.853C107.881 129.149 108.258 129.352 108.605 129.255C108.941 129.161 109.156 128.814 109.202 128.469C109.248 128.123 109.159 127.775 109.07 127.438Z" fill="white"/>
<path d="M80.2439 222.052C78.7975 221.022 76.7549 221.722 75.3009 222.741C71.9934 225.059 69.8872 228.801 68.8735 232.705C67.8598 236.61 67.8439 240.7 68.03 244.729C68.058 245.332 68.1646 246.051 68.7138 246.303C69.4522 246.642 70.18 245.84 70.5992 245.145C72.8135 241.471 75.0285 237.797 77.2428 234.123C78.4268 232.159 79.613 230.19 80.5799 228.111C81.0436 227.112 81.4627 226.063 81.5028 224.962C81.5422 223.862 81.1419 222.691 80.2439 222.052Z" fill="#EDA263"/>
<path d="M78.5731 222.345C77.7394 222.345 76.7144 222.728 75.7619 223.396C72.8909 225.408 70.7205 228.786 69.6515 232.905C68.6347 236.823 68.6567 240.885 68.8322 244.69C68.8693 245.481 69.0425 245.569 69.0493 245.572L69.072 245.579C69.1741 245.579 69.5259 245.365 69.9087 244.73L76.5532 233.707C77.7107 231.788 78.9022 229.809 79.8501 227.771C80.27 226.867 80.6634 225.897 80.6982 224.931C80.7254 224.191 80.4969 223.217 79.776 222.703C79.4439 222.466 79.0391 222.345 78.5731 222.345ZM69.072 247.184C68.8329 247.184 68.5999 247.133 68.3783 247.031C67.3093 246.539 67.2488 245.25 67.2261 244.765C67.0537 241.021 67.0211 236.637 68.0946 232.502C69.2596 228.015 71.654 224.314 74.8374 222.082C75.5531 221.581 76.9897 220.74 78.5731 220.74C79.3803 220.74 80.0997 220.961 80.7102 221.396C81.7482 222.136 82.3587 223.512 82.3058 224.989C82.2596 226.24 81.7996 227.389 81.3094 228.447C80.3252 230.563 79.1102 232.579 77.9361 234.528L71.2871 245.557C70.9217 246.164 70.147 247.184 69.072 247.184Z" fill="#292625"/>
<path d="M77.7077 229.021C77.8893 228.093 78.0315 227.132 77.8333 226.208C77.4785 227.923 76.3293 229.456 74.7822 230.28C75.106 231.548 75.1401 232.926 74.6445 234.139C74.1498 235.35 73.065 236.363 71.7676 236.557C71.9499 238.801 71.4974 241.094 70.4746 243.102C72.3591 239.787 74.2443 236.473 76.1296 233.159C76.4776 232.547 76.8264 231.933 77.0881 231.28C77.3786 230.554 77.5571 229.788 77.7077 229.021Z" fill="#DC7029"/>
<path d="M85.5494 222.052C86.9966 221.022 89.0384 221.722 90.4925 222.741C93.7999 225.059 95.9061 228.801 96.9198 232.705C97.9335 236.61 97.9495 240.7 97.7634 244.729C97.7361 245.332 97.6287 246.051 97.0795 246.303C96.3419 246.642 95.6133 245.84 95.1942 245.145C92.9799 241.471 90.7648 237.797 88.5505 234.123C87.3665 232.159 86.1803 230.19 85.2135 228.111C84.7497 227.112 84.3314 226.063 84.2913 224.962C84.2512 223.862 84.6514 222.691 85.5494 222.052Z" fill="#EDA263"/>
<path d="M87.2207 222.345C86.7554 222.345 86.3507 222.466 86.0171 222.703C85.2969 223.217 85.0684 224.191 85.0956 224.931C85.1304 225.897 85.5246 226.867 85.9444 227.771C86.8961 229.82 88.0884 231.796 89.2406 233.707L95.8843 244.73C96.2678 245.365 96.6204 245.579 96.7225 245.579C96.7248 245.579 96.7301 245.579 96.7452 245.572C96.752 245.569 96.9245 245.481 96.9616 244.69C97.1371 240.885 97.1598 236.823 96.1423 232.905C95.0725 228.785 92.9021 225.408 90.0311 223.396C89.0794 222.728 88.0551 222.345 87.2207 222.345ZM96.7225 247.184C95.6482 247.184 94.8721 246.164 94.5059 245.557L87.8622 234.534C86.6881 232.587 85.4739 230.574 84.4858 228.447C83.9941 227.389 83.5342 226.24 83.488 224.989C83.4351 223.512 84.0464 222.136 85.0828 221.396C85.6941 220.961 86.4135 220.74 87.2207 220.74C88.8056 220.74 90.2407 221.581 90.9564 222.082C94.139 224.314 96.5341 228.014 97.6999 232.502C98.7734 236.637 98.7409 241.021 98.5677 244.764C98.5458 245.25 98.4852 246.539 97.417 247.031C97.1946 247.133 96.9608 247.184 96.7225 247.184Z" fill="#292625"/>
<path d="M91.3217 229.637C91.1787 231.098 91.4275 232.595 92.0358 233.932C92.2506 234.404 92.5177 234.866 92.9104 235.207C93.303 235.549 93.8401 235.754 94.3508 235.652C94.1094 237.004 94.5263 238.384 95.037 239.66C95.3691 240.488 95.742 241.3 96.155 242.091C95.8865 241.972 95.6928 241.734 95.5105 241.503C94.5656 240.306 93.6578 239.08 92.75 237.853C92.3399 237.299 91.9299 236.745 91.5192 236.19C91.2657 235.848 91.0122 235.506 90.7686 235.156C89.071 232.718 87.8743 229.934 87.2736 227.026C87.0943 226.16 86.9831 225.2 87.4438 224.445C88.3826 226.428 89.4258 228.527 91.3217 229.637Z" fill="#DC7029"/>
<path d="M87.9897 230.844C87.9897 236.834 85.6491 247.96 82.7622 247.96C79.8754 247.96 77.5347 236.834 77.5347 230.844C77.5347 224.855 79.8754 219.999 82.7622 219.999C85.6491 219.999 87.9897 224.855 87.9897 230.844Z" fill="#EDA263"/>
<path d="M82.7619 220.804C80.6701 220.804 78.3393 224.928 78.3393 230.846C78.3393 237.554 80.9432 247.159 82.7619 247.159C84.5813 247.159 87.1853 237.554 87.1853 230.846C87.1853 224.928 84.8544 220.804 82.7619 220.804ZM82.7619 248.764C78.8446 248.764 76.731 236.046 76.731 230.846C76.731 224.315 79.3803 219.198 82.7619 219.198C86.1443 219.198 88.7944 224.315 88.7944 230.846C88.7944 236.046 86.6799 248.764 82.7619 248.764Z" fill="#292625"/>
<path d="M73.2845 227.397C73.3132 227.783 73.5674 228.114 73.8337 228.397C74.0629 228.641 74.3443 228.882 74.6795 228.887C75.2075 228.894 75.5419 228.342 75.7643 227.864C76.051 227.246 76.3423 226.614 76.418 225.938C76.4936 225.261 76.3166 224.519 75.7999 224.075C75.1017 224.717 74.4487 225.408 73.848 226.142C73.55 226.506 73.2497 226.928 73.2845 227.397Z" fill="#F3ED99"/>
<path d="M72.3613 229.242C72.1351 229.285 71.9913 229.502 71.8801 229.703C70.88 231.512 70.4284 233.619 70.5994 235.678C70.6175 235.9 70.6765 236.165 70.8883 236.235C71.1455 236.32 71.3688 236.045 71.5004 235.808C72.0216 234.869 72.5436 233.931 73.0648 232.993C73.3531 232.475 73.6496 231.923 73.6231 231.331C73.5974 230.739 72.9438 229.131 72.3613 229.242Z" fill="#F3ED99"/>
<path d="M69.9388 242.298C70.3579 241.331 70.6083 240.291 70.6756 239.239C70.6991 238.872 70.6983 238.492 70.5546 238.154C70.4109 237.815 70.0931 237.528 69.7247 237.522C69.4145 238.493 69.2382 239.507 69.2034 240.526C69.1815 241.172 69.2337 241.868 69.6407 242.371C69.674 242.412 69.7149 242.455 69.7686 242.459C69.8518 242.464 69.9055 242.375 69.9388 242.298Z" fill="#F3ED99"/>
<path d="M79.6872 230.876C79.8227 231.33 80.0806 231.812 80.5383 231.939C80.9869 232.064 81.4688 231.783 81.7207 231.393C81.9727 231.002 82.0453 230.527 82.1028 230.066C82.4129 227.6 82.4787 225.102 82.2987 222.622C82.2798 222.358 82.1686 222.011 81.9038 222.029C81.7676 222.038 81.664 222.15 81.5785 222.256C80.3492 223.783 79.8158 225.756 79.5707 227.699C79.4368 228.758 79.3831 229.852 79.6872 230.876Z" fill="#F3ED99"/>
<path d="M80.8428 232.914C80.6545 232.955 80.4736 233.059 80.3708 233.222C80.3095 233.319 80.2777 233.431 80.2512 233.542C79.9002 234.984 80.1885 236.502 80.6023 237.926C80.7052 238.281 80.8232 238.647 81.0766 238.916C81.2203 239.068 81.4254 239.188 81.6311 239.15C81.9405 239.092 82.0767 238.732 82.1455 238.426C82.3914 237.339 82.4936 236.222 82.4633 235.108C82.4489 234.587 82.3997 234.047 82.1395 233.595C81.8792 233.143 81.3535 232.805 80.8428 232.914Z" fill="#F3ED99"/>
<path d="M91.8406 225.97C91.1529 225.199 90.4123 224.438 89.478 223.995C89.3501 223.933 89.2026 223.878 89.0694 223.927C88.9673 224.508 89.1413 225.11 89.4356 225.621C89.7299 226.133 90.1377 226.568 90.5409 226.999C90.8783 227.359 91.2157 227.718 91.5531 228.077C91.8496 228.394 92.2242 228.738 92.6516 228.666C92.9202 228.237 92.8937 227.675 92.7023 227.208C92.5116 226.74 92.1772 226.347 91.8406 225.97Z" fill="#F3ED99"/>
<path d="M94.5687 232.326C94.7661 231.445 94.3183 230.552 93.8023 229.81C93.6563 229.599 93.406 229.368 93.1798 229.489C92.7826 230.359 92.7985 231.406 93.2206 232.263C93.3182 232.462 93.4414 232.655 93.6238 232.78C93.8053 232.906 94.0573 232.95 94.2502 232.842C94.431 232.739 94.5233 232.529 94.5687 232.326Z" fill="#F3ED99"/>
<path d="M82.5869 245.885C83.5288 245.869 84.0878 244.85 84.4063 243.965C86.1652 239.076 86.7387 233.768 86.0631 228.618C85.7325 226.097 84.9752 223.407 82.9281 221.892C83.5098 227.309 83.7308 232.763 83.5893 238.207C83.5636 239.205 83.525 240.203 83.4712 241.199C83.3858 242.796 83.2496 244.429 82.5869 245.885Z" fill="#DC7029"/>
<path d="M121.905 222.052C120.459 221.022 118.417 221.722 116.962 222.741C113.655 225.059 111.549 228.801 110.536 232.705C109.522 236.61 109.506 240.7 109.692 244.729C109.719 245.332 109.827 246.051 110.376 246.303C111.114 246.642 111.842 245.84 112.261 245.145C114.476 241.471 116.691 237.797 118.905 234.123C120.089 232.159 121.275 230.19 122.241 228.111C122.706 227.112 123.124 226.063 123.164 224.962C123.204 223.862 122.804 222.691 121.905 222.052Z" fill="#EDA263"/>
<path d="M120.236 222.345C119.401 222.345 118.376 222.728 117.424 223.396C114.553 225.408 112.383 228.785 111.314 232.905C110.297 236.821 110.318 240.884 110.494 244.69C110.53 245.481 110.704 245.569 110.711 245.572L110.733 245.579C110.835 245.579 111.188 245.365 111.571 244.73L118.215 233.707C119.369 231.793 120.562 229.814 121.51 227.771C121.931 226.868 122.324 225.899 122.36 224.93C122.387 224.191 122.159 223.217 121.438 222.703C121.106 222.466 120.701 222.345 120.236 222.345ZM110.733 247.184C110.495 247.184 110.261 247.133 110.039 247.031C108.97 246.539 108.91 245.25 108.888 244.765C108.715 241.02 108.684 236.636 109.756 232.502C110.921 228.014 113.317 224.314 116.499 222.082C117.214 221.581 118.65 220.74 120.236 220.74C121.042 220.74 121.762 220.961 122.372 221.396C123.41 222.136 124.021 223.512 123.968 224.989C123.921 226.243 123.461 227.392 122.97 228.447C121.985 230.568 120.769 232.584 119.593 234.534L112.95 245.557C112.583 246.164 111.807 247.184 110.733 247.184Z" fill="#292625"/>
<path d="M119.371 229.021C119.552 228.093 119.694 227.132 119.495 226.208C119.141 227.923 117.992 229.456 116.445 230.28C116.768 231.548 116.803 232.926 116.307 234.139C115.813 235.35 114.728 236.363 113.43 236.557C113.613 238.801 113.16 241.094 112.137 243.102C114.022 239.787 115.907 236.473 117.792 233.159C118.14 232.547 118.489 231.933 118.75 231.28C119.042 230.554 119.22 229.788 119.371 229.021Z" fill="#DC7029"/>
<path d="M127.212 222.052C128.658 221.022 130.701 221.722 132.155 222.741C135.462 225.059 137.568 228.801 138.582 232.705C139.596 236.61 139.612 240.7 139.426 244.729C139.398 245.332 139.291 246.051 138.742 246.303C138.003 246.642 137.276 245.84 136.857 245.145C134.642 241.471 132.427 237.797 130.213 234.123C129.029 232.159 127.842 230.19 126.876 228.111C126.412 227.112 125.993 226.063 125.953 224.962C125.913 223.862 126.314 222.691 127.212 222.052Z" fill="#EDA263"/>
<path d="M128.882 222.345C128.417 222.345 128.012 222.466 127.679 222.703C126.958 223.217 126.731 224.191 126.758 224.931C126.793 225.897 127.186 226.867 127.607 227.771C128.554 229.809 129.745 231.788 130.898 233.701L137.547 244.73C137.93 245.365 138.282 245.579 138.384 245.579C138.386 245.579 138.392 245.579 138.407 245.572C138.413 245.568 138.587 245.48 138.623 244.691C138.799 240.885 138.821 236.823 137.804 232.905C136.735 228.785 134.565 225.408 131.693 223.396C130.741 222.728 129.717 222.345 128.882 222.345ZM138.384 247.184C137.31 247.184 136.535 246.164 136.168 245.557L129.524 234.534C128.345 232.579 127.131 230.563 126.147 228.447C125.656 227.389 125.196 226.24 125.15 224.989C125.097 223.512 125.708 222.136 126.746 221.396C127.356 220.961 128.076 220.74 128.882 220.74C130.466 220.74 131.902 221.581 132.618 222.082C135.801 224.314 138.196 228.014 139.361 232.502C140.435 236.637 140.402 241.021 140.229 244.764C140.208 245.249 140.149 246.539 139.078 247.031C138.856 247.133 138.622 247.184 138.384 247.184Z" fill="#292625"/>
<path d="M132.984 229.637C132.841 231.098 133.09 232.595 133.699 233.932C133.913 234.404 134.18 234.866 134.573 235.207C134.966 235.549 135.503 235.754 136.013 235.652C135.772 237.004 136.189 238.384 136.7 239.66C137.031 240.488 137.405 241.3 137.818 242.091C137.549 241.972 137.356 241.734 137.173 241.503C136.228 240.306 135.32 239.08 134.413 237.853C134.003 237.299 133.592 236.745 133.182 236.19C132.928 235.848 132.675 235.506 132.431 235.156C130.734 232.718 129.537 229.934 128.936 227.026C128.757 226.16 128.646 225.2 129.106 224.445C130.045 226.428 131.089 228.527 132.984 229.637Z" fill="#DC7029"/>
<path d="M129.652 230.844C129.652 236.834 127.311 247.96 124.424 247.96C121.537 247.96 119.197 236.834 119.197 230.844C119.197 224.855 121.537 219.999 124.424 219.999C127.311 219.999 129.652 224.855 129.652 230.844Z" fill="#EDA263"/>
<path d="M124.425 220.804C122.333 220.804 120.001 224.928 120.001 230.846C120.001 237.554 122.606 247.159 124.425 247.159C126.244 247.159 128.848 237.554 128.848 230.846C128.848 224.928 126.517 220.804 124.425 220.804ZM124.425 248.764C120.507 248.764 118.393 236.046 118.393 230.846C118.393 224.315 121.043 219.198 124.425 219.198C127.807 219.198 130.457 224.315 130.457 230.846C130.457 236.046 128.342 248.764 124.425 248.764Z" fill="#292625"/>
<path d="M114.946 227.397C114.975 227.783 115.229 228.114 115.495 228.397C115.725 228.641 116.005 228.882 116.341 228.887C116.868 228.894 117.204 228.342 117.426 227.864C117.713 227.246 118.004 226.614 118.08 225.938C118.155 225.261 117.978 224.519 117.462 224.075C116.763 224.717 116.11 225.408 115.51 226.142C115.212 226.506 114.911 226.928 114.946 227.397Z" fill="#F3ED99"/>
<path d="M114.023 229.242C113.797 229.285 113.654 229.502 113.542 229.703C112.542 231.512 112.09 233.619 112.261 235.678C112.28 235.9 112.339 236.165 112.551 236.235C112.808 236.32 113.031 236.045 113.163 235.808C113.684 234.869 114.205 233.931 114.727 232.993C115.015 232.475 115.311 231.923 115.286 231.331C115.26 230.739 114.606 229.131 114.023 229.242Z" fill="#F3ED99"/>
<path d="M111.602 242.298C112.021 241.331 112.272 240.291 112.34 239.239C112.363 238.872 112.362 238.492 112.219 238.154C112.075 237.815 111.756 237.528 111.389 237.522C111.079 238.493 110.902 239.507 110.867 240.526C110.846 241.172 110.898 241.868 111.304 242.371C111.338 242.412 111.379 242.455 111.432 242.459C111.515 242.464 111.57 242.375 111.602 242.298Z" fill="#F3ED99"/>
<path d="M121.349 230.876C121.484 231.33 121.742 231.812 122.2 231.939C122.648 232.064 123.13 231.783 123.382 231.393C123.634 231.002 123.707 230.527 123.764 230.066C124.075 227.6 124.14 225.102 123.96 222.622C123.941 222.358 123.83 222.011 123.565 222.029C123.429 222.038 123.325 222.15 123.24 222.256C122.011 223.783 121.477 225.756 121.232 227.699C121.098 228.758 121.045 229.852 121.349 230.876Z" fill="#F3ED99"/>
<path d="M122.508 232.914C122.319 232.955 122.139 233.059 122.036 233.222C121.974 233.319 121.943 233.431 121.915 233.542C121.565 234.984 121.853 236.502 122.267 237.926C122.37 238.281 122.488 238.647 122.742 238.916C122.885 239.068 123.09 239.188 123.296 239.15C123.605 239.092 123.742 238.732 123.81 238.426C124.056 237.339 124.159 236.222 124.127 235.108C124.113 234.587 124.065 234.047 123.804 233.595C123.544 233.143 123.018 232.805 122.508 232.914Z" fill="#F3ED99"/>
<path d="M133.502 225.97C132.815 225.199 132.074 224.438 131.14 223.995C131.011 223.933 130.864 223.878 130.731 223.927C130.629 224.508 130.803 225.11 131.097 225.621C131.392 226.133 131.799 226.568 132.202 226.999C132.54 227.359 132.877 227.718 133.215 228.077C133.511 228.394 133.885 228.738 134.313 228.666C134.582 228.237 134.555 227.675 134.364 227.208C134.173 226.74 133.839 226.347 133.502 225.97Z" fill="#F3ED99"/>
<path d="M136.233 232.326C136.431 231.445 135.983 230.552 135.467 229.81C135.32 229.599 135.071 229.368 134.844 229.489C134.447 230.359 134.463 231.406 134.885 232.263C134.983 232.462 135.106 232.655 135.288 232.78C135.47 232.906 135.722 232.95 135.914 232.842C136.096 232.739 136.187 232.529 136.233 232.326Z" fill="#F3ED99"/>
<path d="M124.249 245.885C125.19 245.869 125.749 244.85 126.068 243.965C127.827 239.076 128.4 233.768 127.725 228.618C127.394 226.097 126.636 223.407 124.59 221.892C125.171 227.309 125.392 232.763 125.251 238.207C125.225 239.205 125.187 240.203 125.133 241.199C125.047 242.796 124.911 244.429 124.249 245.885Z" fill="#DC7029"/>
<path d="M105.313 42.5352C109.4 42.0671 113.486 41.5998 117.573 41.1325C117.396 37.5909 115.949 34.1255 113.554 31.5073C116.901 29.7958 118.978 25.8895 118.52 22.1638C118.062 18.438 115.103 15.1478 111.44 14.2932C108.206 13.5389 104.778 14.5815 101.928 16.2833C100.012 17.4278 98.2357 18.9174 97.1743 20.8773C96.1576 22.7549 95.8617 25.0092 96.3595 27.0847C96.7173 28.578 97.5457 30.0419 98.9067 30.7569C100.635 31.6651 102.773 31.1857 104.646 31.7391C103.876 34.6548 103.392 37.6452 103.202 40.6538C103.168 41.1913 103.166 41.7946 103.536 42.1871C103.966 42.6432 104.69 42.6062 105.313 42.5352Z" fill="white"/>
<path d="M98.9658 24.9663C99.4015 25.3536 100.023 25.4592 100.607 25.4456C101.589 25.4222 102.561 25.1021 103.364 24.5374C103.856 24.1916 104.291 23.7462 104.541 23.2004C104.792 22.6545 104.841 22.0007 104.591 21.4549C104.246 20.6999 103.38 20.2748 102.549 20.2688C101.717 20.2628 100.919 20.6108 100.217 21.0555C99.5438 21.482 98.9098 22.0301 98.5974 22.7625C98.2849 23.494 98.3696 24.4378 98.9658 24.9663Z" fill="#2E2227"/>
<path d="M115.422 20.5065C115.082 19.6428 114.255 19.0901 113.572 18.4612C113.167 18.0875 112.757 17.6489 112.211 17.5688C111.715 17.4964 111.233 17.741 110.792 17.9781C110.246 18.271 109.693 18.5692 109.24 18.992C108.788 19.4155 108.441 19.9855 108.417 20.6038C108.388 21.3739 108.857 22.0783 109.408 22.6174C110.115 23.3074 111.008 23.8321 111.984 23.9831C112.96 24.1349 114.019 23.8812 114.74 23.2078C115.461 22.5336 115.782 21.4237 115.422 20.5065Z" fill="#2E2227"/>
<path d="M107.311 39.1258C107.417 36.9206 107.522 34.7161 107.628 32.5115C107.29 32.5161 106.953 32.5206 106.615 32.5251C106.464 34.7568 106.312 36.9885 106.161 39.2202C106.544 39.1885 106.928 39.1576 107.311 39.1258Z" fill="#2E2227"/>
<path d="M109.064 32.1455C109.136 34.3243 109.344 36.4987 109.689 38.6511C110.186 38.6126 110.683 38.5741 111.181 38.5364C110.754 36.3001 110.326 34.0646 109.898 31.8292C109.621 31.9349 109.343 32.0398 109.064 32.1455Z" fill="#2E2227"/>
<path d="M112.69 32.3998C112.603 32.0887 112.514 31.7565 112.272 31.5421C112.03 31.3284 111.581 31.3194 111.435 31.607C111.885 34.0063 112.549 36.3664 113.417 38.6487C114.021 38.3037 114.73 38.1436 115.424 38.1957C114.193 36.4366 113.265 34.4676 112.69 32.3998Z" fill="#2E2227"/>
<path d="M106.903 24.7884C106.058 25.7435 105.579 27.0134 105.584 28.287C105.585 28.5112 105.601 28.7407 105.686 28.9484C105.771 29.1567 105.934 29.3425 106.15 29.4074C106.365 29.4716 106.605 29.4059 106.792 29.2813C106.98 29.1567 107.124 28.9793 107.261 28.8004C107.447 28.5573 107.625 28.3036 107.857 28.1051C108.09 27.9057 108.39 27.7638 108.696 27.791C108.986 27.8174 109.24 27.9896 109.515 28.0892C109.79 28.1881 110.15 28.1881 110.317 27.9488C110.447 27.7616 110.404 27.5071 110.339 27.2882C110.016 26.1867 109.274 25.2127 108.298 24.6058C108.053 24.454 107.767 24.3196 107.484 24.3808C107.249 24.4314 107.063 24.6088 106.903 24.7884Z" fill="#2E2227"/>
<path d="M107.137 58.1786C107.123 59.0143 107.206 59.8607 107.041 60.6798C106.877 61.4997 106.399 62.3196 105.615 62.6125C105.224 62.7583 104.77 62.756 104.403 62.5559C103.948 62.3068 103.692 61.7881 103.627 61.274C103.561 60.7591 103.658 60.2397 103.756 59.7301C102.947 59.7489 102.104 59.5806 101.467 59.0853C100.829 58.5893 100.447 57.7181 100.685 56.9465C100.924 56.1757 101.88 55.6585 102.604 56.0156C103.04 56.2308 103.363 56.7079 103.848 56.7366C104.18 56.757 104.479 56.5546 104.749 56.3599C108.291 53.8096 118.812 45.6302 122.182 42.8556C121.955 42.3355 121.753 41.7821 121.794 41.2159C121.837 40.6504 122.183 40.0713 122.732 39.9233C123.332 39.7625 123.969 40.1694 124.274 40.7092C124.581 41.2498 124.634 41.8908 124.68 42.5091C125.075 42.1754 125.803 42.4774 125.844 42.993C126.692 43.0557 127.529 43.2543 128.314 43.5789C128.117 43.9783 128.141 44.4441 128.087 44.8858C128.033 45.3274 127.851 45.8121 127.437 45.9775C127.08 46.1202 126.679 45.9752 126.322 45.831C125.651 45.56 124.923 45.2844 124.22 45.4581C123.793 45.5637 123.425 45.8257 123.068 46.0824C120.082 48.2356 110.062 55.9439 107.137 58.1786Z" fill="white"/>
<path d="M115.399 58.8714C115.508 59.6996 115.524 60.5497 115.782 61.3447C116.04 62.1397 116.608 62.9 117.422 63.1008C117.826 63.2012 118.278 63.1461 118.618 62.9052C119.042 62.6055 119.237 62.0612 119.243 61.5425C119.249 61.0238 119.091 60.5188 118.936 60.0243C119.742 59.9495 120.559 59.686 121.135 59.1198C121.712 58.5543 121.991 57.6453 121.665 56.9062C121.34 56.1679 120.33 55.7639 119.651 56.2018C119.243 56.4653 118.977 56.9772 118.499 57.061C118.171 57.1191 117.851 56.9523 117.561 56.7907C113.748 54.6632 102.353 47.7469 98.6865 45.3785C98.8521 44.8357 98.9883 44.2627 98.8817 43.7048C98.775 43.1476 98.3634 42.6123 97.8013 42.5293C97.1863 42.4379 96.6015 42.9151 96.3602 43.4866C96.1181 44.0581 96.1393 44.7021 96.1643 45.3211C95.733 45.035 95.0446 45.4185 95.0635 45.9357C94.2291 46.095 93.4204 46.3887 92.6782 46.8017C92.9196 47.1754 92.9498 47.6412 93.0542 48.0738C93.1586 48.5056 93.3954 48.9669 93.8259 49.0832C94.1973 49.1836 94.5786 48.9941 94.916 48.8099C95.5522 48.4633 96.2429 48.1055 96.9616 48.1976C97.3981 48.2535 97.7938 48.4717 98.1781 48.6861C101.393 50.4814 112.234 56.9878 115.399 58.8714Z" fill="white"/>
<path d="M77.6998 67.5029C75.3417 65.7982 72.1167 65.7771 69.313 66.56C66.5094 67.3429 63.9637 68.8294 61.2879 69.9755C52.2642 73.8409 41.5837 73.6469 32.706 69.4568C33.3679 71.7383 34.8257 73.7821 36.7707 75.1516C33.5434 74.8103 30.3154 74.4691 27.0881 74.1278C26.2279 74.0365 25.2792 73.967 24.5764 74.4713C23.0929 75.5359 24.0439 77.9397 25.4238 79.1356C26.8029 80.3322 28.6465 81.4073 28.8394 83.2207C28.2909 82.1932 26.6054 82.2378 25.8928 83.1596C25.1801 84.0814 25.3595 85.4713 26.0479 86.4112C26.7363 87.3519 27.8234 87.9174 28.9158 88.3251C34.1487 90.2767 40.0979 89.2205 45.1809 86.9088C50.2647 84.597 54.7085 81.1242 59.3368 78.0016C63.9645 74.879 68.9726 72.029 74.5012 71.234L77.6998 67.5029Z" fill="#F2591D"/>
<path d="M34.8286 90.144C32.6332 90.144 30.5474 89.7907 28.6357 89.078C27.6734 88.7194 26.2913 88.1026 25.3994 86.8871C24.5763 85.7629 24.2631 83.9548 25.2564 82.6706C25.7004 82.0968 26.4017 81.7344 27.1605 81.668C26.7611 81.2505 26.2656 80.8541 25.7565 80.4479C25.4622 80.2139 25.1709 79.9798 24.8963 79.7428C23.9158 78.8927 22.9581 77.3616 23.0269 75.8599C23.0663 75.0046 23.44 74.2994 24.108 73.82C25.0975 73.1111 26.3458 73.2417 27.1726 73.3308L34.3823 74.0925C33.2528 72.8287 32.4092 71.3195 31.9341 69.6805C31.8464 69.377 31.9455 69.0516 32.1853 68.8462C32.4259 68.6424 32.7656 68.5978 33.0508 68.7322C41.7205 72.8249 52.1574 73.0129 60.9723 69.2396C61.8332 68.8696 62.7024 68.4552 63.5429 68.0535C65.3139 67.2079 67.1447 66.3337 69.0965 65.7878C72.5795 64.8139 75.8885 65.2027 78.1724 66.8546C78.5317 67.1143 78.612 67.6164 78.351 67.9757C78.0922 68.3328 77.5884 68.4151 77.2283 68.1539C75.3461 66.7927 72.5402 66.4937 69.53 67.3333C67.7129 67.8414 66.0243 68.6477 64.2374 69.5008C63.3818 69.9092 62.4974 70.332 61.6062 70.714C52.9812 74.4066 42.8688 74.4768 34.1719 70.973C34.8899 72.3689 35.9414 73.5852 37.2351 74.4957C37.5339 74.7071 37.6534 75.0929 37.5248 75.4349C37.3954 75.7776 37.0467 75.9951 36.6866 75.9498L27.0032 74.926C26.2323 74.8445 25.4992 74.7985 25.0461 75.1238C24.7813 75.3141 24.6504 75.5708 24.6338 75.9347C24.5967 76.7312 25.1633 77.8478 25.9516 78.5303C26.2096 78.7545 26.485 78.9735 26.7611 79.1947C28.0207 80.2003 29.449 81.3403 29.6396 83.1371C29.6797 83.5191 29.4437 83.8763 29.076 83.9895C28.7061 84.102 28.3112 83.9382 28.1304 83.5984C27.9935 83.3425 27.6924 83.2806 27.5237 83.267C27.1295 83.2307 26.7323 83.3885 26.5296 83.6505C26.0265 84.3021 26.2414 85.316 26.6976 85.9396C27.1817 86.6002 27.9761 87.1189 29.1978 87.5741C33.6575 89.2373 39.2149 88.7421 44.8486 86.1797C48.6978 84.4289 52.2617 81.9397 55.7092 79.5321C56.7645 78.7945 57.8214 78.0562 58.8866 77.3374C63.2342 74.4043 68.4754 71.2908 74.3876 70.4407C74.8279 70.3766 75.2348 70.6823 75.2976 71.121C75.3612 71.5596 75.0563 71.9665 74.6168 72.0292C69.0269 72.8333 63.9832 75.8365 59.7876 78.6677C58.7292 79.3811 57.6799 80.1142 56.6306 80.8473C53.1249 83.2964 49.4989 85.8286 45.5151 87.6405C41.8604 89.3022 38.2155 90.144 34.8286 90.144Z" fill="#292625"/>
<path d="M141.333 67.5029C143.691 65.7982 146.916 65.7771 149.719 66.56C152.523 67.3429 155.07 68.8294 157.745 69.9755C166.768 73.8409 177.45 73.6469 186.326 69.4568C185.665 71.7383 184.207 73.7821 182.262 75.1516C185.49 74.8103 188.717 74.4691 191.944 74.1278C192.805 74.0365 193.753 73.967 194.456 74.4713C195.94 75.5359 194.989 77.9397 193.61 79.1356C192.23 80.3322 190.386 81.4073 190.193 83.2207C190.742 82.1932 192.427 82.2378 193.14 83.1596C193.853 84.0814 193.674 85.4713 192.985 86.4112C192.296 87.3519 191.21 87.9174 190.117 88.3251C184.884 90.2767 178.935 89.2205 173.852 86.9088C168.769 84.597 164.324 81.1242 159.696 78.0016C155.069 74.879 150.06 72.029 144.531 71.234L141.333 67.5029Z" fill="#F2591D"/>
<path d="M184.203 90.144C180.816 90.144 177.172 89.303 173.517 87.6398C169.534 85.8286 165.908 83.2964 162.401 80.8473C161.352 80.1142 160.304 79.3811 159.244 78.6677C155.049 75.8365 150.005 72.8333 144.416 72.0292C143.976 71.9665 143.671 71.5596 143.734 71.121C143.798 70.6823 144.207 70.3766 144.644 70.4407C150.557 71.2908 155.798 74.4043 160.146 77.3374C161.211 78.0562 162.267 78.7945 163.324 79.5321C166.77 81.9397 170.334 84.4289 174.183 86.1789C179.817 88.7421 185.375 89.2366 189.834 87.5741C191.056 87.1189 191.851 86.6002 192.335 85.9388C192.791 85.316 193.005 84.3021 192.502 83.6505C192.299 83.3885 191.896 83.2307 191.509 83.267C191.34 83.2806 191.038 83.3425 190.902 83.5984C190.722 83.9382 190.326 84.102 189.957 83.9895C189.588 83.8763 189.352 83.5191 189.393 83.1371C189.584 81.3403 191.011 80.2003 192.271 79.1947C192.548 78.9735 192.823 78.7545 193.081 78.5303C193.869 77.8478 194.436 76.7312 194.399 75.9347C194.382 75.5708 194.251 75.3141 193.986 75.1238C193.533 74.7985 192.802 74.8445 192.028 74.926L182.345 75.9498C181.987 75.9958 181.637 75.7776 181.508 75.4349C181.379 75.0929 181.498 74.7071 181.798 74.4957C183.091 73.5852 184.142 72.3689 184.86 70.973C176.161 74.4776 166.051 74.4081 157.426 70.714C156.535 70.332 155.65 69.9092 154.795 69.5008C153.008 68.6477 151.32 67.8414 149.501 67.3333C146.493 66.4945 143.687 66.7927 141.804 68.1539C141.444 68.4151 140.94 68.3344 140.681 67.9757C140.42 67.6164 140.501 67.1143 140.86 66.8546C143.144 65.2035 146.453 64.8147 149.935 65.7878C151.887 66.3337 153.718 67.2079 155.489 68.0535C156.33 68.4552 157.199 68.8696 158.06 69.2396C166.875 73.0137 177.312 72.8249 185.982 68.7322C186.266 68.5978 186.606 68.6424 186.847 68.8462C187.087 69.0516 187.186 69.377 187.098 69.6805C186.623 71.3195 185.779 72.8287 184.65 74.0925L191.859 73.3308C192.685 73.2417 193.935 73.1111 194.924 73.82C195.592 74.2994 195.966 75.0046 196.006 75.8599C196.075 77.3616 195.116 78.8927 194.136 79.7428C193.862 79.9798 193.57 80.2139 193.276 80.4479C192.767 80.8541 192.271 81.2505 191.871 81.668C192.63 81.7344 193.332 82.0968 193.776 82.6706C194.769 83.9548 194.456 85.7629 193.633 86.8863C192.741 88.1026 191.359 88.7194 190.396 89.078C188.485 89.7907 186.399 90.144 184.203 90.144Z" fill="#292625"/>
<path d="M182.848 127.69C192.713 146.146 197.879 167.079 197.735 187.995C195.006 181.773 192.28 175.55 189.555 169.327C190.341 177.253 190.238 185.267 189.249 193.17C188.933 195.685 188.086 198.702 185.619 199.309C182.612 200.05 180.329 196.474 179.929 193.409C179.53 190.343 179.775 186.829 177.589 184.639C177.437 193.316 173.256 201.842 166.483 207.286C165.862 200.193 165.242 193.102 164.622 186.01C163.961 188.106 163.269 190.262 161.854 191.945C160.439 193.628 158.104 194.739 156.006 194.074C153.851 193.39 152.622 191.135 151.968 188.975C148.848 178.66 153.994 167.798 159.477 158.516C164.958 149.234 171.16 139.365 170.271 128.628L182.848 127.69Z" fill="#F2591D"/>
<path d="M166.484 208.087C166.378 208.087 166.27 208.065 166.168 208.022C165.895 207.905 165.709 207.649 165.683 207.354L164.14 189.723C163.706 190.689 163.172 191.625 162.471 192.459C160.982 194.228 158.334 195.652 155.763 194.836C153.149 194.008 151.838 191.317 151.199 189.206C147.981 178.566 153.228 167.514 158.785 158.107L159.554 156.807C164.836 147.893 170.297 138.676 169.47 128.693C169.434 128.251 169.762 127.863 170.205 127.826C170.659 127.794 171.037 128.119 171.073 128.56C171.942 139.053 166.348 148.494 160.938 157.623L160.17 158.922C154.79 168.029 149.7 178.695 152.739 188.741C153.266 190.483 154.304 192.69 156.249 193.307C158.102 193.892 160.132 192.743 161.239 191.427C162.573 189.841 163.225 187.771 163.855 185.768C163.97 185.402 164.331 185.172 164.71 185.211C165.092 185.252 165.39 185.557 165.423 185.939L167.149 205.664C173.071 200.344 176.647 192.59 176.787 184.624C176.791 184.301 176.99 184.014 177.29 183.893C177.589 183.773 177.931 183.842 178.16 184.071C180.09 186.005 180.316 188.722 180.535 191.35C180.59 192.01 180.644 192.666 180.727 193.304C180.983 195.263 182.048 197.237 183.316 198.101C183.993 198.564 184.706 198.706 185.427 198.529C187.03 198.134 188.047 196.298 188.451 193.069C189.432 185.227 189.535 177.266 188.755 169.404C188.716 169.011 188.969 168.648 189.352 168.549C189.737 168.451 190.134 168.643 190.292 169.004L196.896 184.076C196.417 164.575 191.346 145.292 182.14 128.067C181.93 127.676 182.078 127.19 182.47 126.981C182.861 126.773 183.349 126.919 183.558 127.312C193.506 145.922 198.682 166.908 198.538 188C198.53 188.379 198.266 188.704 197.895 188.78C197.524 188.857 197.146 188.662 196.995 188.315L190.721 173.989C191.072 180.416 190.847 186.882 190.047 193.268C189.552 197.223 188.128 199.517 185.813 200.087C184.642 200.375 183.464 200.147 182.408 199.427C180.509 198.132 179.395 195.522 179.133 193.511C179.046 192.849 178.99 192.168 178.933 191.483C178.805 189.952 178.682 188.475 178.238 187.211C177.396 195.236 173.305 202.833 166.988 207.908C166.843 208.026 166.664 208.086 166.484 208.087Z" fill="#292625"/>
<path d="M154.482 176.116C153.805 179.35 153.482 182.727 154.232 185.945C154.409 186.705 154.654 187.47 155.136 188.084C155.618 188.698 156.379 189.141 157.157 189.067C158.072 188.981 158.801 188.207 159.122 187.349C159.442 186.49 159.437 185.549 159.446 184.632C159.484 180.732 159.85 176.835 160.54 172.995C160.831 171.379 161.151 169.595 160.301 168.188C160.005 167.696 159.464 167.251 158.904 167.387C158.605 167.459 158.369 167.683 158.159 167.908C156.083 170.126 155.104 173.145 154.482 176.116Z" fill="#F79074"/>
<path d="M171.085 147.17C171.525 145.371 171.814 143.395 171 141.731C168.419 147.735 165.635 153.652 162.655 159.469C161.605 161.521 160.503 163.662 160.499 165.965C160.497 166.907 161.058 168.125 161.98 167.921C162.511 167.803 162.808 167.252 163.037 166.759C163.982 164.718 164.928 162.677 165.874 160.636C167.9 156.261 169.939 151.852 171.085 147.17Z" fill="#F79074"/>
<path d="M58.2782 163.494C56.8633 142.615 50.152 122.126 38.9429 104.466C39.9287 111.187 40.915 117.909 41.9015 124.63C38.3681 117.492 34.0341 110.751 29.0069 104.573C27.4067 102.607 25.0891 100.497 22.6759 101.289C19.7333 102.255 19.6918 106.497 20.9767 109.309C22.2626 112.12 24.3335 114.97 23.6396 117.986C18.9126 110.708 10.8493 105.693 2.22017 104.666C5.45239 111.009 8.68424 117.352 11.9165 123.695C10.2458 122.268 8.51613 120.806 6.42464 120.129C4.33211 119.451 1.76373 119.746 0.336504 121.423C-1.1286 123.144 -0.975727 125.708 -0.385422 127.886C2.43396 138.287 12.5548 144.772 22.1227 149.738C31.69 154.704 42.1793 159.787 47.1147 169.364L58.2782 163.494Z" fill="#F2591D"/>
<path d="M1.7961 103.987C1.9488 103.891 2.13328 103.848 2.31847 103.87C10.3659 104.827 17.861 109.101 22.8269 115.462C22.5345 114.155 21.855 112.836 21.1521 111.47C20.8373 110.859 20.5242 110.251 20.2479 109.645C19.4035 107.801 18.9665 104.997 19.8902 102.892C20.4028 101.721 21.2815 100.903 22.4285 100.527C24.6918 99.7851 27.1157 100.976 29.6315 104.067C33.6933 109.057 37.3105 114.422 40.4195 120.059L38.1488 104.585C38.0935 104.211 38.3072 103.848 38.6643 103.715C39.0199 103.582 39.4195 103.716 39.6222 104.036C50.9255 121.844 57.6549 142.385 59.0802 163.439C59.1118 163.882 58.7746 164.265 58.3335 164.296C57.8901 164.327 57.5074 163.993 57.4772 163.551C56.1567 144.065 50.2377 125.025 40.3086 108.234L42.698 124.514C42.7552 124.904 42.5191 125.278 42.1414 125.398C41.765 125.516 41.3577 125.342 41.1824 124.989C37.6766 117.907 33.3708 111.209 28.3841 105.081C26.3297 102.558 24.4939 101.54 22.9271 102.053C22.2191 102.286 21.6903 102.785 21.3623 103.535C20.7448 104.941 20.888 107.179 21.7089 108.975C21.9767 109.559 22.2779 110.145 22.5814 110.734C23.789 113.079 25.0367 115.502 24.4244 118.166C24.3519 118.481 24.0987 118.721 23.7803 118.778C23.4629 118.834 23.1418 118.696 22.9664 118.425C18.6268 111.743 11.4852 107.061 3.64414 105.688L12.6339 123.331C12.8077 123.672 12.7159 124.089 12.4139 124.326C12.1144 124.561 11.6859 124.556 11.3948 124.307C9.79726 122.943 8.14578 121.532 6.17663 120.895C4.5403 120.364 2.20734 120.465 0.950217 121.943C-0.374143 123.499 -0.0847335 125.92 0.391713 127.676C3.13692 137.805 13.1063 144.153 22.4949 149.026L23.8374 149.722C33.2622 154.597 43.0085 159.639 47.8305 168.997C48.0334 169.39 47.883 169.866 47.4836 170.079C47.0886 170.283 46.6039 170.128 46.4007 169.734C41.8127 160.83 32.2976 155.909 23.0962 151.148L21.7517 150.452C12.0541 145.419 1.74773 138.826 -1.15988 128.098C-1.73701 125.97 -2.05169 122.993 -0.273096 120.904C1.47445 118.85 4.47471 118.653 6.67444 119.366C7.71061 119.702 8.66002 120.213 9.54037 120.803L1.50517 105.033C1.37119 104.769 1.393 104.452 1.56299 104.209C1.62615 104.119 1.70564 104.043 1.7961 103.987Z" fill="#292625"/>
<path d="M25.8608 145.501C25.1242 145.626 24.8227 146.614 25.1186 147.299C25.4141 147.983 26.0829 148.418 26.7159 148.813C31.0566 151.519 35.3973 154.226 39.738 156.933C40.7497 157.564 41.7624 158.195 42.7297 158.892C44.6636 160.287 46.4081 161.942 47.901 163.8C43.242 155.569 35.6435 149.042 26.7977 145.674C26.4971 145.56 26.1778 145.447 25.8608 145.501Z" fill="#F79074"/>
<path d="M4.79168 124.843C4.22107 124.671 3.53611 124.658 3.09587 125.061C2.6509 125.469 2.60899 126.148 2.65174 126.749C2.96355 131.06 5.9858 134.654 9.11876 137.63C12.0044 140.37 15.1428 142.896 18.705 144.674C20.2474 145.443 22.0495 146.074 23.6672 145.469C24.0695 145.32 24.4684 145.069 24.6317 144.672C24.9768 143.832 24.1253 143.016 23.3674 142.519C20.8167 140.844 18.1478 139.321 15.8353 137.33C12.9846 134.877 10.7608 131.785 8.7107 128.632C7.69764 127.075 6.57219 125.378 4.79168 124.843Z" fill="#F79074"/>
<path d="M47.8178 50.2059C46.7935 51.4947 45.9182 52.8936 44.9597 54.2322C42.8929 57.1185 40.3676 59.7782 37.1872 61.3637C34.5137 62.697 31.4385 63.2134 28.4752 62.8276C27.6673 62.7226 26.6232 62.0922 27.0106 61.3765C35.9042 56.5356 43.8514 49.9704 50.278 42.1549C51.6382 40.5015 53.0015 38.7349 54.9344 37.81C55.2362 40.2509 54.137 42.669 52.6663 44.6418C51.1964 46.6153 49.3482 48.2785 47.8178 50.2059Z" fill="#60827F"/>
<path d="M63.3156 31.3811C62.8783 31.7563 62.4024 32.1375 61.832 32.2213C61.2624 32.3051 60.5891 31.9624 60.5286 31.3901C60.4953 31.076 60.6466 30.7741 60.7971 30.4955C61.9841 28.2978 63.3874 26.2163 64.9799 24.2903C66.3598 22.6226 68.2533 20.9352 70.3935 21.2735C70.6091 23.1843 69.4206 24.9517 68.189 26.4307C66.7055 28.2117 65.0737 29.8696 63.3156 31.3811Z" fill="#60827F"/>
<path d="M71.9623 166.389C71.6711 166.558 69.8493 163.978 67.8937 160.625C65.9382 157.273 64.5885 154.417 64.8805 154.248C65.1718 154.079 66.9935 156.659 68.9491 160.012C70.9047 163.365 72.2536 166.219 71.9623 166.389Z" fill="#292625"/>
<path d="M77.3229 167.107C77.1943 167.205 76.7964 166.929 76.3046 166.342C75.8257 165.749 75.2947 164.82 74.9452 163.703C74.6176 162.579 74.545 161.511 74.6153 160.753C74.6993 159.993 74.8786 159.543 75.0397 159.554C75.2145 159.564 75.3431 160.016 75.4778 160.709C75.6261 161.404 75.8212 162.338 76.1139 163.351C76.4309 164.356 76.7865 165.243 77.0475 165.903C77.3199 166.554 77.4636 167.003 77.3229 167.107Z" fill="#292625"/>
<path d="M81.6366 172.763C81.2992 172.759 81.0474 170.898 81.0731 168.605C81.0988 166.312 81.3938 164.456 81.7312 164.46C82.0679 164.464 82.3205 166.326 82.2948 168.618C82.2683 170.911 81.974 172.767 81.6366 172.763Z" fill="#292625"/>
<path d="M94.8108 178.335C94.7125 178.453 94.198 178.209 93.5346 177.58C92.8961 176.934 92.1971 175.838 91.8347 174.478C91.517 173.107 91.6198 171.813 91.8808 170.944C92.1713 170.077 92.5118 169.622 92.654 169.68C92.8242 169.744 92.7848 170.288 92.7319 171.09C92.7069 171.905 92.7508 173.002 93.0202 174.184C93.3371 175.354 93.813 176.344 94.2177 177.053C94.6414 177.737 94.9311 178.199 94.8108 178.335Z" fill="#292625"/>
<path d="M127.63 174.275C127.297 174.221 127.342 172.23 127.732 169.828C128.122 167.426 128.708 165.523 129.041 165.576C129.374 165.63 129.328 167.621 128.938 170.023C128.548 172.425 127.963 174.329 127.63 174.275Z" fill="#292625"/>
<path d="M139.04 172.414C138.698 172.261 139.502 169.795 140.254 166.717C140.935 163.623 141.3 161.056 141.674 161.069C141.974 161.071 142.155 163.764 141.445 166.993C140.658 170.204 139.31 172.543 139.04 172.414Z" fill="#292625"/>
<path d="M148.086 165.233C147.937 165.136 148.295 164.316 148.899 163.041C149.488 161.754 150.275 159.982 151.007 157.97C151.709 155.946 152.216 154.076 152.571 152.705C152.906 151.335 153.147 150.474 153.324 150.492C153.483 150.507 153.546 151.407 153.421 152.854C153.279 154.297 152.887 156.278 152.159 158.377C151.399 160.466 150.454 162.25 149.653 163.46C148.836 164.663 148.219 165.322 148.086 165.233Z" fill="#292625"/>
<path d="M76.4229 198.131C76.1202 198.279 75.0892 196.806 74.1201 194.84C73.1517 192.873 72.6115 191.158 72.9141 191.01C73.2167 190.862 74.2479 192.335 75.2162 194.301C76.1853 196.268 76.7255 197.983 76.4229 198.131Z" fill="#292625"/>
<path d="M83.3793 199.193C83.0866 199.359 82.1719 198.311 81.3368 196.852C80.5008 195.393 80.0605 194.075 80.3533 193.908C80.6468 193.741 81.5614 194.788 82.3966 196.247C83.2326 197.707 83.6729 199.026 83.3793 199.193Z" fill="#292625"/>
<path d="M83.0141 215.403C82.8636 215.664 80.8081 214.718 78.8139 212.809C76.8712 210.847 75.893 208.81 76.1517 208.656C76.4665 208.456 77.8403 210.092 79.671 211.94C81.5502 213.739 83.21 215.086 83.0141 215.403Z" fill="#292625"/>
<path d="M132.166 220.32C132.051 220.182 132.733 219.418 133.83 218.224C134.912 217.011 136.357 215.312 137.787 213.308C139.182 211.28 140.285 209.342 141.056 207.912C141.803 206.473 142.287 205.572 142.457 205.632C142.605 205.684 142.406 206.697 141.843 208.266C141.258 209.823 140.235 211.905 138.788 214.007C137.306 216.084 135.699 217.757 134.434 218.841C133.151 219.907 132.265 220.441 132.166 220.32Z" fill="#292625"/>
<path d="M123.632 218.564C123.365 218.36 124.023 217.053 125.105 215.646C126.186 214.238 127.279 213.264 127.547 213.468C127.814 213.674 127.155 214.981 126.074 216.387C124.993 217.794 123.899 218.769 123.632 218.564Z" fill="#292625"/>
<path d="M138.267 193.919C137.945 193.82 138.022 192.642 138.439 191.287C138.856 189.931 139.456 188.912 139.778 189.011C140.101 189.11 140.024 190.289 139.607 191.644C139.189 193 138.59 194.018 138.267 193.919Z" fill="#292625"/>
<path d="M146.554 138.05C146.625 138.18 145.864 138.799 144.397 139.367C143.667 139.656 142.757 139.893 141.727 140.052C140.695 140.19 139.542 140.237 138.342 140.125C137.143 140 136.022 139.728 135.037 139.39C134.058 139.033 133.213 138.621 132.554 138.195C131.227 137.35 130.603 136.593 130.698 136.481C130.815 136.334 131.615 136.832 132.962 137.434C133.632 137.742 134.455 138.044 135.381 138.321C136.314 138.577 137.354 138.796 138.463 138.913C139.572 139.015 140.635 139.005 141.6 138.936C142.563 138.847 143.429 138.712 144.147 138.542C145.587 138.215 146.469 137.883 146.554 138.05Z" fill="#292625"/>
<path d="M142.765 148.611C142.789 148.769 142.349 148.985 141.58 149.116C140.812 149.229 139.715 149.194 138.565 148.864C137.424 148.507 136.489 147.932 135.911 147.416C135.342 146.884 135.094 146.461 135.201 146.343C135.318 146.211 135.757 146.391 136.391 146.699C137.039 146.995 137.912 147.379 138.917 147.696C139.931 147.985 140.872 148.145 141.575 148.254C142.274 148.346 142.741 148.436 142.765 148.611Z" fill="#292625"/>
<path d="M74.7236 136.724C74.7592 136.859 73.486 137.375 71.2898 137.586C70.7421 137.635 70.1391 137.678 69.4916 137.655C68.841 137.669 68.1518 137.593 67.4248 137.527C65.9776 137.34 64.4002 136.991 62.8115 136.419C61.2304 135.827 59.8036 135.071 58.5803 134.277C57.9834 133.856 57.41 133.468 56.9243 133.037C56.416 132.635 55.9847 132.212 55.5997 131.821C54.0654 130.238 53.4315 129.021 53.5457 128.942C53.7023 128.823 54.5716 129.834 56.186 131.187C56.5915 131.523 57.0348 131.889 57.5454 132.239C58.0341 132.616 58.6015 132.954 59.1833 133.328C60.3771 134.03 61.738 134.714 63.2337 135.275C64.7369 135.816 66.2173 136.177 67.5821 136.415C68.2683 136.506 68.9197 136.617 69.537 136.645C70.1528 136.71 70.7277 136.718 71.255 136.725C73.3635 136.74 74.682 136.532 74.7236 136.724Z" fill="#292625"/>
<path d="M69.3804 141.787C69.4076 141.942 68.6488 142.222 67.3635 142.434C66.0789 142.625 64.2625 142.674 62.2895 142.377C60.3218 142.043 58.6121 141.428 57.4524 140.846C56.2987 140.242 55.6654 139.739 55.7403 139.6C55.8228 139.442 56.5869 139.667 57.7746 140.046C58.9729 140.405 60.6222 140.856 62.4832 141.174C64.3495 141.454 66.0578 141.541 67.3083 141.575C68.555 141.585 69.3516 141.611 69.3804 141.787Z" fill="#292625"/>
</g>
<defs>
<clipPath id="clip0_2856_58548">
<rect width="211.636" height="263.891" fill="white" transform="translate(0.000488281)"/>
</clipPath>
</defs>
</svg>
