<svg width="120" height="83" viewBox="0 0 120 83" fill="none" xmlns="http://www.w3.org/2000/svg">
<g clip-path="url(#clip0_2992_46017)">
<path d="M103.039 29.8941C106.332 25.6076 109.75 21.0147 110.281 15.6333C110.707 11.3154 109.18 6.99836 106.953 3.26845C103.45 -2.5976 98.2553 -7.29537 92.6417 -11.1954C87.028 -15.0951 80.9521 -18.2716 75.0542 -21.7263C70.4756 -24.4086 65.6122 -27.3655 60.3184 -27.0531C56.3345 -26.8181 52.6358 -24.6835 49.8735 -21.81C47.1112 -18.9366 45.1888 -15.3632 43.5764 -11.7184C40.4798 -4.71875 38.3988 2.73022 37.4188 10.3233C36.8064 15.0701 36.6411 20.0096 38.2229 24.5309C40.034 29.7081 43.9764 33.8729 48.2575 37.3086C53.937 41.8673 60.5018 45.4766 67.6287 46.9674C74.7553 48.458 82.4749 47.7048 88.7885 44.0981C94.6549 40.7464 98.9262 35.2502 103.039 29.8941Z" fill="#2E2227"/>
<path d="M50.7832 -14.3042C50.1411 -12.2412 49.4915 -10.1556 48.3847 -8.30056C47.2711 -6.43448 45.7313 -4.86388 44.4573 -3.10358C38.7093 4.83687 39.3154 16.7557 45.8399 24.0958L44.7863 20.5884C46.2526 24.0943 50.2991 26.1916 53.9577 27.7251C55.9979 28.5803 58.1386 29.4196 60.302 29.8839C61.6676 31.6247 63.3603 33.1808 65.023 34.6395C68.0051 37.2556 71.6644 39.9734 75.4583 39.7543L71.8436 40.3448C81.3014 42.9914 92.2793 38.3111 96.8967 29.6642C97.92 27.7472 98.657 25.675 99.8461 23.8561C101.028 22.0479 102.618 20.5499 104.191 19.0685C111.35 12.3246 118.632 5.33904 122.889 -3.52715C127.146 -12.393 127.796 -23.6725 121.953 -31.6049C117.973 -37.0096 111.551 -40.1511 104.98 -41.6159C100.783 -46.8796 95.1443 -51.2743 88.5412 -52.4832C78.8505 -54.2572 68.9974 -48.7282 62.8952 -41.0156C56.7924 -33.3029 53.7061 -23.6954 50.7832 -14.3042Z" fill="#F2591D"/>
<path d="M104.759 -41.2608C104.719 -41.2858 104.683 -41.3175 104.653 -41.3552C102.134 -44.515 99.3434 -47.0627 96.3599 -48.9271C93.8073 -50.5221 91.1518 -51.5797 88.467 -52.0711C79.8235 -53.6536 69.9149 -49.2116 63.2236 -40.7554C57.0102 -32.9029 53.9145 -22.9549 51.1827 -14.1784C50.5411 -12.117 49.8775 -9.98454 48.7445 -8.08519C48.0454 -6.91377 47.1774 -5.85074 46.3383 -4.82201C45.8191 -4.18576 45.2821 -3.52774 44.7968 -2.85734C39.5918 4.33298 39.7106 14.8977 44.8128 22.1296L44.3862 20.7087C44.3222 20.4955 44.4361 20.2702 44.646 20.1957C44.855 20.1211 45.0864 20.224 45.1724 20.4288C45.8938 22.1533 47.3296 23.6698 49.5617 25.0646C51.1557 26.0606 52.9262 26.8409 54.1193 27.3409C56.4368 28.3124 58.39 29.047 60.3894 29.4765C60.4852 29.497 60.5707 29.5504 60.6311 29.6275C61.8933 31.2361 63.41 32.6698 65.2991 34.3268C66.2717 35.1801 67.7491 36.4293 69.343 37.4253C71.5752 38.8201 73.5675 39.4458 75.4338 39.3382C75.6556 39.3258 75.8495 39.4886 75.8741 39.7092C75.8988 39.9303 75.7466 40.1316 75.5268 40.1675L74.0628 40.407C82.7995 41.8226 92.347 37.2981 96.5279 29.4678C96.9177 28.7377 97.2737 27.9667 97.618 27.2211C98.1748 26.0159 98.7497 24.7698 99.4959 23.6283C100.706 21.7775 102.332 20.2459 103.904 18.7654C110.595 12.4627 118.178 5.31917 122.513 -3.70748C127.18 -13.4285 126.829 -24.2816 121.617 -31.3566C119.998 -33.5545 117.884 -35.4775 115.331 -37.0724C112.347 -38.9369 108.835 -40.3278 104.89 -41.2073C104.843 -41.2174 104.799 -41.2358 104.759 -41.2608ZM96.8021 -49.6355C96.8024 -49.6353 96.8021 -49.6355 96.8024 -49.6353C99.8304 -47.7432 102.66 -45.1716 105.215 -41.9903C109.194 -41.0885 112.746 -39.6727 115.774 -37.7806C118.416 -36.1294 120.609 -34.1344 122.291 -31.8511C127.683 -24.5301 128.066 -13.3406 123.267 -3.34469C118.865 5.82172 111.222 13.0215 104.478 19.3738C102.941 20.8213 101.352 22.3179 100.197 24.0861C99.4839 25.1762 98.9213 26.3944 98.3774 27.5724C98.0282 28.3288 97.667 29.111 97.2659 29.8622C92.569 38.6587 81.3531 43.4404 71.7321 40.7483C71.5427 40.6948 71.4159 40.5182 71.4265 40.3229C71.437 40.1271 71.5822 39.9654 71.7757 39.9335L72.5111 39.8135C71.3602 39.4806 70.1629 38.9224 68.9005 38.1335C67.2548 37.1052 65.7423 35.8266 64.7477 34.9545C63.1207 33.5265 61.4301 31.9713 60.0673 30.2609C57.932 29.7859 55.7936 28.9481 53.7969 28.1117C52.5771 27.6001 50.7648 26.8012 49.1192 25.7728C47.8567 24.984 46.8302 24.1526 46.0264 23.264L46.2407 23.9774C46.2972 24.1655 46.2154 24.3669 46.044 24.4622C45.8728 24.5572 45.6589 24.5207 45.5278 24.374C38.8902 16.9066 38.2713 4.72972 44.1185 -3.34792C44.6178 -4.0378 45.1625 -4.70531 45.6893 -5.35073C46.51 -6.35581 47.3583 -7.39549 48.0256 -8.51398C49.1084 -10.3285 49.7567 -12.4126 50.3842 -14.4277C53.1372 -23.2738 56.2577 -33.2999 62.567 -41.2741C69.4474 -49.9697 79.6724 -54.5304 88.616 -52.8933C91.4057 -52.3826 94.16 -51.2864 96.8021 -49.6355Z" fill="#292625"/>
<path d="M61.1725 -33.4599C60.9038 -32.1511 61.4003 -30.8339 62.452 -30.0993C62.4627 -30.1172 61.4004 -30.3803 61.2645 -30.3893C60.7663 -30.4232 60.2597 -30.333 59.7886 -30.1369C58.9358 -29.7823 58.2558 -29.0789 57.8593 -28.2349C57.0944 -26.6067 57.6302 -24.6312 59.1435 -23.7936C59.1399 -23.7856 59.136 -23.7779 59.1325 -23.7694C57.3813 -24.4023 55.4735 -23.3183 54.8644 -21.5019C54.5902 -20.6835 54.5734 -19.8217 54.8822 -19.0354C55.0581 -18.586 55.3405 -18.1904 55.6993 -17.8792C55.8115 -17.7817 56.8915 -17.1717 56.901 -17.2144C55.0459 -17.4129 53.3886 -15.9283 53.2082 -14.0307C53.0279 -12.1415 54.2616 -10.4599 56.1693 -10.4036C56.1691 -10.4218 55.1143 -10.0619 54.9917 -9.99489C54.585 -9.77333 54.2337 -9.46436 53.9475 -9.09476C53.3697 -8.3492 53.1258 -7.36682 53.243 -6.45428C53.4816 -4.59367 55.0614 -3.25724 56.9448 -3.62839C56.9436 -3.63469 56.0435 -3.10631 55.9398 -3.02058C55.5618 -2.70834 55.2622 -2.31514 55.0478 -1.87245C54.6399 -1.02955 54.6102 -0.0490105 54.9025 0.805297C55.4971 2.57754 57.3882 3.52067 59.1594 2.75334C59.153 2.73967 58.3345 3.51402 58.2487 3.6276C57.9432 4.03189 57.736 4.5023 57.6343 4.99554C57.4553 5.86287 57.6379 6.76208 58.0829 7.48804C59.0425 9.07198 61.1048 9.5672 62.6882 8.43934C62.6857 8.43592 62.0729 9.28882 62.012 9.4101C61.7926 9.84736 61.6781 10.321 61.6606 10.8029C61.6291 11.6772 61.9627 12.5188 62.5248 13.1442C63.7923 14.5556 66.0026 14.6462 67.3704 13.1517C67.3606 13.1436 66.924 14.1826 66.8913 14.321C66.785 14.772 66.7788 15.2327 66.867 15.6783C67.0456 16.5788 67.601 17.3797 68.3731 17.8377C69.1569 18.3029 70.0641 18.477 70.9762 18.2326C71.4148 18.1153 71.8275 17.9012 72.1842 17.6067C72.2942 17.516 73.0315 16.6659 73.0205 16.6605C72.3074 18.4947 73.2737 20.3339 74.9934 20.948C75.7913 21.2326 76.7144 21.1822 77.5045 20.8121C77.9414 20.6075 78.3322 20.3135 78.6455 19.9368C78.7418 19.8214 79.342 18.774 79.3201 18.7696C79.0092 20.694 80.3497 22.2657 82.1757 22.4757C83.069 22.5786 84.0082 22.2974 84.7278 21.7081C85.0696 21.4285 85.3547 21.0859 85.563 20.6931C85.6333 20.5606 86.0062 19.4142 85.9823 19.4145C86.0789 21.3472 87.7345 22.5735 89.5773 22.3757C90.4804 22.2786 91.3478 21.8011 91.9338 21.0727C92.2125 20.7262 92.4215 20.3316 92.5443 19.9048C92.5856 19.7615 92.71 18.5678 92.6859 18.5736C93.1881 20.4276 95.0836 21.2456 96.8609 20.6437C98.645 20.0392 99.6842 18.0516 99.0803 16.28C99.0724 16.2839 99.7061 17.0717 99.8017 17.1564C100.16 17.4721 100.593 17.7012 101.061 17.8085C101.957 18.0142 102.868 17.8093 103.671 17.3177C105.298 16.3222 105.882 14.1616 104.888 12.5936C104.854 12.6205 105.88 13.3204 106.018 13.3781C106.456 13.5622 106.935 13.6402 107.417 13.5981C108.259 13.525 109.021 13.1264 109.637 12.5211C110.346 11.8228 110.772 10.8421 110.739 9.85485C110.726 9.42247 110.626 8.99816 110.445 8.6143C110.39 8.49635 109.804 7.65717 109.797 7.66633C111.129 8.59661 113.012 8.31949 114.163 7.07887C115.563 5.57128 115.566 3.17539 113.983 1.94143C113.971 1.95921 115.015 2.27425 115.15 2.29015C115.596 2.34338 116.058 2.30018 116.496 2.16368C117.372 1.89022 118.106 1.23932 118.558 0.428408C118.996 -0.355352 119.164 -1.24407 118.987 -2.10879C118.896 -2.5566 118.701 -2.97559 118.43 -3.33243C118.343 -3.44816 117.409 -4.281 117.389 -4.23427C119.194 -3.59615 121.039 -4.721 121.676 -6.55777C121.969 -7.40131 121.917 -8.36631 121.547 -9.14261C121.336 -9.58536 121.032 -9.96549 120.638 -10.2474C120.528 -10.3258 119.42 -10.8409 119.411 -10.783C121.411 -10.6153 122.925 -12.2933 122.964 -14.2792C122.98 -15.157 122.644 -16.0545 122.032 -16.6475C121.698 -16.9706 121.298 -17.2153 120.851 -17.3457C120.718 -17.3847 119.41 -17.5026 119.424 -17.4208C121.354 -17.9414 122.319 -20.0484 121.645 -21.8683C120.979 -23.6679 119.028 -24.5429 117.253 -23.6C117.266 -23.576 118.038 -24.3581 118.113 -24.4613C118.411 -24.8709 118.62 -25.3503 118.698 -25.8476C118.843 -26.7707 118.614 -27.7013 118.073 -28.4193C116.982 -29.926 114.875 -30.2463 113.369 -28.9831C113.377 -28.9749 113.937 -29.8786 113.988 -30.0011C114.18 -30.4564 114.267 -30.9445 114.259 -31.431C114.243 -32.2973 113.852 -33.092 113.273 -33.6874C111.969 -35.0298 109.757 -35.0029 108.428 -33.5404C108.43 -33.5393 108.845 -34.4962 108.878 -34.6281C109 -35.1005 109.018 -35.5907 108.942 -36.0637C108.799 -36.9518 108.275 -37.7114 107.569 -38.216C106.124 -39.2684 104.009 -38.9641 102.891 -37.422C102.885 -37.4256 103.185 -38.3483 103.205 -38.4761C103.277 -38.9263 103.255 -39.3855 103.144 -39.8184C102.907 -40.7467 102.287 -41.509 101.459 -41.9371C100.721 -42.3179 99.8536 -42.4578 99.024 -42.2295C98.5704 -42.1044 98.136 -41.8839 97.7624 -41.5838C97.6452 -41.4899 96.8552 -40.5925 96.8718 -40.5849C97.5348 -42.3421 96.6759 -44.2966 94.9833 -44.9059C94.2003 -45.1881 93.3106 -45.2262 92.5084 -44.8961C92.0607 -44.7122 91.6469 -44.4288 91.309 -44.0716C91.2073 -43.9637 90.5358 -42.9516 90.5624 -42.9443C91.0129 -44.8486 89.7975 -46.5877 87.9693 -46.9005C87.1332 -47.0718 86.2292 -46.8789 85.4912 -46.3975C85.0759 -46.1266 84.7286 -45.767 84.4724 -45.3369C84.3998 -45.2155 83.9572 -44.0674 83.9987 -44.0655C84.067 -46.0511 82.4429 -47.4496 80.5398 -47.2653C78.613 -47.0793 77.1261 -45.3372 77.4732 -43.362C77.5139 -43.3736 77.0158 -44.3435 76.9446 -44.4399C76.6531 -44.8319 76.2593 -45.1265 75.8174 -45.324C74.9756 -45.7008 73.9764 -45.617 73.1226 -45.2208C71.3293 -44.3631 70.4885 -42.2265 71.4879 -40.5108C71.5159 -40.5303 70.7299 -41.235 70.6283 -41.2989C70.213 -41.5635 69.7359 -41.7069 69.2389 -41.7271C68.3228 -41.7645 67.3788 -41.391 66.7003 -40.7218C65.314 -39.3545 65.1203 -37.1883 66.4816 -35.849C66.5295 -35.9056 65.2216 -36.3922 65.0647 -36.4152C64.4777 -36.5009 63.8781 -36.4081 63.3233 -36.1605C62.2433 -35.6779 61.4147 -34.6273 61.1725 -33.4599C61.2694 -33.9269 61.0764 -32.9919 61.1725 -33.4599Z" fill="#F7A80E"/>
<path d="M62.3285 -25.1446C62.1033 -24.0481 62.5194 -22.9446 63.4005 -22.3292C63.4093 -22.3441 62.519 -22.5646 62.4056 -22.5724C61.9878 -22.6005 61.5638 -22.5251 61.1688 -22.361C60.4549 -22.0637 59.8848 -21.4745 59.5528 -20.7672C58.9121 -19.4032 59.361 -17.7484 60.6287 -17.0466C60.6254 -17.0398 60.6223 -17.0334 60.6194 -17.0265C59.1524 -17.5564 57.5542 -16.6485 57.0438 -15.1267C56.8138 -14.4408 56.8002 -13.7193 57.0587 -13.0604C57.2059 -12.6839 57.4426 -12.3526 57.7432 -12.0916C57.8375 -12.01 58.7421 -11.4989 58.7501 -11.5347C57.1961 -11.7011 55.8075 -10.4571 55.6562 -8.86752C55.5055 -7.28491 56.5389 -5.87626 58.1371 -5.82899C58.137 -5.84436 57.2533 -5.54288 57.1505 -5.48672C56.8097 -5.30086 56.5154 -5.04237 56.2753 -4.73244C55.7917 -4.10778 55.5872 -3.28509 55.6853 -2.52022C55.8852 -0.961694 57.2087 0.158057 58.7866 -0.152898C58.7854 -0.158316 58.0315 0.284521 57.9445 0.356146C57.6282 0.617983 57.3769 0.947321 57.1975 1.31834C56.8558 2.02423 56.8308 2.84561 57.0756 3.56136C57.5741 5.04614 59.1583 5.8364 60.642 5.19332C60.6365 5.18202 59.951 5.83055 59.8791 5.92552C59.623 6.26482 59.4497 6.65867 59.3643 7.07172C59.2146 7.79852 59.3673 8.55167 59.7402 9.15982C60.5443 10.4868 62.2718 10.902 63.5981 9.95679C63.5961 9.95412 63.0828 10.6686 63.0318 10.7702C62.8479 11.1365 62.7519 11.5332 62.7376 11.937C62.7108 12.6692 62.9905 13.3744 63.4612 13.8987C64.5229 15.0809 66.3749 15.1566 67.5207 13.9045C67.5123 13.8979 67.1468 14.7681 67.1192 14.8843C67.0304 15.2619 67.0252 15.6482 67.0989 16.0213C67.2485 16.7757 67.7138 17.4468 68.3611 17.8304C69.0175 18.2202 69.7772 18.366 70.5418 18.1615C70.9091 18.0631 71.2548 17.8835 71.5536 17.6371C71.6456 17.5612 72.2635 16.8486 72.2542 16.8442C71.6564 18.3809 72.4662 19.9217 73.9071 20.4362C74.5755 20.6746 75.3489 20.6327 76.0108 20.3222C76.3769 20.1508 76.7039 19.9045 76.9666 19.5888C77.047 19.4921 77.55 18.6151 77.532 18.6113C77.2711 20.2232 78.3945 21.5398 79.9238 21.7159C80.6725 21.8021 81.4593 21.5665 82.062 21.0728C82.3485 20.8386 82.5873 20.5515 82.7619 20.2224C82.8209 20.1116 83.1331 19.1514 83.1132 19.1515C83.1941 20.7704 84.5809 21.7977 86.125 21.6324C86.8813 21.551 87.6082 21.1506 88.0989 20.5406C88.3327 20.2503 88.5078 19.9197 88.6104 19.5623C88.6451 19.4422 88.7493 18.442 88.729 18.447C89.1495 20.0002 90.7376 20.6854 92.2266 20.1809C93.7213 19.6748 94.5921 18.0095 94.0861 16.5255C94.0794 16.5288 94.6101 17.1888 94.6905 17.2599C94.9905 17.5242 95.3538 17.716 95.7451 17.8058C96.4964 17.9784 97.2591 17.8066 97.9323 17.3948C99.2953 16.561 99.7842 14.7506 98.9512 13.4371C98.9227 13.4596 99.7828 14.0456 99.8977 14.0943C100.265 14.2487 100.667 14.3141 101.07 14.2788C101.775 14.2171 102.414 13.8835 102.93 13.3764C103.524 12.7916 103.881 11.9697 103.853 11.1427C103.842 10.7803 103.758 10.4253 103.607 10.1034C103.56 10.0048 103.07 9.30189 103.064 9.30926C104.18 10.0885 105.757 9.85638 106.722 8.81708C107.894 7.55394 107.897 5.54695 106.571 4.51331C106.561 4.52809 107.436 4.79191 107.548 4.80517C107.922 4.84989 108.31 4.81363 108.676 4.69944C109.41 4.47007 110.025 3.92498 110.404 3.24595C110.77 2.58887 110.911 1.84458 110.763 1.12016C110.687 0.744893 110.523 0.39412 110.296 0.0948008C110.223 -0.00191484 109.441 -0.699813 109.424 -0.660706C110.937 -0.125897 112.482 -1.06868 113.016 -2.60728C113.261 -3.31379 113.218 -4.12211 112.908 -4.77241C112.731 -5.14372 112.476 -5.46177 112.146 -5.69826C112.054 -5.76358 111.126 -6.19534 111.118 -6.14669C112.794 -6.00653 114.062 -7.41211 114.094 -9.07585C114.108 -9.81129 113.827 -10.563 113.314 -11.0601C113.035 -11.3304 112.699 -11.5358 112.325 -11.6448C112.213 -11.6774 111.117 -11.7762 111.129 -11.7078C112.746 -12.1439 113.555 -13.9093 112.99 -15.4337C112.432 -16.9413 110.798 -17.6742 109.31 -16.8844C109.321 -16.8641 109.968 -17.5195 110.031 -17.6058C110.28 -17.9489 110.456 -18.3507 110.521 -18.7674C110.643 -19.5406 110.451 -20.3202 109.997 -20.9217C109.083 -22.1843 107.318 -22.4522 106.057 -21.3941C106.063 -21.3873 106.532 -22.1444 106.575 -22.2471C106.736 -22.6283 106.809 -23.0374 106.801 -23.4448C106.788 -24.1704 106.461 -24.8363 105.976 -25.3352C104.883 -26.4597 103.031 -26.4374 101.918 -25.212C101.919 -25.211 102.266 -26.0129 102.295 -26.123C102.396 -26.5193 102.411 -26.9298 102.348 -27.3257C102.228 -28.07 101.788 -28.7061 101.198 -29.129C99.9868 -30.0107 98.215 -29.7556 97.2786 -28.4643C97.2742 -28.467 97.5248 -29.2401 97.5416 -29.3473C97.6017 -29.7242 97.5836 -30.1089 97.4905 -30.4718C97.2917 -31.2492 96.7728 -31.888 96.0786 -32.2462C95.4606 -32.5653 94.7337 -32.6827 94.0391 -32.4914C93.6587 -32.3869 93.2952 -32.2018 92.9821 -31.9504C92.8837 -31.8716 92.222 -31.1201 92.2357 -31.1138C92.7914 -32.5856 92.0719 -34.2232 90.6536 -34.7338C89.9978 -34.9699 89.2523 -35.0018 88.5803 -34.7255C88.2053 -34.5712 87.8585 -34.334 87.5757 -34.0345C87.4902 -33.9444 86.9279 -33.0965 86.9499 -33.0902C87.3274 -34.6853 86.3096 -36.1426 84.7777 -36.4045C84.0771 -36.5482 83.3202 -36.3865 82.7016 -35.9833C82.3538 -35.7565 82.0629 -35.4551 81.8479 -35.0948C81.7874 -34.9927 81.4164 -34.0313 81.4511 -34.0296C81.5088 -35.693 80.1476 -36.8645 78.5536 -36.7105C76.9397 -36.5545 75.6935 -35.095 75.9846 -33.4402C76.0186 -33.45 75.6012 -34.2624 75.5417 -34.3432C75.2974 -34.6713 74.9676 -34.9182 74.5972 -35.0839C73.8921 -35.3994 73.055 -35.3291 72.3399 -34.9974C70.8374 -34.2789 70.133 -32.4892 70.97 -31.0514C70.9939 -31.068 70.3352 -31.6584 70.2502 -31.7119C69.9021 -31.9332 69.5025 -32.0536 69.0861 -32.0706C68.3189 -32.1017 67.5278 -31.7887 66.9593 -31.2281C65.7981 -30.0829 65.6356 -28.2682 66.7762 -27.146C66.816 -27.1934 65.7207 -27.6013 65.5892 -27.6205C65.0974 -27.692 64.595 -27.6145 64.1302 -27.407C63.2256 -27.0028 62.5312 -26.1226 62.3285 -25.1446C62.4096 -25.5358 62.2479 -24.7526 62.3285 -25.1446Z" fill="#F3D055"/>
<path d="M63.4838 -16.8298C63.3022 -15.9456 63.6378 -15.0559 64.3483 -14.5596C64.3553 -14.5714 63.6375 -14.7494 63.5459 -14.7557C63.2092 -14.7785 62.8671 -14.7176 62.5487 -14.5854C61.9727 -14.3455 61.5135 -13.8705 61.2453 -13.3002C60.7289 -12.2004 61.091 -10.8657 62.1133 -10.3001C62.1105 -10.2949 62.108 -10.2895 62.1059 -10.2839C60.923 -10.7113 59.6341 -9.97889 59.2225 -8.75199C59.0371 -8.199 59.0262 -7.61707 59.2345 -7.0858C59.3534 -6.78219 59.5442 -6.51478 59.7867 -6.3049C59.8625 -6.23901 60.5917 -5.82688 60.5981 -5.85574C59.3451 -5.98976 58.2254 -4.9867 58.1037 -3.70516C57.9819 -2.42874 58.8153 -1.29281 60.104 -1.25459C60.104 -1.26713 59.3914 -1.02408 59.3083 -0.978735C59.0339 -0.829228 58.7966 -0.620358 58.6031 -0.370754C58.2127 0.132909 58.0481 0.796662 58.1271 1.41299C58.2882 2.66977 59.3556 3.5725 60.628 3.32174C60.6268 3.31774 60.0191 3.67449 59.949 3.73256C59.6936 3.94357 59.4912 4.2089 59.3465 4.50804C59.071 5.07746 59.0508 5.73971 59.248 6.31689C59.6499 7.51434 60.9274 8.15139 62.124 7.63277C62.1194 7.62385 61.5667 8.14654 61.5089 8.22344C61.3023 8.49687 61.1625 8.81431 61.0939 9.14759C60.9729 9.73342 61.0961 10.3407 61.3968 10.8311C62.0449 11.9012 63.438 12.2358 64.5077 11.4739C64.506 11.4715 64.092 12.0479 64.0507 12.1295C63.9028 12.4248 63.8253 12.7451 63.8135 13.0707C63.7923 13.661 64.0177 14.2295 64.3972 14.6523C65.2534 15.6056 66.7464 15.6668 67.6707 14.657C67.6638 14.6517 67.3687 15.3535 67.3468 15.4472C67.275 15.7516 67.2709 16.0626 67.3305 16.3639C67.4511 16.9724 67.8265 17.5132 68.3479 17.8227C68.8775 18.137 69.4901 18.2544 70.1066 18.0893C70.4027 18.0099 70.6812 17.8657 70.9222 17.6665C70.9965 17.6055 71.4948 17.0308 71.4872 17.0274C71.0054 18.2665 71.6583 19.5087 72.82 19.9238C73.359 20.1161 73.9827 20.082 74.5164 19.8319C74.8115 19.6939 75.0754 19.4952 75.2869 19.2406C75.3519 19.1626 75.7576 18.4554 75.7428 18.4522C75.5328 19.7518 76.4381 20.8136 77.6716 20.9558C78.2751 21.0254 78.9097 20.835 79.3958 20.4375C79.6268 20.2483 79.8191 20.017 79.9599 19.7515C80.0074 19.6622 80.2594 18.8876 80.2434 18.8879C80.3082 20.1933 81.4267 21.0215 82.6719 20.888C83.2818 20.8226 83.8677 20.5 84.2634 20.0079C84.452 19.7737 84.5931 19.5071 84.6759 19.2193C84.7036 19.1222 84.788 18.3157 84.7715 18.3198C85.1108 19.5721 86.3915 20.1246 87.5919 19.7181C88.797 19.3099 89.4991 17.9672 89.0911 16.7705C89.0856 16.7727 89.5137 17.3051 89.5786 17.3624C89.8204 17.5755 90.1132 17.7302 90.4289 17.8029C91.0345 17.9419 91.6498 17.8033 92.1924 17.4712C93.2915 16.799 93.6859 15.3395 93.014 14.28C92.9913 14.2987 93.6848 14.7709 93.7774 14.8098C94.0732 14.9345 94.3977 14.9871 94.7225 14.959C95.2916 14.9092 95.8065 14.64 96.2221 14.2313C96.7015 13.7596 96.9888 13.097 96.9665 12.43C96.9578 12.1379 96.8903 11.8516 96.7684 11.592C96.7309 11.5125 96.3351 10.9456 96.3304 10.9515C97.2303 11.58 98.5021 11.3927 99.28 10.555C100.226 9.53629 100.227 7.91802 99.158 7.08449C99.1505 7.09648 99.8555 7.30907 99.9462 7.31989C100.248 7.35589 100.56 7.3269 100.855 7.23449C101.447 7.04974 101.943 6.60991 102.249 6.06243C102.544 5.5329 102.658 4.93257 102.539 4.34858C102.477 4.04573 102.345 3.76311 102.162 3.52186C102.103 3.44383 101.473 2.88121 101.459 2.91236C102.679 3.34386 103.924 2.58367 104.355 1.34304C104.553 0.773229 104.518 0.121605 104.268 -0.402916C104.125 -0.702249 103.92 -0.958684 103.653 -1.14955C103.58 -1.20219 102.831 -1.55031 102.825 -1.51086C104.176 -1.39797 105.199 -2.5314 105.225 -3.87281C105.236 -4.46585 105.009 -5.07198 104.595 -5.47274C104.37 -5.69086 104.1 -5.85643 103.798 -5.94421C103.708 -5.97066 102.824 -6.05033 102.834 -5.99508C104.137 -6.34663 104.789 -7.77026 104.334 -8.99966C103.884 -10.2151 102.566 -10.8065 101.367 -10.1694C101.376 -10.1529 101.897 -10.6812 101.948 -10.7508C102.149 -11.0278 102.291 -11.3516 102.343 -11.6878C102.441 -12.3112 102.287 -12.9395 101.921 -13.4249C101.184 -14.4429 99.7605 -14.659 98.7436 -13.8057C98.7489 -13.8001 99.1268 -14.4107 99.1618 -14.4935C99.2912 -14.8008 99.3502 -15.1307 99.3443 -15.4592C99.3335 -16.0444 99.0694 -16.5814 98.6787 -16.9835C97.7974 -17.8904 96.3036 -17.8724 95.406 -16.8839C95.4067 -16.8834 95.6872 -17.5299 95.7099 -17.619C95.792 -17.9383 95.8037 -18.269 95.7527 -18.5885C95.6563 -19.1889 95.3019 -19.7017 94.8252 -20.0427C93.8492 -20.7535 92.4206 -20.5479 91.6655 -19.5066C91.6618 -19.5089 91.8637 -20.1321 91.8777 -20.2183C91.9259 -20.5227 91.9111 -20.8325 91.8363 -21.1252C91.6758 -21.7522 91.2572 -22.2671 90.6976 -22.5561C90.1994 -22.8137 89.6136 -22.9079 89.0533 -22.754C88.7466 -22.6696 88.4533 -22.5203 88.2009 -22.3176C88.1217 -22.2541 87.5881 -21.6482 87.5993 -21.643C88.047 -22.8297 87.4667 -24.1502 86.3237 -24.562C85.7946 -24.7523 85.1938 -24.778 84.6518 -24.5553C84.349 -24.4309 84.0697 -24.2395 83.8414 -23.9982C83.7727 -23.9253 83.319 -23.2416 83.337 -23.2369C83.6412 -24.523 82.8204 -25.6978 81.5855 -25.909C81.0206 -26.0248 80.41 -25.8945 79.9112 -25.5693C79.6308 -25.3865 79.3963 -25.1435 79.2231 -24.8529C79.1741 -24.7709 78.8751 -23.9953 78.9033 -23.9943C78.9494 -25.3352 77.8522 -26.2802 76.5667 -26.1556C75.2652 -26.03 74.2606 -24.8532 74.495 -23.5191C74.5229 -23.5266 74.1862 -24.1822 74.138 -24.247C73.941 -24.5118 73.6751 -24.7109 73.3764 -24.8443C72.8082 -25.0988 72.1332 -25.0421 71.5562 -24.7746C70.3451 -24.195 69.777 -22.7519 70.4517 -21.5929C70.4706 -21.6061 69.9401 -22.0821 69.8713 -22.1251C69.5907 -22.3037 69.2685 -22.4008 68.9325 -22.4143C68.3139 -22.4396 67.6759 -22.1875 67.2179 -21.7353C66.2816 -20.8118 66.1506 -19.3484 67.0701 -18.4436C67.1023 -18.4818 66.2191 -18.8109 66.1131 -18.8262C65.7166 -18.884 65.3113 -18.8214 64.9365 -18.654C64.2072 -18.3283 63.6474 -17.6183 63.4838 -16.8298C63.5491 -17.1452 63.4187 -16.5139 63.4838 -16.8298Z" fill="#F8E298"/>
<path d="M119.334 -15.0551C118.556 -12.5654 117.777 -10.0753 116.999 -7.58561C117.132 -10.9207 115.841 -14.2921 113.513 -16.6904C112.833 -14.6722 112.154 -12.6545 111.474 -10.6362C111.139 -12.7079 110.332 -14.7027 109.13 -16.4253C108.803 -16.8935 108.359 -17.3863 107.789 -17.3695C107.212 -17.3526 106.799 -16.8247 106.502 -16.3313C103.616 -11.5265 103.69 -5.56642 103.928 0.0371324C104.165 5.64069 104.415 11.5561 101.798 16.5125C100.903 18.2068 99.6713 20.2124 100.645 21.8661C101.323 23.0178 102.881 23.4032 104.18 23.0945C105.48 22.7856 106.573 21.9325 107.587 21.0655C114.147 15.4605 119.351 8.2833 122.637 0.306498C123.699 -2.27038 124.574 -5.10092 123.93 -7.81555C122.562 -5.45166 121.194 -3.08788 119.827 -0.724318C121.231 -5.3808 121.054 -10.5004 119.334 -15.0551Z" fill="#F2591D"/>
<path d="M119.605 -0.370851C119.447 -0.469512 119.371 -0.66288 119.426 -0.845815C120.687 -5.02751 120.655 -9.55048 119.354 -13.7166L117.398 -7.46069C117.336 -7.26085 117.134 -7.13842 116.927 -7.1745C116.722 -7.21029 116.573 -7.39372 116.581 -7.60356C116.7 -10.5757 115.625 -13.6209 113.683 -15.885L111.871 -10.5029C111.809 -10.3208 111.632 -10.2044 111.44 -10.2205C111.248 -10.2372 111.092 -10.3814 111.061 -10.5709C110.737 -12.5771 109.951 -14.5192 108.787 -16.1872C108.418 -16.7162 108.105 -16.961 107.802 -16.9524C107.502 -16.9436 107.194 -16.67 106.861 -16.116C104.101 -11.5213 104.096 -5.86157 104.346 0.0197538C104.589 5.7368 104.839 11.6492 102.168 16.7075L101.953 17.1111C101.144 18.6207 100.227 20.3317 101.006 21.6543C101.169 21.9327 101.402 22.1671 101.697 22.3515C102.343 22.7551 103.257 22.884 104.083 22.6876C105.312 22.3956 106.353 21.5688 107.315 20.7473C113.825 15.1855 118.989 8.06189 122.251 0.146432C123.097 -1.90822 123.897 -4.26821 123.703 -6.58715L120.189 -0.515031C120.083 -0.33139 119.856 -0.256946 119.661 -0.341347C119.641 -0.349737 119.623 -0.359796 119.605 -0.370851ZM119.555 -15.4096C119.631 -15.362 119.692 -15.2904 119.725 -15.2024C121.148 -11.4355 121.536 -7.32151 120.872 -3.36713L123.528 -7.95543C123.538 -7.98517 123.551 -8.01424 123.569 -8.04188C123.691 -8.23743 123.949 -8.29671 124.145 -8.17427C124.147 -8.17268 124.149 -8.17156 124.151 -8.1703C124.243 -8.11294 124.311 -8.02098 124.337 -7.91147C125.026 -5.0089 124.06 -2.04783 123.024 0.465905C119.712 8.50243 114.469 15.7356 107.86 21.383C106.866 22.2317 105.688 23.1654 104.278 23.5006C103.227 23.7505 102.096 23.5855 101.255 23.0597C100.844 22.8031 100.518 22.4728 100.285 22.0772C99.2681 20.3495 100.348 18.3349 101.215 16.7157L101.428 16.3166C103.994 11.4574 103.748 5.66004 103.51 0.0536458C103.255 -5.95959 103.265 -11.754 106.144 -16.5471C106.457 -17.0684 106.967 -17.7642 107.776 -17.7879C108.377 -17.805 108.914 -17.4643 109.473 -16.6642C110.415 -15.3138 111.124 -13.7938 111.561 -12.2039L113.092 -16.7507C113.1 -16.8079 113.119 -16.8645 113.152 -16.9168C113.274 -17.1123 113.532 -17.1716 113.728 -17.0492C113.73 -17.0479 113.732 -17.0462 113.734 -17.045C113.763 -17.0273 113.789 -17.006 113.813 -16.9815C115.663 -15.0761 116.888 -12.5408 117.286 -9.90488L118.935 -15.1808C118.988 -15.3511 119.143 -15.4684 119.322 -15.4735C119.406 -15.4755 119.487 -15.4524 119.555 -15.4096Z" fill="#292625"/>
<path d="M32.1789 -5.22352C27.9169 2.60371 26.3549 12.6731 28.8013 21.8593C30.014 26.4134 37.6974 39.7508 49.2761 47.0179C61.053 54.4098 76.7565 55.6863 81.4606 54.7645C90.7899 52.9365 99.1551 47.1183 104.322 39.8563C109.488 32.5942 113.773 27.1561 115.72 18.3441C115.992 17.1095 112.885 15.138 111.684 14.3793C110.375 13.5522 108.853 14.565 107.998 15.6266C105.807 18.3455 104.528 21.6645 102.702 24.6341C100.875 27.604 93.813 35.4667 90.6337 37.4001C86.5804 39.8652 82.0474 39.4622 78.656 38.3078C72.5007 36.2129 68.8211 33.1799 62.6655 31.0848L58.3237 28.3717C53.7422 23.7575 49.4034 21.7801 44.8219 17.1659C42.2977 14.6238 39.9486 10.7264 40.3871 6.00254C40.7311 2.29745 44.7022 -7.49674 46.5708 -10.4404C48.4393 -13.3837 50.8619 -15.9877 52.345 -19.1492C52.9241 -20.3835 53.1679 -22.1946 51.8501 -23.0093C50.6417 -23.756 47.121 -25.043 46.1311 -24.2567C39.0639 -18.6446 36.4414 -13.0505 32.1789 -5.22352Z" fill="#795B26"/>
<path d="M62.3691 31.5572L58.0273 28.8441C57.9906 28.8212 57.9569 28.7941 57.9268 28.7637C55.6664 26.4869 53.4164 24.8243 51.2404 23.2164C49.0307 21.5836 46.7462 19.8953 44.4253 17.558C42.488 15.6068 39.3147 11.5043 39.8306 5.95011C40.1792 2.19604 44.1774 -7.71279 46.0987 -10.7393C46.8066 -11.8543 47.6 -12.931 48.367 -13.972C49.6282 -15.6842 50.9327 -17.4547 51.839 -19.3864C52.2394 -20.2404 52.6319 -21.8632 51.563 -22.5316L51.8579 -23.0037L51.5561 -22.5354C50.1033 -23.4335 47.0733 -24.2935 46.4775 -23.8205C40.1304 -18.7802 37.465 -13.8401 33.7756 -7.00289C33.4164 -6.33751 33.0487 -5.65619 32.6678 -4.95671C28.2809 3.10005 27.0364 13.0713 29.3388 21.7169C30.4806 26.0035 37.9237 39.2361 49.5705 46.5463L49.638 46.5884C61.4867 53.9923 77.1252 55.0461 81.3512 54.2179C90.1311 52.4973 98.5477 47.0077 103.866 39.5329C104.29 38.9361 104.709 38.3521 105.12 37.7771C109.753 31.3095 113.412 26.2007 115.174 18.223C115.219 18.0213 115.077 17.1823 111.386 14.8502C110.31 14.1776 109.023 15.2421 108.431 15.9764C107.092 17.6378 106.073 19.5863 105.087 21.4705C104.487 22.6161 103.867 23.8013 103.176 24.9263C101.298 27.9799 94.1444 35.9172 90.923 37.8762C86.1571 40.7747 81.0788 39.721 78.4757 38.8351C75.3576 37.7737 72.8387 36.4605 70.4025 35.1901C68.0034 33.9393 65.5227 32.6458 62.4855 31.6123C62.4449 31.5985 62.4059 31.5801 62.3691 31.5572ZM52.1529 -23.4757C53.6684 -22.5287 53.5943 -20.5013 52.8486 -18.912C51.8962 -16.8813 50.5587 -15.0662 49.2654 -13.3106C48.5097 -12.2848 47.728 -11.2239 47.0407 -10.141C45.2157 -7.26641 41.2708 2.50436 40.9407 6.05506C40.4673 11.1578 43.4163 14.9612 45.2165 16.774C47.4768 19.0507 49.7266 20.7136 51.9028 22.3213C54.0978 23.9434 56.3671 25.6204 58.6719 27.9337L62.9049 30.5787C65.9944 31.6362 68.4964 32.9407 70.9166 34.2024C73.3156 35.4537 75.7964 36.7468 78.8339 37.7805C81.252 38.6037 85.9632 39.5868 90.3421 36.9245C93.3887 35.0713 100.441 27.2424 102.225 24.342C102.897 23.2495 103.508 22.0818 104.098 20.953C105.109 19.0209 106.155 17.0231 107.562 15.2768C108.664 13.9099 110.454 12.9546 111.969 13.9016C114.391 15.4316 116.578 17.0379 116.263 18.4649C114.452 26.6652 110.734 31.8556 106.028 38.4268C105.617 39.0005 105.199 39.5838 104.775 40.1792C99.2962 47.8807 90.6204 53.5372 81.5677 55.311C77.0708 56.1923 61.3271 55.2053 49.0481 47.5325L48.979 47.4893C37.0666 40.0127 29.4365 26.4132 28.2614 22.0016C25.8873 13.0875 27.1681 2.80999 31.688 -5.49071C32.0684 -6.18865 32.4355 -6.86896 32.794 -7.53334C36.4046 -14.2252 39.2568 -19.5109 45.7825 -24.6929C47.2058 -25.8231 51.2392 -24.0406 52.1415 -23.4828C52.1422 -23.4824 52.1522 -23.4761 52.1529 -23.4757Z" fill="#292625"/>
<path d="M101.843 44.0622C103.621 42.5603 104.8 40.4692 105.702 38.3246C101.197 40.0538 96.3754 40.9595 91.5464 40.9834C90.9811 43.098 90.4158 45.2127 89.8501 47.3272C94.0695 47.1187 98.6206 46.7856 101.843 44.0622Z" fill="#7D3325"/>
<path d="M90.4033 46.8801C94.8128 46.6437 98.6914 46.1783 101.574 43.743C102.871 42.6469 103.946 41.1445 104.919 39.0599C100.72 40.5557 96.3361 41.341 91.8689 41.3978L90.4033 46.8801ZM105.924 37.9703C105.953 37.988 105.979 38.0094 106.003 38.0341C106.12 38.1545 106.153 38.3325 106.088 38.4869C104.958 41.1728 103.695 43.0456 102.114 44.381C98.6475 47.3108 93.5757 47.5613 89.8722 47.7442C89.7384 47.751 89.6103 47.6931 89.5257 47.5893C89.4419 47.4851 89.4124 47.3472 89.447 47.2183L91.143 40.8743C91.1914 40.6928 91.3558 40.5663 91.544 40.5653C96.3524 40.5416 101.065 39.6563 105.552 37.9342C105.677 37.8868 105.814 37.9017 105.924 37.9703Z" fill="#292625"/>
<path d="M29.5586 -1.10613C30.129 -3.36207 31.492 -5.33823 33.0237 -7.08985C33.4446 -2.28243 34.7443 2.44831 36.8397 6.79904C35.1869 8.23414 33.534 9.66924 31.8812 11.1043C30.2192 7.22088 28.5236 2.98426 29.5586 -1.10613Z" fill="#7D3325"/>
<path d="M36.3267 6.69081C34.4192 2.65066 33.2037 -1.63381 32.7067 -6.064C31.2597 -4.27565 30.3814 -2.65023 29.9647 -1.00363C29.0392 2.65448 30.3213 6.34453 32.0414 10.4112L36.3267 6.69081ZM33.2459 -7.44461C33.3557 -7.37599 33.4295 -7.25857 33.4414 -7.12608C33.8601 -2.33899 35.1308 2.28517 37.2171 6.61773C37.299 6.78748 37.2574 6.99076 37.1156 7.1138L32.157 11.4191C32.056 11.5065 31.9195 11.5407 31.7887 11.5109C31.6588 11.4811 31.5505 11.3907 31.4976 11.2674C30.0388 7.85872 28.0407 3.19035 29.1538 -1.21015C29.6613 -3.21597 30.7912 -5.17193 32.7096 -7.3656C32.82 -7.49167 32.9947 -7.53952 33.1541 -7.48715C33.1869 -7.47641 33.2175 -7.46234 33.2459 -7.44461Z" fill="#292625"/>
<path d="M57.0863 52.0407C58.4297 54.0288 61.0578 54.6006 63.4271 54.9819C69.0626 55.8882 74.8621 56.631 80.438 55.4304C86.0142 54.2301 91.4013 50.7253 93.3834 45.3827C93.7975 44.2654 94.0551 43.0242 93.6954 41.887C93.2631 40.5191 91.9952 39.5443 90.634 39.0888C89.2728 38.6333 87.8101 38.6166 86.3754 38.6039C79.6802 38.5445 72.9847 38.4854 66.2895 38.4266C63.5524 38.4023 60.4819 38.511 58.5938 40.4875C57.3154 41.8263 56.8804 43.7398 56.541 45.5598C56.1331 47.7478 55.8385 50.1937 57.0863 52.0407Z" fill="#D1B86C"/>
<path d="M58.848 53.144C60.1972 53.9871 61.9523 54.3218 63.4915 54.5698C68.9824 55.4528 74.8068 56.215 80.3477 55.0222C86.389 53.7215 91.2333 49.972 92.9896 45.2374C93.4709 43.9392 93.571 42.8845 93.2951 42.0122C92.9835 41.0259 92.2234 40.3847 91.6406 40.0205C91.2894 39.801 90.9054 39.6208 90.5004 39.4854C89.1887 39.0465 87.7563 39.0338 86.3712 39.0215L66.2852 38.8442C63.5032 38.8197 60.6409 38.9487 58.895 40.7764C57.7047 42.0225 57.2817 43.8611 56.9507 45.6372C56.5651 47.7071 56.2519 50.0617 57.4313 51.8071C57.7865 52.3329 58.2502 52.7704 58.848 53.144ZM92.0832 39.3122C93.0903 39.9415 93.7854 40.7886 94.0927 41.7616C94.4264 42.8178 94.3224 44.0502 93.7739 45.5288C91.9194 50.5281 86.8427 54.4789 80.5255 55.8392C74.8427 57.0624 68.9297 56.2903 63.36 55.3946C61.6207 55.1147 59.8168 54.7341 58.4055 53.8522C57.7155 53.4211 57.1548 52.89 56.7385 52.2742C55.4463 50.3615 55.6818 47.8796 56.1288 45.4826C56.4826 43.5831 56.941 41.6105 58.2894 40.1992C60.2658 38.1303 63.3259 37.9826 66.2907 38.0088L86.3769 38.1863C87.8273 38.199 89.3271 38.2121 90.7647 38.6932C91.2323 38.8496 91.6759 39.0578 92.0832 39.3122Z" fill="#292625"/>
<path d="M61.6788 46.6223C62.8922 46.0479 64.2208 45.7668 65.5347 45.4906C67.888 44.9957 70.2586 44.4992 72.6642 44.4585C73.8701 44.4376 75.076 44.5325 76.2819 44.5176C78.0876 44.4958 79.8819 44.2292 81.6863 44.1709C83.1172 44.1248 84.5523 44.2096 85.9682 44.4245C87.9083 44.7188 89.9214 45.3231 91.2345 46.7819C91.9116 45.7867 92.2737 44.5558 92.1144 43.3617C91.9548 42.1679 91.2393 41.0325 90.1688 40.478C88.9827 39.8633 87.5659 40.0048 86.237 40.1342C80.5614 40.687 74.8435 40.7339 69.1445 40.4944C67.0922 40.408 65.008 40.2872 63.0094 40.7559C61.0105 41.2244 59.068 42.3825 58.1763 44.2299C57.8058 44.9974 57.6324 45.8461 57.5373 46.6935C57.39 48.0041 57.4225 49.3352 57.634 50.6374C58.4751 48.8933 59.9276 47.4512 61.6788 46.6223Z" fill="#A37E33"/>
<path d="M89.1509 46.7288C88.5933 45.5629 87.0095 45.4398 85.7177 45.483C80.7238 45.6512 75.7296 45.8192 70.7357 45.9873C67.1179 46.1089 63.0068 46.4702 60.7981 49.3319C60.2601 50.0287 59.868 50.9667 60.2055 51.7807C60.5377 52.5816 61.4375 52.9651 62.2621 53.2335C70.4262 55.8907 79.7185 54.8275 87.0571 50.3961C88.3845 49.5946 89.82 48.1293 89.1509 46.7288Z" fill="#2E2227"/>
<path d="M42.1611 42.7146C39.7852 42.3787 38.1192 40.2672 36.7379 38.3049C33.4528 33.637 30.2429 28.7501 28.8777 23.2122C27.5121 17.6741 28.3007 11.2958 32.2336 7.1723C33.0563 6.31024 34.0589 5.53466 35.2387 5.3594C36.6577 5.14831 38.0896 5.86056 39.0957 6.88435C40.1019 7.90814 40.7581 9.21547 41.3984 10.4993C44.3868 16.491 47.375 22.483 50.3629 28.4748C51.5846 30.9242 52.8329 33.7316 51.8842 36.295C51.2413 38.031 49.7121 39.2608 48.2251 40.3636C46.4373 41.6894 44.3681 43.0265 42.1611 42.7146Z" fill="#D1B86C"/>
<path d="M40.3966 41.6137C40.9948 41.9875 41.5909 42.2123 42.2192 42.301C44.3046 42.5957 46.2839 41.2822 47.9754 40.0282C49.4266 38.9521 50.8935 37.7663 51.4919 36.1498C52.369 33.7798 51.2305 31.1503 49.9889 28.6606L41.0244 10.6852C40.4061 9.44561 39.7665 8.16356 38.7974 7.17721C38.4977 6.87233 38.1678 6.60638 37.8163 6.38674C37.2338 6.02276 36.3242 5.62069 35.3008 5.77283C34.3962 5.9074 33.4919 6.45955 32.5368 7.46127C29.0508 11.1155 27.8043 17.1132 29.2836 23.1133C30.6401 28.6161 33.8788 33.5172 37.0795 38.0652C37.9771 39.3399 39.0474 40.7706 40.3966 41.6137ZM38.2588 5.67851C38.6664 5.93319 39.048 6.24065 39.3935 6.59231C40.4557 7.67339 41.1255 9.01555 41.7726 10.3138L50.7374 28.2895C52.0606 30.9427 53.2693 33.7578 52.2762 36.4412C51.5984 38.2716 50.0268 39.5485 48.475 40.6994C46.5156 42.1519 44.3883 43.4512 42.1035 43.1287C41.3671 43.0243 40.644 42.7531 39.9541 42.3219C38.5427 41.4401 37.4099 39.9855 36.3959 38.545C33.1492 33.9316 29.8628 28.9553 28.4717 23.3118C26.9247 17.0374 28.2502 10.7426 31.9309 6.88443C33.0189 5.74345 34.0807 5.10947 35.1765 4.9461C36.1864 4.7962 37.2521 5.04942 38.2588 5.67851Z" fill="#292625"/>
<path d="M45.1736 36.3088C45.158 34.9664 44.8282 33.6491 44.5005 32.3471C43.9136 30.015 43.3207 27.6667 42.3028 25.4867C41.7929 24.3937 41.179 23.3514 40.6638 22.261C39.8918 20.6285 39.3448 18.899 38.6062 17.2517C38.0204 15.9453 37.3151 14.6926 36.5012 13.5143C35.3863 11.8995 33.9605 10.3551 32.0738 9.81437C32.6714 8.76952 33.619 7.90444 34.7622 7.52421C35.9051 7.14432 37.2392 7.28964 38.2069 8.00873C39.2793 8.80532 39.7732 10.1408 40.2395 11.3919C42.2307 16.7355 44.695 21.8952 47.4086 26.9124C48.3859 28.7191 49.4081 30.5395 49.863 32.5412C50.3182 34.5432 50.1288 36.7969 48.8593 38.4081C48.3319 39.0776 47.6451 39.6055 46.9251 40.0625C45.8118 40.7694 44.6011 41.3237 43.338 41.7044C44.5369 40.1839 45.1963 38.2462 45.1736 36.3088Z" fill="#A37E33"/>
<path d="M32.8791 11.5664C34.1715 11.5564 34.9764 12.926 35.5038 14.106C37.5418 18.6682 39.5802 23.2306 41.6182 27.7928C43.0949 31.0978 44.5724 34.9512 42.9685 38.1909C42.5781 38.9799 41.9069 39.7435 41.0274 39.797C40.1619 39.8495 39.4227 39.2088 38.82 38.5853C32.8528 32.4123 29.7349 23.5944 30.5009 15.0559C30.6393 13.5115 31.327 11.579 32.8791 11.5664Z" fill="#2E2227"/>
<path d="M56.3094 45.9663C56.6865 45.8953 56.9835 45.614 57.2573 45.3451C58.2119 44.4079 59.1665 43.4708 60.1211 42.5336C55.9983 41.4526 52.1559 39.3138 49.0642 36.379C48.8632 38.0585 48.1359 39.6704 47.0097 40.932C49.6733 42.4801 52.3371 44.0279 55.0007 45.5761C55.4031 45.8099 55.8519 46.0529 56.3094 45.9663Z" fill="#7D3325"/>
<path d="M47.6495 40.8202L55.2106 45.2141C55.5755 45.4264 55.9283 45.6121 56.2307 45.5551C56.4766 45.5086 56.7084 45.2973 56.9641 45.0463L59.3116 42.7417C57.0503 42.0791 54.8851 41.106 52.8656 39.8441C51.6185 39.0648 50.4383 38.18 49.3491 37.2081C49.0676 38.5195 48.4808 39.7684 47.6495 40.8202ZM60.3424 42.1788C60.4312 42.2343 60.4973 42.3215 60.5252 42.4255C60.564 42.5706 60.5218 42.7258 60.4146 42.8312L57.5509 45.6426C57.2772 45.9112 56.9025 46.2792 56.3875 46.3761C55.7534 46.4959 55.1743 46.1591 54.791 45.9362L46.7997 41.2924C46.6906 41.2331 46.6169 41.1208 46.597 40.9967C46.5769 40.8729 46.614 40.7466 46.6973 40.6527C47.7492 39.4744 48.4376 37.9665 48.64 36.3991C48.6348 36.3152 48.6548 36.229 48.7027 36.1524C48.8255 35.9559 49.0928 35.9024 49.2815 36.0217C49.3068 36.0399 49.3303 36.055 49.3522 36.0756C50.5553 37.2179 51.8865 38.2475 53.3081 39.1358C55.4649 40.4835 57.7923 41.4904 60.2266 42.1286C60.2682 42.1393 60.307 42.1567 60.3424 42.1788Z" fill="#292625"/>
<path d="M111.138 20.9562C111.886 20.753 112.734 20.6603 113.254 20.0861C114.007 19.2541 113.537 17.7696 112.534 17.2633C111.53 16.757 110.27 17.0655 109.37 17.7362C108.47 18.4065 107.855 19.3812 107.266 20.3359C103.586 26.2999 99.9743 32.5538 94.3936 36.7955C94.0631 37.0466 93.6881 37.3765 93.7493 37.7872C93.8083 38.1853 94.2844 38.4091 94.681 38.3411C95.078 38.2733 95.4046 38.0016 95.7054 37.7343C97.5731 36.074 99.2409 34.1999 100.809 32.254C102.121 30.6258 103.366 28.9437 104.541 27.2141C106.283 24.6494 108.142 21.7698 111.138 20.9562Z" fill="#D1B86C"/>
<path d="M46.0104 -19.7395C45.8648 -20.5011 45.5763 -21.3044 45.8645 -22.0234C46.282 -23.065 47.8222 -23.2935 48.7173 -22.6133C49.6126 -21.9329 49.8875 -20.6652 49.6792 -19.5624C49.4711 -18.4598 48.8651 -17.4795 48.2652 -16.5315C44.5179 -10.6096 40.4799 -4.62205 39.1139 2.25325C39.0331 2.66038 38.901 3.14206 38.5054 3.26722C38.1214 3.38855 37.7118 3.05901 37.5988 2.67246C37.486 2.28612 37.587 1.87351 37.6955 1.48597C38.3689 -0.920574 39.3223 -3.24112 40.3837 -5.50344C41.2722 -7.39625 42.2377 -9.25341 43.2775 -11.0674C44.8191 -13.7574 46.5919 -16.691 46.0104 -19.7395Z" fill="#D1B86C"/>
<path d="M72.2826 53.0863C72.1485 52.5611 73.9214 51.6596 76.242 51.073C78.5626 50.4863 80.5522 50.4368 80.6863 50.962C80.8201 51.487 79.0475 52.3888 76.727 52.9754C74.4064 53.562 72.4167 53.6115 72.2826 53.0863Z" fill="white"/>
<path d="M35.6164 31.2333C36.0719 30.9403 37.4943 32.334 38.7939 34.3463C40.093 36.3586 40.7767 38.2273 40.3212 38.5203C39.8658 38.8138 38.4434 37.4201 37.144 35.4075C35.8447 33.3955 35.1607 31.5266 35.6164 31.2333Z" fill="white"/>
<path d="M68.8589 28.1116C70.4831 32.1178 74.6771 34.4532 78.7762 35.8344C82.8758 37.2154 87.2611 38.0019 90.8975 40.3464C94.2122 42.483 96.6251 45.7425 98.8024 49.0295C99.6804 46.1588 99.0948 42.8784 97.2769 40.4835C98.4025 41.2045 99.5284 41.9261 100.654 42.6471C100.506 40.1486 100.016 37.6704 99.203 35.3019C100.168 35.6592 101.084 36.1519 101.913 36.7613C102.389 36.3105 102.257 35.5282 102.033 34.9115C100.376 30.3443 95.662 27.3275 90.8345 26.7585C84.4998 26.012 78.0792 28.8816 71.8098 27.7039C70.1726 27.396 68.4462 26.6966 67.6665 25.2251L68.8589 28.1116Z" fill="#F2591D"/>
<path d="M97.1723 28.5473C99.6167 30.0742 101.513 32.2548 102.426 34.7691C102.891 36.0493 102.56 36.7236 102.201 37.0638C102.054 37.2028 101.831 37.2167 101.665 37.0972C101.106 36.686 100.508 36.3315 99.8815 36.0376C100.539 38.1765 100.938 40.3873 101.071 42.6223C101.08 42.7791 101.001 42.9277 100.865 43.0068C100.73 43.0862 100.568 43.0821 100.428 42.9979L98.5856 41.8172C99.6913 44.0728 99.9376 46.7465 99.2016 49.1514C99.1546 49.306 99.0222 49.4192 98.862 49.4423C98.7017 49.4648 98.5431 49.394 98.453 49.259C96.3247 46.0452 93.9088 42.7838 90.6706 40.6964C88.0943 39.0301 85.045 38.146 82.1003 37.2884C80.9612 36.9564 79.7836 36.6134 78.6431 36.2296C73.3071 34.4317 69.8846 31.753 68.4709 28.2669C68.3842 28.0529 68.4876 27.8095 68.7013 27.723C68.9153 27.6367 69.1593 27.7401 69.2461 27.9541C70.5633 31.2039 73.8142 33.7212 78.9092 35.4375C80.0332 35.8165 81.2024 36.1567 82.3329 36.486C85.3354 37.3603 88.4382 38.2621 91.1235 39.9947C94.2227 41.9924 96.571 44.9842 98.624 48.0123C99.1091 45.4979 98.4974 42.7821 96.9434 40.735C96.8209 40.5732 96.8316 40.3473 96.9689 40.1988C97.1063 40.0503 97.3242 40.0359 97.5015 40.1309L100.175 41.8435C99.9784 39.6619 99.5196 37.5104 98.8073 35.4363C98.7551 35.2836 98.795 35.115 98.9104 35.0023C99.0259 34.8896 99.1959 34.8537 99.3471 34.9097C100.209 35.2281 101.028 35.6485 101.788 36.1623C101.876 35.812 101.745 35.3443 101.64 35.0527C100.143 30.9287 95.7813 27.7615 90.786 27.1728C87.8494 26.8266 84.8187 27.2839 81.8877 27.7258C78.5557 28.2284 75.1105 28.7482 71.7331 28.1135C69.5471 27.7027 68.013 26.7714 67.297 25.4193C67.1888 25.2151 67.2664 24.9625 67.4706 24.8548C67.6745 24.7469 67.9274 24.8257 68.0359 25.0293C68.7845 26.4429 70.543 27.0396 71.8861 27.2924C75.1243 27.9009 78.4982 27.392 81.7615 26.8998C84.747 26.4494 87.8343 25.9838 90.8826 26.3429C93.1648 26.6119 95.3251 27.393 97.1723 28.5473Z" fill="#292625"/>
<path d="M58.3313 21.5331C54.0181 21.8293 50.0809 19.0838 47.0423 16.0048C44.0042 12.9257 41.3746 9.32873 37.6736 7.08836C34.2999 5.04552 30.3127 4.30592 26.404 3.78993C28.5993 1.74234 31.804 0.830463 34.7538 1.41474C33.612 0.718837 32.4703 0.0234766 31.3288 -0.672216C33.639 -1.63445 36.0813 -2.28071 38.5663 -2.58813C37.8223 -3.29899 36.9783 -3.90559 36.0667 -4.38395C36.2634 -5.00913 37.0242 -5.2336 37.6769 -5.30285C42.5085 -5.81515 47.2862 -2.90101 49.9136 1.18827C53.3615 6.55454 53.5972 13.5836 57.4041 18.7021C58.3982 20.0385 59.7836 21.2836 61.448 21.3393L58.3313 21.5331Z" fill="#F2591D"/>
<path d="M45.526 -3.72513C47.3736 -2.57062 49.022 -0.971778 50.2649 0.9619C51.9239 3.54426 52.8589 6.52323 53.7628 9.40406C54.7506 12.5526 55.7726 15.8083 57.7387 18.4519C58.5544 19.5486 59.8622 20.8674 61.4609 20.9205C61.6912 20.9292 61.8726 21.1217 61.8656 21.3522C61.8579 21.5827 61.6652 21.7634 61.4342 21.7557C59.9053 21.7045 58.3953 20.734 57.068 18.9495C55.017 16.1922 53.9736 12.8676 52.9647 9.65251C52.0774 6.82464 51.1595 3.89993 49.5613 1.41257C46.8421 -2.81936 42.0842 -5.35149 37.721 -4.88834C37.4125 -4.85598 36.9345 -4.76838 36.6582 -4.53572C37.453 -4.07703 38.1905 -3.52498 38.8542 -2.89067C38.9711 -2.77917 39.0134 -2.61058 38.9627 -2.45743C38.912 -2.30428 38.7779 -2.19444 38.6179 -2.17449C36.4414 -1.90544 34.3065 -1.37464 32.2597 -0.594744L34.9704 1.05696C35.1302 1.17346 35.2162 1.37679 35.1429 1.56537C35.0699 1.75417 34.8713 1.86259 34.6724 1.82356C32.1513 1.3242 29.4419 1.96478 27.3949 3.50329C31.0166 4.02105 34.7346 4.81993 37.8892 6.72997C40.623 8.38037 42.794 10.7777 44.8963 13.0928C45.6878 13.9645 46.5061 14.8663 47.3395 15.7104C51.1153 19.5372 54.8031 21.3552 58.3012 21.1148C58.5316 21.0989 58.7315 21.273 58.7478 21.5032C58.7641 21.7333 58.5903 21.9328 58.3599 21.9486C54.6069 22.2062 50.6992 20.3049 46.7439 16.2965C45.899 15.4397 45.0744 14.5317 44.2771 13.6536C42.2153 11.3823 40.0876 9.02777 37.4566 7.44446C34.1613 5.44922 30.1705 4.7073 26.3491 4.20321C26.1889 4.18183 26.055 4.06994 26.005 3.91596C25.9556 3.76186 25.9996 3.59342 26.1176 3.48328C27.9568 1.76769 30.4678 0.816959 32.9795 0.821775L31.1105 -0.316972C30.9888 -0.398562 30.8994 -0.548917 30.911 -0.705639C30.9226 -0.862364 31.0214 -0.998877 31.1664 -1.05929C33.2333 -1.9197 35.3958 -2.52961 37.6062 -2.87663C37.0673 -3.31111 36.4873 -3.6925 35.8721 -4.0153C35.6918 -4.11081 35.6066 -4.31832 35.6675 -4.51091C35.8158 -4.9829 36.2768 -5.57583 37.6313 -5.71933C40.2908 -6.00152 43.0825 -5.25197 45.526 -3.72513Z" fill="#292625"/>
<path d="M97.3331 32.2949C96.8774 31.3024 96.1116 30.4265 95.1154 29.9781C93.7226 29.351 92.0626 29.6315 90.7017 30.3194C89.3406 31.0076 88.2078 32.0613 87.0494 33.0527C85.8916 34.0439 84.6523 35.0051 83.1927 35.4484C87.5815 35.7131 91.8812 37.3369 95.3514 40.0403C95.7568 39.5349 95.5332 38.7935 95.2927 38.1911C94.8873 37.1754 94.4818 36.1596 94.0761 35.1436C94.6646 35.5165 95.2532 35.8894 95.8417 36.2622C96.206 36.4926 96.8171 36.6489 96.9564 36.2417C97.0015 36.1101 96.9663 35.9658 96.9282 35.8322C96.6342 34.8023 96.1534 33.8255 95.5154 32.9642C96.1222 32.8718 96.6668 33.7541 97.2102 33.4697C97.5969 33.2676 97.5155 32.6915 97.3331 32.2949Z" fill="#D34B20"/>
<path d="M44.3167 10.2465C42.3383 6.77302 39.0573 4.05954 35.2735 2.76654C35.502 1.9894 36.528 1.85234 37.3395 1.86384C38.328 1.87749 39.3162 1.89147 40.3047 1.90511C40.1117 1.41768 39.783 0.984832 39.3652 0.667732C39.7035 0.144945 40.34 -0.123431 40.9618 -0.169331C41.5833 -0.215439 42.2018 -0.0702755 42.8086 0.0735821C42.1132 -0.10297 42.1124 -1.21371 42.6837 -1.64652C43.2547 -2.079 44.0522 -2.01236 44.7572 -1.87937C46.0756 -1.63086 47.3692 -1.21946 48.5528 -0.587354C48.9356 -0.382896 49.329 -0.130112 49.4989 0.268774C49.7789 0.92593 49.3465 1.64979 48.9416 2.23697C47.5061 4.31881 46.1327 6.6437 46.2104 9.17265L44.3167 10.2465Z" fill="#D34B20"/>
<path d="M45.2128 -1.64961C49.434 -8.40504 58.3436 -10.4527 65.1131 -6.2226C71.8824 -1.99272 73.948 6.91297 69.7267 13.6684C65.5055 20.4238 56.5956 22.4713 49.8264 18.2414C43.0568 14.0113 40.9915 5.10581 45.2128 -1.64961Z" fill="#523B1A"/>
<path d="M47.1017 -1.02333C50.9262 -7.14381 58.998 -8.99838 65.1307 -5.16627C71.2637 -1.33395 73.1352 6.73393 69.3107 12.8544C65.4864 18.9746 57.4144 20.8295 51.2814 16.9971C45.1488 13.165 43.2774 5.09683 47.1017 -1.02333Z" fill="#D1B86C"/>
<path d="M61.0959 -3.69215C66.3907 -0.383588 68.979 5.61469 68.1919 11.4149C70.3331 7.71794 70.2366 2.95152 67.5568 -0.732304C65.183 -3.99572 61.3724 -5.59866 57.6258 -5.30374C58.8188 -4.92143 59.9847 -4.38653 61.0959 -3.69215Z" fill="#D4C18D"/>
<path d="M95.2599 29.6231C99.4812 22.8677 97.4156 13.962 90.6463 9.73214C83.8771 5.50225 74.9672 7.5497 70.746 14.3051C66.5247 21.0605 68.5903 29.9662 75.3596 34.1961C82.1288 38.426 91.0387 36.3786 95.2599 29.6231Z" fill="#523B1A"/>
<path d="M93.8693 28.2007C97.6938 22.0802 95.8223 14.0123 89.6893 10.18C83.5566 6.34791 75.4848 8.20247 71.6603 14.323C67.836 20.4431 69.7074 28.5113 75.84 32.3434C81.973 36.1758 90.045 34.3208 93.8693 28.2007Z" fill="#D1B86C"/>
<path d="M93.8693 28.2007C97.6938 22.0802 95.8223 14.0123 89.6893 10.18C83.5566 6.34791 75.4848 8.20247 71.6603 14.323C67.836 20.4431 69.7074 28.5113 75.84 32.3434C81.973 36.1758 90.045 34.3208 93.8693 28.2007Z" fill="#D1B86C"/>
<path d="M92.8042 27.5351C96.2622 22.0012 94.5701 14.706 89.0249 11.241C83.4798 7.77603 76.1811 9.45321 72.7232 14.9871C69.2653 20.5209 70.9573 27.8161 76.5025 31.2811C82.0477 34.7461 89.3463 33.0689 92.8042 27.5351Z" fill="#F3ED99"/>
<path d="M87.5739 24.2671C89.2304 21.6161 88.4199 18.1216 85.7635 16.4617C83.1074 14.802 79.6112 15.6054 77.9546 18.2564C76.2981 20.9074 77.1087 24.4019 79.7647 26.0616C82.4212 27.7215 85.9174 26.9181 87.5739 24.2671Z" fill="#D4C18D"/>
<path d="M86.244 23.4353C87.4426 21.5172 86.8562 18.989 84.9341 17.788C83.0124 16.5872 80.4831 17.1684 79.2845 19.0865C78.0861 21.0043 78.6723 23.5328 80.594 24.7336C82.5161 25.9346 85.0456 25.3531 86.244 23.4353Z" fill="#2E2227"/>
<path d="M82.1289 22.2785C82.4801 21.7166 82.3083 20.976 81.7452 20.6242C81.1821 20.2723 80.4412 20.4425 80.09 21.0045C79.7389 21.5665 79.9104 22.3073 80.4736 22.6592C81.0367 23.0111 81.7778 22.8405 82.1289 22.2785Z" fill="white"/>
<path d="M81.0229 30.5342C80.6899 29.228 82.3011 27.6932 84.6217 27.1066C86.9423 26.5199 89.0933 27.1035 89.4266 28.41C89.7596 29.7163 88.1484 31.2511 85.8278 31.8377C83.5075 32.4245 81.3562 31.8407 81.0229 30.5342Z" fill="white"/>
<path d="M90.1334 14.4524C84.8389 11.144 78.313 11.4471 73.4448 14.6972C75.829 11.152 80.1554 9.14938 84.6411 9.94302C88.6149 10.646 91.7257 13.3681 93.1034 16.865C92.2368 15.9603 91.2449 15.1469 90.1334 14.4524Z" fill="#D4C18D"/>
<path d="M69.2281 11.1688C69.3247 11.6961 69.494 12.2215 69.8476 12.587C70.1906 12.9421 70.7395 13.1087 71.2209 12.8977C71.2412 13.4231 71.6306 13.8443 72.0995 13.9978C72.5827 14.1567 73.1294 14.0796 73.646 13.9369C76.3962 13.1768 78.606 10.6409 79.8095 7.88514C81.0127 5.12919 81.3765 2.14333 81.7244 -0.783504C81.7502 -0.999416 81.7313 -2.45036 81.0768 -2.86026C80.4223 -3.27017 79.132 -2.63961 78.949 -2.52194C76.4675 -0.932079 73.9393 0.697624 71.9844 2.98296C70.0295 5.26776 68.712 8.36264 69.2281 11.1688Z" fill="#2D1615"/>
<path d="M72.5028 13.6359C72.8435 13.7718 73.2349 13.6519 73.5812 13.5093C76.0429 12.4963 77.9638 10.3685 79.2253 7.98947C80.6231 5.35283 81.301 2.34415 81.1616 -0.603672C81.1377 -1.11426 81.0186 -1.72224 80.5479 -1.89136C80.0077 -2.08532 79.4782 -1.5537 79.1216 -1.08034C76.1709 2.83433 73.2289 6.94528 72.0392 11.6852C71.9491 12.0448 71.869 12.4167 71.9174 12.7804C71.966 13.1438 72.1683 13.5028 72.5028 13.6359Z" fill="#EE8B40"/>
<path d="M70.3776 12.3119C70.8566 12.4723 71.3447 12.1279 71.7241 11.7957C75.6131 8.39 78.6249 3.99285 80.3947 -0.863509C80.5197 -1.20691 80.6268 -1.62723 80.3924 -1.90801C80.0987 -2.26017 79.5336 -2.10606 79.1208 -1.90822C75.3665 -0.109471 72.2472 2.97722 70.4105 6.71066C69.6851 8.18427 69.1521 9.8981 69.6809 11.4555C69.8034 11.8165 70.0158 12.1905 70.3776 12.3119Z" fill="#F2591D"/>
<path d="M75.2771 4.24398C77.4005 0.845785 79.6031 -1.60802 80.1966 -1.23716C80.7901 -0.866299 79.5502 2.18907 77.4268 5.58727C75.3034 8.98547 73.1007 11.4393 72.5072 11.0684C71.9137 10.6976 73.1537 7.64218 75.2771 4.24398Z" fill="#F3DE3E"/>
<path d="M74.9302 6.87344C74.645 6.79805 74.372 7.02167 74.1815 7.24632C73.5794 7.95583 73.2061 8.85555 73.1284 9.78292C74.0566 9.58617 74.8293 8.86514 75.191 7.98921C75.274 7.78867 75.3383 7.5722 75.31 7.35674C75.2815 7.14162 75.1406 6.92894 74.9302 6.87344Z" fill="white"/>
<path d="M75.9605 4.78814C75.7892 5.33931 75.6179 5.89049 75.4468 6.44132C76.0114 6.12616 76.4803 5.6424 76.7773 5.06833C76.8594 4.90937 76.9305 4.73699 76.9224 4.55825C76.9146 4.37918 76.8085 4.19386 76.6367 4.14348C76.4697 4.09426 76.2873 4.18411 76.1765 4.31771C76.0657 4.45185 76.0116 4.62232 75.9605 4.78814Z" fill="white"/>
<path d="M50.6063 -0.585206C50.6985 -0.527636 50.7687 -0.434218 50.7935 -0.319545C51.64 3.54534 54.0296 7.002 57.3492 9.1634C60.6679 11.3293 64.7966 12.1111 68.6744 11.321C68.9012 11.2752 69.1217 11.4208 69.1684 11.6468C69.2149 11.8732 69.0691 12.0939 68.8432 12.1398C64.7517 12.9733 60.4042 12.1456 56.8933 9.86328C53.3911 7.58266 50.8697 3.93574 49.9766 -0.142659C49.9272 -0.36809 50.0699 -0.590608 50.2958 -0.639375C50.4064 -0.663364 50.5169 -0.641106 50.6063 -0.585206Z" fill="#292625"/>
<path d="M51.822 3.64186C51.9021 3.69192 51.9659 3.76884 51.9978 3.86565C52.0703 4.08464 51.951 4.3209 51.7319 4.39292L47.4321 5.80351C47.213 5.87553 46.9763 5.75589 46.9038 5.5369C46.8316 5.31757 46.9507 5.08165 47.1697 5.00963L51.4696 3.59904C51.5923 3.55856 51.7205 3.57845 51.822 3.64186Z" fill="#292625"/>
<path d="M55.0865 7.48538C55.1339 7.515 55.1763 7.55492 55.2097 7.60402C55.3405 7.79419 55.2922 8.05436 55.1017 8.18457L51.9639 10.3324C51.7734 10.4626 51.5127 10.4141 51.3823 10.2232C51.2516 10.0327 51.3001 9.7731 51.4905 9.6429L54.6284 7.49509C54.7697 7.39813 54.95 7.40007 55.0865 7.48538Z" fill="#292625"/>
<path d="M58.9682 10.1894C58.9725 10.1921 58.9769 10.1948 58.9812 10.1975C59.1726 10.3273 59.223 10.5867 59.0938 10.7779L57.1356 13.6739C57.0064 13.8651 56.7573 13.9221 56.5551 13.786C56.3637 13.6562 56.3131 13.3962 56.4421 13.2054L58.4005 10.309C58.5268 10.1225 58.7782 10.0707 58.9682 10.1894Z" fill="#292625"/>
<path d="M63.1388 11.3119C63.24 11.3751 63.3133 11.4806 63.3315 11.6074C63.4958 12.7462 63.3999 13.9276 63.0543 15.0244C62.9852 15.2442 62.7503 15.3661 62.5301 15.2966C62.3113 15.2271 62.1874 14.9922 62.2568 14.772C62.5649 13.794 62.6504 12.7404 62.5037 11.7251C62.471 11.4967 62.6297 11.2851 62.8579 11.2526C62.9599 11.238 63.0581 11.2614 63.1388 11.3119Z" fill="#292625"/>
<path d="M106.15 -10.6573C105.952 -5.65307 106.315 -0.639709 106.18 4.36669C106.045 9.37343 105.385 14.4588 103.265 18.994C108.365 12.2102 109.54 3.28862 109.741 -5.20008C109.799 -7.62601 109.582 -10.4666 107.559 -11.8123C107.377 -11.9328 107.171 -12.0408 106.953 -12.0307C106.368 -12.0034 106.173 -11.2426 106.15 -10.6573Z" fill="#D34B20"/>
<path d="M110.313 9.52078C111.824 5.12432 111.889 0.383821 112.074 -4.26304C112.104 -5.02034 112.15 -5.818 112.56 -6.45463C112.971 -7.0916 113.878 -7.47415 114.514 -7.05967C114.756 -6.90212 114.925 -6.65567 115.065 -6.40337C116.36 -4.07203 115.572 -1.16501 114.543 1.29107C113.688 3.33255 112.684 5.31154 111.542 7.20755L110.313 9.52078Z" fill="#D34B20"/>
<path d="M116.053 8.42456C114.795 9.51511 113.452 10.5086 112.041 11.3935C113.146 9.3059 114.252 7.21855 115.357 5.13099C115.724 4.43879 116.111 3.72276 116.743 3.25996C116.928 3.1248 117.138 3.01161 117.366 2.98884C117.791 2.94628 118.201 3.23796 118.393 3.6194C118.586 4.00085 118.592 4.45131 118.519 4.87187C118.265 6.32141 117.165 7.46067 116.053 8.42456Z" fill="#D34B20"/>
<path d="M93.8742 7.71954C93.8224 7.79649 93.4819 7.66247 92.9602 7.43744C92.4318 7.22165 91.7059 6.94314 90.8778 6.71661C90.0454 6.5082 89.2764 6.39449 88.7102 6.32374C88.1457 6.26374 87.783 6.21358 87.7753 6.12121C87.7677 6.03908 88.1233 5.92967 88.7192 5.87492C89.3136 5.83133 90.1484 5.87914 91.038 6.10293C91.9232 6.3443 92.6744 6.7123 93.1716 7.04196C93.6646 7.382 93.921 7.652 93.8742 7.71954Z" fill="#292625"/>
<path d="M98.2179 6.70343C98.1232 6.87867 96.773 6.30683 95.0568 5.79027C93.3282 5.31878 91.8805 5.08858 91.8925 4.88953C91.8958 4.73872 93.4239 4.68797 95.2309 5.18024C97.0248 5.72032 98.295 6.5733 98.2179 6.70343Z" fill="#292625"/>
</g>
<defs>
<clipPath id="clip0_2992_46017">
<rect width="111.473" height="127.787" fill="white" transform="translate(94.5352 82.4411) rotate(-148)"/>
</clipPath>
</defs>
</svg>
