<svg width="124" height="84" viewBox="0 0 124 84" fill="none" xmlns="http://www.w3.org/2000/svg">
<rect x="9.1308" y="20.1839" width="111.157" height="45.828" rx="10.4819" transform="rotate(8.74019 9.1308 20.1839)" fill="#F5753B"/>
<rect x="9.1308" y="20.1839" width="111.157" height="45.828" rx="10.4819" transform="rotate(8.74019 9.1308 20.1839)" stroke="#EFEDED" stroke-width="2.43766"/>
<path d="M34.0357 49.1352C33.0996 48.9913 32.3734 48.714 31.8568 48.3034C31.3537 47.883 31.1447 47.3954 31.23 46.8407L31.2567 46.6674L31.0833 46.6407L30.3558 51.373L27.4089 50.9199L28.5629 43.4142C28.673 42.6977 28.9063 42.0652 29.2627 41.5167C29.6191 40.9682 30.072 40.5232 30.6213 40.1818C31.1724 39.8289 31.8008 39.5884 32.5066 39.4603C33.224 39.334 33.9987 39.3348 34.8307 39.4627C35.6628 39.5906 36.4019 39.8226 37.0482 40.1585C37.6945 40.4944 38.2217 40.9126 38.6297 41.4131C39.0511 41.9037 39.3494 42.4641 39.5246 43.0944C39.6998 43.7246 39.7323 44.3979 39.6222 45.1144C39.5031 45.8887 39.277 46.5519 38.9437 47.1039C38.6104 47.656 38.1931 48.1005 37.6918 48.4374C37.202 48.7762 36.6407 49.0033 36.0078 49.119C35.3864 49.2364 34.7291 49.2418 34.0357 49.1352ZM31.5097 43.8672C31.4138 44.4913 31.5743 45.0246 31.9912 45.4672C32.4082 45.9099 33.0038 46.1907 33.7781 46.3098C34.5523 46.4288 35.2048 46.3398 35.7354 46.0429C36.2661 45.7459 36.5794 45.2854 36.6753 44.6614C36.7695 44.0489 36.6081 43.5213 36.1911 43.0787C35.7742 42.6361 35.1786 42.3552 34.4043 42.2362C33.6301 42.1172 32.9776 42.2061 32.4469 42.5031C31.9163 42.8 31.6039 43.2547 31.5097 43.8672ZM41.3268 40.6388L44.2736 41.0919L43.594 45.5121L48.2743 46.2317L48.9539 41.8114L51.9007 42.2645L50.0352 54.3985L47.0884 53.9454L47.8612 48.9185L43.181 48.199L42.4081 53.2259L39.4613 52.7729L41.3268 40.6388ZM60.8864 56.0667L57.9395 55.6137L58.3659 52.8402L54.3964 52.2299L53.97 55.0034L51.0231 54.5504L51.6894 50.2168C52.082 47.6629 53.0557 45.8311 54.6103 44.7216C56.1667 43.6005 58.2507 43.2407 60.8624 43.6422L62.7518 43.9327L60.8864 56.0667ZM58.779 50.1534L59.3786 46.2532L59.1706 46.2212C58.1652 46.0666 57.279 46.2912 56.5119 46.8948C55.7582 47.4887 55.2138 48.375 54.8788 49.5538L58.779 50.1534ZM63.1265 47.8408C63.2313 47.159 63.4491 46.5891 63.7797 46.1313C64.1103 45.6735 64.525 45.3232 65.0236 45.0805C65.5241 44.8262 66.0863 44.6701 66.7103 44.6123C67.3477 44.5447 68.0188 44.565 68.7238 44.6734C69.2091 44.748 69.6465 44.8271 70.0358 44.9106C70.4367 44.9959 70.8003 45.0932 71.1266 45.2025C71.4644 45.3136 71.7773 45.4327 72.0653 45.5598C72.3649 45.6886 72.6667 45.8415 72.9707 46.0183L72.5177 48.9652C72.3203 48.8639 72.1016 48.7474 71.8616 48.6159C71.6216 48.4844 71.3402 48.3524 71.0175 48.22C70.7064 48.0893 70.3299 47.9605 69.8881 47.8334C69.4579 47.7081 68.9481 47.6002 68.3587 47.5096C67.5729 47.3887 67.0089 47.4026 66.6666 47.5511C66.3262 47.688 66.1373 47.8778 66.1 48.1205C66.0467 48.4672 66.177 48.7356 66.4908 48.9258C66.8161 49.1178 67.2268 49.2933 67.7229 49.4524C68.2322 49.6017 68.7745 49.7678 69.3497 49.9509C69.9381 50.1242 70.468 50.3712 70.9391 50.6921C71.4236 51.0032 71.797 51.4214 72.0593 51.9467C72.3349 52.4622 72.4088 53.136 72.2809 53.9681C72.176 54.6499 71.9583 55.2197 71.6277 55.6775C71.2971 56.1354 70.8815 56.4914 70.3811 56.7457C69.8806 57 69.3117 57.161 68.6744 57.2286C68.0504 57.2864 67.3859 57.2612 66.681 57.1528C66.1956 57.0782 65.7583 56.9991 65.3689 56.9156C64.9795 56.8321 64.616 56.7348 64.2782 56.6237C63.9519 56.5144 63.639 56.3953 63.3394 56.2664C63.0416 56.126 62.7398 55.9731 62.434 55.8078L62.8897 52.8437C63.0853 52.9565 63.3031 53.0788 63.5431 53.2103C63.7831 53.3418 64.0587 53.4729 64.3698 53.6036C64.6925 53.736 65.069 53.8648 65.4993 53.9901C65.9411 54.1172 66.4567 54.226 67.046 54.3166C67.4389 54.377 67.7718 54.4046 68.0447 54.3992C68.331 54.3841 68.5612 54.3485 68.7354 54.2925C68.923 54.2267 69.0594 54.1471 69.1447 54.0537C69.2434 53.9506 69.3016 53.8413 69.3194 53.7257C69.3727 53.379 69.2367 53.1097 68.9113 52.9177C68.5993 52.716 68.1886 52.5404 67.6792 52.3912C67.1831 52.2321 66.6418 52.0601 66.0551 51.8753C65.4684 51.6905 64.9328 51.4425 64.4483 51.1314C63.9771 50.8106 63.6037 50.3924 63.3281 49.8768C63.0658 49.3515 62.9986 48.6728 63.1265 47.8408ZM81.6709 54.418L76.3146 53.5946L76.0001 55.64L82.3618 56.618L81.9488 59.3049L75.067 58.2469C74.339 58.1349 73.7834 57.8248 73.4002 57.3163C73.0304 56.7981 72.9014 56.175 73.0133 55.447L73.3038 53.5575C73.3802 53.0606 73.5926 52.6792 73.9411 52.4134C74.301 52.1494 74.7344 52.0622 75.2411 52.1519L75.3451 52.1679L75.3717 51.9946L75.2677 51.9786C74.7593 51.9004 74.3721 51.6871 74.1063 51.3387C73.8538 50.9805 73.7658 50.5529 73.8421 50.056L74.1326 48.1666C74.2446 47.4385 74.5538 46.8887 75.0605 46.5171C75.5805 46.1357 76.2045 46.0009 76.9325 46.1129L83.8142 47.1708L83.4012 49.8577L77.0395 48.8796L76.725 50.9251L82.0813 51.7485L81.6709 54.418ZM84.0326 51.0549C84.1375 50.3731 84.3552 49.8032 84.6858 49.3454C85.0165 48.8876 85.4311 48.5373 85.9298 48.2946C86.4302 48.0403 86.9924 47.8842 87.6165 47.8264C88.2538 47.7588 88.9249 47.7791 89.6299 47.8875C90.1152 47.9621 90.5526 48.0412 90.942 48.1247C91.3429 48.21 91.7064 48.3073 92.0327 48.4166C92.3705 48.5277 92.6834 48.6468 92.9714 48.7739C93.271 48.9027 93.5728 49.0556 93.8769 49.2324L93.4238 52.1793C93.2265 52.078 93.0078 51.9615 92.7677 51.83C92.5277 51.6985 92.2464 51.5665 91.9237 51.4341C91.6125 51.3034 91.2361 51.1746 90.7943 51.0475C90.364 50.9222 89.8542 50.8143 89.2648 50.7237C88.479 50.6028 87.915 50.6167 87.5728 50.7652C87.2323 50.9021 87.0434 51.0919 87.0061 51.3346C86.9528 51.6813 87.0831 51.9497 87.3969 52.1399C87.7223 52.3319 88.133 52.5074 88.629 52.6665C89.1384 52.8158 89.6806 52.9819 90.2558 53.165C90.8443 53.3383 91.3741 53.5853 91.8453 53.9062C92.3298 54.2173 92.7031 54.6355 92.9654 55.1608C93.2411 55.6763 93.3149 56.3501 93.187 57.1822C93.0822 57.864 92.8644 58.4338 92.5338 58.8916C92.2032 59.3495 91.7876 59.7055 91.2872 59.9598C90.7868 60.2141 90.2179 60.3751 89.5805 60.4427C88.9565 60.5005 88.292 60.4753 87.5871 60.3669C87.1017 60.2923 86.6644 60.2132 86.275 60.1297C85.8857 60.0462 85.5221 59.9489 85.1843 59.8378C84.858 59.7285 84.5451 59.6094 84.2455 59.4805C83.9477 59.3401 83.6459 59.1872 83.3401 59.0219L83.7958 56.0578C83.9914 56.1706 84.2092 56.2928 84.4492 56.4244C84.6892 56.5559 84.9648 56.687 85.276 56.8176C85.5987 56.9501 85.9751 57.0789 86.4054 57.2042C86.8472 57.3313 87.3628 57.4401 87.9521 57.5307C88.3451 57.5911 88.678 57.6187 88.9509 57.6133C89.2371 57.5982 89.4673 57.5626 89.6415 57.5066C89.8291 57.4408 89.9655 57.3612 90.0509 57.2678C90.1495 57.1647 90.2077 57.0554 90.2255 56.9398C90.2788 56.5931 90.1428 56.3238 89.8174 56.1318C89.5054 55.9301 89.0947 55.7545 88.5853 55.6053C88.0893 55.4462 87.5479 55.2742 86.9612 55.0894C86.3745 54.9046 85.8389 54.6566 85.3544 54.3455C84.8832 54.0247 84.5098 53.6065 84.2342 53.0909C83.9719 52.5656 83.9047 51.8869 84.0326 51.0549Z" fill="white"/>
<g filter="url(#filter0_d_2992_47326)">
<circle cx="67.1712" cy="10.6086" r="1.95013" transform="rotate(8.74019 67.1712 10.6086)" fill="black"/>
<circle cx="67.1712" cy="10.6086" r="1.93063" transform="rotate(8.74019 67.1712 10.6086)" stroke="black" stroke-width="0.0390025"/>
</g>
<line x1="25.3344" y1="22.2017" x2="67.0329" y2="10.855" stroke="#EFEDED" stroke-width="0.487532"/>
<line y1="-0.243766" x2="43.2147" y2="-0.243766" transform="matrix(-0.841486 -0.54028 -0.54028 0.841486 103.462 34.4385)" stroke="#EFEDED" stroke-width="0.487532"/>
<defs>
<filter id="filter0_d_2992_47326" x="58.3953" y="1.83273" width="17.5523" height="17.5517" filterUnits="userSpaceOnUse" color-interpolation-filters="sRGB">
<feFlood flood-opacity="0" result="BackgroundImageFix"/>
<feColorMatrix in="SourceAlpha" type="matrix" values="0 0 0 0 0 0 0 0 0 0 0 0 0 0 0 0 0 0 127 0" result="hardAlpha"/>
<feMorphology radius="4.87532" operator="dilate" in="SourceAlpha" result="effect1_dropShadow_2992_47326"/>
<feOffset/>
<feGaussianBlur stdDeviation="0.975063"/>
<feComposite in2="hardAlpha" operator="out"/>
<feColorMatrix type="matrix" values="0 0 0 0 0.92549 0 0 0 0 0.482353 0 0 0 0 0.113725 0 0 0 1 0"/>
<feBlend mode="normal" in2="BackgroundImageFix" result="effect1_dropShadow_2992_47326"/>
<feBlend mode="normal" in="SourceGraphic" in2="effect1_dropShadow_2992_47326" result="shape"/>
</filter>
</defs>
</svg>
