<svg width="82" height="81" viewBox="0 0 82 81" fill="none" xmlns="http://www.w3.org/2000/svg">
<path d="M14.321 46.939C13.2922 46.2413 13.3936 44.6108 14.5152 44.09C18.1452 42.4042 20.546 38.362 25.2739 33.1511C30.782 27.0807 39.6583 27.4393 41.0045 27.5315C42.353 27.4755 51.2357 27.3558 56.5785 33.5722C61.1646 38.9083 63.4557 43.0136 67.0391 44.7964C68.1463 45.3473 68.2038 46.9799 67.1566 47.6497L57.9787 53.5198L40.7195 48.7204L23.3377 53.0538L14.321 46.939Z" fill="#2D1615"/>
<path d="M41.2275 38.921C39.9233 38.9977 38.6192 39.0745 37.315 39.1514C37.1676 38.0021 37.4216 36.8066 38.0204 35.831C36.8761 35.4665 36.0034 34.3252 35.9332 33.1009C35.863 31.8767 36.5997 30.6535 37.6958 30.1749C38.6636 29.7524 39.7947 29.8972 40.7831 30.2862C41.4474 30.548 42.0879 30.9284 42.5318 31.5C42.9571 32.0476 43.1786 32.7565 43.1418 33.4519C43.1154 33.9523 42.9403 34.4694 42.5558 34.7751C42.0675 35.1634 41.3717 35.1281 40.8179 35.4103C41.2255 36.3056 41.548 37.2408 41.7796 38.1983C41.821 38.3694 41.8562 38.5633 41.7631 38.7102C41.6549 38.8808 41.4264 38.9092 41.2275 38.921Z" fill="white"/>
<path d="M42.3806 32.9515C42.2608 33.1395 42.0566 33.2213 41.8565 33.251C41.5203 33.3008 41.1648 33.2262 40.8493 33.0393C40.656 32.9249 40.4746 32.7654 40.3487 32.5529C40.2228 32.3404 40.1575 32.0706 40.2021 31.8278C40.264 31.4918 40.5275 31.262 40.8105 31.2091C41.0937 31.1561 41.3914 31.2529 41.6638 31.3958C41.925 31.533 42.1818 31.7232 42.3427 32.0097C42.5035 32.296 42.5446 32.6948 42.3806 32.9515Z" fill="#2D1615"/>
<path d="M36.9413 32.3573C36.9925 32.0507 37.2094 31.8218 37.3783 31.5751C37.4785 31.4285 37.576 31.2601 37.7362 31.204C37.8817 31.1532 38.0418 31.209 38.189 31.2644C38.3713 31.3329 38.556 31.4027 38.7177 31.5196C38.8795 31.6367 39.0182 31.8084 39.062 32.0136C39.1166 32.2691 39.0169 32.5295 38.8824 32.7391C38.71 33.0075 38.4716 33.2306 38.1857 33.3335C37.9001 33.4366 37.5654 33.4087 37.3077 33.2226C37.0498 33.0363 36.887 32.6829 36.9413 32.3573Z" fill="#2D1615"/>
<path d="M39.9269 33.1776C40.2654 33.4324 40.4989 33.8098 40.5696 34.2174C40.5821 34.2891 40.5898 34.3635 40.5729 34.435C40.5562 34.5067 40.5118 34.5758 40.443 34.6095C40.3742 34.6429 40.29 34.6362 40.2198 34.6076C40.1497 34.579 40.091 34.5309 40.0347 34.4819C39.9583 34.4153 39.8841 34.3448 39.7947 34.2952C39.705 34.2454 39.5961 34.218 39.4949 34.2449C39.3987 34.2708 39.323 34.341 39.2363 34.3893C39.1493 34.4374 39.0282 34.459 38.9586 34.3924C38.9042 34.3403 38.9043 34.2564 38.9134 34.1825C38.9597 33.8109 39.1536 33.4552 39.4475 33.2026C39.5213 33.1394 39.6099 33.0794 39.7083 33.082C39.7903 33.0841 39.863 33.1297 39.9269 33.1776Z" fill="#2D1615"/>
<path d="M41.8747 43.9556C41.9282 44.2316 41.9521 44.5166 42.0518 44.7787C42.1516 45.0411 42.3488 45.2862 42.6108 45.3397C42.7411 45.3663 42.8828 45.3403 42.9852 45.2537C43.1126 45.1459 43.1621 44.9599 43.1521 44.786C43.1422 44.6118 43.0812 44.4452 43.0207 44.2818C43.2741 44.2432 43.5271 44.1407 43.6968 43.9413C43.8665 43.7416 43.9344 43.4318 43.8146 43.1895C43.6948 42.9474 43.3661 42.8292 43.161 42.9877C43.0378 43.0831 42.9651 43.2591 42.8156 43.2955C42.7132 43.3207 42.608 43.2702 42.5125 43.2207C41.2574 42.5725 37.4934 40.4473 36.2788 39.7153C36.319 39.5304 36.3494 39.3359 36.303 39.1507C36.2565 38.9658 36.1143 38.7932 35.9342 38.7747C35.7376 38.7547 35.5631 38.9248 35.4996 39.1205C35.4359 39.3166 35.4571 39.5318 35.4792 39.7392C35.3361 39.6506 35.1269 39.791 35.1445 39.9641C34.8836 40.0319 34.6343 40.1441 34.4085 40.2952C34.4934 40.4165 34.5133 40.5722 34.5563 40.7154C34.5991 40.8587 34.6845 41.0092 34.8234 41.0409C34.9432 41.0684 35.0597 40.9981 35.1626 40.9306C35.3559 40.8036 35.5667 40.6719 35.7962 40.6904C35.9357 40.7017 36.0661 40.768 36.1924 40.8333C37.2509 41.3807 40.8305 43.3778 41.8747 43.9556Z" fill="white"/>
<path d="M38.9351 44.6414C38.9468 44.9077 38.9895 45.1756 38.9526 45.4398C38.9155 45.704 38.7789 45.9747 38.5337 46.0834C38.4118 46.1376 38.2663 46.1456 38.1456 46.0891C37.9953 46.0187 37.9033 45.8586 37.8727 45.696C37.8418 45.5334 37.8632 45.3659 37.8844 45.2019C37.6263 45.2236 37.354 45.1867 37.1406 45.0411C36.9273 44.8958 36.7885 44.6259 36.85 44.3755C36.9113 44.1253 37.2068 43.9418 37.4455 44.0413C37.5887 44.1012 37.7012 44.247 37.8566 44.2466C37.9631 44.2464 38.0549 44.176 38.1372 44.109C39.2202 43.2269 42.4255 40.4154 43.449 39.4658C43.3664 39.3046 43.2915 39.1322 43.2939 38.951C43.2964 38.77 43.3963 38.5787 43.5688 38.5211C43.7576 38.4579 43.9686 38.575 44.0766 38.741C44.1848 38.907 44.2141 39.1105 44.2408 39.3063C44.3608 39.1923 44.5992 39.2741 44.6222 39.4376C44.8941 39.4409 45.1654 39.4878 45.4224 39.5759C45.3672 39.7068 45.3837 39.8548 45.375 39.9966C45.3662 40.1381 45.3174 40.2963 45.1882 40.3569C45.0767 40.4093 44.9459 40.3712 44.8293 40.3322C44.6094 40.259 44.3716 40.1854 44.1502 40.2546C44.0158 40.2966 43.9032 40.3874 43.7941 40.4763C42.8809 41.2205 39.8273 43.8722 38.9351 44.6414Z" fill="white"/>
<path d="M62.0496 46.7702C62.2848 46.5857 62.534 46.3871 62.8321 46.3602C63.1299 46.3339 63.4694 46.5739 63.4199 46.8685C61.7654 48.4099 59.9731 49.8044 58.0715 51.0288C57.8117 50.44 57.372 49.9314 56.8268 49.5892C58.7106 48.9539 60.4844 47.9959 62.0496 46.7702Z" fill="#4C2E2D"/>
<path d="M55.4261 47.4703C57.2192 46.4869 59.0115 45.5032 60.804 44.5201C60.9372 44.8025 61.0703 45.0849 61.2035 45.3673C59.407 46.3998 57.6109 47.433 55.8145 48.4655C55.6852 48.1337 55.5553 47.8021 55.4261 47.4703Z" fill="#4C2E2D"/>
</svg>
