<svg width="30" height="31" viewBox="0 0 30 31" fill="none" xmlns="http://www.w3.org/2000/svg">
<g clip-path="url(#clip0_3085_271482)">
<path d="M15 12.96C18.3137 12.96 21 10.2737 21 6.95996C21 3.64625 18.3137 0.959961 15 0.959961C11.6863 0.959961 9 3.64625 9 6.95996C9 10.2737 11.6863 12.96 15 12.96Z" fill="#F5753B"/>
<path d="M29.8598 26.8396C29.2374 24.0059 27.8103 21.412 25.7498 19.3696C25.2497 18.8677 24.7077 18.4094 24.1298 17.9996C21.4978 16.0254 18.2897 14.9712 14.9998 14.9996C10.9769 14.979 7.10907 16.5498 4.23976 19.3696C2.17926 21.412 0.752137 24.0059 0.129757 26.8396C0.0215776 27.3407 0.0274212 27.8596 0.146856 28.3581C0.26629 28.8566 0.496259 29.3219 0.819757 29.7196C1.15478 30.1258 1.57666 30.4516 2.05433 30.6732C2.53199 30.8947 3.05327 31.0062 3.57976 30.9996H26.4198C26.9478 30.9999 27.4691 30.8814 27.9452 30.6529C28.4212 30.4244 28.8397 30.0918 29.1698 29.6796C29.4874 29.2866 29.7141 28.8281 29.8334 28.337C29.9527 27.8459 29.9617 27.3345 29.8598 26.8396Z" fill="#F5753B"/>
</g>
<defs>
<clipPath id="clip0_3085_271482">
<rect width="30" height="31" fill="white"/>
</clipPath>
</defs>
</svg>
