<svg width="122" height="122" viewBox="0 0 122 122" fill="none" xmlns="http://www.w3.org/2000/svg">
<rect x="2" y="2" width="118" height="118" rx="59" stroke="#F2591D" stroke-width="4"/>
<g clip-path="url(#clip0_1885_13079)">
<path d="M87.0649 105.788C87.0649 107.604 75.186 109.076 60.5327 109.076C45.8797 109.076 34.0007 107.604 34.0007 105.788C34.0007 103.972 45.8797 102.5 60.5327 102.5C75.186 102.5 87.0649 103.972 87.0649 105.788Z" fill="#60827F"/>
<path d="M88.0622 37.2275C86.6523 33.6883 85.2346 30.1334 83.331 26.8625C81.4274 23.5915 79.0023 20.5901 75.9247 18.5482C74.3757 17.5204 72.71 16.7628 70.9764 16.1862C68.3303 15.3058 65.5459 14.9095 62.7558 14.9095H58.9488C56.1586 14.9095 53.3743 15.3058 50.7281 16.186C48.9945 16.7628 47.3289 17.5204 45.7798 18.5482C42.7022 20.5901 40.2772 23.5915 38.3735 26.8625C36.4699 30.1334 35.0522 33.6883 33.6424 37.2275C32.8948 39.1041 32.1715 41.3605 33.2278 43.0635C37.3283 40.0354 42.6401 39.7449 47.6395 39.5594C51.8113 39.4048 56.0378 39.2587 60.1299 40.0574C60.1243 40.1658 60.1199 40.2742 60.1143 40.3827C60.3597 40.3198 60.6058 40.2627 60.8524 40.2075C61.0988 40.2627 61.3449 40.3198 61.5902 40.3827C61.5847 40.2742 61.5802 40.1658 61.5747 40.0574C65.6667 39.2587 69.8933 39.4048 74.0653 39.5594C79.0645 39.7449 84.3763 40.0354 88.4767 43.0635C89.533 41.3605 88.8097 39.1041 88.0622 37.2275Z" fill="#D34B20"/>
<path d="M69.0765 39.1593C70.7888 39.1593 72.535 39.224 74.0756 39.2811C78.5578 39.4472 84.1139 39.6533 88.3849 42.6537C89.1282 41.1441 88.5505 39.2083 87.8021 37.3299C86.4178 33.8556 84.9867 30.2628 83.0889 27.0023C80.9715 23.3638 78.5088 20.5971 75.7695 18.7797C74.3339 17.8273 72.7372 17.065 70.8878 16.4502C68.3698 15.6128 65.6339 15.1879 62.7558 15.1879H58.9488C56.0707 15.1879 53.3348 15.6128 50.8166 16.4502C48.9674 17.065 47.3707 17.8273 45.9349 18.7797C43.1955 20.5974 40.7328 23.3638 38.6157 27.0023C36.7179 30.2628 35.2868 33.8556 33.9025 37.3299C33.1541 39.2083 32.5764 41.1441 33.3197 42.6537C37.5907 39.6533 43.1468 39.4472 47.629 39.2811C49.1696 39.224 50.9158 39.1593 52.6281 39.1593C55.5998 39.1593 58.0007 39.3576 60.1838 39.7838C60.3044 39.8074 60.3936 39.9056 60.4076 40.0235C60.5352 39.9934 60.6629 39.9643 60.7906 39.9357C60.8311 39.9263 60.8732 39.9263 60.9138 39.9357C61.0417 39.9643 61.1693 39.9934 61.297 40.0235C61.3112 39.9056 61.4002 39.8074 61.5208 39.7838C63.7039 39.3576 66.1048 39.1593 69.0765 39.1593ZM88.4768 43.3418C88.417 43.3418 88.3586 43.3227 88.3099 43.2868C84.146 40.2118 78.5507 40.0044 74.0548 39.8378C72.5192 39.7807 70.7783 39.7162 69.0765 39.7162C66.2495 39.7162 63.9498 39.8972 61.8656 40.2852L61.8672 40.3156C61.8724 40.337 61.8753 40.3596 61.8753 40.3826C61.8753 40.5369 61.7498 40.6569 61.5929 40.6608C61.5708 40.6676 61.5447 40.6582 61.5208 40.6522C61.2983 40.5953 61.0756 40.5432 60.8522 40.4926C60.6292 40.5432 60.4063 40.5953 60.1838 40.6522C60.0978 40.6742 60.0064 40.654 59.9372 40.5982C59.8685 40.5421 59.8306 40.457 59.8351 40.3685L59.839 40.2852C57.7548 39.8972 55.4551 39.7162 52.6281 39.7162C50.9261 39.7162 49.1857 39.7807 47.6498 39.8378C43.1539 40.0044 37.5586 40.2118 33.3945 43.2868C33.3318 43.3332 33.2521 43.3518 33.1752 43.3369C33.0981 43.3222 33.031 43.2758 32.9899 43.2098C31.9025 41.4569 32.5358 39.2492 33.3824 37.1248C34.774 33.6314 36.213 30.0191 38.1314 26.7228C40.2922 23.0102 42.8131 20.1817 45.6245 18.3163C47.1023 17.3361 48.7427 16.5529 50.6394 15.9219C53.2148 15.0653 56.0105 14.631 58.9488 14.631H62.7558C65.6941 14.631 68.4898 15.0656 71.0652 15.9219C72.9622 16.5529 74.6026 17.3361 76.0801 18.3163C78.8913 20.1817 81.4124 23.0099 83.5732 26.7228C85.4916 30.0191 86.9309 33.6314 88.3225 37.1248C89.1688 39.2494 89.8021 41.4571 88.7147 43.2098C88.6736 43.2758 88.6063 43.3222 88.5294 43.3369C88.5118 43.3403 88.4944 43.3418 88.4768 43.3418Z" fill="#292625"/>
<path d="M76.506 30.9408C68.2524 28.3137 59.5571 27.3424 50.9858 28.0898C45.3797 28.5786 39.4259 30.0316 35.6147 34.5358C34.0375 36.3995 32.8972 39.1576 33.9067 41.4413C34.6463 43.1146 36.3739 44.0518 38.0693 44.2499C39.7644 44.4482 41.463 44.033 43.1331 43.66C53.6041 41.3226 64.3104 40.5666 74.9766 39.8161C77.9194 39.6092 80.9394 39.4112 83.7582 40.3555C84.788 40.7002 86.0667 41.133 86.8121 40.2858C87.5881 39.4038 87.0472 37.9322 86.3431 36.9816C83.9414 33.7392 80.1774 32.1094 76.506 30.9408Z" fill="#D83E30"/>
<path d="M88.8363 51.1279C89.8968 51.4278 90.8802 50.4942 90.6533 49.4207C90.154 47.0593 90.4601 44.3918 89.7341 42.038C88.8458 39.1579 86.466 36.964 83.8948 35.3766C76.9966 31.1179 68.5479 30.3878 60.4333 30.0009C60.4328 29.9967 60.4326 29.9923 60.432 29.9881C60.3881 29.9902 60.3438 29.9923 60.2999 29.9944C60.2557 29.9923 60.2114 29.9902 60.1675 29.9881C60.1672 29.9923 60.1667 29.9967 60.1664 30.0009C52.0516 30.3878 43.6029 31.1179 36.705 35.3766C34.1335 36.964 31.7538 39.1579 30.8656 42.038C30.1397 44.3918 30.4455 47.0593 29.9465 49.4207C29.7196 50.4942 30.703 51.4278 31.7632 51.1279C40.4635 48.6687 49.5223 47.4724 58.5658 47.58C58.5626 47.6138 58.5595 47.6473 58.5566 47.6809C59.1372 47.6523 59.7184 47.6327 60.2999 47.6149C60.8811 47.6327 61.4623 47.6523 62.0432 47.6809C62.04 47.6473 62.0371 47.6138 62.034 47.58C71.0775 47.4724 80.1363 48.6687 88.8363 51.1279Z" fill="#F68A14"/>
<path d="M63.1553 47.2947C71.8782 47.2947 80.5442 48.4942 88.9128 50.8601C89.3682 50.9893 89.8468 50.8342 90.1413 50.4727C90.3677 50.1956 90.4543 49.8328 90.3795 49.4778C90.1558 48.4201 90.0902 47.2916 90.0265 46.2003C89.9465 44.8269 89.8636 43.4074 89.4664 42.1194C88.7144 39.6812 86.79 37.4918 83.7471 35.6134C76.9086 31.3913 68.4737 30.6631 60.4199 30.2788C60.4001 30.2781 60.3809 30.2752 60.3622 30.2702L60.3128 30.2725L60.2359 30.2699C60.2177 30.2752 60.1988 30.2781 60.1796 30.2788C52.126 30.6631 43.6908 31.3913 36.8526 35.6134C33.8095 37.4918 31.8853 39.6812 31.133 42.1194C30.7358 43.4072 30.6532 44.8269 30.5732 46.1998C30.5095 47.2913 30.4437 48.4201 30.2202 49.4778C30.1452 49.8328 30.232 50.1953 30.4581 50.4727C30.753 50.8342 31.2315 50.9893 31.6869 50.8601C40.4156 48.3926 49.4749 47.1887 58.5689 47.3018C58.6463 47.3026 58.7197 47.3354 58.7719 47.3919C59.278 47.3689 59.7847 47.3519 60.2914 47.3364C60.8126 47.3519 61.3212 47.3689 61.8276 47.3919C61.88 47.3354 61.9531 47.3026 62.0305 47.3018C62.4054 47.2971 62.7805 47.2947 63.1553 47.2947ZM89.24 51.4631C89.0797 51.4631 88.9181 51.4403 88.7599 51.3958C80.1549 48.9631 71.2309 47.7718 62.2606 47.8561C62.2556 47.8621 62.2506 47.8679 62.2451 47.8734C62.189 47.9318 62.1119 47.963 62.0295 47.9588C61.4504 47.9308 60.8708 47.9109 60.2914 47.893C59.7289 47.9109 59.1493 47.9308 58.5702 47.9588C58.4886 47.9619 58.4104 47.9318 58.3544 47.8734C58.3491 47.8679 58.3439 47.8621 58.3391 47.8561C58.0409 47.8532 57.7429 47.8516 57.4444 47.8516C48.7731 47.8516 40.1587 49.044 31.8398 51.3958C31.1712 51.5852 30.4579 51.3557 30.0238 50.8237C29.6909 50.4153 29.5627 49.8831 29.6727 49.3634C29.8875 48.3462 29.9522 47.2384 30.0146 46.1676C30.0965 44.7617 30.1812 43.3082 30.5982 41.9562C31.3913 39.3852 33.3962 37.0919 36.5575 35.1401C43.4879 30.8614 51.9726 30.1149 60.0769 29.7264C60.1093 29.7143 60.1451 29.7078 60.1804 29.7099L60.3128 29.7164L60.4191 29.7099C60.4575 29.7078 60.4946 29.7141 60.5286 29.7266C68.6311 30.1154 77.1134 30.8625 84.0422 35.1401C87.2035 37.0919 89.2084 39.3852 90.0015 41.9562C90.4185 43.3084 90.5032 44.762 90.5851 46.1678C90.6475 47.2387 90.712 48.3465 90.927 49.3634C91.0368 49.8831 90.9089 50.4153 90.5759 50.8237C90.2445 51.2303 89.7575 51.4631 89.24 51.4631Z" fill="#292625"/>
<path d="M77.8765 40.4609C68.8435 37.8339 59.3275 36.8626 49.9468 37.6099C43.8117 38.0987 37.2956 39.5517 33.1243 44.0559C31.3984 45.9197 30.1505 48.6777 31.2552 50.9614C32.0646 52.6347 33.9553 53.572 35.8108 53.77C37.666 53.9683 39.5248 53.5531 41.3529 53.1801C52.8123 50.8427 64.5296 50.0868 76.2027 49.3363C79.4235 49.1293 82.7285 48.9313 85.8134 49.8756C86.9405 50.2203 88.3401 50.6531 89.1558 49.8059C90.005 48.924 89.4132 47.4523 88.6425 46.5017C86.014 43.2593 81.8946 41.6295 77.8765 40.4609Z" fill="#D83E30"/>
<path d="M91.3406 60.7604C89.8553 56.6722 87.7174 52.7456 84.9996 49.1147C83.2226 46.7401 81.1439 44.4478 78.3533 42.8719C76.2443 41.6811 73.805 40.9445 71.3334 40.4088C68.14 39.7168 64.8458 39.3451 61.5444 39.2963C61.386 39.2921 61.2275 39.2893 61.0699 39.288C61.0546 39.288 61.0396 39.2872 61.0246 39.2872C60.9672 39.2869 60.9098 39.2872 60.8524 39.2872C60.7948 39.2872 60.7374 39.2869 60.68 39.2872C60.665 39.2872 60.65 39.288 60.635 39.288C60.4771 39.2893 60.3186 39.2921 60.1602 39.2963C56.8588 39.3451 53.5646 39.7168 50.3712 40.4088C47.8996 40.9445 45.4603 41.6811 43.3513 42.8719C40.5607 44.4478 38.482 46.7401 36.705 49.1147C33.9872 52.7456 31.8493 56.6722 30.364 60.7604C29.3385 63.5829 28.6857 66.8224 30.5654 69.3274C32.4137 71.7908 36.1196 72.7631 39.5496 73.3787C45.2142 74.3959 50.98 74.9528 56.7509 75.4363C57.9859 75.8387 59.4466 75.8494 60.8524 75.7645C62.258 75.8494 63.7187 75.8387 64.9537 75.4363C70.7246 74.9528 76.4904 74.3959 82.1552 73.3787C85.585 72.7631 89.2909 71.7908 91.1392 69.3274C93.0189 66.8224 92.3661 63.5829 91.3406 60.7604Z" fill="#2E2227"/>
<path d="M60.8522 75.4864C60.858 75.4864 60.8635 75.4864 60.8693 75.4866C61.3378 75.5152 61.7511 75.5285 62.1335 75.5285C63.2351 75.5285 64.1293 75.412 64.8668 75.1718C64.8874 75.165 64.9087 75.1605 64.9303 75.1587C70.135 74.7225 76.1835 74.168 82.1055 73.105C85.4487 72.5049 89.1098 71.5666 90.915 69.1611C92.8357 66.6013 91.9276 63.195 91.0774 60.855C89.5999 56.7882 87.4794 52.8941 84.7753 49.2808C83.2892 47.2952 81.2005 44.8002 78.2153 43.1143C76.3941 42.0861 74.1886 41.3126 71.2739 40.681C68.1129 39.9958 64.8379 39.6235 61.5405 39.5748C61.3799 39.5704 61.2236 39.5675 61.0675 39.5662C61.0675 39.5662 61.0417 39.5659 61.0399 39.5659L60.6814 39.5654L60.635 39.5664C60.481 39.5675 60.3244 39.5704 60.1678 39.5748C56.8667 39.6235 53.5917 39.9958 50.4307 40.681C47.5161 41.3126 45.3105 42.0861 43.4893 43.1143C40.5044 44.7999 38.4157 47.2952 36.9295 49.2808C34.2252 52.8941 32.105 56.7882 30.6272 60.855C29.777 63.195 28.8692 66.6013 30.7896 69.1611C32.5948 71.5666 36.256 72.5049 39.5991 73.105C45.5208 74.168 51.5697 74.7225 56.7743 75.1587C56.7959 75.1605 56.8173 75.165 56.8378 75.1718C57.5756 75.412 58.4695 75.5285 59.5713 75.5285C59.9533 75.5285 60.3671 75.5152 60.8353 75.4869C60.8409 75.4864 60.8467 75.4864 60.8522 75.4864ZM62.1335 76.0854C61.7445 76.0854 61.3252 76.0721 60.8522 76.0435C60.3792 76.0721 59.9601 76.0854 59.5713 76.0854C58.4248 76.0854 57.4835 75.9631 56.6951 75.7111C51.4849 75.2742 45.4329 74.7183 39.4999 73.6527C36.0493 73.0335 32.2629 72.0551 30.3414 69.494C28.259 66.7192 29.2069 63.1266 30.101 60.6656C31.5972 56.5478 33.7438 52.6054 36.4808 48.9484C37.9995 46.9191 40.1374 44.3669 43.2134 42.6299C45.0847 41.5732 47.3402 40.7808 50.3117 40.1367C53.5091 39.4438 56.8212 39.0674 60.156 39.0182C60.3128 39.0137 60.4729 39.0108 60.6327 39.0095L60.9672 39.0085L61.0259 39.0087C61.0277 39.0087 61.0522 39.009 61.0543 39.009C61.2317 39.0108 61.3918 39.0137 61.5524 39.0182C64.8834 39.0674 68.1955 39.4438 71.3929 40.1367C74.3644 40.7808 76.6199 41.5732 78.4915 42.6299C81.5675 44.3669 83.7053 46.9191 85.2241 48.9484C87.9611 52.6054 90.1074 56.5478 91.6038 60.6656C92.4977 63.1266 93.4456 66.7192 91.3633 69.494C89.442 72.0551 85.6553 73.0335 82.2047 73.6527C76.2714 74.7183 70.2195 75.2742 65.0095 75.7111C64.2212 75.9631 63.2801 76.0854 62.1335 76.0854Z" fill="#292625"/>
<path d="M88.8007 69.7953C88.8221 63.7852 87.2269 57.7769 84.2252 52.5615C84.7679 52.9303 85.3107 53.2988 85.8535 53.6674C85.3618 51.9765 84.4249 50.4156 83.1615 49.1834C83.9327 49.6936 84.7037 50.2037 85.4747 50.7139C81.843 45.4228 75.6357 41.9727 69.2042 41.6709C66.473 41.5426 63.6726 41.9746 61.2262 43.1669C58.7798 41.9746 55.9794 41.5426 53.2482 41.6709C46.8164 41.9727 40.6093 45.4228 36.9777 50.7139C37.7486 50.2037 38.5196 49.6936 39.2906 49.1834C38.0274 50.4156 37.0903 51.9765 36.5989 53.6674C37.1416 53.2988 37.6844 52.9303 38.2272 52.5615C35.2254 57.7769 33.6303 63.7852 33.6513 69.7953C34.3412 68.5123 35.0311 67.2293 35.721 65.9462C34.2823 75.2915 36.8813 85.184 42.7317 92.633C44.7187 95.1632 47.1614 97.4812 50.2056 98.546C52.0987 99.2079 54.1194 99.351 56.1344 99.3984C56.1315 99.4437 56.1286 99.4887 56.1257 99.5341C57.8259 99.5123 59.526 99.4906 61.2262 99.4688C62.9263 99.4906 64.6265 99.5123 66.3266 99.5341C66.3237 99.4887 66.3208 99.4437 66.3177 99.3984C68.3326 99.351 70.3536 99.2079 72.2467 98.546C75.2909 97.4812 77.7333 95.1632 79.7206 92.633C85.571 85.184 88.1698 75.2915 86.7313 65.9462C87.4212 67.2293 88.1111 68.5123 88.8007 69.7953Z" fill="#F2591D"/>
<path d="M61.2225 99.1907L66.0797 99.2525C66.0887 99.2375 66.0995 99.2237 66.1113 99.2106C66.1629 99.1545 66.235 99.122 66.3114 99.1202C68.2318 99.0749 70.2689 98.9423 72.1538 98.2833C74.7274 97.3832 77.1303 95.4791 79.5004 92.4617C85.2749 85.1093 87.8748 75.2127 86.4547 65.9884C86.4341 65.8543 86.5136 65.7249 86.6429 65.6819C86.7721 65.6398 86.9137 65.695 86.9782 65.8147L88.506 68.6566C88.3375 63.0601 86.7832 57.566 83.9822 52.7C83.9175 52.5874 83.9393 52.4452 84.0351 52.3571C84.131 52.2691 84.2752 52.2587 84.3829 52.3317L85.3249 52.9714C84.8095 51.6234 84.0036 50.3946 82.9657 49.3822C82.8628 49.2816 82.8533 49.1197 82.9444 49.0081C83.0349 48.8965 83.1965 48.8719 83.3165 48.9515L84.2865 49.5936C80.6322 45.1106 74.9861 42.221 69.191 41.9489C66.3282 41.8156 63.5844 42.3274 61.3494 43.4174C61.2717 43.4551 61.1807 43.4551 61.103 43.4174C58.8677 42.3274 56.1242 41.8163 53.2614 41.9489C47.4663 42.221 41.8202 45.1106 38.1659 49.5933L39.1358 48.9515C39.2556 48.8719 39.417 48.8965 39.508 49.0081C39.5988 49.1197 39.5896 49.2816 39.4865 49.3822C38.4486 50.3946 37.6428 51.6237 37.1275 52.9714L38.0695 52.3317C38.1769 52.2587 38.3214 52.2689 38.4172 52.3571C38.5131 52.4452 38.5349 52.5874 38.4702 52.7C35.6692 57.5663 34.1149 63.0604 33.9464 68.6566L35.4742 65.8147C35.5387 65.6953 35.6805 65.6395 35.8095 65.6819C35.9388 65.7249 36.0182 65.8543 35.9977 65.9884C34.5776 75.2127 37.1775 85.1093 42.952 92.4617C45.3221 95.4791 47.725 97.3832 50.2985 98.2833C52.1835 98.9423 54.2206 99.0749 56.141 99.1202C56.2174 99.122 56.2895 99.1545 56.3411 99.2106C56.3529 99.2237 56.3637 99.2375 56.3729 99.2525L61.2225 99.1907ZM66.3319 99.8128C66.3301 99.8128 66.3285 99.8128 66.3266 99.8128C66.3256 99.8128 66.3243 99.8125 66.3232 99.8125L61.2225 99.7473L56.1294 99.8125C56.0534 99.8246 55.9765 99.7821 55.9228 99.7258C55.9067 99.709 55.8931 99.6904 55.882 99.6708C53.9876 99.6182 51.99 99.4649 50.113 98.8087C47.4357 97.8723 44.9491 95.9082 42.5114 92.8046C36.9582 85.7344 34.2944 76.348 35.2473 67.4174L33.8983 69.9268C33.8377 70.0389 33.709 70.0966 33.584 70.0656C33.4595 70.035 33.3721 69.9239 33.3715 69.7966C33.3515 64.1019 34.7471 58.4752 37.417 53.4489L36.7566 53.8974C36.6592 53.9634 36.5305 53.9613 36.4347 53.8932C36.3391 53.8241 36.2973 53.703 36.3302 53.5901C36.6518 52.4834 37.1546 51.4374 37.8124 50.496L37.1325 50.9458C37.0209 51.0199 36.8727 51.0039 36.7784 50.9096C36.6845 50.8148 36.671 50.6668 36.7466 50.5568C40.4169 45.2094 46.735 41.6979 53.2348 41.3928C56.1397 41.2566 58.9301 41.7679 61.2262 42.8578C63.5223 41.7679 66.3122 41.2566 69.2173 41.3928C75.7021 41.6972 82.0054 45.1929 85.6795 50.5188C85.7292 50.5688 85.7598 50.638 85.7598 50.7139C85.7598 50.8677 85.6345 50.9924 85.48 50.9924C85.4781 50.9921 85.4763 50.9924 85.4744 50.9924C85.421 50.9924 85.367 50.9772 85.3197 50.9458L84.6403 50.4963C85.2878 51.4233 85.7856 52.452 86.1078 53.5401C86.1275 53.5784 86.1385 53.6216 86.1385 53.6674C86.1385 53.8212 86.0133 53.9461 85.8587 53.9461C85.8572 53.9461 85.8553 53.9461 85.8535 53.9461C85.7985 53.9461 85.7435 53.9299 85.6958 53.8974L85.0354 53.4489C87.705 58.4752 89.1008 64.1016 89.0808 69.7966C89.0803 69.9239 88.9929 70.035 88.8684 70.0656C88.7439 70.0966 88.6147 70.0389 88.5541 69.9271L87.2051 67.4174C88.158 76.348 85.4942 85.7344 79.941 92.8046C77.5033 95.9082 75.0166 97.8723 72.3394 98.8087C70.464 99.4644 68.4685 99.6179 66.5759 99.6705C66.528 99.7554 66.4367 99.8128 66.3319 99.8128Z" fill="#292625"/>
<path d="M83.6414 76.0362C83.33 75.2011 82.5817 74.6316 81.7249 74.5879C81.7252 74.6015 82.4209 74.3749 82.5012 74.3322C82.7957 74.175 83.0513 73.9453 83.249 73.6679C83.6067 73.166 83.7433 72.5279 83.6688 71.9102C83.5256 70.7194 82.5217 69.7916 81.3667 69.8526C81.3659 69.8468 81.3654 69.8408 81.3643 69.8351C82.5817 69.5742 83.2795 68.2869 82.9813 67.0445C82.8468 66.4845 82.5509 65.9915 82.0971 65.6557C81.8381 65.4639 81.5378 65.34 81.224 65.2908C81.1258 65.2753 80.2972 65.312 80.3069 65.3395C81.4293 64.7962 81.8431 63.371 81.2732 62.2338C80.7057 61.102 79.4101 60.587 78.3083 61.2293C78.3149 61.2395 78.7855 60.6632 78.8316 60.582C78.9835 60.313 79.0732 60.0141 79.1045 59.7037C79.168 59.0781 78.9582 58.4364 78.5684 57.9617C77.7737 56.9938 76.4041 56.7963 75.4676 57.6717C75.4705 57.6749 75.7937 57.058 75.8222 56.9729C75.9259 56.6627 75.9564 56.3345 75.9211 56.0084C75.8538 55.3876 75.5231 54.8225 75.0546 54.4424C74.0894 53.6506 72.6827 53.7855 71.9502 54.8453C71.9586 54.8506 72.1484 54.1236 72.1568 54.0291C72.1868 53.6922 72.1376 53.3533 72.0205 53.0384C71.8146 52.4846 71.3924 52.0406 70.8828 51.7873C69.7773 51.2307 68.4322 51.6794 67.9339 52.8768C67.9366 52.8778 67.9818 52.1789 67.9734 52.0888C67.9429 51.764 67.84 51.4554 67.6791 51.1767C67.3872 50.6714 66.8997 50.3133 66.3593 50.158C65.1404 49.8078 63.8548 50.5378 63.6087 51.8664C63.6171 51.8675 63.4965 51.1256 63.466 51.0355C63.3665 50.7432 63.2067 50.4805 62.9988 50.2596C62.5784 49.8133 61.9796 49.5568 61.3795 49.5707C60.7701 49.5846 60.1942 49.8067 59.7633 50.2672C59.5561 50.4886 59.3979 50.7553 59.3 51.0478C59.2697 51.138 59.1529 51.8795 59.1613 51.8785C58.9157 50.5892 57.7157 49.8908 56.5228 50.1512C55.9695 50.272 55.4638 50.6266 55.1469 51.1154C54.9716 51.3855 54.8545 51.6899 54.81 52.0137C54.7965 52.1129 54.8271 52.9171 54.841 52.9121C54.3354 51.714 53.0182 51.2988 51.9082 51.8253C51.3652 52.0828 50.9322 52.5737 50.7329 53.161C50.6382 53.4402 50.5979 53.7347 50.619 54.0304C50.6261 54.1302 50.8208 54.91 50.8343 54.9016C50.0946 53.8428 48.7214 53.7344 47.7462 54.4975C47.2684 54.8713 46.9457 55.4481 46.8715 56.067C46.8362 56.3615 46.8575 56.6585 46.9391 56.943C46.9665 57.0389 47.3189 57.7579 47.3305 57.7461C46.389 56.8752 45.0239 57.0824 44.2292 58.0508C43.4317 59.0231 43.5467 60.5144 44.5172 61.3029C44.5201 61.2979 43.8818 61.076 43.7973 61.0621C43.4822 61.01 43.1553 61.0339 42.8521 61.1384C42.2709 61.3388 41.8271 61.7765 41.5457 62.3384C40.9758 63.4763 41.4104 64.9044 42.5302 65.4398C42.5396 65.4126 41.7094 65.3796 41.6112 65.3956C41.2975 65.4461 40.9977 65.5716 40.7397 65.7652C40.288 66.1044 39.9969 66.5992 39.8624 67.159C39.7074 67.8047 39.8137 68.5096 40.1825 69.0563C40.3428 69.2962 40.5499 69.5005 40.7884 69.6541C40.8616 69.7009 41.491 69.9686 41.492 69.9611C40.4067 69.9058 39.4373 70.7278 39.2238 71.8363C38.9646 73.1835 39.8119 74.5394 41.1467 74.678C41.1469 74.6636 40.4433 74.8545 40.3617 74.8928C40.0896 75.0206 39.8427 75.2084 39.6429 75.4402C39.243 75.9044 39.0572 76.532 39.088 77.1505C39.1177 77.7483 39.3375 78.3101 39.744 78.7369C39.9543 78.9579 40.2135 79.1256 40.4936 79.2319C40.5842 79.2663 41.4086 79.4077 41.4038 79.3739C40.1538 79.6511 39.5063 80.9391 39.7958 82.203C39.9287 82.7834 40.2999 83.311 40.7847 83.6193C41.0614 83.7951 41.3683 83.9025 41.6921 83.9226C41.7818 83.9281 42.5928 83.8278 42.5778 83.7917C41.3841 84.4038 41.1198 85.888 41.8018 87.0244C42.1037 87.5268 42.612 87.9155 43.1695 88.0347C43.473 88.0994 43.7868 88.0965 44.0866 88.0124C44.1758 87.9873 44.9594 87.5918 44.9226 87.5504C44.0124 88.5269 44.2116 90.0596 45.239 90.8507C46.2545 91.6326 47.6706 91.4385 48.3434 90.2778C48.3273 90.2686 48.1668 90.9837 48.1607 91.0689C48.137 91.4057 48.1884 91.7507 48.3202 92.0596C48.565 92.633 49.0246 93.0783 49.5863 93.2928C50.739 93.7596 52.0475 93.1959 52.4536 91.9495C52.4462 91.9474 52.4491 92.6563 52.4634 92.744C52.5157 93.0694 52.6394 93.3761 52.8166 93.648C53.1325 94.1326 53.636 94.4438 54.1751 94.5761C55.3906 94.8742 56.6351 94.0776 56.8705 92.7807C56.8705 92.7807 56.9731 93.4686 57.0008 93.555C57.0992 93.8652 57.2629 94.1483 57.4735 94.3891C57.8691 94.8412 58.4358 95.0851 59.0147 95.1215C60.2073 95.2058 61.2989 94.2864 61.3866 93.0193C61.3908 93.0193 61.5479 93.647 61.5819 93.7263C61.7006 94.0061 61.8756 94.2581 62.0923 94.464C62.5558 94.9048 63.177 95.117 63.7987 95.0665C64.352 95.0211 64.8935 94.7935 65.283 94.3715C65.4962 94.1405 65.6642 93.8623 65.7697 93.5605C65.8029 93.4657 65.9329 92.6793 65.9208 92.6809C66.1675 93.9089 67.3472 94.7107 68.523 94.4572C69.0671 94.3401 69.5851 94.0472 69.9231 93.577C70.1118 93.3148 70.2461 93.0081 70.3111 92.6869C70.3306 92.59 70.3527 91.7803 70.335 91.7853C70.7544 93.0214 72.0599 93.5757 73.2076 93.1063C73.7424 92.908 74.1868 92.4795 74.4347 91.9464C74.5742 91.6465 74.6437 91.3203 74.6366 90.9866C74.6348 90.8923 74.4789 90.0866 74.4547 90.1002C75.1196 91.2472 76.5363 91.4641 77.5505 90.6875C78.577 89.9014 78.8029 88.3907 77.9061 87.3963C77.8871 87.4173 78.5133 87.7898 78.5878 87.8191C78.8921 87.9378 79.2198 87.965 79.5404 87.9208C80.1514 87.8364 80.6883 87.4359 81.0321 86.9102C81.7452 85.7911 81.4648 84.286 80.2901 83.6688C80.2811 83.6898 80.9766 83.8105 81.0569 83.8108C81.3861 83.8134 81.7075 83.7259 81.9966 83.5619C82.5293 83.2591 82.9323 82.7143 83.08 82.0963C83.3816 80.8332 82.7238 79.5397 81.4772 79.2634C81.4701 79.3121 82.3843 79.1253 82.4814 79.0829C82.8447 78.9239 83.1518 78.6596 83.3787 78.3232C83.8204 77.6689 83.9178 76.7819 83.6414 76.0362C83.752 76.3345 83.5301 75.7375 83.6414 76.0362Z" fill="#F7A80E"/>
<path d="M80.0394 71.7424C79.7785 71.0427 79.1515 70.5657 78.4337 70.5291C78.434 70.5406 79.017 70.3507 79.0842 70.315C79.3311 70.1833 79.5448 69.9907 79.7106 69.7584C80.0102 69.338 80.1247 68.8033 80.0623 68.286C79.9423 67.2882 79.1013 66.5108 78.1337 66.5621C78.1331 66.5571 78.1326 66.5524 78.1318 66.5474C79.1516 66.3287 79.7362 65.2505 79.4864 64.2095C79.3737 63.7404 79.1258 63.3273 78.7457 63.0462C78.5288 62.8854 78.2771 62.7817 78.0142 62.7403C77.9318 62.7274 77.2377 62.7581 77.2458 62.7811C78.1861 62.3259 78.5327 61.1319 78.0552 60.1795C77.5799 59.231 76.4946 58.7998 75.5715 59.3376C75.577 59.3465 75.9713 58.8634 76.0097 58.7953C76.1371 58.5701 76.2124 58.3196 76.2387 58.0598C76.2916 57.5356 76.1161 56.9978 75.7894 56.6002C75.1237 55.7895 73.9763 55.6239 73.1917 56.3574C73.1943 56.36 73.4649 55.8432 73.4889 55.7719C73.5755 55.5121 73.6013 55.237 73.5715 54.9638C73.5152 54.4436 73.2383 53.9705 72.8458 53.6522C72.0369 52.9887 70.8587 53.1016 70.2449 53.9896C70.252 53.9941 70.411 53.3851 70.4181 53.3057C70.4431 53.0236 70.4018 52.7393 70.3039 52.4758C70.1312 52.0119 69.7777 51.6399 69.3508 51.4278C68.4245 50.9615 67.2976 51.3371 66.8804 52.3404C66.8825 52.3412 66.9204 51.7557 66.9133 51.6803C66.8878 51.4081 66.8017 51.1498 66.6669 50.9162C66.4224 50.4929 66.0139 50.1929 65.5611 50.0628C64.5401 49.7694 63.463 50.3808 63.2569 51.494C63.264 51.4948 63.1629 50.8732 63.1374 50.798C63.054 50.5531 62.92 50.3328 62.746 50.1479C62.3938 49.7741 61.8921 49.559 61.3891 49.5706C60.8787 49.5823 60.3962 49.7683 60.0353 50.1542C59.8616 50.3396 59.7292 50.5631 59.6471 50.8083C59.6218 50.8837 59.5239 51.505 59.5307 51.5043C59.3252 50.424 58.3199 49.8388 57.3205 50.057C56.8569 50.1584 56.4334 50.4554 56.1678 50.8648C56.0209 51.0909 55.9228 51.346 55.8857 51.6172C55.8743 51.7005 55.8999 52.3742 55.9117 52.37C55.4882 51.3662 54.3845 51.0186 53.4548 51.4595C52.9997 51.6751 52.637 52.0866 52.4701 52.5785C52.3906 52.8124 52.3569 53.0589 52.3745 53.3067C52.3803 53.3903 52.5435 54.0438 52.5548 54.0368C51.9355 53.1498 50.7847 53.0589 49.9676 53.6981C49.5675 54.0114 49.2972 54.4944 49.2351 55.0131C49.2053 55.2598 49.2232 55.5087 49.2917 55.747C49.3146 55.8272 49.6099 56.4297 49.6197 56.4197C48.8308 55.6899 47.6873 55.8636 47.0217 56.6749C46.3533 57.4895 46.4497 58.739 47.2628 59.3994C47.2654 59.3952 46.7303 59.2095 46.6595 59.1977C46.3957 59.1542 46.122 59.1741 45.868 59.2616C45.3807 59.4295 45.0091 59.7962 44.7732 60.267C44.2957 61.2202 44.66 62.4165 45.5979 62.8652C45.6061 62.8422 44.9106 62.8149 44.8282 62.828C44.5653 62.8705 44.3142 62.9755 44.0981 63.1379C43.7198 63.4219 43.4758 63.8365 43.3631 64.3054C43.2331 64.8463 43.3223 65.437 43.6311 65.8949C43.7656 66.0961 43.9391 66.2672 44.1389 66.3958C44.2002 66.4351 44.7277 66.6593 44.7282 66.653C43.8193 66.6066 43.007 67.2953 42.8283 68.2239C42.6109 69.3526 43.3208 70.4885 44.4389 70.6045C44.4392 70.5924 43.8498 70.7525 43.7814 70.7845C43.5534 70.8916 43.3466 71.049 43.1794 71.2431C42.8443 71.6321 42.6885 72.1579 42.7143 72.6757C42.7393 73.1768 42.9236 73.6473 43.2639 74.0049C43.4403 74.19 43.6572 74.3307 43.892 74.4198C43.9678 74.4486 44.6585 74.567 44.6545 74.5387C43.6071 74.7708 43.0649 75.8498 43.3073 76.9085C43.4187 77.395 43.7295 77.8369 44.1357 78.0952C44.3676 78.2427 44.6248 78.3325 44.8959 78.3493C44.9712 78.354 45.6505 78.2699 45.6379 78.2398C44.6379 78.7524 44.4166 79.9959 44.988 80.9481C45.241 81.3687 45.6666 81.6946 46.1338 81.7941C46.3878 81.8486 46.6508 81.846 46.9019 81.7756C46.9766 81.7546 47.6331 81.4232 47.6023 81.3887C46.8398 82.2065 47.0069 83.4905 47.8674 84.1533C48.7181 84.8084 49.9045 84.6457 50.4683 83.6734C50.4549 83.6658 50.3201 84.2648 50.3151 84.3361C50.2953 84.6182 50.3383 84.9074 50.4488 85.1662C50.6539 85.6464 51.0387 86.0194 51.5093 86.1993C52.4751 86.5904 53.5711 86.1181 53.9115 85.074C53.9054 85.0722 53.9078 85.666 53.9196 85.7396C53.9636 86.012 54.0673 86.269 54.2158 86.4969C54.4803 86.9027 54.902 87.1636 55.3537 87.2744C56.3721 87.524 57.4147 86.8568 57.6116 85.7703C57.6108 85.7703 57.6979 86.3466 57.7208 86.4189C57.8035 86.679 57.9406 86.916 58.117 87.1177C58.4484 87.4965 58.9232 87.7008 59.4083 87.7312C60.4073 87.8019 61.3217 87.0316 61.3951 85.9701C61.3986 85.9701 61.5304 86.4961 61.5589 86.5624C61.6584 86.7968 61.805 87.008 61.9863 87.1806C62.3746 87.5499 62.8952 87.7275 63.4159 87.6851C63.8794 87.6471 64.3332 87.4567 64.6594 87.1031C64.8381 86.9095 64.9786 86.6763 65.0673 86.4236C65.095 86.3442 65.204 85.6854 65.194 85.6867C65.4003 86.7154 66.3887 87.387 67.374 87.1748C67.8296 87.0766 68.2636 86.8312 68.5469 86.4374C68.7048 86.2177 68.8175 85.961 68.8717 85.6917C68.8883 85.6105 68.9067 84.9323 68.892 84.9365C69.2431 85.972 70.3368 86.4364 71.2983 86.0432C71.7466 85.8769 72.1185 85.518 72.3265 85.0711C72.4433 84.8199 72.5015 84.547 72.4957 84.2672C72.4939 84.1881 72.3636 83.5133 72.3433 83.5246C72.9 84.4854 74.0872 84.6672 74.9366 84.0168C75.7965 83.3582 75.986 82.0925 75.2348 81.2595C75.2188 81.2771 75.7434 81.589 75.8057 81.6137C76.0605 81.7129 76.3351 81.736 76.6038 81.6988C77.1155 81.6281 77.5654 81.2925 77.8533 80.8522C78.4509 79.9147 78.2161 78.6539 77.2319 78.1366C77.2242 78.1541 77.807 78.2555 77.8741 78.2555C78.15 78.2578 78.4193 78.1845 78.6614 78.047C79.1076 77.7937 79.4456 77.3371 79.569 76.8192C79.8217 75.7612 79.2708 74.6775 78.2263 74.446C78.2205 74.4868 78.9862 74.3305 79.0676 74.2948C79.3719 74.1615 79.6293 73.9402 79.8193 73.6586C80.1892 73.1103 80.271 72.3671 80.0394 71.7424C80.132 71.9923 79.9462 71.4922 80.0394 71.7424Z" fill="#F2CC46"/>
<path d="M76.4375 67.4484C76.2271 66.8842 75.7215 66.4996 75.1429 66.47C75.1429 66.4792 75.6131 66.3262 75.6673 66.2974C75.8663 66.1913 76.0387 66.036 76.1724 65.8487C76.414 65.5095 76.5062 65.0783 76.4562 64.6613C76.3593 63.8568 75.681 63.23 74.9008 63.2714C74.9005 63.2674 74.9 63.2635 74.8992 63.2596C75.7215 63.083 76.1932 62.2136 75.9916 61.3743C75.9008 60.9961 75.7007 60.6632 75.3943 60.4363C75.2193 60.3066 75.0163 60.2228 74.8044 60.1898C74.7381 60.1793 74.1785 60.204 74.1851 60.2226C74.9432 59.8556 75.2227 58.8926 74.8376 58.1246C74.4544 57.36 73.5791 57.0121 72.835 57.4459C72.8392 57.453 73.1572 57.0637 73.1883 57.0087C73.2909 56.8272 73.3515 56.6252 73.3728 56.4157C73.4157 55.9929 73.2741 55.5593 73.0106 55.2387C72.4739 54.5849 71.5486 54.4516 70.9159 55.0428C70.918 55.0449 71.1362 54.6281 71.1554 54.5708C71.2254 54.3612 71.2462 54.1396 71.2223 53.9193C71.1767 53.4996 70.9535 53.1182 70.6371 52.8615C69.9849 52.3264 69.0346 52.4175 68.54 53.1337C68.5456 53.1371 68.6737 52.646 68.6793 52.5823C68.6998 52.3547 68.6664 52.1255 68.5874 51.9128C68.4482 51.539 68.1631 51.2388 67.8188 51.068C67.072 50.6918 66.1634 50.9949 65.8267 51.8038C65.8286 51.8046 65.8591 51.3323 65.8536 51.2715C65.8328 51.052 65.7633 50.8438 65.6546 50.6554C65.4574 50.3141 65.1281 50.0723 64.7631 49.9673C63.9397 49.7307 63.0713 50.2237 62.905 51.1212C62.9108 51.1219 62.8294 50.6208 62.8086 50.5601C62.7415 50.3626 62.6336 50.185 62.493 50.0359C62.2093 49.7344 61.8047 49.5613 61.3991 49.5704C60.9874 49.5799 60.5984 49.7299 60.3072 50.0409C60.1675 50.1905 60.0606 50.3707 59.9945 50.5684C59.974 50.6292 59.895 51.1301 59.9006 51.1295C59.7347 50.2586 58.9243 49.7865 58.1183 49.9626C57.7445 50.0443 57.4028 50.284 57.1889 50.614C57.0704 50.7963 56.9912 51.002 56.9614 51.2207C56.9522 51.2878 56.973 51.831 56.9822 51.8276C56.6408 51.0182 55.7511 50.7379 55.0012 51.0934C54.6343 51.2673 54.3419 51.599 54.2071 51.9958C54.1431 52.1844 54.116 52.3832 54.1302 52.5831C54.135 52.6504 54.2666 53.1775 54.2755 53.1714C53.7762 52.4563 52.8483 52.383 52.1895 52.8985C51.8668 53.1513 51.6488 53.5408 51.5988 53.9588C51.5749 54.1579 51.5893 54.3586 51.6444 54.5506C51.663 54.6153 51.901 55.1012 51.9089 55.0931C51.2727 54.5047 50.3506 54.6446 49.8139 55.299C49.2751 55.9557 49.3527 56.9631 50.0084 57.4957C50.0105 57.4923 49.5791 57.3427 49.522 57.3333C49.3093 57.2979 49.0885 57.3141 48.8837 57.3846C48.491 57.52 48.1911 57.8158 48.0011 58.1953C47.616 58.9639 47.9098 59.9286 48.666 60.2901C48.6726 60.2718 48.1117 60.2498 48.0453 60.2605C47.8334 60.2946 47.6307 60.3795 47.4565 60.5102C47.1514 60.7394 46.9548 61.0736 46.864 61.4516C46.7592 61.8878 46.8311 62.364 47.0801 62.7333C47.1885 62.8955 47.3286 63.0335 47.4894 63.1373C47.5389 63.169 47.9642 63.3497 47.9648 63.3445C47.2317 63.3073 46.5768 63.8623 46.4326 64.6112C46.2573 65.5212 46.8298 66.4373 47.7316 66.5308C47.7316 66.5211 47.2564 66.65 47.2012 66.6759C47.0174 66.7624 46.8508 66.8891 46.7158 67.0458C46.4457 67.3593 46.3202 67.7834 46.341 68.201C46.361 68.6049 46.5094 68.9845 46.784 69.2726C46.9261 69.4219 47.1011 69.5353 47.2904 69.6071C47.3515 69.6304 47.9084 69.7258 47.9053 69.703C47.0609 69.8903 46.6234 70.7605 46.819 71.6142C46.9087 72.0063 47.1596 72.3626 47.487 72.5708C47.6739 72.6897 47.8813 72.7623 48.1001 72.7759C48.1606 72.7796 48.7084 72.7117 48.6981 72.6874C47.8919 73.101 47.7134 74.1035 48.174 74.8712C48.378 75.2105 48.7213 75.4732 49.0979 75.5536C49.303 75.5974 49.5149 75.5955 49.7173 75.5384C49.7776 75.5217 50.3069 75.2542 50.2822 75.2264C49.6673 75.886 49.8021 76.9215 50.4959 77.4559C51.1819 77.984 52.1387 77.8527 52.593 77.0687C52.5822 77.0627 52.4738 77.5457 52.4696 77.6031C52.4538 77.8307 52.4882 78.0639 52.5775 78.2724C52.7428 78.6598 53.0531 78.9605 53.4327 79.1056C54.2113 79.421 55.0952 79.0401 55.3695 78.1982C55.3645 78.1967 55.3666 78.6755 55.376 78.7347C55.4116 78.9545 55.495 79.162 55.6148 79.3456C55.8283 79.6728 56.1683 79.8831 56.5324 79.9724C57.3536 80.1736 58.1944 79.6356 58.3531 78.7596C58.3526 78.7596 58.4226 79.2243 58.4413 79.2827C58.5079 79.4923 58.6184 79.6835 58.7606 79.8462C59.028 80.1513 59.4107 80.3164 59.8019 80.3407C60.6073 80.3978 61.3446 79.7767 61.4038 78.921C61.4067 78.921 61.5131 79.3448 61.5357 79.3985C61.6162 79.5874 61.7344 79.7576 61.8805 79.8967C62.1938 80.1946 62.6136 80.3378 63.0334 80.3035C63.4072 80.2731 63.7731 80.1194 64.036 79.8341C64.18 79.6783 64.2935 79.4902 64.3648 79.2864C64.3872 79.2225 64.4751 78.6912 64.4669 78.6923C64.6336 79.5216 65.4306 80.0633 66.2247 79.892C66.5922 79.8129 66.9423 79.6151 67.1705 79.2976C67.2981 79.1203 67.3887 78.9134 67.4327 78.6962C67.4458 78.6307 67.4608 78.0838 67.449 78.0872C67.7322 78.9223 68.614 79.2966 69.3892 78.9796C69.7506 78.8455 70.0507 78.5561 70.2183 78.1959C70.3126 77.9934 70.3594 77.7731 70.3547 77.5476C70.3534 77.4839 70.2481 76.9396 70.2318 76.9487C70.6808 77.7236 71.6379 77.8703 72.3228 77.3456C73.0164 76.8146 73.169 75.7941 72.5634 75.1224C72.5505 75.1366 72.9735 75.3881 73.0237 75.408C73.2293 75.4881 73.4507 75.5065 73.6673 75.4766C74.0798 75.4195 74.4425 75.1489 74.6749 74.794C75.1566 74.038 74.9671 73.0214 74.1738 72.6043C74.1677 72.6185 74.6373 72.7002 74.6918 72.7002C74.9139 72.702 75.1311 72.6431 75.3264 72.532C75.6862 72.3277 75.9587 71.9597 76.0582 71.5421C76.2619 70.689 75.8176 69.8151 74.9755 69.6283C74.9708 69.6613 75.5883 69.5351 75.6539 69.5065C75.8992 69.3991 76.1069 69.2205 76.2601 68.9934C76.5583 68.5515 76.6241 67.9521 76.4375 67.4484C76.5122 67.6498 76.3624 67.2467 76.4375 67.4484Z" fill="#F8E298"/>
<path d="M60.0635 64.2247C57.3542 67.5629 52.3056 69.0267 48.0698 67.7023C50.7254 68.3291 53.6485 67.8767 55.9509 66.4824C53.712 67.379 51.1548 67.4655 48.7913 66.9217C46.4276 66.3776 44.2507 65.2284 42.3726 63.7728C44.0183 64.5898 45.6642 65.4068 47.3099 66.2239C46.466 65.7248 45.6424 65.1941 44.8559 64.6178C43.3276 63.4991 41.9246 62.1901 40.9604 60.61C39.9965 59.03 39.4972 57.1552 39.8286 55.3601C40.2632 53.0072 42.0173 51.0919 43.7024 49.3064C44.2644 48.711 44.8345 48.1088 45.5371 47.6648C46.3231 47.1681 47.2388 46.892 48.1409 46.622C49.5038 46.2139 50.8902 45.8021 52.3203 45.7796C54.0586 45.7523 55.7427 46.3014 57.3776 46.8577C56.2992 46.0651 55.1107 45.4052 53.8517 44.9002C54.8414 44.7462 55.8614 44.9953 56.7632 45.4086C58.6123 46.2563 60.0509 47.7803 60.9848 49.5052C61.9187 51.2299 62.3798 53.1508 62.6162 55.0738C62.7628 56.2661 62.8247 57.4881 62.5241 58.6549C62.2867 59.5756 61.8305 60.4337 61.3241 61.2526C60.4454 62.6734 59.4041 64.0051 58.2236 65.2167L60.0635 64.2247Z" fill="#F7A80E"/>
<path d="M63.368 64.2247C66.0774 67.5629 71.126 69.0267 75.362 67.7023C72.7064 68.3291 69.7833 67.8767 67.4809 66.4824C69.7198 67.379 72.2768 67.4655 74.6405 66.9217C77.004 66.3776 79.1808 65.2284 81.0592 63.7728C79.4132 64.5898 77.7676 65.4068 76.1217 66.2239C76.9658 65.7248 77.7892 65.1941 78.5759 64.6178C80.1039 63.4991 81.5072 62.1901 82.4711 60.61C83.435 59.03 83.9346 57.1552 83.6029 55.3601C83.1684 53.0072 81.4143 51.0919 79.7294 49.3064C79.1674 48.711 78.5973 48.1088 77.8947 47.6648C77.1087 47.1681 76.1927 46.892 75.2907 46.622C73.928 46.2139 72.5413 45.8021 71.1115 45.7796C69.3729 45.7523 67.6891 46.3014 66.054 46.8577C67.1326 46.0651 68.3211 45.4052 69.5798 44.9002C68.5904 44.7462 67.5701 44.9953 66.6686 45.4086C64.8192 46.2563 63.3809 47.7803 62.4468 49.5052C61.5129 51.2299 61.0517 53.1508 60.8153 55.0738C60.6687 56.2661 60.6071 57.4881 60.9077 58.6549C61.1449 59.5756 61.601 60.4337 62.1075 61.2526C62.9861 62.6734 64.0277 64.0051 65.2082 65.2167L63.368 64.2247Z" fill="#F7A80E"/>
<path d="M80.9586 55.8201C80.9586 61.1322 76.6313 65.4386 71.2934 65.4386C65.9555 65.4386 61.6282 61.1322 61.6282 55.8201C61.6282 50.5081 65.9555 46.2016 71.2934 46.2016C76.6313 46.2016 80.9586 50.5081 80.9586 55.8201Z" fill="#523B1A"/>
<path d="M79.6654 56.1331C79.6654 60.9458 75.745 64.847 70.9088 64.847C66.0729 64.847 62.1525 60.9458 62.1525 56.1331C62.1525 51.3206 66.0729 47.4191 70.9088 47.4191C75.745 47.4191 79.6654 51.3206 79.6654 56.1331Z" fill="#D1B86C"/>
<path d="M79.6654 56.1331C79.6654 60.9458 75.745 64.847 70.9088 64.847C66.0729 64.847 62.1525 60.9458 62.1525 56.1331C62.1525 51.3206 66.0729 47.4191 70.9088 47.4191C75.745 47.4191 79.6654 51.3206 79.6654 56.1331Z" fill="#D1B86C"/>
<path d="M78.8262 56.1331C78.8262 60.4845 75.2817 64.0122 70.9088 64.0122C66.5361 64.0122 62.9913 60.4845 62.9913 56.1331C62.9913 51.7816 66.5361 48.2539 70.9088 48.2539C75.2817 48.2539 78.8262 51.7816 78.8262 56.1331Z" fill="#F3ED99"/>
<path d="M71.874 57.1429C71.874 59.2275 70.1759 60.9174 68.0812 60.9174C65.9867 60.9174 64.2887 59.2275 64.2887 57.1429C64.2887 55.0584 65.9867 53.3685 68.0812 53.3685C70.1759 53.3685 71.874 55.0584 71.874 57.1429Z" fill="#D4C18D"/>
<path d="M70.8253 57.143C70.8253 58.6513 69.5969 59.8738 68.0812 59.8738C66.5659 59.8738 65.3372 58.6513 65.3372 57.143C65.3372 55.6349 66.5659 54.4122 68.0812 54.4122C69.5969 54.4122 70.8253 55.6349 70.8253 57.143Z" fill="#2E2227"/>
<path d="M68.0813 56.343C68.0813 56.7849 67.7215 57.1429 67.2774 57.1429C66.8333 57.1429 66.4733 56.7849 66.4733 56.343C66.4733 55.901 66.8333 55.5427 67.2774 55.5427C67.7215 55.5427 68.0813 55.901 68.0813 56.343Z" fill="white"/>
<path d="M68.6333 50.2733C69.2853 50.8944 68.9155 52.3317 67.8073 53.4834C66.6991 54.6352 65.2722 55.0654 64.6205 54.4443C63.9685 53.8232 64.3383 52.3859 65.4465 51.2341C66.5546 50.0823 67.9813 49.6522 68.6333 50.2733Z" fill="white"/>
<path d="M72.675 62.5875C68.5001 62.5875 64.9066 60.11 63.2975 56.5517C63.3933 59.399 65.1371 62.0604 67.9623 63.1968C70.465 64.2034 73.1941 63.7634 75.2143 62.2726C74.4023 62.478 73.5516 62.5875 72.675 62.5875Z" fill="#D4C18D"/>
<path d="M41.4938 55.8201C41.4938 61.1322 45.8209 65.4386 51.159 65.4386C56.4969 65.4386 60.8242 61.1322 60.8242 55.8201C60.8242 50.5081 56.4969 46.2016 51.159 46.2016C45.8209 46.2016 41.4938 50.5081 41.4938 55.8201Z" fill="#523B1A"/>
<path d="M42.787 56.1331C42.787 60.9458 46.7074 64.847 51.5436 64.847C56.3795 64.847 60.2999 60.9458 60.2999 56.1331C60.2999 51.3206 56.3795 47.4191 51.5436 47.4191C46.7074 47.4191 42.787 51.3206 42.787 56.1331Z" fill="#D1B86C"/>
<path d="M42.787 56.1331C42.787 60.9458 46.7074 64.847 51.5436 64.847C56.3795 64.847 60.2999 60.9458 60.2999 56.1331C60.2999 51.3206 56.3795 47.4191 51.5436 47.4191C46.7074 47.4191 42.787 51.3206 42.787 56.1331Z" fill="#D1B86C"/>
<path d="M43.6259 56.1331C43.6259 60.4845 47.1707 64.0122 51.5436 64.0122C55.9162 64.0122 59.461 60.4845 59.461 56.1331C59.461 51.7816 55.9162 48.2539 51.5436 48.2539C47.1707 48.2539 43.6259 51.7816 43.6259 56.1331Z" fill="#F3ED99"/>
<path d="M50.4949 56.1331C50.4949 58.2176 52.1929 59.9075 54.2874 59.9075C56.3821 59.9075 58.0801 58.2176 58.0801 56.1331C58.0801 54.0485 56.3821 52.3586 54.2874 52.3586C52.1929 52.3586 50.4949 54.0485 50.4949 56.1331Z" fill="#D4C18D"/>
<path d="M51.5436 56.1331C51.5436 57.6414 52.772 58.8639 54.2874 58.8639C55.803 58.8639 57.0315 57.6414 57.0315 56.1331C57.0315 54.625 55.803 53.4023 54.2874 53.4023C52.772 53.4023 51.5436 54.625 51.5436 56.1331Z" fill="#2E2227"/>
<path d="M54.2874 55.3332C54.2874 55.7751 54.6474 56.1332 55.0915 56.1332C55.5356 56.1332 55.8954 55.7751 55.8954 55.3332C55.8954 54.8913 55.5356 54.5329 55.0915 54.5329C54.6474 54.5329 54.2874 54.8913 54.2874 55.3332Z" fill="white"/>
<path d="M49.2444 50.2733C49.8964 50.8944 49.5266 52.3317 48.4184 53.4834C47.3102 54.6352 45.8836 55.0654 45.2316 54.4443C44.5796 53.8232 44.9494 52.3859 46.0576 51.2341C47.1657 50.0823 48.5926 49.6522 49.2444 50.2733Z" fill="white"/>
<path d="M49.7771 62.5875C53.9523 62.5875 57.5458 60.11 59.1549 56.5517C59.0591 59.399 57.3152 62.0604 54.4901 63.1968C51.9873 64.2034 49.2583 63.7634 47.238 62.2726C48.0501 62.478 48.9008 62.5875 49.7771 62.5875Z" fill="#D4C18D"/>
<path d="M62.7969 57.0572C62.555 56.7932 62.2728 56.5559 61.943 56.4739C61.6226 56.3945 61.2523 56.4943 61.0541 56.7837C60.8564 56.4938 60.4863 56.3932 60.1657 56.472C59.8356 56.553 59.5529 56.7898 59.3105 57.053C58.0202 58.4547 57.6656 60.6697 57.9596 62.6535C58.2539 64.6372 59.1057 66.4544 59.9454 68.2325C60.0075 68.3637 60.5321 69.1773 61.0486 69.1781C61.5653 69.1786 62.0735 68.3661 62.1357 68.2348C62.9795 66.4588 63.8358 64.6435 64.1346 62.6606C64.4333 60.6776 64.0838 58.4615 62.7969 57.0572Z" fill="#2D1615"/>
<path d="M60.0651 56.8197C59.8237 56.8632 59.6442 57.0693 59.4981 57.2723C58.461 58.7152 58.1259 60.5973 58.2536 62.3885C58.3952 64.3735 59.0767 66.3145 60.2007 67.9323C60.3952 68.2126 60.6781 68.5144 61.0051 68.4437C61.3801 68.3625 61.492 67.8747 61.5265 67.481C61.8126 64.2245 62.0242 60.86 61.019 57.7591C60.9429 57.5238 60.8566 57.2852 60.7002 57.0966C60.5439 56.908 60.302 56.7767 60.0651 56.8197Z" fill="#EE8B40"/>
<path d="M61.7391 56.8173C61.4106 56.8959 61.2561 57.2631 61.1587 57.585C60.1601 60.8853 60.0103 64.4363 60.7276 67.8081C60.7784 68.0465 60.8663 68.3221 61.099 68.398C61.3904 68.4934 61.656 68.2065 61.8202 67.9488C63.3116 65.6049 63.987 62.757 63.7057 59.9965C63.5946 58.9068 63.2898 57.7493 62.438 57.0554C62.2403 56.8945 61.9876 56.7581 61.7391 56.8173Z" fill="#F2591D"/>
<path d="M61.8203 63.1107C61.8203 65.7828 61.4407 67.9489 60.9727 67.9489C60.5044 67.9489 60.1251 65.7828 60.1251 63.1107C60.1251 60.4385 60.5044 58.2725 60.9727 58.2725C61.4407 58.2725 61.8203 60.4385 61.8203 63.1107Z" fill="#F3DE3E"/>
<path d="M61.0851 61.5012C61.2735 61.443 61.3491 61.2201 61.3775 61.0257C61.4675 60.4117 61.3604 59.771 61.0759 59.2191C60.6192 59.6584 60.4365 60.3392 60.5418 60.9623C60.5657 61.1051 60.606 61.2502 60.6984 61.3621C60.7908 61.4737 60.9461 61.5441 61.0851 61.5012Z" fill="white"/>
<path d="M61.2401 63.0452C61.1419 62.673 61.0437 62.3007 60.9455 61.9288C60.737 62.3065 60.6425 62.7458 60.6775 63.1754C60.687 63.2943 60.7081 63.4169 60.776 63.5151C60.8439 63.6136 60.9697 63.6809 61.085 63.6487C61.1971 63.6175 61.2687 63.5023 61.284 63.3873C61.2995 63.2726 61.2695 63.157 61.2401 63.0452Z" fill="white"/>
<path d="M36.0633 65.3357C31.768 71.498 29.6122 79.1086 30.041 86.5964C30.6522 85.4004 31.2634 84.2043 31.8746 83.008C31.7112 83.4897 31.5456 83.9845 31.5654 84.4925C31.5848 85.0001 31.8304 85.5319 32.2924 85.7482C32.7643 85.9693 33.3468 85.8059 33.7488 85.4753C34.1507 85.1445 34.4076 84.6745 34.6403 84.2101C35.6387 82.218 36.3752 80.0957 36.825 77.9149C37.0601 78.7579 36.7148 79.6417 36.6605 80.5148C36.6066 81.3879 37.0991 82.4684 37.9774 82.4328C38.785 82.4003 39.2072 81.4819 39.4294 80.7086C41.1348 74.7702 41.8221 68.5437 41.4522 62.3785C41.4275 61.9649 41.3672 61.4947 41.0258 61.2576C40.6994 61.0305 40.2298 61.1248 39.9171 61.3703C39.6044 61.6155 39.4123 61.9785 39.2291 62.3303L36.0633 65.3357Z" fill="#F2591D"/>
<path d="M30.0413 86.8749C30.0221 86.8749 30.0029 86.8728 29.9836 86.8686C29.8599 86.8429 29.7689 86.7376 29.7617 86.6121C29.3274 79.03 31.484 71.4173 35.8335 65.1772C35.9217 65.0506 36.0959 65.0189 36.2231 65.107C36.3499 65.1944 36.3815 65.3679 36.2933 65.4944C32.2171 71.3424 30.0989 78.4152 30.2769 85.5206L31.6251 82.882C31.6917 82.7518 31.848 82.695 31.9831 82.7515C32.1184 82.8081 32.1868 82.959 32.1397 83.0971C31.986 83.5502 31.827 84.0189 31.8449 84.4815C31.8583 84.8335 32.0152 85.3105 32.4116 85.4962C32.7959 85.677 33.2702 85.5072 33.5708 85.2607C33.9333 84.9624 34.1741 84.5168 34.39 84.0856C35.3786 82.1132 36.1057 80.0184 36.551 77.8589C36.5771 77.7331 36.6863 77.6409 36.8156 77.6365C36.9432 77.6339 37.0601 77.7164 37.0948 77.8405C37.2678 78.4608 37.1601 79.0814 37.0561 79.6815C37.0053 79.9759 36.9572 80.2541 36.9398 80.5318C36.908 81.0489 37.0896 81.6029 37.392 81.9102C37.5602 82.081 37.7532 82.1645 37.9661 82.1543C38.5992 82.1292 38.965 81.3127 39.1603 80.6321C40.8655 74.6948 41.5425 68.5592 41.1729 62.3953C41.1503 62.0181 41.0974 61.6469 40.8655 61.4855C40.6439 61.3318 40.3009 61.4242 40.09 61.589C39.8195 61.8012 39.6457 62.1354 39.4775 62.4584C39.4067 62.5946 39.2377 62.6475 39.1006 62.5776C38.9632 62.5069 38.9098 62.3387 38.9808 62.2019C39.1669 61.8441 39.378 61.4384 39.7436 61.1515C40.1103 60.8644 40.7176 60.7033 41.1861 61.0292C41.613 61.3263 41.7004 61.8452 41.7315 62.362C42.105 68.5888 41.4209 74.7873 39.6984 80.7851C39.3404 82.032 38.7652 82.6798 37.9887 82.7109C37.6163 82.7196 37.2717 82.5839 36.9922 82.2999C36.6216 81.9233 36.3902 81.314 36.377 80.7049C35.9746 81.9492 35.4779 83.1631 34.8906 84.3345C34.6485 84.8183 34.3742 85.322 33.9272 85.6898C33.3942 86.1278 32.7059 86.2491 32.1734 86.0002C31.7196 85.7878 31.3948 85.304 31.3074 84.7321L30.2903 86.7227C30.2421 86.8172 30.1447 86.8749 30.0413 86.8749Z" fill="#292625"/>
<path d="M86.5286 65.1491C90.7198 71.3657 92.8232 79.0429 92.405 86.5964C91.8085 85.3899 91.2121 84.1831 90.6159 82.9766C90.7754 83.4625 90.9367 83.9615 90.9178 84.4739C90.8986 84.9862 90.659 85.5224 90.2081 85.7409C89.7478 85.9638 89.1792 85.7991 88.787 85.4653C88.3948 85.1319 88.144 84.6578 87.9171 84.1891C86.9429 82.1795 86.2243 80.0386 85.7852 77.8387C85.556 78.689 85.8929 79.5807 85.9458 80.4613C85.9984 81.3423 85.5178 82.432 84.6607 82.3964C83.8729 82.3633 83.4607 81.4371 83.2441 80.657C81.58 74.6665 80.9093 68.3853 81.2702 62.1661C81.2944 61.7488 81.3534 61.2744 81.6863 61.035C82.0048 60.8063 82.4628 60.9014 82.7682 61.1487C83.0732 61.3962 83.2607 61.7624 83.4394 62.1173L86.5286 65.1491Z" fill="#F2591D"/>
<path d="M92.4048 86.8749C92.3001 86.8749 92.2016 86.8157 92.154 86.719L91.1729 84.7348C91.0837 85.3008 90.7686 85.7791 90.3306 85.9913C89.806 86.2457 89.1288 86.122 88.6052 85.677C88.1693 85.3063 87.9016 84.7984 87.665 84.3101C87.0988 83.1416 86.6184 81.9319 86.2283 80.6913C86.207 81.304 85.9759 81.9073 85.61 82.2779C85.3392 82.5525 85.0086 82.6853 84.6493 82.6748C83.8875 82.6428 83.3239 81.989 82.9744 80.7311C81.294 74.682 80.6267 68.4306 80.991 62.1498C81.021 61.6306 81.1063 61.1088 81.5224 60.8094C81.9191 60.5244 82.5037 60.5755 82.9449 60.9328C83.3018 61.222 83.5079 61.6317 83.6898 61.9929C83.7588 62.1302 83.703 62.2976 83.5648 62.3662C83.4263 62.4359 83.2584 62.3793 83.1892 62.242C83.0252 61.9159 82.8554 61.5785 82.5914 61.3645C82.3898 61.201 82.0615 61.1096 81.8502 61.2608C81.6235 61.4237 81.5719 61.7999 81.5496 62.182C81.1889 68.4015 81.8496 74.5924 83.5137 80.5826C83.7046 81.2692 84.0604 82.0925 84.6727 82.1182C84.8672 82.1294 85.0515 82.0487 85.2107 81.8879C85.5105 81.584 85.6979 81.0043 85.6666 80.4781C85.6498 80.1973 85.6026 79.9165 85.5529 79.6194C85.4516 79.0148 85.3471 78.3898 85.515 77.7664C85.549 77.6414 85.6687 77.5595 85.7945 77.5602C85.9246 77.5647 86.0343 77.6574 86.0599 77.7845C86.4944 79.9634 87.2041 82.0773 88.1691 84.0681C88.3799 84.5032 88.6152 84.953 88.9687 85.2534C89.2588 85.5007 89.7165 85.6699 90.0856 85.4905C90.4038 85.3367 90.6207 84.9336 90.6383 84.4636C90.6557 83.9945 90.5001 83.5209 90.3498 83.063C90.3043 82.9242 90.3743 82.7738 90.5104 82.7188C90.647 82.663 90.8021 82.7225 90.8671 82.8537L92.1687 85.4873C92.3372 78.3254 90.2704 71.1983 86.2962 65.3039C86.2102 65.1764 86.2444 65.0035 86.3726 64.9178C86.5008 64.8319 86.6748 64.8657 86.7611 64.9941C91.0045 71.2876 93.1079 78.9651 92.6844 86.6116C92.6773 86.7379 92.5857 86.844 92.4609 86.8691C92.4422 86.8728 92.4232 86.8749 92.4048 86.8749Z" fill="#292625"/>
<path d="M53.4035 98.7174C52.9215 98.3752 52.2413 98.6079 51.757 98.9463C50.6554 99.7164 49.9539 100.959 49.6162 102.256C49.2785 103.553 49.2732 104.912 49.3351 106.25C49.3443 106.45 49.3801 106.689 49.563 106.773C49.8089 106.885 50.0516 106.619 50.1908 106.388C50.9286 105.168 51.6662 103.947 52.404 102.727C52.7983 102.074 53.1934 101.421 53.5153 100.73C53.6701 100.398 53.8093 100.05 53.8228 99.6842C53.8362 99.3185 53.7027 98.9298 53.4035 98.7174Z" fill="#EDA263"/>
<path d="M52.8473 98.8276C52.5717 98.8276 52.233 98.9538 51.9179 99.1741C50.9637 99.841 50.2428 100.96 49.8872 102.326C49.5486 103.625 49.5563 104.974 49.6147 106.237C49.6266 106.492 49.6797 106.52 49.6803 106.52L49.6824 106.521C49.7168 106.521 49.8345 106.437 49.9511 106.244L52.1645 102.583C52.5486 101.948 52.946 101.29 53.2617 100.613C53.4009 100.314 53.5315 99.9932 53.543 99.6737C53.552 99.4311 53.4772 99.1118 53.2409 98.9439C53.1308 98.8656 53.0021 98.8276 52.8473 98.8276ZM49.6824 107.078C49.6013 107.078 49.5218 107.06 49.4463 107.026C49.0833 106.859 49.0633 106.426 49.0556 106.263C48.9983 105.018 48.9875 103.561 49.3454 102.186C49.7342 100.693 50.5336 99.4615 51.596 98.7183C51.8355 98.5512 52.3162 98.2707 52.8473 98.2707C53.1187 98.2707 53.3604 98.3448 53.5659 98.4907C53.915 98.7385 54.1205 99.1998 54.1024 99.6941C54.0871 100.112 53.9334 100.495 53.7694 100.847C53.4412 101.552 53.0358 102.222 52.6439 102.87L50.431 106.531C50.3075 106.735 50.0464 107.078 49.6824 107.078Z" fill="#292625"/>
<path d="M52.559 101.033C52.6199 100.725 52.667 100.406 52.6009 100.099C52.4827 100.668 52.1 101.177 51.5846 101.451C51.6925 101.872 51.7038 102.33 51.5391 102.732C51.374 103.135 51.0126 103.471 50.5804 103.536C50.6412 104.281 50.4904 105.043 50.1498 105.71C50.7778 104.609 51.4056 103.508 52.0334 102.407C52.1495 102.204 52.2656 102 52.3527 101.783C52.4495 101.542 52.509 101.288 52.559 101.033Z" fill="#DC7029"/>
<path d="M55.1713 98.7174C55.6533 98.3752 56.3334 98.6079 56.818 98.9463C57.9196 99.7164 58.6211 100.959 58.9585 102.256C59.2963 103.553 59.3018 104.912 59.2397 106.25C59.2305 106.45 59.1949 106.689 59.012 106.773C58.7661 106.885 58.5234 106.619 58.3839 106.388C57.6464 105.168 56.9086 103.947 56.1708 102.727C55.7765 102.074 55.3814 101.421 55.0594 100.73C54.9049 100.398 54.7654 100.05 54.7523 99.6842C54.7388 99.3185 54.8723 98.9298 55.1713 98.7174Z" fill="#EDA263"/>
<path d="M55.7277 98.8276C55.5729 98.8276 55.4439 98.8656 55.3339 98.9439C55.0975 99.1118 55.0228 99.4311 55.0317 99.6737C55.0433 99.993 55.1739 100.314 55.3134 100.613C55.6295 101.291 56.0265 101.948 56.4105 102.583L58.6237 106.244C58.7397 106.437 58.8574 106.52 58.8922 106.521C58.8966 106.519 58.9485 106.489 58.9601 106.237C59.0188 104.974 59.0261 103.625 58.6879 102.326C58.3323 100.96 57.6111 99.8413 56.6569 99.1741C56.3421 98.9538 56.003 98.8276 55.7277 98.8276ZM58.8924 106.521V106.799V106.521ZM58.8924 107.078C58.5289 107.078 58.2675 106.736 58.1441 106.531L55.9312 102.87C55.5392 102.222 55.1344 101.553 54.8056 100.847C54.6417 100.495 54.4877 100.112 54.4724 99.6941C54.4545 99.1998 54.6598 98.7385 55.0088 98.4907C55.2144 98.3448 55.4561 98.2707 55.7277 98.2707C56.2586 98.2707 56.7393 98.5512 56.9788 98.7183C58.0414 99.4615 58.8408 100.693 59.2293 102.186C59.5876 103.561 59.5768 105.018 59.5191 106.263C59.5126 106.41 59.4915 106.859 59.1288 107.026C59.053 107.06 58.9738 107.078 58.8924 107.078Z" fill="#292625"/>
<path d="M57.0938 101.237C57.0459 101.722 57.1288 102.22 57.3315 102.664C57.4031 102.821 57.4921 102.974 57.6229 103.087C57.7537 103.201 57.9327 103.269 58.1025 103.235C58.0222 103.684 58.1612 104.143 58.3312 104.567C58.4418 104.842 58.566 105.111 58.7037 105.374C58.6142 105.334 58.5497 105.255 58.4889 105.179C58.1741 104.781 57.8719 104.374 57.5695 103.966C57.4329 103.782 57.2962 103.598 57.1594 103.414C57.0751 103.3 56.9906 103.186 56.9096 103.07C56.3442 102.26 55.9454 101.336 55.7451 100.37C55.6856 100.082 55.6485 99.7632 55.8019 99.5125C56.1149 100.171 56.4621 100.869 57.0938 101.237Z" fill="#DC7029"/>
<path d="M55.9839 101.639C55.9839 103.628 55.2045 107.323 54.2427 107.323C53.2811 107.323 52.5015 103.628 52.5015 101.639C52.5015 99.6491 53.2811 98.0362 54.2427 98.0362C55.2045 98.0362 55.9839 99.6491 55.9839 101.639Z" fill="#EDA263"/>
<path d="M54.2426 98.3147C53.5514 98.3147 52.7812 99.6797 52.7812 101.639C52.7812 103.862 53.6416 107.045 54.2426 107.045C54.8435 107.045 55.704 103.862 55.704 101.639C55.704 99.6797 54.9338 98.3147 54.2426 98.3147ZM54.2426 107.602C52.9091 107.602 52.2216 103.422 52.2216 101.639C52.2216 99.4625 53.1091 97.7578 54.2426 97.7578C55.376 97.7578 56.2636 99.4625 56.2636 101.639C56.2636 103.422 55.5761 107.602 54.2426 107.602Z" fill="#292625"/>
<path d="M51.0856 100.493C51.0954 100.621 51.1799 100.731 51.2686 100.825C51.3449 100.906 51.4386 100.986 51.5502 100.988C51.7261 100.99 51.8377 100.807 51.9116 100.648C52.0072 100.443 52.1043 100.233 52.1293 100.008C52.1546 99.7835 52.0956 99.537 51.9235 99.3895C51.6908 99.6027 51.4734 99.8322 51.2733 100.076C51.1741 100.197 51.0741 100.337 51.0856 100.493Z" fill="#F3ED99"/>
<path d="M50.7782 101.106C50.7029 101.12 50.655 101.192 50.6179 101.259C50.2847 101.86 50.1344 102.56 50.1912 103.244C50.1973 103.317 50.2173 103.405 50.2875 103.429C50.3734 103.457 50.4476 103.366 50.4915 103.287C50.6653 102.975 50.8387 102.664 51.0125 102.352C51.1085 102.18 51.2072 101.996 51.1986 101.8C51.1901 101.603 50.9722 101.069 50.7782 101.106Z" fill="#F3ED99"/>
<path d="M49.9713 105.443C50.1111 105.122 50.1945 104.776 50.2169 104.427C50.2248 104.305 50.2245 104.178 50.1766 104.066C50.1287 103.954 50.0229 103.858 49.9002 103.856C49.7968 104.179 49.7384 104.516 49.7268 104.854C49.7194 105.069 49.7365 105.3 49.8721 105.467C49.8831 105.481 49.8971 105.495 49.9147 105.496C49.9424 105.498 49.9603 105.468 49.9713 105.443Z" fill="#F3ED99"/>
<path d="M53.2185 101.649C53.2635 101.8 53.3493 101.96 53.502 102.002C53.6512 102.044 53.8118 101.951 53.8958 101.821C53.9797 101.691 54.004 101.533 54.0232 101.38C54.1263 100.561 54.1482 99.7313 54.0884 98.9077C54.0819 98.8197 54.045 98.7047 53.9566 98.7105C53.9113 98.7136 53.8768 98.7508 53.8484 98.7859C53.4391 99.2933 53.2611 99.9485 53.1795 100.594C53.1351 100.946 53.1172 101.309 53.2185 101.649Z" fill="#F3ED99"/>
<path d="M53.6037 102.326C53.5408 102.34 53.4806 102.374 53.4463 102.428C53.4261 102.461 53.4155 102.498 53.4066 102.535C53.2897 103.013 53.3855 103.518 53.5235 103.991C53.5577 104.109 53.5972 104.23 53.6814 104.32C53.7293 104.37 53.7977 104.41 53.8662 104.397C53.9694 104.378 54.0146 104.259 54.0375 104.157C54.1194 103.796 54.1533 103.424 54.1433 103.055C54.1386 102.882 54.1223 102.702 54.0354 102.552C53.9488 102.402 53.7738 102.29 53.6037 102.326Z" fill="#F3ED99"/>
<path d="M57.2662 100.019C57.0372 99.7632 56.7906 99.5104 56.4795 99.3632C56.4366 99.3428 56.3876 99.3244 56.3431 99.3407C56.3092 99.5337 56.3673 99.7336 56.4652 99.9036C56.5632 100.073 56.699 100.218 56.8335 100.361C56.9459 100.481 57.058 100.6 57.1704 100.719C57.2694 100.824 57.3939 100.939 57.5366 100.915C57.6258 100.772 57.6168 100.586 57.5534 100.43C57.49 100.275 57.3784 100.145 57.2662 100.019Z" fill="#F3ED99"/>
<path d="M58.1754 102.13C58.2412 101.837 58.092 101.541 57.9203 101.294C57.8714 101.224 57.7882 101.147 57.7129 101.188C57.5805 101.477 57.5858 101.824 57.7266 102.109C57.759 102.175 57.8 102.239 57.8606 102.281C57.9211 102.323 58.0051 102.337 58.0693 102.301C58.1296 102.267 58.1601 102.198 58.1754 102.13Z" fill="#F3ED99"/>
<path d="M54.1842 106.634C54.498 106.629 54.6843 106.29 54.7904 105.997C55.3763 104.373 55.5672 102.61 55.3421 100.899C55.2321 100.062 54.9797 99.1681 54.2979 98.6651C54.4916 100.464 54.5651 102.276 54.5182 104.084C54.5095 104.416 54.4969 104.747 54.479 105.078C54.4503 105.608 54.405 106.151 54.1842 106.634Z" fill="#DC7029"/>
<path d="M67.2808 98.7174C66.7991 98.3752 66.1186 98.6079 65.6343 98.9463C64.5327 99.7164 63.8312 100.959 63.4935 102.256C63.1561 103.553 63.1505 104.912 63.2127 106.25C63.2219 106.45 63.2574 106.689 63.4403 106.773C63.6862 106.885 63.9289 106.619 64.0684 106.388C64.8059 105.168 65.5438 103.947 66.2813 102.727C66.6759 102.074 67.071 101.421 67.3926 100.73C67.5474 100.398 67.6866 100.05 67.7001 99.6842C67.7135 99.3185 67.58 98.9298 67.2808 98.7174Z" fill="#EDA263"/>
<path d="M66.7247 98.8276C66.4491 98.8276 66.1103 98.9538 65.7953 99.1741C64.8413 99.8413 64.1201 100.96 63.7645 102.326C63.4263 103.625 63.4339 104.974 63.4923 106.237C63.5039 106.492 63.5571 106.519 63.5576 106.52L63.56 106.521C63.5942 106.521 63.7121 106.437 63.8287 106.244L66.0419 102.583C66.4262 101.948 66.8234 101.29 67.139 100.613C67.2785 100.314 67.4091 99.993 67.4204 99.6739C67.4296 99.4311 67.3546 99.1118 67.1185 98.9439C67.0082 98.8656 66.8795 98.8276 66.7247 98.8276ZM63.56 107.078C63.4786 107.078 63.3991 107.06 63.3239 107.026C62.9609 106.859 62.9406 106.426 62.9332 106.263C62.8756 105.018 62.8648 103.561 63.2231 102.186C63.6116 100.693 64.411 99.4615 65.4736 98.7183C65.7129 98.5512 66.1935 98.2707 66.7247 98.2707C66.9961 98.2707 67.238 98.3448 67.4433 98.4907C67.7923 98.7385 67.9979 99.1998 67.9797 99.6941C67.9647 100.112 67.8107 100.495 67.6467 100.847C67.3185 101.552 66.9132 102.222 66.5212 102.87L64.308 106.531C64.1849 106.735 63.9237 107.078 63.56 107.078Z" fill="#292625"/>
<path d="M66.4366 101.033C66.4972 100.725 66.5443 100.406 66.4782 100.099C66.36 100.668 65.9773 101.177 65.4619 101.451C65.5698 101.872 65.5814 102.33 65.4164 102.732C65.2513 103.135 64.8902 103.471 64.458 103.536C64.5188 104.281 64.368 105.043 64.0273 105.71C64.6551 104.609 65.2829 103.508 65.911 102.407C66.0268 102.204 66.1429 102 66.23 101.783C66.3269 101.542 66.3863 101.288 66.4366 101.033Z" fill="#DC7029"/>
<path d="M69.0489 98.7174C69.5306 98.3752 70.211 98.6079 70.6953 98.9463C71.7969 99.7164 72.4984 100.959 72.8361 102.256C73.1738 103.553 73.1791 104.912 73.1172 106.25C73.1078 106.45 73.0722 106.689 72.8893 106.773C72.6435 106.885 72.4008 106.619 72.2612 106.388C71.5237 105.168 70.7859 103.947 70.0483 102.727C69.654 102.074 69.2587 101.421 68.937 100.73C68.7822 100.398 68.643 100.05 68.6296 99.6842C68.6162 99.3185 68.7496 98.9298 69.0489 98.7174Z" fill="#EDA263"/>
<path d="M69.605 98.8276C69.4502 98.8276 69.3215 98.8656 69.2112 98.9439C68.9751 99.1118 68.9004 99.4311 68.9091 99.6739C68.9206 99.993 69.0512 100.314 69.1907 100.613C69.5063 101.29 69.9038 101.948 70.2881 102.583L72.501 106.244C72.6173 106.437 72.7347 106.52 72.7695 106.521C72.7739 106.519 72.8261 106.489 72.8376 106.237C72.8961 104.974 72.9035 103.625 72.5652 102.326C72.2096 100.96 71.4886 99.8413 70.5345 99.1741C70.2194 98.9538 69.8806 98.8276 69.605 98.8276ZM72.7697 106.521V106.799V106.521ZM72.7697 107.078C72.406 107.078 72.1448 106.735 72.0214 106.531L69.8085 102.87C69.4166 102.222 69.0112 101.552 68.683 100.847C68.519 100.495 68.365 100.112 68.3497 99.6941C68.3318 99.1998 68.5374 98.7385 68.8862 98.4907C69.0917 98.3448 69.3336 98.2707 69.605 98.2707C70.1359 98.2707 70.6168 98.5512 70.8561 98.7183C71.9187 99.4615 72.7181 100.693 73.1069 102.186C73.4649 103.561 73.4541 105.018 73.3967 106.263C73.3899 106.41 73.3691 106.859 73.0064 107.026C72.9306 107.06 72.8511 107.078 72.7697 107.078Z" fill="#292625"/>
<path d="M70.9712 101.237C70.9236 101.722 71.0062 102.22 71.2089 102.664C71.2808 102.821 71.3695 102.974 71.5003 103.087C71.6311 103.201 71.8101 103.269 71.9802 103.235C71.8996 103.684 72.0386 104.143 72.2086 104.567C72.3192 104.842 72.4434 105.111 72.5811 105.374C72.4916 105.334 72.4271 105.255 72.3666 105.179C72.0518 104.781 71.7493 104.374 71.4469 103.966C71.3103 103.782 71.1737 103.598 71.037 103.414C70.9525 103.3 70.8681 103.186 70.787 103.07C70.2216 102.26 69.8228 101.336 69.6228 100.37C69.563 100.082 69.5259 99.7632 69.6793 99.5125C69.9923 100.171 70.3398 100.869 70.9712 101.237Z" fill="#DC7029"/>
<path d="M69.8614 101.639C69.8614 103.628 69.0817 107.323 68.1199 107.323C67.1583 107.323 66.3787 103.628 66.3787 101.639C66.3787 99.6491 67.1583 98.0362 68.1199 98.0362C69.0817 98.0362 69.8614 99.6491 69.8614 101.639Z" fill="#EDA263"/>
<path d="M68.12 98.3147C67.4288 98.3147 66.6586 99.6797 66.6586 101.639C66.6586 103.862 67.5191 107.045 68.12 107.045C68.721 107.045 69.5814 103.862 69.5814 101.639C69.5814 99.6797 68.8112 98.3147 68.12 98.3147ZM68.12 107.602C66.7868 107.602 66.099 103.422 66.099 101.639C66.099 99.4625 66.9868 97.7578 68.12 97.7578C69.2534 97.7578 70.141 99.4625 70.141 101.639C70.141 103.422 69.4535 107.602 68.12 107.602Z" fill="#292625"/>
<path d="M64.9631 100.493C64.9726 100.621 65.0571 100.731 65.1458 100.825C65.2224 100.906 65.3158 100.986 65.4274 100.988C65.6035 100.99 65.7149 100.807 65.7888 100.648C65.8847 100.443 65.9815 100.233 66.0068 100.008C66.0318 99.7835 65.9731 99.537 65.8007 99.3895C65.568 99.6027 65.3506 99.8322 65.1505 100.076C65.0513 100.197 64.9513 100.337 64.9631 100.493Z" fill="#F3ED99"/>
<path d="M64.6554 101.106C64.5801 101.12 64.5322 101.192 64.4951 101.259C64.1621 101.86 64.0115 102.56 64.0684 103.244C64.0747 103.317 64.0945 103.405 64.1647 103.429C64.2505 103.457 64.3248 103.366 64.3687 103.287C64.5425 102.975 64.7162 102.664 64.8899 102.352C64.9857 102.18 65.0844 101.996 65.076 101.8C65.0673 101.603 64.8496 101.069 64.6554 101.106Z" fill="#F3ED99"/>
<path d="M63.8489 105.443C63.9884 105.122 64.0718 104.776 64.0942 104.427C64.1021 104.305 64.1018 104.178 64.0539 104.066C64.006 103.954 63.9002 103.858 63.7775 103.856C63.6741 104.179 63.6157 104.516 63.6041 104.854C63.5967 105.069 63.6141 105.3 63.7494 105.467C63.7607 105.481 63.7744 105.495 63.792 105.496C63.8197 105.498 63.8378 105.468 63.8489 105.443Z" fill="#F3ED99"/>
<path d="M67.0957 101.649C67.1407 101.8 67.2268 101.96 67.3792 102.002C67.5284 102.044 67.689 101.951 67.773 101.821C67.8569 101.691 67.8812 101.533 67.9004 101.38C68.0038 100.561 68.0257 99.7313 67.9657 98.9077C67.9593 98.8197 67.9222 98.7047 67.834 98.7105C67.7888 98.7136 67.754 98.7508 67.7256 98.7859C67.3163 99.2933 67.1384 99.9485 67.0568 100.594C67.0125 100.946 66.9944 101.309 67.0957 101.649Z" fill="#F3ED99"/>
<path d="M67.4811 102.326C67.4182 102.34 67.3581 102.374 67.3237 102.428C67.3034 102.461 67.2929 102.498 67.2839 102.535C67.167 103.013 67.2629 103.518 67.4008 103.991C67.4353 104.109 67.4745 104.23 67.559 104.32C67.6066 104.37 67.6751 104.41 67.7438 104.397C67.8467 104.378 67.8919 104.259 67.9151 104.157C67.9967 103.796 68.0307 103.424 68.0207 103.055C68.0159 102.882 67.9996 102.702 67.913 102.552C67.8261 102.402 67.6511 102.29 67.4811 102.326Z" fill="#F3ED99"/>
<path d="M71.1435 100.019C70.9145 99.7632 70.6679 99.5104 70.3568 99.3632C70.3141 99.3428 70.2649 99.3244 70.2207 99.3407C70.1865 99.5337 70.2446 99.7336 70.3426 99.9036C70.4405 100.073 70.5763 100.218 70.7108 100.361C70.8232 100.481 70.9356 100.6 71.0477 100.719C71.1467 100.824 71.2715 100.939 71.4139 100.915C71.5031 100.772 71.4944 100.586 71.4307 100.43C71.3673 100.275 71.2557 100.145 71.1435 100.019Z" fill="#F3ED99"/>
<path d="M72.0527 102.13C72.1188 101.837 71.9696 101.541 71.7977 101.294C71.7487 101.224 71.6655 101.147 71.5903 101.188C71.4581 101.477 71.4631 101.824 71.604 102.109C71.6363 102.175 71.6774 102.239 71.7379 102.281C71.7987 102.323 71.8824 102.337 71.9467 102.301C72.0072 102.267 72.0377 102.198 72.0527 102.13Z" fill="#F3ED99"/>
<path d="M68.0618 106.634C68.3755 106.629 68.5616 106.29 68.6677 105.997C69.2536 104.373 69.4445 102.61 69.2197 100.899C69.1094 100.062 68.857 99.1681 68.1752 98.6651C68.3689 100.464 68.4426 102.276 68.3955 104.084C68.3868 104.416 68.3742 104.747 68.3563 105.078C68.3276 105.608 68.2823 106.151 68.0618 106.634Z" fill="#DC7029"/>
<path d="M43.5324 47.7327C40.8091 54.0939 39.2527 61.0101 36.8224 67.5216C34.392 74.0329 30.8572 80.3804 25.4212 83.8583C24.328 84.5577 23.1172 85.1431 21.8631 85.0709C21.8506 85.0701 21.838 85.0693 21.8254 85.0685C20.1575 84.9504 19.4007 82.932 20.5278 81.7027C21.6431 80.4862 22.2465 78.5402 22.6653 76.7702C23.9561 71.3123 24.9521 65.7521 26.6391 60.4346C28.3264 55.1168 30.7709 49.9739 34.4931 46.2097C38.2151 42.4455 43.3592 40.2153 48.2683 41.2343C46.0341 42.5647 44.6332 45.1612 43.5324 47.7327Z" fill="#D34B20"/>
<path d="M45.8425 41.2663C41.9857 41.2663 37.9216 43.1392 34.6927 46.4049C31.4142 49.7201 28.8673 54.3367 26.906 60.5184C25.7268 64.235 24.8708 68.1414 24.043 71.9192C23.6892 73.5326 23.3239 75.2009 22.9374 76.8339C22.5437 78.4991 21.9373 80.5787 20.7344 81.8906C20.2745 82.3924 20.1467 83.0979 20.4014 83.732C20.6488 84.3481 21.1886 84.744 21.8454 84.7906L21.8803 84.7932C23.1541 84.8631 24.4399 84.1551 25.2701 83.6241C29.9057 80.6581 33.5987 75.3594 36.5602 67.4247C37.596 64.6494 38.4883 61.7491 39.3514 58.9444C40.5109 55.176 41.7099 51.2795 43.275 47.6235C44.1908 45.4844 45.4871 42.9032 47.5355 41.3878C46.9788 41.3071 46.4118 41.2663 45.8425 41.2663ZM22.0746 85.3553C21.9988 85.3553 21.9231 85.3533 21.847 85.3491L21.8025 85.3459C20.9428 85.2851 20.2056 84.7458 19.8817 83.9387C19.5468 83.1044 19.7153 82.1758 20.3211 81.5149C21.437 80.2979 22.0146 78.3058 22.3928 76.7066C22.7779 75.0781 23.143 73.4118 23.496 71.8006C24.3267 68.0104 25.1854 64.0917 26.3725 60.3505C28.3609 54.0831 30.952 49.3937 34.2936 46.0146C37.6273 42.6428 41.8368 40.7094 45.8425 40.7094C46.6824 40.7094 47.5179 40.7942 48.3254 40.9619C48.4381 40.9852 48.525 41.075 48.5442 41.1882C48.5634 41.3011 48.5107 41.4145 48.412 41.4735C46.1568 42.8162 44.7572 45.5821 43.7899 47.842C42.2363 51.4707 41.0418 55.3531 39.8863 59.1076C39.0211 61.9199 38.1261 64.828 37.0848 67.6185C34.0794 75.6703 30.314 81.0591 25.5726 84.0927C24.7252 84.6347 23.4405 85.3553 22.0746 85.3553Z" fill="#292625"/>
<path d="M76.9352 47.7327C79.6583 54.0939 81.2149 61.0101 83.6453 67.5216C86.0753 74.0329 89.6104 80.3804 95.0465 83.8583C96.1396 84.5577 97.3504 85.1431 98.6044 85.0709C98.6171 85.0701 98.6294 85.0693 98.6421 85.0685C100.31 84.9504 101.067 82.932 99.9398 81.7027C98.8245 80.4862 98.2212 78.5402 97.8024 76.7702C96.5116 71.3123 95.5155 65.7521 93.8283 60.4346C92.1413 55.1168 89.6967 49.9739 85.9745 46.2097C82.2526 42.4455 77.1084 40.2153 72.1993 41.2343C74.4333 42.5647 75.8344 45.1612 76.9352 47.7327Z" fill="#D34B20"/>
<path d="M72.9321 41.3878C74.98 42.9029 76.2769 45.4844 77.1926 47.6235C78.7578 51.2795 79.9565 55.176 81.1162 58.9441C81.9793 61.7491 82.8717 64.6491 83.9074 67.4247C86.8689 75.3594 90.5619 80.6581 95.1975 83.6241C96.0277 84.1551 97.2999 84.8686 98.5884 84.7929L98.6194 84.7908C99.2791 84.744 99.8187 84.3481 100.066 83.732C100.321 83.0979 100.193 82.3924 99.7331 81.8906C98.5299 80.5782 97.9237 78.4988 97.5302 76.8339C97.1438 75.2004 96.7779 73.5313 96.4241 71.9171C95.5963 68.1401 94.7406 64.2344 93.5616 60.5184C91.6003 54.337 89.0534 49.7204 85.775 46.4049C82.0691 42.657 77.259 40.7594 72.9321 41.3878ZM98.3928 85.3553C97.0269 85.3553 95.7424 84.6347 94.8951 84.0927C90.1539 81.0591 86.3883 75.6703 83.3828 67.6185C82.3413 64.828 81.4466 61.9196 80.5811 59.1073C79.4258 55.3528 78.2313 51.4707 76.6778 47.842C75.7104 45.5821 74.3106 42.8162 72.0556 41.4735C71.9569 41.4145 71.9043 41.3011 71.9235 41.1882C71.9427 41.075 72.0296 40.9852 72.1422 40.9619C72.9498 40.7942 73.7852 40.7094 74.6252 40.7094C78.6309 40.7094 82.8403 42.6428 86.174 46.0146C89.5156 49.394 92.1068 54.0834 94.0952 60.3505C95.282 64.0909 96.1407 68.0091 96.9711 71.7985C97.3241 73.4105 97.6895 75.0773 98.0748 76.7066C98.4531 78.3058 99.0303 80.2976 100.146 81.5149C100.752 82.1758 100.921 83.1044 100.586 83.9387C100.262 84.7458 99.5246 85.2851 98.6621 85.3462L98.6228 85.3488C98.5447 85.3533 98.4689 85.3553 98.3928 85.3553Z" fill="#292625"/>
<path d="M24.2846 100.377C24.1301 100.377 24.0048 100.252 24.0048 100.098V84.5018C24.0048 84.348 24.1301 84.2234 24.2846 84.2234C24.4391 84.2234 24.5644 84.348 24.5644 84.5018V100.098C24.5644 100.252 24.4391 100.377 24.2846 100.377Z" fill="#292625"/>
<path d="M95.0465 95.4052C94.892 95.4052 94.7667 95.2805 94.7667 95.1267V83.8582C94.7667 83.7044 94.892 83.5798 95.0465 83.5798C95.201 83.5798 95.3263 83.7044 95.3263 83.8582V95.1267C95.3263 95.2805 95.201 95.4052 95.0465 95.4052Z" fill="#292625"/>
<path d="M30.5622 98.5492C30.5622 102 27.7518 104.796 24.2846 104.796C20.8177 104.796 18.0072 102 18.0072 98.5492C18.0072 95.0991 20.8177 92.302 24.2846 92.302C27.7518 92.302 30.5622 95.0991 30.5622 98.5492Z" fill="#F68A14"/>
<path d="M24.2846 92.5807C20.9775 92.5807 18.287 95.2581 18.287 98.5492C18.287 101.841 20.9775 104.518 24.2846 104.518C27.5917 104.518 30.2824 101.841 30.2824 98.5492C30.2824 95.2581 27.5917 92.5807 24.2846 92.5807ZM24.2846 105.075C20.6689 105.075 17.7273 102.148 17.7273 98.5492C17.7273 94.9511 20.6689 92.0238 24.2846 92.0238C27.9005 92.0238 30.842 94.9511 30.842 98.5492C30.842 102.148 27.9005 105.075 24.2846 105.075Z" fill="#292625"/>
<path d="M101.35 99.315C101.35 102.141 99.0485 104.431 96.2089 104.431C93.3695 104.431 91.0676 102.141 91.0676 99.315C91.0676 96.4891 93.3695 94.1984 96.2089 94.1984C99.0485 94.1984 101.35 96.4891 101.35 99.315Z" fill="#F68A14"/>
<path d="M96.2089 94.4768C93.5282 94.4768 91.3475 96.6473 91.3475 99.3147C91.3475 101.983 93.5282 104.153 96.2089 104.153C98.8895 104.153 101.07 101.983 101.07 99.3147C101.07 96.6473 98.8895 94.4768 96.2089 94.4768ZM96.2089 104.71C93.2197 104.71 90.7878 102.29 90.7878 99.3147C90.7878 96.34 93.2197 93.9199 96.2089 93.9199C99.1983 93.9199 101.63 96.34 101.63 99.3147C101.63 102.29 99.1983 104.71 96.2089 104.71Z" fill="#292625"/>
<path d="M92.0031 99.046C91.941 99.7525 92.1453 100.479 92.5667 101.051C92.9881 101.623 93.623 102.035 94.3187 102.189C93.1574 101.147 92.4772 99.5937 92.5014 98.038C92.1724 98.2465 92.0371 98.6594 92.0031 99.046Z" fill="#F3ED99"/>
<path d="M94.6995 96.4289C94.4397 96.5934 94.1773 96.7603 93.9643 96.9816C93.4763 97.4893 93.3084 98.2138 93.1599 98.9006C93.0412 98.4139 92.9886 97.901 93.0986 97.412C93.2086 96.9229 93.4976 96.4593 93.9375 96.2154C94.1275 96.1101 94.3389 96.0483 94.5508 95.9998C94.9769 95.9026 95.4149 95.8563 95.8522 95.8618C95.6574 95.8301 95.471 95.9398 95.3047 96.0454C95.1028 96.1732 94.9011 96.3011 94.6995 96.4289Z" fill="#F3ED99"/>
<path d="M98.7434 96.7103C99.0201 97.1811 99.0609 97.7479 99.0951 98.2922C98.9245 97.613 98.4494 97.0158 97.8242 96.6946C97.1994 96.3735 96.4347 96.3336 95.7795 96.5885C96.117 96.1097 96.7077 95.8192 97.2949 95.8433C97.8822 95.8674 98.447 96.2053 98.7434 96.7103Z" fill="#F3ED99"/>
<path d="M93.5872 100.319C93.6322 100.522 93.7017 100.723 93.8248 100.891C94.1378 101.317 94.7272 101.447 95.0941 101.828C94.6766 101.349 94.4055 100.734 94.3889 100.1C94.3708 99.3942 94.6682 98.7014 95.1281 98.1633C95.5876 97.6253 96.1999 97.2321 96.849 96.9469C95.9375 96.7821 94.9522 97.0988 94.31 97.7631C93.6674 98.4271 93.3871 99.4191 93.5872 100.319Z" fill="#F3ED99"/>
<path d="M98.1606 97.9691C97.9508 97.8036 97.7305 97.6333 97.4686 97.5785C97.8282 98.0168 98.0432 98.5844 97.9993 99.1484C97.9553 99.7126 97.6323 100.262 97.1285 100.524C97.5965 100.531 98.063 100.312 98.3549 99.9476C98.6471 99.5835 98.7584 99.0824 98.6481 98.6297C98.6239 98.5302 98.5892 98.4328 98.536 98.3453C98.4436 98.1931 98.3007 98.0794 98.1606 97.9691Z" fill="#D56B1C"/>
<path d="M100.042 99.7737C100.083 99.3294 99.905 98.8817 99.6157 98.541C99.7147 99.1806 99.5823 99.8531 99.2485 100.408C98.9145 100.964 98.3815 101.398 97.7684 101.613C98.3575 101.666 99.0319 101.641 99.4267 101.202C99.5626 101.052 99.6505 100.865 99.7365 100.682C99.8729 100.391 100.011 100.093 100.042 99.7737Z" fill="#D56B1C"/>
<path d="M98.3267 100.657C97.8024 100.848 97.2478 101.042 96.6979 100.946C96.1435 100.849 95.679 100.466 95.3276 100.029C95.2957 100.383 95.3086 100.741 95.366 101.092C95.3844 101.205 95.4081 101.319 95.4615 101.42C95.5905 101.663 95.8716 101.79 96.1449 101.829C96.575 101.889 97.018 101.768 97.3904 101.546C97.7626 101.324 98.069 101.005 98.3267 100.657Z" fill="#D56B1C"/>
<path d="M94.8027 102.522C95.0125 102.893 95.3968 103.152 95.8129 103.25C96.2294 103.349 96.6732 103.297 97.0735 103.146C97.5713 102.959 98.0419 102.567 98.1098 102.042C96.8877 102.436 95.5066 102.315 94.3721 101.715C94.5879 101.933 94.6516 102.255 94.8027 102.522Z" fill="#D56B1C"/>
<path d="M18.8263 98.5213C18.7425 99.475 19.0182 100.456 19.5872 101.228C20.1561 102 21.0134 102.557 21.9526 102.764C20.3847 101.358 19.4665 99.2607 19.499 97.1604C19.0548 97.4418 18.8722 97.9992 18.8263 98.5213Z" fill="#F3ED99"/>
<path d="M22.4671 94.9876C22.1162 95.21 21.7619 95.4353 21.4746 95.7341C20.8157 96.4197 20.5889 97.3978 20.3884 98.3251C20.228 97.6678 20.157 96.9753 20.3056 96.3151C20.4541 95.655 20.8443 95.0287 21.4383 94.6994C21.6949 94.5575 21.9801 94.4739 22.2662 94.4087C22.8416 94.2774 23.4328 94.2146 24.023 94.2222C23.7603 94.1792 23.5084 94.3277 23.2839 94.47C23.0117 94.6426 22.7393 94.8152 22.4671 94.9876Z" fill="#F3ED99"/>
<path d="M27.9268 95.3678C28.3001 96.0032 28.3553 96.7687 28.4017 97.5034C28.1711 96.5863 27.5296 95.7801 26.6857 95.3463C25.8418 94.9127 24.8097 94.8593 23.925 95.2035C24.3807 94.5568 25.1782 94.1644 25.9711 94.1971C26.7639 94.2296 27.5264 94.6859 27.9268 95.3678Z" fill="#F3ED99"/>
<path d="M20.9651 100.24C21.0259 100.514 21.1198 100.786 21.286 101.012C21.7087 101.587 22.5045 101.763 22.9998 102.277C22.436 101.631 22.0701 100.801 22.0478 99.9448C22.023 98.9916 22.425 98.0562 23.0454 97.3295C23.666 96.6032 24.4926 96.0724 25.3691 95.6874C24.1385 95.465 22.8082 95.8925 21.9409 96.7891C21.0735 97.6858 20.6948 99.0249 20.9651 100.24Z" fill="#F3ED99"/>
<path d="M27.14 97.0675C26.8565 96.8441 26.5594 96.6141 26.2056 96.5402C26.691 97.132 26.9816 97.8982 26.9221 98.6597C26.8626 99.4212 26.4264 100.163 25.7463 100.517C26.3783 100.526 27.0079 100.23 27.4022 99.7386C27.7965 99.247 27.9471 98.5706 27.7978 97.9592C27.7652 97.8251 27.7186 97.6933 27.6467 97.5752C27.522 97.3698 27.329 97.2163 27.14 97.0675Z" fill="#D56B1C"/>
<path d="M29.6793 99.5039C29.7357 98.904 29.4951 98.2994 29.1042 97.8394C29.2379 98.7028 29.0594 99.611 28.6085 100.361C28.1576 101.11 27.438 101.696 26.6102 101.987C27.4059 102.058 28.3161 102.025 28.8491 101.433C29.0326 101.229 29.1513 100.977 29.2677 100.73C29.4519 100.337 29.6385 99.935 29.6793 99.5039Z" fill="#D56B1C"/>
<path d="M27.3643 100.697C26.6562 100.955 25.9073 101.216 25.165 101.086C24.4164 100.955 23.7892 100.438 23.3146 99.8478C23.272 100.326 23.2893 100.81 23.3667 101.284C23.3917 101.437 23.4236 101.59 23.4957 101.727C23.6697 102.055 24.0495 102.227 24.4185 102.278C24.999 102.36 25.5973 102.197 26.1 101.896C26.6025 101.596 27.0163 101.166 27.3643 100.697Z" fill="#D56B1C"/>
<path d="M22.606 103.215C22.8895 103.716 23.4083 104.064 23.9703 104.198C24.5323 104.331 25.1316 104.26 25.672 104.057C26.344 103.804 26.9797 103.275 27.071 102.566C25.4212 103.098 23.5565 102.935 22.0251 102.125C22.3162 102.42 22.4023 102.854 22.606 103.215Z" fill="#D56B1C"/>
<path d="M38.2403 57.7648C39.6836 52.6489 41.8683 47.7411 44.7056 43.24C44.8775 42.9673 45.0572 42.6805 45.0775 42.3591C45.0978 42.0376 44.8951 41.6772 44.5732 41.6429C41.4474 45.0859 39.185 49.2996 38.0461 53.7991C37.7115 55.1207 37.4991 56.6187 38.2403 57.7648Z" fill="#F68A14"/>
<path d="M21.7223 83.4632C21.9504 83.6733 22.3133 83.5973 22.6074 83.4972C23.859 83.0716 25.0377 82.4453 26.1195 81.6882C29.1021 79.6008 31.3034 76.5559 32.8949 73.2912C34.4866 70.0265 35.5118 66.523 36.5299 63.0388C36.9924 61.4561 37.4444 59.7029 36.7368 58.2124C35.6892 62.9262 34.6237 67.6918 32.4866 72.0255C30.3492 76.3592 27.0013 80.2863 22.5308 82.1605C22.247 82.2794 21.9477 82.3984 21.7486 82.632C21.5495 82.8657 21.4964 83.2552 21.7223 83.4632Z" fill="#F68A14"/>
<path d="M83.4787 59.8061C83.9904 60.9165 84.5495 62.0832 85.57 62.7622C85.0314 56.4875 81.8088 50.7943 78.5801 45.378C77.7399 43.9687 76.7776 42.4636 75.2283 41.9085C77.9784 47.8744 80.7286 53.8402 83.4787 59.8061Z" fill="#F68A14"/>
<path d="M84.132 63.8017C85.3599 67.7317 87.0187 71.5572 89.383 74.9337C91.7472 78.3102 94.844 81.2307 98.5462 83.0643C98.7895 82.5973 98.6234 82.0048 98.2922 81.5948C97.9614 81.1846 97.4934 80.9119 97.049 80.6269C92.2194 77.5294 89.343 72.2396 86.7447 67.1397C86.094 65.8627 85.3817 64.5116 84.132 63.8017Z" fill="#F68A14"/>
<path d="M44.614 23.5938C43.5263 23.8282 42.4163 24.0899 41.4869 24.6987C40.5575 25.3077 39.8312 26.3414 39.896 27.4468C50.5007 23.2614 62.3504 22.985 73.5965 24.8923C77.0524 25.4783 80.6106 26.3275 83.3299 28.5292C82.8396 27.0403 81.6877 25.8324 80.3503 25.006C79.0126 24.1795 77.4912 23.6981 75.9684 23.2994C65.7657 20.6275 54.9246 21.3696 44.614 23.5938Z" fill="#F3ED99"/>
<path d="M33.0114 42.502C33.004 42.6721 33.0217 42.8837 33.1793 42.9497C33.3457 43.0194 33.5162 42.8643 33.6207 42.7182C34.1793 41.9381 34.4286 40.9448 34.3049 39.9949C34.2659 39.6963 34.1846 39.3888 33.9795 39.1672C33.7745 38.9458 33.4175 38.8413 33.1596 38.9985C33.1101 40.1663 33.0606 41.334 33.0114 42.502Z" fill="#F3ED99"/>
<path d="M35.9314 39.3885C35.9459 39.6701 35.9809 39.9598 36.1193 40.2061C36.2578 40.4523 36.5215 40.6469 36.8045 40.6288C37.2512 40.6003 37.5002 40.1055 37.6055 39.6725C37.7076 39.2515 37.7616 38.819 37.7653 38.386C37.7684 38.0431 37.7358 37.6861 37.56 37.3914C37.3839 37.0967 37.0304 36.884 36.6955 36.965C36.2533 37.0718 36.0667 37.59 35.9988 38.0379C35.9309 38.4843 35.9082 38.9374 35.9314 39.3885Z" fill="#F3ED99"/>
<path d="M41.2908 38.6433C41.4888 38.5401 41.593 38.3211 41.6725 38.1134C42.0049 37.2461 42.1465 36.307 42.0847 35.3808C42.0605 35.0166 41.9523 34.5865 41.6056 34.4676C41.2397 34.3419 40.8762 34.6515 40.6362 34.9535C40.2166 35.4811 39.8697 36.0927 39.7973 36.7617C39.7249 37.4305 39.9734 38.1619 40.5359 38.5349C40.7583 38.6821 41.0544 38.7667 41.2908 38.6433Z" fill="#F3ED99"/>
<path d="M45.4042 34.2899C45.3281 34.7646 45.2865 35.2445 45.2802 35.7249C45.2741 36.1872 45.3065 36.671 45.5424 37.0695C45.7785 37.4679 46.2733 37.7487 46.7147 37.6033C47.2036 37.4425 47.4115 36.8678 47.4641 36.358C47.5331 35.6919 47.4494 35.0108 47.2209 34.3808C47.1091 34.0728 46.9543 33.7658 46.6929 33.567C46.4315 33.3681 46.0414 33.3071 45.7743 33.4983C45.5303 33.6731 45.4516 33.9947 45.4042 34.2899Z" fill="#F3ED99"/>
<path d="M51.6644 32.9174C51.2398 33.6994 51.1372 34.6487 51.3851 35.5026C51.5436 36.0483 51.9355 36.6146 52.5054 36.6416C53.1227 36.6709 53.5754 36.0564 53.7565 35.4683C53.9531 34.8302 53.9755 34.1397 53.8207 33.4901C53.7368 33.1383 53.5951 32.788 53.3364 32.534C53.0779 32.2801 52.6841 32.1402 52.3393 32.255C52.0324 32.3571 51.8184 32.6338 51.6644 32.9174Z" fill="#F3ED99"/>
<path d="M60.2838 34.6208C60.516 33.8341 60.5807 32.8833 60.0098 32.2918C59.7066 31.9777 59.2709 31.8232 58.8398 31.7483C58.4378 31.6786 57.9785 31.6854 57.6795 31.9615C57.3986 32.2205 57.3431 32.6391 57.3436 33.0203C57.3447 33.7168 57.476 34.4131 57.7287 35.0627C57.8959 35.4928 58.1609 35.941 58.6047 36.0725C59.0011 36.1899 59.4412 36.0088 59.7263 35.7105C60.0114 35.4124 60.1672 35.0158 60.2838 34.6208Z" fill="#F3ED99"/>
<path d="M86.2794 42.9801C86.2228 42.3176 86.1999 41.6523 86.211 40.9877C86.216 40.6896 86.2312 40.3784 86.3792 40.1191C86.5268 39.86 86.849 39.6743 87.1299 39.7775C87.302 39.8406 87.4223 39.9939 87.526 40.1445C87.9377 40.743 88.2364 41.4181 88.402 42.1246C88.532 42.6794 88.5723 43.2926 88.2954 43.7908C88.0182 44.2893 87.3315 44.5898 86.8448 44.2898C86.4228 44.03 86.3215 43.472 86.2794 42.9801Z" fill="#F3ED99"/>
<path d="M84.0761 38.0264C83.9877 37.633 83.8498 37.2264 83.5431 36.9626C83.2365 36.6991 82.7174 36.6451 82.4465 36.9451C82.3104 37.0959 82.2596 37.3037 82.2236 37.5033C82.0954 38.2103 82.0888 38.9388 82.2044 39.6479C82.2654 40.0232 82.3678 40.4078 82.6153 40.6977C82.8624 40.9877 83.2883 41.1559 83.64 41.0063C84.0753 40.8214 84.2062 40.2744 84.2293 39.8037C84.2585 39.208 84.2067 38.6084 84.0761 38.0264Z" fill="#F3ED99"/>
<path d="M80.2961 36.3227C80.2077 35.9289 80.0697 35.5224 79.7631 35.2589C79.4567 34.9951 78.9374 34.9411 78.6668 35.2413C78.5304 35.3922 78.4796 35.5997 78.4436 35.7995C78.3154 36.5065 78.3088 37.235 78.4243 37.9441C78.4854 38.3195 78.5878 38.704 78.8352 38.994C79.0824 39.284 79.5085 39.4519 79.8599 39.3026C80.2953 39.1176 80.4261 38.5707 80.4493 38.1C80.4785 37.5043 80.4267 36.9047 80.2961 36.3227Z" fill="#F3ED99"/>
<path d="M75.4265 34.7222C75.338 34.3287 75.2001 33.9222 74.8935 33.6587C74.5871 33.3949 74.0677 33.3409 73.7971 33.6409C73.6608 33.792 73.61 33.9995 73.5739 34.1993C73.4457 34.9061 73.4392 35.6348 73.5547 36.3439C73.6158 36.7193 73.7182 37.1038 73.9656 37.3938C74.2128 37.6838 74.6389 37.8517 74.9903 37.7024C75.4257 37.5172 75.5565 36.9702 75.5797 36.4997C75.6089 35.9041 75.557 35.3045 75.4265 34.7222Z" fill="#F3ED99"/>
<path d="M69.0778 33.9865C68.9894 33.593 68.8515 33.1865 68.5448 32.9227C68.2382 32.6592 67.7191 32.6052 67.4482 32.9052C67.3122 33.0563 67.2614 33.2638 67.2253 33.4636C67.0971 34.1704 67.0905 34.8991 67.2061 35.608C67.2671 35.9836 67.3695 36.3679 67.617 36.6578C67.8641 36.9478 68.29 37.116 68.6417 36.9667C69.0771 36.7815 69.2079 36.2345 69.2308 35.7641C69.2603 35.1684 69.2084 34.5685 69.0778 33.9865Z" fill="#F3ED99"/>
<path d="M29.8112 58.8393C28.8633 59.5578 27.9463 60.3801 27.4375 61.4522C26.7128 62.9794 26.9142 64.79 26.3569 66.3853C28.633 63.6159 31.6906 61.4897 35.0864 60.3151C35.3052 58.607 35.7539 56.9281 36.4165 55.3376C34.0446 56.1412 31.8046 57.3289 29.8112 58.8393Z" fill="#F68A14"/>
<path d="M87.6833 64.3425C88.3161 64.8971 89.17 65.1108 89.981 65.3408C91.7464 65.8411 93.4668 66.4997 95.1146 67.3052C93.7019 65.651 94.2315 62.8196 92.5693 61.414C92.1489 61.0587 91.6309 60.8411 91.1189 60.6375C89.2437 59.892 87.3238 59.2592 85.4607 58.4843C86.691 60.2161 86.0837 62.9408 87.6833 64.3425Z" fill="#F68A14"/>
<path d="M95.6195 57.551C95.5916 57.6828 94.5618 57.561 93.2942 57.5688C92.0275 57.6118 91.0034 57.7745 90.9702 57.644C90.9418 57.5492 91.9617 57.1908 93.2857 57.1461C94.6105 57.1379 95.6442 57.4552 95.6195 57.551Z" fill="#292625"/>
<path d="M93.2502 53.9738C93.2347 54.1066 92.4216 54.1069 91.4427 54.2478C90.4693 54.4212 89.6978 54.6764 89.6409 54.5551C89.5938 54.4668 90.3335 54.016 91.375 53.8303C92.4221 53.6797 93.2668 53.8753 93.2502 53.9738Z" fill="#292625"/>
<path d="M99.4765 71.6174C99.4526 71.6743 99.1467 71.6036 98.6671 71.4786C98.1846 71.3599 97.521 71.2075 96.778 71.0941C96.0331 70.9927 95.3531 70.9513 94.8567 70.9285C94.3613 70.9128 94.0478 70.8939 94.041 70.8326C94.0347 70.7779 94.3395 70.6909 94.8467 70.6296C95.3539 70.5751 96.0644 70.5696 96.839 70.6755C97.6119 70.7931 98.2915 70.9995 98.7621 71.1949C99.2309 71.3971 99.4984 71.5669 99.4765 71.6174Z" fill="#292625"/>
<path d="M99.931 74.9855C99.876 75.1089 98.8739 74.767 97.606 74.5043C96.3312 74.2764 95.2733 74.2203 95.2688 74.0857C95.2609 73.9872 96.3562 73.8513 97.6868 74.0891C99.0103 74.3636 99.975 74.8972 99.931 74.9855Z" fill="#292625"/>
<path d="M26.0334 52.8567C26.0187 52.7527 27.4069 52.4834 29.146 52.4501C30.8857 52.4407 32.28 52.6762 32.2678 52.7807C32.2549 52.9085 30.8628 52.8637 29.1513 52.8732C27.4401 52.9056 26.0495 52.9842 26.0334 52.8567Z" fill="#292625"/>
<path d="M26.4009 55.8174C26.3682 55.7732 26.5207 55.5984 26.8205 55.3774C27.1232 55.1626 27.5851 54.9213 28.1332 54.7594C28.6843 54.6088 29.2047 54.5708 29.5756 54.5941C29.9475 54.624 30.1697 54.6921 30.1655 54.7471C30.1615 54.8084 29.9367 54.8469 29.5875 54.893C29.2374 54.9457 28.7628 55.0266 28.25 55.1662C27.7404 55.3174 27.2945 55.4981 26.9692 55.6372C26.6483 55.7818 26.437 55.8675 26.4009 55.8174Z" fill="#292625"/>
<path d="M20.8461 72.0904C20.8023 72.0011 21.9357 71.391 23.4702 71.0091C25.0132 70.662 26.3014 70.699 26.3027 70.7982C26.3093 70.9323 25.0661 71.0838 23.5686 71.4206C22.0793 71.791 20.901 72.213 20.8461 72.0904Z" fill="#292625"/>
<path d="M20.3106 76.0405C20.2684 76.008 20.4194 75.7353 20.7471 75.3523C21.0819 74.978 21.6202 74.5201 22.3017 74.1513C22.9919 73.799 23.6755 73.6146 24.1751 73.5504C24.6776 73.497 24.989 73.5266 24.9921 73.5795C24.9974 73.6429 24.6994 73.7191 24.2356 73.8432C23.7726 73.9784 23.1488 74.195 22.5002 74.5254C21.8606 74.8722 21.3293 75.263 20.956 75.5674C20.5916 75.8786 20.3602 76.0806 20.3106 76.0405Z" fill="#292625"/>
<path d="M92.022 58.1626C92.1394 58.1626 92.2344 58.1823 92.2344 58.2064C92.2344 58.2305 92.1394 58.2499 92.022 58.2499C91.9046 58.2499 91.8093 58.2305 91.8093 58.2064C91.8093 58.1823 91.9046 58.1626 92.022 58.1626Z" fill="#292625"/>
<path d="M41.6549 86.3637C41.5583 86.3229 41.8339 85.4946 42.4495 84.6199C43.0855 83.76 43.7859 83.235 43.8557 83.3131C43.9444 83.4071 43.4021 84.045 42.7946 84.8667C42.2066 85.7021 41.7728 86.4174 41.6549 86.3637Z" fill="#292625"/>
<path d="M43.4939 90.6435C43.3915 90.6393 43.3644 89.7596 43.6803 88.7307C44.0251 87.7112 44.5613 87.0113 44.6471 87.0673C44.7603 87.1352 44.4113 87.8948 44.0849 88.8598C43.7858 89.8338 43.6255 90.6539 43.4939 90.6435Z" fill="#292625"/>
<path d="M75.4762 91.2158C75.3762 91.2771 74.7266 90.4051 74.0251 89.2685C73.3233 88.1316 72.8358 87.1609 72.9359 87.0996C73.0359 87.0385 73.6855 87.9103 74.387 89.0472C75.0888 90.1838 75.5762 91.1548 75.4762 91.2158Z" fill="#292625"/>
<path d="M78.1644 88.4201C78.0747 88.4953 77.5045 87.9667 76.8912 87.2395C76.2779 86.5124 75.8536 85.8622 75.9434 85.787C76.0334 85.7118 76.6035 86.2404 77.2168 86.9676C77.8302 87.6948 78.2545 88.3449 78.1644 88.4201Z" fill="#292625"/>
<path d="M46.2636 78.6379C46.2091 78.6266 46.2062 78.3887 46.2783 78.0139C46.3557 77.6414 46.5274 77.1374 46.8085 76.6248C47.0985 76.1171 47.4384 75.7067 47.7158 75.445C47.998 75.1867 48.2028 75.0636 48.2412 75.1039C48.2841 75.1479 48.1562 75.3446 47.9432 75.6404C47.734 75.9408 47.4531 76.3529 47.1799 76.8307C46.9156 77.3134 46.7116 77.7682 46.565 78.1032C46.4244 78.4393 46.3236 78.651 46.2636 78.6379Z" fill="#292625"/>
<path d="M48.91 79.949C48.8034 79.9476 48.735 79.2469 48.9393 78.4126C49.1646 77.5841 49.5641 77.0028 49.6581 77.0528C49.7724 77.1105 49.5623 77.7399 49.3507 78.5179C49.159 79.3012 49.038 79.9534 48.91 79.949Z" fill="#292625"/>
<path d="M76.7976 78.7696C76.7368 78.7872 76.5807 78.4351 76.3341 77.8769C76.0777 77.3213 75.7013 76.5701 75.2065 75.7853C74.6969 75.0096 74.1686 74.355 73.7688 73.8908C73.3623 73.4345 73.1062 73.1464 73.1475 73.0985C73.1823 73.0576 73.5108 73.2674 73.9838 73.6821C74.4494 74.1033 75.0364 74.7527 75.5642 75.5571C76.0777 76.3707 76.4249 77.1728 76.6147 77.7698C76.7955 78.371 76.8498 78.7555 76.7976 78.7696Z" fill="#292625"/>
<path d="M78.503 76.1528C78.4472 76.1775 78.32 76.0216 78.1421 75.7686C77.9591 75.5174 77.712 75.1755 77.4148 74.8166C77.111 74.4633 76.8154 74.162 76.5983 73.9394C76.3788 73.7212 76.2464 73.5695 76.2803 73.519C76.3111 73.4723 76.5056 73.5376 76.786 73.7057C77.0629 73.8778 77.4151 74.166 77.7401 74.5447C78.0589 74.9288 78.2832 75.324 78.4056 75.625C78.5237 75.9289 78.5546 76.1308 78.503 76.1528Z" fill="#292625"/>
<path d="M73.153 81.7694C73.0411 81.8043 72.784 81.3013 72.5789 80.6464C72.3739 79.9913 72.2986 79.432 72.4104 79.3975C72.5226 79.3626 72.7797 79.8656 72.9848 80.5204C73.1896 81.1756 73.2651 81.7348 73.153 81.7694Z" fill="#292625"/>
<path d="M71.3062 95.015C71.1746 94.9945 71.2215 94.0887 71.1528 92.9838C71.0535 91.8815 70.8703 90.993 70.9972 90.9532C71.0927 90.9189 71.472 91.7925 71.5765 92.9519C71.6487 94.1139 71.406 95.0343 71.3062 95.015Z" fill="#292625"/>
<path d="M75.8766 65.6699C75.9024 65.7147 75.5386 65.974 74.8905 66.2943C74.2375 66.6013 73.2817 66.9259 72.1846 67.0894C71.0841 67.229 70.0754 67.1753 69.3631 67.0566C68.6522 66.9235 68.2313 66.7724 68.2437 66.7226C68.2579 66.659 68.6985 66.7053 69.3974 66.7596C70.0999 66.7996 71.0675 66.8041 72.1262 66.6705C73.1814 66.5125 74.1117 66.2464 74.7763 66.0177C75.4344 65.7762 75.8455 65.6125 75.8766 65.6699Z" fill="#292625"/>
<path d="M78.524 66.4762C78.5583 66.5191 78.4006 66.7075 78.0892 66.9511C77.7746 67.1881 77.293 67.4595 76.7178 67.6515C76.1387 67.832 75.5886 67.893 75.1943 67.8849C74.7984 67.8692 74.5597 67.8087 74.562 67.7539C74.5639 67.6921 74.8013 67.6463 75.1717 67.5866C75.5425 67.5198 76.0456 67.4171 76.5867 67.2492C77.124 67.0692 77.5917 66.8586 77.9315 66.6965C78.2666 66.5285 78.4861 66.4272 78.524 66.4762Z" fill="#292625"/>
<path d="M49.5589 66.4717C49.5726 66.5217 49.2241 66.6629 48.6279 66.7832C48.0306 66.8898 47.1799 66.9299 46.2575 66.7834C45.3392 66.6145 44.5508 66.2933 44.0238 65.9939C43.5024 65.6822 43.2215 65.4328 43.2513 65.3904C43.2868 65.3362 43.6224 65.4933 44.1565 65.7257C44.6982 65.9465 45.4587 66.2053 46.3297 66.3664C47.2049 66.5047 48.0085 66.5139 48.5931 66.4861C49.1746 66.445 49.5436 66.4086 49.5589 66.4717Z" fill="#292625"/>
<path d="M47.7129 68.5534C47.7129 68.6702 47.0649 68.7648 46.2652 68.7648C45.4658 68.7648 44.8175 68.6702 44.8175 68.5534C44.8175 68.4365 45.4658 68.3417 46.2652 68.3417C47.0649 68.3417 47.7129 68.4365 47.7129 68.5534Z" fill="#292625"/>
<path d="M78.7722 18.5194C78.7996 18.5752 78.6225 18.7198 78.344 18.9343C78.0686 19.1562 77.7028 19.4682 77.3406 19.8559C76.9881 20.2522 76.7115 20.6446 76.5162 20.939C76.3285 21.2356 76.2011 21.425 76.1426 21.4032C76.0911 21.3849 76.1197 21.1541 76.2487 20.8031C76.384 20.456 76.6436 20.0005 77.0258 19.5717C77.4177 19.1512 77.8483 18.8503 78.1821 18.6824C78.5209 18.5207 78.7488 18.4699 78.7722 18.5194Z" fill="#292625"/>
<path d="M81.9286 21.4226C81.9181 21.4865 81.6685 21.4993 81.2921 21.536C80.9131 21.5865 80.4053 21.7021 79.8833 21.9402C79.3714 22.199 78.965 22.5233 78.6896 22.7873C78.4267 23.0579 78.2614 23.2444 78.2048 23.213C78.1585 23.1897 78.2327 22.9434 78.4596 22.5948C78.6967 22.2558 79.1242 21.8475 79.6986 21.5596C80.2821 21.2908 80.8691 21.2112 81.2837 21.2371C81.6988 21.2769 81.9391 21.372 81.9286 21.4226Z" fill="#292625"/>
<path d="M42.1852 23.4982C42.1391 23.6056 41.2766 23.3408 40.2589 22.9067C39.2413 22.4727 38.454 22.0339 38.5001 21.9265C38.5464 21.8191 39.4087 22.0839 40.4263 22.518C41.444 22.952 42.2315 23.3908 42.1852 23.4982Z" fill="#292625"/>
<path d="M43.7638 21.9281C43.7114 22.0327 43.1973 21.8828 42.6159 21.5934C42.0344 21.3039 41.6056 20.9849 41.658 20.8803C41.7107 20.7758 42.2245 20.9257 42.8059 21.2151C43.3876 21.5046 43.8164 21.8236 43.7638 21.9281Z" fill="#292625"/>
<path d="M40.3193 30.1234C40.3106 30.1515 40.2093 30.1562 40.0361 30.1415C39.9495 30.1342 39.845 30.1221 39.725 30.1054C39.6044 30.0915 39.471 30.0585 39.3172 30.0606C38.7113 30.0129 37.8753 30.015 36.9701 30.1821C36.0707 30.3781 35.2997 30.6992 34.7598 30.9774C34.6174 31.035 34.5071 31.1168 34.4016 31.1765C34.2976 31.2383 34.206 31.2899 34.1289 31.33C33.9752 31.4104 33.8799 31.4452 33.8609 31.4227C33.8422 31.4005 33.9017 31.3227 34.0281 31.1995C34.0912 31.138 34.1713 31.0649 34.266 30.9821C34.3624 30.9017 34.4658 30.799 34.604 30.7215C35.1265 30.3637 35.9304 29.9744 36.8859 29.7677C37.8469 29.5888 38.74 29.6368 39.3609 29.7646C39.5183 29.7824 39.6539 29.8371 39.7742 29.8741C39.894 29.9136 39.9958 29.95 40.0782 29.9823C40.2427 30.047 40.328 30.0957 40.3193 30.1234Z" fill="#292625"/>
<path d="M59.0315 25.5939C59.0123 25.7091 58.2895 25.685 57.4174 25.5404C56.5451 25.3958 55.8536 25.1852 55.8728 25.07C55.8923 24.9547 56.6149 24.9786 57.4872 25.1231C58.3595 25.268 59.051 25.4786 59.0315 25.5939Z" fill="#292625"/>
<path d="M61.1253 24.585C61.0916 24.6969 60.4751 24.6107 59.7486 24.3928C59.0219 24.1748 58.4604 23.9074 58.4944 23.7955C58.5281 23.6837 59.1445 23.7699 59.8713 23.9878C60.5978 24.2057 61.1592 24.4732 61.1253 24.585Z" fill="#292625"/>
<path d="M78.5472 29.9791C78.4909 30.0815 77.6817 29.7497 76.7399 29.2375C75.7981 28.7257 75.0803 28.2275 75.1366 28.125C75.1927 28.0226 76.0019 28.3545 76.9437 28.8664C77.8855 29.3785 78.6035 29.8767 78.5472 29.9791Z" fill="#292625"/>
<path d="M81.4052 29.2611C81.3681 29.3719 80.8077 29.2857 80.1536 29.0688C79.4995 28.8517 78.9991 28.5861 79.0362 28.4753C79.0734 28.3645 79.6338 28.4504 80.2881 28.6675C80.9422 28.8844 81.4423 29.1503 81.4052 29.2611Z" fill="#292625"/>
<path d="M67.652 16.8447C67.7144 16.9437 67.0026 17.4991 66.0624 18.085C65.1222 18.6713 64.3093 19.066 64.2469 18.9673C64.1848 18.8683 64.8963 18.3129 65.8368 17.7267C66.777 17.1407 67.5896 16.7457 67.652 16.8447Z" fill="#292625"/>
</g>
<defs>
<clipPath id="clip0_1885_13079">
<rect width="90" height="97" fill="white" transform="translate(15 12.5)"/>
</clipPath>
</defs>
</svg>
