<svg width="47" height="31" viewBox="0 0 47 31" fill="none" xmlns="http://www.w3.org/2000/svg">
<rect x="0.28" y="0.28" width="46.44" height="30.44" rx="15.22" fill="#1E1E1E"/>
<rect x="0.28" y="0.28" width="46.44" height="30.44" rx="15.22" stroke="white" stroke-width="0.56"/>
<path d="M33.3913 15.5001C33.3913 20.9633 28.9626 25.392 23.4991 25.392C18.0361 25.392 13.6074 20.9633 13.6074 15.5001C13.6074 10.0371 18.0361 5.60786 23.4991 5.60786C28.9626 5.60786 33.3913 10.0371 33.3913 15.5001Z" fill="#EFEFEF"/>
<path d="M31.324 15.5002C31.324 19.8213 27.8208 23.3245 23.4994 23.3245C19.178 23.3245 15.6748 19.8213 15.6748 15.5002C15.6748 11.1788 19.178 7.6756 23.4994 7.6756C27.8208 7.6756 31.324 11.1788 31.324 15.5002Z" fill="white"/>
<path d="M22.6761 19.2727C22.5396 19.2727 22.4287 19.3835 22.4287 19.5201V20.5855C22.4287 20.722 22.5396 20.8329 22.6761 20.8329C22.8127 20.8329 22.9235 20.722 22.9235 20.5855V19.5201C22.9235 19.3835 22.8127 19.2727 22.6761 19.2727Z" fill="white"/>
<path d="M24.3236 19.2727C24.187 19.2727 24.0762 19.3835 24.0762 19.5201V20.5855C24.0762 20.722 24.187 20.8329 24.3236 20.8329C24.4602 20.8329 24.571 20.722 24.571 20.5855V19.5201C24.571 19.3835 24.4602 19.2727 24.3236 19.2727Z" fill="white"/>
<path d="M24.145 18.0999H22.8545V17.5551C22.8545 17.1988 23.1435 16.9099 23.4997 16.9099C23.856 16.9099 24.145 17.1988 24.145 17.5551V18.0999Z" fill="white"/>
<path d="M16.6894 8.32615C16.5696 8.43945 16.4525 8.556 16.3387 8.67524C16.3387 8.67578 16.3392 8.67632 16.3392 8.67632L17.0077 9.34429C17.0557 9.39285 17.1189 9.41713 17.1825 9.41713C17.2456 9.41713 17.3093 9.39285 17.3579 9.34429C17.4539 9.24771 17.4539 9.09124 17.3579 8.99466L16.6894 8.32615ZM17.0077 21.6284L16.3392 22.2964C16.3349 22.3013 16.3311 22.3067 16.3268 22.3117C16.439 22.4305 16.555 22.5462 16.6732 22.6595C16.6786 22.6546 16.684 22.6511 16.6894 22.6462L17.3579 21.9782C17.4539 21.8812 17.4539 21.7248 17.3579 21.6284C17.2608 21.5314 17.1043 21.5314 17.0077 21.6284ZM23.4991 24.1722C23.3626 24.1722 23.252 24.2831 23.252 24.4196V25.3642C23.252 25.3726 23.2536 25.3806 23.2541 25.389C23.3356 25.3909 23.4171 25.392 23.4991 25.392C23.5811 25.392 23.6626 25.3909 23.7441 25.389C23.7451 25.3806 23.7468 25.3726 23.7468 25.3642V24.4196C23.7468 24.2831 23.6361 24.1722 23.4991 24.1722ZM29.991 21.6284C29.8944 21.5314 29.7374 21.5314 29.6409 21.6284C29.5448 21.7248 29.5448 21.8812 29.6409 21.9782L30.3088 22.6462C30.3148 22.6511 30.3202 22.6546 30.3256 22.6595C30.4437 22.5462 30.5592 22.4305 30.6719 22.3117C30.6671 22.3067 30.6639 22.3013 30.659 22.2964L29.991 21.6284ZM33.3881 15.24C33.3843 15.24 33.3811 15.2389 33.3773 15.2389H32.4331C32.296 15.2389 32.1854 15.3495 32.1854 15.486C32.1854 15.6231 32.296 15.7337 32.4331 15.7337H33.3773C33.3816 15.7337 33.3848 15.7326 33.3881 15.7326C33.3902 15.6555 33.3913 15.5778 33.3913 15.5001C33.3913 15.4132 33.3902 15.3263 33.3881 15.24ZM14.5657 15.2389H13.6215C13.6177 15.2389 13.6144 15.24 13.6107 15.24C13.6085 15.3263 13.6074 15.4132 13.6074 15.5001C13.6074 15.5778 13.6085 15.6555 13.6101 15.7326C13.6139 15.7326 13.6171 15.7337 13.6215 15.7337H14.5657C14.7022 15.7337 14.8133 15.6231 14.8133 15.486C14.8133 15.3495 14.7022 15.2389 14.5657 15.2389ZM23.252 5.6111V6.55317C23.252 6.68967 23.3626 6.80028 23.4991 6.80028C23.6361 6.80028 23.7468 6.68967 23.7468 6.55317V5.6111C23.6647 5.60948 23.5822 5.60786 23.4991 5.60786C23.4165 5.60786 23.334 5.60948 23.252 5.6111ZM29.8162 9.41713C29.8793 9.41713 29.943 9.39285 29.991 9.34429L30.659 8.67632C30.6595 8.67578 30.6595 8.67578 30.6601 8.67524C30.5462 8.556 30.4291 8.43945 30.3094 8.32615C30.3094 8.32615 30.3094 8.32615 30.3088 8.32615L29.6409 8.99466C29.5448 9.09124 29.5448 9.24771 29.6409 9.34429C29.6894 9.39285 29.7531 9.41713 29.8162 9.41713Z" fill="white"/>
<path d="M32.8736 18.7389C32.7432 18.6932 32.5975 18.7561 32.5493 18.8793C32.5022 18.9991 32.4518 19.1197 32.3997 19.2379C32.3455 19.3591 32.4063 19.4986 32.5345 19.5494C32.5663 19.562 32.5997 19.568 32.632 19.568C32.7306 19.568 32.8243 19.513 32.8642 19.4219C32.9201 19.2975 32.9727 19.1707 33.0226 19.0448C33.0708 18.9216 33.0039 18.7846 32.8736 18.7389Z" fill="white"/>
<path d="M30.6645 8.33193C30.6623 8.33031 30.6612 8.32815 30.6601 8.32652C30.6574 8.32436 30.6553 8.32274 30.6526 8.32057C28.8178 6.49228 26.2888 5.3609 23.5001 5.3609C20.7109 5.3609 18.1819 6.49228 16.3471 8.32057C16.3449 8.32274 16.3422 8.32436 16.3401 8.32652C16.3384 8.32815 16.3368 8.33031 16.3352 8.33193C14.4988 10.1683 13.3604 12.7038 13.3604 15.5001C13.3604 21.0909 17.9086 25.6393 23.5001 25.6393C26.9083 25.6393 30.0693 23.9416 31.9555 21.0977C32.0312 20.9838 31.9998 20.8303 31.8862 20.7548C31.7726 20.6791 31.6184 20.7103 31.5432 20.8242C31.2304 21.2958 30.8804 21.7332 30.4989 22.1355L29.9914 21.6283C29.8951 21.5313 29.7387 21.5313 29.6418 21.6283C29.545 21.7248 29.545 21.8811 29.6418 21.9781L30.1499 22.4863C28.4342 24.1212 26.1633 25.0792 23.7474 25.1405V24.4196C23.7474 24.283 23.6364 24.1722 23.5001 24.1722C23.3632 24.1722 23.2523 24.283 23.2523 24.4196V25.1415C20.7763 25.0787 18.5287 24.0782 16.8535 22.4823L17.3584 21.9781C17.4547 21.8811 17.4547 21.7248 17.3584 21.6283C17.261 21.5313 17.1046 21.5313 17.0083 21.6283L16.504 22.132C14.9132 20.4549 13.9171 18.2083 13.8581 15.7338H14.5664C14.7028 15.7338 14.8137 15.6229 14.8137 15.486C14.8137 15.3497 14.7028 15.2388 14.5664 15.2388H13.8587C13.9252 12.7682 14.9246 10.526 16.5175 8.85353L17.0083 9.34428C17.0564 9.39244 17.1197 9.41679 17.183 9.41679C17.2464 9.41679 17.3097 9.39244 17.3584 9.34428C17.4547 9.24797 17.4547 9.09106 17.3584 8.99421L16.8676 8.50399C18.5417 6.91648 20.7834 5.92091 23.2523 5.85868V6.55288C23.2523 6.68923 23.3632 6.80016 23.5001 6.80016C23.6364 6.80016 23.7474 6.68923 23.7474 6.55288V5.85868C26.2163 5.92091 28.458 6.91648 30.132 8.50399L29.6418 8.99421C29.545 9.09106 29.545 9.24797 29.6418 9.34428C29.69 9.39244 29.7533 9.41679 29.8166 9.41679C29.8799 9.41679 29.9432 9.39244 29.9914 9.34428L30.4821 8.85353C32.075 10.526 33.075 12.7682 33.141 15.2388H32.4332C32.2963 15.2388 32.186 15.3497 32.186 15.486C32.186 15.6229 32.2963 15.7338 32.4332 15.7338H33.1415C33.1291 16.263 33.0733 16.7916 32.9754 17.3075C32.95 17.4417 33.0382 17.5713 33.1723 17.5966C33.3065 17.6221 33.4359 17.5339 33.4618 17.3997C33.5792 16.7776 33.6393 16.1386 33.6393 15.5001C33.6393 12.7038 32.5014 10.1683 30.6645 8.33193Z" fill="white"/>
<path d="M23.4995 23.0769C19.3215 23.0769 15.9223 19.6778 15.9223 15.4995C15.9223 11.3215 19.3215 7.92289 23.4995 7.92289C27.6775 7.92289 31.0771 11.3215 31.0771 15.4995C31.0771 19.6778 27.6775 23.0769 23.4995 23.0769ZM23.4995 7.42779C19.0488 7.42779 15.4277 11.0489 15.4277 15.4995C15.4277 19.9506 19.0488 23.5717 23.4995 23.5717C27.9506 23.5717 31.5717 19.9506 31.5717 15.4995C31.5717 11.0489 27.9506 7.42779 23.4995 7.42779Z" fill="white"/>
<path d="M23.4912 5.74286C28.9583 5.74286 33.3876 10.1418 33.3877 15.5651C33.3877 20.9885 28.9584 25.3884 23.4912 25.3884C18.0242 25.3882 13.5957 20.9884 13.5957 15.5651C13.5958 10.1419 18.0242 5.74303 23.4912 5.74286Z" stroke="white" stroke-width="0.469852"/>
<path d="M21.5945 14.118C21.7941 14.118 21.9856 14.0387 22.1267 13.8976C22.2679 13.7564 22.3472 13.5649 22.3472 13.3653C22.3472 13.1657 22.2679 12.9742 22.1267 12.8331C21.9856 12.6919 21.7941 12.6126 21.5945 12.6126C21.3949 12.6126 21.2034 12.6919 21.0623 12.8331C20.9211 12.9742 20.8418 13.1657 20.8418 13.3653C20.8418 13.5649 20.9211 13.7564 21.0623 13.8976C21.2034 14.0387 21.3949 14.118 21.5945 14.118ZM26.3045 13.3653C26.3045 13.5649 26.2252 13.7564 26.084 13.8976C25.9429 14.0387 25.7514 14.118 25.5518 14.118C25.3522 14.118 25.1607 14.0387 25.0196 13.8976C24.8784 13.7564 24.7991 13.5649 24.7991 13.3653C24.7991 13.1657 24.8784 12.9742 25.0196 12.8331C25.1607 12.6919 25.3522 12.6126 25.5518 12.6126C25.7514 12.6126 25.9429 12.6919 26.084 12.8331C26.2252 12.9742 26.3045 13.1657 26.3045 13.3653Z" fill="white"/>
<path d="M21.6201 10.3045C22.0465 10.3045 22.439 10.4459 22.7568 10.6805H24.3291C24.647 10.4458 25.0394 10.3045 25.4658 10.3045H27.7666V10.4998C27.7666 10.9302 27.6248 11.3217 27.3887 11.6404C27.6916 12.0418 27.8749 12.5393 27.875 13.0779C27.875 13.6433 27.759 14.1049 27.543 14.4783C27.7389 14.9726 27.8486 15.5105 27.8486 16.074C27.8486 17.6011 27.057 18.9418 25.8643 19.7127C26.008 19.9866 26.1088 20.2873 26.1484 20.6072C26.1998 21.0223 25.8547 21.3152 25.5068 21.3152H21.583C21.2352 21.3152 20.891 21.0223 20.9424 20.6072C20.9808 20.2976 21.0743 20.0056 21.2109 19.7391C20.6194 19.3669 20.1247 18.8585 19.7725 18.2527C19.3879 17.5912 19.1852 16.8392 19.1855 16.074C19.1856 15.4885 19.3024 14.9299 19.5137 14.4197C19.3186 14.0567 19.2148 13.6136 19.2148 13.0779C19.2149 12.5395 19.3975 12.0417 19.7002 11.6404C19.4567 11.3116 19.3236 10.912 19.3232 10.4998V10.3045H21.6201ZM25.1904 20.0692C24.9321 20.1775 24.6614 20.2612 24.3809 20.3182C24.1748 20.3982 23.9596 20.451 23.7402 20.4725L23.5137 20.4842C23.2107 20.4842 22.9176 20.4238 22.6406 20.3172C22.3806 20.2636 22.1297 20.1857 21.8887 20.0877C21.8146 20.2326 21.7604 20.3883 21.7266 20.5516H25.3633C25.3283 20.3833 25.2702 20.2213 25.1904 20.0692ZM20.5713 15.3817C20.5192 15.5923 20.493 15.8087 20.4932 16.0262C20.4932 16.8122 20.8336 17.7183 21.3926 18.4276C21.952 19.1373 22.7053 19.6199 23.5137 19.6199C24.3219 19.6198 25.0744 19.1371 25.6338 18.4276C26.1928 17.7183 26.5332 16.8122 26.5332 16.0262C26.5332 15.8141 26.5078 15.6077 26.4609 15.409C25.7059 15.7474 24.7205 15.8231 23.6846 15.8231H23.4053C22.3434 15.8231 21.3343 15.7434 20.5713 15.3817ZM21.5947 12.3387C21.3224 12.3387 21.0607 12.4469 20.8682 12.6395C20.6758 12.8319 20.5675 13.0929 20.5674 13.3651C20.5674 13.6374 20.6756 13.8991 20.8682 14.0916C21.0607 14.2841 21.3225 14.3924 21.5947 14.3924C21.8668 14.3923 22.1279 14.284 22.3203 14.0916C22.5129 13.8991 22.6211 13.6374 22.6211 13.3651C22.621 13.0929 22.5127 12.8319 22.3203 12.6395C22.1279 12.447 21.8669 12.3388 21.5947 12.3387ZM25.5518 12.3387C25.2794 12.3387 25.0177 12.4469 24.8252 12.6395C24.6329 12.8319 24.5245 13.093 24.5244 13.3651C24.5244 13.6373 24.6327 13.8991 24.8252 14.0916C25.0177 14.2842 25.2795 14.3924 25.5518 14.3924C25.8239 14.3923 26.0849 14.284 26.2773 14.0916C26.4699 13.8991 26.5781 13.6374 26.5781 13.3651C26.5781 13.0928 26.4698 12.832 26.2773 12.6395C26.0848 12.447 25.824 12.3387 25.5518 12.3387ZM23.5752 14.0418C23.4348 14.0423 23.3132 14.1191 23.2461 14.2322H23.9043C23.838 14.1198 23.7171 14.0438 23.5752 14.0418Z" fill="#262626" stroke="white" stroke-width="0.390952"/>
<path d="M24.9602 20.4107L25.1804 20.2639L22.097 20.4107L21.9502 20.2639" stroke="white" stroke-width="0.146829"/>
</svg>
