<svg width="326" height="45" viewBox="0 0 326 45" fill="none" xmlns="http://www.w3.org/2000/svg">
<path d="M0.775968 32.6979H6.07811V38H0.775968V32.6979ZM19.8637 32.6979H25.1658V38H19.8637V32.6979ZM0.775968 26.3353H6.07811V31.6374H0.775968V26.3353ZM13.5011 26.3353H18.8033V31.6374H13.5011V26.3353ZM0.775968 39.0604H6.07811V44.3626H0.775968V39.0604ZM26.2263 39.0604H31.5284V44.3626H26.2263V39.0604ZM0.775968 13.6101H6.07811V18.9123H0.775968V13.6101ZM26.2263 13.6101H31.5284V18.9123H26.2263V13.6101ZM0.775968 7.24757H6.07811V12.5497H0.775968V7.24757ZM26.2263 7.24757H31.5284V12.5497H26.2263V7.24757ZM0.775968 19.9727H6.07811V25.2749H0.775968V19.9727ZM7.13854 19.9727H12.4407V25.2749H7.13854V19.9727ZM13.5011 19.9727H18.8033V25.2749H13.5011V19.9727ZM19.8637 19.9727H25.1658V25.2749H19.8637V19.9727ZM0.775968 0.884993H6.07811V6.18714H0.775968V0.884993ZM7.13854 0.884993H12.4407V6.18714H7.13854V0.884993ZM13.5011 0.884993H18.8033V6.18714H13.5011V0.884993ZM19.8637 0.884993H25.1658V6.18714H19.8637V0.884993ZM37.5385 32.6979H42.8406V38H37.5385V32.6979ZM37.5385 26.3353H42.8406V31.6374H37.5385V26.3353ZM37.5385 39.0604H42.8406V44.3626H37.5385V39.0604ZM43.901 39.0604H49.2032V44.3626H43.901V39.0604ZM50.2636 39.0604H55.5658V44.3626H50.2636V39.0604ZM56.6262 39.0604H61.9283V44.3626H56.6262V39.0604ZM62.9888 39.0604H68.2909V44.3626H62.9888V39.0604ZM37.5385 13.6101H42.8406V18.9123H37.5385V13.6101ZM37.5385 7.24757H42.8406V12.5497H37.5385V7.24757ZM37.5385 19.9727H42.8406V25.2749H37.5385V19.9727ZM43.901 19.9727H49.2032V25.2749H43.901V19.9727ZM50.2636 19.9727H55.5658V25.2749H50.2636V19.9727ZM56.6262 19.9727H61.9283V25.2749H56.6262V19.9727ZM37.5385 0.884993H42.8406V6.18714H37.5385V0.884993ZM43.901 0.884993H49.2032V6.18714H43.901V0.884993ZM50.2636 0.884993H55.5658V6.18714H50.2636V0.884993ZM56.6262 0.884993H61.9283V6.18714H56.6262V0.884993ZM62.9888 0.884993H68.2909V6.18714H62.9888V0.884993ZM99.7513 32.6979H105.053V38H99.7513V32.6979ZM99.7513 26.3353H105.053V31.6374H99.7513V26.3353ZM74.301 39.0604H79.6031V44.3626H74.301V39.0604ZM80.6635 39.0604H85.9657V44.3626H80.6635V39.0604ZM87.0261 39.0604H92.3283V44.3626H87.0261V39.0604ZM93.3887 39.0604H98.6908V44.3626H93.3887V39.0604ZM74.301 13.6101H79.6031V18.9123H74.301V13.6101ZM74.301 7.24757H79.6031V12.5497H74.301V7.24757ZM80.6635 19.9727H85.9657V25.2749H80.6635V19.9727ZM87.0261 19.9727H92.3283V25.2749H87.0261V19.9727ZM93.3887 19.9727H98.6908V25.2749H93.3887V19.9727ZM80.6635 0.884993H85.9657V6.18714H80.6635V0.884993ZM87.0261 0.884993H92.3283V6.18714H87.0261V0.884993ZM93.3887 0.884993H98.6908V6.18714H93.3887V0.884993ZM99.7513 0.884993H105.053V6.18714H99.7513V0.884993ZM111.063 32.6979H116.366V38H111.063V32.6979ZM136.514 32.6979H141.816V38H136.514V32.6979ZM111.063 26.3353H116.366V31.6374H111.063V26.3353ZM136.514 26.3353H141.816V31.6374H136.514V26.3353ZM117.426 39.0604H122.728V44.3626H117.426V39.0604ZM123.789 39.0604H129.091V44.3626H123.789V39.0604ZM130.151 39.0604H135.453V44.3626H130.151V39.0604ZM111.063 13.6101H116.366V18.9123H111.063V13.6101ZM136.514 13.6101H141.816V18.9123H136.514V13.6101ZM111.063 7.24757H116.366V12.5497H111.063V7.24757ZM136.514 7.24757H141.816V12.5497H136.514V7.24757ZM111.063 19.9727H116.366V25.2749H111.063V19.9727ZM136.514 19.9727H141.816V25.2749H136.514V19.9727ZM117.426 0.884993H122.728V6.18714H117.426V0.884993ZM123.789 0.884993H129.091V6.18714H123.789V0.884993ZM130.151 0.884993H135.453V6.18714H130.151V0.884993ZM147.826 32.6979H153.128V38H147.826V32.6979ZM173.276 32.6979H178.578V38H173.276V32.6979ZM147.826 26.3353H153.128V31.6374H147.826V26.3353ZM173.276 26.3353H178.578V31.6374H173.276V26.3353ZM154.189 39.0604H159.491V44.3626H154.189V39.0604ZM160.551 39.0604H165.853V44.3626H160.551V39.0604ZM166.914 39.0604H172.216V44.3626H166.914V39.0604ZM147.826 13.6101H153.128V18.9123H147.826V13.6101ZM173.276 13.6101H178.578V18.9123H173.276V13.6101ZM147.826 7.24757H153.128V12.5497H147.826V7.24757ZM173.276 7.24757H178.578V12.5497H173.276V7.24757ZM147.826 19.9727H153.128V25.2749H147.826V19.9727ZM173.276 19.9727H178.578V25.2749H173.276V19.9727ZM147.826 0.884993H153.128V6.18714H147.826V0.884993ZM173.276 0.884993H178.578V6.18714H173.276V0.884993ZM184.588 32.6979H189.891V38H184.588V32.6979ZM203.676 32.6979H208.978V38H203.676V32.6979ZM184.588 26.3353H189.891V31.6374H184.588V26.3353ZM197.314 26.3353H202.616V31.6374H197.314V26.3353ZM184.588 39.0604H189.891V44.3626H184.588V39.0604ZM210.039 39.0604H215.341V44.3626H210.039V39.0604ZM184.588 13.6101H189.891V18.9123H184.588V13.6101ZM210.039 13.6101H215.341V18.9123H210.039V13.6101ZM184.588 7.24757H189.891V12.5497H184.588V7.24757ZM210.039 7.24757H215.341V12.5497H210.039V7.24757ZM184.588 19.9727H189.891V25.2749H184.588V19.9727ZM190.951 19.9727H196.253V25.2749H190.951V19.9727ZM197.314 19.9727H202.616V25.2749H197.314V19.9727ZM203.676 19.9727H208.978V25.2749H203.676V19.9727ZM184.588 0.884993H189.891V6.18714H184.588V0.884993ZM190.951 0.884993H196.253V6.18714H190.951V0.884993ZM197.314 0.884993H202.616V6.18714H197.314V0.884993ZM203.676 0.884993H208.978V6.18714H203.676V0.884993ZM221.351 32.6979H226.653V38H221.351V32.6979ZM246.801 32.6979H252.103V38H246.801V32.6979ZM221.351 26.3353H226.653V31.6374H221.351V26.3353ZM227.714 39.0604H233.016V44.3626H227.714V39.0604ZM234.076 39.0604H239.378V44.3626H234.076V39.0604ZM240.439 39.0604H245.741V44.3626H240.439V39.0604ZM221.351 13.6101H226.653V18.9123H221.351V13.6101ZM221.351 7.24757H226.653V12.5497H221.351V7.24757ZM246.801 7.24757H252.103V12.5497H246.801V7.24757ZM221.351 19.9727H226.653V25.2749H221.351V19.9727ZM227.714 0.884993H233.016V6.18714H227.714V0.884993ZM234.076 0.884993H239.378V6.18714H234.076V0.884993ZM240.439 0.884993H245.741V6.18714H240.439V0.884993ZM258.113 32.6979H263.416V38H258.113V32.6979ZM258.113 26.3353H263.416V31.6374H258.113V26.3353ZM258.113 39.0604H263.416V44.3626H258.113V39.0604ZM264.476 39.0604H269.778V44.3626H264.476V39.0604ZM270.839 39.0604H276.141V44.3626H270.839V39.0604ZM277.201 39.0604H282.503V44.3626H277.201V39.0604ZM283.564 39.0604H288.866V44.3626H283.564V39.0604ZM258.113 13.6101H263.416V18.9123H258.113V13.6101ZM258.113 7.24757H263.416V12.5497H258.113V7.24757ZM258.113 19.9727H263.416V25.2749H258.113V19.9727ZM264.476 19.9727H269.778V25.2749H264.476V19.9727ZM270.839 19.9727H276.141V25.2749H270.839V19.9727ZM277.201 19.9727H282.503V25.2749H277.201V19.9727ZM258.113 0.884993H263.416V6.18714H258.113V0.884993ZM264.476 0.884993H269.778V6.18714H264.476V0.884993ZM270.839 0.884993H276.141V6.18714H270.839V0.884993ZM277.201 0.884993H282.503V6.18714H277.201V0.884993ZM283.564 0.884993H288.866V6.18714H283.564V0.884993ZM320.326 32.6979H325.628V38H320.326V32.6979ZM320.326 26.3353H325.628V31.6374H320.326V26.3353ZM294.876 39.0604H300.178V44.3626H294.876V39.0604ZM301.239 39.0604H306.541V44.3626H301.239V39.0604ZM307.601 39.0604H312.903V44.3626H307.601V39.0604ZM313.964 39.0604H319.266V44.3626H313.964V39.0604ZM294.876 13.6101H300.178V18.9123H294.876V13.6101ZM294.876 7.24757H300.178V12.5497H294.876V7.24757ZM301.239 19.9727H306.541V25.2749H301.239V19.9727ZM307.601 19.9727H312.903V25.2749H307.601V19.9727ZM313.964 19.9727H319.266V25.2749H313.964V19.9727ZM301.239 0.884993H306.541V6.18714H301.239V0.884993ZM307.601 0.884993H312.903V6.18714H307.601V0.884993ZM313.964 0.884993H319.266V6.18714H313.964V0.884993ZM320.326 0.884993H325.628V6.18714H320.326V0.884993Z" fill="url(#paint0_linear_3035_21629)"/>
<defs>
<linearGradient id="paint0_linear_3035_21629" x1="-150.992" y1="25.6722" x2="566.11" y2="42.7755" gradientUnits="userSpaceOnUse">
<stop stop-color="#EF4136"/>
<stop offset="0.467708" stop-color="#F5753B"/>
<stop offset="1" stop-color="#FAA83F"/>
</linearGradient>
</defs>
</svg>
