<svg width="125" height="144" viewBox="0 0 125 144" fill="none" xmlns="http://www.w3.org/2000/svg">
<path d="M50.6306 12.9983L68.5979 12.56C84.0678 13.2116 94.6754 22.7909 100.838 30.8714L107.13 30.7179C107.141 29.7317 94.8997 2.29785 68.3424 1.17916L59.5063 1.39473L59.2111 1.40194L50.375 1.61751C23.897 4.03008 12.9049 32.0307 12.9552 33.0155L19.2472 32.862C25.0407 24.4897 35.2069 14.4036 50.6306 12.9983Z" fill="#F3ED99"/>
<path d="M100.948 30.6245L106.833 30.481C106.355 29.0454 103.256 22.5276 97.4241 16.05C91.6984 9.69551 82.005 1.99991 68.3322 1.42377L50.3789 1.86228C36.7609 3.10373 27.4235 11.2636 21.9939 17.8902C16.4547 24.6452 13.6511 31.3071 13.2385 32.7644L19.123 32.6208C24.8946 24.3185 35.0219 14.1752 50.6094 12.7551L68.5908 12.3159C84.2389 12.9744 94.8151 22.6127 100.948 30.6245ZM107.134 30.9627L100.842 31.1162C100.772 31.1179 100.701 31.084 100.653 31.0245C94.591 23.073 84.1045 13.4585 68.5877 12.8046L50.6344 13.2431C35.1779 14.6521 25.139 24.7674 19.4363 33.0059C19.3955 33.0676 19.326 33.1049 19.2511 33.1068L12.959 33.2603C12.8325 33.2634 12.727 33.1608 12.7194 33.0289C12.6851 32.3377 15.6453 24.9232 21.5395 17.694C27.0366 10.9454 36.502 2.63611 50.3539 1.37427L68.3353 0.935107C82.2473 1.52008 92.0706 9.35876 97.8692 15.8318C104.081 22.7657 107.371 30.0277 107.363 30.7199C107.366 30.8519 107.265 30.9595 107.134 30.9627Z" fill="#292625"/>
<path d="M50.6292 12.999L68.5966 12.5607C86.4923 13.3146 97.8872 26.0171 103.413 34.525L107.212 34.4323C107.223 33.4455 94.9818 6.0117 68.4244 4.89302L59.5884 5.10859L59.2932 5.11579L50.4571 5.33136C23.979 7.74394 12.9869 35.7446 13.0372 36.7299L16.8415 36.637C21.9792 27.869 32.7869 14.6248 50.6292 12.999Z" fill="#2E2227"/>
<path d="M29.2176 49.3977C24.6784 61.8585 15.2632 69.6862 8.18744 66.8813C1.1164 64.0762 -0.94276 51.701 3.59641 39.2402C8.13558 26.7794 17.5508 18.9522 24.6219 21.7573C31.6976 24.5623 33.7521 36.9375 29.2176 49.3977Z" fill="#F2591D"/>
<path d="M21.3908 21.7093C14.93 21.8669 7.80423 29.1517 4.06441 39.4243C-0.368727 51.5969 1.55765 63.696 8.36379 66.3946C9.32392 66.7746 10.3499 66.954 11.4181 66.928C17.8835 66.7703 25.0093 59.4855 28.7491 49.2128C30.9127 43.2719 31.6337 37.1749 30.7825 32.045C29.9476 27.0121 27.6944 23.5314 24.445 22.2422C23.4896 21.8625 22.459 21.6832 21.3908 21.7093ZM11.4414 67.9667C10.2467 67.9959 9.08899 67.7943 8.01059 67.3662C0.693607 64.4639 -1.4994 51.7639 3.13263 39.0548C7.01382 28.3972 14.5131 20.8373 21.3674 20.67C22.5668 20.6408 23.7198 20.843 24.7982 21.2706C28.3928 22.6952 30.868 26.4585 31.7629 31.8675C32.6463 37.1785 31.9062 43.4697 29.6809 49.5819C25.7997 60.2395 18.3004 67.7994 11.4414 67.9667Z" fill="#292625"/>
<path d="M30.265 50.7153C25.2932 64.3683 28.3277 84.484 11.689 72.0674C7.20608 68.4514 6.12814 56.7693 11.0999 43.1168C16.0717 29.4643 24.1968 20.7534 29.6856 22.1959C49.0852 27.2938 35.2368 37.0628 30.265 50.7153Z" fill="#F3ED99"/>
<path d="M28.3268 22.2857C22.8358 22.4197 15.6831 31.2169 11.3161 43.203C6.15003 57.3904 7.72276 68.5635 11.8285 71.8737C15.3564 74.5036 18.1035 75.7591 20.2258 75.7073C24.7469 75.597 25.9143 69.3409 27.2611 62.0969C27.9808 58.2375 28.7256 54.2465 30.046 50.6282C31.3792 46.9583 33.3834 43.5205 35.1481 40.4876C37.9692 35.6448 40.402 31.4624 39.1241 28.2035C38.1548 25.7454 35.0514 23.8579 29.6239 22.4326C29.2136 22.3243 28.7765 22.2748 28.3268 22.2857ZM20.2368 76.1961C18.0067 76.2505 15.1652 74.9651 11.5514 72.2659C7.30717 68.8431 5.63073 57.4368 10.8809 43.0292C15.3095 30.865 22.6421 21.9353 28.3158 21.7969C28.8077 21.7849 29.2871 21.8393 29.7398 21.9583C35.3937 23.4446 38.5167 25.3698 39.5559 28.0178C40.9279 31.5053 38.4318 35.7856 35.5476 40.7415C33.7918 43.7566 31.8012 47.1735 30.4811 50.802C29.1786 54.3807 28.438 58.3511 27.7226 62.1903C26.3336 69.6418 25.1327 76.0767 20.2368 76.1961Z" fill="#292625"/>
<path d="M36.3849 53.5535C31.4131 67.206 23.0918 76.5726 17.7992 74.4744C12.5113 72.3761 12.248 59.6074 17.2198 45.9549C22.1963 32.3023 30.5129 22.9358 35.8055 25.034C41.0981 27.1322 41.3567 39.901 36.3849 53.5535Z" fill="#2E2227"/>
<path d="M96.0079 47.7684C101.101 59.9942 110.858 67.3542 117.8 64.2072C124.737 61.0604 126.239 48.5984 121.145 36.3726C116.052 24.1468 106.296 16.7873 99.3582 19.9341C92.4161 23.0811 90.9192 35.543 96.0079 47.7684Z" fill="#F2591D"/>
<path d="M102.578 19.7292C101.515 19.7552 100.493 19.9845 99.5561 20.4104C92.8786 23.4384 91.4926 35.6178 96.4671 47.5614C100.664 57.6399 108.109 64.5692 114.574 64.412C115.642 64.3859 116.659 64.1566 117.597 63.7303C120.789 62.2844 122.879 58.6973 123.487 53.6297C124.112 48.4633 123.113 42.4082 120.686 36.5798C116.489 26.5008 109.044 19.5715 102.578 19.7292ZM114.598 65.4507C107.739 65.618 99.9082 58.4316 95.5529 47.9755C90.3603 35.5066 91.9763 22.7131 99.1597 19.4571C100.218 18.9774 101.36 18.7191 102.555 18.69C109.414 18.5226 117.244 25.7086 121.6 36.1652C124.097 42.1622 125.119 48.4108 124.479 53.759C123.823 59.2059 121.52 63.0858 117.998 64.6835C116.935 65.1638 115.792 65.4216 114.598 65.4507Z" fill="#292625"/>
<path d="M95.0215 49.1356C100.601 62.5312 98.4721 82.7729 114.535 69.5584C118.851 65.7277 119.404 54.0059 113.825 40.6108C108.245 27.2157 99.7384 18.9106 94.3203 20.6191C75.1708 26.6576 89.4424 35.7405 95.0215 49.1356Z" fill="#F3ED99"/>
<path d="M95.6794 20.6432C95.2296 20.6542 94.7953 20.7249 94.3903 20.8532C89.0327 22.5416 86.0174 24.5784 85.1595 27.081C84.0293 30.3987 86.647 34.4579 89.6823 39.1584C91.5813 42.1014 93.7375 45.4377 95.234 49.0385C96.7154 52.5884 97.6385 56.5383 98.5305 60.3588C100.201 67.5292 101.648 73.7216 106.169 73.6113C108.291 73.5595 110.979 72.1714 114.39 69.3664C118.333 65.8656 119.407 54.628 113.61 40.708C108.71 28.948 101.17 20.5093 95.6794 20.6432ZM106.18 74.1001C101.284 74.2195 99.7956 67.8502 98.0737 60.4741C97.1868 56.6745 96.2688 52.7446 94.8071 49.2333C93.3209 45.6733 91.1839 42.3571 89.2947 39.4309C86.1913 34.6211 83.5057 30.4672 84.7198 26.9171C85.639 24.2208 88.6675 22.1456 94.2532 20.3851C94.7001 20.2441 95.1765 20.1664 95.6684 20.1544C101.342 20.016 109.067 28.5783 114.037 40.5132C119.928 54.649 118.765 66.1246 114.684 69.7446C111.186 72.6232 108.405 74.0458 106.18 74.1001Z" fill="#292625"/>
<path d="M89.0352 52.2695C94.6143 65.6646 103.347 74.6151 108.535 72.2613C113.727 69.9072 113.417 57.1397 107.834 43.7447C102.255 30.3496 93.522 21.3991 88.3341 23.7529C83.1414 26.107 83.4515 38.8745 89.0352 52.2695Z" fill="#2E2227"/>
<path d="M103.13 56.552C106.567 53.268 109.284 49.0165 110.978 44.2799C104.611 46.0938 97.4291 43.577 93.038 37.9945C95.647 37.6986 98.3346 38.394 100.582 39.9449C98.8397 35.0026 95.4646 30.8249 91.2857 28.4296C93.999 28.1849 96.7699 28.8318 99.1836 30.272C88.2254 22.8254 74.7046 20.4618 62.3251 23.8305C62.2086 23.8617 62.0922 23.8953 61.9757 23.9285C61.8579 23.901 61.7401 23.8731 61.6223 23.8476C49.1099 21.0863 35.71 24.1066 25.098 32.0794C27.4444 30.5231 30.1832 29.7418 32.9046 29.8539C28.833 32.4505 25.6537 36.7881 24.1352 41.81C26.3058 40.1513 28.964 39.3254 31.5835 39.4938C27.4477 45.2843 20.3867 48.1486 13.945 46.6472C15.8494 51.296 18.7544 55.4103 22.3353 58.5231C19.9853 58.6645 19.167 62.0964 19.0208 64.7699C18.4839 74.4709 18.3998 84.3008 20.1466 93.8263C21.8933 103.352 25.5938 112.627 31.7508 119.399C37.903 126.17 46.6975 130.155 55.1245 128.631C58.2292 128.069 61.243 126.8 64.2606 125.701C67.3243 126.652 70.3964 127.772 73.5182 128.182C82.0091 129.293 90.6151 124.884 96.4567 117.82C102.298 110.756 105.583 101.31 106.901 91.7098C108.218 82.1095 107.693 72.2945 106.721 62.6303C106.45 59.967 105.479 56.5788 103.13 56.552Z" fill="#F2591D"/>
<path d="M64.2479 125.181C64.2995 125.18 64.3512 125.187 64.4031 125.203C64.9743 125.381 65.5503 125.564 66.1263 125.749C68.5627 126.53 71.0841 127.339 73.5806 127.667C74.5867 127.798 75.6192 127.852 76.6499 127.827C83.598 127.658 90.8614 123.79 96.0778 117.481C101.395 111.052 104.968 102.115 106.406 91.6359C107.796 81.5238 107.094 71.3262 106.225 62.6842C105.953 59.9851 104.997 57.093 103.122 57.0722C102.916 57.0699 102.734 56.9374 102.66 56.7382C102.59 56.5389 102.641 56.3131 102.792 56.1691C105.95 53.1502 108.488 49.311 110.164 45.0179C109.184 45.2321 108.179 45.3525 107.163 45.3773C101.653 45.5117 96.231 42.8752 92.6506 38.3245C92.5348 38.1772 92.5068 37.9749 92.5731 37.7982C92.6442 37.6214 92.8008 37.4987 92.9831 37.4781C95.1994 37.225 97.53 37.6777 99.5742 38.7396C97.764 34.5301 94.7125 30.9882 91.0464 28.8851C90.8517 28.7753 90.7528 28.5464 90.7994 28.3223C90.8412 28.0982 91.025 27.9318 91.2402 27.9119C92.2928 27.8173 93.3483 27.8512 94.3925 28.0072C87.6382 24.4861 80.0598 22.679 72.573 22.8616C69.1389 22.9454 65.7326 23.4403 62.4526 24.3332L62.1079 24.4302C62.0287 24.4526 61.949 24.4546 61.8689 24.436L61.5202 24.356C58.2037 23.624 54.779 23.2957 51.3448 23.3795C43.858 23.5622 36.3644 25.7371 29.7802 29.5835C30.8115 29.3769 31.869 29.2909 32.92 29.3347C33.1406 29.344 33.3269 29.5014 33.3834 29.723C33.44 29.9447 33.3468 30.1783 33.1619 30.2972C29.5895 32.577 26.7051 36.2637 25.0858 40.5568C27.0801 39.3965 29.3831 38.8307 31.613 38.9753C31.7961 38.987 31.958 39.1019 32.0369 39.2751C32.1111 39.4484 32.0923 39.6518 31.9832 39.8046C28.6109 44.5244 23.3085 47.4225 17.7989 47.5574C16.7869 47.5821 15.7775 47.5109 14.7893 47.3448C16.6557 51.5519 19.3641 55.2631 22.6535 58.1242C22.8112 58.2607 22.8725 58.4837 22.8067 58.6863C22.7456 58.8888 22.566 59.0302 22.3647 59.0424C20.4922 59.1546 19.6674 62.0902 19.5173 64.7995C19.037 73.4745 18.793 83.6957 20.6355 93.7284C22.5425 104.126 26.5126 112.879 32.112 119.041C37.6058 125.089 45.0349 128.598 51.9829 128.429C53.0136 128.404 54.0379 128.299 55.0417 128.119C57.5207 127.67 60.003 126.739 62.4017 125.84C62.9688 125.628 63.5313 125.416 64.0986 125.21C64.145 125.192 64.1964 125.182 64.2479 125.181ZM76.6733 128.866C75.5957 128.892 74.5116 128.836 73.4584 128.698C70.8726 128.359 68.3088 127.537 65.8299 126.742C65.3105 126.576 64.7911 126.409 64.2718 126.247C63.7604 126.434 63.2491 126.626 62.7377 126.818C60.2972 127.733 57.7778 128.679 55.21 129.143C54.1595 129.332 53.0838 129.442 52.0062 129.468C44.7818 129.644 37.0735 126.014 31.3875 119.756C25.6582 113.45 21.5997 104.517 19.6555 93.924C17.7964 83.7791 18.0386 73.4784 18.5222 64.7397C18.7083 61.3389 19.7205 59.0248 21.2879 58.2685C17.9796 55.1887 15.2898 51.2614 13.4845 46.8513C13.4148 46.672 13.4429 46.4649 13.5615 46.3148C13.68 46.1652 13.8707 46.0975 14.0545 46.14C15.2608 46.4221 16.5152 46.549 17.7755 46.5182C22.6574 46.3986 27.3705 43.9805 30.5671 39.9981C28.3937 40.0731 26.2177 40.8638 24.4248 42.2295C24.2544 42.3623 24.0153 42.3632 23.8436 42.2324C23.6672 42.1013 23.5917 41.8679 23.6572 41.6535C25.0276 37.1302 27.7361 33.1235 31.2146 30.4201C29.1518 30.6191 27.1476 31.3366 25.3647 32.5182C25.1384 32.669 24.8369 32.6044 24.6863 32.3709C24.5358 32.1383 24.5896 31.822 24.8063 31.6578C32.4956 25.8789 41.9138 22.5698 51.3215 22.3403C54.8353 22.2546 58.3352 22.5908 61.7271 23.339L61.9627 23.3934L62.2003 23.3274C65.5549 22.4146 69.0359 21.9081 72.5497 21.8224C81.934 21.5935 91.4666 24.426 99.3969 29.7994C99.5628 29.88 99.6839 30.0545 99.6885 30.2598C99.695 30.5468 99.4753 30.7849 99.2036 30.7916C99.1989 30.7912 99.1942 30.7923 99.1942 30.7918C99.1052 30.794 99.0156 30.7722 98.9348 30.7233C97.1009 29.6299 95.0666 29.011 92.9971 28.9128C96.5646 31.4267 99.4399 35.262 101.016 39.6757C101.059 39.7505 101.09 39.8383 101.092 39.9326C101.098 40.2196 100.878 40.4577 100.602 40.4645C100.602 40.4645 100.597 40.4651 100.593 40.4647C100.494 40.4671 100.395 40.4382 100.309 40.3782C98.4573 39.1014 96.2481 38.4177 94.0737 38.4487C97.4456 42.2714 102.262 44.457 107.139 44.338C108.404 44.3072 109.652 44.1188 110.844 43.7786C111.026 43.7272 111.215 43.7862 111.344 43.9293C111.469 44.0734 111.507 44.2789 111.441 44.4615C109.84 48.9547 107.329 53.0089 104.163 56.2467C105.762 56.9256 106.873 59.188 107.216 62.5759C108.091 71.2814 108.795 81.5591 107.393 91.7835C105.927 102.459 102.274 111.58 96.8336 118.16C91.4347 124.688 83.8977 128.69 76.6733 128.866Z" fill="#292625"/>
<path d="M52.3976 29.5517C55.2027 29.2172 58.1111 29.9366 60.4724 31.5487C59.7696 28.6406 57.0761 26.6365 54.2806 25.9368C51.4851 25.2376 48.5633 25.5926 45.701 25.884C46.9465 26.2405 48.1401 26.789 49.2344 27.5067C44.5257 27.196 39.7388 28.4113 35.6986 30.9421C36.9325 30.9922 38.1712 31.0422 39.4099 31.0927C35.9093 32.393 32.5341 34.0634 29.3587 36.0694C36.6075 33.8457 44.5662 34.2228 51.5972 37.1228C51.6423 34.326 49.09 32.3473 46.8114 30.8696C49.9854 30.6821 53.203 31.3915 56.0308 32.9028C54.9112 31.6834 53.6953 30.5608 52.3976 29.5517Z" fill="#D34B20"/>
<path d="M71.1491 29.0936C68.3321 28.8962 65.4591 29.7567 63.1728 31.4822C63.7443 28.543 66.3449 26.4098 69.1013 25.5746C71.8623 24.7399 74.8016 24.9518 77.6738 25.1033C76.4456 25.5202 75.278 26.1263 74.2171 26.8965C78.9067 26.3566 83.743 27.3371 87.8923 29.6682C86.6619 29.7784 85.4269 29.8887 84.1918 29.9996C87.7469 31.1277 91.1933 32.6317 94.4553 34.4806C87.1146 32.6129 79.1815 33.3777 72.2884 36.6173C72.1179 33.8258 74.5786 31.7248 76.7884 30.1376C73.6094 30.1051 70.4272 30.9707 67.6703 32.6182C68.7339 31.3456 69.8981 30.1649 71.1491 29.0936Z" fill="#D34B20"/>
<path d="M92.5756 49.6002C92.5481 48.584 92.5754 47.5069 93.0952 46.6456C93.4567 46.0421 94.0466 45.5939 94.7084 45.4202C94.8575 45.3809 95.0163 45.355 95.1666 45.368C95.4437 45.3915 95.6907 45.5342 95.9374 45.6661C98.6327 47.1229 101.812 47.5887 104.793 46.9638C105.125 47.3357 105.12 47.9428 104.891 48.393C104.662 48.8426 104.252 49.1613 103.827 49.4172C103.073 49.8757 102.231 50.1834 101.362 50.3185C102.106 50.8497 102.228 52.1095 101.601 52.7851C101.216 53.198 100.657 53.3671 100.126 53.5195C99.4324 53.7193 98.7384 53.9187 98.0444 54.118C96.8986 54.4473 95.6355 54.7681 94.5595 54.2393C93.7869 53.8585 93.2443 53.0789 92.9535 52.2384C92.6628 51.3979 92.605 50.493 92.5756 49.6002Z" fill="#F7A80E"/>
<path d="M26.4545 56.3988C26.976 56.4487 27.51 56.4313 28.0081 56.2763C29.7213 55.7479 30.6693 53.7092 30.6041 51.8468C30.5341 49.9851 29.6845 48.2627 28.8414 46.6223C26.2108 48.883 22.5072 49.705 19.228 48.756C19.9632 50.1828 21.3989 51.0771 22.8598 51.6269C23.1765 51.7463 23.5775 52.0681 23.3776 52.3518C22.8475 52.1236 22.1665 52.4826 22.0294 53.0601C21.8842 53.6907 22.3152 54.3057 22.7796 54.7375C23.7945 55.6772 25.1016 56.2685 26.4545 56.3988Z" fill="#F7A80E"/>
<path d="M105.024 82.4869C104.403 80.9433 102.978 79.9148 101.369 79.8719C101.37 79.8978 102.663 79.4431 102.811 79.3598C103.357 79.053 103.826 78.6127 104.189 78.0859C104.838 77.1329 105.064 75.936 104.902 74.7866C104.581 72.5711 102.663 70.8855 100.501 71.0522C100.496 71.0416 100.496 71.0303 100.496 71.0196C102.766 70.477 104.02 68.043 103.41 65.7382C103.134 64.6992 102.555 63.7929 101.693 63.1869C101.198 62.841 100.631 62.6235 100.043 62.5459C99.8548 62.5216 98.3056 62.6274 98.3255 62.6787C100.406 61.6136 101.12 58.935 100.004 56.8391C98.8929 54.7528 96.4444 53.851 94.4052 55.0995C94.4197 55.1187 95.2763 54.0218 95.362 53.8681C95.6318 53.3592 95.7879 52.7974 95.8358 52.2166C95.9267 51.0465 95.5063 49.8584 94.7602 48.9899C93.2298 47.2206 90.6541 46.9147 88.9338 48.5912C88.9387 48.5969 89.5219 47.4309 89.5699 47.2707C89.749 46.6873 89.7961 46.0733 89.7169 45.4663C89.5643 44.3104 88.9176 43.2717 88.0255 42.5838C86.1839 41.1502 83.5519 41.4663 82.2235 43.4776C82.2425 43.4869 82.5681 42.1217 82.5782 41.9449C82.6203 41.3149 82.5124 40.6842 82.279 40.1024C81.8716 39.0784 81.0612 38.2692 80.0949 37.8198C78.0007 36.8316 75.4989 37.7305 74.6167 39.9876C74.6215 39.9895 74.6766 38.6832 74.6587 38.5154C74.5842 37.9107 74.3792 37.3396 74.0676 36.8268C73.4983 35.8972 72.5697 35.2513 71.5512 34.9861C69.2549 34.3882 66.8727 35.8094 66.4692 38.3C66.4833 38.3016 66.2273 36.9227 66.1673 36.7559C65.9677 36.215 65.6568 35.732 65.2587 35.3294C64.4529 34.5157 63.3177 34.0645 62.1939 34.1179C61.0513 34.1717 59.9831 34.6125 59.1965 35.4915C58.8169 35.914 58.5329 36.4189 58.3625 36.9693C58.3053 37.139 58.1209 38.5281 58.1349 38.5258C57.6218 36.131 55.3437 34.8827 53.1198 35.4231C52.0847 35.6738 51.1532 36.3588 50.5786 37.2854C50.262 37.7974 50.0546 38.3708 49.9885 38.9769C49.9646 39.1629 50.0544 40.6622 50.0823 40.6522C49.0857 38.4394 46.5993 37.7249 44.5412 38.7581C43.5353 39.2635 42.7453 40.1993 42.3951 41.3044C42.2288 41.8298 42.1662 42.3811 42.2161 42.932C42.2343 43.1179 42.6324 44.5643 42.6555 44.5481C41.229 42.606 38.6477 42.4664 36.8524 43.935C35.9732 44.6543 35.393 45.7455 35.2784 46.904C35.2252 47.455 35.2798 48.0083 35.4416 48.5355C35.4972 48.7127 36.1879 50.0389 36.2108 50.0163C34.4081 48.4341 31.8587 48.8831 30.4141 50.7266C28.9556 52.5776 29.2383 55.3551 31.0891 56.7822C31.0936 56.7728 29.8896 56.3879 29.7297 56.3658C29.1372 56.283 28.5244 56.3424 27.9619 56.5513C26.8787 56.9519 26.0678 57.789 25.5619 58.8504C24.5414 60.9999 25.4164 63.6451 27.5378 64.5926C27.5554 64.5417 25.9985 64.5181 25.8118 64.5525C25.2283 64.6611 24.6713 64.909 24.1968 65.282C23.363 65.9357 22.8403 66.8724 22.6108 67.9227C22.3474 69.1352 22.5737 70.4458 23.2899 71.4486C23.5999 71.8895 23.9973 72.2613 24.4488 72.5369C24.5913 72.621 25.7785 73.0919 25.7829 73.0776C23.7472 73.024 21.9638 74.6023 21.6074 76.6808C21.1813 79.2066 22.8263 81.698 25.334 81.8956C25.3334 81.8687 24.0201 82.2573 23.8718 82.3323C23.3665 82.5833 22.9105 82.9451 22.5455 83.3869C21.8153 84.2714 21.4949 85.451 21.577 86.6033C21.6583 87.7179 22.0941 88.7559 22.871 89.5337C23.2785 89.937 23.7681 90.2381 24.2972 90.4237C24.472 90.4836 26.0193 90.7099 26.0085 90.6471C23.6776 91.2209 22.5181 93.6546 23.1146 95.9999C23.3872 97.0771 24.1074 98.0445 25.0292 98.5977C25.5519 98.9131 26.1327 99.0995 26.7426 99.1222C26.9115 99.1284 28.4252 98.9041 28.3956 98.8374C26.1865 100.034 25.752 102.816 27.0787 104.905C27.6619 105.829 28.634 106.531 29.6838 106.728C30.2534 106.835 30.8436 106.815 31.3976 106.644C31.5652 106.594 33.0198 105.82 32.9478 105.744C31.2833 107.608 31.7223 110.459 33.6763 111.889C35.6159 113.301 38.2596 112.874 39.4712 110.678C39.4427 110.661 39.1682 112.003 39.1624 112.162C39.1343 112.791 39.2425 113.433 39.5037 114.004C39.9869 115.062 40.8676 115.872 41.9261 116.247C44.1055 117.066 46.5368 115.954 47.2436 113.609C47.2294 113.606 47.2638 114.928 47.2956 115.091C47.4076 115.696 47.65 116.263 47.9941 116.762C48.6094 117.652 49.5641 118.21 50.5816 118.432C52.8711 118.932 55.1709 117.389 55.557 114.958C55.5523 114.959 55.7779 116.237 55.833 116.397C56.0288 116.972 56.3499 117.493 56.7535 117.932C57.5127 118.758 58.5864 119.187 59.6702 119.228C61.9085 119.331 63.9174 117.566 64.0283 115.197C64.0377 115.197 64.3591 116.361 64.4233 116.508C64.6599 117.024 64.9984 117.487 65.41 117.861C66.2999 118.662 67.4707 119.03 68.6352 118.907C69.6687 118.797 70.6758 118.348 71.389 117.542C71.7775 117.102 72.0798 116.574 72.2639 116.007C72.3256 115.828 72.5362 114.355 72.5129 114.358C73.0235 116.639 75.2684 118.081 77.4645 117.554C78.4763 117.311 79.4338 116.74 80.0513 115.848C80.3917 115.35 80.6318 114.771 80.7402 114.169C80.7736 113.987 80.7771 112.475 80.7446 112.485C81.5834 114.773 84.0523 115.748 86.1831 114.819C87.1774 114.424 87.9934 113.605 88.4349 112.599C88.6847 112.032 88.8022 111.421 88.7742 110.798C88.7655 110.622 88.4413 109.126 88.395 109.152C89.6893 111.263 92.3549 111.602 94.2198 110.107C96.1124 108.593 96.4708 105.764 94.7519 103.949C94.7153 103.989 95.9022 104.655 96.0439 104.707C96.6205 104.914 97.2354 104.95 97.8332 104.853C98.9775 104.667 99.9634 103.895 100.588 102.899C101.876 100.778 101.288 97.982 99.0606 96.8835C99.0474 96.9235 100.355 97.117 100.505 97.1138C101.123 97.1036 101.719 96.9257 102.256 96.6065C103.241 96.0171 103.973 94.9819 104.223 93.822C104.737 91.4511 103.451 89.0673 101.101 88.6087C101.089 88.6999 102.796 88.3096 102.977 88.2259C103.65 87.9126 104.215 87.4053 104.627 86.7673C105.425 85.5261 105.57 83.8665 105.024 82.4869C105.242 83.0391 104.8 81.9352 105.024 82.4869Z" fill="#F7A80E"/>
<path d="M98.0941 74.6395C97.5775 73.3462 96.3816 72.4848 95.0354 72.4487C95.0359 72.4706 96.1196 72.0896 96.2446 72.0196C96.7029 71.7629 97.0931 71.3938 97.3925 70.9527C97.9371 70.1544 98.1303 69.151 97.9915 68.1889C97.7248 66.3325 96.118 64.9201 94.307 65.0601C94.3021 65.0509 94.3019 65.0416 94.3017 65.0328C96.2041 64.578 97.2552 62.5393 96.7431 60.6081C96.5126 59.7378 96.0268 58.9783 95.3029 58.4707C94.8932 58.1809 94.4157 57.9984 93.922 57.9336C93.7669 57.9135 92.4657 58.0024 92.4854 58.045C94.2279 57.1524 94.8244 54.9086 93.8897 53.1531C92.9598 51.4048 90.9084 50.6493 89.2021 51.6955C89.2119 51.7119 89.9319 50.7924 89.9993 50.6636C90.2288 50.2374 90.3589 49.7667 90.3995 49.2805C90.4759 48.2999 90.1254 47.3044 89.495 46.5773C88.2148 45.0948 86.0574 44.8384 84.617 46.243C84.6218 46.2477 85.1062 45.2709 85.15 45.1368C85.2984 44.648 85.3385 44.1335 85.2708 43.625C85.1412 42.6569 84.606 41.7866 83.8571 41.2102C82.3114 40.009 80.1094 40.274 78.9941 41.9592C79.0084 41.9672 79.2827 40.8234 79.2934 40.6749C79.3284 40.1473 79.2369 39.6189 79.0431 39.1311C78.7004 38.2738 78.0195 37.5954 77.2142 37.2194C75.4565 36.3917 73.3592 37.1442 72.6236 39.0353C72.6236 39.0368 72.674 37.9425 72.6568 37.802C72.5985 37.2953 72.4237 36.8173 72.1609 36.3874C71.6841 35.6087 70.9079 35.0676 70.0544 34.8454C68.1259 34.3446 66.1369 35.5347 65.7947 37.6217C65.8088 37.6228 65.5953 36.4674 65.5407 36.3284C65.3758 35.8751 65.1182 35.4701 64.7825 35.133C64.1063 34.4515 63.1555 34.0732 62.2143 34.1177C61.2591 34.163 60.3626 34.5321 59.7042 35.2686C59.384 35.6227 59.145 36.0457 59.0007 36.507C58.957 36.6489 58.8003 37.8129 58.8143 37.8111C58.3849 35.8045 56.4769 34.7584 54.612 35.2114C53.7448 35.4218 52.9655 35.9954 52.4861 36.7716C52.2191 37.2002 52.0471 37.6808 51.9882 38.1884C51.9682 38.3444 52.048 39.6004 52.0666 39.5921C51.2327 37.7383 49.152 37.1395 47.4276 38.0052C46.584 38.4283 45.9172 39.2129 45.6286 40.1385C45.4884 40.5787 45.4332 41.0403 45.4811 41.5018C45.4939 41.6575 45.8258 42.8697 45.849 42.8554C44.6499 41.2286 42.4909 41.1116 40.9857 42.3422C40.2492 42.9451 39.7635 43.8588 39.6681 44.8296C39.6222 45.2914 39.6654 45.755 39.8019 46.1967C39.8521 46.3452 40.4302 47.456 40.4485 47.4369C38.9374 46.1112 36.8036 46.4875 35.5867 48.0319C34.3699 49.5827 34.6049 51.9094 36.1553 53.1051C36.1598 53.0972 35.1494 52.7751 35.0177 52.7563C34.5193 52.6872 34.0094 52.7368 33.5352 52.9118C32.6287 53.2474 31.946 53.9488 31.5253 54.8379C30.6704 56.6386 31.4045 58.8544 33.1802 59.6484C33.1933 59.6055 31.8897 59.5859 31.7356 59.6146C31.2455 59.7058 30.7814 59.9133 30.3806 60.2263C29.685 60.7734 29.2432 61.5584 29.0521 62.4386C28.8311 63.454 29.0245 64.5517 29.62 65.3925C29.8814 65.7618 30.2165 66.073 30.592 66.304C30.7108 66.3745 31.7087 66.7688 31.7085 66.757C30.0058 66.712 28.512 68.0342 28.2136 69.7754C27.8533 71.8916 29.2315 73.9787 31.3306 74.1442C31.3347 74.1216 30.2358 74.4472 30.1059 74.5101C29.6841 74.7204 29.3065 75.0231 29.0007 75.3934C28.3892 76.1347 28.116 77.1229 28.1893 78.0881C28.2571 79.0221 28.6189 79.8916 29.271 80.5433C29.6114 80.8808 30.0249 81.1334 30.4691 81.2888C30.6108 81.3392 31.9089 81.5281 31.903 81.4759C29.9497 81.9569 28.9782 83.9951 29.477 85.9599C29.7035 86.8626 30.3077 87.673 31.0775 88.1364C31.5194 88.4005 32.0057 88.5569 32.5124 88.5758C32.6531 88.5812 33.924 88.3932 33.8993 88.3376C32.0467 89.3399 31.6865 91.6704 32.7946 93.4207C33.2855 94.1947 34.0956 94.7834 34.9758 94.9478C35.456 95.0378 35.9478 95.0209 36.4181 94.8779C36.5531 94.8355 37.7713 94.1865 37.7137 94.1239C36.319 95.6849 36.6867 98.0734 38.3262 99.2708C39.9465 100.455 42.1652 100.097 43.1786 98.2564C43.1548 98.2428 42.9269 99.3669 42.9205 99.5001C42.8949 100.027 42.9867 100.565 43.2036 101.043C43.6079 101.93 44.345 102.608 45.2334 102.923C47.0629 103.608 49.0952 102.677 49.6886 100.713C49.6792 100.71 49.7087 101.818 49.7352 101.954C49.8263 102.461 50.0338 102.936 50.3198 103.354C50.8334 104.099 51.6361 104.567 52.4841 104.753C54.4014 105.172 56.3319 103.879 56.6518 101.843C56.6518 101.843 56.8399 102.914 56.8851 103.048C57.0506 103.529 57.3182 103.966 57.6546 104.334C58.2936 105.026 59.1923 105.386 60.1025 105.42C61.9748 105.506 63.6573 104.027 63.7534 102.043C63.758 102.043 64.0284 103.018 64.0827 103.141C64.2799 103.574 64.5652 103.961 64.9098 104.275C65.6514 104.946 66.638 105.254 67.6108 105.151C68.4759 105.059 69.3206 104.683 69.9149 104.008C70.2441 103.638 70.4967 103.197 70.6501 102.721C70.6983 102.572 70.8769 101.337 70.8582 101.34C71.2901 103.25 73.1689 104.459 75.0059 104.018C75.8545 103.814 76.6594 103.336 77.1723 102.588C77.4583 102.171 77.6584 101.686 77.7502 101.181C77.7796 101.029 77.7839 99.7627 77.756 99.7712C78.46 101.687 80.5268 102.504 82.3141 101.726C83.1458 101.396 83.8288 100.709 84.199 99.8654C84.4087 99.3913 84.505 98.8788 84.4839 98.3575C84.4759 98.21 84.204 96.9567 84.167 96.9786C85.2473 98.7463 87.4804 99.0312 89.0461 97.7786C90.6302 96.5099 90.9332 94.1397 89.4881 92.6196C89.4607 92.6531 90.4576 93.2112 90.5758 93.2543C91.0532 93.4281 91.5695 93.4585 92.0739 93.3767C93.0267 93.2214 93.8559 92.5747 94.381 91.7397C95.4567 89.963 94.9682 87.6205 93.1006 86.7006C93.0873 86.7336 94.1832 86.8962 94.3097 86.8931C94.8252 86.8849 95.3281 86.7357 95.7768 86.468C96.6001 85.9744 97.2135 85.1075 97.426 84.1354C97.8549 82.1495 96.7741 80.1525 94.8107 79.768C94.7983 79.8446 96.2301 79.5177 96.3785 79.4476C96.9445 79.1848 97.4178 78.76 97.7621 78.2258C98.4325 77.1858 98.5513 75.7953 98.0941 74.6395C98.2779 75.1021 97.9103 74.1774 98.0941 74.6395Z" fill="#F2CC46"/>
<path d="M91.1618 66.791C90.7446 65.7482 89.782 65.0537 88.6939 65.0249C88.6942 65.0421 89.5686 64.7351 89.6705 64.6788C90.0408 64.4712 90.3576 64.1739 90.5981 63.8184C91.0383 63.1742 91.1936 62.3654 91.0825 61.5895C90.866 60.0928 89.5701 58.954 88.1101 59.0669C88.1052 59.0592 88.1051 59.0518 88.1049 59.0445C89.6389 58.6779 90.4833 57.034 90.0733 55.477C89.8841 54.7753 89.5001 54.1631 88.9143 53.7538C88.5809 53.5199 88.1979 53.3727 87.7982 53.3203C87.6713 53.3043 86.6276 53.3758 86.6377 53.4103C88.0466 52.6907 88.5263 50.8811 87.7727 49.4655C87.0238 48.0561 85.3694 47.4469 83.9914 48.2905C84.0011 48.3034 84.5798 47.5625 84.6384 47.4584C84.8229 47.1149 84.9269 46.7353 84.9556 46.3433C85.0222 45.5523 84.737 44.7498 84.2316 44.1635C83.1969 42.968 81.4578 42.7615 80.2973 43.8936C80.302 43.8974 80.6922 43.1098 80.7273 43.0018C80.8497 42.6076 80.8779 42.1931 80.8218 41.7832C80.7199 41.0021 80.287 40.3005 79.6812 39.836C78.436 38.8672 76.6594 39.0807 75.7618 40.4393C75.776 40.4458 75.9943 39.5235 76.001 39.4044C76.029 38.9787 75.9585 38.5525 75.7997 38.1592C75.5263 37.468 74.9796 36.9208 74.3259 36.6174C72.9093 35.9501 71.2213 36.5571 70.6227 38.0821C70.6274 38.0834 70.6639 37.2007 70.6519 37.0875C70.6053 36.6788 70.4654 36.2934 70.2513 35.947C69.8669 35.3186 69.243 34.8823 68.5546 34.7035C66.9986 34.2998 65.3935 35.2594 65.1219 36.9417C65.1313 36.9429 64.9557 36.0116 64.9157 35.8991C64.7809 35.5336 64.572 35.2071 64.3034 34.9354C63.7567 34.3858 62.9904 34.0807 62.2318 34.1168C61.4639 34.1531 60.7393 34.4511 60.2042 35.0447C59.9527 35.3301 59.7588 35.6713 59.6406 36.0434C59.6057 36.1577 59.4814 37.0959 59.4908 37.0947C59.1404 35.4771 57.6026 34.6332 56.1014 34.9985C55.4021 35.1682 54.7749 35.6305 54.3858 36.2562C54.1733 36.6023 54.032 36.9897 53.9849 37.3993C53.969 37.5249 54.0339 38.5377 54.0525 38.5308C53.3767 37.036 51.6971 36.5537 50.3065 37.2513C49.625 37.5927 49.0908 38.2249 48.8591 38.9715C48.7452 39.3265 48.702 39.6987 48.7385 40.071C48.7506 40.1964 49.0163 41.174 49.0348 41.1623C48.0679 39.8507 46.3266 39.7562 45.116 40.7483C44.5175 41.2348 44.1263 41.9717 44.0501 42.7541C44.0163 43.1266 44.0481 43.5 44.1592 43.8563C44.1994 43.9761 44.6648 44.872 44.6785 44.8565C43.4639 43.7877 41.7409 44.0909 40.7611 45.3365C39.7813 46.5866 39.9687 48.4631 41.2185 49.4269C41.2231 49.4204 40.4063 49.1606 40.3028 49.146C39.8984 49.0898 39.4868 49.1302 39.1056 49.2711C38.3757 49.5418 37.8259 50.1069 37.4857 50.8243C36.7964 52.2761 37.3896 54.063 38.8197 54.7031C38.833 54.6685 37.7779 54.6532 37.6565 54.6757C37.2597 54.7494 36.8838 54.9166 36.5613 55.169C35.9994 55.6107 35.6479 56.2433 35.4904 56.9529C35.3166 57.7715 35.4677 58.657 35.9517 59.3348C36.16 59.6325 36.4281 59.8837 36.737 60.0693C36.8273 60.1268 37.6314 60.4446 37.6358 60.4347C36.2615 60.3983 35.0573 61.4646 34.8169 62.8688C34.5271 64.5749 35.6384 66.2582 37.3289 66.3915C37.3285 66.3735 36.4438 66.6357 36.3418 66.6866C36.0034 66.8562 35.6948 67.1005 35.4483 67.399C34.9555 67.9965 34.739 68.7931 34.794 69.5718C34.8484 70.3247 35.1454 71.0261 35.6681 71.5514C35.9414 71.8235 36.2741 72.0272 36.6332 72.1524C36.7466 72.1932 37.7954 72.3456 37.7898 72.3032C36.2141 72.6913 35.4306 74.3352 35.8319 75.9194C36.0169 76.647 36.5051 77.3003 37.1275 77.6739C37.4792 77.8874 37.8711 78.0133 38.284 78.0287C38.3966 78.0328 39.4198 77.8812 39.4 77.8361C37.9087 78.6448 37.6134 80.5237 38.5076 81.9355C38.906 82.5591 39.5589 83.0338 40.2697 83.1666C40.6557 83.2388 41.0539 83.2252 41.431 83.1099C41.5427 83.0753 42.5247 82.5525 42.4767 82.5018C41.3518 83.7608 41.6482 85.687 42.9684 86.6525C44.2742 87.6067 46.0631 87.318 46.883 85.8341C46.864 85.8233 46.678 86.7298 46.6758 86.8369C46.6525 87.2625 46.7279 87.696 46.9053 88.081C47.2307 88.7964 47.8243 89.3434 48.5425 89.5968C50.0128 90.1493 51.6553 89.3986 52.1308 87.8151C52.1213 87.8124 52.1461 88.7058 52.1673 88.8158C52.2421 89.2244 52.41 89.6071 52.6426 89.9448C53.0546 90.5456 53.7006 90.9226 54.3883 91.0726C55.9335 91.4105 57.4851 90.3681 57.7483 88.7261C57.7483 88.7261 57.8989 89.5901 57.9342 89.6983C58.0694 90.0863 58.2836 90.4381 58.5575 90.7352C59.0716 91.2924 59.7953 91.5829 60.5272 91.6105C62.0382 91.6803 63.3943 90.4875 63.4708 88.8873C63.4755 88.8872 63.6948 89.6737 63.7392 89.7729C63.897 90.1217 64.1244 90.434 64.4066 90.6868C65.0047 91.2283 65.7978 91.4765 66.5835 91.3933C67.2803 91.3196 67.9626 91.0158 68.4426 90.4715C68.7031 90.1741 68.9107 89.8179 69.0333 89.4344C69.0728 89.3141 69.2192 88.3186 69.2005 88.321C69.5492 89.861 71.0664 90.8354 72.5444 90.4795C73.2298 90.3151 73.8774 89.93 74.2952 89.3266C74.5267 88.9903 74.6867 88.6 74.7572 88.1928C74.7826 88.0699 74.7878 87.0486 74.7645 87.0555C75.3289 88.6009 76.9984 89.2591 78.4375 88.6322C79.1113 88.3654 79.6614 87.8115 79.9602 87.1317C80.125 86.7496 80.2048 86.3364 80.186 85.9157C80.1833 85.7969 79.9638 84.7859 79.9313 84.8038C80.8071 86.2292 82.603 86.4588 83.8647 85.4489C85.1449 84.4262 85.388 82.5148 84.226 81.2891C84.1985 81.3162 85.0055 81.7661 85.1001 81.8009C85.4876 81.9411 85.9053 81.9652 86.307 81.8996C87.0776 81.7742 87.7457 81.2527 88.1665 80.5797C89.0391 79.1469 88.6404 77.2584 87.1378 76.5164C87.1243 76.5432 88.0085 76.6737 88.1116 76.6717C88.5286 76.6649 88.9338 76.545 89.2945 76.3288C89.9606 75.9311 90.4559 75.2318 90.6258 74.4481C90.9695 72.8467 90.099 71.2364 88.5123 70.9263C88.509 70.9881 89.6609 70.7242 89.7815 70.668C90.2361 70.4558 90.6175 70.1135 90.8938 69.6827C91.4375 68.8438 91.5342 67.7229 91.1618 66.791C91.3108 67.164 91.0128 66.4185 91.1618 66.791Z" fill="#F8E298"/>
<path d="M52.0029 51.8091C53.8964 52.2085 55.785 52.8129 57.3718 53.9627C58.9586 55.1124 60.2169 56.8733 60.4493 58.8739C60.7862 61.7674 58.9947 64.4474 57.0686 66.5588C53.4223 70.5551 48.6764 73.807 43.4017 74.1787C45.5219 73.4066 47.4867 72.1838 49.1483 70.6066C45.337 72.8965 40.5415 73.3119 36.4179 71.709C38.9607 72.4275 41.7527 72.1388 44.1112 70.9129C40.8572 71.7151 37.2722 70.7197 34.7458 68.4308C32.224 66.1418 30.7907 62.6411 30.8201 59.1526C30.83 57.7101 31.1193 56.1902 32.0421 55.1177C32.7229 54.3288 33.6734 53.8634 34.6161 53.4682C40.096 51.1733 46.2191 50.5891 52.0029 51.8091Z" fill="#F7A80E"/>
<path d="M73.3889 51.2877C71.5155 51.779 69.6513 52.4749 68.1179 53.7008C66.5891 54.9266 65.4112 56.7469 65.2688 58.7566C65.0622 61.6635 66.9672 64.2532 68.986 66.2684C72.8077 70.0825 77.6944 73.0993 82.9846 73.2134C80.8321 72.5454 78.8098 71.42 77.084 69.9254C80.9938 72.027 85.8028 72.208 89.8453 70.4059C87.3375 71.2476 84.5403 71.0953 82.1293 69.9857C85.4157 70.6284 88.9521 69.4593 91.3684 67.0497C93.7894 64.6401 95.0641 61.0733 94.878 57.5902C94.7988 56.1498 94.4463 54.6456 93.4763 53.6192C92.7609 52.8644 91.7859 52.446 90.8265 52.0972C85.2542 50.0719 79.1117 49.7869 73.3889 51.2877Z" fill="#F7A80E"/>
<path d="M97.033 47.4566C97.2556 57.3694 89.7383 65.5935 80.2369 65.8253C70.7355 66.0571 62.8528 58.2087 62.6303 48.2959C62.4077 38.3825 69.9296 30.1588 79.431 29.927C88.9324 29.6952 96.8104 37.5432 97.033 47.4566Z" fill="#523B1A"/>
<path d="M94.7444 48.0964C94.946 57.0771 88.1333 64.5278 79.5221 64.7379C70.9156 64.9478 63.776 57.8375 63.5744 48.8568C63.3728 39.8762 70.1854 32.4254 78.792 32.2155C87.4032 32.0054 94.5428 39.1157 94.7444 48.0964Z" fill="#D1B86C"/>
<path d="M94.7444 48.0964C94.946 57.0771 88.1333 64.5278 79.5221 64.7379C70.9156 64.9478 63.776 57.8375 63.5744 48.8568C63.3728 39.8762 70.1854 32.4254 78.792 32.2155C87.4032 32.0054 94.5428 39.1157 94.7444 48.0964Z" fill="#D1B86C"/>
<path d="M93.2512 48.1335C93.4335 56.2538 87.2751 62.9906 79.4885 63.1806C71.7065 63.3704 65.2526 56.9413 65.0703 48.821C64.888 40.7006 71.0463 33.9638 78.8283 33.7739C86.6149 33.584 93.0689 40.0131 93.2512 48.1335Z" fill="#F3ED99"/>
<path d="M85.7518 41.2687C85.8391 45.1588 82.888 48.3859 79.1587 48.4769C75.434 48.5678 72.3413 45.4881 72.254 41.598C72.1667 37.7084 75.1178 34.4813 78.8424 34.3904C82.5718 34.2994 85.6645 37.3791 85.7518 41.2687Z" fill="#D4C18D"/>
<path d="M83.8865 41.3145C83.9497 44.1291 81.8129 46.4639 79.1143 46.5297C76.4204 46.5954 74.1812 44.3675 74.118 41.5528C74.0549 38.7387 76.1915 36.4039 78.8855 36.3382C81.5841 36.2724 83.8233 38.5003 83.8865 41.3145Z" fill="#2E2227"/>
<path d="M78.967 39.9407C78.9855 40.7653 78.3633 41.4491 77.5716 41.4684C76.7798 41.4878 76.1276 40.8351 76.1091 40.0104C76.0906 39.1858 76.7127 38.502 77.5045 38.4827C78.2963 38.4634 78.9485 39.1161 78.967 39.9407Z" fill="white"/>
<path d="M70.0102 40.8225C71.5834 41.1563 72.402 43.7916 71.8346 46.7082C71.2626 49.6254 69.5283 51.719 67.9504 51.3853C66.3772 51.051 65.5633 48.4155 66.1307 45.4989C66.698 42.5818 68.437 40.4882 70.0102 40.8225Z" fill="white"/>
<path d="M82.5764 60.4451C75.1411 60.6265 68.6422 56.1592 65.6305 49.5889C65.9185 54.8983 69.1362 59.7889 74.2109 61.7868C78.7086 63.5567 83.5486 62.6169 87.0797 59.7474C85.6452 60.1658 84.1318 60.4072 82.5764 60.4451Z" fill="#D4C18D"/>
<path d="M26.7904 49.1709C27.013 59.0837 34.8957 66.9321 44.3971 66.7003C53.8985 66.4685 61.4204 58.2443 61.1978 48.3314C60.9753 38.4181 53.0925 30.5702 43.5911 30.802C34.0898 31.0338 26.5678 39.2575 26.7904 49.1709Z" fill="#523B1A"/>
<path d="M29.1056 49.6981C29.3073 58.6788 36.4469 65.7892 45.0534 65.5792C53.6646 65.3691 60.4773 57.9184 60.2756 48.9377C60.074 39.957 52.9345 32.8467 44.3233 33.0568C35.7167 33.2667 28.904 40.7175 29.1056 49.6981Z" fill="#D1B86C"/>
<path d="M29.1056 49.6981C29.3073 58.6788 36.4469 65.7892 45.0534 65.5792C53.6646 65.3691 60.4773 57.9184 60.2756 48.9377C60.074 39.957 52.9345 32.8467 44.3233 33.0568C35.7167 33.2667 28.904 40.7175 29.1056 49.6981Z" fill="#D1B86C"/>
<path d="M30.6016 49.6618C30.7839 57.7821 37.2378 64.2113 45.0198 64.0214C52.8064 63.8314 58.9648 57.0946 58.7825 48.9743C58.6001 40.8539 52.1462 34.4248 44.3596 34.6148C36.5776 34.8046 30.4193 41.5415 30.6016 49.6618Z" fill="#F3ED99"/>
<path d="M37.7852 42.4398C37.8726 46.3299 40.9653 49.4096 44.6899 49.3187C48.4193 49.2277 51.3703 46.0006 51.283 42.1105C51.1957 38.2209 48.103 35.1412 44.3737 35.2322C40.649 35.3231 37.6979 38.5502 37.7852 42.4398Z" fill="#D4C18D"/>
<path d="M39.6493 42.3931C39.7125 45.2078 41.9516 47.4358 44.6456 47.37C47.3442 47.3042 49.4809 44.9695 49.4177 42.1548C49.3545 39.3407 47.1154 37.1127 44.4168 37.1786C41.7228 37.2443 39.5861 39.579 39.6493 42.3931Z" fill="#2E2227"/>
<path d="M44.4978 40.7819C44.5163 41.6066 45.1731 42.2591 45.9649 42.2398C46.7567 42.2205 47.3789 41.5367 47.3603 40.7121C47.3418 39.8874 46.6896 39.2347 45.8979 39.2541C45.1061 39.2734 44.4792 39.9573 44.4978 40.7819Z" fill="white"/>
<path d="M34.782 42.7108C36.3792 42.8646 37.4672 45.3916 37.2057 48.3555C36.9441 51.3194 35.4342 53.5982 33.837 53.4445C32.235 53.2914 31.1517 50.7643 31.4133 47.7998C31.6702 44.836 33.18 42.5577 34.782 42.7108Z" fill="white"/>
<path d="M41.8158 61.4399C49.2511 61.2585 55.5424 56.4792 58.2559 49.7692C58.2066 55.0868 55.2119 60.1291 50.2324 62.3722C45.819 64.3595 40.9421 63.6568 37.2862 60.9626C38.7378 61.3106 40.2557 61.478 41.8158 61.4399Z" fill="#D4C18D"/>
<path d="M64.7627 50.5539C64.3206 50.0717 63.8094 49.641 63.2156 49.5024C62.6454 49.3682 61.989 49.5705 61.6497 50.1192C61.2815 49.5868 60.6214 49.4151 60.0531 49.5762C59.4708 49.7415 58.9748 50.1957 58.5548 50.6975C56.3178 53.3692 55.7781 57.5182 56.386 61.2072C56.9938 64.8963 58.5832 68.2503 60.1522 71.532C60.2702 71.7742 61.2366 73.2697 62.1596 73.2487C63.0779 73.2273 63.9481 71.6888 64.0503 71.4413C65.4799 68.0904 66.9265 64.6657 67.3775 60.9523C67.8238 57.239 67.1126 53.1186 64.7627 50.5539Z" fill="#2D1615"/>
<path d="M59.89 50.2296C59.4608 50.3212 59.1508 50.7137 58.8969 51.0989C57.1161 53.8363 56.5953 57.3631 56.8999 60.7001C57.2314 64.3984 58.5262 67.9909 60.5945 70.9611C60.9529 71.4757 61.4716 72.0265 62.0496 71.8803C62.7114 71.7126 62.8925 70.7975 62.9369 70.0613C63.3111 63.9717 63.545 57.6841 61.6254 51.9411C61.4796 51.5055 61.3197 51.0638 61.0307 50.7187C60.7463 50.3735 60.3098 50.1391 59.89 50.2296Z" fill="#EE8B40"/>
<path d="M62.8691 50.152C62.2868 50.313 62.0258 51.005 61.8659 51.61C60.2285 57.812 60.1102 64.4451 61.5305 70.706C61.6296 71.1486 61.7957 71.6591 62.2158 71.7907C62.7352 71.9561 63.1964 71.4093 63.4808 70.9211C66.0343 66.4824 67.1191 61.1385 66.5021 55.9995C66.2597 53.9708 65.6677 51.8239 64.1207 50.5661C63.7625 50.2745 63.307 50.0308 62.8691 50.152Z" fill="#F2591D"/>
<path d="M63.2774 61.8928C63.3894 66.8793 62.8008 70.938 61.9715 70.9582C61.1376 70.9785 60.3722 66.9529 60.2602 61.9664C60.1483 56.9799 60.7322 52.9214 61.5661 52.901C62.3954 52.8808 63.1655 56.9063 63.2774 61.8928Z" fill="#F3DE3E"/>
<path d="M61.8992 58.9215C62.234 58.8048 62.3606 58.3855 62.3993 58.0216C62.5375 56.8718 62.3186 55.6808 61.7895 54.6632C60.9927 55.5029 60.6979 56.7812 60.9114 57.9395C60.9596 58.2049 61.0359 58.474 61.2046 58.6787C61.3779 58.8829 61.6573 59.0076 61.8992 58.9215Z" fill="white"/>
<path d="M62.2401 61.7952C62.0511 61.1048 61.8622 60.4144 61.6686 59.7246C61.3143 60.4385 61.164 61.2624 61.2476 62.0625C61.2667 62.2841 61.3093 62.5119 61.4352 62.6922C61.5612 62.8731 61.7889 62.9932 61.989 62.9282C62.1891 62.8651 62.3108 62.6469 62.3341 62.4316C62.3574 62.2169 62.2963 62.0027 62.2401 61.7952Z" fill="white"/>
<path d="M50.9223 127.344C50.0506 126.726 48.8515 127.19 48.0037 127.842C46.0729 129.327 44.8787 131.677 44.3333 134.112C43.7833 136.546 43.8309 139.082 43.9994 141.577C44.0218 141.95 44.0974 142.394 44.4242 142.543C44.8693 142.742 45.2892 142.234 45.5278 141.797C46.7885 139.488 48.0492 137.179 49.3146 134.869C49.9853 133.635 50.6654 132.397 51.208 131.095C51.4706 130.469 51.7043 129.812 51.7124 129.13C51.7205 128.447 51.4653 127.727 50.9223 127.344Z" fill="#EDA263"/>
<path d="M49.94 127.574C49.448 127.586 48.8536 127.837 48.3006 128.261C46.6325 129.547 45.3958 131.667 44.8158 134.231C44.2705 136.669 44.3411 139.186 44.4971 141.542C44.5263 142.01 44.6213 142.066 44.626 142.066L44.6308 142.068C44.6917 142.066 44.8944 141.906 45.0971 141.541L48.8839 134.613C49.5412 133.405 50.2211 132.162 50.7503 130.888C50.9861 130.324 51.2069 129.719 51.2123 129.123C51.2208 128.67 51.0716 128.077 50.6476 127.775C50.4476 127.633 50.2164 127.568 49.94 127.574ZM44.6541 143.107C44.5089 143.111 44.3676 143.081 44.2303 143.02C43.5768 142.727 43.5258 141.918 43.5049 141.614C43.3424 139.177 43.2697 136.567 43.8495 133.994C44.4756 131.19 45.8483 128.857 47.71 127.425C48.1293 127.102 48.9703 126.559 49.9167 126.535C50.3992 126.524 50.8333 126.651 51.2049 126.914C51.8384 127.362 52.2231 128.213 52.2111 129.137C52.2004 129.917 51.9448 130.639 51.6644 131.303C51.1129 132.629 50.4194 133.896 49.7531 135.121L45.9618 142.055C45.7501 142.442 45.3007 143.091 44.6541 143.107Z" fill="#292625"/>
<path d="M49.5214 131.701C49.6162 131.124 49.6872 130.526 49.5525 129.957C49.3702 131.024 48.7076 131.991 47.8008 132.524C48.0105 133.305 48.0531 134.159 47.7748 134.918C47.4965 135.676 46.8687 136.319 46.1031 136.458C46.242 137.847 46.0069 139.275 45.4258 140.534C46.4994 138.452 47.5683 136.371 48.642 134.289C48.8396 133.905 49.0372 133.52 49.1827 133.111C49.3459 132.656 49.4431 132.179 49.5214 131.701Z" fill="#DC7029"/>
<path d="M54.072 127.268C54.9151 126.608 56.1382 127.012 57.0145 127.623C59.0051 129.012 60.3081 131.301 60.9621 133.706C61.6161 136.112 61.6825 138.647 61.6308 141.147C61.6204 141.521 61.5695 141.968 61.2451 142.133C60.814 142.353 60.3672 141.866 60.1092 141.442C58.7463 139.197 57.3833 136.952 56.0204 134.706C55.2903 133.506 54.5601 132.303 53.9549 131.028C53.6693 130.415 53.4063 129.771 53.3676 129.09C53.3288 128.408 53.5468 127.677 54.072 127.268Z" fill="#EDA263"/>
<path d="M55.0645 127.449C54.7928 127.456 54.5648 127.533 54.3714 127.684C53.9567 128.007 53.8389 128.606 53.8631 129.059C53.8953 129.655 54.1429 130.247 54.4037 130.799C54.9944 132.05 55.7294 133.259 56.44 134.428L60.5336 141.164C60.7478 141.518 60.9574 141.669 61.0183 141.668C61.0276 141.664 61.1199 141.599 61.1283 141.136C61.1831 138.776 61.136 136.259 60.4818 133.849C59.7921 131.316 58.4615 129.259 56.7329 128.056C56.1661 127.659 55.5565 127.437 55.0645 127.449ZM61.023 141.668L61.0347 142.188L61.023 141.668ZM61.0463 142.707C60.3951 142.723 59.9169 142.096 59.6882 141.721L55.5993 134.985C54.8741 133.792 54.1245 132.559 53.5094 131.258C53.2041 130.609 52.9117 129.901 52.866 129.121C52.8172 128.199 53.1633 127.329 53.7714 126.852C54.1307 126.571 54.5586 126.422 55.0412 126.411C55.9876 126.387 56.8567 126.89 57.2901 127.192C59.2093 128.531 60.6852 130.795 61.4411 133.565C62.1359 136.115 62.1782 138.835 62.1273 141.159C62.1194 141.435 62.1007 142.275 61.4611 142.6C61.3314 142.668 61.1916 142.704 61.0463 142.707Z" fill="#292625"/>
<path d="M57.5957 131.887C57.5317 132.794 57.7024 133.718 58.0818 134.537C58.2149 134.828 58.3806 135.11 58.6149 135.316C58.8539 135.522 59.1754 135.642 59.4785 135.571C59.352 136.412 59.6196 137.262 59.9372 138.045C60.1455 138.554 60.3817 139.052 60.6363 139.536C60.4754 139.466 60.3549 139.321 60.2439 139.181C59.6697 138.452 59.1139 137.705 58.558 136.958C58.3067 136.62 58.0554 136.283 57.804 135.945C57.6493 135.737 57.4946 135.528 57.3445 135.315C56.308 133.828 55.5571 132.12 55.1606 130.326C55.0408 129.792 54.9618 129.198 55.2277 128.724C55.8082 129.94 56.4558 131.226 57.5957 131.887Z" fill="#DC7029"/>
<path d="M55.6419 132.683C55.7252 136.396 54.4933 143.325 52.7785 143.367C51.0685 143.409 49.5269 136.547 49.4435 132.834C49.3601 129.121 50.6794 126.078 52.3895 126.036C54.1042 125.994 55.5585 128.97 55.6419 132.683Z" fill="#EDA263"/>
<path d="M52.4005 126.557C51.173 126.586 49.8575 129.167 49.9396 132.823C50.0327 136.971 51.6981 142.874 52.7663 142.848C53.8392 142.822 55.2332 136.844 55.14 132.696C55.058 129.04 53.6327 126.526 52.4005 126.557ZM52.7896 143.887C50.419 143.945 49.0163 136.175 48.9416 132.847C48.8504 128.786 50.3626 125.566 52.3772 125.517C54.3965 125.468 56.0468 128.611 56.1379 132.671C56.2127 136 55.165 143.829 52.7896 143.887Z" fill="#292625"/>
<path d="M46.8739 130.758C46.8934 130.997 47.0526 131.199 47.2111 131.37C47.3504 131.518 47.5224 131.664 47.7192 131.662C48.0332 131.659 48.2224 131.311 48.3516 131.012C48.5117 130.625 48.6762 130.229 48.7089 129.809C48.7464 129.388 48.6283 128.931 48.3176 128.663C47.9142 129.071 47.535 129.509 47.1891 129.972C47.0161 130.203 46.844 130.468 46.8739 130.758Z" fill="#F3ED99"/>
<path d="M46.3517 131.915C46.2164 131.945 46.1352 132.082 46.0723 132.208C45.5025 133.344 45.2648 134.656 45.3965 135.93C45.409 136.067 45.4501 136.231 45.5776 136.271C45.7287 136.321 45.8561 136.146 45.9324 135.997C46.2286 135.408 46.5247 134.819 46.8209 134.23C46.9824 133.905 47.1527 133.559 47.1304 133.192C47.1034 132.826 46.6969 131.838 46.3517 131.915Z" fill="#F3ED99"/>
<path d="M50.7188 132.823C50.8048 133.103 50.9661 133.398 51.2396 133.47C51.5037 133.541 51.7856 133.36 51.9301 133.114C52.0746 132.869 52.1101 132.573 52.1412 132.287C52.2895 130.753 52.2923 129.205 52.1547 127.67C52.137 127.506 52.0665 127.293 51.9122 127.308C51.828 127.315 51.7687 127.386 51.7186 127.453C51.0137 128.418 50.7225 129.648 50.6043 130.856C50.5394 131.514 50.5265 132.194 50.7188 132.823Z" fill="#F3ED99"/>
<path d="M51.4307 134.07C51.3235 134.098 51.2172 134.165 51.1586 134.268C51.1224 134.329 51.1053 134.399 51.0928 134.468C50.902 135.367 51.0964 136.303 51.3599 137.18C51.4257 137.399 51.5011 137.624 51.6548 137.787C51.7412 137.879 51.8647 137.95 51.986 137.923C52.1679 137.883 52.2472 137.658 52.2804 137.468C52.4105 136.791 52.4559 136.096 52.4217 135.407C52.4097 135.084 52.3694 134.75 52.2085 134.473C52.0523 134.197 51.7337 133.995 51.4307 134.07Z" fill="#F3ED99"/>
<path d="M57.8549 129.606C57.4365 129.138 56.9856 128.677 56.4266 128.415C56.3508 128.38 56.261 128.348 56.182 128.379C56.1292 128.741 56.2406 129.112 56.4258 129.424C56.6063 129.737 56.8512 130.001 57.0962 130.262C57.3026 130.48 57.5091 130.698 57.7109 130.917C57.8933 131.108 58.1183 131.316 58.3749 131.265C58.5236 130.996 58.5018 130.648 58.3828 130.36C58.2638 130.073 58.0569 129.835 57.8549 129.606Z" fill="#F3ED99"/>
<path d="M59.561 133.506C59.6659 132.957 59.3911 132.41 59.0715 131.957C58.9843 131.829 58.8311 131.689 58.7017 131.767C58.4748 132.312 58.4988 132.961 58.7637 133.486C58.8227 133.608 58.9003 133.726 59.0099 133.801C59.1194 133.876 59.2699 133.9 59.3808 133.83C59.4871 133.764 59.5357 133.632 59.561 133.506Z" fill="#F3ED99"/>
<path d="M52.6465 142.085C53.2038 142.061 53.5223 141.421 53.6973 140.868C54.6741 137.813 54.9376 134.514 54.4677 131.331C54.2358 129.774 53.7486 128.117 52.5141 127.208C52.9361 130.557 53.1432 133.934 53.1347 137.311C53.1345 137.93 53.125 138.549 53.106 139.168C53.0767 140.158 53.0198 141.173 52.6465 142.085Z" fill="#DC7029"/>
<path d="M75.6281 126.742C74.7517 126.124 73.5527 126.587 72.7048 127.24C70.774 128.725 69.5799 131.074 69.0345 133.509C68.4845 135.944 68.532 138.48 68.7005 140.974C68.723 141.347 68.7986 141.792 69.1253 141.94C69.5704 142.139 69.9903 141.632 70.229 141.195C71.4897 138.886 72.7551 136.576 74.0157 134.267C74.6912 133.033 75.3666 131.795 75.9092 130.492C76.1717 129.866 76.4054 129.21 76.4136 128.527C76.4217 127.845 76.1664 127.125 75.6281 126.742Z" fill="#EDA263"/>
<path d="M74.6391 126.971C74.1472 126.983 73.5528 127.234 72.9998 127.658C71.3317 128.944 70.0949 131.064 69.5196 133.628C68.9697 136.067 69.0402 138.583 69.1962 140.939C69.2255 141.406 69.3252 141.462 69.3252 141.463L69.3299 141.464C69.3908 141.463 69.5982 141.302 69.7962 140.938L73.583 134.009C74.2404 132.807 74.9203 131.563 75.4495 130.284C75.6899 129.72 75.9061 129.117 75.9161 128.52C75.92 128.066 75.7754 127.474 75.3467 127.171C75.1467 127.03 74.9155 126.964 74.6391 126.971ZM69.3533 142.504C69.208 142.507 69.0667 142.478 68.9294 142.417C68.2759 142.123 68.2196 141.286 68.204 141.01C68.0488 138.691 67.969 135.971 68.5486 133.391C69.1748 130.587 70.5474 128.254 72.4091 126.821C72.8284 126.499 73.6694 125.955 74.6158 125.932C75.0983 125.92 75.5325 126.048 75.904 126.311C76.5375 126.758 76.9223 127.61 76.9102 128.534C76.8996 129.315 76.6439 130.036 76.3635 130.7C75.8121 132.029 75.1187 133.297 74.4478 134.524L70.6609 141.452C70.4493 141.838 69.9998 142.488 69.3533 142.504Z" fill="#292625"/>
<path d="M74.2207 131.099C74.3155 130.522 74.3865 129.924 74.2565 129.355C74.0695 130.422 73.4068 131.389 72.5047 131.922C72.7097 132.703 72.7524 133.557 72.4741 134.316C72.1958 135.074 71.568 135.717 70.8023 135.856C70.9413 137.245 70.7062 138.673 70.125 139.932C71.1986 137.85 72.2676 135.769 73.3412 133.687C73.5389 133.303 73.7364 132.918 73.882 132.509C74.0452 132.054 74.1423 131.577 74.2207 131.099Z" fill="#DC7029"/>
<path d="M78.7713 126.666C79.6143 126.006 80.8375 126.41 81.7137 127.021C83.7043 128.41 85.0073 130.699 85.6613 133.104C86.3154 135.51 86.3817 138.045 86.33 140.545C86.3196 140.919 86.2687 141.366 85.9443 141.531C85.5133 141.751 85.0711 141.264 84.8131 140.84C83.4455 138.595 82.0825 136.349 80.7196 134.104C79.9895 132.904 79.2593 131.701 78.6588 130.426C78.3685 129.813 78.1055 129.169 78.0668 128.487C78.0281 127.806 78.246 127.075 78.7713 126.666Z" fill="#EDA263"/>
<path d="M79.7681 126.846C79.4917 126.853 79.2637 126.93 79.0702 127.081C78.6556 127.404 78.5378 128.003 78.562 128.456C78.5941 129.05 78.8418 129.644 79.1027 130.196C79.6932 131.443 80.4235 132.651 81.1341 133.819L85.2325 140.561C85.4467 140.915 85.6563 141.066 85.7219 141.065C85.7312 141.061 85.8189 140.996 85.8319 140.533C85.882 138.173 85.8396 135.657 85.1808 133.246C84.4911 130.713 83.1605 128.656 81.4365 127.453C80.8651 127.056 80.2554 126.834 79.7681 126.846ZM85.7219 141.065L85.7336 141.585L85.7219 141.065ZM85.7453 142.104C85.0987 142.12 84.6159 141.493 84.3871 141.118L80.2983 134.382C79.5682 133.184 78.8234 131.953 78.2083 130.655C77.903 130.004 77.6106 129.295 77.5697 128.518C77.5162 127.596 77.8623 126.727 78.4703 126.249C78.8296 125.968 79.2576 125.819 79.7448 125.808C80.6865 125.785 81.5556 126.287 81.989 126.589C83.9082 127.928 85.3841 130.192 86.14 132.962C86.8348 135.512 86.8771 138.232 86.8262 140.556C86.819 140.862 86.7997 141.672 86.1647 141.997C86.0303 142.065 85.8905 142.101 85.7453 142.104Z" fill="#292625"/>
<path d="M82.297 131.284C82.233 132.191 82.4037 133.115 82.7831 133.934C82.9162 134.225 83.0819 134.507 83.3162 134.713C83.5552 134.919 83.8766 135.039 84.1797 134.968C84.0533 135.809 84.3209 136.659 84.6431 137.442C84.8514 137.951 85.0829 138.449 85.3376 138.933C85.1766 138.863 85.0609 138.718 84.9499 138.578C84.371 137.849 83.8152 137.102 83.2593 136.355C83.008 136.017 82.7567 135.68 82.5053 135.343C82.3506 135.134 82.1959 134.925 82.0458 134.712C81.0093 133.225 80.2584 131.517 79.8619 129.723C79.7468 129.189 79.6631 128.595 79.929 128.121C80.5142 129.337 81.1618 130.623 82.297 131.284Z" fill="#DC7029"/>
<path d="M80.3411 132.081C80.4245 135.794 79.1925 142.723 77.4777 142.765C75.7677 142.806 74.2261 135.945 74.1427 132.232C74.0594 128.519 75.3786 125.476 77.0886 125.434C78.8034 125.392 80.2577 128.368 80.3411 132.081Z" fill="#EDA263"/>
<path d="M77.1017 125.954C75.8742 125.983 74.5586 128.564 74.6407 132.22C74.7338 136.368 76.3992 142.271 77.4674 142.245C78.5403 142.219 79.9343 136.241 79.8411 132.093C79.7591 128.437 78.3338 125.923 77.1017 125.954ZM77.4908 143.284C75.1201 143.342 73.7175 135.572 73.6428 132.244C73.5516 128.183 75.0637 124.963 77.0783 124.914C79.0976 124.865 80.7479 128.008 80.8391 132.068C80.9138 135.397 79.8661 143.226 77.4908 143.284Z" fill="#292625"/>
<path d="M71.5744 130.156C71.5985 130.395 71.753 130.596 71.9116 130.768C72.0508 130.915 72.2229 131.061 72.4197 131.059C72.7337 131.056 72.9275 130.709 73.052 130.409C73.2121 130.022 73.3766 129.627 73.4094 129.207C73.4468 128.786 73.3334 128.328 73.018 128.06C72.6147 128.468 72.2354 128.907 71.8896 129.37C71.7213 129.6 71.5491 129.865 71.5744 130.156Z" fill="#F3ED99"/>
<path d="M71.0526 131.313C70.9174 131.343 70.8361 131.479 70.7733 131.605C70.2081 132.741 69.9657 134.054 70.0974 135.328C70.1099 135.465 70.1511 135.628 70.2785 135.668C70.4297 135.718 70.5617 135.544 70.6333 135.395C70.9295 134.806 71.2257 134.217 71.5218 133.628C71.688 133.303 71.8536 132.956 71.8313 132.589C71.8091 132.223 71.3978 131.236 71.0526 131.313Z" fill="#F3ED99"/>
<path d="M75.4181 132.22C75.5041 132.5 75.6654 132.795 75.9389 132.867C76.2076 132.938 76.4895 132.757 76.634 132.511C76.7738 132.266 76.8141 131.97 76.8404 131.684C76.9888 130.15 76.9916 128.602 76.854 127.067C76.8362 126.903 76.7658 126.69 76.6115 126.705C76.5273 126.712 76.4679 126.783 76.4178 126.85C75.7129 127.815 75.4218 129.045 75.3036 130.253C75.2434 130.911 75.2258 131.591 75.4181 132.22Z" fill="#F3ED99"/>
<path d="M76.1346 133.467C76.0227 133.495 75.9164 133.562 75.8578 133.665C75.8217 133.726 75.8045 133.796 75.792 133.865C75.6012 134.763 75.7957 135.7 76.0591 136.577C76.1249 136.796 76.2003 137.021 76.354 137.184C76.4404 137.276 76.5639 137.347 76.6852 137.32C76.8671 137.28 76.9464 137.055 76.9797 136.865C77.1098 136.188 77.1552 135.493 77.1256 134.804C77.109 134.481 77.0733 134.147 76.9124 133.87C76.7515 133.594 76.4329 133.392 76.1346 133.467Z" fill="#F3ED99"/>
<path d="M82.5541 129.004C82.1358 128.536 81.6848 128.075 81.1257 127.813C81.0499 127.778 80.9602 127.745 80.8812 127.777C80.8284 128.139 80.9398 128.51 81.125 128.822C81.3054 129.135 81.5504 129.399 81.8 129.66C82.0018 129.878 82.2083 130.096 82.4148 130.314C82.5925 130.506 82.8222 130.714 83.0742 130.663C83.2275 130.393 83.201 130.046 83.082 129.758C82.9631 129.471 82.7608 129.232 82.5541 129.004Z" fill="#F3ED99"/>
<path d="M84.2602 132.903C84.3651 132.354 84.0903 131.807 83.7708 131.355C83.6835 131.226 83.5304 131.086 83.4009 131.165C83.174 131.71 83.198 132.359 83.4629 132.884C83.5219 133.005 83.5995 133.124 83.709 133.199C83.8185 133.274 83.9691 133.297 84.08 133.227C84.1863 133.161 84.2396 133.03 84.2602 132.903Z" fill="#F3ED99"/>
<path d="M77.3457 141.482C77.903 141.458 78.2215 140.818 78.3966 140.265C79.3733 137.21 79.6415 133.911 79.1669 130.728C78.935 129.171 78.4478 127.514 77.2133 126.605C77.6354 129.954 77.8424 133.331 77.8338 136.708C77.8337 137.327 77.8241 137.946 77.8052 138.565C77.7759 139.555 77.719 140.569 77.3457 141.482Z" fill="#DC7029"/>
<path d="M106.11 60.0366C112.218 71.3333 115.569 84.2335 115.776 97.2007C114.073 93.3828 112.37 89.5654 110.667 85.7475C111.246 90.6488 111.292 95.6178 110.816 100.531C110.663 102.094 110.204 103.976 108.751 104.389C106.976 104.891 105.577 102.708 105.295 100.813C105.014 98.9192 105.115 96.7374 103.787 95.4116C103.818 100.792 101.459 106.137 97.5145 109.609C97.0504 105.222 96.5816 100.836 96.1174 96.4487C95.7531 97.7576 95.3755 99.1035 94.5603 100.168C93.745 101.231 92.3737 101.953 91.1229 101.572C89.8344 101.179 89.0721 99.7987 88.6578 98.4697C86.6637 92.1215 89.5625 85.3136 92.6848 79.4813C95.8071 73.649 99.3429 67.4422 98.6688 60.7997L106.11 60.0366Z" fill="#F2591D"/>
<path d="M97.5252 110.129C97.4596 110.13 97.3937 110.118 97.3322 110.092C97.1618 110.021 97.041 109.857 97.0226 109.666L95.8702 98.8438C95.6301 99.4234 95.3334 99.9857 94.9463 100.492C94.0855 101.616 92.5265 102.54 90.9784 102.07C89.4114 101.591 88.5913 99.9355 88.1824 98.6308C86.1226 92.0744 89.0843 85.1432 92.2469 79.2277L92.688 78.4104C95.6936 72.8118 98.7982 67.0235 98.1721 60.8542C98.1423 60.5688 98.3381 60.3131 98.614 60.2824C98.8945 60.2487 99.1336 60.459 99.1635 60.7444C99.825 67.2425 96.6394 73.1781 93.5572 78.9184L93.1162 79.7347C90.0569 85.4535 87.188 92.1325 89.1267 98.3075C89.4647 99.3742 90.1043 100.72 91.2607 101.072C92.3558 101.407 93.5346 100.669 94.1676 99.8425C94.9327 98.8442 95.2928 97.553 95.6398 96.3042C95.7047 96.0659 95.9216 95.91 96.1564 95.9307C96.396 95.9522 96.5831 96.1447 96.6121 96.3915L97.9023 108.549C101.319 105.171 103.315 100.334 103.289 95.4143C103.284 95.2056 103.406 95.0167 103.587 94.934C103.773 94.8517 103.985 94.8916 104.129 95.0358C105.308 96.2126 105.477 97.8978 105.645 99.5278C105.687 99.9351 105.729 100.342 105.785 100.734C105.967 101.939 106.622 103.141 107.379 103.655C107.779 103.929 108.197 104.006 108.621 103.887C109.553 103.621 110.127 102.475 110.322 100.478C110.793 95.6068 110.744 90.6721 110.17 85.8104C110.141 85.5567 110.295 85.3177 110.528 85.2475C110.766 85.1766 111.012 85.2963 111.116 85.5281L115.198 94.6723C114.627 82.6345 111.357 70.7996 105.679 60.2915C105.542 60.0415 105.624 59.7246 105.864 59.5837C106.105 59.4428 106.412 59.5312 106.544 59.7808C112.701 71.1766 116.067 84.1131 116.271 97.1918C116.277 97.4372 116.113 97.6525 115.885 97.7075C115.656 97.7634 115.419 97.6421 115.32 97.42L111.45 88.7411C111.74 92.6829 111.693 96.653 111.313 100.583C111.073 103.051 110.252 104.5 108.883 104.89C108.184 105.086 107.478 104.962 106.836 104.527C105.827 103.842 105.026 102.415 104.804 100.893C104.743 100.484 104.696 100.062 104.654 99.638C104.563 98.7305 104.473 97.8538 104.217 97.1C103.808 102.056 101.491 106.786 97.8365 110.006C97.7492 110.084 97.6377 110.126 97.5252 110.129Z" fill="#292625"/>
<path d="M19.4917 62.1493C13.9015 73.7314 11.1288 86.781 11.5089 99.7439C13.0386 95.8472 14.5684 91.9509 16.0934 88.0543C15.7399 92.9783 15.9124 97.9442 16.608 102.828C16.8304 104.383 17.3736 106.241 18.8438 106.581C20.6392 106.997 21.9434 104.748 22.135 102.842C22.3313 100.936 22.1372 98.7612 23.4045 97.3721C23.6142 102.748 26.2113 107.973 30.3022 111.249C30.5736 106.844 30.8404 102.439 31.1118 98.0341C31.5298 99.3239 31.9721 100.65 32.8342 101.673C33.6962 102.696 35.0938 103.35 36.3308 102.908C37.5956 102.453 38.2951 101.037 38.6539 99.6891C40.361 93.2506 37.1551 86.5916 33.7792 80.9178C30.3986 75.2442 26.5834 69.2168 26.9634 62.5485L19.4917 62.1493Z" fill="#F2591D"/>
<path d="M30.3125 111.768C30.2 111.771 30.0914 111.734 29.996 111.661C26.2011 108.623 23.6787 104.01 23.043 99.08C22.8258 99.8448 22.7752 100.725 22.7207 101.636C22.6974 102.062 22.6741 102.485 22.6318 102.897C22.474 104.429 21.7428 105.893 20.7608 106.627C20.1431 107.092 19.4435 107.251 18.7367 107.089C17.3466 106.767 16.4666 105.359 16.1161 102.905C15.5596 98.9965 15.3347 95.033 15.4429 91.0829L11.9666 99.941C11.8779 100.168 11.6513 100.3 11.4159 100.256C11.1852 100.212 11.0165 100.005 11.0109 99.7594C10.6283 86.6851 13.405 73.5992 19.0444 61.9151C19.1699 61.6592 19.4677 61.5566 19.7143 61.685C19.961 61.814 20.057 62.1266 19.9362 62.3829C14.7357 73.1564 11.9999 85.1384 11.9705 97.1903L15.633 87.8571C15.7261 87.6206 15.9716 87.4889 16.2073 87.5482C16.4477 87.6069 16.6076 87.8382 16.5899 88.093C16.2401 92.9753 16.4071 97.9072 17.1018 102.752C17.3854 104.737 18.0059 105.855 18.953 106.074C19.3771 106.172 19.7921 106.075 20.184 105.782C20.9169 105.231 21.5174 103.999 21.6402 102.787C21.6829 102.391 21.7066 101.984 21.7255 101.574C21.82 99.9378 21.918 98.2466 23.0388 97.0137C23.1761 96.8626 23.3906 96.8124 23.575 96.8856C23.7642 96.9593 23.8902 97.1421 23.8995 97.3507C24.0896 102.267 26.3053 107.001 29.865 110.209L30.6128 98.0007C30.626 97.7534 30.809 97.5514 31.0426 97.5188C31.2763 97.4857 31.5045 97.6317 31.5801 97.8666C31.9828 99.0966 32.3957 100.368 33.2048 101.329C33.8742 102.124 35.0895 102.802 36.1684 102.416C37.303 102.008 37.8862 100.633 38.1713 99.5502C39.8308 93.288 36.6652 86.7556 33.3527 81.1923L32.8802 80.3968C29.5438 74.8136 26.0953 69.0403 26.4645 62.5176C26.4815 62.2311 26.7062 62.0104 26.9926 62.0293C27.2649 62.0467 27.4767 62.2924 27.4597 62.5794C27.1065 68.7716 30.4721 74.4016 33.7257 79.8465L34.1982 80.6435C37.6276 86.3986 40.8924 93.1779 39.1291 99.8271C38.7791 101.15 38.039 102.844 36.4904 103.399C34.9698 103.945 33.3711 103.097 32.4562 102.016C32.0468 101.529 31.7251 100.983 31.4639 100.415L30.7985 111.281C30.784 111.473 30.6753 111.642 30.5083 111.722C30.4434 111.751 30.3781 111.767 30.3125 111.768Z" fill="#292625"/>
<path d="M26.3852 67.9197C25.7622 75.4576 27.6704 83.1979 31.6977 89.4886C32.1106 90.131 32.7688 90.8418 33.4661 90.5807C34.1215 90.3348 34.2415 89.4183 34.1643 88.6924C33.8576 85.6788 32.2462 83.0149 30.9014 80.3283C29.3162 77.162 27.2829 71.366 26.3852 67.9197Z" fill="#F2CC46"/>
<path d="M37.2748 98.8179C37.4409 97.4469 37.3014 96.0358 36.8643 94.7313C36.6887 94.2172 36.4662 93.7056 36.0829 93.333C35.7042 92.9603 35.137 92.7516 34.644 92.9255C34.3043 95.1259 34.8113 97.4558 36.0244 99.2891C36.1699 99.5081 36.358 99.7407 36.616 99.7506C37.0242 99.767 37.2233 99.2408 37.2748 98.8179Z" fill="#F2CC46"/>
<path d="M100.204 66.1191C101.165 73.6184 99.6059 81.4433 95.8653 87.9235C95.4817 88.5853 94.8562 89.3274 94.1479 89.1006C93.4775 88.8871 93.3211 87.9773 93.361 87.2485C93.5368 84.2231 95.0269 81.4836 96.2496 78.7344C97.691 75.4942 99.462 69.6054 100.204 66.1191Z" fill="#F2CC46"/>
<path d="M90.7136 97.5136C90.4862 96.1522 90.5622 94.7359 90.9403 93.4115C91.088 92.8894 91.2919 92.3675 91.6581 91.9766C92.0197 91.5858 92.5722 91.3498 93.0772 91.4993C93.5152 93.6808 93.1133 96.0328 91.9838 97.9233C91.8483 98.1492 91.6662 98.3908 91.4135 98.4131C91.0065 98.4495 90.784 97.9335 90.7136 97.5136Z" fill="#F2CC46"/>
<path d="M16.0148 27.3703C15.9168 26.5545 14.9736 26.0967 14.1991 26.2574C13.4292 26.4181 12.8095 27.003 12.2411 27.5764C10.4491 29.395 8.75867 31.3559 7.5204 33.6203C6.27743 35.8843 5.50601 38.4802 5.64417 41.0841C5.66575 41.4191 5.70664 41.7805 5.93241 42.023C6.23039 42.3503 6.7597 42.3315 7.13422 42.1008C7.50873 41.8696 7.75777 41.4786 7.99294 41.0963C10.4162 37.1161 12.1961 32.6709 15.1824 29.1338C15.6117 28.6259 16.0955 28.0419 16.0148 27.3703Z" fill="white"/>
<path d="M12.6053 43.8211C12.7125 44.0034 12.9161 44.0933 13.1054 44.1713C14.0422 44.5574 14.9744 44.943 15.9112 45.3291C17.9346 40.243 20.8778 35.6188 23.7936 31.0299C22.6735 30.4165 21.5893 29.7289 20.5504 28.9727C18.906 30.8938 17.5721 33.0754 16.2474 35.2461C14.7325 37.7187 13.1957 40.2564 12.5802 43.118C12.5292 43.353 12.4882 43.6152 12.6053 43.8211Z" fill="white"/>
<path d="M103.32 25.6405C102.768 24.6342 101.938 23.7976 100.956 23.2615C100.33 22.9217 99.64 22.693 99.1043 22.2146C98.0819 23.0279 96.9337 23.6697 95.7154 24.1079C97.0656 25.1617 98.2478 26.4553 99.1901 27.9172C100.565 27.1584 101.94 26.3995 103.32 25.6405Z" fill="white"/>
<path d="M110.677 28.9472C110.43 25.8954 108.208 23.3765 105.715 21.7651C105.197 21.432 104.66 21.1232 104.075 20.9521C103.433 20.7658 102.763 20.7484 102.102 20.7763C101.878 20.7862 101.571 20.9076 101.628 21.1351C101.648 21.2231 101.725 21.2834 101.796 21.3369C104.782 23.6205 107.427 26.3888 109.607 29.5123C109.747 29.7143 109.921 29.9379 110.16 29.9443C110.573 29.9563 110.71 29.3743 110.677 28.9472Z" fill="white"/>
<path d="M42.2737 121.664C42.4059 121.495 44.0641 122.692 45.976 124.336C47.888 125.98 49.3273 127.449 49.1951 127.618C49.063 127.786 47.4048 126.589 45.4928 124.945C43.5808 123.301 42.1416 121.832 42.2737 121.664Z" fill="#292625"/>
<path d="M46.6388 116.115C46.7515 116.125 46.8089 116.593 46.9001 117.314C47.0054 118.037 47.2054 119.012 47.5708 120.043C47.9687 121.062 48.452 121.92 48.8407 122.53C49.2432 123.125 49.505 123.51 49.4272 123.597C49.3633 123.672 48.964 123.426 48.4268 122.885C47.9081 122.331 47.2974 121.439 46.8647 120.329C46.4645 119.208 46.3369 118.119 46.3664 117.344C46.4098 116.566 46.5448 116.104 46.6388 116.115Z" fill="#292625"/>
<path d="M62.7099 121.591C62.791 121.651 62.5904 122.111 62.1412 122.777C61.6825 123.434 60.9419 124.268 59.998 125.03C59.0397 125.774 58.0715 126.289 57.3419 126.572C56.6026 126.843 56.1262 126.921 56.0912 126.824C56.0513 126.716 56.4626 126.455 57.1102 126.067C57.7575 125.668 58.6309 125.106 59.5432 124.401C60.4364 123.678 61.1936 122.952 61.7346 122.411C62.2707 121.863 62.6194 121.524 62.7099 121.591Z" fill="#292625"/>
<path d="M71.1602 120.889C71.2672 120.852 71.4968 121.267 71.858 121.902C72.2331 122.531 72.7907 123.359 73.5308 124.167C74.2937 124.951 75.0759 125.546 75.6756 125.949C76.2795 126.334 76.6694 126.581 76.6344 126.692C76.6038 126.787 76.1383 126.725 75.4289 126.445C74.7331 126.149 73.8202 125.575 72.9901 124.72C72.1875 123.843 71.6503 122.883 71.376 122.149C71.1203 121.406 71.0671 120.919 71.1602 120.889Z" fill="#292625"/>
<path d="M84.2905 121.33C84.4383 121.44 83.512 122.988 81.8899 124.439C80.2245 125.845 78.5988 126.515 78.5247 126.343C78.4119 126.123 79.8157 125.175 81.4028 123.832C82.9561 122.448 84.1043 121.18 84.2905 121.33Z" fill="#292625"/>
<path d="M83.9299 107.623C84.1412 107.637 84.2687 108.306 84.2213 109.117C84.1692 109.928 83.9634 110.575 83.7522 110.561C83.5456 110.547 83.4181 109.878 83.4655 109.067C83.5129 108.256 83.7234 107.609 83.9299 107.623Z" fill="#292625"/>
<path d="M87.0917 100.946C87.2633 100.867 87.9785 102.237 88.3159 104.112C88.6019 105.995 88.3647 107.537 88.1815 107.522C87.9516 107.511 87.8434 106.032 87.5689 104.246C87.2524 102.468 86.8781 101.037 87.0917 100.946Z" fill="#292625"/>
<path d="M40.301 103.809C40.4051 103.852 40.3664 104.215 40.2849 104.76C40.2223 105.312 40.1546 106.06 40.1779 106.89C40.2293 107.717 40.3585 108.456 40.4738 108.999C40.603 109.535 40.6719 109.892 40.5747 109.946C40.4867 109.994 40.2415 109.721 39.9718 109.19C39.716 108.656 39.4776 107.848 39.4241 106.926C39.394 106.004 39.5582 105.176 39.7707 104.619C39.9927 104.065 40.211 103.768 40.301 103.809Z" fill="#292625"/>
<path d="M44.9351 103.925C45.1421 103.957 45.1125 105.353 44.8739 107.044C44.6306 108.734 44.267 110.078 44.06 110.046C43.853 110.014 43.8826 108.618 44.1212 106.927C44.3645 105.237 44.7281 103.893 44.9351 103.925Z" fill="#292625"/>
<path d="M50.904 94.9864C51.1108 95.0122 51.1744 95.9629 51.0408 97.1101C50.9118 98.2578 50.6416 99.1667 50.4301 99.1416C50.2233 99.1158 50.1597 98.1651 50.2933 97.0174C50.4223 95.8702 50.6925 94.9613 50.904 94.9864Z" fill="#292625"/>
<path d="M46.25 90.1881C46.4528 90.2419 46.3216 91.4952 45.9613 92.9874C45.5963 94.4797 45.1397 95.6456 44.9369 95.5923C44.7342 95.5386 44.8654 94.2853 45.2257 92.7931C45.5906 91.3007 46.0473 90.1349 46.25 90.1881Z" fill="#292625"/>
<path d="M77.1618 96.54C76.9563 96.5714 76.6654 95.7241 76.5099 94.6474C76.3592 93.5702 76.4046 92.6716 76.6101 92.6397C76.8157 92.6083 77.1066 93.4552 77.262 94.5323C77.4128 95.609 77.3674 96.5081 77.1618 96.54Z" fill="#292625"/>
<path d="M81.8319 94.4683C81.6213 94.4862 81.3817 93.6263 81.2966 92.548C81.2114 91.4692 81.3133 90.5805 81.5192 90.5622C81.7297 90.5444 81.9647 91.4043 82.0545 92.4826C82.1397 93.5614 82.0377 94.4506 81.8319 94.4683Z" fill="#292625"/>
<path d="M50.5703 113.085C50.3984 113.155 49.7085 111.656 49.4383 109.643C49.2148 107.622 49.5251 105.991 49.7084 106.014C49.9386 106.036 49.9789 107.62 50.1861 109.543C50.4447 111.459 50.7888 113.004 50.5703 113.085Z" fill="#292625"/>
<path d="M53.5694 121.818C53.3642 121.865 53.128 121.577 53.0487 121.175C52.9647 120.774 53.0597 120.412 53.2649 120.365C53.4701 120.319 53.7016 120.607 53.7856 121.008C53.8696 121.41 53.7699 121.772 53.5694 121.818Z" fill="#292625"/>
<path d="M78.7746 74.9986C78.7711 75.0529 78.6217 75.0795 78.3451 75.0799C78.2092 75.0803 78.045 75.0741 77.8479 75.0618C77.6553 75.0449 77.4303 75.0455 77.1943 74.973C76.2336 74.7798 74.9379 74.2764 73.7034 73.3664C72.4961 72.4177 71.6409 71.2814 71.1708 70.3856C71.0301 70.1753 70.9641 69.9495 70.8896 69.7625C70.8197 69.5734 70.7597 69.4091 70.7192 69.2737C70.6381 69.0022 70.6158 68.8448 70.6622 68.8236C70.7133 68.8023 70.8237 68.918 70.9834 69.1405C71.0656 69.2515 71.1578 69.3896 71.2598 69.551C71.3665 69.7098 71.46 69.9051 71.6187 70.0851C72.1799 70.8584 73.0317 71.8466 74.1484 72.7291C75.2924 73.5708 76.4578 74.1146 77.3322 74.4336C77.5454 74.537 77.7525 74.5716 77.9319 74.6283C78.1065 74.6803 78.2623 74.7298 78.3899 74.7756C78.6404 74.8673 78.7781 74.9442 78.7746 74.9986Z" fill="#292625"/>
<path d="M82.9261 72.8551C82.961 72.9491 82.6379 73.1712 82.0469 73.3671C81.4509 73.5455 80.5811 73.6352 79.6398 73.4674C78.7025 73.2716 77.9151 72.8609 77.4236 72.4729C76.941 72.0679 76.7134 71.7404 76.7773 71.665C76.8503 71.5752 77.1868 71.7411 77.6988 71.9932C78.2198 72.2323 78.9433 72.5145 79.777 72.6913C80.6147 72.8381 81.3836 72.8448 81.9549 72.8172C82.5164 72.7722 82.8908 72.7444 82.9261 72.8551Z" fill="#292625"/>
<path d="M48.3373 76.2143C48.2337 75.983 49.9366 74.996 51.8392 73.5097C53.7031 71.9681 55.0532 70.5056 55.2443 70.6657C55.3208 70.7358 55.0541 71.1741 54.5533 71.8349C54.0861 72.531 53.236 73.2932 52.3033 74.1352C51.2837 74.8619 50.3609 75.5227 49.5941 75.8182C48.8517 76.1567 48.3817 76.313 48.3373 76.2143Z" fill="#292625"/>
<path d="M38.4929 76.0311C38.4646 75.8151 40.218 75.4075 42.4007 75.1219C44.5834 74.8358 46.3775 74.7793 46.4058 74.9958C46.4294 75.2119 44.6807 75.6189 42.4933 75.9051C40.3106 76.1912 38.5165 76.2477 38.4929 76.0311Z" fill="#292625"/>
</svg>
