<svg width="172" height="45" viewBox="0 0 172 45" fill="none" xmlns="http://www.w3.org/2000/svg">
<path d="M0.488469 32.6979H5.79061V38H0.488469V32.6979ZM19.5762 32.6979H24.8783V38H19.5762V32.6979ZM0.488469 26.3353H5.79061V31.6374H0.488469V26.3353ZM13.2136 26.3353H18.5158V31.6374H13.2136V26.3353ZM0.488469 39.0604H5.79061V44.3626H0.488469V39.0604ZM25.9388 39.0604H31.2409V44.3626H25.9388V39.0604ZM0.488469 13.6101H5.79061V18.9123H0.488469V13.6101ZM25.9388 13.6101H31.2409V18.9123H25.9388V13.6101ZM0.488469 7.24757H5.79061V12.5497H0.488469V7.24757ZM25.9388 7.24757H31.2409V12.5497H25.9388V7.24757ZM0.488469 19.9727H5.79061V25.2749H0.488469V19.9727ZM6.85104 19.9727H12.1532V25.2749H6.85104V19.9727ZM13.2136 19.9727H18.5158V25.2749H13.2136V19.9727ZM19.5762 19.9727H24.8783V25.2749H19.5762V19.9727ZM0.488469 0.884993H5.79061V6.18714H0.488469V0.884993ZM6.85104 0.884993H12.1532V6.18714H6.85104V0.884993ZM13.2136 0.884993H18.5158V6.18714H13.2136V0.884993ZM19.5762 0.884993H24.8783V6.18714H19.5762V0.884993ZM37.251 32.6979H42.5531V38H37.251V32.6979ZM62.7013 32.6979H68.0034V38H62.7013V32.6979ZM37.251 26.3353H42.5531V31.6374H37.251V26.3353ZM62.7013 26.3353H68.0034V31.6374H62.7013V26.3353ZM43.6135 39.0604H48.9157V44.3626H43.6135V39.0604ZM49.9761 39.0604H55.2783V44.3626H49.9761V39.0604ZM56.3387 39.0604H61.6408V44.3626H56.3387V39.0604ZM37.251 13.6101H42.5531V18.9123H37.251V13.6101ZM62.7013 13.6101H68.0034V18.9123H62.7013V13.6101ZM37.251 7.24757H42.5531V12.5497H37.251V7.24757ZM62.7013 7.24757H68.0034V12.5497H62.7013V7.24757ZM37.251 19.9727H42.5531V25.2749H37.251V19.9727ZM62.7013 19.9727H68.0034V25.2749H62.7013V19.9727ZM37.251 0.884993H42.5531V6.18714H37.251V0.884993ZM62.7013 0.884993H68.0034V6.18714H62.7013V0.884993ZM74.0135 32.6979H79.3156V38H74.0135V32.6979ZM74.0135 26.3353H79.3156V31.6374H74.0135V26.3353ZM74.0135 39.0604H79.3156V44.3626H74.0135V39.0604ZM80.376 39.0604H85.6782V44.3626H80.376V39.0604ZM86.7386 39.0604H92.0408V44.3626H86.7386V39.0604ZM93.1012 39.0604H98.4033V44.3626H93.1012V39.0604ZM74.0135 13.6101H79.3156V18.9123H74.0135V13.6101ZM74.0135 7.24757H79.3156V12.5497H74.0135V7.24757ZM74.0135 19.9727H79.3156V25.2749H74.0135V19.9727ZM74.0135 0.884993H79.3156V6.18714H74.0135V0.884993ZM104.401 32.6979H109.703V38H104.401V32.6979ZM104.401 26.3353H109.703V31.6374H104.401V26.3353ZM104.401 39.0604H109.703V44.3626H104.401V39.0604ZM110.764 39.0604H116.066V44.3626H110.764V39.0604ZM117.126 39.0604H122.428V44.3626H117.126V39.0604ZM123.489 39.0604H128.791V44.3626H123.489V39.0604ZM129.851 39.0604H135.153V44.3626H129.851V39.0604ZM104.401 13.6101H109.703V18.9123H104.401V13.6101ZM104.401 7.24757H109.703V12.5497H104.401V7.24757ZM104.401 19.9727H109.703V25.2749H104.401V19.9727ZM110.764 19.9727H116.066V25.2749H110.764V19.9727ZM117.126 19.9727H122.428V25.2749H117.126V19.9727ZM123.489 19.9727H128.791V25.2749H123.489V19.9727ZM104.401 0.884993H109.703V6.18714H104.401V0.884993ZM110.764 0.884993H116.066V6.18714H110.764V0.884993ZM117.126 0.884993H122.428V6.18714H117.126V0.884993ZM123.489 0.884993H128.791V6.18714H123.489V0.884993ZM129.851 0.884993H135.153V6.18714H129.851V0.884993ZM166.614 32.6979H171.916V38H166.614V32.6979ZM166.614 26.3353H171.916V31.6374H166.614V26.3353ZM141.163 39.0604H146.466V44.3626H141.163V39.0604ZM147.526 39.0604H152.828V44.3626H147.526V39.0604ZM153.889 39.0604H159.191V44.3626H153.889V39.0604ZM160.251 39.0604H165.553V44.3626H160.251V39.0604ZM141.163 13.6101H146.466V18.9123H141.163V13.6101ZM141.163 7.24757H146.466V12.5497H141.163V7.24757ZM147.526 19.9727H152.828V25.2749H147.526V19.9727ZM153.889 19.9727H159.191V25.2749H153.889V19.9727ZM160.251 19.9727H165.553V25.2749H160.251V19.9727ZM147.526 0.884993H152.828V6.18714H147.526V0.884993ZM153.889 0.884993H159.191V6.18714H153.889V0.884993ZM160.251 0.884993H165.553V6.18714H160.251V0.884993ZM166.614 0.884993H171.916V6.18714H166.614V0.884993Z" fill="url(#paint0_linear_3035_33955)"/>
<defs>
<linearGradient id="paint0_linear_3035_33955" x1="-84.4009" y1="25.6722" x2="301.224" y2="30.6161" gradientUnits="userSpaceOnUse">
<stop stop-color="#EF4136"/>
<stop offset="0.467708" stop-color="#F5753B"/>
<stop offset="1" stop-color="#FAA83F"/>
</linearGradient>
</defs>
</svg>
