<svg width="24" height="23" viewBox="0 0 24 23" fill="none" xmlns="http://www.w3.org/2000/svg">
<mask id="path-1-inside-1_2856_37378" fill="white">
<path d="M23.7356 14.2605C23.7068 13.603 23.6766 12.6737 23.6445 11.6896C23.5956 10.1848 23.54 8.4793 23.4787 7.45641C23.4171 6.42639 23.329 5.07077 23.1947 3.7171C23.0015 1.767 21.3529 0.355444 19.1861 0.284368C17.5694 0.231451 15.9254 0.209383 14.3345 0.187904H14.3189C13.8648 0.181655 13.403 0.185554 12.9565 0.189167C12.2217 0.194927 11.4623 0.201079 10.7184 0.163686C9.03442 0.078844 7.24975 0.149911 4.93126 0.393894C3.43092 0.551765 2.30258 0.971196 1.38005 1.71378C0.624547 2.32193 0.256339 3.02655 0.254494 3.86774C0.253776 4.14629 0.247927 4.42571 0.237058 4.69859C0.227522 4.9416 0.210092 5.18959 0.193174 5.42938C0.145778 5.93952 0.132998 6.45203 0.154922 6.96374C0.270483 8.70335 0.452283 12.5172 0.311909 14.5009C0.262178 15.2046 0.275815 15.9232 0.28894 16.6181L0.291819 16.7743C0.295531 17.8616 0.484149 18.9412 0.850347 19.9712C1.2281 20.9974 1.96104 21.6212 3.02887 21.8255C3.69777 21.958 4.37664 22.0399 5.05912 22.0703C6.33428 22.1198 7.63129 22.1474 8.88585 22.174C9.39485 22.1848 9.90387 22.1961 10.4129 22.2079L10.4635 22.194L10.9021 22.1928H11.8762L12.4112 22.1935C14.52 22.197 16.7017 22.2017 18.8296 21.8843C19.5702 21.7737 20.4351 21.6195 21.2355 21.3132C22.8318 20.7023 23.6933 19.5763 23.7959 17.966C23.8625 16.9213 23.812 15.8691 23.7633 14.8515C23.7535 14.6544 23.7443 14.4574 23.7356 14.2605ZM1.5917 13.1182L1.58502 12.8441C1.55354 11.5333 1.48793 8.80569 1.40959 7.65763C1.33217 6.5251 1.2851 5.03132 1.61015 3.52389L1.61332 3.51285C1.6191 3.49739 1.62161 3.48101 1.62071 3.46463C1.54288 2.58799 2.19154 2.24921 2.87824 1.89041L2.90151 1.8782C3.56175 1.53327 4.28947 1.41387 4.97832 1.32092C6.53932 1.12558 8.11283 1.03507 9.68718 1.05007C10.3424 1.05007 10.9884 1.06033 11.6219 1.07303C12.7717 1.09607 13.941 1.11102 15.0717 1.12547C16.0623 1.13816 17.0865 1.15123 18.0938 1.16978C18.5619 1.17514 19.0289 1.21319 19.4912 1.28362C21.1689 1.54966 22.0967 2.58779 22.1743 4.28551C22.2309 5.52056 22.2832 7.24757 22.3337 8.91786C22.3806 10.4642 22.4291 12.0631 22.4795 13.2174C22.4955 13.5835 22.5176 13.9554 22.5388 14.315C22.5721 14.8792 22.6066 15.4628 22.6188 16.0367C22.6333 16.716 22.5938 17.4118 22.552 18.0664C22.49 19.0372 21.8983 19.7261 20.7934 20.1145C20.1252 20.3379 19.4345 20.4949 18.7324 20.5831C16.3746 20.9181 13.9563 20.903 11.6182 20.8886L11.3093 20.8868C11.1883 20.886 11.0673 20.8863 10.9462 20.8868H10.7235L10.7226 20.9249C10.2048 20.9124 9.68691 20.9001 9.16895 20.888C7.67026 20.853 6.1206 20.8167 4.59688 20.769C4.20173 20.7463 3.80902 20.6944 3.4223 20.6138L3.35576 20.6016C2.69531 20.4813 2.25347 20.0933 2.04327 19.4481C1.73027 18.4618 1.57365 17.4365 1.57857 16.4061C1.57518 15.937 1.58215 15.4591 1.58882 14.9979C1.59763 14.3814 1.60636 13.7444 1.59128 13.1179L1.5917 13.1182Z"/>
</mask>
<path d="M23.7356 14.2605C23.7068 13.603 23.6766 12.6737 23.6445 11.6896C23.5956 10.1848 23.54 8.4793 23.4787 7.45641C23.4171 6.42639 23.329 5.07077 23.1947 3.7171C23.0015 1.767 21.3529 0.355444 19.1861 0.284368C17.5694 0.231451 15.9254 0.209383 14.3345 0.187904H14.3189C13.8648 0.181655 13.403 0.185554 12.9565 0.189167C12.2217 0.194927 11.4623 0.201079 10.7184 0.163686C9.03442 0.078844 7.24975 0.149911 4.93126 0.393894C3.43092 0.551765 2.30258 0.971196 1.38005 1.71378C0.624547 2.32193 0.256339 3.02655 0.254494 3.86774C0.253776 4.14629 0.247927 4.42571 0.237058 4.69859C0.227522 4.9416 0.210092 5.18959 0.193174 5.42938C0.145778 5.93952 0.132998 6.45203 0.154922 6.96374C0.270483 8.70335 0.452283 12.5172 0.311909 14.5009C0.262178 15.2046 0.275815 15.9232 0.28894 16.6181L0.291819 16.7743C0.295531 17.8616 0.484149 18.9412 0.850347 19.9712C1.2281 20.9974 1.96104 21.6212 3.02887 21.8255C3.69777 21.958 4.37664 22.0399 5.05912 22.0703C6.33428 22.1198 7.63129 22.1474 8.88585 22.174C9.39485 22.1848 9.90387 22.1961 10.4129 22.2079L10.4635 22.194L10.9021 22.1928H11.8762L12.4112 22.1935C14.52 22.197 16.7017 22.2017 18.8296 21.8843C19.5702 21.7737 20.4351 21.6195 21.2355 21.3132C22.8318 20.7023 23.6933 19.5763 23.7959 17.966C23.8625 16.9213 23.812 15.8691 23.7633 14.8515C23.7535 14.6544 23.7443 14.4574 23.7356 14.2605ZM1.5917 13.1182L1.58502 12.8441C1.55354 11.5333 1.48793 8.80569 1.40959 7.65763C1.33217 6.5251 1.2851 5.03132 1.61015 3.52389L1.61332 3.51285C1.6191 3.49739 1.62161 3.48101 1.62071 3.46463C1.54288 2.58799 2.19154 2.24921 2.87824 1.89041L2.90151 1.8782C3.56175 1.53327 4.28947 1.41387 4.97832 1.32092C6.53932 1.12558 8.11283 1.03507 9.68718 1.05007C10.3424 1.05007 10.9884 1.06033 11.6219 1.07303C12.7717 1.09607 13.941 1.11102 15.0717 1.12547C16.0623 1.13816 17.0865 1.15123 18.0938 1.16978C18.5619 1.17514 19.0289 1.21319 19.4912 1.28362C21.1689 1.54966 22.0967 2.58779 22.1743 4.28551C22.2309 5.52056 22.2832 7.24757 22.3337 8.91786C22.3806 10.4642 22.4291 12.0631 22.4795 13.2174C22.4955 13.5835 22.5176 13.9554 22.5388 14.315C22.5721 14.8792 22.6066 15.4628 22.6188 16.0367C22.6333 16.716 22.5938 17.4118 22.552 18.0664C22.49 19.0372 21.8983 19.7261 20.7934 20.1145C20.1252 20.3379 19.4345 20.4949 18.7324 20.5831C16.3746 20.9181 13.9563 20.903 11.6182 20.8886L11.3093 20.8868C11.1883 20.886 11.0673 20.8863 10.9462 20.8868H10.7235L10.7226 20.9249C10.2048 20.9124 9.68691 20.9001 9.16895 20.888C7.67026 20.853 6.1206 20.8167 4.59688 20.769C4.20173 20.7463 3.80902 20.6944 3.4223 20.6138L3.35576 20.6016C2.69531 20.4813 2.25347 20.0933 2.04327 19.4481C1.73027 18.4618 1.57365 17.4365 1.57857 16.4061C1.57518 15.937 1.58215 15.4591 1.58882 14.9979C1.59763 14.3814 1.60636 13.7444 1.59128 13.1179L1.5917 13.1182Z" fill="white"/>
<path d="M23.7356 14.2605L21.238 14.3699L21.2381 14.3706L23.7356 14.2605ZM23.6445 11.6896L21.1458 11.7708L21.1458 11.7711L23.6445 11.6896ZM23.4787 7.45641L20.9831 7.60547L20.9831 7.606L23.4787 7.45641ZM23.1947 3.7171L20.7069 3.96368L20.7069 3.96378L23.1947 3.7171ZM19.1861 0.284368L19.2681 -2.21429L19.2679 -2.21429L19.1861 0.284368ZM14.3345 0.187904L14.3683 -2.31187L14.3514 -2.3121H14.3345V0.187904ZM14.3189 0.187904L14.2845 2.68767L14.3017 2.6879H14.3189V0.187904ZM12.9565 0.189167L12.9761 2.68909L12.9767 2.68909L12.9565 0.189167ZM10.7184 0.163686L10.5926 2.66052L10.5929 2.66053L10.7184 0.163686ZM4.93126 0.393894L5.19287 2.88017L5.1929 2.88017L4.93126 0.393894ZM1.38005 1.71378L-0.187553 -0.233682L-0.187575 -0.233665L1.38005 1.71378ZM0.254494 3.86774L2.75449 3.87418L2.75449 3.87323L0.254494 3.86774ZM0.237058 4.69859L-2.26096 4.59909L-2.26102 4.60056L0.237058 4.69859ZM0.193174 5.42938L2.68245 5.66065L2.68502 5.63302L2.68697 5.60534L0.193174 5.42938ZM0.154922 6.96374L-2.34279 7.07076L-2.34153 7.10012L-2.33958 7.12945L0.154922 6.96374ZM0.311909 14.5009L-2.18186 14.3245L-2.18187 14.3247L0.311909 14.5009ZM0.28894 16.6181L2.78852 16.572L2.78849 16.5709L0.28894 16.6181ZM0.291819 16.7743L2.7918 16.7658L2.79174 16.747L2.79139 16.7282L0.291819 16.7743ZM0.850347 19.9712L-1.50519 20.8087L-1.50054 20.8217L-1.49575 20.8348L0.850347 19.9712ZM3.02887 21.8255L3.51467 19.3732L3.50672 19.3716L3.49875 19.3701L3.02887 21.8255ZM5.05912 22.0703L4.94759 24.5679L4.95487 24.5682L4.96214 24.5685L5.05912 22.0703ZM8.88585 22.174L8.83274 24.6735L8.83279 24.6735L8.88585 22.174ZM10.4129 22.2079L10.3551 24.7073L10.7235 24.7158L11.0787 24.6176L10.4129 22.2079ZM10.4635 22.194L10.4568 19.694L10.1212 19.6949L9.79772 19.7842L10.4635 22.194ZM10.9021 22.1928V19.6928L10.8954 19.6928L10.9021 22.1928ZM11.8762 22.1928L11.8797 19.6928H11.8762V22.1928ZM12.4112 22.1935L12.4153 19.6936L12.4148 19.6935L12.4112 22.1935ZM18.8296 21.8843L19.1985 24.3569L19.1986 24.3569L18.8296 21.8843ZM21.2355 21.3132L22.129 23.6481L22.1291 23.6481L21.2355 21.3132ZM23.7959 17.966L26.2908 18.125L26.2909 18.1249L23.7959 17.966ZM23.7633 14.8515L26.2604 14.732L26.2602 14.7277L23.7633 14.8515ZM1.5917 13.1182L0.168438 15.1735L4.21061 17.9726L4.09095 13.0573L1.5917 13.1182ZM1.58502 12.8441L-0.914256 12.9041L-0.914236 12.905L1.58502 12.8441ZM1.40959 7.65763L3.90379 7.48744L3.90377 7.48714L1.40959 7.65763ZM1.61015 3.52389L-0.792157 2.83183L-0.815734 2.91367L-0.833687 2.99693L1.61015 3.52389ZM1.61332 3.51285L-0.728708 2.63827L-0.762353 2.72837L-0.788977 2.82079L1.61332 3.51285ZM1.62071 3.46463L4.11696 3.32776L4.11465 3.28561L4.11092 3.24355L1.62071 3.46463ZM2.87824 1.89041L4.03598 4.10618L4.03942 4.10438L2.87824 1.89041ZM2.90151 1.8782L1.74388 -0.337628L1.74033 -0.335765L2.90151 1.8782ZM4.97832 1.32092L4.6679 -1.15973L4.65596 -1.15824L4.64403 -1.15663L4.97832 1.32092ZM9.68718 1.05007L9.66335 3.54996L9.67526 3.55007H9.68718V1.05007ZM11.6219 1.07303L11.672 -1.42647L11.6719 -1.42647L11.6219 1.07303ZM15.0717 1.12547L15.1037 -1.37433L15.1036 -1.37433L15.0717 1.12547ZM18.0938 1.16978L18.0477 3.66935L18.0564 3.66951L18.0651 3.66961L18.0938 1.16978ZM19.4912 1.28362L19.8827 -1.18553L19.8752 -1.18672L19.8677 -1.18786L19.4912 1.28362ZM22.1743 4.28551L19.6769 4.3997L19.6769 4.39997L22.1743 4.28551ZM22.3337 8.91786L19.8349 8.99349L19.8349 8.99359L22.3337 8.91786ZM22.4795 13.2174L24.9772 13.1082L24.9771 13.1082L22.4795 13.2174ZM22.5388 14.315L20.0431 14.4623L20.0432 14.4624L22.5388 14.315ZM22.6188 16.0367L20.1193 16.0898L20.1193 16.0903L22.6188 16.0367ZM22.552 18.0664L25.0469 18.2258L25.047 18.2254L22.552 18.0664ZM20.7934 20.1145L21.586 22.4855L21.6042 22.4794L21.6224 22.473L20.7934 20.1145ZM18.7324 20.5831L18.4207 18.1026L18.4007 18.1051L18.3807 18.108L18.7324 20.5831ZM11.6182 20.8886L11.6335 18.3886L11.633 18.3886L11.6182 20.8886ZM11.3093 20.8868L11.2932 23.3867L11.2945 23.3867L11.3093 20.8868ZM10.9462 20.8868V23.3868L10.9563 23.3867L10.9462 20.8868ZM10.7235 20.8868V18.3868H8.28348L8.22427 20.8261L10.7235 20.8868ZM10.7226 20.9249L10.662 23.4242L13.1612 23.4848L13.2219 20.9856L10.7226 20.9249ZM9.16895 20.888L9.1105 23.3873L9.11085 23.3874L9.16895 20.888ZM4.59688 20.769L4.45326 23.2649L4.48598 23.2668L4.51875 23.2678L4.59688 20.769ZM3.4223 20.6138L3.93236 18.1664L3.9029 18.1602L3.8733 18.1548L3.4223 20.6138ZM3.35576 20.6016L3.80676 18.1426L3.8037 18.142L3.35576 20.6016ZM2.04327 19.4481L-0.339636 20.2043L-0.336726 20.2135L-0.333746 20.2226L2.04327 19.4481ZM1.57857 16.4061L4.07854 16.4181L4.07861 16.4031L4.0785 16.3881L1.57857 16.4061ZM1.58882 14.9979L4.08856 15.034L4.08856 15.0336L1.58882 14.9979ZM1.59128 13.1179L3.01454 11.0626L-1.02621 8.26446L-0.907995 13.178L1.59128 13.1179ZM23.7356 14.2605L26.2332 14.151C26.2052 13.5109 26.1754 12.5983 26.1431 11.6081L23.6445 11.6896L21.1458 11.7711C21.1777 12.749 21.2085 13.6951 21.238 14.3699L23.7356 14.2605ZM23.6445 11.6896L26.1431 11.6084C26.0948 10.1202 26.0381 8.3725 25.9742 7.30681L23.4787 7.45641L20.9831 7.606C21.0419 8.5861 21.0963 10.2494 21.1458 11.7708L23.6445 11.6896ZM23.4787 7.45641L25.9742 7.30735C25.9122 6.26927 25.8217 4.87421 25.6825 3.47042L23.1947 3.7171L20.7069 3.96378C20.8362 5.26732 20.9221 6.58351 20.9831 7.60547L23.4787 7.45641ZM23.1947 3.7171L25.6825 3.47052C25.3467 0.0824326 22.4873 -2.10869 19.2681 -2.21429L19.1861 0.284368L19.1042 2.78302C20.2186 2.81958 20.6562 3.45156 20.7069 3.96368L23.1947 3.7171ZM19.1861 0.284368L19.2679 -2.21429C17.6231 -2.26813 15.9548 -2.29045 14.3683 -2.31187L14.3345 0.187904L14.3008 2.68768C15.8959 2.70921 17.5157 2.73103 19.1043 2.78303L19.1861 0.284368ZM14.3345 0.187904V-2.3121H14.3189V0.187904V2.6879H14.3345V0.187904ZM14.3189 0.187904L14.3533 -2.31186C13.867 -2.31855 13.3772 -2.31432 12.9363 -2.31075L12.9565 0.189167L12.9767 2.68909C13.4287 2.68543 13.8626 2.68186 14.2845 2.68767L14.3189 0.187904ZM12.9565 0.189167L12.9369 -2.31076C12.1889 -2.30489 11.5029 -2.30004 10.8439 -2.33316L10.7184 0.163686L10.5929 2.66053C11.4218 2.7022 12.2546 2.69475 12.9761 2.68909L12.9565 0.189167ZM10.7184 0.163686L10.8442 -2.33315C8.99257 -2.42644 7.07183 -2.34517 4.66962 -2.09238L4.93126 0.393894L5.1929 2.88017C7.42767 2.64499 9.07627 2.58412 10.5926 2.66052L10.7184 0.163686ZM4.93126 0.393894L4.66964 -2.09238C2.82101 -1.89786 1.19957 -1.35024 -0.187553 -0.233682L1.38005 1.71378L2.94765 3.66125C3.40559 3.29263 4.04083 3.00139 5.19287 2.88017L4.93126 0.393894ZM1.38005 1.71378L-0.187575 -0.233665C-1.43009 0.766517 -2.24173 2.14538 -2.2455 3.86226L0.254494 3.86774L2.75449 3.87323C2.75455 3.84613 2.75732 3.83922 2.7557 3.84596C2.75505 3.84864 2.75401 3.85217 2.75263 3.85584C2.75126 3.8595 2.75025 3.86143 2.75037 3.86121C2.75052 3.86093 2.75256 3.85703 2.75775 3.84942C2.76299 3.84174 2.77196 3.82951 2.78613 3.81293C2.81468 3.77953 2.8648 3.72794 2.94767 3.66123L1.38005 1.71378ZM0.254494 3.86774L-2.2455 3.8613C-2.24614 4.10957 -2.25136 4.35796 -2.26096 4.59909L0.237058 4.69859L2.73508 4.79809C2.74721 4.49346 2.75369 4.18301 2.75449 3.87418L0.254494 3.86774ZM0.237058 4.69859L-2.26102 4.60056C-2.26878 4.7982 -2.28328 5.00752 -2.30063 5.25342L0.193174 5.42938L2.68697 5.60534C2.70346 5.37166 2.72382 5.085 2.73514 4.79662L0.237058 4.69859ZM0.193174 5.42938L-2.29611 5.19811C-2.35394 5.82064 -2.36955 6.44617 -2.34279 7.07076L0.154922 6.96374L2.65263 6.85673C2.63554 6.45789 2.6455 6.0584 2.68245 5.66065L0.193174 5.42938ZM0.154922 6.96374L-2.33958 7.12945C-2.22285 8.88664 -2.05533 12.5364 -2.18186 14.3245L0.311909 14.5009L2.80567 14.6774C2.95989 12.4981 2.76382 8.52007 2.64942 6.79804L0.154922 6.96374ZM0.311909 14.5009L-2.18187 14.3247C-2.24082 15.1588 -2.22337 15.9901 -2.21061 16.6653L0.28894 16.6181L2.78849 16.5709C2.775 15.8564 2.76518 15.2503 2.80569 14.6772L0.311909 14.5009ZM0.28894 16.6181L-2.21064 16.6641L-2.20776 16.8204L0.291819 16.7743L2.79139 16.7282L2.78852 16.572L0.28894 16.6181ZM0.291819 16.7743L-2.20817 16.7828C-2.20349 18.1542 -1.96552 19.514 -1.50519 20.8087L0.850347 19.9712L3.20588 19.1336C2.93382 18.3684 2.79455 17.5691 2.7918 16.7658L0.291819 16.7743ZM0.850347 19.9712L-1.49575 20.8348C-0.817173 22.6782 0.623887 23.9106 2.55899 24.2809L3.02887 21.8255L3.49875 19.3701C3.41096 19.3533 3.35972 19.3336 3.33463 19.3221C3.31092 19.3112 3.30276 19.3041 3.30123 19.3028C3.29966 19.3014 3.29041 19.2937 3.27449 19.27C3.2577 19.2451 3.22861 19.1949 3.19645 19.1075L0.850347 19.9712ZM3.02887 21.8255L2.54306 24.2778C3.33568 24.4349 4.13967 24.5318 4.94759 24.5679L5.05912 22.0703L5.17064 19.5728C4.61361 19.548 4.05986 19.4812 3.51467 19.3732L3.02887 21.8255ZM5.05912 22.0703L4.96214 24.5685C6.26294 24.619 7.58198 24.6469 8.83274 24.6735L8.88585 22.174L8.93895 19.6746C7.6806 19.6479 6.40562 19.6207 5.15609 19.5722L5.05912 22.0703ZM8.88585 22.174L8.83279 24.6735C9.34014 24.6842 9.84757 24.6955 10.3551 24.7073L10.4129 22.2079L10.4708 19.7086C9.96017 19.6968 9.44955 19.6854 8.9389 19.6746L8.88585 22.174ZM10.4129 22.2079L11.0787 24.6176L11.1293 24.6037L10.4635 22.194L9.79772 19.7842L9.74717 19.7982L10.4129 22.2079ZM10.4635 22.194L10.4702 24.6939L10.9087 24.6928L10.9021 22.1928L10.8954 19.6928L10.4568 19.694L10.4635 22.194ZM10.9021 22.1928V24.6928H11.8762V22.1928V19.6928H10.9021V22.1928ZM11.8762 22.1928L11.8726 24.6928L12.4076 24.6935L12.4112 22.1935L12.4148 19.6935L11.8797 19.6928L11.8762 22.1928ZM12.4112 22.1935L12.4072 24.6935C14.4824 24.6969 16.8536 24.7068 19.1985 24.3569L18.8296 21.8843L18.4606 19.4116C16.5498 19.6967 14.5577 19.697 12.4153 19.6936L12.4112 22.1935ZM18.8296 21.8843L19.1986 24.3569C19.9679 24.2421 21.0598 24.0572 22.129 23.6481L21.2355 21.3132L20.3421 18.9783C19.8104 19.1817 19.1725 19.3054 18.4606 19.4116L18.8296 21.8843ZM21.2355 21.3132L22.1291 23.6481C23.2687 23.212 24.2984 22.5309 25.0615 21.5333C25.831 20.5274 26.2127 19.3516 26.2908 18.125L23.7959 17.966L21.301 17.807C21.2765 18.1906 21.1762 18.383 21.0902 18.4955C20.9978 18.6162 20.7987 18.8036 20.342 18.9783L21.2355 21.3132ZM23.7959 17.966L26.2909 18.1249C26.3677 16.918 26.308 15.7265 26.2604 14.732L23.7633 14.8515L21.2662 14.9711C21.316 16.0118 21.3572 16.9247 21.301 17.8071L23.7959 17.966ZM23.7633 14.8515L26.2602 14.7277C26.2507 14.5353 26.2417 14.3428 26.2332 14.1504L23.7356 14.2605L21.2381 14.3706C21.2469 14.572 21.2564 14.7736 21.2664 14.9754L23.7633 14.8515ZM1.5917 13.1182L4.09095 13.0573L4.08428 12.7833L1.58502 12.8441L-0.914236 12.905L-0.907564 13.179L1.5917 13.1182ZM1.58502 12.8441L4.0843 12.7841C4.05363 11.507 3.98692 8.70574 3.90379 7.48744L1.40959 7.65763L-1.08461 7.82783C-1.01107 8.90563 -0.946545 11.5596 -0.914256 12.9041L1.58502 12.8441ZM1.40959 7.65763L3.90377 7.48714C3.83041 6.41405 3.80504 5.20531 4.05398 4.05084L1.61015 3.52389L-0.833687 2.99693C-1.23484 4.85733 -1.16607 6.63615 -1.08459 7.82813L1.40959 7.65763ZM1.61015 3.52389L4.01245 4.21595L4.01563 4.20491L1.61332 3.51285L-0.788977 2.82079L-0.792157 2.83183L1.61015 3.52389ZM1.61332 3.51285L3.95536 4.38743C4.08088 4.05129 4.13686 3.69069 4.11696 3.32776L1.62071 3.46463L-0.875541 3.6015C-0.893644 3.27133 -0.842685 2.94349 -0.728708 2.63827L1.61332 3.51285ZM1.62071 3.46463L4.11092 3.24355C4.12072 3.35405 4.11403 3.55068 4.02692 3.78163C3.94095 4.00953 3.81682 4.16452 3.7337 4.24794C3.66233 4.31956 3.6255 4.33407 3.68951 4.29475C3.75866 4.25228 3.84873 4.20402 4.03598 4.10618L2.87824 1.89041L1.72051 -0.325364C1.46803 -0.193446 0.755049 0.153517 0.191861 0.718719C-0.533026 1.4462 -0.977943 2.46416 -0.869497 3.68571L1.62071 3.46463ZM2.87824 1.89041L4.03942 4.10438L4.06269 4.09218L2.90151 1.8782L1.74033 -0.335765L1.71706 -0.323561L2.87824 1.89041ZM2.90151 1.8782L4.05914 4.09403C4.29246 3.97214 4.62514 3.89123 5.31261 3.79847L4.97832 1.32092L4.64403 -1.15663C3.95379 -1.0635 2.83104 -0.905595 1.74388 -0.337625L2.90151 1.8782ZM4.97832 1.32092L5.28874 3.80157C6.73881 3.62012 8.20065 3.53602 9.66335 3.54996L9.68718 1.05007L9.71101 -1.44981C8.02501 -1.46588 6.33984 -1.36895 4.6679 -1.15973L4.97832 1.32092ZM9.68718 1.05007V3.55007C10.3175 3.55007 10.9441 3.55995 11.5718 3.57253L11.6219 1.07303L11.6719 -1.42647C11.0326 -1.43928 10.3672 -1.44993 9.68718 -1.44993V1.05007ZM11.6219 1.07303L11.5718 3.57253C12.7322 3.59578 13.9106 3.61083 15.0397 3.62526L15.0717 1.12547L15.1036 -1.37433C13.9714 -1.3888 12.8112 -1.40364 11.672 -1.42647L11.6219 1.07303ZM15.0717 1.12547L15.0396 3.62526C16.0316 3.63797 17.0487 3.65095 18.0477 3.66935L18.0938 1.16978L18.1398 -1.3298C17.1243 -1.3485 16.093 -1.36165 15.1037 -1.37433L15.0717 1.12547ZM18.0938 1.16978L18.0651 3.66961C18.4169 3.67364 18.7677 3.70223 19.1146 3.7551L19.4912 1.28362L19.8677 -1.18786C19.2902 -1.27586 18.7069 -1.32336 18.1224 -1.33006L18.0938 1.16978ZM19.4912 1.28362L19.0996 3.75277C19.3075 3.78573 19.4303 3.83291 19.4936 3.86442C19.5523 3.89362 19.5681 3.91297 19.5688 3.91368C19.5694 3.91441 19.587 3.93243 19.6096 3.99439C19.634 4.06122 19.6672 4.18896 19.6769 4.3997L22.1743 4.28551L24.6717 4.17133C24.613 2.88817 24.2158 1.60994 23.2967 0.581695C22.3776 -0.446691 21.1517 -0.984305 19.8827 -1.18553L19.4912 1.28362ZM22.1743 4.28551L19.6769 4.39997C19.7324 5.6111 19.7841 7.31553 19.8349 8.99349L22.3337 8.91786L24.8326 8.84223C24.7823 7.17962 24.7293 5.43002 24.6717 4.17106L22.1743 4.28551ZM22.3337 8.91786L19.8349 8.99359C19.8815 10.5334 19.9306 12.1517 19.9819 13.3265L22.4795 13.2174L24.9771 13.1082C24.9276 11.9745 24.8796 10.3949 24.8326 8.84214L22.3337 8.91786ZM22.4795 13.2174L19.9819 13.3265C19.9989 13.7151 20.0222 14.1066 20.0431 14.4623L22.5388 14.315L25.0345 14.1676C25.013 13.8042 24.9922 13.4518 24.9772 13.1082L22.4795 13.2174ZM22.5388 14.315L20.0432 14.4624C20.0769 15.0346 20.1083 15.571 20.1193 16.0898L22.6188 16.0367L25.1182 15.9836C25.1048 15.3546 25.0673 14.7238 25.0345 14.1676L22.5388 14.315ZM22.6188 16.0367L20.1193 16.0903C20.1314 16.6516 20.0989 17.2515 20.0571 17.9073L22.552 18.0664L25.047 18.2254C25.0886 17.5721 25.1353 16.7805 25.1182 15.9831L22.6188 16.0367ZM22.552 18.0664L20.0571 17.9069C20.0567 17.9138 20.0582 17.8816 20.0798 17.8266C20.1021 17.7698 20.1343 17.7184 20.1671 17.6802C20.2313 17.6054 20.222 17.6654 19.9644 17.7559L20.7934 20.1145L21.6224 22.473C22.4697 22.1752 23.3088 21.6965 23.9605 20.9375C24.635 20.152 24.9841 19.2098 25.0469 18.2258L22.552 18.0664ZM20.7934 20.1145L20.0008 17.7434C19.4896 17.9143 18.96 18.0349 18.4207 18.1026L18.7324 20.5831L19.044 23.0636C19.909 22.9549 20.7608 22.7614 21.586 22.4855L20.7934 20.1145ZM18.7324 20.5831L18.3807 18.108C16.2363 18.4126 14.0037 18.4032 11.6335 18.3886L11.6182 20.8886L11.6028 23.3886C13.9088 23.4027 16.5129 23.4235 19.084 23.0583L18.7324 20.5831ZM11.6182 20.8886L11.633 18.3886L11.3242 18.3868L11.3093 20.8868L11.2945 23.3867L11.6033 23.3886L11.6182 20.8886ZM11.3093 20.8868L11.3255 18.3868C11.1907 18.3859 11.0589 18.3863 10.9362 18.3868L10.9462 20.8868L10.9563 23.3867C11.0758 23.3863 11.1859 23.386 11.2932 23.3867L11.3093 20.8868ZM10.9462 20.8868V18.3868H10.7235V20.8868V23.3868H10.9462V20.8868ZM10.7235 20.8868L8.22427 20.8261L8.22334 20.8643L10.7226 20.9249L13.2219 20.9856L13.2228 20.9474L10.7235 20.8868ZM10.7226 20.9249L10.7832 18.4257C10.2646 18.4131 9.74583 18.4008 9.22706 18.3887L9.16895 20.888L9.11085 23.3874C9.62798 23.3994 10.145 23.4116 10.662 23.4242L10.7226 20.9249ZM9.16895 20.888L9.2274 18.3887C7.72715 18.3536 6.18728 18.3175 4.67501 18.2702L4.59688 20.769L4.51875 23.2678C6.05392 23.3158 7.61336 23.3523 9.1105 23.3873L9.16895 20.888ZM4.59688 20.769L4.7405 18.2731C4.46831 18.2575 4.19809 18.2217 3.93236 18.1664L3.4223 20.6138L2.91224 23.0612C3.41995 23.167 3.93514 23.2351 4.45326 23.2649L4.59688 20.769ZM3.4223 20.6138L3.8733 18.1548L3.80676 18.1426L3.35576 20.6016L2.90476 23.0606L2.9713 23.0728L3.4223 20.6138ZM3.35576 20.6016L3.8037 18.142C3.85304 18.151 4.01208 18.1954 4.18079 18.3436C4.34843 18.4909 4.40865 18.638 4.42028 18.6737L2.04327 19.4481L-0.333746 20.2226C0.157557 21.7305 1.33256 22.7742 2.90782 23.0611L3.35576 20.6016ZM2.04327 19.4481L4.42617 18.692C4.19164 17.9529 4.07487 17.1867 4.07854 16.4181L1.57857 16.4061L-0.921407 16.3942C-0.927573 17.6863 -0.731098 18.9707 -0.339636 20.2043L2.04327 19.4481ZM1.57857 16.4061L4.0785 16.3881C4.07535 15.9507 4.08182 15.5002 4.08856 15.034L1.58882 14.9979L-0.910923 14.9618C-0.917516 15.418 -0.924983 15.9233 -0.92137 16.4242L1.57857 16.4061ZM1.58882 14.9979L4.08856 15.0336C4.09728 14.4238 4.10697 13.7397 4.09056 13.0578L1.59128 13.1179L-0.907995 13.178C-0.894256 13.7491 -0.902014 14.339 -0.910928 14.9621L1.58882 14.9979ZM1.59128 13.1179L0.168025 15.1732L0.168438 15.1735L1.5917 13.1182L3.01495 11.0629L3.01454 11.0626L1.59128 13.1179Z" fill="url(#paint0_linear_2856_37378)" mask="url(#path-1-inside-1_2856_37378)"/>
<mask id="path-3-inside-2_2856_37378" fill="white">
<path d="M5.84582 11.4526C5.9301 11.46 6.01443 11.4677 6.09878 11.4757C6.44526 11.508 6.80342 11.5414 7.15738 11.5458C8.56913 11.5633 10.5675 11.5768 12.4996 11.59C13.9967 11.5998 15.4106 11.6095 16.494 11.6207C16.573 11.6235 16.6518 11.631 16.7298 11.6433L16.7828 11.6504C16.7592 11.6747 16.7368 11.6978 16.7155 11.7199C16.6384 11.7995 16.5744 11.8656 16.5078 11.9292C15.5716 12.8371 14.789 13.8779 14.1881 15.0144L14.1689 15.0492C14.1095 15.1477 14.0626 15.2526 14.0294 15.3616C14.0182 15.4263 14.0229 15.4926 14.043 15.5552C14.049 15.5805 14.0548 15.6057 14.0584 15.6304L14.0658 15.6817L14.1191 15.6719C14.1503 15.6667 14.1818 15.6631 14.2134 15.6609C14.294 15.6627 14.3732 15.6405 14.4398 15.5974C14.5138 15.531 14.5803 15.4574 14.6381 15.3778C14.6829 15.3177 14.7317 15.2605 14.7844 15.2066C15.2136 14.7887 15.6436 14.3717 16.0745 13.9554C16.6329 13.4152 17.1903 12.874 17.7465 12.3319C17.9937 12.1056 18.2165 11.8563 18.4118 11.5879C18.6903 11.1763 18.6476 10.8338 18.2702 10.4428C17.9074 10.0673 17.5275 9.66062 17.1087 9.19951C16.804 8.86372 16.5006 8.52676 16.1986 8.18862C15.8705 7.82231 15.5411 7.45676 15.2105 7.092C15.0843 6.94521 14.9362 6.81674 14.7709 6.71065C14.6721 6.65207 14.4585 6.64408 14.3752 6.7173C14.3298 6.76926 14.2991 6.83152 14.2863 6.89805C14.2735 6.96458 14.2789 7.03313 14.302 7.09708C14.3915 7.25312 14.4975 7.40001 14.6184 7.53545C14.6452 7.56757 14.6719 7.5996 14.6981 7.63182C15.0786 8.09908 15.4596 8.56607 15.8409 9.03275C16.2853 9.57676 16.7291 10.121 17.1724 10.6654C17.2089 10.7138 17.2411 10.7651 17.2687 10.8186C17.2754 10.8308 17.2826 10.8434 17.29 10.8566C17.045 10.8452 16.8044 10.8335 16.5666 10.8219C15.9801 10.7933 15.426 10.7663 14.8645 10.7458C13.6705 10.7024 11.9265 10.6603 10.24 10.6196C8.78815 10.5843 7.41691 10.5512 6.40968 10.518C6.2123 10.5134 6.0149 10.5267 5.82018 10.5578C5.52282 10.6029 5.37189 10.7485 5.37219 10.9909C5.37209 11.2617 5.54046 11.4255 5.84582 11.4526Z"/>
</mask>
<path d="M5.84582 11.4526C5.9301 11.46 6.01443 11.4677 6.09878 11.4757C6.44526 11.508 6.80342 11.5414 7.15738 11.5458C8.56913 11.5633 10.5675 11.5768 12.4996 11.59C13.9967 11.5998 15.4106 11.6095 16.494 11.6207C16.573 11.6235 16.6518 11.631 16.7298 11.6433L16.7828 11.6504C16.7592 11.6747 16.7368 11.6978 16.7155 11.7199C16.6384 11.7995 16.5744 11.8656 16.5078 11.9292C15.5716 12.8371 14.789 13.8779 14.1881 15.0144L14.1689 15.0492C14.1095 15.1477 14.0626 15.2526 14.0294 15.3616C14.0182 15.4263 14.0229 15.4926 14.043 15.5552C14.049 15.5805 14.0548 15.6057 14.0584 15.6304L14.0658 15.6817L14.1191 15.6719C14.1503 15.6667 14.1818 15.6631 14.2134 15.6609C14.294 15.6627 14.3732 15.6405 14.4398 15.5974C14.5138 15.531 14.5803 15.4574 14.6381 15.3778C14.6829 15.3177 14.7317 15.2605 14.7844 15.2066C15.2136 14.7887 15.6436 14.3717 16.0745 13.9554C16.6329 13.4152 17.1903 12.874 17.7465 12.3319C17.9937 12.1056 18.2165 11.8563 18.4118 11.5879C18.6903 11.1763 18.6476 10.8338 18.2702 10.4428C17.9074 10.0673 17.5275 9.66062 17.1087 9.19951C16.804 8.86372 16.5006 8.52676 16.1986 8.18862C15.8705 7.82231 15.5411 7.45676 15.2105 7.092C15.0843 6.94521 14.9362 6.81674 14.7709 6.71065C14.6721 6.65207 14.4585 6.64408 14.3752 6.7173C14.3298 6.76926 14.2991 6.83152 14.2863 6.89805C14.2735 6.96458 14.2789 7.03313 14.302 7.09708C14.3915 7.25312 14.4975 7.40001 14.6184 7.53545C14.6452 7.56757 14.6719 7.5996 14.6981 7.63182C15.0786 8.09908 15.4596 8.56607 15.8409 9.03275C16.2853 9.57676 16.7291 10.121 17.1724 10.6654C17.2089 10.7138 17.2411 10.7651 17.2687 10.8186C17.2754 10.8308 17.2826 10.8434 17.29 10.8566C17.045 10.8452 16.8044 10.8335 16.5666 10.8219C15.9801 10.7933 15.426 10.7663 14.8645 10.7458C13.6705 10.7024 11.9265 10.6603 10.24 10.6196C8.78815 10.5843 7.41691 10.5512 6.40968 10.518C6.2123 10.5134 6.0149 10.5267 5.82018 10.5578C5.52282 10.6029 5.37189 10.7485 5.37219 10.9909C5.37209 11.2617 5.54046 11.4255 5.84582 11.4526Z" fill="white"/>
<path d="M5.84582 11.4526L5.62527 13.9428L5.62658 13.9429L5.84582 11.4526ZM6.09878 11.4757L5.86258 13.9645L5.86661 13.9649L6.09878 11.4757ZM7.15738 11.5458L7.12636 14.0456L7.12644 14.0456L7.15738 11.5458ZM12.4996 11.59L12.4826 14.09L12.4833 14.09L12.4996 11.59ZM16.494 11.6207L16.5821 9.12222L16.5509 9.12112L16.5197 9.1208L16.494 11.6207ZM16.7298 11.6433L16.3406 14.1129L16.3708 14.1176L16.4011 14.1216L16.7298 11.6433ZM16.7828 11.6504L18.5734 13.395L22.0497 9.82712L17.1116 9.17207L16.7828 11.6504ZM16.7155 11.7199L18.5119 13.4586L18.513 13.4574L16.7155 11.7199ZM16.5078 11.9292L14.7811 10.1213L14.7743 10.1278L14.7675 10.1344L16.5078 11.9292ZM14.1881 15.0144L16.3788 16.219L16.3886 16.201L16.3982 16.1829L14.1881 15.0144ZM14.1689 15.0492L16.3089 16.3417L16.3351 16.2983L16.3596 16.2538L14.1689 15.0492ZM14.0294 15.3616L11.6379 14.633L11.5925 14.7819L11.566 14.9354L14.0294 15.3616ZM14.043 15.5552L16.4766 14.9829L16.4536 14.8852L16.4229 14.7896L14.043 15.5552ZM14.0584 15.6304L16.5328 15.2738L16.5324 15.271L14.0584 15.6304ZM14.0658 15.6817L11.5914 16.0382L11.9617 18.6079L14.5155 18.1409L14.0658 15.6817ZM14.1191 15.6719L13.7104 13.2056L13.6898 13.209L13.6694 13.2127L14.1191 15.6719ZM14.2134 15.6609L14.2706 13.1615L14.1561 13.1589L14.0419 13.1668L14.2134 15.6609ZM14.4398 15.5974L15.7974 17.6967L15.963 17.5896L16.1098 17.4579L14.4398 15.5974ZM14.6381 15.3778L12.6328 13.885L12.6241 13.8966L12.6156 13.9083L14.6381 15.3778ZM14.7844 15.2066L13.0405 13.4153L13.018 13.4372L12.996 13.4596L14.7844 15.2066ZM16.0745 13.9554L17.8115 15.7535L17.8128 15.7522L16.0745 13.9554ZM17.7465 12.3319L16.0582 10.4881L16.0295 10.5144L16.0016 10.5416L17.7465 12.3319ZM18.4118 11.5879L20.4337 13.0581L20.4586 13.0239L20.4824 12.9888L18.4118 11.5879ZM18.2702 10.4428L20.0686 8.70634L20.0681 8.70577L18.2702 10.4428ZM17.1087 9.19951L15.2574 10.8796L15.258 10.8802L17.1087 9.19951ZM16.1986 8.18862L18.0631 6.52326L18.0608 6.5206L16.1986 8.18862ZM15.2105 7.092L13.3152 8.72228L13.3364 8.74686L13.3581 8.77087L15.2105 7.092ZM14.7709 6.71065L16.1217 4.60695L16.084 4.58277L16.0455 4.55996L14.7709 6.71065ZM14.3752 6.7173L12.7243 4.84001L12.6017 4.94781L12.4942 5.07064L14.3752 6.7173ZM14.302 7.09708L11.9512 7.94767L12.025 8.1518L12.133 8.34014L14.302 7.09708ZM14.6184 7.53545L16.536 5.93155L16.5102 5.90063L16.4833 5.87055L14.6184 7.53545ZM14.6981 7.63182L16.6367 6.05326L16.6363 6.05272L14.6981 7.63182ZM15.8409 9.03275L17.7772 7.45128L17.7768 7.45079L15.8409 9.03275ZM17.1724 10.6654L19.1679 9.15942L19.1401 9.12267L19.111 9.08696L17.1724 10.6654ZM17.2687 10.8186L15.0456 11.9623L15.0634 11.9969L15.0823 12.031L17.2687 10.8186ZM17.29 10.8566L17.1735 13.3539L21.6718 13.5636L19.4711 9.63487L17.29 10.8566ZM16.5666 10.8219L16.6886 8.32483L16.688 8.3248L16.5666 10.8219ZM14.8645 10.7458L14.9557 8.24746L14.9552 8.24744L14.8645 10.7458ZM10.24 10.6196L10.1793 13.1188L10.1797 13.1188L10.24 10.6196ZM6.40968 10.518L6.49202 8.01937L6.48027 8.01898L6.46851 8.01871L6.40968 10.518ZM5.82018 10.5578L6.19432 13.0297L6.20467 13.0281L6.215 13.0265L5.82018 10.5578ZM5.37219 10.9909L7.8722 10.9919L7.87219 10.9878L5.37219 10.9909ZM5.84582 11.4526L5.62658 13.9429C5.70509 13.9498 5.78376 13.957 5.86258 13.9645L6.09878 11.4757L6.33499 8.98688C6.2451 8.97835 6.15511 8.97011 6.06505 8.96218L5.84582 11.4526ZM6.09878 11.4757L5.86661 13.9649C6.196 13.9956 6.65471 14.0398 7.12636 14.0456L7.15738 11.5458L7.18841 9.04599C6.95213 9.04306 6.69452 9.02041 6.33095 8.9865L6.09878 11.4757ZM7.15738 11.5458L7.12644 14.0456C8.54679 14.0632 10.5534 14.0768 12.4826 14.09L12.4996 11.59L12.5167 9.09007C10.5816 9.07687 8.59147 9.06336 7.18833 9.04599L7.15738 11.5458ZM12.4996 11.59L12.4833 14.09C13.9811 14.0997 15.3903 14.1095 16.4683 14.1205L16.494 11.6207L16.5197 9.1208C15.4308 9.10961 14.0123 9.09982 12.5159 9.09007L12.4996 11.59ZM16.494 11.6207L16.4059 14.1191C16.3838 14.1183 16.362 14.1162 16.3406 14.1129L16.7298 11.6433L17.119 9.17382C16.9416 9.14584 16.7622 9.12857 16.5821 9.12222L16.494 11.6207ZM16.7298 11.6433L16.4011 14.1216L16.4541 14.1287L16.7828 11.6504L17.1116 9.17207L17.0586 9.16504L16.7298 11.6433ZM16.7828 11.6504L14.9922 9.90573C14.9645 9.93422 14.9386 9.96097 14.9179 9.98237L16.7155 11.7199L18.513 13.4574C18.535 13.4346 18.5538 13.4151 18.5734 13.395L16.7828 11.6504ZM16.7155 11.7199L14.9191 9.98119C14.8347 10.0684 14.8057 10.0978 14.7811 10.1213L16.5078 11.9292L18.2345 13.7371C18.343 13.6335 18.442 13.5307 18.5119 13.4586L16.7155 11.7199ZM16.5078 11.9292L14.7675 10.1344C13.6455 11.2224 12.7034 12.4738 11.978 13.8458L14.1881 15.0144L16.3982 16.1829C16.8746 15.2819 17.4976 14.4517 18.2482 13.724L16.5078 11.9292ZM14.1881 15.0144L11.9975 13.8097L11.9783 13.8446L14.1689 15.0492L16.3596 16.2538L16.3788 16.219L14.1881 15.0144ZM14.1689 15.0492L12.029 13.7567C11.8637 14.0303 11.7319 14.3244 11.6379 14.633L14.0294 15.3616L16.4208 16.0903C16.3933 16.1807 16.3552 16.265 16.3089 16.3417L14.1689 15.0492ZM14.0294 15.3616L11.566 14.9354C11.4856 15.3997 11.5197 15.8749 11.6631 16.3208L14.043 15.5552L16.4229 14.7896C16.5261 15.1103 16.5507 15.453 16.4928 15.7879L14.0294 15.3616ZM14.043 15.5552L11.6094 16.1276C11.6127 16.1416 11.6096 16.1288 11.6057 16.1104C11.6014 16.0901 11.5927 16.0471 11.5844 15.9899L14.0584 15.6304L16.5324 15.271C16.5109 15.1225 16.4794 14.9947 16.4766 14.9829L14.043 15.5552ZM14.0584 15.6304L11.584 15.987L11.5914 16.0382L14.0658 15.6817L16.5402 15.3251L16.5328 15.2738L14.0584 15.6304ZM14.0658 15.6817L14.5155 18.1409L14.5688 18.1311L14.1191 15.6719L13.6694 13.2127L13.6161 13.2224L14.0658 15.6817ZM14.1191 15.6719L14.5278 18.1383C14.4806 18.1461 14.4329 18.1517 14.385 18.155L14.2134 15.6609L14.0419 13.1668C13.9308 13.1744 13.8201 13.1874 13.7104 13.2056L14.1191 15.6719ZM14.2134 15.6609L14.1563 18.1602C14.7296 18.1733 15.303 18.0164 15.7974 17.6967L14.4398 15.5974L13.0823 13.4981C13.4433 13.2647 13.8584 13.1521 14.2706 13.1615L14.2134 15.6609ZM14.4398 15.5974L16.1098 17.4579C16.3135 17.2751 16.4984 17.0706 16.6607 16.8472L14.6381 15.3778L12.6156 13.9083C12.6622 13.8442 12.7142 13.787 12.7699 13.737L14.4398 15.5974ZM14.6381 15.3778L16.6435 16.8705C16.6213 16.9004 16.5976 16.928 16.5727 16.9535L14.7844 15.2066L12.996 13.4596C12.8658 13.593 12.7444 13.735 12.6328 13.885L14.6381 15.3778ZM14.7844 15.2066L16.5283 16.9979C16.9552 16.5823 17.3829 16.1675 17.8115 15.7535L16.0745 13.9554L14.3375 12.1574C13.9044 12.5759 13.472 12.9952 13.0405 13.4153L14.7844 15.2066ZM16.0745 13.9554L17.8128 15.7522C18.3734 15.2099 18.9329 14.6666 19.4914 14.1223L17.7465 12.3319L16.0016 10.5416C15.4476 11.0815 14.8925 11.6206 14.3363 12.1587L16.0745 13.9554ZM17.7465 12.3319L19.4348 14.1758C19.8043 13.8375 20.1391 13.4632 20.4337 13.0581L18.4118 11.5879L16.3898 10.1176C16.2939 10.2494 16.1831 10.3737 16.0582 10.4881L17.7465 12.3319ZM18.4118 11.5879L20.4824 12.9888C20.8318 12.4723 21.1894 11.6809 21.068 10.7003C20.952 9.76414 20.4515 9.10282 20.0686 8.70634L18.2702 10.4428L16.4717 12.1793C16.4663 12.1738 16.1758 11.8792 16.1059 11.3149C16.0305 10.7061 16.2702 10.2918 16.3412 10.1869L18.4118 11.5879ZM18.2702 10.4428L20.0681 8.70577C19.7263 8.35196 19.3641 7.96442 18.9594 7.51877L17.1087 9.19951L15.258 10.8802C15.6908 11.3568 16.0885 11.7827 16.4722 12.1799L18.2702 10.4428ZM17.1087 9.19951L18.96 7.51939C18.6597 7.18851 18.3607 6.85646 18.0631 6.52326L16.1986 8.18862L14.334 9.85399C14.6404 10.197 14.9482 10.5389 15.2574 10.8796L17.1087 9.19951ZM16.1986 8.18862L18.0608 6.5206C17.7294 6.15069 17.3968 5.78152 17.0629 5.41314L15.2105 7.092L13.3581 8.77087C13.6854 9.13199 14.0115 9.49393 14.3364 9.85665L16.1986 8.18862ZM15.2105 7.092L17.1058 5.46172C16.8197 5.12903 16.4875 4.84182 16.1217 4.60695L14.7709 6.71065L13.4202 8.81436C13.3849 8.79166 13.3488 8.76138 13.3152 8.72228L15.2105 7.092ZM14.7709 6.71065L16.0455 4.55996C15.4781 4.2237 14.909 4.1653 14.5728 4.16456C14.3158 4.16399 13.4667 4.1871 12.7243 4.84001L14.3752 6.7173L16.0262 8.5946C15.6531 8.92277 15.2772 9.04745 15.086 9.09704C14.8727 9.15238 14.6918 9.16483 14.5617 9.16455C14.4274 9.16425 14.2852 9.1502 14.1358 9.11693C14.002 9.08713 13.7652 9.02069 13.4964 8.86135L14.7709 6.71065ZM14.3752 6.7173L12.4942 5.07064C12.1627 5.44932 11.9299 5.91459 11.8315 6.42484L14.2863 6.89805L16.7411 7.37127C16.6684 7.74845 16.4969 8.08921 16.2563 8.36396L14.3752 6.7173ZM14.2863 6.89805L11.8315 6.42484C11.733 6.93571 11.7753 7.46159 11.9512 7.94767L14.302 7.09708L16.6529 6.24649C16.7825 6.60467 16.8139 6.99345 16.7411 7.37127L14.2863 6.89805ZM14.302 7.09708L12.133 8.34014C12.3096 8.64839 12.5178 8.93647 12.7534 9.20035L14.6184 7.53545L16.4833 5.87055C16.4771 5.86355 16.4733 5.85785 16.4711 5.85403L14.302 7.09708ZM14.6184 7.53545L12.7007 9.13934C12.7259 9.16955 12.7442 9.19158 12.76 9.21091L14.6981 7.63182L16.6363 6.05272C16.5996 6.00762 16.5645 5.96559 16.536 5.93155L14.6184 7.53545ZM14.6981 7.63182L12.7595 9.21037C13.1409 9.67876 13.5228 10.1469 13.9051 10.6147L15.8409 9.03275L17.7768 7.45079C17.3963 6.98526 17.0163 6.5194 16.6367 6.05326L14.6981 7.63182ZM15.8409 9.03275L13.9047 10.6142C14.3482 11.1572 14.7912 11.7005 15.2337 12.2439L17.1724 10.6654L19.111 9.08696C18.6669 8.54149 18.2223 7.99628 17.7772 7.45128L15.8409 9.03275ZM17.1724 10.6654L15.1769 12.1715C15.1279 12.1065 15.0838 12.0366 15.0456 11.9623L17.2687 10.8186L19.4917 9.67498C19.3984 9.49362 19.29 9.32122 19.1679 9.15942L17.1724 10.6654ZM17.2687 10.8186L15.0823 12.031C15.0903 12.0454 15.0975 12.0582 15.1014 12.0652C15.1065 12.0742 15.1074 12.0758 15.1089 12.0783L17.29 10.8566L19.4711 9.63487C19.4678 9.62896 19.4648 9.62365 19.4625 9.61946C19.4607 9.61625 19.4576 9.61074 19.4568 9.60935C19.4536 9.60366 19.4538 9.60403 19.455 9.60624L17.2687 10.8186ZM17.29 10.8566L17.4064 8.35932C17.1645 8.34804 16.9263 8.33645 16.6886 8.32483L16.5666 10.8219L16.4446 13.3189C16.6824 13.3305 16.9255 13.3423 17.1735 13.3539L17.29 10.8566ZM16.5666 10.8219L16.688 8.3248C16.1045 8.29644 15.535 8.26861 14.9557 8.24746L14.8645 10.7458L14.7732 13.2441C15.3169 13.264 15.8556 13.2902 16.4452 13.3189L16.5666 10.8219ZM14.8645 10.7458L14.9552 8.24744C13.7424 8.20341 11.9805 8.16084 10.3003 8.12028L10.24 10.6196L10.1797 13.1188C11.8726 13.1597 13.5986 13.2015 14.7737 13.2441L14.8645 10.7458ZM10.24 10.6196L10.3007 8.12029C8.84409 8.08493 7.4858 8.05212 6.49202 8.01937L6.40968 10.518L6.32733 13.0167C7.34802 13.0503 8.73221 13.0837 10.1793 13.1188L10.24 10.6196ZM6.40968 10.518L6.46851 8.01871C6.11952 8.01049 5.77028 8.03406 5.42537 8.08922L5.82018 10.5578L6.215 13.0265C6.25952 13.0194 6.30507 13.0162 6.35085 13.0173L6.40968 10.518ZM5.82018 10.5578L5.44605 8.086C5.00089 8.15338 4.32718 8.34225 3.74731 8.9026C3.10564 9.52267 2.87133 10.3115 2.87219 10.9941L5.37219 10.9909L7.87219 10.9878C7.87275 11.428 7.71375 12.0227 7.22181 12.4981C6.79168 12.9138 6.34212 13.0073 6.19432 13.0297L5.82018 10.5578ZM5.37219 10.9909L2.87219 10.99C2.87194 11.6696 3.10033 12.471 3.74994 13.1038C4.36299 13.7011 5.09279 13.8956 5.62527 13.9428L5.84582 11.4526L6.06637 8.9623C6.29348 8.98241 6.78642 9.08153 7.23898 9.52242C7.72808 9.99891 7.87235 10.583 7.87219 10.9919L5.37219 10.9909Z" fill="url(#paint1_linear_2856_37378)" mask="url(#path-3-inside-2_2856_37378)"/>
<defs>
<linearGradient id="paint0_linear_2856_37378" x1="11.9862" y1="0.129395" x2="11.9862" y2="22.2079" gradientUnits="userSpaceOnUse">
<stop stop-color="white"/>
<stop offset="1" stop-color="#FFEADA"/>
</linearGradient>
<linearGradient id="paint1_linear_2856_37378" x1="11.982" y1="6.66455" x2="11.982" y2="15.6817" gradientUnits="userSpaceOnUse">
<stop stop-color="white"/>
<stop offset="1" stop-color="#FFEADA"/>
</linearGradient>
</defs>
</svg>
