<svg width="12" height="17" viewBox="0 0 12 17" fill="none" xmlns="http://www.w3.org/2000/svg">
<path d="M4.26696 0.467004C4.47589 0.236854 4.8 0.240006 5.00893 0.470157C5.74821 1.28672 6.44196 2.16633 7.09018 3.11846C7.38482 2.66447 7.71964 2.16949 8.08125 1.76594C8.29286 1.53263 8.61964 1.53263 8.83125 1.76909C9.75804 2.80949 10.5429 4.18409 11.0946 5.48933C11.6384 6.77565 12 8.09034 12 9.01725C12 13.0402 9.32679 16.4388 6 16.4388C2.63571 16.4388 0 13.037 0 9.0141C0 7.80344 0.476786 6.32481 1.21607 4.86193C1.96339 3.37699 3.01875 1.82899 4.26696 0.467004ZM6.04554 13.4122C6.72321 13.4122 7.32321 13.1915 7.88839 12.7501C9.01607 11.8232 9.31875 9.96938 8.64107 8.51281C8.52054 8.22906 8.2125 8.21015 8.03839 8.44976L7.36339 9.37351C7.18661 9.61312 6.86786 9.60681 6.70179 9.35775C6.25982 8.69567 5.46964 7.51339 5.01964 6.84186C4.85089 6.58964 4.52946 6.58648 4.35804 6.8387C3.45268 8.17862 2.99732 9.02356 2.99732 9.97253C3 12.1322 4.35536 13.4122 6.04554 13.4122Z" fill="#EF4136"/>
</svg>
