<svg width="25" height="24" viewBox="0 0 25 24" fill="none" xmlns="http://www.w3.org/2000/svg">
<path d="M12.5002 0.959717C6.40878 0.959717 1.46021 5.90829 1.46021 11.9997C1.46021 13.9577 1.99718 15.7849 2.89271 17.38L1.47802 22.4303C1.45542 22.5112 1.4544 22.5965 1.47506 22.6778C1.49572 22.7592 1.53734 22.8337 1.59577 22.8939C1.6542 22.9541 1.7274 22.998 1.80806 23.0211C1.88873 23.0442 1.97405 23.0458 2.05552 23.0257L7.32146 21.7207C8.86883 22.5467 10.6246 23.0397 12.5002 23.0397C18.5916 23.0397 23.5402 18.0911 23.5402 11.9997C23.5402 5.90829 18.5916 0.959717 12.5002 0.959717ZM12.5002 1.91972C18.0728 1.91972 22.5802 6.42714 22.5802 11.9997C22.5802 17.5723 18.0728 22.0797 12.5002 22.0797C10.7137 22.0797 9.04042 21.6139 7.58583 20.8C7.47944 20.7406 7.35443 20.7238 7.23614 20.7532L2.62458 21.896L3.86114 17.4841C3.87884 17.4217 3.88372 17.3565 3.8755 17.2922C3.86729 17.2279 3.84614 17.1659 3.81333 17.11C2.92933 15.611 2.42021 13.867 2.42021 11.9997C2.42021 6.42714 6.92763 1.91972 12.5002 1.91972ZM8.48864 6.23972C8.18094 6.23972 7.74151 6.35419 7.38052 6.74315C7.16369 6.97678 6.2602 7.85708 6.2602 9.40472C6.2602 11.0182 7.37927 12.4105 7.51458 12.5894H7.51552V12.5903C7.50268 12.5735 7.68726 12.8408 7.93364 13.1613C8.18003 13.4818 8.52456 13.9027 8.95739 14.3585C9.82306 15.2699 11.0402 16.3233 12.5508 16.9675C13.2465 17.2638 13.7953 17.4426 14.2111 17.5732C14.9817 17.8151 15.6836 17.7783 16.2108 17.7007C16.6055 17.6425 17.0395 17.4531 17.469 17.1813C17.8984 16.9095 18.3193 16.5716 18.5049 16.0582C18.6379 15.6901 18.7054 15.3499 18.7299 15.07C18.7421 14.9301 18.7437 14.8066 18.7346 14.6922C18.7255 14.5779 18.7352 14.4903 18.6286 14.3153C18.4052 13.9484 18.1521 13.9388 17.888 13.8082C17.7413 13.7355 17.3236 13.5316 16.9046 13.3319C16.4861 13.1325 16.1237 12.9559 15.9005 12.8763C15.7595 12.8256 15.5874 12.7525 15.339 12.7807C15.0906 12.8088 14.8452 12.988 14.7024 13.1997C14.567 13.4004 14.022 14.0437 13.8558 14.2328C13.8536 14.2315 13.868 14.2381 13.8024 14.2057C13.5969 14.1039 13.3456 14.0175 12.9736 13.8213C12.6017 13.6251 12.1365 13.3354 11.6274 12.8866V12.8857C10.8697 12.2186 10.3389 11.381 10.1715 11.0997C10.1827 11.0863 10.1701 11.1025 10.194 11.0791L10.1949 11.0782C10.366 10.9096 10.5177 10.7083 10.6458 10.5607C10.8275 10.3513 10.9077 10.1668 10.9946 9.9944C11.1677 9.65081 11.0713 9.27271 10.9711 9.07378V9.07284C10.9781 9.0866 10.917 8.95179 10.8511 8.79628C10.7851 8.64032 10.701 8.43814 10.6111 8.22253C10.4314 7.79132 10.2308 7.30767 10.1115 7.0244V7.02347C9.97089 6.6898 9.78071 6.44943 9.53208 6.33347C9.28345 6.2175 9.06378 6.25047 9.05489 6.25003H9.05396C8.87653 6.24184 8.68182 6.23972 8.48864 6.23972ZM8.48864 7.19972C8.6737 7.19972 8.85615 7.20197 9.00896 7.20909C9.16615 7.21693 9.15637 7.21757 9.12614 7.20347C9.09543 7.18914 9.1371 7.18449 9.22645 7.39659C9.34329 7.67396 9.54493 8.15936 9.7252 8.5919C9.81534 8.80818 9.8997 9.01115 9.96708 9.17034C10.0345 9.32954 10.071 9.41842 10.1133 9.50315V9.50409L10.1143 9.50503C10.1558 9.58699 10.1521 9.53452 10.1377 9.56315C10.0364 9.76419 10.0227 9.81355 9.92021 9.93159C9.7642 10.1113 9.60506 10.3118 9.52083 10.3947C9.44714 10.4671 9.31417 10.5799 9.23114 10.8007C9.14799 11.0218 9.1868 11.3251 9.3202 11.5516C9.49782 11.8531 10.0831 12.8058 10.9927 13.6066C11.5655 14.1116 12.0992 14.4458 12.5255 14.6707C12.9518 14.8955 13.2991 15.0269 13.3768 15.0653C13.5613 15.1567 13.7629 15.2276 13.9974 15.1994C14.2319 15.1713 14.434 15.029 14.5627 14.8835L14.5636 14.8825C14.7349 14.6884 15.2438 14.1073 15.488 13.7491C15.4984 13.7527 15.495 13.7499 15.5761 13.7791V13.78H15.5771C15.6141 13.7932 16.0783 14.001 16.4921 14.1982C16.9059 14.3953 17.3259 14.6003 17.4624 14.6678C17.6594 14.7653 17.7524 14.8288 17.7765 14.8291C17.7781 14.8713 17.7797 14.9171 17.7736 14.9866C17.7568 15.1794 17.7053 15.4462 17.6021 15.7319C17.5515 15.8718 17.2882 16.1602 16.9561 16.3703C16.6241 16.5805 16.2199 16.7289 16.0702 16.751C15.6202 16.8173 15.0858 16.8415 14.499 16.6572C14.092 16.5295 13.5847 16.3642 12.9277 16.0844C11.5953 15.5162 10.4629 14.5492 9.65395 13.6975C9.24949 13.2717 8.92543 12.8752 8.69489 12.5753C8.46478 12.276 8.3643 12.1202 8.28052 12.01L8.27958 12.0091C8.13086 11.8124 7.2202 10.5457 7.2202 9.40472C7.2202 8.19715 7.78108 7.72361 8.08458 7.39659C8.24391 7.22491 8.4181 7.19972 8.48864 7.19972Z" fill="#F5753B"/>
</svg>
