<svg width="30" height="39" viewBox="0 0 30 39" fill="none" xmlns="http://www.w3.org/2000/svg">
<path d="M23.4888 5.04934C23.8882 4.11285 23.5903 3.01914 22.7712 2.4176C21.9521 1.81605 20.8352 1.87074 20.0703 2.54064L2.74067 17.8526C2.06373 18.4541 1.82003 19.418 2.13819 20.2656C2.45635 21.1132 3.26868 21.6874 4.16901 21.6874H11.7169L6.51121 33.9507C6.11181 34.8872 6.40967 35.9809 7.22876 36.5824C8.04786 37.1839 9.1648 37.1293 9.92974 36.4594L27.2593 21.1474C27.9363 20.5459 28.18 19.582 27.8618 18.7344C27.5436 17.8868 26.7381 17.3194 25.831 17.3194H18.2831L23.4888 5.04934Z" stroke="#FF7A01" stroke-width="3"/>
</svg>
