<svg width="329" height="331" viewBox="0 0 329 331" fill="none" xmlns="http://www.w3.org/2000/svg">
<rect x="3" y="3" width="323" height="325" rx="15" stroke="#FF7A01" stroke-width="7"/>
<path d="M248 32H296C297.105 32 298 32.912 298 34.0166C298 68.5729 298 80.4115 298 82" stroke="#FF7A01" stroke-width="3"/>
<path d="M81 32H33C31.8954 32 31 32.912 31 34.0166C31 68.5729 31 80.4115 31 82" stroke="#FF7A01" stroke-width="3"/>
<path d="M248 299H296C297.105 299 298 298.088 298 296.983C298 262.427 298 250.589 298 249" stroke="#FF7A01" stroke-width="3"/>
<path d="M81 299H33C31.8954 299 31 298.088 31 296.983C31 262.427 31 250.589 31 249" stroke="#FF7A01" stroke-width="3"/>
</svg>
