<svg width="326" height="467" viewBox="0 0 326 467" fill="none" xmlns="http://www.w3.org/2000/svg">
<rect x="3.41699" y="3.42698" width="318.262" height="459.146" stroke="#D4C4B6" stroke-width="2"/>
<path d="M308 16V451H15.0029L16.4482 16H308Z" stroke="#D4C4B6" stroke-width="2"/>
<path d="M15.7283 123.034L15.4226 123.334L15.4285 123.761L15.4617 126.524L12.7117 126.492L12.282 126.487L11.9832 126.795L10.0642 128.768L8.14429 126.795L7.84546 126.487L7.41577 126.492L4.66675 126.524L4.69897 123.761L4.70483 123.334L4.39917 123.034L2.42847 121.102L4.39917 119.169L4.70483 118.869L4.69897 118.442L4.66675 115.678L7.41577 115.711L7.84546 115.716L8.14429 115.408L10.0642 113.435L11.9832 115.408L12.282 115.716L12.7117 115.711L15.4617 115.678L15.4285 118.442L15.4226 118.869L15.7283 119.169L17.7 121.102L15.7283 123.034Z" fill="url(#paint0_radial_1426_12538)" stroke="#D4C4B6" stroke-width="2"/>
<path d="M15.7283 179.034L15.4226 179.334L15.4285 179.761L15.4617 182.524L12.7117 182.492L12.282 182.487L11.9832 182.795L10.0642 184.768L8.14429 182.795L7.84546 182.487L7.41577 182.492L4.66675 182.524L4.69897 179.761L4.70483 179.334L4.39917 179.034L2.42847 177.102L4.39917 175.169L4.70483 174.869L4.69897 174.442L4.66675 171.678L7.41577 171.711L7.84546 171.716L8.14429 171.408L10.0642 169.435L11.9832 171.408L12.282 171.716L12.7117 171.711L15.4617 171.678L15.4285 174.442L15.4226 174.869L15.7283 175.169L17.7 177.102L15.7283 179.034Z" fill="url(#paint1_radial_1426_12538)" stroke="#D4C4B6" stroke-width="2"/>
<path d="M15.7283 67.0342L15.4226 67.334L15.4285 67.7607L15.4617 70.5244L12.7117 70.4922L12.282 70.4873L11.9832 70.7949L10.0642 72.7676L8.14429 70.7949L7.84546 70.4873L7.41577 70.4922L4.66675 70.5244L4.69897 67.7607L4.70483 67.334L4.39917 67.0342L2.42847 65.1016L4.39917 63.1689L4.70483 62.8691L4.69897 62.4424L4.66675 59.6777L7.41577 59.7109L7.84546 59.7158L8.14429 59.4082L10.0642 57.4346L11.9832 59.4082L12.282 59.7158L12.7117 59.7109L15.4617 59.6777L15.4285 62.4424L15.4226 62.8691L15.7283 63.1689L17.7 65.1016L15.7283 67.0342Z" fill="url(#paint2_radial_1426_12538)" stroke="#D4C4B6" stroke-width="2"/>
<path d="M15.7301 235.032L15.4254 235.331L15.4303 235.759L15.4635 238.522L12.7135 238.489L12.2604 238.484L11.9576 238.821L10.0201 240.981L8.18909 238.84L7.88538 238.484L7.41663 238.489L4.66858 238.522L4.70081 235.759L4.70569 235.331L4.401 235.032L2.4303 233.1L4.401 231.168L4.70569 230.868L4.70081 230.441L4.66858 227.677L7.41663 227.71L7.90491 227.716L8.20959 227.336L10.0201 225.075L11.9371 227.354L12.2408 227.716L12.7135 227.71L15.4635 227.677L15.4303 230.441L15.4254 230.868L15.7301 231.168L17.7018 233.1L15.7301 235.032Z" fill="url(#paint3_radial_1426_12538)" stroke="#D4C4B6" stroke-width="2"/>
<path d="M14.972 290.955L14.6908 291.25L14.6957 291.658L14.7299 294.674L11.9799 294.64L11.5306 294.634L11.2279 294.966L9.33142 297.047L7.43396 294.966L7.13123 294.634L6.68201 294.64L3.93298 294.674L3.96619 291.658L3.97107 291.25L3.68982 290.955L1.65076 288.823L3.68982 286.691L3.97107 286.396L3.96619 285.989L3.93298 282.971L6.68201 283.006L7.13123 283.012L7.43396 282.68L9.33142 280.598L11.2279 282.68L11.5306 283.012L11.9799 283.006L14.7299 282.971L14.6957 285.989L14.6908 286.396L14.972 286.691L17.0121 288.823L14.972 290.955Z" fill="url(#paint4_radial_1426_12538)" stroke="#D4C4B6" stroke-width="2"/>
<path d="M313.594 450.566L313.297 450.892H310.336V454.445L310.005 454.743L307.574 456.929L309.936 458.699L310.336 459V462.525H313.279L313.573 462.828L315.668 464.982L317.763 462.828L318.063 462.52L318.492 462.525L321.493 462.561L321.457 459.544L321.452 459.117L321.756 458.817L323.908 456.708L321.756 454.599L321.452 454.3L321.457 453.873L321.493 450.855L318.492 450.892L318.08 450.896L317.784 450.609L315.543 448.435L313.594 450.566Z" fill="url(#paint5_radial_1426_12538)" stroke="#D4C4B6" stroke-width="2"/>
<path d="M14.8838 403.033L14.6084 403.322V406.144H11.6523L11.3516 406.514L9.66895 408.589L7.98438 406.514L7.68457 406.144H4.54492L4.72559 403.8L4.75977 403.355L4.45215 403.033L2.58984 401.075L4.45215 399.118L4.73242 398.823L4.72852 398.417L4.69824 395.652L7.19531 395.685L7.66406 395.69L7.96777 395.334L9.55078 393.48L11.4141 395.385L11.7139 395.69L12.1416 395.685L14.6396 395.652L14.6084 398.417L14.6035 398.823L14.8838 399.118L16.7471 401.075L14.8838 403.033Z" fill="url(#paint6_radial_1426_12538)" stroke="#D4C4B6" stroke-width="2"/>
<path d="M14.7285 347.186L14.4277 347.479V350.32H11.2373L10.9375 350.673L9.01855 352.933L7.20508 350.691L6.90527 350.32H3.50293L3.69629 347.982L3.73438 347.515L3.39941 347.186L1.42871 345.252L3.39941 343.319L3.70508 343.02L3.69922 342.594L3.66699 339.828L6.41602 339.862L6.86914 339.867L7.17188 339.53L9.01855 337.476L10.9727 339.548L11.2734 339.867L11.7119 339.862L14.4619 339.828L14.4287 342.594L14.4229 343.02L14.7285 343.319L16.7002 345.252L14.7285 347.186Z" fill="url(#paint7_radial_1426_12538)" stroke="#D4C4B6" stroke-width="2"/>
<path d="M11.7292 450.552L12.0271 450.892H14.9998V454.515L15.4187 454.813L17.8796 456.571L15.3494 458.741L14.9998 459.04V462.525H12.0574L11.7634 462.828L9.66772 464.982L7.573 462.828L7.27319 462.52L6.84448 462.525L3.84351 462.561L3.87964 459.544L3.88452 459.117L3.57983 458.817L1.42847 456.708L3.57983 454.599L3.88452 454.3L3.87964 453.873L3.84351 450.855L6.84448 450.892L7.3396 450.897L7.64526 450.507L9.54565 448.067L11.7292 450.552Z" fill="url(#paint8_radial_1426_12538)" stroke="#D4C4B6" stroke-width="2"/>
<path d="M54.0417 462.349H26.5203L20.906 456.518L26.5046 451H54.0554L60.4871 456.519L54.0417 462.349Z" stroke="#D4C4B6" stroke-width="2"/>
<path d="M3.41602 440.185V417.385L9.61328 411.598L14.5488 416.982V440.258L9.4502 445.162L3.41602 440.185Z" stroke="#D4C4B6" stroke-width="2"/>
<path d="M3.41699 385.255V361.658L9.00195 355.932L14.7109 361.762V385.433L9.46289 390.63L3.41699 385.255Z" stroke="#D4C4B6" stroke-width="2"/>
<path d="M3.41699 329.445V305.828L9.00195 299.95L14.7109 305.932V329.579L9.01465 334.648L3.41699 329.445Z" stroke="#D4C4B6" stroke-width="2"/>
<path d="M3.41699 272.592V249.826L9.89258 243.949L14.7109 249.839V272.755L9.35645 277.768L3.41699 272.592Z" stroke="#D4C4B6" stroke-width="2"/>
<path d="M3.41699 216.755V193.976L9.88867 187.523L14.7109 193.991V216.972L9.91113 222.128L3.41699 216.755Z" stroke="#D4C4B6" stroke-width="2"/>
<path d="M3.41699 160.752V137.293L9.96875 131.376L15.9199 137.266V160.919L9.97656 166.636L3.41699 160.752Z" stroke="#D4C4B6" stroke-width="2"/>
<path d="M3.77942 105.065V81.5962L10.0314 75.562L16.2823 81.5952V105.204L10.0402 110.476L3.77942 105.065Z" stroke="#D4C4B6" stroke-width="2"/>
<path d="M3.41699 49.2842V26.625L9.66895 20.7852L15.9199 26.625V49.4463L9.97852 54.6875L3.41699 49.2842Z" stroke="#D4C4B6" stroke-width="2"/>
<path d="M73.7634 450.589L74.0574 450.892H76.9998V454.515L77.4187 454.813L79.8796 456.571L77.3494 458.741L76.9998 459.04V462.525H74.0574L73.7634 462.828L71.6677 464.982L69.573 462.828L69.2732 462.52L68.8445 462.525L65.8435 462.561L65.8796 459.544L65.8845 459.138L65.6042 458.843L63.4285 456.553L65.5515 454.625L65.8845 454.322L65.8796 453.873L65.8435 450.855L68.8445 450.892L69.2732 450.896L69.573 450.589L71.6677 448.434L73.7634 450.589Z" fill="url(#paint9_radial_1426_12538)" stroke="#D4C4B6" stroke-width="2"/>
<path d="M116.042 462.349H88.5203L82.906 456.518L88.5046 451H116.055L122.487 456.519L116.042 462.349Z" stroke="#D4C4B6" stroke-width="2"/>
<path d="M135.763 450.589L136.057 450.892H139V454.515L139.419 454.813L141.88 456.571L139.349 458.741L139 459.04V462.525H136.057L135.763 462.828L133.668 464.982L131.573 462.828L131.273 462.52L130.844 462.525L127.844 462.561L127.88 459.544L127.885 459.138L127.604 458.843L125.428 456.553L127.552 454.625L127.885 454.322L127.88 453.873L127.844 450.855L130.844 450.892L131.273 450.896L131.573 450.589L133.668 448.434L135.763 450.589Z" fill="url(#paint10_radial_1426_12538)" stroke="#D4C4B6" stroke-width="2"/>
<path d="M178.042 462.349H150.52L144.906 456.518L150.505 451H178.055L184.487 456.519L178.042 462.349Z" stroke="#D4C4B6" stroke-width="2"/>
<path d="M197.763 450.589L198.057 450.892H201V454.515L201.419 454.813L203.88 456.571L201.349 458.741L201 459.04V462.525H198.057L197.763 462.828L195.668 464.982L193.573 462.828L193.273 462.52L192.844 462.525L189.844 462.561L189.88 459.544L189.885 459.138L189.604 458.843L187.428 456.553L189.552 454.625L189.885 454.322L189.88 453.873L189.844 450.855L192.844 450.892L193.273 450.896L193.573 450.589L195.668 448.434L197.763 450.589Z" fill="url(#paint11_radial_1426_12538)" stroke="#D4C4B6" stroke-width="2"/>
<path d="M240 462.349H212.52L206.906 456.518L212.505 451H240.015L245.596 456.518L240 462.349Z" stroke="#D4C4B6" stroke-width="2"/>
<path d="M258.142 450.571L258.439 450.892H261.225V454.5L261.626 454.8L263.983 456.569L261.556 458.757L261.225 459.055V462.525H258.439L258.142 462.846L256.2 464.943L254.259 462.846L253.957 462.52L253.511 462.525L250.705 462.56L250.74 459.543L250.745 459.151L250.482 458.861L248.394 456.551L250.43 454.608L250.745 454.309L250.74 453.873L250.705 450.856L253.511 450.892L253.957 450.897L254.259 450.571L256.2 448.472L258.142 450.571Z" fill="url(#paint12_radial_1426_12538)" stroke="#D4C4B6" stroke-width="2"/>
<path d="M298.415 462.349H272.271L266.929 456.517L272.257 451H298.385L304.528 456.964L298.415 462.349Z" stroke="#D4C4B6" stroke-width="2"/>
<path d="M11.7637 3.58887L12.0576 3.8916H15V7.51465L15.4189 7.81348L17.8799 9.57129L15.3496 11.7412L15 12.04V15.5254H12.0576L11.7637 15.8281L9.66797 17.9824L7.57324 15.8281L7.27344 15.5195L6.84473 15.5254L3.84375 15.5605L3.87988 12.5439L3.88477 12.1172L3.58008 11.8174L1.42871 9.70801L3.58008 7.59863L3.88477 7.2998L3.87988 6.87305L3.84375 3.85547L6.84473 3.8916L7.27344 3.89648L7.57324 3.58887L9.66797 1.43359L11.7637 3.58887Z" fill="url(#paint13_radial_1426_12538)" stroke="#D4C4B6" stroke-width="2"/>
<path d="M54.042 15.3486H26.5205L20.9062 9.51758L26.5049 4H54.0557L60.4873 9.51855L54.042 15.3486Z" stroke="#D4C4B6" stroke-width="2"/>
<path d="M320.729 123.034L320.423 123.334L320.429 123.761L320.462 126.524L317.712 126.492L317.282 126.487L316.984 126.795L315.065 128.768L313.145 126.795L312.846 126.487L312.416 126.492L309.667 126.524L309.699 123.761L309.705 123.334L309.4 123.034L307.429 121.102L309.4 119.169L309.705 118.869L309.699 118.442L309.667 115.678L312.416 115.711L312.846 115.716L313.145 115.408L315.065 113.435L316.984 115.408L317.282 115.716L317.712 115.711L320.462 115.678L320.429 118.442L320.423 118.869L320.729 119.169L322.7 121.102L320.729 123.034Z" fill="url(#paint14_radial_1426_12538)" stroke="#D4C4B6" stroke-width="2"/>
<path d="M320.729 179.034L320.423 179.334L320.429 179.761L320.462 182.524L317.712 182.492L317.282 182.487L316.984 182.795L315.065 184.768L313.145 182.795L312.846 182.487L312.416 182.492L309.667 182.524L309.699 179.761L309.705 179.334L309.4 179.034L307.429 177.102L309.4 175.169L309.705 174.869L309.699 174.442L309.667 171.678L312.416 171.711L312.846 171.716L313.145 171.408L315.065 169.435L316.984 171.408L317.282 171.716L317.712 171.711L320.462 171.678L320.429 174.442L320.423 174.869L320.729 175.169L322.7 177.102L320.729 179.034Z" fill="url(#paint15_radial_1426_12538)" stroke="#D4C4B6" stroke-width="2"/>
<path d="M320.729 67.0342L320.423 67.334L320.429 67.7607L320.462 70.5244L317.712 70.4922L317.282 70.4873L316.984 70.7949L315.065 72.7676L313.145 70.7949L312.846 70.4873L312.416 70.4922L309.667 70.5244L309.699 67.7607L309.705 67.334L309.4 67.0342L307.429 65.1016L309.4 63.1689L309.705 62.8691L309.699 62.4424L309.667 59.6777L312.416 59.7109L312.846 59.7158L313.145 59.4082L315.065 57.4346L316.984 59.4082L317.282 59.7158L317.712 59.7109L320.462 59.6777L320.429 62.4424L320.423 62.8691L320.729 63.1689L322.7 65.1016L320.729 67.0342Z" fill="url(#paint16_radial_1426_12538)" stroke="#D4C4B6" stroke-width="2"/>
<path d="M319.862 235.158L319.605 235.447L319.609 235.834L319.641 238.85L317.143 238.817L316.672 238.81L316.367 239.169L314.669 241.165L312.97 239.169L312.664 238.81L312.194 238.817L309.697 238.85L309.729 235.834L309.733 235.447L309.475 235.158L307.549 233L309.475 230.843L309.733 230.553L309.729 230.166L309.697 227.149L312.194 227.183L312.664 227.19L312.97 226.832L314.669 224.835L316.367 226.832L316.672 227.19L317.143 227.183L319.641 227.149L319.609 230.166L319.605 230.553L319.862 230.843L321.788 233L319.862 235.158Z" fill="url(#paint17_radial_1426_12538)" stroke="#D4C4B6" stroke-width="2"/>
<path d="M320.077 290.955L319.796 291.25L319.801 291.657L319.835 294.674L317.085 294.64L316.636 294.634L316.333 294.966L314.437 297.047L312.539 294.966L312.236 294.634L311.787 294.64L309.038 294.674L309.071 291.657L309.076 291.25L308.795 290.955L306.756 288.823L308.795 286.691L309.076 286.396L309.071 285.989L309.038 282.971L311.787 283.006L312.236 283.012L312.539 282.68L314.437 280.598L316.333 282.68L316.636 283.012L317.085 283.006L319.835 282.971L319.801 285.989L319.796 286.396L320.077 286.691L322.117 288.823L320.077 290.955Z" fill="url(#paint18_radial_1426_12538)" stroke="#D4C4B6" stroke-width="2"/>
<path d="M319.884 403.033L319.609 403.322V406.144H316.652L316.352 406.514L314.669 408.589L312.984 406.514L312.685 406.144H309.545L309.726 403.8L309.76 403.355L309.452 403.033L307.59 401.075L309.452 399.118L309.733 398.823L309.729 398.417L309.698 395.652L312.195 395.685L312.664 395.69L312.968 395.334L314.551 393.48L316.414 395.385L316.714 395.69L317.142 395.685L319.64 395.652L319.609 398.417L319.604 398.823L319.884 399.118L321.747 401.075L319.884 403.033Z" fill="url(#paint19_radial_1426_12538)" stroke="#D4C4B6" stroke-width="2"/>
<path d="M319.729 347.186L319.428 347.479V350.32H316.237L315.938 350.673L314.019 352.933L312.205 350.691L311.905 350.32H308.503L308.696 347.982L308.734 347.515L308.4 347.186L306.429 345.252L308.4 343.319L308.705 343.021L308.699 342.594L308.667 339.828L311.416 339.862L311.869 339.867L312.172 339.53L314.019 337.476L315.973 339.548L316.274 339.867L316.712 339.862L319.462 339.828L319.429 342.594L319.423 343.021L319.729 343.319L321.7 345.252L319.729 347.186Z" fill="url(#paint20_radial_1426_12538)" stroke="#D4C4B6" stroke-width="2"/>
<path d="M308.416 441.07V417.601L314.668 411.567L320.919 417.6V441.209L314.677 446.481L308.416 441.07Z" stroke="#D4C4B6" stroke-width="2"/>
<path d="M308.417 385.393V361.924L314.668 355.89L320.919 361.923V385.532L314.677 390.804L308.417 385.393Z" stroke="#D4C4B6" stroke-width="2"/>
<path d="M308.417 329.393V305.924L314.668 299.89L320.919 305.924V329.532L314.677 334.804L308.417 329.393Z" stroke="#D4C4B6" stroke-width="2"/>
<path d="M308.417 273.602V250.133L314.668 244.099L320.919 250.132V273.74L314.677 279.013L308.417 273.602Z" stroke="#D4C4B6" stroke-width="2"/>
<path d="M308 216.893V193.424L314.251 187.39L320.502 193.424V217.032L314.26 222.304L308 216.893Z" stroke="#D4C4B6" stroke-width="2"/>
<path d="M308.417 160.893V137.424L314.669 131.39L320.92 137.423V161.032L314.678 166.304L308.417 160.893Z" stroke="#D4C4B6" stroke-width="2"/>
<path d="M308.78 105.065V81.5962L315.032 75.562L321.283 81.5952V105.204L315.041 110.476L308.78 105.065Z" stroke="#D4C4B6" stroke-width="2"/>
<path d="M308.417 49.2842V26.625L314.669 20.7852L320.92 26.625V49.4463L314.979 54.6875L308.417 49.2842Z" stroke="#D4C4B6" stroke-width="2"/>
<path d="M316.764 3.58887L317.058 3.8916H320V7.51465L320.419 7.81348L322.88 9.57129L320.35 11.7412L320 12.04V15.5254H317.058L316.764 15.8281L314.668 17.9824L312.573 15.8281L312.274 15.5195L311.845 15.5254L308.844 15.5605L308.88 12.5439L308.885 12.1172L308.58 11.8174L306.429 9.70801L308.58 7.59863L308.885 7.2998L308.88 6.87305L308.844 3.85547L311.845 3.8916L312.274 3.89648L312.573 3.58887L314.668 1.43359L316.764 3.58887Z" fill="url(#paint21_radial_1426_12538)" stroke="#D4C4B6" stroke-width="2"/>
<path d="M73.7637 3.58887L74.0576 3.8916H77V7.51465L77.4189 7.81348L79.8799 9.57129L77.3496 11.7412L77 12.04V15.5254H74.0576L73.7637 15.8281L71.668 17.9824L69.5732 15.8281L69.2734 15.5195L68.8447 15.5254L65.8438 15.5605L65.8799 12.5439L65.8848 12.1377L65.6045 11.8428L63.4287 9.55273L65.5518 7.625L65.8848 7.32227L65.8799 6.87305L65.8438 3.85547L68.8447 3.8916L69.2734 3.89648L69.5732 3.58887L71.668 1.43359L73.7637 3.58887Z" fill="url(#paint22_radial_1426_12538)" stroke="#D4C4B6" stroke-width="2"/>
<path d="M116.042 15.3486H88.5205L82.9062 9.51758L88.5049 4H116.056L122.487 9.51855L116.042 15.3486Z" stroke="#D4C4B6" stroke-width="2"/>
<path d="M135.764 3.58887L136.058 3.8916H139V7.51465L139.419 7.81348L141.88 9.57129L139.35 11.7412L139 12.04V15.5254H136.058L135.764 15.8281L133.668 17.9824L131.573 15.8281L131.273 15.5195L130.845 15.5254L127.844 15.5605L127.88 12.5439L127.885 12.1377L127.604 11.8428L125.429 9.55273L127.552 7.625L127.885 7.32227L127.88 6.87305L127.844 3.85547L130.845 3.8916L131.273 3.89648L131.573 3.58887L133.668 1.43359L135.764 3.58887Z" fill="url(#paint23_radial_1426_12538)" stroke="#D4C4B6" stroke-width="2"/>
<path d="M178.042 15.3486H150.521L144.906 9.51758L150.505 4H178.056L184.487 9.51855L178.042 15.3486Z" stroke="#D4C4B6" stroke-width="2"/>
<path d="M197.764 3.58887L198.058 3.8916H201V7.51465L201.419 7.81348L203.88 9.57129L201.35 11.7412L201 12.04V15.5254H198.058L197.764 15.8281L195.668 17.9824L193.573 15.8281L193.273 15.5195L192.845 15.5254L189.844 15.5605L189.88 12.5439L189.885 12.1377L189.604 11.8428L187.429 9.55273L189.552 7.625L189.885 7.32227L189.88 6.87305L189.844 3.85547L192.845 3.8916L193.273 3.89648L193.573 3.58887L195.668 1.43359L197.764 3.58887Z" fill="url(#paint24_radial_1426_12538)" stroke="#D4C4B6" stroke-width="2"/>
<path d="M240 15.3486H212.521L206.906 9.51758L212.505 4H240.016L245.597 9.51758L240 15.3486Z" stroke="#D4C4B6" stroke-width="2"/>
<path d="M258.143 3.57129L258.439 3.8916H261.226V7.5L261.626 7.7998L263.983 9.56934L261.557 11.7568L261.226 12.0547V15.5254H258.439L258.143 15.8457L256.2 17.9434L254.259 15.8457L253.957 15.5195L253.512 15.5254L250.705 15.5596L250.74 12.543L250.745 12.1514L250.482 11.8613L248.395 9.55078L250.431 7.6084L250.745 7.30859L250.74 6.87305L250.705 3.85645L253.512 3.8916L253.957 3.89746L254.259 3.57129L256.2 1.47168L258.143 3.57129Z" fill="url(#paint25_radial_1426_12538)" stroke="#D4C4B6" stroke-width="2"/>
<path d="M298.415 15.3486H272.271L266.93 9.5166L272.257 4H298.386L304.528 9.96387L298.415 15.3486Z" stroke="#D4C4B6" stroke-width="2"/>
<defs>
<radialGradient id="paint0_radial_1426_12538" cx="0" cy="0" r="1" gradientUnits="userSpaceOnUse" gradientTransform="translate(10.7111 121.102) rotate(180) scale(9.06403 9.10156)">
<stop offset="0.9999" stop-color="#415267"/>
<stop offset="1" stop-color="#415267"/>
</radialGradient>
<radialGradient id="paint1_radial_1426_12538" cx="0" cy="0" r="1" gradientUnits="userSpaceOnUse" gradientTransform="translate(10.7111 177.102) rotate(180) scale(9.06403 9.10156)">
<stop offset="0.9999" stop-color="#415267"/>
<stop offset="1" stop-color="#415267"/>
</radialGradient>
<radialGradient id="paint2_radial_1426_12538" cx="0" cy="0" r="1" gradientUnits="userSpaceOnUse" gradientTransform="translate(10.7111 65.1016) rotate(180) scale(9.06403 9.10156)">
<stop offset="0.9999" stop-color="#415267"/>
<stop offset="1" stop-color="#415267"/>
</radialGradient>
<radialGradient id="paint3_radial_1426_12538" cx="0" cy="0" r="1" gradientUnits="userSpaceOnUse" gradientTransform="translate(9.41799 233.1) rotate(180) scale(9.065 9.1)">
<stop offset="0.9999" stop-color="#415267"/>
<stop offset="1" stop-color="#415267"/>
</radialGradient>
<radialGradient id="paint4_radial_1426_12538" cx="0" cy="0" r="1" gradientUnits="userSpaceOnUse" gradientTransform="translate(9.06329 288.823) rotate(180) scale(9.06403 9.70833)">
<stop offset="0.9999" stop-color="#415267"/>
<stop offset="1" stop-color="#415267"/>
</radialGradient>
<radialGradient id="paint5_radial_1426_12538" cx="0" cy="0" r="1" gradientUnits="userSpaceOnUse" gradientTransform="translate(315.668 456.708) rotate(90) scale(9.70833 9.6683)">
<stop offset="0.9999" stop-color="#415267"/>
<stop offset="1" stop-color="#415267"/>
</radialGradient>
<radialGradient id="paint6_radial_1426_12538" cx="0" cy="0" r="1" gradientUnits="userSpaceOnUse" gradientTransform="translate(9.0639 401.075) rotate(180) scale(8.45976 9.10156)">
<stop offset="0.9999" stop-color="#415267"/>
<stop offset="1" stop-color="#415267"/>
</radialGradient>
<radialGradient id="paint7_radial_1426_12538" cx="0" cy="0" r="1" gradientUnits="userSpaceOnUse" gradientTransform="translate(8.41647 345.253) rotate(180) scale(9.06403 9.10156)">
<stop offset="0.9999" stop-color="#415267"/>
<stop offset="1" stop-color="#415267"/>
</radialGradient>
<radialGradient id="paint8_radial_1426_12538" cx="0" cy="0" r="1" gradientUnits="userSpaceOnUse" gradientTransform="translate(9.66805 456.708) rotate(90) scale(9.70833 9.6683)">
<stop offset="0.9999" stop-color="#415267"/>
<stop offset="1" stop-color="#415267"/>
</radialGradient>
<radialGradient id="paint9_radial_1426_12538" cx="0" cy="0" r="1" gradientUnits="userSpaceOnUse" gradientTransform="translate(71.6681 456.708) rotate(90) scale(9.70833 9.6683)">
<stop offset="0.9999" stop-color="#415267"/>
<stop offset="1" stop-color="#415267"/>
</radialGradient>
<radialGradient id="paint10_radial_1426_12538" cx="0" cy="0" r="1" gradientUnits="userSpaceOnUse" gradientTransform="translate(133.668 456.708) rotate(90) scale(9.70833 9.6683)">
<stop offset="0.9999" stop-color="#415267"/>
<stop offset="1" stop-color="#415267"/>
</radialGradient>
<radialGradient id="paint11_radial_1426_12538" cx="0" cy="0" r="1" gradientUnits="userSpaceOnUse" gradientTransform="translate(195.668 456.708) rotate(90) scale(9.70833 9.6683)">
<stop offset="0.9999" stop-color="#415267"/>
<stop offset="1" stop-color="#415267"/>
</radialGradient>
<radialGradient id="paint12_radial_1426_12538" cx="0" cy="0" r="1" gradientUnits="userSpaceOnUse" gradientTransform="translate(256.2 456.708) rotate(90) scale(9.70833 9.20048)">
<stop offset="0.9999" stop-color="#415267"/>
<stop offset="1" stop-color="#415267"/>
</radialGradient>
<radialGradient id="paint13_radial_1426_12538" cx="0" cy="0" r="1" gradientUnits="userSpaceOnUse" gradientTransform="translate(9.6683 9.70833) rotate(90) scale(9.70833 9.6683)">
<stop offset="0.9999" stop-color="#415267"/>
<stop offset="1" stop-color="#415267"/>
</radialGradient>
<radialGradient id="paint14_radial_1426_12538" cx="0" cy="0" r="1" gradientUnits="userSpaceOnUse" gradientTransform="translate(315.711 121.102) rotate(180) scale(9.06403 9.10156)">
<stop offset="0.9999" stop-color="#415267"/>
<stop offset="1" stop-color="#415267"/>
</radialGradient>
<radialGradient id="paint15_radial_1426_12538" cx="0" cy="0" r="1" gradientUnits="userSpaceOnUse" gradientTransform="translate(315.711 177.102) rotate(180) scale(9.06403 9.10156)">
<stop offset="0.9999" stop-color="#415267"/>
<stop offset="1" stop-color="#415267"/>
</radialGradient>
<radialGradient id="paint16_radial_1426_12538" cx="0" cy="0" r="1" gradientUnits="userSpaceOnUse" gradientTransform="translate(315.711 65.1016) rotate(180) scale(9.06403 9.10156)">
<stop offset="0.9999" stop-color="#415267"/>
<stop offset="1" stop-color="#415267"/>
</radialGradient>
<radialGradient id="paint17_radial_1426_12538" cx="0" cy="0" r="1" gradientUnits="userSpaceOnUse" gradientTransform="translate(314.064 233) rotate(180) scale(8.45976 9.70833)">
<stop offset="0.9999" stop-color="#415267"/>
<stop offset="1" stop-color="#415267"/>
</radialGradient>
<radialGradient id="paint18_radial_1426_12538" cx="0" cy="0" r="1" gradientUnits="userSpaceOnUse" gradientTransform="translate(314.064 288.823) rotate(180) scale(9.06403 9.70833)">
<stop offset="0.9999" stop-color="#415267"/>
<stop offset="1" stop-color="#415267"/>
</radialGradient>
<radialGradient id="paint19_radial_1426_12538" cx="0" cy="0" r="1" gradientUnits="userSpaceOnUse" gradientTransform="translate(314.064 401.075) rotate(180) scale(8.45976 9.10156)">
<stop offset="0.9999" stop-color="#415267"/>
<stop offset="1" stop-color="#415267"/>
</radialGradient>
<radialGradient id="paint20_radial_1426_12538" cx="0" cy="0" r="1" gradientUnits="userSpaceOnUse" gradientTransform="translate(313.417 345.253) rotate(180) scale(9.06403 9.10156)">
<stop offset="0.9999" stop-color="#415267"/>
<stop offset="1" stop-color="#415267"/>
</radialGradient>
<radialGradient id="paint21_radial_1426_12538" cx="0" cy="0" r="1" gradientUnits="userSpaceOnUse" gradientTransform="translate(314.668 9.70833) rotate(90) scale(9.70833 9.6683)">
<stop offset="0.9999" stop-color="#415267"/>
<stop offset="1" stop-color="#415267"/>
</radialGradient>
<radialGradient id="paint22_radial_1426_12538" cx="0" cy="0" r="1" gradientUnits="userSpaceOnUse" gradientTransform="translate(71.6683 9.70833) rotate(90) scale(9.70833 9.6683)">
<stop offset="0.9999" stop-color="#415267"/>
<stop offset="1" stop-color="#415267"/>
</radialGradient>
<radialGradient id="paint23_radial_1426_12538" cx="0" cy="0" r="1" gradientUnits="userSpaceOnUse" gradientTransform="translate(133.668 9.70833) rotate(90) scale(9.70833 9.6683)">
<stop offset="0.9999" stop-color="#415267"/>
<stop offset="1" stop-color="#415267"/>
</radialGradient>
<radialGradient id="paint24_radial_1426_12538" cx="0" cy="0" r="1" gradientUnits="userSpaceOnUse" gradientTransform="translate(195.668 9.70833) rotate(90) scale(9.70833 9.6683)">
<stop offset="0.9999" stop-color="#415267"/>
<stop offset="1" stop-color="#415267"/>
</radialGradient>
<radialGradient id="paint25_radial_1426_12538" cx="0" cy="0" r="1" gradientUnits="userSpaceOnUse" gradientTransform="translate(256.2 9.70833) rotate(90) scale(9.70833 9.20048)">
<stop offset="0.9999" stop-color="#415267"/>
<stop offset="1" stop-color="#415267"/>
</radialGradient>
</defs>
</svg>
