<svg width="328" height="469" viewBox="0 0 328 469" fill="none" xmlns="http://www.w3.org/2000/svg">
<rect width="328" height="469" rx="10" fill="url(#paint0_radial_3_919)"/>
<rect x="3.43704" y="3.44019" width="320.884" height="461.7" stroke="#D4C4B6" stroke-width="2"/>
<path d="M310.53 16.0828V453.504H15.1178L16.5748 16.0828H310.53Z" stroke="#D4C4B6" stroke-width="2"/>
<path d="M15.8636 123.719L15.558 124.017L15.5629 124.445L15.5961 127.23L12.8158 127.198L12.3871 127.193L12.0883 127.5L10.1469 129.49L8.20447 127.5L7.90564 127.193L7.47693 127.198L4.69763 127.23L4.72986 124.445L4.73474 124.017L4.42908 123.719L2.43884 121.771L4.42908 119.825L4.73474 119.526L4.72986 119.098L4.69763 116.312L7.47693 116.345L7.90564 116.351L8.20447 116.044L10.1469 114.052L12.0883 116.044L12.3871 116.351L12.8158 116.345L15.5961 116.312L15.5629 119.098L15.558 119.526L15.8636 119.825L17.8549 121.771L15.8636 123.719Z" fill="url(#paint1_radial_3_919)" stroke="#D4C4B6" stroke-width="2"/>
<path d="M15.8636 180.029L15.558 180.328L15.5629 180.755L15.5961 183.541L12.8158 183.508L12.3871 183.504L12.0883 183.81L10.1469 185.8L8.20447 183.81L7.90564 183.504L7.47693 183.508L4.69763 183.541L4.72986 180.755L4.73474 180.328L4.42908 180.029L2.43884 178.082L4.42908 176.135L4.73474 175.837L4.72986 175.409L4.69763 172.623L7.47693 172.656L7.90564 172.662L8.20447 172.354L10.1469 170.363L12.0883 172.354L12.3871 172.662L12.8158 172.656L15.5961 172.623L15.5629 175.409L15.558 175.837L15.8636 176.135L17.8549 178.082L15.8636 180.029Z" fill="url(#paint2_radial_3_919)" stroke="#D4C4B6" stroke-width="2"/>
<path d="M15.8636 67.4089L15.558 67.7078L15.5629 68.1355L15.5961 70.9207L12.8158 70.8884L12.3871 70.8835L12.0883 71.1902L10.1469 73.1804L8.20447 71.1902L7.90564 70.8835L7.47693 70.8884L4.69763 70.9207L4.72986 68.1355L4.73474 67.7078L4.42908 67.4089L2.43884 65.4617L4.42908 63.5154L4.73474 63.2166L4.72986 62.7888L4.69763 60.0027L7.47693 60.0359L7.90564 60.0417L8.20447 59.7341L10.1469 57.7429L12.0883 59.7341L12.3871 60.0417L12.8158 60.0359L15.5961 60.0027L15.5629 62.7888L15.558 63.2166L15.8636 63.5154L17.8549 65.4617L15.8636 67.4089Z" fill="url(#paint3_radial_3_919)" stroke="#D4C4B6" stroke-width="2"/>
<path d="M15.8665 236.338L15.5598 236.636L15.5657 237.064L15.5989 239.849L12.8176 239.816L12.3655 239.811L12.0627 240.147L10.1018 242.327L8.24927 240.166L7.94556 239.81L7.47778 239.816L4.69849 239.849L4.73071 237.064L4.7356 236.636L4.42993 236.338L2.4397 234.391L4.42993 232.445L4.7356 232.146L4.73071 231.719L4.69849 228.932L7.47778 228.967L7.96509 228.972L8.26978 228.593L10.1028 226.31L12.0422 228.611L12.3459 228.971L12.8176 228.967L15.5989 228.932L15.5657 231.719L15.5598 232.146L15.8665 232.445L17.8577 234.391L15.8665 236.338Z" fill="url(#paint4_radial_3_919)" stroke="#D4C4B6" stroke-width="2"/>
<path d="M15.1024 292.569L14.8192 292.864L14.824 293.272L14.8582 296.311L12.0779 296.276L11.6297 296.271L11.327 296.601L9.40802 298.702L7.4881 296.601L7.18536 296.271L6.73712 296.276L3.95782 296.311L3.99103 293.272L3.99591 292.864L3.71271 292.569L1.65509 290.422L3.71271 288.275L3.99591 287.98L3.99103 287.572L3.95782 284.532L6.73712 284.567L7.18536 284.573L7.4881 284.242L9.40802 282.141L11.327 284.242L11.6297 284.573L12.0779 284.567L14.8582 284.532L14.824 287.572L14.8192 287.98L15.1024 288.275L17.1609 290.422L15.1024 292.569Z" fill="url(#paint5_radial_3_919)" stroke="#D4C4B6" stroke-width="2"/>
<path d="M316.155 453.058L315.857 453.383H312.869V456.961L312.536 457.259L310.082 459.46L312.468 461.244L312.869 461.544V465.092H315.839L316.134 465.394L318.253 467.566L320.371 465.394L320.671 465.087L321.1 465.092L324.134 465.128L324.097 462.089L324.092 461.661L324.397 461.362L326.57 459.237L324.397 457.113L324.092 456.814L324.097 456.386L324.134 453.346L321.1 453.383L320.688 453.387L320.393 453.101L318.126 450.908L316.155 453.058Z" fill="url(#paint6_radial_3_919)" stroke="#D4C4B6" stroke-width="2"/>
<path d="M15.0129 405.267L14.7366 405.557V408.397H11.7522L11.4524 408.766L9.74829 410.862L8.04321 408.766L7.74243 408.397H4.57446L4.7561 406.035L4.79028 405.591L4.48267 405.267L2.60083 403.296L4.48267 401.325L4.76294 401.031L4.75903 400.624L4.72876 397.838L7.25415 397.87L7.72192 397.876L8.02661 397.52L9.62915 395.649L11.5149 397.571L11.8137 397.876L12.2405 397.87L14.7678 397.838L14.7366 400.624L14.7317 401.031L15.0129 401.325L16.8948 403.296L15.0129 405.267Z" fill="url(#paint7_radial_3_919)" stroke="#D4C4B6" stroke-width="2"/>
<path d="M14.8557 349.112L14.5549 349.406V352.266H11.3342L11.0344 352.618L9.09302 354.898L7.25708 352.636L6.95728 352.266H3.52368L3.71899 349.909L3.75708 349.44L3.42114 349.112L1.43091 347.165L3.42114 345.218L3.72681 344.918L3.72192 344.491L3.6897 341.705L6.46899 341.739L6.92114 341.744L7.22388 341.408L9.09204 339.334L11.0696 341.426L11.3704 341.744L11.8079 341.739L14.5881 341.705L14.5549 344.491L14.55 344.918L14.8557 345.218L16.8469 347.165L14.8557 349.112Z" fill="url(#paint8_radial_3_919)" stroke="#D4C4B6" stroke-width="2"/>
<path d="M11.832 453.045L12.1309 453.384H15.1309V457.03L15.5508 457.33L18.0361 459.1L15.4814 461.285L15.1309 461.585V465.093H12.1611L11.8662 465.394L9.74707 467.567L7.62891 465.394L7.3291 465.088L6.90039 465.093L3.86621 465.129L3.90332 462.09L3.9082 461.662L3.60254 461.362L1.42969 459.238L3.60254 457.114L3.9082 456.815L3.90332 456.387L3.86621 453.347L6.90039 453.384L7.39551 453.389L7.7002 453L9.62305 450.538L11.832 453.045Z" fill="url(#paint9_radial_3_919)" stroke="#D4C4B6" stroke-width="2"/>
<path d="M54.4871 464.915H26.7332L21.0681 459.047L26.7175 453.492H54.5017L60.9929 459.047L54.4871 464.915Z" stroke="#D4C4B6" stroke-width="2"/>
<path d="M3.43616 442.626V419.696L9.69202 413.867L14.6764 419.291V442.699L9.52795 447.637L3.43616 442.626Z" stroke="#D4C4B6" stroke-width="2"/>
<path d="M3.4375 387.39V363.659L9.07617 357.892L14.8398 363.763V387.569L9.54102 392.802L3.4375 387.39Z" stroke="#D4C4B6" stroke-width="2"/>
<path d="M3.4375 331.273V307.519L9.07617 301.601L14.8398 307.625V331.406L9.08887 336.511L3.4375 331.273Z" stroke="#D4C4B6" stroke-width="2"/>
<path d="M3.4375 274.103V251.207L9.97461 245.289L14.8398 251.222V274.266L9.43457 279.315L3.4375 274.103Z" stroke="#D4C4B6" stroke-width="2"/>
<path d="M3.4375 217.957V195.049L9.97168 188.552L14.8398 195.064V218.175L9.99414 223.368L3.4375 217.957Z" stroke="#D4C4B6" stroke-width="2"/>
<path d="M3.43762 161.645V138.05L10.0509 132.093L16.0587 138.023V161.812L10.0587 167.568L3.43762 161.645Z" stroke="#D4C4B6" stroke-width="2"/>
<path d="M3.80304 105.648V82.0448L10.1136 75.9706L16.4241 82.0448V105.787L10.1214 111.097L3.80304 105.648Z" stroke="#D4C4B6" stroke-width="2"/>
<path d="M3.43762 49.5593V26.7712L9.74817 20.8914L16.0587 26.7712V49.7214L10.0607 54.9988L3.43762 49.5593Z" stroke="#D4C4B6" stroke-width="2"/>
<path d="M74.3738 453.081L74.6687 453.383H77.6384V457.029L78.0583 457.329L80.5437 459.099L77.989 461.285L77.6384 461.584V465.092H74.6687L74.3738 465.394L72.2546 467.566L70.1365 465.394L69.8367 465.087L69.408 465.092L66.3738 465.128L66.4109 462.089L66.4158 461.681L66.1355 461.387L63.9382 459.08L66.0818 457.139L66.4158 456.837L66.4109 456.386L66.3738 453.346L69.408 453.383L69.8367 453.388L70.1365 453.081L72.2546 450.908L74.3738 453.081Z" fill="url(#paint10_radial_3_919)" stroke="#D4C4B6" stroke-width="2"/>
<path d="M116.995 464.915H89.2407L83.5757 459.047L89.2251 453.492H117.009L123.5 459.047L116.995 464.915Z" stroke="#D4C4B6" stroke-width="2"/>
<path d="M136.881 453.081L137.176 453.383H140.146V457.029L140.566 457.329L143.051 459.099L140.497 461.285L140.146 461.584V465.092H137.176L136.881 465.394L134.762 467.566L132.644 465.394L132.344 465.087L131.916 465.092L128.881 465.128L128.918 462.089L128.923 461.681L128.643 461.387L126.446 459.08L128.589 457.139L128.923 456.837L128.918 456.386L128.881 453.346L131.916 453.383L132.344 453.388L132.644 453.081L134.762 450.908L136.881 453.081Z" fill="url(#paint11_radial_3_919)" stroke="#D4C4B6" stroke-width="2"/>
<path d="M179.502 464.915H151.748L146.083 459.047L151.733 453.492H179.517L186.008 459.047L179.502 464.915Z" stroke="#D4C4B6" stroke-width="2"/>
<path d="M199.389 453.081L199.684 453.383H202.654V457.029L203.073 457.329L205.559 459.099L203.004 461.285L202.654 461.584V465.092H199.684L199.389 465.394L197.27 467.566L195.152 465.394L194.852 465.087L194.423 465.092L191.389 465.128L191.426 462.089L191.431 461.681L191.151 461.387L188.953 459.08L191.097 457.139L191.431 456.837L191.426 456.386L191.389 453.346L194.423 453.383L194.852 453.388L195.152 453.081L197.27 450.908L199.389 453.081Z" fill="url(#paint12_radial_3_919)" stroke="#D4C4B6" stroke-width="2"/>
<path d="M241.969 464.915H214.255L208.59 459.046L214.24 453.492H241.984L247.617 459.046L241.969 464.915Z" stroke="#D4C4B6" stroke-width="2"/>
<path d="M260.262 453.063L260.559 453.383H263.373V457.014L263.773 457.314L266.155 459.097L263.705 461.301L263.373 461.598V465.092H260.559L260.262 465.412L258.297 467.529L256.334 465.412L256.031 465.087L255.588 465.092L252.75 465.127L252.785 462.088L252.79 461.696L252.526 461.405L250.419 459.079L252.474 457.123L252.79 456.822L252.785 456.386L252.75 453.346L255.588 453.383L256.031 453.388L256.334 453.063L258.297 450.945L260.262 453.063Z" fill="url(#paint13_radial_3_919)" stroke="#D4C4B6" stroke-width="2"/>
<path d="M300.862 464.915H274.497L269.106 459.046L274.482 453.492H300.833L307.031 459.494L300.862 464.915Z" stroke="#D4C4B6" stroke-width="2"/>
<path d="M11.8667 3.60547L12.1616 3.90723H15.1313V7.55371L15.5513 7.85352L18.0366 9.62402L15.4819 11.8096L15.1313 12.1084V15.6162H12.1616L11.8667 15.9189L9.74756 18.0908L7.62939 15.9189L7.32959 15.6113L6.90088 15.6162L3.8667 15.6523L3.90381 12.6133L3.90869 12.1855L3.60303 11.8867L1.43018 9.76172L3.60303 7.6377L3.90869 7.33887L3.90381 6.91113L3.8667 3.87109L6.90088 3.90723L7.32959 3.91309L7.62939 3.60547L9.74756 1.43262L11.8667 3.60547Z" fill="url(#paint14_radial_3_919)" stroke="#D4C4B6" stroke-width="2"/>
<path d="M54.4873 15.4395H26.7334L21.0684 9.57129L26.7178 4.0166H54.502L60.9932 9.57129L54.4873 15.4395Z" stroke="#D4C4B6" stroke-width="2"/>
<path d="M323.361 123.719L323.055 124.018L323.06 124.445L323.093 127.23L320.313 127.198L319.884 127.193L319.586 127.5L317.644 129.49L315.702 127.5L315.403 127.193L314.974 127.198L312.195 127.23L312.227 124.445L312.232 124.018L311.926 123.719L309.936 121.771L311.926 119.825L312.232 119.526L312.227 119.099L312.195 116.312L314.974 116.346L315.403 116.352L315.702 116.044L317.644 114.053L319.586 116.044L319.884 116.352L320.313 116.346L323.093 116.312L323.06 119.099L323.055 119.526L323.361 119.825L325.352 121.771L323.361 123.719Z" fill="url(#paint15_radial_3_919)" stroke="#D4C4B6" stroke-width="2"/>
<path d="M323.361 180.029L323.055 180.328L323.06 180.756L323.093 183.541L320.313 183.509L319.884 183.504L319.586 183.81L317.644 185.801L315.702 183.81L315.403 183.504L314.974 183.509L312.195 183.541L312.227 180.756L312.232 180.328L311.926 180.029L309.936 178.082L311.926 176.136L312.232 175.837L312.227 175.409L312.195 172.623L314.974 172.656L315.403 172.662L315.702 172.354L317.644 170.363L319.586 172.354L319.884 172.662L320.313 172.656L323.093 172.623L323.06 175.409L323.055 175.837L323.361 176.136L325.352 178.082L323.361 180.029Z" fill="url(#paint16_radial_3_919)" stroke="#D4C4B6" stroke-width="2"/>
<path d="M323.361 67.4092L323.055 67.708L323.06 68.1357L323.093 70.9209L320.313 70.8887L319.884 70.8838L319.586 71.1904L317.644 73.1807L315.702 71.1904L315.403 70.8838L314.974 70.8887L312.195 70.9209L312.227 68.1357L312.232 67.708L311.926 67.4092L309.936 65.4619L311.926 63.5156L312.232 63.2168L312.227 62.7891L312.195 60.0029L314.974 60.0361L315.403 60.042L315.702 59.7344L317.644 57.7432L319.586 59.7344L319.884 60.042L320.313 60.0361L323.093 60.0029L323.06 62.7891L323.055 63.2168L323.361 63.5156L325.352 65.4619L323.361 67.4092Z" fill="url(#paint17_radial_3_919)" stroke="#D4C4B6" stroke-width="2"/>
<path d="M322.488 236.464L322.23 236.753L322.234 237.141L322.266 240.18L319.738 240.146L319.269 240.14L318.964 240.497L317.244 242.512L315.525 240.497L315.22 240.14L314.75 240.146L312.225 240.18L312.256 237.141L312.26 236.753L312.001 236.464L310.058 234.291L312.001 232.119L312.26 231.83L312.256 231.441L312.225 228.402L314.75 228.437L315.22 228.443L315.525 228.086L317.244 226.07L318.964 228.086L319.269 228.443L319.738 228.437L322.266 228.402L322.234 231.441L322.23 231.83L322.488 232.119L324.433 234.291L322.488 236.464Z" fill="url(#paint18_radial_3_919)" stroke="#D4C4B6" stroke-width="2"/>
<path d="M322.705 292.569L322.422 292.864L322.427 293.273L322.461 296.312L319.681 296.276L319.233 296.272L318.93 296.602L317.011 298.702L315.091 296.602L314.788 296.272L314.34 296.276L311.561 296.312L311.594 293.273L311.599 292.864L311.316 292.569L309.258 290.422L311.316 288.276L311.599 287.981L311.594 287.572L311.561 284.532L314.34 284.568L314.788 284.573L315.091 284.242L317.011 282.142L318.93 284.242L319.233 284.573L319.681 284.568L322.461 284.532L322.427 287.572L322.422 287.981L322.705 288.276L324.764 290.422L322.705 292.569Z" fill="url(#paint19_radial_3_919)" stroke="#D4C4B6" stroke-width="2"/>
<path d="M322.51 405.268L322.234 405.558V408.397H319.249L318.949 408.767L317.245 410.862L315.54 408.767L315.239 408.397H312.071L312.253 406.035L312.287 405.591L311.98 405.268L310.098 403.296L311.98 401.325L312.26 401.031L312.256 400.624L312.226 397.838L314.751 397.87L315.219 397.876L315.524 397.521L317.126 395.649L319.012 397.571L319.311 397.876L319.737 397.87L322.265 397.838L322.234 400.624L322.229 401.031L322.51 401.325L324.392 403.296L322.51 405.268Z" fill="url(#paint20_radial_3_919)" stroke="#D4C4B6" stroke-width="2"/>
<path d="M322.353 349.112L322.052 349.406V352.266H318.831L318.531 352.618L316.59 354.898L314.754 352.636L314.454 352.266H311.021L311.216 349.909L311.254 349.44L310.918 349.112L308.928 347.165L310.918 345.219L311.224 344.919L311.219 344.491L311.187 341.705L313.966 341.739L314.418 341.744L314.721 341.408L316.589 339.335L318.567 341.427L318.867 341.744L319.305 341.739L322.085 341.705L322.052 344.491L322.047 344.919L322.353 345.219L324.344 347.165L322.353 349.112Z" fill="url(#paint21_radial_3_919)" stroke="#D4C4B6" stroke-width="2"/>
<path d="M310.933 443.516V419.912L317.244 413.838L323.554 419.912V443.654L317.252 448.964L310.933 443.516Z" stroke="#D4C4B6" stroke-width="2"/>
<path d="M310.934 387.53V363.927L317.245 357.853L323.555 363.927V387.669L317.252 392.979L310.934 387.53Z" stroke="#D4C4B6" stroke-width="2"/>
<path d="M310.934 331.221V307.617L317.245 301.543L323.555 307.617V331.359L317.252 336.669L310.934 331.221Z" stroke="#D4C4B6" stroke-width="2"/>
<path d="M310.934 275.119V251.516L317.245 245.441L323.555 251.516V275.258L317.252 280.567L310.934 275.119Z" stroke="#D4C4B6" stroke-width="2"/>
<path d="M310.514 218.097V194.493L316.824 188.419L323.135 194.493V218.235L316.832 223.545L310.514 218.097Z" stroke="#D4C4B6" stroke-width="2"/>
<path d="M310.935 161.787V138.183L317.245 132.109L323.556 138.183V161.926L317.253 167.235L310.935 161.787Z" stroke="#D4C4B6" stroke-width="2"/>
<path d="M311.301 105.649V82.045L317.611 75.9708L323.922 82.045V105.787L317.619 111.097L311.301 105.649Z" stroke="#D4C4B6" stroke-width="2"/>
<path d="M310.935 49.5596V26.7715L317.245 20.8916L323.556 26.7715V49.7217L317.558 54.999L310.935 49.5596Z" stroke="#D4C4B6" stroke-width="2"/>
<path d="M319.364 3.60547L319.659 3.90723H322.628V7.55371L323.048 7.85352L325.534 9.62402L322.979 11.8096L322.628 12.1084V15.6162H319.659L319.364 15.9189L317.245 18.0908L315.126 15.9189L314.827 15.6113L314.398 15.6162L311.364 15.6523L311.401 12.6133L311.406 12.1855L311.1 11.8867L308.927 9.76172L311.1 7.6377L311.406 7.33887L311.401 6.91113L311.364 3.87109L314.398 3.90723L314.827 3.91309L315.126 3.60547L317.245 1.43262L319.364 3.60547Z" fill="url(#paint22_radial_3_919)" stroke="#D4C4B6" stroke-width="2"/>
<path d="M74.374 3.60547L74.6689 3.90723H77.6387V7.55371L78.0586 7.85352L80.5439 9.62402L77.9893 11.8096L77.6387 12.1084V15.6162H74.6689L74.374 15.9189L72.2549 18.0908L70.1367 15.9189L69.8369 15.6113L69.4082 15.6162L66.374 15.6523L66.4111 12.6133L66.416 12.2061L66.1357 11.9121L63.9385 9.60449L66.082 7.66406L66.416 7.36133L66.4111 6.91113L66.374 3.87109L69.4082 3.90723L69.8369 3.91309L70.1367 3.60547L72.2549 1.43262L74.374 3.60547Z" fill="url(#paint23_radial_3_919)" stroke="#D4C4B6" stroke-width="2"/>
<path d="M116.995 15.4395H89.241L83.5759 9.57129L89.2253 4.0166H117.01L123.501 9.57129L116.995 15.4395Z" stroke="#D4C4B6" stroke-width="2"/>
<path d="M136.882 3.60547L137.177 3.90723H140.146V7.55371L140.566 7.85352L143.052 9.62402L140.497 11.8096L140.146 12.1084V15.6162H137.177L136.882 15.9189L134.762 18.0908L132.644 15.9189L132.344 15.6113L131.916 15.6162L128.882 15.6523L128.919 12.6133L128.924 12.2061L128.643 11.9121L126.446 9.60449L128.59 7.66406L128.924 7.36133L128.919 6.91113L128.882 3.87109L131.916 3.90723L132.344 3.91309L132.644 3.60547L134.762 1.43262L136.882 3.60547Z" fill="url(#paint24_radial_3_919)" stroke="#D4C4B6" stroke-width="2"/>
<path d="M179.502 15.4395H151.749L146.083 9.57129L151.733 4.0166H179.517L186.008 9.57129L179.502 15.4395Z" stroke="#D4C4B6" stroke-width="2"/>
<path d="M199.389 3.60547L199.684 3.90723H202.654V7.55371L203.074 7.85352L205.559 9.62402L203.004 11.8096L202.654 12.1084V15.6162H199.684L199.389 15.9189L197.27 18.0908L195.152 15.9189L194.852 15.6113L194.423 15.6162L191.389 15.6523L191.426 12.6133L191.431 12.2061L191.151 11.9121L188.954 9.60449L191.097 7.66406L191.431 7.36133L191.426 6.91113L191.389 3.87109L194.423 3.90723L194.852 3.91309L195.152 3.60547L197.27 1.43262L199.389 3.60547Z" fill="url(#paint25_radial_3_919)" stroke="#D4C4B6" stroke-width="2"/>
<path d="M241.97 15.4395H214.256L208.591 9.57031L214.24 4.0166H241.984L247.617 9.57031L241.97 15.4395Z" stroke="#D4C4B6" stroke-width="2"/>
<path d="M260.263 3.58789L260.559 3.90723H263.373V7.53906L263.773 7.83887L266.155 9.62207L263.705 11.8252L263.373 12.123V15.6162H260.559L260.263 15.9365L258.298 18.0537L256.334 15.9365L256.031 15.6113L255.588 15.6162L252.75 15.6514L252.785 12.6123L252.79 12.2207L252.526 11.9297L250.419 9.60352L252.474 7.64746L252.79 7.34668L252.785 6.91113L252.75 3.87109L255.588 3.90723L256.031 3.91309L256.334 3.58789L258.298 1.46973L260.263 3.58789Z" fill="url(#paint26_radial_3_919)" stroke="#D4C4B6" stroke-width="2"/>
<path d="M300.862 15.4395H274.497L269.106 9.57031L274.482 4.0166H300.833L307.032 10.0186L300.862 15.4395Z" stroke="#D4C4B6" stroke-width="2"/>
<defs>
<radialGradient id="paint0_radial_3_919" cx="0" cy="0" r="1" gradientUnits="userSpaceOnUse" gradientTransform="translate(164 234.5) rotate(90) scale(234.5 164)">
<stop stop-color="#3B4954"/>
<stop offset="0.334199" stop-color="#2E3F50"/>
<stop offset="1" stop-color="#171A1F"/>
</radialGradient>
<radialGradient id="paint1_radial_3_919" cx="0" cy="0" r="1" gradientUnits="userSpaceOnUse" gradientTransform="translate(10.799 121.772) rotate(180) scale(9.13823 9.15198)">
<stop offset="0.9999" stop-color="#415267"/>
<stop offset="1" stop-color="#415267"/>
</radialGradient>
<radialGradient id="paint2_radial_3_919" cx="0" cy="0" r="1" gradientUnits="userSpaceOnUse" gradientTransform="translate(10.799 178.082) rotate(180) scale(9.13823 9.15198)">
<stop offset="0.9999" stop-color="#415267"/>
<stop offset="1" stop-color="#415267"/>
</radialGradient>
<radialGradient id="paint3_radial_3_919" cx="0" cy="0" r="1" gradientUnits="userSpaceOnUse" gradientTransform="translate(10.799 65.4623) rotate(180) scale(9.13823 9.15198)">
<stop offset="0.9999" stop-color="#415267"/>
<stop offset="1" stop-color="#415267"/>
</radialGradient>
<radialGradient id="paint4_radial_3_919" cx="0" cy="0" r="1" gradientUnits="userSpaceOnUse" gradientTransform="translate(9.49534 234.391) rotate(180) scale(9.13921 9.15041)">
<stop offset="0.9999" stop-color="#415267"/>
<stop offset="1" stop-color="#415267"/>
</radialGradient>
<radialGradient id="paint5_radial_3_919" cx="0" cy="0" r="1" gradientUnits="userSpaceOnUse" gradientTransform="translate(9.13771 290.422) rotate(180) scale(9.13823 9.76211)">
<stop offset="0.9999" stop-color="#415267"/>
<stop offset="1" stop-color="#415267"/>
</radialGradient>
<radialGradient id="paint6_radial_3_919" cx="0" cy="0" r="1" gradientUnits="userSpaceOnUse" gradientTransform="translate(318.253 459.237) rotate(90) scale(9.76211 9.74745)">
<stop offset="0.9999" stop-color="#415267"/>
<stop offset="1" stop-color="#415267"/>
</radialGradient>
<radialGradient id="paint7_radial_3_919" cx="0" cy="0" r="1" gradientUnits="userSpaceOnUse" gradientTransform="translate(9.13838 403.296) rotate(180) scale(8.52902 9.15198)">
<stop offset="0.9999" stop-color="#415267"/>
<stop offset="1" stop-color="#415267"/>
</radialGradient>
<radialGradient id="paint8_radial_3_919" cx="0" cy="0" r="1" gradientUnits="userSpaceOnUse" gradientTransform="translate(8.48565 347.165) rotate(180) scale(9.13823 9.15198)">
<stop offset="0.9999" stop-color="#415267"/>
<stop offset="1" stop-color="#415267"/>
</radialGradient>
<radialGradient id="paint9_radial_3_919" cx="0" cy="0" r="1" gradientUnits="userSpaceOnUse" gradientTransform="translate(9.74745 459.238) rotate(90) scale(9.76211 9.74745)">
<stop offset="0.9999" stop-color="#415267"/>
<stop offset="1" stop-color="#415267"/>
</radialGradient>
<radialGradient id="paint10_radial_3_919" cx="0" cy="0" r="1" gradientUnits="userSpaceOnUse" gradientTransform="translate(72.255 459.237) rotate(90) scale(9.76211 9.74745)">
<stop offset="0.9999" stop-color="#415267"/>
<stop offset="1" stop-color="#415267"/>
</radialGradient>
<radialGradient id="paint11_radial_3_919" cx="0" cy="0" r="1" gradientUnits="userSpaceOnUse" gradientTransform="translate(134.763 459.237) rotate(90) scale(9.76211 9.74745)">
<stop offset="0.9999" stop-color="#415267"/>
<stop offset="1" stop-color="#415267"/>
</radialGradient>
<radialGradient id="paint12_radial_3_919" cx="0" cy="0" r="1" gradientUnits="userSpaceOnUse" gradientTransform="translate(197.27 459.237) rotate(90) scale(9.76211 9.74745)">
<stop offset="0.9999" stop-color="#415267"/>
<stop offset="1" stop-color="#415267"/>
</radialGradient>
<radialGradient id="paint13_radial_3_919" cx="0" cy="0" r="1" gradientUnits="userSpaceOnUse" gradientTransform="translate(258.298 459.237) rotate(90) scale(9.76211 9.2758)">
<stop offset="0.9999" stop-color="#415267"/>
<stop offset="1" stop-color="#415267"/>
</radialGradient>
<radialGradient id="paint14_radial_3_919" cx="0" cy="0" r="1" gradientUnits="userSpaceOnUse" gradientTransform="translate(9.74794 9.76211) rotate(90) scale(9.76211 9.74745)">
<stop offset="0.9999" stop-color="#415267"/>
<stop offset="1" stop-color="#415267"/>
</radialGradient>
<radialGradient id="paint15_radial_3_919" cx="0" cy="0" r="1" gradientUnits="userSpaceOnUse" gradientTransform="translate(318.296 121.772) rotate(180) scale(9.13823 9.15198)">
<stop offset="0.9999" stop-color="#415267"/>
<stop offset="1" stop-color="#415267"/>
</radialGradient>
<radialGradient id="paint16_radial_3_919" cx="0" cy="0" r="1" gradientUnits="userSpaceOnUse" gradientTransform="translate(318.296 178.083) rotate(180) scale(9.13823 9.15198)">
<stop offset="0.9999" stop-color="#415267"/>
<stop offset="1" stop-color="#415267"/>
</radialGradient>
<radialGradient id="paint17_radial_3_919" cx="0" cy="0" r="1" gradientUnits="userSpaceOnUse" gradientTransform="translate(318.296 65.4625) rotate(180) scale(9.13823 9.15198)">
<stop offset="0.9999" stop-color="#415267"/>
<stop offset="1" stop-color="#415267"/>
</radialGradient>
<radialGradient id="paint18_radial_3_919" cx="0" cy="0" r="1" gradientUnits="userSpaceOnUse" gradientTransform="translate(316.635 234.291) rotate(180) scale(8.52902 9.76211)">
<stop offset="0.9999" stop-color="#415267"/>
<stop offset="1" stop-color="#415267"/>
</radialGradient>
<radialGradient id="paint19_radial_3_919" cx="0" cy="0" r="1" gradientUnits="userSpaceOnUse" gradientTransform="translate(316.635 290.422) rotate(180) scale(9.13823 9.76211)">
<stop offset="0.9999" stop-color="#415267"/>
<stop offset="1" stop-color="#415267"/>
</radialGradient>
<radialGradient id="paint20_radial_3_919" cx="0" cy="0" r="1" gradientUnits="userSpaceOnUse" gradientTransform="translate(316.635 403.297) rotate(180) scale(8.52902 9.15198)">
<stop offset="0.9999" stop-color="#415267"/>
<stop offset="1" stop-color="#415267"/>
</radialGradient>
<radialGradient id="paint21_radial_3_919" cx="0" cy="0" r="1" gradientUnits="userSpaceOnUse" gradientTransform="translate(315.983 347.165) rotate(180) scale(9.13823 9.15198)">
<stop offset="0.9999" stop-color="#415267"/>
<stop offset="1" stop-color="#415267"/>
</radialGradient>
<radialGradient id="paint22_radial_3_919" cx="0" cy="0" r="1" gradientUnits="userSpaceOnUse" gradientTransform="translate(317.245 9.76211) rotate(90) scale(9.76211 9.74745)">
<stop offset="0.9999" stop-color="#415267"/>
<stop offset="1" stop-color="#415267"/>
</radialGradient>
<radialGradient id="paint23_radial_3_919" cx="0" cy="0" r="1" gradientUnits="userSpaceOnUse" gradientTransform="translate(72.2553 9.76211) rotate(90) scale(9.76211 9.74745)">
<stop offset="0.9999" stop-color="#415267"/>
<stop offset="1" stop-color="#415267"/>
</radialGradient>
<radialGradient id="paint24_radial_3_919" cx="0" cy="0" r="1" gradientUnits="userSpaceOnUse" gradientTransform="translate(134.763 9.76211) rotate(90) scale(9.76211 9.74745)">
<stop offset="0.9999" stop-color="#415267"/>
<stop offset="1" stop-color="#415267"/>
</radialGradient>
<radialGradient id="paint25_radial_3_919" cx="0" cy="0" r="1" gradientUnits="userSpaceOnUse" gradientTransform="translate(197.27 9.76211) rotate(90) scale(9.76211 9.74745)">
<stop offset="0.9999" stop-color="#415267"/>
<stop offset="1" stop-color="#415267"/>
</radialGradient>
<radialGradient id="paint26_radial_3_919" cx="0" cy="0" r="1" gradientUnits="userSpaceOnUse" gradientTransform="translate(258.298 9.76211) rotate(90) scale(9.76211 9.2758)">
<stop offset="0.9999" stop-color="#415267"/>
<stop offset="1" stop-color="#415267"/>
</radialGradient>
</defs>
</svg>
