<svg width="44" height="44" viewBox="0 0 44 44" fill="none" xmlns="http://www.w3.org/2000/svg">
<path d="M19.8 22L26.95 29.15C27.2861 29.4861 27.4542 29.9139 27.4542 30.4333C27.4542 30.9528 27.2861 31.3806 26.95 31.7167C26.6139 32.0528 26.1861 32.2208 25.6667 32.2208C25.1472 32.2208 24.7194 32.0528 24.3833 31.7167L15.95 23.2833C15.7667 23.1 15.6371 22.9014 15.5613 22.6875C15.4856 22.4736 15.4471 22.2444 15.4458 22C15.4446 21.7556 15.4831 21.5264 15.5613 21.3125C15.6396 21.0986 15.7691 20.9 15.95 20.7167L24.3833 12.2833C24.7194 11.9472 25.1472 11.7792 25.6667 11.7792C26.1861 11.7792 26.6139 11.9472 26.95 12.2833C27.2861 12.6194 27.4542 13.0472 27.4542 13.5667C27.4542 14.0861 27.2861 14.5139 26.95 14.85L19.8 22Z" fill="white"/>
</svg>
