<svg width="24" height="25" viewBox="0 0 24 25" fill="none" xmlns="http://www.w3.org/2000/svg">
<path d="M7.09407 3.5L6.18893 4.39881L7.53571 5.73743L8.43957 4.83862L7.09407 3.5ZM18.9066 3.5L17.5598 4.83862L18.4643 5.73743L19.8104 4.39945L18.9066 3.5ZM13 3.8989C12.7879 3.90061 12.5736 3.91424 12.3571 3.93982H12.3379C9.73043 4.23707 7.65529 6.33195 7.29464 8.9133C7.00664 10.9909 7.86807 12.8748 9.30357 14.0882C9.89068 14.5866 10.2878 15.2704 10.4286 16.0251V19.8607H11.8943C12.118 20.2424 12.5262 20.5 13 20.5C13.4738 20.5 13.882 20.2424 14.1057 19.8607H15.5714V17.3037H15.6319V16.5442C15.6319 15.6071 16.1217 14.6622 16.9176 13.9277C17.9821 12.8678 18.7857 11.3623 18.7857 9.63312C18.7857 6.47514 16.1719 3.8695 13 3.8989ZM13 5.17743C15.4846 5.14291 17.5 7.16555 17.5 9.63312C17.5 10.9717 16.8764 12.1505 16.0131 13.0084L16.0336 13.0289C15.176 13.8159 14.6213 14.8757 14.4651 16.0258H11.6532C11.5118 14.9301 11.0393 13.8695 10.1464 13.1088C9.01043 12.1499 8.3335 10.7052 8.55979 9.07376C8.84071 7.06007 10.4839 5.44081 12.4973 5.21899C12.6635 5.19606 12.8309 5.1824 12.9987 5.17807L13 5.17743ZM4 9.63312V10.9116H5.92857V9.63312H4ZM20.0714 9.63312V10.9116H22V9.63312H20.0714ZM7.53571 14.8073L6.18957 16.1453L7.09407 17.0448L8.43893 15.7061L7.53571 14.8073ZM18.4643 14.8073L17.5604 15.7061L18.9059 17.0448L19.8104 16.1453L18.4643 14.8073ZM11.7143 17.3043H14.2857V18.5828H11.7143V17.3043Z" fill="black"/>
</svg>
