<svg width="35" height="30" viewBox="0 0 35 30" fill="none" xmlns="http://www.w3.org/2000/svg">
<path d="M15.7981 6.26599C17.2585 7.16747 17.9565 9.28483 18.3414 10.8682C19.1266 14.2117 19.0851 18.4592 17.238 21.4775C16.9313 21.9198 16.607 22.354 16.0719 22.509C15.4767 22.6061 14.9269 22.4583 14.4293 22.1307C14.1369 21.9174 13.8533 21.6938 13.5708 21.4677C13.2604 21.2204 12.9431 20.9827 12.6252 20.7452C12.5672 20.7018 12.5091 20.6584 12.4493 20.6137C12.228 20.4483 12.0066 20.283 11.785 20.1179C11.2264 19.7014 10.673 19.2798 10.1262 18.8479C9.64249 18.4659 9.15566 18.0882 8.65569 17.7277C7.96976 17.2325 7.30168 16.7124 6.63694 16.1892C6.59923 16.1596 6.56151 16.13 6.52266 16.0995C6.29949 15.9242 6.07762 15.7474 5.85654 15.5695C4.96262 14.7645 4.96262 14.7645 3.89304 14.3933C3.83545 14.4219 3.83545 14.4219 3.77669 14.451C3.58589 15.0234 3.76342 15.6599 3.86594 16.236C3.89738 16.4179 3.9284 16.5998 3.95944 16.7818C3.96714 16.8267 3.97485 16.8716 3.98278 16.9179C4.05064 17.3147 4.11367 17.7119 4.17194 18.1102C4.18034 18.1652 4.18874 18.2203 4.19739 18.277C4.31065 19.0657 4.3177 19.9588 3.84469 20.639C3.54037 20.9759 3.21403 21.0967 2.76944 21.1405C2.1431 21.119 1.67611 20.7357 1.26069 20.299C0.525402 19.475 0.271459 18.1636 0.104692 17.103C0.0927867 17.0278 0.0808819 16.9526 0.0686164 16.8751C0.0156984 16.4394 0.0226542 16.0001 0.0204884 15.5618C0.0202113 15.5139 0.0199345 15.466 0.019649 15.4167C0.0182357 15.1623 0.0172612 14.9079 0.0166203 14.6536C0.0160227 14.4465 0.0146143 14.2395 0.0124367 14.0325C-0.0285223 10.0493 -0.0285223 10.0493 1.0126 8.8484C1.69146 8.18563 1.69146 8.18563 2.19569 8.17371C2.26547 8.17117 2.33524 8.16863 2.40713 8.16601C2.67835 8.20278 2.81087 8.30289 3.02869 8.46696C3.10351 8.52013 3.17842 8.57316 3.25341 8.62607C3.85352 9.06059 4.43052 9.51889 5.00282 9.98919C5.60578 10.4836 6.21751 10.9641 6.8428 11.4299C7.48972 11.9124 8.1197 12.415 8.74494 12.9252C9.25595 13.3421 9.77617 13.7454 10.3017 14.1438C10.8829 14.5846 11.4576 15.0312 12.022 15.4933C12.4043 15.8058 12.7937 16.1077 13.1868 16.4066C13.3048 16.4972 13.4217 16.5893 13.5384 16.6817C13.5783 16.713 13.6182 16.7444 13.6594 16.7767C13.7357 16.8368 13.8117 16.8971 13.8875 16.9578C14.0706 17.1011 14.2193 17.2071 14.4527 17.239C14.7375 16.3258 14.9402 15.4608 14.9457 14.502C14.9471 14.4445 14.9485 14.387 14.9499 14.3277C14.9567 13.1662 14.6702 12.0612 14.3252 10.9617C14.2896 10.8455 14.2541 10.7293 14.2187 10.6131C14.0871 10.1836 13.9546 9.75461 13.8093 9.32953C13.7859 9.26091 13.7859 9.26091 13.762 9.19091C13.7202 9.06935 13.6777 8.94804 13.6351 8.82675C13.4397 8.16793 13.4352 7.47265 13.7047 6.83496C14.1807 6.07558 15.0021 5.86032 15.7981 6.26599Z" fill="white"/>
<path d="M30.3225 0.166257C30.9298 0.530636 31.2126 1.14071 31.4785 1.77276C31.5263 1.8843 31.5263 1.8843 31.5751 1.99809C32.6221 4.46829 33.3216 7.00073 33.7523 9.64376C33.7656 9.72505 33.7788 9.80635 33.7925 9.89011C33.8315 10.1406 33.8668 10.3913 33.901 10.6425C33.9138 10.7278 33.9265 10.8131 33.9396 10.901C34.0866 11.9846 34.0625 13.0835 34.0622 14.1748C34.0622 14.4079 34.0632 14.641 34.065 14.8741C34.0773 16.4321 34.004 17.9415 33.765 19.4825C33.755 19.5473 33.745 19.612 33.7347 19.6787C33.6792 20.0273 33.6148 20.3735 33.544 20.7193C33.5341 20.7691 33.5241 20.8189 33.5139 20.8702C33.0629 23.1193 32.4386 25.4263 31.453 27.5065C31.4327 27.5495 31.4124 27.5926 31.3915 27.6369C31.0831 28.2782 30.7497 28.824 30.0646 29.0936C29.4547 29.2496 28.8724 29.168 28.325 28.8665C27.8902 28.5875 27.6871 28.1929 27.5337 27.7102C27.404 27.0422 27.7732 26.2884 28.002 25.6748C28.0571 25.5244 28.112 25.3739 28.1667 25.2235C28.1937 25.1494 28.2206 25.0754 28.2484 24.9992C28.4441 24.4561 28.6237 23.9078 28.801 23.3585C28.8252 23.2842 28.8495 23.2099 28.8744 23.1333C29.9455 19.8304 30.4572 16.4486 30.246 12.9758C30.2431 12.9277 30.2403 12.8797 30.2373 12.8302C30.1428 11.3064 29.9052 9.81469 29.549 8.33051C29.5317 8.25528 29.5317 8.25528 29.5139 8.17854C29.1222 6.4935 28.5309 4.82991 27.9062 3.21882C27.6312 2.50758 27.3955 1.87912 27.645 1.12251C27.9107 0.55629 28.2924 0.312524 28.8616 0.0956008C29.345 -0.0440865 29.8596 -0.0390191 30.3225 0.166257Z" fill="white"/>
<path d="M24.0411 3.36738C26.4312 5.73202 26.8063 11.2338 26.8452 14.3747C26.8581 17.8059 26.3461 21.4864 24.7891 24.5834C24.7506 24.6636 24.712 24.7438 24.6723 24.8264C24.3861 25.3968 24.0974 25.7643 23.5354 26.0709C22.8616 26.2837 22.2725 26.2151 21.6356 25.8966C21.1907 25.5047 20.8783 25.0342 20.834 24.4317C20.8643 23.736 21.2168 23.0662 21.4802 22.4318C22.2307 20.6145 22.6667 18.8462 22.8851 16.8994C22.8928 16.8326 22.9004 16.7659 22.9082 16.6971C22.9744 16.0272 22.9696 15.3534 22.9701 14.6809C22.9702 14.6161 22.9703 14.5513 22.9704 14.4846C22.9701 13.5022 22.9281 12.5451 22.777 11.5727C22.7502 11.398 22.7269 11.2232 22.7045 11.0479C22.5955 10.2317 22.3833 9.45611 22.1371 8.67138C22.1196 8.61481 22.1021 8.55824 22.084 8.49996C21.8996 7.9093 21.6974 7.32852 21.467 6.7541C21.4416 6.69085 21.4416 6.69085 21.4158 6.62632C21.3321 6.41813 21.2474 6.21058 21.1609 6.00356C20.8672 5.28225 20.7414 4.71316 21.0491 3.97938C21.3226 3.47958 21.6593 3.22264 22.1945 3.06563C22.8678 2.88999 23.4639 2.9571 24.0411 3.36738Z" fill="white"/>
</svg>
