<svg width="328" height="469" viewBox="0 0 328 469" fill="none" xmlns="http://www.w3.org/2000/svg">
<rect width="328" height="469" rx="8" fill="#DA0E2F"/>
<rect x="14.7433" y="60.7433" width="298.513" height="388.513" fill="white"/>
<rect x="14.7433" y="60.7433" width="298.513" height="388.513" stroke="black" stroke-width="1.48657"/>
<path d="M328 40H235.604L190.199 11H4.08106e-06" stroke="black" stroke-width="2.86996"/>
<path d="M328 45.4756L235.77 46L189.717 16H-1.51694e-05" stroke="black" stroke-width="0.478327"/>
<path d="M299.641 3.44824C291.325 3.4485 284.579 10.2401 284.579 18.625C284.579 27.0098 291.325 33.8015 299.641 33.8018C307.957 33.8018 314.705 27.01 314.705 18.625C314.705 10.2399 307.957 3.44824 299.641 3.44824Z" fill="white" stroke="black" stroke-width="0.895773"/>
<ellipse cx="12.691" cy="12.7839" rx="12.691" ry="12.7839" transform="matrix(-1 0 0 1 312.333 6.12122)" fill="#2897DF"/>
<line y1="-0.298591" x2="6.19936" y2="-0.298591" transform="matrix(-0.963295 0.268443 0.218842 0.97576 307.919 18.0273)" stroke="white" stroke-width="0.597182"/>
<line y1="-0.298591" x2="6.14177" y2="-0.298591" transform="matrix(-0.388931 0.921267 0.885559 0.464528 303.143 11.7031)" stroke="white" stroke-width="0.597182"/>
<line y1="-0.298591" x2="6.45898" y2="-0.298591" transform="matrix(-0.785889 0.618368 0.535005 0.844849 306.728 14.3672)" stroke="white" stroke-width="0.597182"/>
<path d="M277.48 3.44824C275.121 3.44824 273.15 5.52431 273.15 8.15918C273.15 10.7939 275.121 12.8701 277.48 12.8701C279.84 12.8701 281.809 10.7939 281.809 8.15918C281.809 5.52435 279.84 3.44831 277.48 3.44824Z" fill="#FF3131" stroke="black" stroke-width="0.895773"/>
<path d="M266.053 3.44629C263.692 3.44629 261.722 5.52356 261.722 8.15918C261.722 10.7947 263.692 12.8711 266.053 12.8711C268.413 12.871 270.384 10.7946 270.384 8.15918C270.384 5.5236 268.413 3.44635 266.053 3.44629Z" fill="#F3D549" stroke="black" stroke-width="0.892663"/>
<path d="M254.625 3.44629C252.265 3.44629 250.294 5.52356 250.294 8.15918C250.294 10.7947 252.265 12.8711 254.625 12.8711C256.985 12.871 258.956 10.7946 258.956 8.15918C258.956 5.5236 256.985 3.44635 254.625 3.44629Z" fill="#3BB174" stroke="black" stroke-width="0.892663"/>
</svg>
