<svg width="15" height="15" viewBox="0 0 15 15" fill="none" xmlns="http://www.w3.org/2000/svg">
<path d="M0 6.72222H1.66667V8.27778H0V6.72222ZM6.66667 2.05556H8.33333V5.16667H6.66667V2.05556ZM5 6.72222H8.33333V9.83333H6.66667V8.27778H5V6.72222ZM10 6.72222H11.6667V8.27778H13.3333V6.72222H15V8.27778H13.3333V9.83333H15V12.9444H13.3333V14.5H11.6667V12.9444H8.33333V14.5H6.66667V11.3889H10V9.83333H11.6667V8.27778H10V6.72222ZM13.3333 12.9444V9.83333H11.6667V12.9444H13.3333ZM10 0.5H15V5.16667H10V0.5ZM11.6667 2.05556V3.61111H13.3333V2.05556H11.6667ZM0 0.5H5V5.16667H0V0.5ZM1.66667 2.05556V3.61111H3.33333V2.05556H1.66667ZM0 9.83333H5V14.5H0V9.83333ZM1.66667 11.3889V12.9444H3.33333V11.3889H1.66667Z" fill="black"/>
</svg>
