<svg width="34" height="34" viewBox="0 0 34 34" fill="none" xmlns="http://www.w3.org/2000/svg">
<path d="M16.0206 10.9128C16.6669 10.9128 17.3133 10.9128 17.9792 10.9128C17.9792 12.6022 17.9792 14.2916 17.9792 16.0323C18.5261 16.0323 19.073 16.0323 19.6365 16.0323C19.7111 16.8522 19.7111 16.8522 19.7872 17.6886C20.2844 17.6886 20.7816 17.6886 21.2938 17.6886C21.2938 17.142 21.2938 16.5954 21.2938 16.0323C21.8905 16.0323 22.4871 16.0323 23.1018 16.0323C23.1018 16.6285 23.1018 17.2248 23.1018 17.8392C23.6487 17.8392 24.1956 17.8392 24.7591 17.8392C24.7591 17.2429 24.7591 16.6466 24.7591 16.0323C25.3557 16.0323 25.9524 16.0323 26.5671 16.0323C26.5671 16.6285 26.5671 17.2248 26.5671 17.8392C26.0828 18.0812 25.5974 17.9984 25.0604 17.9897C24.9858 18.7351 24.9858 18.7351 24.9098 19.4955C25.4567 19.4955 26.0036 19.4955 26.5671 19.4955C26.5671 20.1414 26.5671 20.7874 26.5671 21.4529C26.0202 21.4529 25.4732 21.4529 24.9098 21.4529C24.9098 21.9995 24.9098 22.5461 24.9098 23.1092C23.7662 23.1092 22.6227 23.1092 21.4445 23.1092C21.4445 23.6558 21.4445 24.2024 21.4445 24.7655C22.0411 24.7655 22.6377 24.7655 23.2525 24.7655C23.2525 25.3618 23.2525 25.9581 23.2525 26.5724C22.6529 26.5765 22.0534 26.5795 21.4539 26.5818C21.1971 26.5837 21.1971 26.5837 20.9351 26.5857C20.7725 26.5861 20.6098 26.5866 20.4422 26.5871C20.2162 26.5883 20.2162 26.5883 19.9856 26.5895C19.6365 26.5724 19.6365 26.5724 19.4859 26.4218C19.4727 26.1757 19.4697 25.929 19.4711 25.6825C19.4716 25.5335 19.4721 25.3846 19.4726 25.2311C19.4745 24.996 19.4745 24.996 19.4764 24.7561C19.4771 24.5988 19.4778 24.4415 19.4785 24.2794C19.4803 23.8893 19.483 23.4993 19.4859 23.1092C18.9887 23.1092 18.4915 23.1092 17.9792 23.1092C17.9792 24.2521 17.9792 25.3949 17.9792 26.5724C17.3329 26.5724 16.6865 26.5724 16.0206 26.5724C16.0206 24.8333 16.0206 23.0942 16.0206 21.3024C16.6172 21.3024 17.2138 21.3024 17.8286 21.3024C17.8286 20.7558 17.8286 20.2092 17.8286 19.646C17.2816 19.646 16.7347 19.646 16.1712 19.646C16.1712 19.0995 16.1712 18.5529 16.1712 17.9897C15.5746 17.9897 14.978 17.9897 14.3633 17.9897C14.3633 17.3438 14.3633 16.6978 14.3633 16.0323C14.9102 16.0323 15.4571 16.0323 16.0206 16.0323C16.0206 14.3428 16.0206 12.6534 16.0206 10.9128ZM16.1712 16.1829C16.1712 16.7294 16.1712 17.276 16.1712 17.8392C16.7182 17.8392 17.2651 17.8392 17.8286 17.8392C17.8286 17.2926 17.8286 16.746 17.8286 16.1829C17.2816 16.1829 16.7347 16.1829 16.1712 16.1829ZM21.4445 17.8392C21.4445 18.4354 21.4445 19.0317 21.4445 19.646C20.8479 19.646 20.2512 19.646 19.6365 19.646C19.6365 20.7392 19.6365 21.8324 19.6365 22.9587C20.1834 22.9587 20.7303 22.9587 21.2938 22.9587C21.2938 22.4121 21.2938 21.8655 21.2938 21.3024C21.8407 21.3024 22.3876 21.3024 22.9511 21.3024C22.9511 20.2092 22.9511 19.116 22.9511 17.9897C22.4539 17.94 21.9567 17.8904 21.4445 17.8392Z" fill="white"/>
<path d="M0.0500674 22.808C0.99473 22.808 1.93939 22.808 2.91268 22.808C2.92006 23.1528 2.92744 23.4975 2.93505 23.8526C2.94321 24.1901 2.95183 24.5274 2.9605 24.8648C2.96623 25.0976 2.97149 25.3304 2.97624 25.5631C2.9832 25.8996 2.99192 26.236 3.00096 26.5724C3.0027 26.6749 3.00444 26.7773 3.00624 26.8829C3.04601 28.2033 3.33549 29.2711 4.30632 30.2144C5.49815 30.9994 6.64326 31.0168 8.03526 31.0425C8.22384 31.0477 8.41242 31.0528 8.60672 31.0581C9.06906 31.0705 9.53147 31.0803 9.99389 31.0896C9.99389 32.0337 9.99389 32.9778 9.99389 33.9505C9.33745 33.9644 8.68154 33.9764 8.02507 33.9836C7.80254 33.9866 7.58002 33.9907 7.35753 33.9959C5.22479 34.0451 3.48822 33.661 1.87275 32.1824C0.538098 30.7756 0.0235567 29.2121 0.0353542 27.3223C0.0355673 27.193 0.0357805 27.0638 0.0360002 26.9306C0.0368406 26.5194 0.0387312 26.1083 0.0406509 25.6972C0.041407 25.4177 0.0420943 25.1382 0.0427108 24.8587C0.0442396 24.1752 0.0471895 23.4916 0.0500674 22.808Z" fill="white"/>
<path d="M6.15381 0.0568063C6.26352 0.0570194 6.37324 0.0572325 6.48628 0.057452C6.83628 0.058294 7.18627 0.0601838 7.53627 0.0620999C7.77374 0.0628552 8.01121 0.0635423 8.24868 0.0641586C8.83046 0.0656894 9.4122 0.0686372 9.99397 0.0715108C9.99397 1.01561 9.99397 1.9597 9.99397 2.93241C9.72693 2.93804 9.45988 2.94366 9.18474 2.94946C8.82985 2.95936 8.47497 2.96936 8.12009 2.97946C7.94462 2.98286 7.76914 2.98625 7.58835 2.98975C6.15391 3.03417 4.95566 3.18918 3.88267 4.19699C3.06061 5.11231 3.04195 6.2415 3.05401 7.4155C3.05518 7.60164 3.05634 7.78778 3.05754 7.97956C3.05949 8.17113 3.06143 8.36271 3.06343 8.56009C3.06725 8.94397 3.07043 9.32785 3.07285 9.71174C3.07459 9.88087 3.07634 10.05 3.07814 10.2243C3.06343 10.6117 3.06343 10.6117 2.91277 10.7622C2.69947 10.7753 2.48554 10.7783 2.27186 10.7769C2.14319 10.7764 2.01452 10.776 1.88195 10.7755C1.74668 10.7742 1.61141 10.7729 1.47204 10.7716C1.33619 10.771 1.20033 10.7703 1.06036 10.7696C0.723616 10.7678 0.386888 10.7653 0.0501505 10.7622C0.0350526 10.0475 0.0242231 9.33295 0.0170456 8.61814C0.014048 8.37589 0.00996096 8.13365 0.00468644 7.89144C-0.046211 5.49097 0.298313 3.55362 1.98524 1.72841C3.1357 0.632831 4.57873 0.0453042 6.15381 0.0568063Z" fill="white"/>
<path d="M31.0868 22.808C32.0315 22.808 32.9762 22.808 33.9494 22.808C33.9634 23.6114 33.9754 24.4143 33.9826 25.2177C33.9856 25.4902 33.9897 25.7627 33.9949 26.0352C34.0393 28.3959 33.8166 30.3622 32.1415 32.1671C30.9849 33.2734 29.5891 33.9738 27.977 33.9652C27.7352 33.9645 27.7352 33.9645 27.4886 33.9637C27.3211 33.9625 27.1537 33.9612 26.9812 33.9599C26.7266 33.9589 26.7266 33.9589 26.4669 33.9578C26.0482 33.9561 25.6296 33.9534 25.2109 33.9505C25.2109 33.0064 25.2109 32.0623 25.2109 31.0896C25.6522 31.0772 26.0935 31.0647 26.5481 31.0519C27.7653 30.9964 28.9151 30.9385 29.8597 30.0838C30.8481 28.9905 30.9431 27.9189 30.9838 26.4694C30.987 26.364 30.9901 26.2585 30.9933 26.1499C31.0031 25.8171 31.012 25.4842 31.0209 25.1513C31.0274 24.924 31.034 24.6967 31.0406 24.4694C31.0568 23.9156 31.0718 23.3618 31.0868 22.808Z" fill="white"/>
<path d="M25.2109 0.0715233C29.3909 -0.073976 29.3909 -0.073976 30.7855 0.824391C30.9521 0.927748 30.9521 0.927748 31.1221 1.03319C32.5767 2.03055 33.5765 3.45788 33.9494 5.19102C33.962 5.61819 33.967 6.04149 33.9642 6.46854C33.9639 6.59135 33.9637 6.71416 33.9635 6.84068C33.9627 7.23189 33.9608 7.62308 33.9589 8.01427C33.9581 8.27993 33.9574 8.54559 33.9568 8.81125C33.9553 9.46159 33.9523 10.1119 33.9494 10.7622C33.0048 10.7622 32.0601 10.7622 31.0868 10.7622C31.0812 10.441 31.0756 10.1198 31.0698 9.78881C31.0628 9.47332 31.0551 9.15786 31.0473 8.84239C31.0423 8.62527 31.0381 8.40813 31.0346 8.19098C31.0037 5.86775 31.0037 5.86775 29.8544 3.91173C28.5443 2.83 26.8173 2.97764 25.2109 2.93242C25.2109 1.98832 25.2109 1.04423 25.2109 0.0715233Z" fill="white"/>
<path d="M7.43262 19.4955C9.14327 19.4908 9.14327 19.4908 10.8885 19.4861C11.2489 19.4847 11.6094 19.4833 11.9807 19.4819C12.2646 19.4815 12.5485 19.4811 12.8324 19.4808C13.0557 19.4796 13.0557 19.4796 13.2835 19.4784C13.4242 19.4784 13.5649 19.4784 13.7099 19.4784C13.8326 19.478 13.9554 19.4777 14.0819 19.4774C14.3632 19.4955 14.3632 19.4955 14.5138 19.646C14.5278 19.8633 14.5315 20.0812 14.5309 20.299C14.5309 20.4396 14.5309 20.5802 14.5309 20.725C14.5301 20.8738 14.5293 21.0226 14.5285 21.1759C14.5284 21.3119 14.5282 21.4479 14.5281 21.588C14.5273 22.0982 14.5252 22.6084 14.5232 23.1186C14.5201 24.2584 14.517 25.3981 14.5138 26.5724C12.177 26.5724 9.84023 26.5724 7.43262 26.5724C7.43262 24.237 7.43262 21.9016 7.43262 19.4955ZM9.24058 21.3023C9.24058 22.4452 9.24058 23.5881 9.24058 24.7655C10.3344 24.7655 11.4282 24.7655 12.5552 24.7655C12.5552 23.6227 12.5552 22.4798 12.5552 21.3023C11.4614 21.3023 10.3676 21.3023 9.24058 21.3023Z" fill="white"/>
<path d="M19.4854 7.44958C21.8221 7.44958 24.1589 7.44958 26.5666 7.44958C26.5666 9.73529 26.5666 12.021 26.5666 14.376C24.2298 14.376 21.893 14.376 19.4854 14.376C19.4854 12.0903 19.4854 9.80455 19.4854 7.44958ZM21.2933 9.25647C21.2933 10.3496 21.2933 11.4428 21.2933 12.5691C22.4369 12.5691 23.5804 12.5691 24.7586 12.5691C24.7586 11.4759 24.7586 10.3828 24.7586 9.25647C23.6151 9.25647 22.4715 9.25647 21.2933 9.25647Z" fill="white"/>
<path d="M7.43262 7.44958C9.76942 7.44958 12.1062 7.44958 14.5138 7.44958C14.5138 9.73529 14.5138 12.021 14.5138 14.376C12.177 14.376 9.84023 14.376 7.43262 14.376C7.43262 12.0903 7.43262 9.80455 7.43262 7.44958ZM9.24058 9.25647C9.24058 10.3496 9.24058 11.4428 9.24058 12.5691C10.3841 12.5691 11.5277 12.5691 12.7059 12.5691C12.7059 11.4759 12.7059 10.3828 12.7059 9.25647C11.5623 9.25647 10.4188 9.25647 9.24058 9.25647Z" fill="white"/>
<path d="M16.0205 7.44958C16.6669 7.44958 17.3132 7.44958 17.9791 7.44958C17.9791 8.04586 17.9791 8.64213 17.9791 9.25647C17.3328 9.25647 16.6864 9.25647 16.0205 9.25647C16.0205 8.6602 16.0205 8.06392 16.0205 7.44958Z" fill="white"/>
<path d="M7.43268 16.0322C8.02931 16.0322 8.62594 16.0322 9.24065 16.0322C9.24065 16.6285 9.24065 17.2248 9.24065 17.8391C8.64492 17.9582 8.18095 18.0168 7.58335 17.9897C7.43268 17.8391 7.43268 17.8391 7.41797 17.4291C7.42287 16.9635 7.42778 16.4979 7.43268 16.0322Z" fill="white"/>
<path d="M10.8984 16.0322C11.4951 16.0322 12.0917 16.0322 12.7064 16.0322C12.7064 16.6285 12.7064 17.2248 12.7064 17.8391C12.326 18.0292 12.0567 18.0045 11.6329 17.9991C11.3905 17.996 11.1482 17.9929 10.8984 17.9897C10.8984 17.3437 10.8984 16.6978 10.8984 16.0322Z" fill="white"/>
<path d="M24.7588 24.7655C25.3554 24.7655 25.952 24.7655 26.5668 24.7655C26.5668 25.3618 26.5668 25.958 26.5668 26.5724C25.9701 26.5724 25.3735 26.5724 24.7588 26.5724C24.7588 25.9761 24.7588 25.3798 24.7588 24.7655Z" fill="white"/>
</svg>
