<svg width="30" height="30" viewBox="0 0 30 30" fill="none" xmlns="http://www.w3.org/2000/svg">
<path d="M15 25C12.2083 25 9.84375 24.0312 7.90625 22.0938C5.96875 20.1562 5 17.7917 5 15C5 12.2083 5.96875 9.84375 7.90625 7.90625C9.84375 5.96875 12.2083 5 15 5C16.4375 5 17.8125 5.29667 19.125 5.89C20.4375 6.48333 21.5625 7.3325 22.5 8.4375V6.25C22.5 5.89583 22.62 5.59917 22.86 5.36C23.1 5.12083 23.3967 5.00083 23.75 5C24.1033 4.99917 24.4004 5.11917 24.6412 5.36C24.8821 5.60083 25.0017 5.8975 25 6.25V12.5C25 12.8542 24.88 13.1513 24.64 13.3913C24.4 13.6313 24.1033 13.7508 23.75 13.75H17.5C17.1458 13.75 16.8492 13.63 16.61 13.39C16.3708 13.15 16.2508 12.8533 16.25 12.5C16.2492 12.1467 16.3692 11.85 16.61 11.61C16.8508 11.37 17.1475 11.25 17.5 11.25H21.5C20.8333 10.0833 19.9221 9.16667 18.7662 8.5C17.6104 7.83333 16.355 7.5 15 7.5C12.9167 7.5 11.1458 8.22917 9.6875 9.6875C8.22917 11.1458 7.5 12.9167 7.5 15C7.5 17.0833 8.22917 18.8542 9.6875 20.3125C11.1458 21.7708 12.9167 22.5 15 22.5C16.4167 22.5 17.7137 22.1408 18.8912 21.4225C20.0687 20.7042 20.98 19.7404 21.625 18.5313C21.7917 18.2396 22.0262 18.0367 22.3287 17.9225C22.6312 17.8083 22.9383 17.8029 23.25 17.9063C23.5833 18.0104 23.8229 18.2292 23.9687 18.5625C24.1146 18.8958 24.1042 19.2083 23.9375 19.5C23.0833 21.1667 21.8646 22.5 20.2812 23.5C18.6979 24.5 16.9375 25 15 25Z" fill="white"/>
</svg>
