<svg width="35" height="35" viewBox="0 0 35 35" fill="none" xmlns="http://www.w3.org/2000/svg">
<g clip-path="url(#clip0_3254_26040)">
<path d="M17.5 3.28125C21.271 3.28125 24.8876 4.77929 27.5542 7.44583C30.2207 10.1124 31.7188 13.729 31.7188 17.5C31.7188 21.271 30.2207 24.8876 27.5542 27.5542C24.8876 30.2207 21.271 31.7188 17.5 31.7188C13.729 31.7188 10.1124 30.2207 7.44583 27.5542C4.77929 24.8876 3.28125 21.271 3.28125 17.5C3.28125 13.729 4.77929 10.1124 7.44583 7.44583C10.1124 4.77929 13.729 3.28125 17.5 3.28125ZM17.5 35C22.1413 35 26.5925 33.1563 29.8744 29.8744C33.1563 26.5925 35 22.1413 35 17.5C35 12.8587 33.1563 8.40752 29.8744 5.12563C26.5925 1.84374 22.1413 0 17.5 0C12.8587 0 8.40752 1.84374 5.12563 5.12563C1.84374 8.40752 0 12.8587 0 17.5C0 22.1413 1.84374 26.5925 5.12563 29.8744C8.40752 33.1563 12.8587 35 17.5 35ZM11.9629 11.9629C11.3203 12.6055 11.3203 13.6445 11.9629 14.2803L15.1758 17.4932L11.9629 20.7061C11.3203 21.3486 11.3203 22.3877 11.9629 23.0234C12.6055 23.6592 13.6445 23.666 14.2803 23.0234L17.4932 19.8105L20.7061 23.0234C21.3486 23.666 22.3877 23.666 23.0234 23.0234C23.6592 22.3809 23.666 21.3418 23.0234 20.7061L19.8105 17.4932L23.0234 14.2803C23.666 13.6377 23.666 12.5986 23.0234 11.9629C22.3809 11.3271 21.3418 11.3203 20.7061 11.9629L17.4932 15.1758L14.2803 11.9629C13.6377 11.3203 12.5986 11.3203 11.9629 11.9629Z" fill="#9D9D9D"/>
</g>
<defs>
<clipPath id="clip0_3254_26040">
<rect width="35" height="35" rx="17.5" fill="white"/>
</clipPath>
</defs>
</svg>
