<svg width="382" height="70" viewBox="0 0 382 70" fill="none" xmlns="http://www.w3.org/2000/svg">
<rect y="1" width="382" height="69" fill="#EE5757"/>
<path d="M1.2963 47.5185H7.77778V54H1.2963V47.5185ZM16.8519 47.5185H23.3333V54H16.8519V47.5185ZM24.6296 47.5185H31.1111V54H24.6296V47.5185ZM32.4074 47.5185H38.8889V54H32.4074V47.5185ZM47.963 47.5185H54.4444V54H47.963V47.5185ZM1.2963 39.7407H7.77778V46.2222H1.2963V39.7407ZM16.8519 39.7407H23.3333V46.2222H16.8519V39.7407ZM24.6296 39.7407H31.1111V46.2222H24.6296V39.7407ZM32.4074 39.7407H38.8889V46.2222H32.4074V39.7407ZM40.1852 39.7407H46.6667V46.2222H40.1852V39.7407ZM47.963 39.7407H54.4444V46.2222H47.963V39.7407ZM1.2963 55.2963H7.77778V61.7778H1.2963V55.2963ZM9.07407 55.2963H15.5556V61.7778H9.07407V55.2963ZM40.1852 55.2963H46.6667V61.7778H40.1852V55.2963ZM47.963 55.2963H54.4444V61.7778H47.963V55.2963ZM1.2963 24.1852H7.77778V30.6667H1.2963V24.1852ZM16.8519 24.1852H23.3333V30.6667H16.8519V24.1852ZM24.6296 24.1852H31.1111V30.6667H24.6296V24.1852ZM32.4074 24.1852H38.8889V30.6667H32.4074V24.1852ZM40.1852 24.1852H46.6667V30.6667H40.1852V24.1852ZM47.963 24.1852H54.4444V30.6667H47.963V24.1852ZM1.2963 16.4074H7.77778V22.8889H1.2963V16.4074ZM16.8519 16.4074H23.3333V22.8889H16.8519V16.4074ZM24.6296 16.4074H31.1111V22.8889H24.6296V16.4074ZM32.4074 16.4074H38.8889V22.8889H32.4074V16.4074ZM47.963 16.4074H54.4444V22.8889H47.963V16.4074ZM1.2963 31.963H7.77778V38.4444H1.2963V31.963ZM16.8519 31.963H23.3333V38.4444H16.8519V31.963ZM24.6296 31.963H31.1111V38.4444H24.6296V31.963ZM32.4074 31.963H38.8889V38.4444H32.4074V31.963ZM40.1852 31.963H46.6667V38.4444H40.1852V31.963ZM47.963 31.963H54.4444V38.4444H47.963V31.963ZM1.2963 8.62963H7.77778V15.1111H1.2963V8.62963ZM9.07407 8.62963H15.5556V15.1111H9.07407V8.62963ZM40.1852 8.62963H46.6667V15.1111H40.1852V8.62963ZM47.963 8.62963H54.4444V15.1111H47.963V8.62963ZM1.2963 0.851854H7.77778V7.33334H1.2963V0.851854ZM9.07407 0.851854H15.5556V7.33334H9.07407V0.851854ZM16.8519 0.851854H23.3333V7.33334H16.8519V0.851854ZM24.6296 0.851854H31.1111V7.33334H24.6296V0.851854ZM32.4074 0.851854H38.8889V7.33334H32.4074V0.851854ZM40.1852 0.851854H46.6667V7.33334H40.1852V0.851854ZM47.963 0.851854H54.4444V7.33334H47.963V0.851854ZM1.2963 63.0741H7.77778V69.5556H1.2963V63.0741ZM9.07407 63.0741H15.5556V69.5556H9.07407V63.0741ZM16.8519 63.0741H23.3333V69.5556H16.8519V63.0741ZM24.6296 63.0741H31.1111V69.5556H24.6296V63.0741ZM32.4074 63.0741H38.8889V69.5556H32.4074V63.0741ZM40.1852 63.0741H46.6667V69.5556H40.1852V63.0741ZM47.963 63.0741H54.4444V69.5556H47.963V63.0741ZM47.9857 47.5185H54.4672V54H47.9857V47.5185ZM63.5413 47.5185H70.0228V54H63.5413V47.5185ZM71.3191 47.5185H77.8006V54H71.3191V47.5185ZM79.0969 47.5185H85.5783V54H79.0969V47.5185ZM94.6524 47.5185H101.134V54H94.6524V47.5185ZM47.9857 39.7407H54.4672V46.2222H47.9857V39.7407ZM63.5413 39.7407H70.0228V46.2222H63.5413V39.7407ZM71.3191 39.7407H77.8006V46.2222H71.3191V39.7407ZM79.0969 39.7407H85.5783V46.2222H79.0969V39.7407ZM94.6524 39.7407H101.134V46.2222H94.6524V39.7407ZM47.9857 55.2963H54.4672V61.7778H47.9857V55.2963ZM55.7635 55.2963H62.245V61.7778H55.7635V55.2963ZM86.8746 55.2963H93.3561V61.7778H86.8746V55.2963ZM94.6524 55.2963H101.134V61.7778H94.6524V55.2963ZM47.9857 24.1852H54.4672V30.6667H47.9857V24.1852ZM63.5413 24.1852H70.0228V30.6667H63.5413V24.1852ZM71.3191 24.1852H77.8006V30.6667H71.3191V24.1852ZM79.0969 24.1852H85.5783V30.6667H79.0969V24.1852ZM94.6524 24.1852H101.134V30.6667H94.6524V24.1852ZM47.9857 16.4074H54.4672V22.8889H47.9857V16.4074ZM63.5413 16.4074H70.0228V22.8889H63.5413V16.4074ZM71.3191 16.4074H77.8006V22.8889H71.3191V16.4074ZM79.0969 16.4074H85.5783V22.8889H79.0969V16.4074ZM94.6524 16.4074H101.134V22.8889H94.6524V16.4074ZM47.9857 31.963H54.4672V38.4444H47.9857V31.963ZM63.5413 31.963H70.0228V38.4444H63.5413V31.963ZM71.3191 31.963H77.8006V38.4444H71.3191V31.963ZM79.0969 31.963H85.5783V38.4444H79.0969V31.963ZM94.6524 31.963H101.134V38.4444H94.6524V31.963ZM47.9857 8.62963H54.4672V15.1111H47.9857V8.62963ZM55.7635 8.62963H62.245V15.1111H55.7635V8.62963ZM86.8746 8.62963H93.3561V15.1111H86.8746V8.62963ZM94.6524 8.62963H101.134V15.1111H94.6524V8.62963ZM47.9857 0.851854H54.4672V7.33334H47.9857V0.851854ZM55.7635 0.851854H62.245V7.33334H55.7635V0.851854ZM63.5413 0.851854H70.0228V7.33334H63.5413V0.851854ZM71.3191 0.851854H77.8006V7.33334H71.3191V0.851854ZM79.0969 0.851854H85.5783V7.33334H79.0969V0.851854ZM86.8746 0.851854H93.3561V7.33334H86.8746V0.851854ZM94.6524 0.851854H101.134V7.33334H94.6524V0.851854ZM47.9857 63.0741H54.4672V69.5556H47.9857V63.0741ZM55.7635 63.0741H62.245V69.5556H55.7635V63.0741ZM63.5413 63.0741H70.0228V69.5556H63.5413V63.0741ZM71.3191 63.0741H77.8006V69.5556H71.3191V63.0741ZM79.0969 63.0741H85.5783V69.5556H79.0969V63.0741ZM86.8746 63.0741H93.3561V69.5556H86.8746V63.0741ZM94.6524 63.0741H101.134V69.5556H94.6524V63.0741ZM94.6752 47.5185H101.157V54H94.6752V47.5185ZM110.231 47.5185H116.712V54H110.231V47.5185ZM118.009 47.5185H124.49V54H118.009V47.5185ZM125.786 47.5185H132.268V54H125.786V47.5185ZM141.342 47.5185H147.823V54H141.342V47.5185ZM94.6752 39.7407H101.157V46.2222H94.6752V39.7407ZM110.231 39.7407H116.712V46.2222H110.231V39.7407ZM118.009 39.7407H124.49V46.2222H118.009V39.7407ZM141.342 39.7407H147.823V46.2222H141.342V39.7407ZM94.6752 55.2963H101.157V61.7778H94.6752V55.2963ZM110.231 55.2963H116.712V61.7778H110.231V55.2963ZM118.009 55.2963H124.49V61.7778H118.009V55.2963ZM125.786 55.2963H132.268V61.7778H125.786V55.2963ZM141.342 55.2963H147.823V61.7778H141.342V55.2963ZM94.6752 24.1852H101.157V30.6667H94.6752V24.1852ZM118.009 24.1852H124.49V30.6667H118.009V24.1852ZM125.786 24.1852H132.268V30.6667H125.786V24.1852ZM141.342 24.1852H147.823V30.6667H141.342V24.1852ZM94.6752 16.4074H101.157V22.8889H94.6752V16.4074ZM110.231 16.4074H116.712V22.8889H110.231V16.4074ZM118.009 16.4074H124.49V22.8889H118.009V16.4074ZM125.786 16.4074H132.268V22.8889H125.786V16.4074ZM141.342 16.4074H147.823V22.8889H141.342V16.4074ZM94.6752 31.963H101.157V38.4444H94.6752V31.963ZM110.231 31.963H116.712V38.4444H110.231V31.963ZM125.786 31.963H132.268V38.4444H125.786V31.963ZM141.342 31.963H147.823V38.4444H141.342V31.963ZM94.6752 8.62963H101.157V15.1111H94.6752V8.62963ZM110.231 8.62963H116.712V15.1111H110.231V8.62963ZM118.009 8.62963H124.49V15.1111H118.009V8.62963ZM125.786 8.62963H132.268V15.1111H125.786V8.62963ZM141.342 8.62963H147.823V15.1111H141.342V8.62963ZM94.6752 0.851854H101.157V7.33334H94.6752V0.851854ZM102.453 0.851854H108.934V7.33334H102.453V0.851854ZM110.231 0.851854H116.712V7.33334H110.231V0.851854ZM118.009 0.851854H124.49V7.33334H118.009V0.851854ZM125.786 0.851854H132.268V7.33334H125.786V0.851854ZM133.564 0.851854H140.046V7.33334H133.564V0.851854ZM141.342 0.851854H147.823V7.33334H141.342V0.851854ZM94.6752 63.0741H101.157V69.5556H94.6752V63.0741ZM102.453 63.0741H108.934V69.5556H102.453V63.0741ZM110.231 63.0741H116.712V69.5556H110.231V63.0741ZM118.009 63.0741H124.49V69.5556H118.009V63.0741ZM125.786 63.0741H132.268V69.5556H125.786V63.0741ZM133.564 63.0741H140.046V69.5556H133.564V63.0741ZM141.342 63.0741H147.823V69.5556H141.342V63.0741ZM141.365 47.5185H147.846V54H141.365V47.5185ZM156.92 47.5185H163.402V54H156.92V47.5185ZM164.698 47.5185H171.179V54H164.698V47.5185ZM172.476 47.5185H178.957V54H172.476V47.5185ZM188.031 47.5185H194.513V54H188.031V47.5185ZM141.365 39.7407H147.846V46.2222H141.365V39.7407ZM156.92 39.7407H163.402V46.2222H156.92V39.7407ZM164.698 39.7407H171.179V46.2222H164.698V39.7407ZM172.476 39.7407H178.957V46.2222H172.476V39.7407ZM188.031 39.7407H194.513V46.2222H188.031V39.7407ZM141.365 55.2963H147.846V61.7778H141.365V55.2963ZM149.142 55.2963H155.624V61.7778H149.142V55.2963ZM180.254 55.2963H186.735V61.7778H180.254V55.2963ZM188.031 55.2963H194.513V61.7778H188.031V55.2963ZM141.365 24.1852H147.846V30.6667H141.365V24.1852ZM156.92 24.1852H163.402V30.6667H156.92V24.1852ZM164.698 24.1852H171.179V30.6667H164.698V24.1852ZM172.476 24.1852H178.957V30.6667H172.476V24.1852ZM180.254 24.1852H186.735V30.6667H180.254V24.1852ZM188.031 24.1852H194.513V30.6667H188.031V24.1852ZM141.365 16.4074H147.846V22.8889H141.365V16.4074ZM156.92 16.4074H163.402V22.8889H156.92V16.4074ZM164.698 16.4074H171.179V22.8889H164.698V16.4074ZM172.476 16.4074H178.957V22.8889H172.476V16.4074ZM188.031 16.4074H194.513V22.8889H188.031V16.4074ZM141.365 31.963H147.846V38.4444H141.365V31.963ZM156.92 31.963H163.402V38.4444H156.92V31.963ZM188.031 31.963H194.513V38.4444H188.031V31.963ZM141.365 8.62963H147.846V15.1111H141.365V8.62963ZM149.142 8.62963H155.624V15.1111H149.142V8.62963ZM180.254 8.62963H186.735V15.1111H180.254V8.62963ZM188.031 8.62963H194.513V15.1111H188.031V8.62963ZM141.365 0.851854H147.846V7.33334H141.365V0.851854ZM149.142 0.851854H155.624V7.33334H149.142V0.851854ZM156.92 0.851854H163.402V7.33334H156.92V0.851854ZM164.698 0.851854H171.179V7.33334H164.698V0.851854ZM172.476 0.851854H178.957V7.33334H172.476V0.851854ZM180.254 0.851854H186.735V7.33334H180.254V0.851854ZM188.031 0.851854H194.513V7.33334H188.031V0.851854ZM141.365 63.0741H147.846V69.5556H141.365V63.0741ZM149.142 63.0741H155.624V69.5556H149.142V63.0741ZM156.92 63.0741H163.402V69.5556H156.92V63.0741ZM164.698 63.0741H171.179V69.5556H164.698V63.0741ZM172.476 63.0741H178.957V69.5556H172.476V63.0741ZM180.254 63.0741H186.735V69.5556H180.254V63.0741ZM188.031 63.0741H194.513V69.5556H188.031V63.0741ZM188.054 47.5185H194.536V54H188.054V47.5185ZM203.61 47.5185H210.091V54H203.61V47.5185ZM211.387 47.5185H217.869V54H211.387V47.5185ZM226.943 47.5185H233.424V54H226.943V47.5185ZM234.721 47.5185H241.202V54H234.721V47.5185ZM188.054 39.7407H194.536V46.2222H188.054V39.7407ZM203.61 39.7407H210.091V46.2222H203.61V39.7407ZM219.165 39.7407H225.647V46.2222H219.165V39.7407ZM226.943 39.7407H233.424V46.2222H226.943V39.7407ZM234.721 39.7407H241.202V46.2222H234.721V39.7407ZM188.054 55.2963H194.536V61.7778H188.054V55.2963ZM203.61 55.2963H210.091V61.7778H203.61V55.2963ZM211.387 55.2963H217.869V61.7778H211.387V55.2963ZM219.165 55.2963H225.647V61.7778H219.165V55.2963ZM234.721 55.2963H241.202V61.7778H234.721V55.2963ZM188.054 24.1852H194.536V30.6667H188.054V24.1852ZM203.61 24.1852H210.091V30.6667H203.61V24.1852ZM211.387 24.1852H217.869V30.6667H211.387V24.1852ZM219.165 24.1852H225.647V30.6667H219.165V24.1852ZM234.721 24.1852H241.202V30.6667H234.721V24.1852ZM188.054 16.4074H194.536V22.8889H188.054V16.4074ZM203.61 16.4074H210.091V22.8889H203.61V16.4074ZM211.387 16.4074H217.869V22.8889H211.387V16.4074ZM219.165 16.4074H225.647V22.8889H219.165V16.4074ZM234.721 16.4074H241.202V22.8889H234.721V16.4074ZM188.054 31.963H194.536V38.4444H188.054V31.963ZM226.943 31.963H233.424V38.4444H226.943V31.963ZM234.721 31.963H241.202V38.4444H234.721V31.963ZM188.054 8.62963H194.536V15.1111H188.054V8.62963ZM226.943 8.62963H233.424V15.1111H226.943V8.62963ZM234.721 8.62963H241.202V15.1111H234.721V8.62963ZM188.054 0.851854H194.536V7.33334H188.054V0.851854ZM195.832 0.851854H202.313V7.33334H195.832V0.851854ZM203.61 0.851854H210.091V7.33334H203.61V0.851854ZM211.387 0.851854H217.869V7.33334H211.387V0.851854ZM219.165 0.851854H225.647V7.33334H219.165V0.851854ZM226.943 0.851854H233.424V7.33334H226.943V0.851854ZM234.721 0.851854H241.202V7.33334H234.721V0.851854ZM188.054 63.0741H194.536V69.5556H188.054V63.0741ZM195.832 63.0741H202.313V69.5556H195.832V63.0741ZM203.61 63.0741H210.091V69.5556H203.61V63.0741ZM211.387 63.0741H217.869V69.5556H211.387V63.0741ZM219.165 63.0741H225.647V69.5556H219.165V63.0741ZM226.943 63.0741H233.424V69.5556H226.943V63.0741ZM234.721 63.0741H241.202V69.5556H234.721V63.0741ZM234.744 47.5185H241.225V54H234.744V47.5185ZM250.299 47.5185H256.781V54H250.299V47.5185ZM258.077 47.5185H264.558V54H258.077V47.5185ZM265.855 47.5185H272.336V54H265.855V47.5185ZM281.41 47.5185H287.892V54H281.41V47.5185ZM234.744 39.7407H241.225V46.2222H234.744V39.7407ZM250.299 39.7407H256.781V46.2222H250.299V39.7407ZM258.077 39.7407H264.558V46.2222H258.077V39.7407ZM265.855 39.7407H272.336V46.2222H265.855V39.7407ZM281.41 39.7407H287.892V46.2222H281.41V39.7407ZM234.744 55.2963H241.225V61.7778H234.744V55.2963ZM250.299 55.2963H256.781V61.7778H250.299V55.2963ZM258.077 55.2963H264.558V61.7778H258.077V55.2963ZM265.855 55.2963H272.336V61.7778H265.855V55.2963ZM281.41 55.2963H287.892V61.7778H281.41V55.2963ZM234.744 24.1852H241.225V30.6667H234.744V24.1852ZM250.299 24.1852H256.781V30.6667H250.299V24.1852ZM258.077 24.1852H264.558V30.6667H258.077V24.1852ZM265.855 24.1852H272.336V30.6667H265.855V24.1852ZM281.41 24.1852H287.892V30.6667H281.41V24.1852ZM234.744 16.4074H241.225V22.8889H234.744V16.4074ZM250.299 16.4074H256.781V22.8889H250.299V16.4074ZM258.077 16.4074H264.558V22.8889H258.077V16.4074ZM265.855 16.4074H272.336V22.8889H265.855V16.4074ZM281.41 16.4074H287.892V22.8889H281.41V16.4074ZM234.744 31.963H241.225V38.4444H234.744V31.963ZM281.41 31.963H287.892V38.4444H281.41V31.963ZM234.744 8.62963H241.225V15.1111H234.744V8.62963ZM242.521 8.62963H249.003V15.1111H242.521V8.62963ZM273.632 8.62963H280.114V15.1111H273.632V8.62963ZM281.41 8.62963H287.892V15.1111H281.41V8.62963ZM234.744 0.851854H241.225V7.33334H234.744V0.851854ZM242.521 0.851854H249.003V7.33334H242.521V0.851854ZM250.299 0.851854H256.781V7.33334H250.299V0.851854ZM258.077 0.851854H264.558V7.33334H258.077V0.851854ZM265.855 0.851854H272.336V7.33334H265.855V0.851854ZM273.632 0.851854H280.114V7.33334H273.632V0.851854ZM281.41 0.851854H287.892V7.33334H281.41V0.851854ZM234.744 63.0741H241.225V69.5556H234.744V63.0741ZM242.521 63.0741H249.003V69.5556H242.521V63.0741ZM250.299 63.0741H256.781V69.5556H250.299V63.0741ZM258.077 63.0741H264.558V69.5556H258.077V63.0741ZM265.855 63.0741H272.336V69.5556H265.855V63.0741ZM273.632 63.0741H280.114V69.5556H273.632V63.0741ZM281.41 63.0741H287.892V69.5556H281.41V63.0741ZM281.433 47.5185H287.914V54H281.433V47.5185ZM289.211 47.5185H295.692V54H289.211V47.5185ZM296.989 47.5185H303.47V54H296.989V47.5185ZM312.544 47.5185H319.026V54H312.544V47.5185ZM320.322 47.5185H326.803V54H320.322V47.5185ZM328.1 47.5185H334.581V54H328.1V47.5185ZM281.433 39.7407H287.914V46.2222H281.433V39.7407ZM289.211 39.7407H295.692V46.2222H289.211V39.7407ZM296.989 39.7407H303.47V46.2222H296.989V39.7407ZM312.544 39.7407H319.026V46.2222H312.544V39.7407ZM320.322 39.7407H326.803V46.2222H320.322V39.7407ZM328.1 39.7407H334.581V46.2222H328.1V39.7407ZM281.433 55.2963H287.914V61.7778H281.433V55.2963ZM289.211 55.2963H295.692V61.7778H289.211V55.2963ZM296.989 55.2963H303.47V61.7778H296.989V55.2963ZM312.544 55.2963H319.026V61.7778H312.544V55.2963ZM320.322 55.2963H326.803V61.7778H320.322V55.2963ZM328.1 55.2963H334.581V61.7778H328.1V55.2963ZM281.433 24.1852H287.914V30.6667H281.433V24.1852ZM289.211 24.1852H295.692V30.6667H289.211V24.1852ZM296.989 24.1852H303.47V30.6667H296.989V24.1852ZM312.544 24.1852H319.026V30.6667H312.544V24.1852ZM320.322 24.1852H326.803V30.6667H320.322V24.1852ZM328.1 24.1852H334.581V30.6667H328.1V24.1852ZM281.433 16.4074H287.914V22.8889H281.433V16.4074ZM289.211 16.4074H295.692V22.8889H289.211V16.4074ZM296.989 16.4074H303.47V22.8889H296.989V16.4074ZM312.544 16.4074H319.026V22.8889H312.544V16.4074ZM320.322 16.4074H326.803V22.8889H320.322V16.4074ZM328.1 16.4074H334.581V22.8889H328.1V16.4074ZM281.433 31.963H287.914V38.4444H281.433V31.963ZM289.211 31.963H295.692V38.4444H289.211V31.963ZM296.989 31.963H303.47V38.4444H296.989V31.963ZM312.544 31.963H319.026V38.4444H312.544V31.963ZM320.322 31.963H326.803V38.4444H320.322V31.963ZM328.1 31.963H334.581V38.4444H328.1V31.963ZM281.433 8.62963H287.914V15.1111H281.433V8.62963ZM328.1 8.62963H334.581V15.1111H328.1V8.62963ZM281.433 0.851854H287.914V7.33334H281.433V0.851854ZM289.211 0.851854H295.692V7.33334H289.211V0.851854ZM296.989 0.851854H303.47V7.33334H296.989V0.851854ZM304.766 0.851854H311.248V7.33334H304.766V0.851854ZM312.544 0.851854H319.026V7.33334H312.544V0.851854ZM320.322 0.851854H326.803V7.33334H320.322V0.851854ZM328.1 0.851854H334.581V7.33334H328.1V0.851854ZM281.433 63.0741H287.914V69.5556H281.433V63.0741ZM289.211 63.0741H295.692V69.5556H289.211V63.0741ZM296.989 63.0741H303.47V69.5556H296.989V63.0741ZM304.766 63.0741H311.248V69.5556H304.766V63.0741ZM312.544 63.0741H319.026V69.5556H312.544V63.0741ZM320.322 63.0741H326.803V69.5556H320.322V63.0741ZM328.1 63.0741H334.581V69.5556H328.1V63.0741ZM328.122 47.5185H334.604V54H328.122V47.5185ZM335.9 47.5185H342.382V54H335.9V47.5185ZM343.678 47.5185H350.16V54H343.678V47.5185ZM351.456 47.5185H357.937V54H351.456V47.5185ZM359.234 47.5185H365.715V54H359.234V47.5185ZM374.789 47.5185H381.271V54H374.789V47.5185ZM328.122 39.7407H334.604V46.2222H328.122V39.7407ZM335.9 39.7407H342.382V46.2222H335.9V39.7407ZM343.678 39.7407H350.16V46.2222H343.678V39.7407ZM351.456 39.7407H357.937V46.2222H351.456V39.7407ZM359.234 39.7407H365.715V46.2222H359.234V39.7407ZM374.789 39.7407H381.271V46.2222H374.789V39.7407ZM328.122 55.2963H334.604V61.7778H328.122V55.2963ZM367.011 55.2963H373.493V61.7778H367.011V55.2963ZM374.789 55.2963H381.271V61.7778H374.789V55.2963ZM328.122 24.1852H334.604V30.6667H328.122V24.1852ZM343.678 24.1852H350.16V30.6667H343.678V24.1852ZM351.456 24.1852H357.937V30.6667H351.456V24.1852ZM359.234 24.1852H365.715V30.6667H359.234V24.1852ZM367.011 24.1852H373.493V30.6667H367.011V24.1852ZM374.789 24.1852H381.271V30.6667H374.789V24.1852ZM328.122 16.4074H334.604V22.8889H328.122V16.4074ZM343.678 16.4074H350.16V22.8889H343.678V16.4074ZM351.456 16.4074H357.937V22.8889H351.456V16.4074ZM359.234 16.4074H365.715V22.8889H359.234V16.4074ZM367.011 16.4074H373.493V22.8889H367.011V16.4074ZM374.789 16.4074H381.271V22.8889H374.789V16.4074ZM328.122 31.963H334.604V38.4444H328.122V31.963ZM335.9 31.963H342.382V38.4444H335.9V31.963ZM367.011 31.963H373.493V38.4444H367.011V31.963ZM374.789 31.963H381.271V38.4444H374.789V31.963ZM328.122 8.62963H334.604V15.1111H328.122V8.62963ZM335.9 8.62963H342.382V15.1111H335.9V8.62963ZM374.789 8.62963H381.271V15.1111H374.789V8.62963ZM328.122 0.851854H334.604V7.33334H328.122V0.851854ZM335.9 0.851854H342.382V7.33334H335.9V0.851854ZM343.678 0.851854H350.16V7.33334H343.678V0.851854ZM351.456 0.851854H357.937V7.33334H351.456V0.851854ZM359.234 0.851854H365.715V7.33334H359.234V0.851854ZM367.011 0.851854H373.493V7.33334H367.011V0.851854ZM374.789 0.851854H381.271V7.33334H374.789V0.851854ZM328.122 63.0741H334.604V69.5556H328.122V63.0741ZM335.9 63.0741H342.382V69.5556H335.9V63.0741ZM343.678 63.0741H350.16V69.5556H343.678V63.0741ZM351.456 63.0741H357.937V69.5556H351.456V63.0741ZM359.234 63.0741H365.715V69.5556H359.234V63.0741ZM367.011 63.0741H373.493V69.5556H367.011V63.0741ZM374.789 63.0741H381.271V69.5556H374.789V63.0741Z" fill="black"/>
</svg>
