<svg xmlns="http://www.w3.org/2000/svg" fill="none" viewBox="0 0 366.81605351170566 69.36" style="max-height: 500px" width="366.81605351170566" height="69.36">
<rect fill="#EE5757" height="69" width="366" y="1"/>
<path fill="black" d="M1.2963 47.5185H7.77778V54H1.2963V47.5185ZM9.07407 47.5185H15.5556V54H9.07407V47.5185ZM16.8519 47.5185H23.3333V54H16.8519V47.5185ZM24.6296 47.5185H31.1111V54H24.6296V47.5185ZM32.4074 47.5185H38.8889V54H32.4074V47.5185ZM40.1852 47.5185H46.6667V54H40.1852V47.5185ZM1.2963 39.7407H7.77778V46.2222H1.2963V39.7407ZM9.07407 39.7407H15.5556V46.2222H9.07407V39.7407ZM16.8519 39.7407H23.3333V46.2222H16.8519V39.7407ZM24.6296 39.7407H31.1111V46.2222H24.6296V39.7407ZM32.4074 39.7407H38.8889V46.2222H32.4074V39.7407ZM40.1852 39.7407H46.6667V46.2222H40.1852V39.7407ZM1.2963 55.2963H7.77778V61.7778H1.2963V55.2963ZM9.07407 55.2963H15.5556V61.7778H9.07407V55.2963ZM16.8519 55.2963H23.3333V61.7778H16.8519V55.2963ZM24.6296 55.2963H31.1111V61.7778H24.6296V55.2963ZM32.4074 55.2963H38.8889V61.7778H32.4074V55.2963ZM40.1852 55.2963H46.6667V61.7778H40.1852V55.2963ZM1.2963 24.1852H7.77778V30.6667H1.2963V24.1852ZM9.07407 24.1852H15.5556V30.6667H9.07407V24.1852ZM16.8519 24.1852H23.3333V30.6667H16.8519V24.1852ZM24.6296 24.1852H31.1111V30.6667H24.6296V24.1852ZM32.4074 24.1852H38.8889V30.6667H32.4074V24.1852ZM40.1852 24.1852H46.6667V30.6667H40.1852V24.1852ZM1.2963 16.4074H7.77778V22.8889H1.2963V16.4074ZM9.07407 16.4074H15.5556V22.8889H9.07407V16.4074ZM16.8519 16.4074H23.3333V22.8889H16.8519V16.4074ZM24.6296 16.4074H31.1111V22.8889H24.6296V16.4074ZM32.4074 16.4074H38.8889V22.8889H32.4074V16.4074ZM40.1852 16.4074H46.6667V22.8889H40.1852V16.4074ZM1.2963 31.963H7.77778V38.4444H1.2963V31.963ZM9.07407 31.963H15.5556V38.4444H9.07407V31.963ZM16.8519 31.963H23.3333V38.4444H16.8519V31.963ZM24.6296 31.963H31.1111V38.4444H24.6296V31.963ZM32.4074 31.963H38.8889V38.4444H32.4074V31.963ZM40.1852 31.963H46.6667V38.4444H40.1852V31.963ZM1.2963 8.62963H7.77778V15.1111H1.2963V8.62963ZM9.07407 8.62963H15.5556V15.1111H9.07407V8.62963ZM16.8519 8.62963H23.3333V15.1111H16.8519V8.62963ZM24.6296 8.62963H31.1111V15.1111H24.6296V8.62963ZM32.4074 8.62963H38.8889V15.1111H32.4074V8.62963ZM40.1852 8.62963H46.6667V15.1111H40.1852V8.62963ZM1.2963 0.851854H7.77778V7.33334H1.2963V0.851854ZM9.07407 0.851854H15.5556V7.33334H9.07407V0.851854ZM16.8519 0.851854H23.3333V7.33334H16.8519V0.851854ZM24.6296 0.851854H31.1111V7.33334H24.6296V0.851854ZM32.4074 0.851854H38.8889V7.33334H32.4074V0.851854ZM40.1852 0.851854H46.6667V7.33334H40.1852V0.851854ZM1.2963 63.0741H7.77778V69.5556H1.2963V63.0741ZM9.07407 63.0741H15.5556V69.5556H9.07407V63.0741ZM16.8519 63.0741H23.3333V69.5556H16.8519V63.0741ZM24.6296 63.0741H31.1111V69.5556H24.6296V63.0741ZM32.4074 63.0741H38.8889V69.5556H32.4074V63.0741ZM40.1852 63.0741H46.6667V69.5556H40.1852V63.0741ZM47.9857 47.5185H54.4672V54H47.9857V47.5185ZM63.5413 47.5185H70.0228V54H63.5413V47.5185ZM71.3191 47.5185H77.8006V54H71.3191V47.5185ZM79.0969 47.5185H85.5783V54H79.0969V47.5185ZM94.6524 47.5185H101.134V54H94.6524V47.5185ZM47.9857 39.7407H54.4672V46.2222H47.9857V39.7407ZM63.5413 39.7407H70.0228V46.2222H63.5413V39.7407ZM71.3191 39.7407H77.8006V46.2222H71.3191V39.7407ZM79.0969 39.7407H85.5783V46.2222H79.0969V39.7407ZM94.6524 39.7407H101.134V46.2222H94.6524V39.7407ZM47.9857 55.2963H54.4672V61.7778H47.9857V55.2963ZM86.8746 55.2963H93.3561V61.7778H86.8746V55.2963ZM94.6524 55.2963H101.134V61.7778H94.6524V55.2963ZM47.9857 24.1852H54.4672V30.6667H47.9857V24.1852ZM63.5413 24.1852H70.0228V30.6667H63.5413V24.1852ZM71.3191 24.1852H77.8006V30.6667H71.3191V24.1852ZM79.0969 24.1852H85.5783V30.6667H79.0969V24.1852ZM94.6524 24.1852H101.134V30.6667H94.6524V24.1852ZM47.9857 16.4074H54.4672V22.8889H47.9857V16.4074ZM63.5413 16.4074H70.0228V22.8889H63.5413V16.4074ZM71.3191 16.4074H77.8006V22.8889H71.3191V16.4074ZM79.0969 16.4074H85.5783V22.8889H79.0969V16.4074ZM94.6524 16.4074H101.134V22.8889H94.6524V16.4074ZM47.9857 31.963H54.4672V38.4444H47.9857V31.963ZM63.5413 31.963H70.0228V38.4444H63.5413V31.963ZM71.3191 31.963H77.8006V38.4444H71.3191V31.963ZM79.0969 31.963H85.5783V38.4444H79.0969V31.963ZM94.6524 31.963H101.134V38.4444H94.6524V31.963ZM47.9857 8.62963H54.4672V15.1111H47.9857V8.62963ZM86.8746 8.62963H93.3561V15.1111H86.8746V8.62963ZM94.6524 8.62963H101.134V15.1111H94.6524V8.62963ZM47.9857 0.851854H54.4672V7.33334H47.9857V0.851854ZM55.7635 0.851854H62.245V7.33334H55.7635V0.851854ZM63.5413 0.851854H70.0228V7.33334H63.5413V0.851854ZM71.3191 0.851854H77.8006V7.33334H71.3191V0.851854ZM79.0969 0.851854H85.5783V7.33334H79.0969V0.851854ZM86.8746 0.851854H93.3561V7.33334H86.8746V0.851854ZM94.6524 0.851854H101.134V7.33334H94.6524V0.851854ZM47.9857 63.0741H54.4672V69.5556H47.9857V63.0741ZM55.7635 63.0741H62.245V69.5556H55.7635V63.0741ZM63.5413 63.0741H70.0228V69.5556H63.5413V63.0741ZM71.3191 63.0741H77.8006V69.5556H71.3191V63.0741ZM79.0969 63.0741H85.5783V69.5556H79.0969V63.0741ZM86.8746 63.0741H93.3561V69.5556H86.8746V63.0741ZM94.6524 63.0741H101.134V69.5556H94.6524V63.0741ZM94.6752 47.5185H101.157V54H94.6752V47.5185ZM110.231 47.5185H116.712V54H110.231V47.5185ZM118.009 47.5185H124.49V54H118.009V47.5185ZM125.786 47.5185H132.268V54H125.786V47.5185ZM133.564 47.5185H140.046V54H133.564V47.5185ZM141.342 47.5185H147.823V54H141.342V47.5185ZM94.6752 39.7407H101.157V46.2222H94.6752V39.7407ZM110.231 39.7407H116.712V46.2222H110.231V39.7407ZM118.009 39.7407H124.49V46.2222H118.009V39.7407ZM125.786 39.7407H132.268V46.2222H125.786V39.7407ZM133.564 39.7407H140.046V46.2222H133.564V39.7407ZM141.342 39.7407H147.823V46.2222H141.342V39.7407ZM94.6752 55.2963H101.157V61.7778H94.6752V55.2963ZM141.342 55.2963H147.823V61.7778H141.342V55.2963ZM94.6752 24.1852H101.157V30.6667H94.6752V24.1852ZM110.231 24.1852H116.712V30.6667H110.231V24.1852ZM118.009 24.1852H124.49V30.6667H118.009V24.1852ZM125.786 24.1852H132.268V30.6667H125.786V24.1852ZM133.564 24.1852H140.046V30.6667H133.564V24.1852ZM141.342 24.1852H147.823V30.6667H141.342V24.1852ZM94.6752 16.4074H101.157V22.8889H94.6752V16.4074ZM110.231 16.4074H116.712V22.8889H110.231V16.4074ZM118.009 16.4074H124.49V22.8889H118.009V16.4074ZM125.786 16.4074H132.268V22.8889H125.786V16.4074ZM133.564 16.4074H140.046V22.8889H133.564V16.4074ZM141.342 16.4074H147.823V22.8889H141.342V16.4074ZM94.6752 31.963H101.157V38.4444H94.6752V31.963ZM133.564 31.963H140.046V38.4444H133.564V31.963ZM141.342 31.963H147.823V38.4444H141.342V31.963ZM94.6752 8.62963H101.157V15.1111H94.6752V8.62963ZM141.342 8.62963H147.823V15.1111H141.342V8.62963ZM94.6752 0.851854H101.157V7.33334H94.6752V0.851854ZM102.453 0.851854H108.934V7.33334H102.453V0.851854ZM110.231 0.851854H116.712V7.33334H110.231V0.851854ZM118.009 0.851854H124.49V7.33334H118.009V0.851854ZM125.786 0.851854H132.268V7.33334H125.786V0.851854ZM133.564 0.851854H140.046V7.33334H133.564V0.851854ZM141.342 0.851854H147.823V7.33334H141.342V0.851854ZM94.6752 63.0741H101.157V69.5556H94.6752V63.0741ZM102.453 63.0741H108.934V69.5556H102.453V63.0741ZM110.231 63.0741H116.712V69.5556H110.231V63.0741ZM118.009 63.0741H124.49V69.5556H118.009V63.0741ZM125.786 63.0741H132.268V69.5556H125.786V63.0741ZM133.564 63.0741H140.046V69.5556H133.564V63.0741ZM141.342 63.0741H147.823V69.5556H141.342V63.0741ZM141.365 47.5185H147.846V54H141.365V47.5185ZM156.92 47.5185H163.402V54H156.92V47.5185ZM164.698 47.5185H171.179V54H164.698V47.5185ZM172.476 47.5185H178.957V54H172.476V47.5185ZM180.254 47.5185H186.735V54H180.254V47.5185ZM141.365 39.7407H147.846V46.2222H141.365V39.7407ZM156.92 39.7407H163.402V46.2222H156.92V39.7407ZM164.698 39.7407H171.179V46.2222H164.698V39.7407ZM172.476 39.7407H178.957V46.2222H172.476V39.7407ZM180.254 39.7407H186.735V46.2222H180.254V39.7407ZM141.365 55.2963H147.846V61.7778H141.365V55.2963ZM180.254 55.2963H186.735V61.7778H180.254V55.2963ZM141.365 24.1852H147.846V30.6667H141.365V24.1852ZM156.92 24.1852H163.402V30.6667H156.92V24.1852ZM164.698 24.1852H171.179V30.6667H164.698V24.1852ZM172.476 24.1852H178.957V30.6667H172.476V24.1852ZM180.254 24.1852H186.735V30.6667H180.254V24.1852ZM141.365 16.4074H147.846V22.8889H141.365V16.4074ZM156.92 16.4074H163.402V22.8889H156.92V16.4074ZM164.698 16.4074H171.179V22.8889H164.698V16.4074ZM172.476 16.4074H178.957V22.8889H172.476V16.4074ZM180.254 16.4074H186.735V22.8889H180.254V16.4074ZM141.365 31.963H147.846V38.4444H141.365V31.963ZM156.92 31.963H163.402V38.4444H156.92V31.963ZM164.698 31.963H171.179V38.4444H164.698V31.963ZM172.476 31.963H178.957V38.4444H172.476V31.963ZM180.254 31.963H186.735V38.4444H180.254V31.963ZM141.365 8.62963H147.846V15.1111H141.365V8.62963ZM156.92 8.62963H163.402V15.1111H156.92V8.62963ZM164.698 8.62963H171.179V15.1111H164.698V8.62963ZM172.476 8.62963H178.957V15.1111H172.476V8.62963ZM180.254 8.62963H186.735V15.1111H180.254V8.62963ZM141.365 0.851854H147.846V7.33334H141.365V0.851854ZM149.142 0.851854H155.624V7.33334H149.142V0.851854ZM156.92 0.851854H163.402V7.33334H156.92V0.851854ZM164.698 0.851854H171.179V7.33334H164.698V0.851854ZM172.476 0.851854H178.957V7.33334H172.476V0.851854ZM180.254 0.851854H186.735V7.33334H180.254V0.851854ZM141.365 63.0741H147.846V69.5556H141.365V63.0741ZM149.142 63.0741H155.624V69.5556H149.142V63.0741ZM156.92 63.0741H163.402V69.5556H156.92V63.0741ZM164.698 63.0741H171.179V69.5556H164.698V63.0741ZM172.476 63.0741H178.957V69.5556H172.476V63.0741ZM180.254 63.0741H186.735V69.5556H180.254V63.0741ZM180.261 47.5185H186.743V54H180.261V47.5185ZM195.817 47.5185H202.298V54H195.817V47.5185ZM203.594 47.5185H210.076V54H203.594V47.5185ZM211.372 47.5185H217.854V54H211.372V47.5185ZM219.15 47.5185H225.632V54H219.15V47.5185ZM226.928 47.5185H233.409V54H226.928V47.5185ZM180.261 39.7407H186.743V46.2222H180.261V39.7407ZM195.817 39.7407H202.298V46.2222H195.817V39.7407ZM203.594 39.7407H210.076V46.2222H203.594V39.7407ZM211.372 39.7407H217.854V46.2222H211.372V39.7407ZM219.15 39.7407H225.632V46.2222H219.15V39.7407ZM226.928 39.7407H233.409V46.2222H226.928V39.7407ZM180.261 55.2963H186.743V61.7778H180.261V55.2963ZM226.928 55.2963H233.409V61.7778H226.928V55.2963ZM180.261 24.1852H186.743V30.6667H180.261V24.1852ZM195.817 24.1852H202.298V30.6667H195.817V24.1852ZM203.594 24.1852H210.076V30.6667H203.594V24.1852ZM211.372 24.1852H217.854V30.6667H211.372V24.1852ZM219.15 24.1852H225.632V30.6667H219.15V24.1852ZM226.928 24.1852H233.409V30.6667H226.928V24.1852ZM180.261 16.4074H186.743V22.8889H180.261V16.4074ZM195.817 16.4074H202.298V22.8889H195.817V16.4074ZM203.594 16.4074H210.076V22.8889H203.594V16.4074ZM211.372 16.4074H217.854V22.8889H211.372V16.4074ZM219.15 16.4074H225.632V22.8889H219.15V16.4074ZM226.928 16.4074H233.409V22.8889H226.928V16.4074ZM180.261 31.963H186.743V38.4444H180.261V31.963ZM219.15 31.963H225.632V38.4444H219.15V31.963ZM226.928 31.963H233.409V38.4444H226.928V31.963ZM180.261 8.62963H186.743V15.1111H180.261V8.62963ZM226.928 8.62963H233.409V15.1111H226.928V8.62963ZM180.261 0.851854H186.743V7.33334H180.261V0.851854ZM188.039 0.851854H194.52V7.33334H188.039V0.851854ZM195.817 0.851854H202.298V7.33334H195.817V0.851854ZM203.594 0.851854H210.076V7.33334H203.594V0.851854ZM211.372 0.851854H217.854V7.33334H211.372V0.851854ZM219.15 0.851854H225.632V7.33334H219.15V0.851854ZM226.928 0.851854H233.409V7.33334H226.928V0.851854ZM180.261 63.0741H186.743V69.5556H180.261V63.0741ZM188.039 63.0741H194.52V69.5556H188.039V63.0741ZM195.817 63.0741H202.298V69.5556H195.817V63.0741ZM203.594 63.0741H210.076V69.5556H203.594V63.0741ZM211.372 63.0741H217.854V69.5556H211.372V63.0741ZM219.15 63.0741H225.632V69.5556H219.15V63.0741ZM226.928 63.0741H233.409V69.5556H226.928V63.0741ZM226.951 47.5185H233.432V54H226.951V47.5185ZM234.728 47.5185H241.21V54H234.728V47.5185ZM242.506 47.5185H248.988V54H242.506V47.5185ZM258.062 47.5185H264.543V54H258.062V47.5185ZM265.839 47.5185H272.321V54H265.839V47.5185ZM273.617 47.5185H280.099V54H273.617V47.5185ZM226.951 39.7407H233.432V46.2222H226.951V39.7407ZM234.728 39.7407H241.21V46.2222H234.728V39.7407ZM242.506 39.7407H248.988V46.2222H242.506V39.7407ZM258.062 39.7407H264.543V46.2222H258.062V39.7407ZM265.839 39.7407H272.321V46.2222H265.839V39.7407ZM273.617 39.7407H280.099V46.2222H273.617V39.7407ZM226.951 55.2963H233.432V61.7778H226.951V55.2963ZM234.728 55.2963H241.21V61.7778H234.728V55.2963ZM242.506 55.2963H248.988V61.7778H242.506V55.2963ZM258.062 55.2963H264.543V61.7778H258.062V55.2963ZM265.839 55.2963H272.321V61.7778H265.839V55.2963ZM273.617 55.2963H280.099V61.7778H273.617V55.2963ZM226.951 24.1852H233.432V30.6667H226.951V24.1852ZM234.728 24.1852H241.21V30.6667H234.728V24.1852ZM242.506 24.1852H248.988V30.6667H242.506V24.1852ZM258.062 24.1852H264.543V30.6667H258.062V24.1852ZM265.839 24.1852H272.321V30.6667H265.839V24.1852ZM273.617 24.1852H280.099V30.6667H273.617V24.1852ZM226.951 16.4074H233.432V22.8889H226.951V16.4074ZM234.728 16.4074H241.21V22.8889H234.728V16.4074ZM242.506 16.4074H248.988V22.8889H242.506V16.4074ZM258.062 16.4074H264.543V22.8889H258.062V16.4074ZM265.839 16.4074H272.321V22.8889H265.839V16.4074ZM273.617 16.4074H280.099V22.8889H273.617V16.4074ZM226.951 31.963H233.432V38.4444H226.951V31.963ZM234.728 31.963H241.21V38.4444H234.728V31.963ZM242.506 31.963H248.988V38.4444H242.506V31.963ZM258.062 31.963H264.543V38.4444H258.062V31.963ZM265.839 31.963H272.321V38.4444H265.839V31.963ZM273.617 31.963H280.099V38.4444H273.617V31.963ZM226.951 8.62963H233.432V15.1111H226.951V8.62963ZM273.617 8.62963H280.099V15.1111H273.617V8.62963ZM226.951 0.851854H233.432V7.33334H226.951V0.851854ZM234.728 0.851854H241.21V7.33334H234.728V0.851854ZM242.506 0.851854H248.988V7.33334H242.506V0.851854ZM250.284 0.851854H256.765V7.33334H250.284V0.851854ZM258.062 0.851854H264.543V7.33334H258.062V0.851854ZM265.839 0.851854H272.321V7.33334H265.839V0.851854ZM273.617 0.851854H280.099V7.33334H273.617V0.851854ZM226.951 63.0741H233.432V69.5556H226.951V63.0741ZM234.728 63.0741H241.21V69.5556H234.728V63.0741ZM242.506 63.0741H248.988V69.5556H242.506V63.0741ZM250.284 63.0741H256.765V69.5556H250.284V63.0741ZM258.062 63.0741H264.543V69.5556H258.062V63.0741ZM265.839 63.0741H272.321V69.5556H265.839V63.0741ZM273.617 63.0741H280.099V69.5556H273.617V63.0741ZM273.64 47.5185H280.122V54H273.64V47.5185ZM289.196 47.5185H295.677V54H289.196V47.5185ZM296.973 47.5185H303.455V54H296.973V47.5185ZM304.751 47.5185H311.233V54H304.751V47.5185ZM312.529 47.5185H319.01V54H312.529V47.5185ZM320.307 47.5185H326.788V54H320.307V47.5185ZM273.64 39.7407H280.122V46.2222H273.64V39.7407ZM289.196 39.7407H295.677V46.2222H289.196V39.7407ZM296.973 39.7407H303.455V46.2222H296.973V39.7407ZM304.751 39.7407H311.233V46.2222H304.751V39.7407ZM312.529 39.7407H319.01V46.2222H312.529V39.7407ZM320.307 39.7407H326.788V46.2222H320.307V39.7407ZM273.64 55.2963H280.122V61.7778H273.64V55.2963ZM320.307 55.2963H326.788V61.7778H320.307V55.2963ZM273.64 24.1852H280.122V30.6667H273.64V24.1852ZM289.196 24.1852H295.677V30.6667H289.196V24.1852ZM296.973 24.1852H303.455V30.6667H296.973V24.1852ZM304.751 24.1852H311.233V30.6667H304.751V24.1852ZM312.529 24.1852H319.01V30.6667H312.529V24.1852ZM320.307 24.1852H326.788V30.6667H320.307V24.1852ZM273.64 16.4074H280.122V22.8889H273.64V16.4074ZM289.196 16.4074H295.677V22.8889H289.196V16.4074ZM296.973 16.4074H303.455V22.8889H296.973V16.4074ZM304.751 16.4074H311.233V22.8889H304.751V16.4074ZM312.529 16.4074H319.01V22.8889H312.529V16.4074ZM320.307 16.4074H326.788V22.8889H320.307V16.4074ZM273.64 31.963H280.122V38.4444H273.64V31.963ZM312.529 31.963H319.01V38.4444H312.529V31.963ZM320.307 31.963H326.788V38.4444H320.307V31.963ZM273.64 8.62963H280.122V15.1111H273.64V8.62963ZM320.307 8.62963H326.788V15.1111H320.307V8.62963ZM273.64 0.851854H280.122V7.33334H273.64V0.851854ZM281.418 0.851854H287.899V7.33334H281.418V0.851854ZM289.196 0.851854H295.677V7.33334H289.196V0.851854ZM296.973 0.851854H303.455V7.33334H296.973V0.851854ZM304.751 0.851854H311.233V7.33334H304.751V0.851854ZM312.529 0.851854H319.01V7.33334H312.529V0.851854ZM320.307 0.851854H326.788V7.33334H320.307V0.851854ZM273.64 63.0741H280.122V69.5556H273.64V63.0741ZM281.418 63.0741H287.899V69.5556H281.418V63.0741ZM289.196 63.0741H295.677V69.5556H289.196V63.0741ZM296.973 63.0741H303.455V69.5556H296.973V63.0741ZM304.751 63.0741H311.233V69.5556H304.751V63.0741ZM312.529 63.0741H319.01V69.5556H312.529V63.0741ZM320.307 63.0741H326.788V69.5556H320.307V63.0741ZM320.329 47.5185H326.811V54H320.329V47.5185ZM328.107 47.5185H334.589V54H328.107V47.5185ZM335.885 47.5185H342.367V54H335.885V47.5185ZM343.663 47.5185H350.144V54H343.663V47.5185ZM351.441 47.5185H357.922V54H351.441V47.5185ZM359.218 47.5185H365.7V54H359.218V47.5185ZM320.329 39.7407H326.811V46.2222H320.329V39.7407ZM328.107 39.7407H334.589V46.2222H328.107V39.7407ZM335.885 39.7407H342.367V46.2222H335.885V39.7407ZM343.663 39.7407H350.144V46.2222H343.663V39.7407ZM351.441 39.7407H357.922V46.2222H351.441V39.7407ZM359.218 39.7407H365.7V46.2222H359.218V39.7407ZM320.329 55.2963H326.811V61.7778H320.329V55.2963ZM328.107 55.2963H334.589V61.7778H328.107V55.2963ZM335.885 55.2963H342.367V61.7778H335.885V55.2963ZM343.663 55.2963H350.144V61.7778H343.663V55.2963ZM351.441 55.2963H357.922V61.7778H351.441V55.2963ZM359.218 55.2963H365.7V61.7778H359.218V55.2963ZM320.329 24.1852H326.811V30.6667H320.329V24.1852ZM328.107 24.1852H334.589V30.6667H328.107V24.1852ZM335.885 24.1852H342.367V30.6667H335.885V24.1852ZM343.663 24.1852H350.144V30.6667H343.663V24.1852ZM351.441 24.1852H357.922V30.6667H351.441V24.1852ZM359.218 24.1852H365.7V30.6667H359.218V24.1852ZM320.329 16.4074H326.811V22.8889H320.329V16.4074ZM328.107 16.4074H334.589V22.8889H328.107V16.4074ZM335.885 16.4074H342.367V22.8889H335.885V16.4074ZM343.663 16.4074H350.144V22.8889H343.663V16.4074ZM351.441 16.4074H357.922V22.8889H351.441V16.4074ZM359.218 16.4074H365.7V22.8889H359.218V16.4074ZM320.329 31.963H326.811V38.4444H320.329V31.963ZM328.107 31.963H334.589V38.4444H328.107V31.963ZM335.885 31.963H342.367V38.4444H335.885V31.963ZM343.663 31.963H350.144V38.4444H343.663V31.963ZM351.441 31.963H357.922V38.4444H351.441V31.963ZM359.218 31.963H365.7V38.4444H359.218V31.963ZM320.329 8.62963H326.811V15.1111H320.329V8.62963ZM328.107 8.62963H334.589V15.1111H328.107V8.62963ZM335.885 8.62963H342.367V15.1111H335.885V8.62963ZM343.663 8.62963H350.144V15.1111H343.663V8.62963ZM351.441 8.62963H357.922V15.1111H351.441V8.62963ZM359.218 8.62963H365.7V15.1111H359.218V8.62963ZM320.329 0.851854H326.811V7.33334H320.329V0.851854ZM328.107 0.851854H334.589V7.33334H328.107V0.851854ZM335.885 0.851854H342.367V7.33334H335.885V0.851854ZM343.663 0.851854H350.144V7.33334H343.663V0.851854ZM351.441 0.851854H357.922V7.33334H351.441V0.851854ZM359.218 0.851854H365.7V7.33334H359.218V0.851854ZM320.329 63.0741H326.811V69.5556H320.329V63.0741ZM328.107 63.0741H334.589V69.5556H328.107V63.0741ZM335.885 63.0741H342.367V69.5556H335.885V63.0741ZM343.663 63.0741H350.144V69.5556H343.663V63.0741ZM351.441 63.0741H357.922V69.5556H351.441V63.0741ZM359.218 63.0741H365.7V69.5556H359.218V63.0741Z"/>
<path fill="#9D9D9D" d="M161.8 200C161.8 197.725 161.8 195.45 162.025 193.175C158.875 188.8 156.15 184.725 153.35 180.5H156.9C159.275 183.975 161.2 186.8 163.225 190.775H163.675C165.675 186.775 167.825 183.7 170 180.5H173.55C170.425 185.15 167.75 189.175 164.875 193.15C165.1 195.425 165.1 197.7 165.1 200H161.8ZM176.674 200V180.5H191.674V183.4C187.974 183.4 184.274 183.45 179.924 182.9L179.499 183.15C179.974 185.05 179.999 186.825 179.599 188.95L179.899 189.225C184.024 188.55 187.524 188.55 191.074 188.55V191.575C187.524 191.575 184.024 191.575 179.899 190.875L179.599 191.125C179.974 193.325 179.999 195.25 179.524 197.225L179.924 197.6C184.349 197.075 188.149 197.075 191.974 197.075V200H176.674ZM203.529 200.425C199.479 200.425 195.729 198.55 194.504 194.675L197.579 193.65C198.529 196.525 200.954 197.55 203.504 197.55C205.829 197.55 208.254 196.65 208.254 194.75C208.254 192.8 205.804 192.3 203.779 191.775L201.654 191.225C199.429 190.675 195.304 189.4 195.304 185.7C195.304 182.175 199.004 180.1 203.154 180.1C207.204 180.1 210.179 182.125 211.079 184.675L208.054 185.85C207.279 184.075 205.504 182.95 203.004 182.95C200.604 182.95 198.754 183.975 198.754 185.45C198.754 187.35 201.754 188.125 203.279 188.525L205.654 189.15C208.004 189.775 211.804 190.7 211.804 194.35C211.804 197.875 208.279 200.425 203.529 200.425Z"/>
</svg>