<svg width="320" height="70" viewBox="0 0 320 70" fill="none" xmlns="http://www.w3.org/2000/svg">
<rect x="1" y="1" width="319" height="69" fill="#EE5757"/>
<path d="M1.2963 47.5185H7.77778V54H1.2963V47.5185ZM9.07407 47.5185H15.5556V54H9.07407V47.5185ZM16.8519 47.5185H23.3333V54H16.8519V47.5185ZM24.6296 47.5185H31.1111V54H24.6296V47.5185ZM32.4074 47.5185H38.8889V54H32.4074V47.5185ZM40.1852 47.5185H46.6667V54H40.1852V47.5185ZM1.2963 39.7407H7.77778V46.2222H1.2963V39.7407ZM9.07407 39.7407H15.5556V46.2222H9.07407V39.7407ZM16.8519 39.7407H23.3333V46.2222H16.8519V39.7407ZM24.6296 39.7407H31.1111V46.2222H24.6296V39.7407ZM32.4074 39.7407H38.8889V46.2222H32.4074V39.7407ZM40.1852 39.7407H46.6667V46.2222H40.1852V39.7407ZM1.2963 55.2963H7.77778V61.7778H1.2963V55.2963ZM9.07407 55.2963H15.5556V61.7778H9.07407V55.2963ZM16.8519 55.2963H23.3333V61.7778H16.8519V55.2963ZM24.6296 55.2963H31.1111V61.7778H24.6296V55.2963ZM32.4074 55.2963H38.8889V61.7778H32.4074V55.2963ZM40.1852 55.2963H46.6667V61.7778H40.1852V55.2963ZM1.2963 24.1852H7.77778V30.6667H1.2963V24.1852ZM9.07407 24.1852H15.5556V30.6667H9.07407V24.1852ZM16.8519 24.1852H23.3333V30.6667H16.8519V24.1852ZM24.6296 24.1852H31.1111V30.6667H24.6296V24.1852ZM32.4074 24.1852H38.8889V30.6667H32.4074V24.1852ZM40.1852 24.1852H46.6667V30.6667H40.1852V24.1852ZM1.2963 16.4074H7.77778V22.8889H1.2963V16.4074ZM9.07407 16.4074H15.5556V22.8889H9.07407V16.4074ZM16.8519 16.4074H23.3333V22.8889H16.8519V16.4074ZM24.6296 16.4074H31.1111V22.8889H24.6296V16.4074ZM32.4074 16.4074H38.8889V22.8889H32.4074V16.4074ZM40.1852 16.4074H46.6667V22.8889H40.1852V16.4074ZM1.2963 31.963H7.77778V38.4444H1.2963V31.963ZM9.07407 31.963H15.5556V38.4444H9.07407V31.963ZM16.8519 31.963H23.3333V38.4444H16.8519V31.963ZM24.6296 31.963H31.1111V38.4444H24.6296V31.963ZM32.4074 31.963H38.8889V38.4444H32.4074V31.963ZM40.1852 31.963H46.6667V38.4444H40.1852V31.963ZM1.2963 8.62963H7.77778V15.1111H1.2963V8.62963ZM9.07407 8.62963H15.5556V15.1111H9.07407V8.62963ZM16.8519 8.62963H23.3333V15.1111H16.8519V8.62963ZM24.6296 8.62963H31.1111V15.1111H24.6296V8.62963ZM32.4074 8.62963H38.8889V15.1111H32.4074V8.62963ZM40.1852 8.62963H46.6667V15.1111H40.1852V8.62963ZM1.2963 0.851854H7.77778V7.33334H1.2963V0.851854ZM9.07407 0.851854H15.5556V7.33334H9.07407V0.851854ZM16.8519 0.851854H23.3333V7.33334H16.8519V0.851854ZM24.6296 0.851854H31.1111V7.33334H24.6296V0.851854ZM32.4074 0.851854H38.8889V7.33334H32.4074V0.851854ZM40.1852 0.851854H46.6667V7.33334H40.1852V0.851854ZM1.2963 63.0741H7.77778V69.5556H1.2963V63.0741ZM9.07407 63.0741H15.5556V69.5556H9.07407V63.0741ZM16.8519 63.0741H23.3333V69.5556H16.8519V63.0741ZM24.6296 63.0741H31.1111V69.5556H24.6296V63.0741ZM32.4074 63.0741H38.8889V69.5556H32.4074V63.0741ZM40.1852 63.0741H46.6667V69.5556H40.1852V63.0741ZM47.9857 47.5185H54.4672V54H47.9857V47.5185ZM63.5413 47.5185H70.0228V54H63.5413V47.5185ZM71.3191 47.5185H77.8006V54H71.3191V47.5185ZM79.0969 47.5185H85.5783V54H79.0969V47.5185ZM86.8746 47.5185H93.3561V54H86.8746V47.5185ZM47.9857 39.7407H54.4672V46.2222H47.9857V39.7407ZM63.5413 39.7407H70.0228V46.2222H63.5413V39.7407ZM71.3191 39.7407H77.8006V46.2222H71.3191V39.7407ZM79.0969 39.7407H85.5783V46.2222H79.0969V39.7407ZM86.8746 39.7407H93.3561V46.2222H86.8746V39.7407ZM47.9857 55.2963H54.4672V61.7778H47.9857V55.2963ZM86.8746 55.2963H93.3561V61.7778H86.8746V55.2963ZM47.9857 24.1852H54.4672V30.6667H47.9857V24.1852ZM63.5413 24.1852H70.0228V30.6667H63.5413V24.1852ZM71.3191 24.1852H77.8006V30.6667H71.3191V24.1852ZM79.0969 24.1852H85.5783V30.6667H79.0969V24.1852ZM86.8746 24.1852H93.3561V30.6667H86.8746V24.1852ZM47.9857 16.4074H54.4672V22.8889H47.9857V16.4074ZM63.5413 16.4074H70.0228V22.8889H63.5413V16.4074ZM71.3191 16.4074H77.8006V22.8889H71.3191V16.4074ZM79.0969 16.4074H85.5783V22.8889H79.0969V16.4074ZM86.8746 16.4074H93.3561V22.8889H86.8746V16.4074ZM47.9857 31.963H54.4672V38.4444H47.9857V31.963ZM63.5413 31.963H70.0228V38.4444H63.5413V31.963ZM71.3191 31.963H77.8006V38.4444H71.3191V31.963ZM79.0969 31.963H85.5783V38.4444H79.0969V31.963ZM86.8746 31.963H93.3561V38.4444H86.8746V31.963ZM47.9857 8.62963H54.4672V15.1111H47.9857V8.62963ZM63.5413 8.62963H70.0228V15.1111H63.5413V8.62963ZM71.3191 8.62963H77.8006V15.1111H71.3191V8.62963ZM79.0969 8.62963H85.5783V15.1111H79.0969V8.62963ZM86.8746 8.62963H93.3561V15.1111H86.8746V8.62963ZM47.9857 0.851854H54.4672V7.33334H47.9857V0.851854ZM55.7635 0.851854H62.245V7.33334H55.7635V0.851854ZM63.5413 0.851854H70.0228V7.33334H63.5413V0.851854ZM71.3191 0.851854H77.8006V7.33334H71.3191V0.851854ZM79.0969 0.851854H85.5783V7.33334H79.0969V0.851854ZM86.8746 0.851854H93.3561V7.33334H86.8746V0.851854ZM47.9857 63.0741H54.4672V69.5556H47.9857V63.0741ZM55.7635 63.0741H62.245V69.5556H55.7635V63.0741ZM63.5413 63.0741H70.0228V69.5556H63.5413V63.0741ZM71.3191 63.0741H77.8006V69.5556H71.3191V63.0741ZM79.0969 63.0741H85.5783V69.5556H79.0969V63.0741ZM86.8746 63.0741H93.3561V69.5556H86.8746V63.0741ZM86.8822 47.5185H93.3637V54H86.8822V47.5185ZM102.438 47.5185H108.919V54H102.438V47.5185ZM110.216 47.5185H116.697V54H110.216V47.5185ZM117.993 47.5185H124.475V54H117.993V47.5185ZM125.771 47.5185H132.253V54H125.771V47.5185ZM133.549 47.5185H140.03V54H133.549V47.5185ZM86.8822 39.7407H93.3637V46.2222H86.8822V39.7407ZM102.438 39.7407H108.919V46.2222H102.438V39.7407ZM110.216 39.7407H116.697V46.2222H110.216V39.7407ZM117.993 39.7407H124.475V46.2222H117.993V39.7407ZM125.771 39.7407H132.253V46.2222H125.771V39.7407ZM133.549 39.7407H140.03V46.2222H133.549V39.7407ZM86.8822 55.2963H93.3637V61.7778H86.8822V55.2963ZM133.549 55.2963H140.03V61.7778H133.549V55.2963ZM86.8822 24.1852H93.3637V30.6667H86.8822V24.1852ZM102.438 24.1852H108.919V30.6667H102.438V24.1852ZM110.216 24.1852H116.697V30.6667H110.216V24.1852ZM117.993 24.1852H124.475V30.6667H117.993V24.1852ZM125.771 24.1852H132.253V30.6667H125.771V24.1852ZM133.549 24.1852H140.03V30.6667H133.549V24.1852ZM86.8822 16.4074H93.3637V22.8889H86.8822V16.4074ZM102.438 16.4074H108.919V22.8889H102.438V16.4074ZM110.216 16.4074H116.697V22.8889H110.216V16.4074ZM117.993 16.4074H124.475V22.8889H117.993V16.4074ZM125.771 16.4074H132.253V22.8889H125.771V16.4074ZM133.549 16.4074H140.03V22.8889H133.549V16.4074ZM86.8822 31.963H93.3637V38.4444H86.8822V31.963ZM125.771 31.963H132.253V38.4444H125.771V31.963ZM133.549 31.963H140.03V38.4444H133.549V31.963ZM86.8822 8.62963H93.3637V15.1111H86.8822V8.62963ZM133.549 8.62963H140.03V15.1111H133.549V8.62963ZM86.8822 0.851854H93.3637V7.33334H86.8822V0.851854ZM94.66 0.851854H101.141V7.33334H94.66V0.851854ZM102.438 0.851854H108.919V7.33334H102.438V0.851854ZM110.216 0.851854H116.697V7.33334H110.216V0.851854ZM117.993 0.851854H124.475V7.33334H117.993V0.851854ZM125.771 0.851854H132.253V7.33334H125.771V0.851854ZM133.549 0.851854H140.03V7.33334H133.549V0.851854ZM86.8822 63.0741H93.3637V69.5556H86.8822V63.0741ZM94.66 63.0741H101.141V69.5556H94.66V63.0741ZM102.438 63.0741H108.919V69.5556H102.438V63.0741ZM110.216 63.0741H116.697V69.5556H110.216V63.0741ZM117.993 63.0741H124.475V69.5556H117.993V63.0741ZM125.771 63.0741H132.253V69.5556H125.771V63.0741ZM133.549 63.0741H140.03V69.5556H133.549V63.0741ZM133.572 47.5185H140.053V54H133.572V47.5185ZM149.127 47.5185H155.609V54H149.127V47.5185ZM156.905 47.5185H163.387V54H156.905V47.5185ZM164.683 47.5185H171.164V54H164.683V47.5185ZM180.238 47.5185H186.72V54H180.238V47.5185ZM133.572 39.7407H140.053V46.2222H133.572V39.7407ZM149.127 39.7407H155.609V46.2222H149.127V39.7407ZM156.905 39.7407H163.387V46.2222H156.905V39.7407ZM164.683 39.7407H171.164V46.2222H164.683V39.7407ZM180.238 39.7407H186.72V46.2222H180.238V39.7407ZM133.572 55.2963H140.053V61.7778H133.572V55.2963ZM149.127 55.2963H155.609V61.7778H149.127V55.2963ZM156.905 55.2963H163.387V61.7778H156.905V55.2963ZM164.683 55.2963H171.164V61.7778H164.683V55.2963ZM180.238 55.2963H186.72V61.7778H180.238V55.2963ZM133.572 24.1852H140.053V30.6667H133.572V24.1852ZM149.127 24.1852H155.609V30.6667H149.127V24.1852ZM156.905 24.1852H163.387V30.6667H156.905V24.1852ZM164.683 24.1852H171.164V30.6667H164.683V24.1852ZM180.238 24.1852H186.72V30.6667H180.238V24.1852ZM133.572 16.4074H140.053V22.8889H133.572V16.4074ZM149.127 16.4074H155.609V22.8889H149.127V16.4074ZM156.905 16.4074H163.387V22.8889H156.905V16.4074ZM164.683 16.4074H171.164V22.8889H164.683V16.4074ZM180.238 16.4074H186.72V22.8889H180.238V16.4074ZM133.572 31.963H140.053V38.4444H133.572V31.963ZM180.238 31.963H186.72V38.4444H180.238V31.963ZM133.572 8.62963H140.053V15.1111H133.572V8.62963ZM141.349 8.62963H147.831V15.1111H141.349V8.62963ZM172.461 8.62963H178.942V15.1111H172.461V8.62963ZM180.238 8.62963H186.72V15.1111H180.238V8.62963ZM133.572 0.851854H140.053V7.33334H133.572V0.851854ZM141.349 0.851854H147.831V7.33334H141.349V0.851854ZM149.127 0.851854H155.609V7.33334H149.127V0.851854ZM156.905 0.851854H163.387V7.33334H156.905V0.851854ZM164.683 0.851854H171.164V7.33334H164.683V0.851854ZM172.461 0.851854H178.942V7.33334H172.461V0.851854ZM180.238 0.851854H186.72V7.33334H180.238V0.851854ZM133.572 63.0741H140.053V69.5556H133.572V63.0741ZM141.349 63.0741H147.831V69.5556H141.349V63.0741ZM149.127 63.0741H155.609V69.5556H149.127V63.0741ZM156.905 63.0741H163.387V69.5556H156.905V63.0741ZM164.683 63.0741H171.164V69.5556H164.683V63.0741ZM172.461 63.0741H178.942V69.5556H172.461V63.0741ZM180.238 63.0741H186.72V69.5556H180.238V63.0741ZM180.261 47.5185H186.743V54H180.261V47.5185ZM188.039 47.5185H194.52V54H188.039V47.5185ZM203.594 47.5185H210.076V54H203.594V47.5185ZM219.15 47.5185H225.632V54H219.15V47.5185ZM226.928 47.5185H233.409V54H226.928V47.5185ZM180.261 39.7407H186.743V46.2222H180.261V39.7407ZM195.817 39.7407H202.298V46.2222H195.817V39.7407ZM203.594 39.7407H210.076V46.2222H203.594V39.7407ZM211.372 39.7407H217.854V46.2222H211.372V39.7407ZM226.928 39.7407H233.409V46.2222H226.928V39.7407ZM180.261 55.2963H186.743V61.7778H180.261V55.2963ZM188.039 55.2963H194.52V61.7778H188.039V55.2963ZM195.817 55.2963H202.298V61.7778H195.817V55.2963ZM211.372 55.2963H217.854V61.7778H211.372V55.2963ZM219.15 55.2963H225.632V61.7778H219.15V55.2963ZM226.928 55.2963H233.409V61.7778H226.928V55.2963ZM180.261 24.1852H186.743V30.6667H180.261V24.1852ZM195.817 24.1852H202.298V30.6667H195.817V24.1852ZM203.594 24.1852H210.076V30.6667H203.594V24.1852ZM211.372 24.1852H217.854V30.6667H211.372V24.1852ZM226.928 24.1852H233.409V30.6667H226.928V24.1852ZM180.261 16.4074H186.743V22.8889H180.261V16.4074ZM195.817 16.4074H202.298V22.8889H195.817V16.4074ZM203.594 16.4074H210.076V22.8889H203.594V16.4074ZM211.372 16.4074H217.854V22.8889H211.372V16.4074ZM226.928 16.4074H233.409V22.8889H226.928V16.4074ZM180.261 31.963H186.743V38.4444H180.261V31.963ZM195.817 31.963H202.298V38.4444H195.817V31.963ZM203.594 31.963H210.076V38.4444H203.594V31.963ZM211.372 31.963H217.854V38.4444H211.372V31.963ZM226.928 31.963H233.409V38.4444H226.928V31.963ZM180.261 8.62963H186.743V15.1111H180.261V8.62963ZM195.817 8.62963H202.298V15.1111H195.817V8.62963ZM203.594 8.62963H210.076V15.1111H203.594V8.62963ZM211.372 8.62963H217.854V15.1111H211.372V8.62963ZM226.928 8.62963H233.409V15.1111H226.928V8.62963ZM180.261 0.851854H186.743V7.33334H180.261V0.851854ZM188.039 0.851854H194.52V7.33334H188.039V0.851854ZM195.817 0.851854H202.298V7.33334H195.817V0.851854ZM203.594 0.851854H210.076V7.33334H203.594V0.851854ZM211.372 0.851854H217.854V7.33334H211.372V0.851854ZM219.15 0.851854H225.632V7.33334H219.15V0.851854ZM226.928 0.851854H233.409V7.33334H226.928V0.851854ZM180.261 63.0741H186.743V69.5556H180.261V63.0741ZM188.039 63.0741H194.52V69.5556H188.039V63.0741ZM195.817 63.0741H202.298V69.5556H195.817V63.0741ZM203.594 63.0741H210.076V69.5556H203.594V63.0741ZM211.372 63.0741H217.854V69.5556H211.372V63.0741ZM219.15 63.0741H225.632V69.5556H219.15V63.0741ZM226.928 63.0741H233.409V69.5556H226.928V63.0741ZM226.951 47.5185H233.432V54H226.951V47.5185ZM242.506 47.5185H248.988V54H242.506V47.5185ZM250.284 47.5185H256.765V54H250.284V47.5185ZM258.062 47.5185H264.543V54H258.062V47.5185ZM265.839 47.5185H272.321V54H265.839V47.5185ZM273.617 47.5185H280.099V54H273.617V47.5185ZM226.951 39.7407H233.432V46.2222H226.951V39.7407ZM242.506 39.7407H248.988V46.2222H242.506V39.7407ZM250.284 39.7407H256.765V46.2222H250.284V39.7407ZM258.062 39.7407H264.543V46.2222H258.062V39.7407ZM265.839 39.7407H272.321V46.2222H265.839V39.7407ZM273.617 39.7407H280.099V46.2222H273.617V39.7407ZM226.951 55.2963H233.432V61.7778H226.951V55.2963ZM273.617 55.2963H280.099V61.7778H273.617V55.2963ZM226.951 24.1852H233.432V30.6667H226.951V24.1852ZM242.506 24.1852H248.988V30.6667H242.506V24.1852ZM250.284 24.1852H256.765V30.6667H250.284V24.1852ZM258.062 24.1852H264.543V30.6667H258.062V24.1852ZM265.839 24.1852H272.321V30.6667H265.839V24.1852ZM273.617 24.1852H280.099V30.6667H273.617V24.1852ZM226.951 16.4074H233.432V22.8889H226.951V16.4074ZM242.506 16.4074H248.988V22.8889H242.506V16.4074ZM250.284 16.4074H256.765V22.8889H250.284V16.4074ZM258.062 16.4074H264.543V22.8889H258.062V16.4074ZM265.839 16.4074H272.321V22.8889H265.839V16.4074ZM273.617 16.4074H280.099V22.8889H273.617V16.4074ZM226.951 31.963H233.432V38.4444H226.951V31.963ZM265.839 31.963H272.321V38.4444H265.839V31.963ZM273.617 31.963H280.099V38.4444H273.617V31.963ZM226.951 8.62963H233.432V15.1111H226.951V8.62963ZM273.617 8.62963H280.099V15.1111H273.617V8.62963ZM226.951 0.851854H233.432V7.33334H226.951V0.851854ZM234.728 0.851854H241.21V7.33334H234.728V0.851854ZM242.506 0.851854H248.988V7.33334H242.506V0.851854ZM250.284 0.851854H256.765V7.33334H250.284V0.851854ZM258.062 0.851854H264.543V7.33334H258.062V0.851854ZM265.839 0.851854H272.321V7.33334H265.839V0.851854ZM273.617 0.851854H280.099V7.33334H273.617V0.851854ZM226.951 63.0741H233.432V69.5556H226.951V63.0741ZM234.728 63.0741H241.21V69.5556H234.728V63.0741ZM242.506 63.0741H248.988V69.5556H242.506V63.0741ZM250.284 63.0741H256.765V69.5556H250.284V63.0741ZM258.062 63.0741H264.543V69.5556H258.062V63.0741ZM265.839 63.0741H272.321V69.5556H265.839V63.0741ZM273.617 63.0741H280.099V69.5556H273.617V63.0741ZM273.64 47.5185H280.122V54H273.64V47.5185ZM281.418 47.5185H287.899V54H281.418V47.5185ZM289.196 47.5185H295.677V54H289.196V47.5185ZM296.973 47.5185H303.455V54H296.973V47.5185ZM304.751 47.5185H311.233V54H304.751V47.5185ZM312.529 47.5185H319.01V54H312.529V47.5185ZM273.64 39.7407H280.122V46.2222H273.64V39.7407ZM281.418 39.7407H287.899V46.2222H281.418V39.7407ZM289.196 39.7407H295.677V46.2222H289.196V39.7407ZM296.973 39.7407H303.455V46.2222H296.973V39.7407ZM304.751 39.7407H311.233V46.2222H304.751V39.7407ZM312.529 39.7407H319.01V46.2222H312.529V39.7407ZM273.64 55.2963H280.122V61.7778H273.64V55.2963ZM281.418 55.2963H287.899V61.7778H281.418V55.2963ZM289.196 55.2963H295.677V61.7778H289.196V55.2963ZM296.973 55.2963H303.455V61.7778H296.973V55.2963ZM304.751 55.2963H311.233V61.7778H304.751V55.2963ZM312.529 55.2963H319.01V61.7778H312.529V55.2963ZM273.64 24.1852H280.122V30.6667H273.64V24.1852ZM281.418 24.1852H287.899V30.6667H281.418V24.1852ZM289.196 24.1852H295.677V30.6667H289.196V24.1852ZM296.973 24.1852H303.455V30.6667H296.973V24.1852ZM304.751 24.1852H311.233V30.6667H304.751V24.1852ZM312.529 24.1852H319.01V30.6667H312.529V24.1852ZM273.64 16.4074H280.122V22.8889H273.64V16.4074ZM281.418 16.4074H287.899V22.8889H281.418V16.4074ZM289.196 16.4074H295.677V22.8889H289.196V16.4074ZM296.973 16.4074H303.455V22.8889H296.973V16.4074ZM304.751 16.4074H311.233V22.8889H304.751V16.4074ZM312.529 16.4074H319.01V22.8889H312.529V16.4074ZM273.64 31.963H280.122V38.4444H273.64V31.963ZM281.418 31.963H287.899V38.4444H281.418V31.963ZM289.196 31.963H295.677V38.4444H289.196V31.963ZM296.973 31.963H303.455V38.4444H296.973V31.963ZM304.751 31.963H311.233V38.4444H304.751V31.963ZM312.529 31.963H319.01V38.4444H312.529V31.963ZM273.64 8.62963H280.122V15.1111H273.64V8.62963ZM281.418 8.62963H287.899V15.1111H281.418V8.62963ZM289.196 8.62963H295.677V15.1111H289.196V8.62963ZM296.973 8.62963H303.455V15.1111H296.973V8.62963ZM304.751 8.62963H311.233V15.1111H304.751V8.62963ZM312.529 8.62963H319.01V15.1111H312.529V8.62963ZM273.64 0.851854H280.122V7.33334H273.64V0.851854ZM281.418 0.851854H287.899V7.33334H281.418V0.851854ZM289.196 0.851854H295.677V7.33334H289.196V0.851854ZM296.973 0.851854H303.455V7.33334H296.973V0.851854ZM304.751 0.851854H311.233V7.33334H304.751V0.851854ZM312.529 0.851854H319.01V7.33334H312.529V0.851854ZM273.64 63.0741H280.122V69.5556H273.64V63.0741ZM281.418 63.0741H287.899V69.5556H281.418V63.0741ZM289.196 63.0741H295.677V69.5556H289.196V63.0741ZM296.973 63.0741H303.455V69.5556H296.973V63.0741ZM304.751 63.0741H311.233V69.5556H304.751V63.0741ZM312.529 63.0741H319.01V69.5556H312.529V63.0741Z" fill="black"/>
</svg>
