<svg width="90" height="29" viewBox="0 0 90 29" fill="none" xmlns="http://www.w3.org/2000/svg">
<mask id="path-1-inside-1_1878_17328" fill="white">
<path d="M73.1504 18.4674C73.3224 18.4677 73.4618 18.6069 73.4619 18.7789C73.4619 18.8529 73.4356 18.9247 73.3877 18.9811L71.6084 21.0709C70.1326 22.804 67.9706 23.8024 65.6943 23.8024H23.7705C21.4942 23.8024 19.3322 22.804 17.8564 21.0709L16.0771 18.9811C16.0293 18.9247 16.0029 18.8529 16.0029 18.7789C16.0031 18.6069 16.1424 18.4677 16.3145 18.4674H73.1504ZM80.9453 12.3112C81.1176 12.3112 81.2568 12.4514 81.2568 12.6237C81.2568 12.6977 81.2306 12.7695 81.1826 12.8258L79.4033 14.9147C77.9276 16.6477 75.7664 17.646 73.4902 17.6461H15.9746C13.6984 17.646 11.5372 16.6477 10.0615 14.9147L8.28223 12.8258C8.23424 12.7695 8.20808 12.6977 8.20801 12.6237C8.20801 12.4514 8.34726 12.3112 8.51953 12.3112H80.9453ZM37.6133 6.15588C38.4332 6.15588 39.2072 6.53289 39.7129 7.17834C41.0845 8.92921 39.8374 11.4908 37.6133 11.4908H7.76758C5.49141 11.4908 3.32927 10.4923 1.85352 8.7594L0.0742188 6.66956C0.0262297 6.61314 0 6.54148 0 6.46741C3.76853e-05 6.29522 0.139364 6.15602 0.311523 6.15588H37.6133ZM89.1533 6.15588C89.3255 6.15602 89.4648 6.29522 89.4648 6.46741C89.4648 6.54148 89.4386 6.61314 89.3906 6.66956L87.6113 8.7594C86.1356 10.4923 83.9734 11.4908 81.6973 11.4908H51.8516C49.6274 11.4908 48.3804 8.92921 49.752 7.17834C50.2576 6.53289 51.0316 6.15588 51.8516 6.15588H89.1533Z"/>
</mask>
<path d="M73.1504 18.4674C73.3224 18.4677 73.4618 18.6069 73.4619 18.7789C73.4619 18.8529 73.4356 18.9247 73.3877 18.9811L71.6084 21.0709C70.1326 22.804 67.9706 23.8024 65.6943 23.8024H23.7705C21.4942 23.8024 19.3322 22.804 17.8564 21.0709L16.0771 18.9811C16.0293 18.9247 16.0029 18.8529 16.0029 18.7789C16.0031 18.6069 16.1424 18.4677 16.3145 18.4674H73.1504ZM80.9453 12.3112C81.1176 12.3112 81.2568 12.4514 81.2568 12.6237C81.2568 12.6977 81.2306 12.7695 81.1826 12.8258L79.4033 14.9147C77.9276 16.6477 75.7664 17.646 73.4902 17.6461H15.9746C13.6984 17.646 11.5372 16.6477 10.0615 14.9147L8.28223 12.8258C8.23424 12.7695 8.20808 12.6977 8.20801 12.6237C8.20801 12.4514 8.34726 12.3112 8.51953 12.3112H80.9453ZM37.6133 6.15588C38.4332 6.15588 39.2072 6.53289 39.7129 7.17834C41.0845 8.92921 39.8374 11.4908 37.6133 11.4908H7.76758C5.49141 11.4908 3.32927 10.4923 1.85352 8.7594L0.0742188 6.66956C0.0262297 6.61314 0 6.54148 0 6.46741C3.76853e-05 6.29522 0.139364 6.15602 0.311523 6.15588H37.6133ZM89.1533 6.15588C89.3255 6.15602 89.4648 6.29522 89.4648 6.46741C89.4648 6.54148 89.4386 6.61314 89.3906 6.66956L87.6113 8.7594C86.1356 10.4923 83.9734 11.4908 81.6973 11.4908H51.8516C49.6274 11.4908 48.3804 8.92921 49.752 7.17834C50.2576 6.53289 51.0316 6.15588 51.8516 6.15588H89.1533Z" fill="url(#paint0_linear_1878_17328)"/>
<path d="M73.1504 18.4674L73.1517 17.5554H73.1504V18.4674ZM73.4619 18.7789H74.3739V18.7782L73.4619 18.7789ZM73.3877 18.9811L74.0821 19.5723L74.0829 19.5714L73.3877 18.9811ZM71.6084 21.0709L72.3028 21.6622L72.3028 21.6621L71.6084 21.0709ZM17.8564 21.0709L17.162 21.6621L17.1621 21.6622L17.8564 21.0709ZM16.0771 18.9811L15.3819 19.5714L15.3827 19.5723L16.0771 18.9811ZM16.0029 18.7789L15.0909 18.7782V18.7789H16.0029ZM16.3145 18.4674V17.5554L16.3132 17.5554L16.3145 18.4674ZM80.9453 12.3112L80.9455 11.3992H80.9453V12.3112ZM81.2568 12.6237L82.1688 12.6246V12.6237H81.2568ZM81.1826 12.8258L81.8769 13.4172L81.877 13.4171L81.1826 12.8258ZM79.4033 14.9147L78.709 14.3233L78.709 14.3234L79.4033 14.9147ZM73.4902 17.6461V18.5581H73.4903L73.4902 17.6461ZM15.9746 17.6461L15.9746 18.5581H15.9746V17.6461ZM10.0615 14.9147L10.7559 14.3234L10.7558 14.3233L10.0615 14.9147ZM8.28223 12.8258L7.58784 13.4171L7.58795 13.4172L8.28223 12.8258ZM8.20801 12.6237H7.29601L7.29601 12.6246L8.20801 12.6237ZM8.51953 12.3112V11.3992H8.51935L8.51953 12.3112ZM39.7129 7.17834L40.4308 6.61593L40.4308 6.61592L39.7129 7.17834ZM1.85352 8.7594L1.15911 9.35062L1.15918 9.3507L1.85352 8.7594ZM0.0742188 6.66956L-0.620464 7.26045L-0.620189 7.26078L0.0742188 6.66956ZM0 6.46741L-0.912 6.46721V6.46741H0ZM0.311523 6.15588V5.24388L0.31078 5.24388L0.311523 6.15588ZM89.1533 6.15588L89.1541 5.24388H89.1533V6.15588ZM89.4648 6.46741H90.3768V6.46721L89.4648 6.46741ZM89.3906 6.66956L90.085 7.26078L90.0853 7.26045L89.3906 6.66956ZM87.6113 8.7594L88.3057 9.3507L88.3057 9.35062L87.6113 8.7594ZM49.752 7.17834L49.034 6.61592L49.034 6.61593L49.752 7.17834ZM73.1504 18.4674L73.1491 19.3794C72.819 19.3789 72.5502 19.1113 72.5499 18.7797L73.4619 18.7789L74.3739 18.7782C74.3734 18.1025 73.8258 17.5564 73.1517 17.5554L73.1504 18.4674ZM73.4619 18.7789H72.5499C72.5499 18.6369 72.6003 18.4994 72.6925 18.3908L73.3877 18.9811L74.0829 19.5714C74.2709 19.35 74.3739 19.069 74.3739 18.7789H73.4619ZM73.3877 18.9811L72.6933 18.3899L70.914 20.4797L71.6084 21.0709L72.3028 21.6621L74.0821 19.5723L73.3877 18.9811ZM71.6084 21.0709L70.914 20.4796C69.6116 22.0092 67.7034 22.8904 65.6943 22.8904V23.8024V24.7144C68.2378 24.7144 70.6537 23.5988 72.3028 21.6622L71.6084 21.0709ZM65.6943 23.8024V22.8904H23.7705V23.8024V24.7144H65.6943V23.8024ZM23.7705 23.8024V22.8904C21.7614 22.8904 19.8532 22.0092 18.5508 20.4796L17.8564 21.0709L17.1621 21.6622C18.8112 23.5988 21.227 24.7144 23.7705 24.7144V23.8024ZM17.8564 21.0709L18.5509 20.4797L16.7716 18.3899L16.0771 18.9811L15.3827 19.5723L17.162 21.6621L17.8564 21.0709ZM16.0771 18.9811L16.7724 18.3908C16.8646 18.4994 16.9149 18.6369 16.9149 18.7789H16.0029H15.0909C15.0909 19.069 15.194 19.35 15.3819 19.5714L16.0771 18.9811ZM16.0029 18.7789L16.9149 18.7797C16.9147 19.1113 16.6459 19.3789 16.3158 19.3794L16.3145 18.4674L16.3132 17.5554C15.639 17.5564 15.0915 18.1025 15.0909 18.7782L16.0029 18.7789ZM16.3145 18.4674V19.3794H73.1504V18.4674V17.5554H16.3145V18.4674ZM80.9453 12.3112L80.9451 13.2232C80.6103 13.2231 80.3448 12.9515 80.3448 12.6237H81.2568H82.1688C82.1688 11.9512 81.6248 11.3993 80.9455 11.3992L80.9453 12.3112ZM81.2568 12.6237L80.3448 12.6227C80.345 12.4829 80.3943 12.3449 80.4882 12.2346L81.1826 12.8258L81.877 13.4171C82.0669 13.1941 82.1685 12.9124 82.1688 12.6246L81.2568 12.6237ZM81.1826 12.8258L80.4883 12.2344L78.709 14.3233L79.4033 14.9147L80.0976 15.5061L81.8769 13.4172L81.1826 12.8258ZM79.4033 14.9147L78.709 14.3234C77.4065 15.8529 75.4991 16.734 73.4902 16.7341L73.4902 17.6461L73.4903 18.5581C76.0337 18.558 78.4487 17.4424 80.0977 15.5059L79.4033 14.9147ZM73.4902 17.6461V16.7341H15.9746V17.6461V18.5581H73.4902V17.6461ZM15.9746 17.6461L15.9746 16.7341C13.9657 16.734 12.0583 15.8529 10.7559 14.3234L10.0615 14.9147L9.36716 15.5059C11.0161 17.4424 13.4311 18.558 15.9746 18.5581L15.9746 17.6461ZM10.0615 14.9147L10.7558 14.3233L8.9765 12.2344L8.28223 12.8258L7.58795 13.4172L9.36725 15.5061L10.0615 14.9147ZM8.28223 12.8258L8.97661 12.2346C9.07052 12.3449 9.11986 12.4829 9.12001 12.6227L8.20801 12.6237L7.29601 12.6246C7.2963 12.9124 7.39796 13.1941 7.58784 13.4171L8.28223 12.8258ZM8.20801 12.6237H9.12001C9.12001 12.9515 8.85451 13.2231 8.51972 13.2232L8.51953 12.3112L8.51935 11.3992C7.84001 11.3993 7.29601 11.9512 7.29601 12.6237H8.20801ZM8.51953 12.3112V13.2232H80.9453V12.3112V11.3992H8.51953V12.3112ZM37.6133 6.15588V7.06788C38.1528 7.06788 38.6621 7.31592 38.995 7.74077L39.7129 7.17834L40.4308 6.61592C39.7524 5.74987 38.7136 5.24388 37.6133 5.24388V6.15588ZM39.7129 7.17834L38.995 7.74076C39.8977 8.89318 39.0769 10.5788 37.6133 10.5788V11.4908V12.4028C40.598 12.4028 42.2712 8.96524 40.4308 6.61593L39.7129 7.17834ZM37.6133 11.4908V10.5788H7.76758V11.4908V12.4028H37.6133V11.4908ZM7.76758 11.4908V10.5788C5.75863 10.5788 3.85032 9.69752 2.54786 8.1681L1.85352 8.7594L1.15918 9.3507C2.80823 11.2871 5.22419 12.4028 7.76758 12.4028V11.4908ZM1.85352 8.7594L2.54792 8.16818L0.768627 6.07834L0.0742188 6.66956L-0.620189 7.26078L1.15911 9.35062L1.85352 8.7594ZM0.0742188 6.66956L0.768902 6.07866C0.861875 6.18796 0.912 6.32601 0.912 6.46741H0H-0.912C-0.912 6.75695 -0.809415 7.03831 -0.620464 7.26045L0.0742188 6.66956ZM0 6.46741L0.912 6.46761C0.911927 6.79949 0.642666 7.06761 0.312266 7.06788L0.311523 6.15588L0.31078 5.24388C-0.363938 5.24443 -0.911852 5.79095 -0.912 6.46721L0 6.46741ZM0.311523 6.15588V7.06788H37.6133V6.15588V5.24388H0.311523V6.15588ZM89.1533 6.15588L89.1526 7.06788C88.8222 7.06761 88.5529 6.79949 88.5528 6.46761L89.4648 6.46741L90.3768 6.46721C90.3767 5.79095 89.8288 5.24443 89.1541 5.24388L89.1533 6.15588ZM89.4648 6.46741H88.5528C88.5528 6.32601 88.603 6.18796 88.6959 6.07866L89.3906 6.66956L90.0853 7.26045C90.2743 7.03831 90.3768 6.75695 90.3768 6.46741H89.4648ZM89.3906 6.66956L88.6962 6.07834L86.9169 8.16818L87.6113 8.7594L88.3057 9.35062L90.085 7.26078L89.3906 6.66956ZM87.6113 8.7594L86.917 8.1681C85.6145 9.69752 83.7062 10.5788 81.6973 10.5788V11.4908V12.4028C84.2407 12.4028 86.6566 11.2871 88.3057 9.3507L87.6113 8.7594ZM81.6973 11.4908V10.5788H51.8516V11.4908V12.4028H81.6973V11.4908ZM51.8516 11.4908V10.5788C50.388 10.5788 49.5671 8.89318 50.4699 7.74076L49.752 7.17834L49.034 6.61593C47.1936 8.96524 48.8669 12.4028 51.8516 12.4028V11.4908ZM49.752 7.17834L50.4699 7.74077C50.8027 7.31592 51.312 7.06788 51.8516 7.06788V6.15588V5.24388C50.7512 5.24388 49.7125 5.74987 49.034 6.61592L49.752 7.17834ZM51.8516 6.15588V7.06788H89.1533V6.15588V5.24388H51.8516V6.15588Z" fill="black" mask="url(#path-1-inside-1_1878_17328)"/>
<circle cx="44.7343" cy="14.364" r="13.908" fill="#FFDA57" stroke="black" stroke-width="0.912"/>
<path d="M44.735 3.32837C50.5949 3.32851 55.36 8.16937 55.36 14.1584C55.3599 20.1475 50.5949 24.9884 44.735 24.9885C38.875 24.9885 34.1101 20.1476 34.11 14.1584C34.11 8.16928 38.8749 3.32837 44.735 3.32837Z" fill="#C09525" stroke="black" stroke-width="0.912"/>
<path d="M44.3018 21.1403C44.3018 17.6929 44.3018 14.2455 44.6301 10.2145C43.4445 11.6555 42.0401 12.2756 40.6356 12.4945V10.1415C42.8061 9.68554 44.3748 8.35402 44.3748 6.91306H46.7277V21.1403H44.3018Z" fill="#FFEFAD"/>
<defs>
<linearGradient id="paint0_linear_1878_17328" x1="44.4586" y1="14.8205" x2="44.4586" y2="37.6203" gradientUnits="userSpaceOnUse">
<stop stop-color="#FFD43D"/>
<stop offset="1" stop-color="#997F25"/>
</linearGradient>
</defs>
</svg>
