<svg width="90" height="30" viewBox="0 0 90 30" fill="none" xmlns="http://www.w3.org/2000/svg">
<mask id="path-1-inside-1_1878_17339" fill="white">
<path d="M73.5508 18.8678C73.723 18.8678 73.8622 19.0072 73.8623 19.1793C73.8623 19.2534 73.8361 19.3251 73.7881 19.3815L72.0088 21.4713C70.5331 23.2042 68.3718 24.2027 66.0957 24.2028H24.1709C21.8946 24.2027 19.7326 23.2044 18.2568 21.4713L16.4785 19.3815C16.4305 19.325 16.4033 19.2534 16.4033 19.1793C16.4035 19.0071 16.5436 18.8678 16.7158 18.8678H73.5508ZM81.3457 12.7115C81.518 12.7115 81.6582 12.8517 81.6582 13.024C81.6581 13.098 81.6319 13.1699 81.584 13.2262L79.8047 15.3151C78.3289 17.0482 76.1669 18.0465 73.8906 18.0465H16.376C14.0997 18.0465 11.9377 17.0482 10.4619 15.3151L8.68262 13.2262C8.63463 13.1698 8.60847 13.0981 8.6084 13.024C8.6084 12.8519 8.74783 12.7118 8.91992 12.7115H81.3457ZM38.0137 6.55627C38.8336 6.55627 39.6086 6.93327 40.1143 7.57874C41.4855 9.3296 40.2377 11.8912 38.0137 11.8912H8.16797C5.89172 11.8912 3.72967 10.8928 2.25391 9.15979L0.474609 7.06995C0.426724 7.01356 0.400391 6.94179 0.400391 6.8678C0.400428 6.69553 0.540612 6.55627 0.712891 6.55627H38.0137ZM89.5537 6.55627C89.726 6.55627 89.8662 6.69553 89.8662 6.8678C89.8662 6.94192 89.8391 7.01351 89.791 7.06995L88.0127 9.15979C86.537 10.8929 84.3749 11.8912 82.0986 11.8912H52.252C50.0281 11.891 48.781 9.32952 50.1523 7.57874C50.6579 6.93335 51.4321 6.55637 52.252 6.55627H89.5537Z"/>
</mask>
<path d="M73.5508 18.8678C73.723 18.8678 73.8622 19.0072 73.8623 19.1793C73.8623 19.2534 73.8361 19.3251 73.7881 19.3815L72.0088 21.4713C70.5331 23.2042 68.3718 24.2027 66.0957 24.2028H24.1709C21.8946 24.2027 19.7326 23.2044 18.2568 21.4713L16.4785 19.3815C16.4305 19.325 16.4033 19.2534 16.4033 19.1793C16.4035 19.0071 16.5436 18.8678 16.7158 18.8678H73.5508ZM81.3457 12.7115C81.518 12.7115 81.6582 12.8517 81.6582 13.024C81.6581 13.098 81.6319 13.1699 81.584 13.2262L79.8047 15.3151C78.3289 17.0482 76.1669 18.0465 73.8906 18.0465H16.376C14.0997 18.0465 11.9377 17.0482 10.4619 15.3151L8.68262 13.2262C8.63463 13.1698 8.60847 13.0981 8.6084 13.024C8.6084 12.8519 8.74783 12.7118 8.91992 12.7115H81.3457ZM38.0137 6.55627C38.8336 6.55627 39.6086 6.93327 40.1143 7.57874C41.4855 9.3296 40.2377 11.8912 38.0137 11.8912H8.16797C5.89172 11.8912 3.72967 10.8928 2.25391 9.15979L0.474609 7.06995C0.426724 7.01356 0.400391 6.94179 0.400391 6.8678C0.400428 6.69553 0.540612 6.55627 0.712891 6.55627H38.0137ZM89.5537 6.55627C89.726 6.55627 89.8662 6.69553 89.8662 6.8678C89.8662 6.94192 89.8391 7.01351 89.791 7.06995L88.0127 9.15979C86.537 10.8929 84.3749 11.8912 82.0986 11.8912H52.252C50.0281 11.891 48.781 9.32952 50.1523 7.57874C50.6579 6.93335 51.4321 6.55637 52.252 6.55627H89.5537Z" fill="url(#paint0_linear_1878_17339)"/>
<path d="M73.5508 18.8678L73.551 17.9558H73.5508V18.8678ZM73.8623 19.1793H74.7743V19.1786L73.8623 19.1793ZM73.7881 19.3815L74.4825 19.9727L74.4828 19.9723L73.7881 19.3815ZM72.0088 21.4713L72.7031 22.0626L72.7032 22.0625L72.0088 21.4713ZM66.0957 24.2028V25.1148H66.0957L66.0957 24.2028ZM24.1709 24.2028L24.1709 25.1148H24.1709V24.2028ZM18.2568 21.4713L17.5623 22.0623L17.5625 22.0626L18.2568 21.4713ZM16.4785 19.3815L17.1731 18.7904L17.173 18.7903L16.4785 19.3815ZM16.4033 19.1793L15.4913 19.1786V19.1793H16.4033ZM81.6582 13.024L82.5702 13.025V13.024H81.6582ZM81.584 13.2262L82.2783 13.8176L82.2786 13.8172L81.584 13.2262ZM79.8047 15.3151L79.1104 14.7237L79.1103 14.7238L79.8047 15.3151ZM10.4619 15.3151L11.1563 14.7238L11.1562 14.7237L10.4619 15.3151ZM8.68262 13.2262L7.98823 13.8174L7.98835 13.8176L8.68262 13.2262ZM8.6084 13.024H7.6964L7.6964 13.025L8.6084 13.024ZM8.91992 12.7115V11.7995L8.91862 11.7995L8.91992 12.7115ZM40.1143 7.57874L40.8323 7.0164L40.8322 7.01632L40.1143 7.57874ZM2.25391 9.15979L1.5595 9.75101L1.55955 9.75107L2.25391 9.15979ZM0.474609 7.06995L-0.22055 7.66028L-0.219799 7.66117L0.474609 7.06995ZM0.400391 6.8678L-0.511609 6.8676V6.8678H0.400391ZM89.8662 6.8678H90.7782V6.8676L89.8662 6.8678ZM89.791 7.06995L89.0966 6.4787L89.0965 6.47891L89.791 7.06995ZM88.0127 9.15979L88.7071 9.75106L88.7073 9.75082L88.0127 9.15979ZM82.0986 11.8912V12.8032H82.0986L82.0986 11.8912ZM52.252 11.8912L52.2519 12.8032H52.252V11.8912ZM50.1523 7.57874L49.4344 7.01632L49.4344 7.01637L50.1523 7.57874ZM52.252 6.55627V5.64427H52.2519L52.252 6.55627ZM73.5508 18.8678L73.5506 19.7798C73.2187 19.7797 72.9506 19.5104 72.9503 19.1801L73.8623 19.1793L74.7743 19.1786C74.7737 18.5039 74.2273 17.9559 73.551 17.9558L73.5508 18.8678ZM73.8623 19.1793H72.9503C72.9503 19.0379 73.0005 18.8999 73.0934 18.7906L73.7881 19.3815L74.4828 19.9723C74.6717 19.7502 74.7743 19.4689 74.7743 19.1793H73.8623ZM73.7881 19.3815L73.0937 18.7902L71.3144 20.8801L72.0088 21.4713L72.7032 22.0625L74.4825 19.9727L73.7881 19.3815ZM72.0088 21.4713L71.3144 20.88C70.012 22.4094 68.1044 23.2907 66.0957 23.2908L66.0957 24.2028L66.0957 25.1148C68.6391 25.1147 71.0542 23.9989 72.7031 22.0626L72.0088 21.4713ZM66.0957 24.2028V23.2908H24.1709V24.2028V25.1148H66.0957V24.2028ZM24.1709 24.2028L24.1709 23.2908C22.1618 23.2907 20.2536 22.4096 18.9512 20.8801L18.2568 21.4713L17.5625 22.0626C19.2115 23.9993 21.6274 25.1147 24.1709 25.1148L24.1709 24.2028ZM18.2568 21.4713L18.9514 20.8803L17.1731 18.7904L16.4785 19.3815L15.7839 19.9725L17.5623 22.0623L18.2568 21.4713ZM16.4785 19.3815L17.173 18.7903C17.261 18.8937 17.3153 19.0301 17.3153 19.1793H16.4033H15.4913C15.4913 19.4768 15.6 19.7564 15.784 19.9726L16.4785 19.3815ZM16.4033 19.1793L17.3153 19.1801C17.315 19.514 17.0443 19.7798 16.7158 19.7798V18.8678V17.9558C16.0429 17.9558 15.4919 18.5003 15.4913 19.1786L16.4033 19.1793ZM16.7158 18.8678V19.7798H73.5508V18.8678V17.9558H16.7158V18.8678ZM81.3457 12.7115V13.6235C81.0143 13.6235 80.7462 13.3554 80.7462 13.024H81.6582H82.5702C82.5702 12.3481 82.0217 11.7995 81.3457 11.7995V12.7115ZM81.6582 13.024L80.7462 13.0231C80.7463 12.883 80.7958 12.7452 80.8894 12.6352L81.584 13.2262L82.2786 13.8172C82.4681 13.5945 82.5699 13.313 82.5702 13.025L81.6582 13.024ZM81.584 13.2262L80.8897 12.6348L79.1104 14.7237L79.8047 15.3151L80.499 15.9064L82.2783 13.8176L81.584 13.2262ZM79.8047 15.3151L79.1103 14.7238C77.8079 16.2534 75.8998 17.1345 73.8906 17.1345V18.0465V18.9585C76.4341 18.9585 78.85 17.843 80.4991 15.9063L79.8047 15.3151ZM73.8906 18.0465V17.1345H16.376V18.0465V18.9585H73.8906V18.0465ZM16.376 18.0465V17.1345C14.3668 17.1345 12.4587 16.2534 11.1563 14.7238L10.4619 15.3151L9.76754 15.9063C11.4166 17.843 13.8325 18.9585 16.376 18.9585V18.0465ZM10.4619 15.3151L11.1562 14.7237L9.37689 12.6348L8.68262 13.2262L7.98835 13.8176L9.76764 15.9064L10.4619 15.3151ZM8.68262 13.2262L9.377 12.6349C9.47091 12.7452 9.52025 12.8833 9.5204 13.0231L8.6084 13.024L7.6964 13.025C7.69669 13.3128 7.79835 13.5944 7.98823 13.8174L8.68262 13.2262ZM8.6084 13.024H9.5204C9.5204 13.3532 9.25422 13.6231 8.92122 13.6235L8.91992 12.7115L8.91862 11.7995C8.24144 11.8005 7.6964 12.3506 7.6964 13.024H8.6084ZM8.91992 12.7115V13.6235H81.3457V12.7115V11.7995H8.91992V12.7115ZM38.0137 6.55627V7.46827C38.5536 7.46827 39.0637 7.71659 39.3963 8.14115L40.1143 7.57874L40.8322 7.01632C40.1535 6.14996 39.1136 5.64427 38.0137 5.64427V6.55627ZM40.1143 7.57874L39.3963 8.14107C40.2986 9.29315 39.4776 10.9792 38.0137 10.9792V11.8912V12.8032C40.9978 12.8032 42.6725 9.36604 40.8323 7.0164L40.1143 7.57874ZM38.0137 11.8912V10.9792H8.16797V11.8912V12.8032H38.0137V11.8912ZM8.16797 11.8912V10.9792C6.15892 10.9792 4.25071 10.098 2.94827 8.56851L2.25391 9.15979L1.55955 9.75107C3.20863 11.6876 5.62452 12.8032 8.16797 12.8032V11.8912ZM2.25391 9.15979L2.94831 8.56857L1.16902 6.47873L0.474609 7.06995L-0.219799 7.66117L1.5595 9.75101L2.25391 9.15979ZM0.474609 7.06995L1.16977 6.47961C1.26204 6.58827 1.31239 6.72579 1.31239 6.8678H0.400391H-0.511609C-0.511609 7.15778 -0.408596 7.43885 -0.22055 7.66028L0.474609 7.06995ZM0.400391 6.8678L1.31239 6.868C1.31232 7.20277 1.04077 7.46827 0.712891 7.46827V6.55627V5.64427C0.0404533 5.64427 -0.511461 6.18828 -0.511609 6.8676L0.400391 6.8678ZM0.712891 6.55627V7.46827H38.0137V6.55627V5.64427H0.712891V6.55627ZM89.5537 6.55627V7.46827C89.2258 7.46827 88.9543 7.20277 88.9542 6.868L89.8662 6.8678L90.7782 6.8676C90.7781 6.18828 90.2262 5.64427 89.5537 5.64427V6.55627ZM89.8662 6.8678H88.9542C88.9542 6.7187 89.0085 6.58218 89.0966 6.4787L89.791 7.06995L90.4854 7.66119C90.6696 7.44484 90.7782 7.16515 90.7782 6.8678H89.8662ZM89.791 7.06995L89.0965 6.47891L87.3181 8.56876L88.0127 9.15979L88.7073 9.75082L90.4856 7.66098L89.791 7.06995ZM88.0127 9.15979L87.3183 8.56852C86.0159 10.098 84.1077 10.9792 82.0986 10.9792L82.0986 11.8912L82.0986 12.8032C84.6421 12.8032 87.058 11.6877 88.7071 9.75106L88.0127 9.15979ZM82.0986 11.8912V10.9792H52.252V11.8912V12.8032H82.0986V11.8912ZM52.252 11.8912L52.252 10.9792C50.7886 10.9791 49.9678 9.29341 50.8703 8.1411L50.1523 7.57874L49.4344 7.01637C47.5943 9.36563 49.2675 12.8029 52.2519 12.8032L52.252 11.8912ZM50.1523 7.57874L50.8703 8.14115C51.203 7.71644 51.7125 7.46833 52.2521 7.46827L52.252 6.55627L52.2519 5.64427C51.1518 5.6444 50.1129 6.15027 49.4344 7.01632L50.1523 7.57874ZM52.252 6.55627V7.46827H89.5537V6.55627V5.64427H52.252V6.55627Z" fill="black" mask="url(#path-1-inside-1_1878_17339)"/>
<circle cx="45.1347" cy="14.7644" r="13.908" fill="#CCC8AC" stroke="black" stroke-width="0.912"/>
<path d="M45.1353 3.72876C50.9953 3.7289 55.7603 8.56976 55.7603 14.5588C55.7603 20.5479 50.9952 25.3888 45.1353 25.3889C39.2753 25.3889 34.5104 20.5479 34.5103 14.5588C34.5103 8.56967 39.2753 3.72876 45.1353 3.72876Z" fill="#595752" stroke="black" stroke-width="0.912"/>
<path d="M40.0721 20.5742C40.2822 17.5684 41.7851 16.518 45.0494 14.6273C46.3907 13.8355 47.9259 13.0113 47.9259 11.7023C47.9259 10.6035 46.8432 9.77929 45.0979 9.77929C43.0294 9.77929 41.7689 10.9913 41.7689 12.7527L39.7813 12.4295C39.7813 9.81161 41.979 7.93705 45.1464 7.93705C47.9905 7.93705 50.1237 9.42377 50.1237 11.6862C50.1237 13.4638 48.7339 14.6273 47.231 15.4676C45.211 16.615 43.3041 17.1644 42.4477 19.1683C45.1949 18.9097 47.635 18.9097 50.0752 18.9097V20.8004H40.0721V20.5742Z" fill="#DED5BE"/>
<defs>
<linearGradient id="paint0_linear_1878_17339" x1="44.8594" y1="15.2209" x2="44.8594" y2="38.0207" gradientUnits="userSpaceOnUse">
<stop stop-color="#D7D0B8"/>
<stop offset="1" stop-color="#51504C"/>
</linearGradient>
</defs>
</svg>
