<svg width="90" height="29" viewBox="0 0 90 29" fill="none" xmlns="http://www.w3.org/2000/svg">
<mask id="path-1-inside-1_1878_17350" fill="white">
<path d="M73.1504 18.4678C73.3226 18.4679 73.4619 18.6081 73.4619 18.7803C73.4618 18.8543 73.4357 18.9261 73.3877 18.9824L71.6084 21.0713C70.1326 22.8044 67.9706 23.8027 65.6943 23.8027H23.7705C21.4942 23.8027 19.3322 22.8044 17.8564 21.0713L16.0771 18.9824C16.0292 18.9261 16.003 18.8542 16.0029 18.7803C16.0029 18.608 16.1431 18.4678 16.3154 18.4678H73.1504ZM80.9453 12.3125C81.1176 12.3125 81.2578 12.4518 81.2578 12.624C81.2578 12.6981 81.2307 12.7697 81.1826 12.8262L79.4043 14.916C77.9286 16.6491 75.7665 17.6474 73.4902 17.6475H15.9756C13.6994 17.6475 11.5373 16.6489 10.0615 14.916L8.28223 12.8262C8.23424 12.7698 8.20801 12.6981 8.20801 12.624C8.20805 12.4518 8.34737 12.3126 8.51953 12.3125H80.9453ZM37.6133 6.15625C38.4332 6.15625 39.2082 6.53325 39.7139 7.17871C41.0853 8.92958 39.8374 11.4912 37.6133 11.4912H7.76758C5.49127 11.4912 3.32928 10.4929 1.85352 8.75977L0.0742188 6.6709C0.026165 6.61446 0 6.5419 0 6.46777C0.000248323 6.29583 0.139583 6.15649 0.311523 6.15625H37.6133ZM89.1533 6.15625C89.3254 6.15629 89.4646 6.2957 89.4648 6.46777C89.4648 6.5419 89.4387 6.61446 89.3906 6.6709L87.6113 8.75977C86.1356 10.4927 83.9744 11.4911 81.6982 11.4912H51.8516C49.6275 11.4911 48.3804 8.92955 49.752 7.17871C50.2576 6.53338 51.0317 6.15628 51.8516 6.15625H89.1533Z"/>
</mask>
<path d="M73.1504 18.4678C73.3226 18.4679 73.4619 18.6081 73.4619 18.7803C73.4618 18.8543 73.4357 18.9261 73.3877 18.9824L71.6084 21.0713C70.1326 22.8044 67.9706 23.8027 65.6943 23.8027H23.7705C21.4942 23.8027 19.3322 22.8044 17.8564 21.0713L16.0771 18.9824C16.0292 18.9261 16.003 18.8542 16.0029 18.7803C16.0029 18.608 16.1431 18.4678 16.3154 18.4678H73.1504ZM80.9453 12.3125C81.1176 12.3125 81.2578 12.4518 81.2578 12.624C81.2578 12.6981 81.2307 12.7697 81.1826 12.8262L79.4043 14.916C77.9286 16.6491 75.7665 17.6474 73.4902 17.6475H15.9756C13.6994 17.6475 11.5373 16.6489 10.0615 14.916L8.28223 12.8262C8.23424 12.7698 8.20801 12.6981 8.20801 12.624C8.20805 12.4518 8.34737 12.3126 8.51953 12.3125H80.9453ZM37.6133 6.15625C38.4332 6.15625 39.2082 6.53325 39.7139 7.17871C41.0853 8.92958 39.8374 11.4912 37.6133 11.4912H7.76758C5.49127 11.4912 3.32928 10.4929 1.85352 8.75977L0.0742188 6.6709C0.026165 6.61446 0 6.5419 0 6.46777C0.000248323 6.29583 0.139583 6.15649 0.311523 6.15625H37.6133ZM89.1533 6.15625C89.3254 6.15629 89.4646 6.2957 89.4648 6.46777C89.4648 6.5419 89.4387 6.61446 89.3906 6.6709L87.6113 8.75977C86.1356 10.4927 83.9744 11.4911 81.6982 11.4912H51.8516C49.6275 11.4911 48.3804 8.92955 49.752 7.17871C50.2576 6.53338 51.0317 6.15628 51.8516 6.15625H89.1533Z" fill="url(#paint0_linear_1878_17350)"/>
<path d="M73.1504 18.4678L73.1511 17.5558H73.1504V18.4678ZM73.4619 18.7803L74.3739 18.7812V18.7803H73.4619ZM73.3877 18.9824L74.082 19.5738L74.0821 19.5737L73.3877 18.9824ZM71.6084 21.0713L70.9141 20.4799L70.914 20.48L71.6084 21.0713ZM17.8564 21.0713L18.5508 20.48L18.5507 20.4799L17.8564 21.0713ZM16.0771 18.9824L15.3826 19.5734L15.3829 19.5738L16.0771 18.9824ZM16.0029 18.7803H15.0909L15.0909 18.7812L16.0029 18.7803ZM81.2578 12.624H82.1698V12.6238L81.2578 12.624ZM81.1826 12.8262L80.4882 12.2349L80.4881 12.2351L81.1826 12.8262ZM79.4043 14.916L80.0987 15.5073L80.0989 15.507L79.4043 14.916ZM73.4902 17.6475V18.5595H73.4902L73.4902 17.6475ZM10.0615 14.916L9.36712 15.5072L9.36718 15.5073L10.0615 14.916ZM8.28223 12.8262L7.58754 13.4171L7.58782 13.4174L8.28223 12.8262ZM8.20801 12.624L7.29601 12.6238V12.624H8.20801ZM8.51953 12.3125V11.4005L8.51879 11.4005L8.51953 12.3125ZM39.7139 7.17871L40.4318 6.61633L40.4318 6.61629L39.7139 7.17871ZM1.85352 8.75977L2.54789 8.1685L2.54779 8.16839L1.85352 8.75977ZM0.0742188 6.6709L-0.620166 7.26215L-0.620053 7.26228L0.0742188 6.6709ZM0 6.46777L-0.912 6.46646V6.46777H0ZM0.311523 6.15625V5.24425L0.310225 5.24425L0.311523 6.15625ZM89.1533 6.15625L89.1535 5.24425H89.1533V6.15625ZM89.4648 6.46777H90.3768V6.46645L89.4648 6.46777ZM89.3906 6.6709L90.0849 7.26228L90.085 7.26215L89.3906 6.6709ZM87.6113 8.75977L86.9171 8.16839L86.917 8.16848L87.6113 8.75977ZM81.6982 11.4912V12.4032H81.6983L81.6982 11.4912ZM51.8516 11.4912L51.8515 12.4032H51.8516V11.4912ZM49.752 7.17871L49.0341 6.61624L49.034 6.61629L49.752 7.17871ZM51.8516 6.15625V5.24425H51.8515L51.8516 6.15625ZM73.1504 18.4678L73.1497 19.3798C72.8158 19.3795 72.5499 19.1088 72.5499 18.7803H73.4619H74.3739C74.3739 18.1073 73.8294 17.5563 73.1511 17.5558L73.1504 18.4678ZM73.4619 18.7803L72.5499 18.7793C72.5501 18.6395 72.5994 18.5015 72.6933 18.3912L73.3877 18.9824L74.0821 19.5737C74.272 19.3507 74.3736 19.069 74.3739 18.7812L73.4619 18.7803ZM73.3877 18.9824L72.6934 18.391L70.9141 20.4799L71.6084 21.0713L72.3027 21.6627L74.082 19.5738L73.3877 18.9824ZM71.6084 21.0713L70.914 20.48C69.6116 22.0096 67.7035 22.8907 65.6943 22.8907V23.8027V24.7147C68.2378 24.7147 70.6537 23.5992 72.3028 21.6625L71.6084 21.0713ZM65.6943 23.8027V22.8907H23.7705V23.8027V24.7147H65.6943V23.8027ZM23.7705 23.8027V22.8907C21.7614 22.8907 19.8532 22.0096 18.5508 20.48L17.8564 21.0713L17.1621 21.6625C18.8112 23.5992 21.227 24.7147 23.7705 24.7147V23.8027ZM17.8564 21.0713L18.5507 20.4799L16.7714 18.391L16.0771 18.9824L15.3829 19.5738L17.1622 21.6627L17.8564 21.0713ZM16.0771 18.9824L16.7717 18.3914C16.8653 18.5014 16.9148 18.6393 16.9149 18.7793L16.0029 18.7803L15.0909 18.7812C15.0912 19.0692 15.1931 19.3507 15.3826 19.5734L16.0771 18.9824ZM16.0029 18.7803H16.9149C16.9149 19.1117 16.6468 19.3798 16.3154 19.3798V18.4678V17.5558C15.6394 17.5558 15.0909 18.1043 15.0909 18.7803H16.0029ZM16.3154 18.4678V19.3798H73.1504V18.4678V17.5558H16.3154V18.4678ZM80.9453 12.3125V13.2245C80.6174 13.2245 80.3459 12.959 80.3458 12.6242L81.2578 12.624L82.1698 12.6238C82.1697 11.9445 81.6178 11.4005 80.9453 11.4005V12.3125ZM81.2578 12.624H80.3458C80.3458 12.4749 80.4001 12.3384 80.4882 12.2349L81.1826 12.8262L81.877 13.4174C82.0612 13.2011 82.1698 12.9214 82.1698 12.624H81.2578ZM81.1826 12.8262L80.4881 12.2351L78.7097 14.325L79.4043 14.916L80.0989 15.507L81.8772 13.4172L81.1826 12.8262ZM79.4043 14.916L78.7099 14.3247C77.4075 15.8543 75.4993 16.7354 73.4902 16.7355L73.4902 17.6475L73.4902 18.5595C76.0337 18.5594 78.4496 17.4439 80.0987 15.5073L79.4043 14.916ZM73.4902 17.6475V16.7355H15.9756V17.6475V18.5595H73.4902V17.6475ZM15.9756 17.6475V16.7355C13.9666 16.7355 12.0583 15.8541 10.7559 14.3247L10.0615 14.916L9.36718 15.5073C11.0162 17.4437 13.4322 18.5595 15.9756 18.5595V17.6475ZM10.0615 14.916L10.7559 14.3248L8.97663 12.235L8.28223 12.8262L7.58782 13.4174L9.36712 15.5072L10.0615 14.916ZM8.28223 12.8262L8.97691 12.2353C9.06988 12.3446 9.12001 12.4826 9.12001 12.624H8.20801H7.29601C7.29601 12.9136 7.39859 13.1949 7.58754 13.4171L8.28223 12.8262ZM8.20801 12.624L9.12001 12.6242C9.11994 12.9561 8.85067 13.2242 8.52027 13.2245L8.51953 12.3125L8.51879 11.4005C7.84407 11.4011 7.29616 11.9476 7.29601 12.6238L8.20801 12.624ZM8.51953 12.3125V13.2245H80.9453V12.3125V11.4005H8.51953V12.3125ZM37.6133 6.15625V7.06825C38.1532 7.06825 38.6633 7.31656 38.9959 7.74113L39.7139 7.17871L40.4318 6.61629C39.7531 5.74994 38.7133 5.24425 37.6133 5.24425V6.15625ZM39.7139 7.17871L38.9959 7.74109C39.8983 8.89308 39.0774 10.5792 37.6133 10.5792V11.4912V12.4032C40.5974 12.4032 42.2724 8.96607 40.4318 6.61633L39.7139 7.17871ZM37.6133 11.4912V10.5792H7.76758V11.4912V12.4032H37.6133V11.4912ZM7.76758 11.4912V10.5792C5.75846 10.5792 3.85032 9.69806 2.54789 8.1685L1.85352 8.75977L1.15914 9.35103C2.80824 11.2877 5.22408 12.4032 7.76758 12.4032V11.4912ZM1.85352 8.75977L2.54779 8.16839L0.76849 6.07952L0.0742188 6.6709L-0.620053 7.26228L1.15924 9.35115L1.85352 8.75977ZM0.0742188 6.6709L0.768604 6.07965C0.863927 6.1916 0.912 6.32975 0.912 6.46777H0H-0.912C-0.912 6.75405 -0.811597 7.03732 -0.620166 7.26215L0.0742188 6.6709ZM0 6.46777L0.911999 6.46909C0.911521 6.79979 0.643566 7.06778 0.312822 7.06825L0.311523 6.15625L0.310225 5.24425C-0.3644 5.24521 -0.911025 5.79188 -0.911999 6.46646L0 6.46777ZM0.311523 6.15625V7.06825H37.6133V6.15625V5.24425H0.311523V6.15625ZM89.1533 6.15625L89.1531 7.06825C88.8206 7.06818 88.5533 6.79855 88.5528 6.46909L89.4648 6.46777L90.3768 6.46645C90.3759 5.79286 89.8303 5.24439 89.1535 5.24425L89.1533 6.15625ZM89.4648 6.46777H88.5528C88.5528 6.32975 88.6009 6.1916 88.6962 6.07965L89.3906 6.6709L90.085 7.26215C90.2764 7.03732 90.3768 6.75405 90.3768 6.46777H89.4648ZM89.3906 6.6709L88.6964 6.07952L86.9171 8.16839L87.6113 8.75977L88.3056 9.35115L90.0849 7.26228L89.3906 6.6709ZM87.6113 8.75977L86.917 8.16848C85.6145 9.69796 83.707 10.5791 81.6982 10.5792L81.6982 11.4912L81.6983 12.4032C84.2417 12.4031 86.6567 11.2874 88.3057 9.35105L87.6113 8.75977ZM81.6982 11.4912V10.5792H51.8516V11.4912V12.4032H81.6982V11.4912ZM51.8516 11.4912L51.8516 10.5792C50.388 10.5792 49.5672 8.89347 50.4699 7.74113L49.752 7.17871L49.034 6.61629C47.1936 8.96563 48.867 12.4031 51.8515 12.4032L51.8516 11.4912ZM49.752 7.17871L50.4698 7.74118C50.8027 7.31639 51.3122 7.06827 51.8516 7.06825L51.8516 6.15625L51.8515 5.24425C50.7513 5.24429 49.7125 5.75037 49.0341 6.61624L49.752 7.17871ZM51.8516 6.15625V7.06825H89.1533V6.15625V5.24425H51.8516V6.15625Z" fill="black" mask="url(#path-1-inside-1_1878_17350)"/>
<circle cx="44.7333" cy="14.3644" r="13.908" fill="#F8B094" stroke="black" stroke-width="0.912"/>
<path d="M44.734 3.32874C50.594 3.32888 55.359 8.16973 55.359 14.1588C55.3589 20.1478 50.5939 24.9888 44.734 24.9889C38.874 24.9889 34.1091 20.1479 34.109 14.1588C34.109 8.16965 38.8739 3.32874 44.734 3.32874Z" fill="#B35C32" stroke="black" stroke-width="0.912"/>
<path d="M44.7132 21.2614C42.1955 21.2614 40.0462 20.1867 39.4475 18.5287L41.1976 17.6843C41.5507 18.4059 42.6714 19.4805 44.6825 19.4805C46.4019 19.4805 47.6147 18.759 47.6147 17.5922C47.6147 16.5022 46.5861 15.6886 44.5443 15.6886H43.0859V14.1227H44.5136C46.2331 14.1227 47.2156 13.3704 47.2156 12.3418C47.2156 11.2365 46.0642 10.5457 44.4983 10.5457C42.9938 10.5457 41.827 11.2518 41.5967 12.5568L39.7545 12.173C40.0615 10.2693 42.0113 8.78017 44.6825 8.78017C47.1542 8.78017 49.3342 10.0083 49.3342 12.0194C49.3342 13.3397 48.3516 14.4144 46.6015 14.5986V14.8442C48.5052 14.9824 49.764 15.9649 49.764 17.5462C49.764 19.4038 48.0139 21.2614 44.7132 21.2614Z" fill="#F8D8C6"/>
<defs>
<linearGradient id="paint0_linear_1878_17350" x1="44.4586" y1="14.8209" x2="44.4586" y2="37.6207" gradientUnits="userSpaceOnUse">
<stop stop-color="#F7A98B"/>
<stop offset="1" stop-color="#B55D33"/>
</linearGradient>
</defs>
</svg>
