<svg width="36" height="36" viewBox="0 0 36 36" fill="none" xmlns="http://www.w3.org/2000/svg">
<path fill-rule="evenodd" clip-rule="evenodd" d="M21.9333 1.678C19.696 -0.559335 16.0685 -0.559335 13.8312 1.678L1.678 13.8312C-0.559335 16.0685 -0.559335 19.696 1.678 21.9333L13.8312 34.0865C16.0685 36.3238 19.696 36.3238 21.9333 34.0865L34.0865 21.9333C36.3238 19.696 36.3238 16.0685 34.0865 13.8312L21.9333 1.678ZM12.9275 19.0632C12.9251 19.4814 12.9324 19.9021 12.9759 20.3203C12.9833 20.3883 12.9926 20.4563 13.0019 20.524C13.0107 20.5886 13.0196 20.6531 13.0267 20.7168C12.9918 20.74 12.957 20.7384 12.9222 20.7369C12.9201 20.7368 12.918 20.7367 12.9159 20.7366C12.9093 20.7363 12.9027 20.7361 12.8961 20.7361H11.4045C11.3981 20.7361 11.3916 20.7358 11.3852 20.7356C11.3723 20.735 11.3594 20.7345 11.3465 20.7361C11.2836 20.7434 11.2643 20.7119 11.2619 20.6515C11.2575 20.5273 11.2506 20.4039 11.2437 20.2803L11.2437 20.28C11.239 20.1969 11.2343 20.1138 11.2304 20.0302C11.2289 19.9973 11.2293 19.9644 11.2299 19.9275C11.2302 19.9075 11.2304 19.8863 11.2304 19.8634C11.1698 19.8842 11.1478 19.9214 11.1271 19.9563C11.1214 19.9659 11.1158 19.9754 11.1096 19.9843C10.8654 20.3324 10.5656 20.608 10.1571 20.753C9.90324 20.8449 9.63973 20.8787 9.3738 20.8715C8.987 20.8618 8.60745 20.7965 8.25449 20.6225C7.75165 20.3759 7.43979 19.9867 7.34793 19.4282C7.34067 19.3847 7.33342 19.3412 7.29474 19.3122V18.877C7.33751 18.8546 7.34253 18.8134 7.34739 18.7735C7.34795 18.7689 7.34851 18.7643 7.34912 18.7598C7.3495 18.7569 7.3499 18.7541 7.35034 18.7513C7.43737 18.2412 7.72264 17.8689 8.16504 17.6151C8.51317 17.4144 8.89513 17.3105 9.28919 17.2525C9.85972 17.1679 10.4327 17.1606 11.0056 17.2452C11.1217 17.2621 11.1313 17.2549 11.1192 17.1364C11.0854 16.8077 10.9355 16.5611 10.6285 16.4209C10.4834 16.3532 10.3287 16.3121 10.1692 16.3C9.54061 16.254 8.92414 16.3169 8.33669 16.5611C8.2881 16.5821 8.24094 16.6045 8.19405 16.6268L8.19388 16.6269C8.15449 16.6456 8.1153 16.6643 8.0756 16.6819C8.04131 16.6629 8.04455 16.6348 8.04746 16.6096C8.04824 16.6028 8.049 16.5962 8.049 16.5901L8.04826 16.5626C8.03884 16.2141 8.02948 15.8677 8.02241 15.5191C8.02001 15.3968 8.02238 15.3958 8.13112 15.3533L8.13362 15.3523C8.60987 15.1686 9.10546 15.067 9.61313 15.0235C9.98301 14.9921 10.3529 14.98 10.7252 15.0211C11.1555 15.0695 11.5689 15.171 11.946 15.3958C12.4851 15.7174 12.7801 16.1984 12.8889 16.8052C12.9203 16.972 12.9275 17.1413 12.9275 17.3105V19.0632ZM9.15139 19.1309C9.22392 19.3605 9.39798 19.4863 9.62039 19.5394C10.5294 19.7619 11.0951 19.0076 11.1241 18.3234C11.1265 18.2703 11.1096 18.2461 11.0516 18.2437C10.9382 18.2388 10.8254 18.2334 10.7126 18.228L10.7119 18.2279C10.5989 18.2225 10.4859 18.2171 10.3722 18.2122C10.2272 18.205 10.0821 18.2219 9.9395 18.2412C9.7461 18.2654 9.55995 18.3162 9.39798 18.4298C9.17073 18.5869 9.06919 18.8722 9.15139 19.1309ZM18.1566 16.7085C18.0889 16.6747 18.0261 16.6433 17.9584 16.6143C17.5232 16.4209 17.0687 16.358 16.6022 16.4668C16.0099 16.607 15.6086 17.0712 15.5264 17.6731C15.4853 17.9705 15.4949 18.263 15.6182 18.5386C15.8503 19.0584 16.271 19.3388 16.8197 19.4282C17.2791 19.5008 17.7239 19.4258 18.1542 19.259C18.1742 19.2512 18.1943 19.2429 18.2138 19.2348C18.2368 19.2253 18.259 19.2161 18.2799 19.2083C18.3095 19.2162 18.3101 19.2321 18.3107 19.2469C18.3107 19.2491 18.3108 19.2512 18.311 19.2532C18.3111 19.2544 18.3112 19.2555 18.3113 19.2566C18.3153 19.3955 18.3191 19.5341 18.3228 19.6726C18.3303 19.9537 18.3379 20.2344 18.3476 20.5161C18.35 20.5983 18.3234 20.6346 18.2437 20.6588C17.9415 20.7482 17.6344 20.8062 17.3226 20.8425C16.7303 20.9102 16.1453 20.8739 15.5747 20.7023C14.9268 20.5065 14.3829 20.1583 13.9913 19.5975C13.7205 19.2083 13.5779 18.7731 13.5247 18.3041C13.4739 17.8351 13.515 17.3782 13.6649 16.9334C13.9356 16.1404 14.4844 15.6037 15.2508 15.287C15.8358 15.0453 16.4499 14.9704 17.0808 15.0139C17.4604 15.0405 17.8278 15.1082 18.1784 15.2556C18.3117 15.3118 18.3115 15.3136 18.2982 15.4428L18.2968 15.4563C18.2606 15.8068 18.2267 16.1574 18.1929 16.5079C18.1921 16.5187 18.1914 16.5297 18.1908 16.5408C18.1878 16.5942 18.1846 16.6505 18.1566 16.7085ZM20.85 16.0874C20.8398 16.1101 20.828 16.1362 20.7796 16.1404V15.2701C20.7796 15.1372 20.7796 15.1347 20.6467 15.1347H19.1551C19.0197 15.1347 19.0173 15.1347 19.0173 15.2677V20.6152C19.0173 20.7385 19.0197 20.7409 19.1454 20.7409H20.8256C20.9512 20.7409 20.9513 20.7385 20.9537 20.6154L20.9537 18.3259C20.9537 18.1131 20.9706 17.9028 21.0093 17.6925C21.0552 17.4338 21.135 17.1872 21.2946 16.972C21.5363 16.6481 21.9279 16.5659 22.2519 16.636C22.513 16.6916 22.6604 16.8802 22.7475 17.1195C22.8224 17.325 22.8393 17.5426 22.8393 17.7602V20.5572C22.8393 20.5685 22.8396 20.5798 22.8399 20.5911C22.8404 20.6136 22.841 20.6362 22.8393 20.6588C22.8345 20.724 22.8684 20.7434 22.9264 20.7385C22.9425 20.7369 22.9586 20.7375 22.9747 20.738C22.9828 20.7383 22.9908 20.7385 22.9989 20.7385H24.7081C24.7564 20.7409 24.7782 20.7168 24.7758 20.6684C24.7742 20.6459 24.7747 20.6233 24.7752 20.6007C24.7755 20.5895 24.7758 20.5782 24.7758 20.5669C24.7758 20.3299 24.776 20.0931 24.7763 19.8565C24.7768 19.3835 24.7774 18.9108 24.7758 18.4371C24.7758 18.2292 24.7806 18.0212 24.8096 17.8158C24.8435 17.5692 24.9015 17.3323 25.0224 17.1123C25.1384 16.9044 25.298 16.74 25.5325 16.6674C26.0619 16.5055 26.4704 16.6868 26.6058 17.2452C26.6421 17.3975 26.659 17.5498 26.659 17.7046V20.6757C26.659 20.7144 26.6735 20.7385 26.717 20.7385H28.4407C28.5245 20.7385 28.5633 20.7409 28.581 20.7227C28.5991 20.7042 28.5954 20.6644 28.5954 20.579C28.5954 20.2582 28.5952 19.9376 28.5949 19.6172C28.5944 18.9765 28.5938 18.3362 28.5954 17.6949C28.5954 17.4338 28.5882 17.1751 28.5737 16.914C28.5616 16.6674 28.5229 16.4233 28.4552 16.1864C28.2787 15.5578 27.8702 15.1783 27.2295 15.055C26.8959 14.9921 26.5599 14.9752 26.2214 15.026C25.7259 15.1009 25.2907 15.2991 24.9353 15.6642C24.8461 15.7552 24.7706 15.8572 24.6954 15.9588C24.6708 15.9921 24.6461 16.0254 24.621 16.0582C24.5888 16.0336 24.5744 16.0014 24.5603 15.97C24.5565 15.9614 24.5527 15.9529 24.5485 15.9446C24.3455 15.5385 24.0288 15.2653 23.6033 15.1178C23.1657 14.9655 22.7209 14.9631 22.2736 15.055C21.6523 15.1831 21.1616 15.5046 20.8546 16.0776C20.853 16.0807 20.8515 16.084 20.85 16.0874Z" fill="#1E1E1E"/>
</svg>
