<svg width="284" height="64" viewBox="0 0 284 64" fill="none" xmlns="http://www.w3.org/2000/svg">
<path d="M4.94005 0.399902H0.333008V63.8666H4.94005V0.399902Z" fill="#2D343F"/>
<path d="M9.54668 0.399902H7.24316V63.8666H9.54668V0.399902Z" fill="#2D343F"/>
<path d="M16.4578 0.399902H14.1543V63.8666H16.4578V0.399902Z" fill="#2D343F"/>
<path d="M27.9759 0.399902H25.6724V63.8666H27.9759V0.399902Z" fill="#2D343F"/>
<path d="M37.1896 0.399902H32.5825V63.8666H37.1896V0.399902Z" fill="#2D343F"/>
<path d="M48.7068 0.399902H46.4033V63.8666H48.7068V0.399902Z" fill="#2D343F"/>
<path d="M55.6178 0.399902H51.0107V63.8666H55.6178V0.399902Z" fill="#2D343F"/>
<path d="M62.5284 0.399902H57.9214V63.8666H62.5284V0.399902Z" fill="#2D343F"/>
<path d="M74.0456 0.399902H64.8315V63.8666H74.0456V0.399902Z" fill="#2D343F"/>
<path d="M78.6522 0.399902H76.3486V63.8666H78.6522V0.399902Z" fill="#2D343F"/>
<path d="M83.2591 0.399902H80.9556V63.8666H83.2591V0.399902Z" fill="#2D343F"/>
<path d="M97.0808 0.399902H87.8667V63.8666H97.0808V0.399902Z" fill="#2D343F"/>
<path d="M103.992 0.399902H101.688V63.8666H103.992V0.399902Z" fill="#2D343F"/>
<path d="M110.902 0.399902H106.295V63.8666H110.902V0.399902Z" fill="#2D343F"/>
<path d="M117.812 0.399902H115.509V63.8666H117.812V0.399902Z" fill="#2D343F"/>
<path d="M129.329 0.399902H127.026V63.8666H129.329V0.399902Z" fill="#2D343F"/>
<path d="M145.454 0.399902H136.24V63.8666H145.454V0.399902Z" fill="#2D343F"/>
<path d="M150.062 0.399902H147.758V63.8666H150.062V0.399902Z" fill="#2D343F"/>
<path d="M154.669 0.399902H152.365V63.8666H154.669V0.399902Z" fill="#2D343F"/>
<path d="M159.276 0.399902H156.972V63.8666H159.276V0.399902Z" fill="#2D343F"/>
<path d="M173.097 0.399902H163.883V63.8666H173.097V0.399902Z" fill="#2D343F"/>
<path d="M182.312 0.399902H177.705V63.8666H182.312V0.399902Z" fill="#2D343F"/>
<path d="M189.222 0.399902H186.918V63.8666H189.222V0.399902Z" fill="#2D343F"/>
<path d="M193.829 0.399902H191.526V63.8666H193.829V0.399902Z" fill="#2D343F"/>
<path d="M205.347 0.399902H203.044V63.8666H205.347V0.399902Z" fill="#2D343F"/>
<path d="M212.257 0.399902H207.65V63.8666H212.257V0.399902Z" fill="#2D343F"/>
<path d="M219.168 0.399902H216.865V63.8666H219.168V0.399902Z" fill="#2D343F"/>
<path d="M235.291 0.399902H228.381V63.8666H235.291V0.399902Z" fill="#2D343F"/>
<path d="M244.507 0.399902H237.596V63.8666H244.507V0.399902Z" fill="#2D343F"/>
<path d="M251.417 0.399902H246.81V63.8666H251.417V0.399902Z" fill="#2D343F"/>
<path d="M258.327 0.399902H253.72V63.8666H258.327V0.399902Z" fill="#2D343F"/>
<path d="M272.149 0.399902H265.238V63.8666H272.149V0.399902Z" fill="#2D343F"/>
<path d="M276.755 0.399902H274.451V63.8666H276.755V0.399902Z" fill="#2D343F"/>
<path d="M283.667 0.399902H279.06V63.8666H283.667V0.399902Z" fill="#2D343F"/>
</svg>
