<svg width="82" height="118" viewBox="0 0 82 118" fill="none" xmlns="http://www.w3.org/2000/svg">
<g clip-path="url(#clip0_2856_55351)">
<path d="M51.601 36.4917C43.613 38.358 35.5068 37.2978 28.5537 33.4776C26.5697 32.3875 24.66 31.0712 22.5114 30.4557C22.364 30.4131 22.2145 30.3756 22.0642 30.3409C21.9155 30.2989 21.7663 30.2598 21.6166 30.2261C19.437 29.7315 17.1295 29.9661 14.8657 29.9666C6.93234 29.9685 -0.683396 26.9961 -6.78689 21.5153C-14.6149 37.6945 -20.1573 55.3759 -23.024 73.315C-24.3105 81.3679 -25.0252 89.8758 -22.6402 96.9159C-20.8566 102.181 -17.4358 106.2 -13.4401 108.839C-9.444 111.477 -4.88515 112.814 -0.258231 113.575C0.0490852 113.625 0.362894 113.671 0.680934 113.707C0.97688 113.828 1.27386 113.94 1.56738 114.043C5.98923 115.604 10.6295 116.625 15.4017 116.236C20.1743 115.847 25.1072 113.97 29.2047 110.214C34.6838 105.191 38.1528 97.3896 40.9008 89.7115C47.0227 72.6074 50.6751 54.4412 51.601 36.4917Z" fill="#F2591D"/>
<path d="M0.781489 113.316C0.798198 113.32 0.814185 113.326 0.830331 113.332C1.12087 113.451 1.4119 113.56 1.70037 113.661C3.08669 114.151 4.37763 114.547 5.64756 114.872C9.14128 115.768 12.3242 116.083 15.378 115.834C18.9397 115.544 24.1854 114.28 28.948 109.915C34.6308 104.705 38.1252 96.3096 40.5348 89.5774C46.5424 72.7916 50.2211 54.6219 51.1834 36.9974C46.0442 38.1184 40.7402 38.0447 35.8098 36.7801C33.2184 36.1154 30.714 35.1247 28.3656 33.8348C27.8808 33.5679 27.4004 33.2884 26.9201 33.0085C25.4759 32.1673 23.9826 31.2974 22.4012 30.8442C22.2608 30.8039 22.1173 30.7679 21.9738 30.735C21.7955 30.6857 21.6698 30.6527 21.5267 30.6199C19.9224 30.2563 18.1944 30.2996 16.5232 30.3418C15.9679 30.356 15.4126 30.3699 14.8596 30.3705C12.1813 30.3711 9.50856 30.0339 6.9168 29.3691C1.98676 28.1045 -2.69841 25.6165 -6.6634 22.1598C-14.3032 38.0719 -19.8241 55.7687 -22.6377 73.3738C-23.766 80.4347 -24.7441 89.4758 -22.2704 96.7774C-20.197 102.896 -16.2073 106.529 -13.2248 108.497C-10.6678 110.186 -7.72615 111.442 -4.23242 112.338C-2.96285 112.664 -1.64035 112.938 -0.18959 113.176C0.111398 113.226 0.419425 113.271 0.731136 113.307C0.748057 113.309 0.76478 113.311 0.781489 113.316ZM5.44665 115.656C5.44629 115.656 5.44665 115.656 5.44665 115.656C4.15539 115.324 2.84339 114.922 1.43603 114.426C1.15192 114.325 0.86603 114.218 0.579637 114.103C0.273372 114.066 -0.0291163 114.022 -0.325579 113.974C-1.79867 113.731 -3.14243 113.453 -4.43333 113.121C-8.00954 112.204 -11.0261 110.915 -13.6545 109.18C-18.0765 106.26 -21.3112 102.067 -23.0092 97.0547C-25.5407 89.5829 -24.5527 80.4112 -23.4088 73.2557C-20.555 55.3979 -14.928 37.4456 -7.13557 21.3402C-7.08113 21.2269 -6.97926 21.1458 -6.86006 21.1199C-6.74025 21.0944 -6.61751 21.1271 -6.52707 21.2088C-2.57262 24.7597 2.14571 27.3105 7.1177 28.5858C9.64867 29.235 12.2576 29.5638 14.8727 29.5631C15.4195 29.5631 15.9683 29.5492 16.5178 29.5354C18.2353 29.4918 20.0113 29.4471 21.7076 29.8319C21.8651 29.8676 22.0204 29.9078 22.1746 29.9521C22.2945 29.9781 22.4677 30.0222 22.622 30.0664C24.2947 30.5458 25.8292 31.4396 27.3136 32.3045C27.7884 32.581 28.2635 32.8576 28.7427 33.1207C31.035 34.3801 33.4804 35.3478 36.0103 35.9967C40.983 37.2722 46.3467 37.307 51.5213 36.0981C51.6403 36.0701 51.7636 36.1005 51.8556 36.1803C51.948 36.2605 51.9983 36.3806 51.9915 36.5061C51.0708 54.3733 47.362 72.818 41.2676 89.8451C38.8261 96.6677 35.2775 105.183 29.4621 110.513C25.5613 114.089 20.7075 116.208 15.4263 116.639C12.2873 116.895 9.0225 116.573 5.44665 115.656Z" fill="#292625"/>
<path d="M45.9938 49.2194C44.0089 48.7103 42.1197 47.8296 40.4621 46.6116C40.2878 46.4833 40.2493 46.2315 40.3763 46.0493C40.5038 45.8672 40.7474 45.8229 40.9228 45.9515C44.0788 48.2708 48.1163 49.3072 51.9994 48.7974C54.7893 48.4312 57.1804 47.2755 58.7317 45.544C60.5106 43.5575 61.1234 40.6629 60.2211 38.5039C60.1357 38.3006 60.228 38.0616 60.4265 37.9704C60.6261 37.879 60.855 37.9707 60.9401 38.1736C61.9769 40.6549 61.3186 43.8347 59.3016 46.086C57.6232 47.96 55.0601 49.2074 52.0852 49.5976C50.05 49.8652 47.974 49.7274 45.9938 49.2194Z" fill="#292625"/>
<path d="M-9.99921 35.7486C-10.5858 35.5981 -11.1629 35.4089 -11.7243 35.1797C-15.459 33.6571 -18.4835 30.413 -19.8148 26.5018C-20.3727 24.8627 -20.4114 23.5405 -19.9338 22.4603C-19.5931 21.6905 -18.8795 21.0678 -18.0716 20.8356C-17.4155 20.6473 -16.7806 20.7426 -16.2843 21.1063C-16.1094 21.234 -16.0708 21.4854 -16.1976 21.6681C-16.3241 21.8508 -16.5699 21.8946 -16.7436 21.7668C-17.0479 21.5454 -17.4484 21.4906 -17.8738 21.6128C-18.4517 21.7787 -18.9813 22.2389 -19.223 22.7851C-19.6122 23.6646 -19.5642 24.7893 -19.0763 26.2228C-17.8175 29.9214 -14.9576 32.989 -11.4263 34.4284C-7.89292 35.8671 -3.73574 35.6628 -0.300738 33.8777C-0.106882 33.7778 0.126973 33.8558 0.222246 34.0546C0.316809 34.2532 0.23589 34.4963 0.0417498 34.5973C-3.04505 36.2008 -6.68395 36.599 -9.99921 35.7486Z" fill="#292625"/>
<path d="M48.8952 54.3677C48.8323 54.3515 48.7695 54.335 48.7065 54.3177C45.6105 53.4635 42.877 51.209 41.3952 48.2868C41.2957 48.0909 41.3707 47.8459 41.5626 47.7404C41.7536 47.6339 41.99 47.7063 42.0892 47.9033C43.4741 50.6334 46.0276 52.74 48.9204 53.5382C48.9793 53.554 49.0382 53.5696 49.0968 53.5846C51.9456 54.3153 55.1348 53.8034 57.6659 52.2007C57.851 52.0832 58.0911 52.1413 58.202 52.3311C58.3125 52.5204 58.2521 52.7692 58.0667 52.8866C55.3579 54.6015 51.9442 55.1497 48.8952 54.3677Z" fill="#292625"/>
<path d="M49.5367 58.6509C49.1847 58.5607 48.8367 58.4549 48.4932 58.333C45.9287 57.4247 43.6781 55.6542 42.1569 53.3478C42.0363 53.1649 42.0837 52.9139 42.2631 52.786C42.4426 52.6581 42.6855 52.7035 42.8057 52.8863C44.2348 55.0528 46.3491 56.7162 48.7587 57.5699C51.1673 58.4213 53.8478 58.4578 56.3044 57.6672C56.5115 57.6014 56.7289 57.7184 56.7899 57.9312C56.8509 58.1439 56.7325 58.3708 56.5256 58.4371C54.261 59.1661 51.8173 59.2359 49.5367 58.6509Z" fill="#292625"/>
<path d="M41.0038 45.3887C45.8135 47.1709 51.7093 45.3585 54.8733 41.1247C53.9647 41.077 53.0567 41.029 52.1481 40.9813C52.8052 40.628 53.4959 40.2429 53.8791 39.5881C54.2623 38.9332 54.1725 37.9285 53.5099 37.6105C53.0834 37.4061 52.5796 37.54 52.1218 37.6715C45.0765 39.696 37.7251 40.5104 30.4641 40.0713L41.0038 45.3887Z" fill="#F2591D"/>
<path d="M41.9816 46.1177C41.6051 46.0211 41.2324 45.9051 40.8657 45.769C40.6635 45.6944 40.5614 45.4632 40.6372 45.2534C40.7133 45.0439 40.937 44.9341 41.1413 45.0092C45.5193 46.6293 50.9409 45.1177 54.0777 41.4876L52.1216 41.3848C51.9436 41.3741 51.7996 41.2457 51.7648 41.0683C51.7299 40.8909 51.8144 40.7092 51.9721 40.6247C52.6728 40.2477 53.2333 39.9167 53.5446 39.384C53.71 39.1009 53.7597 38.7182 53.6704 38.4087C53.6291 38.2642 53.5381 38.0724 53.3397 37.9771C53.0527 37.8403 52.6629 37.9331 52.22 38.0598C45.1003 40.1057 37.7706 40.9181 30.4336 40.4738C30.2179 40.4609 30.057 40.27 30.0735 40.0476C30.09 39.8253 30.2778 39.6555 30.4932 39.6684C37.7433 40.1073 44.9871 39.3047 52.0222 37.283C52.481 37.1518 53.107 36.9715 53.6796 37.2444C54.0356 37.4151 54.2986 37.7429 54.4209 38.1669C54.5716 38.6921 54.4919 39.3144 54.2124 39.7924C54.0106 40.1376 53.7398 40.4146 53.4449 40.6456L54.8996 40.7222C55.0436 40.7297 55.1707 40.8189 55.2299 40.9546C55.2889 41.0895 55.27 41.2488 55.1807 41.368C52.131 45.4489 46.7374 47.3375 41.9816 46.1177Z" fill="#292625"/>
<path d="M-2.07858 34.6537C-7.15236 33.9008 -11.4476 29.4744 -12.183 24.2405C-11.3641 24.6359 -10.545 25.0309 -9.7257 25.4264C-10.1316 24.8004 -10.5516 24.1304 -10.5723 23.372C-10.5926 22.6136 -10.0307 21.7761 -9.29686 21.8163C-8.82461 21.8424 -8.44743 22.2022 -8.10951 22.5378C-2.90838 27.7031 3.14371 31.9558 9.71971 35.0656L-2.07858 34.6537Z" fill="#F2591D"/>
<path d="M-3.2872 34.8214C-8.04303 33.6015 -11.8606 29.3502 -12.5698 24.3048C-12.5905 24.1578 -12.5307 24.009 -12.414 23.9188C-12.2972 23.8285 -12.1422 23.8121 -12.0122 23.8741L-10.7011 24.5073C-10.848 24.1629 -10.9518 23.7904 -10.9627 23.3898C-10.9778 22.837 -10.748 22.2528 -10.3633 21.8653C-10.0522 21.5521 -9.66395 21.3917 -9.26898 21.4133C-8.63745 21.4493 -8.17437 21.9085 -7.83538 22.2444C-2.64165 27.4031 3.32124 31.5928 9.88777 34.6982C10.0827 34.7906 10.1658 35.0294 10.0729 35.2322C9.98057 35.4354 9.74542 35.5279 9.55196 35.4327C2.90702 32.2904 -3.12704 28.0501 -8.38279 22.8304C-8.70928 22.5063 -9.00513 22.2357 -9.32408 22.2191C-9.54381 22.2071 -9.71635 22.3317 -9.82207 22.438C-10.049 22.6669 -10.19 23.0261 -10.1808 23.3536C-10.1643 23.9716 -9.83178 24.5308 -9.39924 25.1978C-9.30211 25.3479 -9.31516 25.548 -9.43117 25.6871C-9.54699 25.8254 -9.73467 25.8688 -9.89656 25.7923L-11.6606 24.9409C-10.6581 29.6328 -6.63594 33.5698 -2.01605 34.2545C-1.79972 34.2857 -1.65797 34.4909 -1.69208 34.711C-1.72665 34.9315 -1.92698 35.0847 -2.14018 35.0532C-2.5274 34.9955 -2.91034 34.918 -3.2872 34.8214Z" fill="#292625"/>
<path d="M42.2585 83.1556C42.1325 81.802 41.2821 80.6827 40.0769 80.304C40.0723 80.3248 41.1505 80.2429 41.2813 80.2085C41.7613 80.0831 42.2129 79.8353 42.6005 79.4957C43.3018 78.8813 43.7397 77.9836 43.869 77.0395C44.1182 75.2186 43.0398 73.4738 41.3694 73.142C41.371 73.1329 41.3721 73.1242 41.3733 73.1151C43.2083 73.1727 44.6937 71.5165 44.7413 69.5627C44.763 68.682 44.5288 67.8417 44.0099 67.1773C43.7136 66.7978 43.3324 66.5037 42.9039 66.316C42.7693 66.2572 41.574 66.0083 41.5774 66.0528C43.3849 65.6565 44.5175 63.6915 44.1379 61.7946C43.7598 59.9063 42.1091 58.6677 40.293 59.2185C40.2983 59.2363 41.189 58.5526 41.2854 58.4485C41.6047 58.1048 41.8466 57.6937 42.0095 57.2446C42.3382 56.3386 42.2836 55.3088 41.9084 54.4614C41.1439 52.7339 39.2663 51.9394 37.5971 52.897C37.6002 52.9025 38.2959 52.1047 38.3689 51.9888C38.6349 51.5662 38.8036 51.09 38.8773 50.5929C39.0179 49.6461 38.7616 48.6863 38.2383 47.9509C37.1633 46.4218 35.1062 46.1073 33.6579 47.4133C33.6679 47.4245 34.2154 46.4145 34.2635 46.2772C34.4345 45.7878 34.4933 45.2661 34.4465 44.7558C34.3636 43.8585 33.9309 43.0447 33.3007 42.4821C31.9362 41.2514 29.8473 41.4255 28.6806 43.0213C28.6841 43.0237 29.015 42.0025 29.0372 41.8656C29.1171 41.3725 29.0882 40.8766 28.9647 40.404C28.7409 39.5464 28.1822 38.8368 27.4709 38.4086C25.8662 37.4425 23.7551 38.0562 22.8978 39.9391C22.9095 39.9436 23.0203 38.798 23.0108 38.6534C22.9804 38.1827 22.8526 37.734 22.6402 37.3301C22.2107 36.5139 21.4544 35.9139 20.5935 35.7147C19.7188 35.5127 18.8131 35.6315 18.0232 36.158C17.6435 36.4109 17.3165 36.7491 17.0654 37.1477C16.9881 37.2704 16.5389 38.3288 16.5513 38.3305C16.6922 36.3263 15.2471 34.8499 13.4467 34.8004C12.6118 34.7775 11.7553 35.1193 11.1174 35.7288C10.7649 36.066 10.4816 36.4748 10.295 36.9393C10.238 37.0818 9.97534 38.2874 9.99713 38.2852C9.73247 36.3211 8.01235 35.223 6.22913 35.5984C5.35671 35.7822 4.55215 36.3529 4.04405 37.1521C3.803 37.532 3.63322 37.9545 3.55044 38.4013C3.52276 38.5521 3.50342 39.7813 3.52583 39.7737C2.87458 37.9311 0.957398 37.2674 -0.723735 38.044C-1.54768 38.4244 -2.227 39.1627 -2.56872 40.0548C-2.73137 40.4791 -2.81427 40.9279 -2.80605 41.3804C-2.80342 41.5326 -2.57457 42.7293 -2.55377 42.7162C-3.56479 41.0782 -5.59019 40.8866 -7.09217 42.0343C-8.59974 43.186 -9.00354 45.4428 -7.92016 46.9685C-7.91391 46.9619 -8.74001 46.3993 -8.85524 46.3478C-9.28442 46.1553 -9.75958 46.0711 -10.2317 46.1153C-11.137 46.2 -11.9366 46.6875 -12.552 47.4191C-13.7978 48.9006 -13.722 51.1799 -12.3293 52.3845C-12.3054 52.3474 -13.4764 51.9952 -13.6229 51.9828C-14.0894 51.9432 -14.5648 52.0196 -15.0063 52.213C-15.7797 52.5514 -16.3833 53.1795 -16.7882 53.9616C-17.2552 54.8635 -17.3719 55.9495 -17.0547 56.8959C-16.9172 57.3113 -16.6995 57.6903 -16.418 58.0051C-16.3315 58.1019 -15.5361 58.7296 -15.5317 58.7186C-17.0579 58.2395 -18.7536 59.1055 -19.4802 60.6736C-20.3634 62.5792 -19.6713 64.9022 -17.8206 65.596C-17.8148 65.5751 -18.8908 65.6011 -19.0221 65.6283C-19.4586 65.7185 -19.882 65.9068 -20.2552 66.1782C-21.0022 66.7213 -21.5064 67.585 -21.6979 68.5148C-21.8833 69.4132 -21.7836 70.3277 -21.3667 71.11C-21.1508 71.5153 -20.8454 71.8594 -20.4866 72.1195C-20.3703 72.2039 -19.2484 72.7151 -19.2426 72.6632C-21.1308 72.6175 -22.5444 74.2936 -22.6129 76.2759C-22.6445 77.1866 -22.3164 78.1056 -21.7424 78.7409C-21.4148 79.1033 -21.018 79.3751 -20.5639 79.5234C-20.4383 79.5643 -19.2433 79.7121 -19.2512 79.6528C-21.1862 80.1252 -22.1286 82.232 -21.5888 84.1692C-21.3495 85.0253 -20.7731 85.7889 -20.0232 86.1697C-19.6152 86.3769 -19.1668 86.4872 -18.7074 86.4719C-18.5705 86.4669 -17.3025 86.1663 -17.339 86.0917C-19.0089 87.2085 -19.3083 89.5576 -18.1452 91.1078C-16.9947 92.6405 -14.9013 92.87 -13.4997 91.3927C-13.5194 91.3735 -14.0207 92.3765 -14.0615 92.5004C-14.2236 92.992 -14.2818 93.5233 -14.2114 94.0302C-14.0806 94.9708 -13.5953 95.8001 -12.8761 96.3243C-11.41 97.4393 -9.32951 97.0808 -8.27559 95.3784C-8.28515 95.3728 -8.55124 96.4264 -8.56433 96.5616C-8.61356 97.0638 -8.55411 97.5648 -8.40455 98.0335C-8.13892 98.8681 -7.53936 99.5147 -6.82109 99.9082C-5.20141 100.795 -3.12329 100.068 -2.29408 98.2281C-2.29551 98.2277 -2.4092 99.287 -2.40308 99.4256C-2.38042 99.9222 -2.25511 100.403 -2.04635 100.837C-1.65422 101.653 -0.939123 102.223 -0.127751 102.488C1.54058 103.05 3.4473 102.083 4.05495 100.234C4.061 100.236 4.04633 101.225 4.06399 101.356C4.12707 101.814 4.28065 102.253 4.5108 102.638C5.00415 103.462 5.80932 104.004 6.71501 104.156C7.52112 104.291 8.38032 104.152 9.09604 103.667C9.48799 103.402 9.83365 103.05 10.0993 102.641C10.1827 102.512 10.6678 101.392 10.6497 101.39C10.5337 103.304 11.9106 104.926 13.6838 104.98C14.5042 105.005 15.3546 104.759 16.0157 104.185C16.3847 103.864 16.6927 103.458 16.9079 103.005C16.9726 102.868 17.3126 101.674 17.2853 101.675C17.4125 103.664 19.063 104.964 20.8782 104.687C21.7167 104.588 22.5135 104.114 23.0703 103.413C23.3833 103.019 23.6067 102.56 23.7238 102.062C23.7569 101.922 23.8415 100.668 23.8019 100.679C24.3129 102.626 26.2507 103.466 27.9923 102.684C29.7558 101.892 30.6533 99.7316 29.7532 97.9269C29.7182 97.9509 30.469 98.7333 30.5642 98.804C30.9527 99.0914 31.4098 99.2518 31.8839 99.3035C32.7871 99.4013 33.7055 99.0031 34.396 98.3481C35.8389 96.9477 36.0122 94.6099 34.5725 93.2637C34.5516 93.2917 35.4972 93.7254 35.6119 93.7553C36.0802 93.8797 36.5718 93.8672 37.0464 93.729C37.9214 93.4747 38.7038 92.8131 39.1496 91.9494C40.0606 90.184 39.6157 88.0229 37.943 87.1564C37.9144 87.2265 39.2893 87.2834 39.4438 87.2555C40.0224 87.1522 40.561 86.8722 41.0126 86.456C41.8914 85.646 42.3683 84.3645 42.2585 83.1556C42.3023 83.6392 42.2133 82.6716 42.2585 83.1556Z" fill="#F7A80E"/>
<path d="M38.7575 75.4621C38.652 74.3282 37.9396 73.3903 36.93 73.0733C36.9259 73.0907 37.8295 73.022 37.9387 72.9935C38.3408 72.8882 38.7192 72.6805 39.0441 72.3963C39.6316 71.8814 39.9984 71.1293 40.1066 70.3384C40.3156 68.8131 39.4121 67.3511 38.0128 67.0731C38.014 67.0655 38.0148 67.0583 38.0156 67.0506C39.5529 67.099 40.7977 65.7118 40.8376 64.0744C40.8555 63.3369 40.6595 62.6328 40.2248 62.076C39.9763 61.7582 39.6572 61.5118 39.2981 61.3546C39.1857 61.3053 38.184 61.0967 38.1868 61.1343C39.7009 60.8021 40.6503 59.1557 40.3322 57.5667C40.0154 55.9847 38.6322 54.9471 37.1111 55.4086C37.1156 55.4235 37.8615 54.8507 37.9423 54.7634C38.2098 54.4755 38.4125 54.1313 38.5489 53.7548C38.8242 52.9961 38.7786 52.1335 38.4644 51.4235C37.8236 49.9759 36.2505 49.3105 34.8524 50.1126C34.8549 50.1175 35.4378 49.4492 35.4991 49.3522C35.7218 48.9978 35.8632 48.599 35.9249 48.1825C36.0427 47.3893 35.8279 46.5854 35.3896 45.9692C34.489 44.6882 32.7654 44.4247 31.5523 45.5189C31.5609 45.5282 32.0193 44.6818 32.0594 44.5668C32.2028 44.1571 32.2521 43.7198 32.2128 43.2923C32.1434 42.5406 31.781 41.8587 31.2532 41.3876C30.11 40.3565 28.3598 40.5025 27.3826 41.8394C27.3855 41.8413 27.6626 40.9857 27.681 40.871C27.7483 40.4579 27.7238 40.0425 27.6204 39.6465C27.4333 38.9282 26.9651 38.3338 26.369 37.9747C25.0245 37.1658 23.2562 37.6797 22.5378 39.2573C22.5478 39.2611 22.6406 38.3012 22.6327 38.1798C22.6068 37.7857 22.5001 37.41 22.3221 37.0714C21.9625 36.3874 21.3287 35.8848 20.6071 35.7182C19.8749 35.5488 19.1158 35.6486 18.4544 36.0895C18.1363 36.3013 17.8624 36.5848 17.6517 36.9187C17.5871 37.0215 17.2104 37.9081 17.221 37.9097C17.3391 36.2303 16.1285 34.9939 14.6205 34.9522C13.9207 34.9329 13.2034 35.2194 12.6689 35.7302C12.3733 36.0125 12.1361 36.3549 11.9799 36.744C11.9318 36.8636 11.7118 37.8733 11.7301 37.8713C11.5087 36.2262 10.0677 35.306 8.57362 35.6206C7.84258 35.7747 7.16861 36.2529 6.74302 36.9223C6.54085 37.2408 6.39903 37.5943 6.32951 37.9687C6.3062 38.0951 6.29014 39.1252 6.30888 39.1187C5.76325 37.5749 4.15719 37.0189 2.74861 37.6695C2.05864 37.9884 1.48926 38.6069 1.20288 39.3541C1.06664 39.7095 0.99745 40.0856 1.00405 40.4646C1.00659 40.5921 1.19809 41.5946 1.21573 41.5834C0.368785 40.2114 -1.32815 40.051 -2.58641 41.0122C-3.84945 41.9774 -4.18777 43.8681 -3.28033 45.1461C-3.27481 45.1408 -3.96698 44.6692 -4.0635 44.626C-4.42302 44.4646 -4.82103 44.3944 -5.21658 44.4311C-5.97524 44.5024 -6.645 44.9109 -7.16023 45.5237C-8.20413 46.7645 -8.14075 48.6742 -6.97413 49.6834C-6.95406 49.6524 -7.93512 49.3572 -8.05755 49.347C-8.44843 49.3138 -8.84677 49.3778 -9.21681 49.5397C-9.86434 49.8232 -10.3703 50.3495 -10.7092 51.0047C-11.1008 51.7603 -11.1985 52.6698 -10.9324 53.4629C-10.8174 53.8108 -10.6352 54.1285 -10.3994 54.3924C-10.3269 54.473 -9.66035 54.999 -9.65683 54.9897C-10.9354 54.5883 -12.356 55.3139 -12.9646 56.6276C-13.7045 58.224 -13.125 60.1703 -11.5742 60.7514C-11.5693 60.7338 -12.4708 60.7559 -12.5807 60.7783C-12.9465 60.8541 -13.3011 61.0121 -13.614 61.2393C-14.2396 61.6942 -14.662 62.4179 -14.8227 63.1965C-14.9776 63.9496 -14.8945 64.7158 -14.5453 65.3708C-14.3642 65.7106 -14.1084 65.9988 -13.8077 66.2165C-13.7104 66.2874 -12.7706 66.7158 -12.7656 66.6723C-14.3475 66.6337 -15.5318 68.038 -15.5891 69.6988C-15.6154 70.4617 -15.3407 71.2315 -14.8596 71.7636C-14.5855 72.0672 -14.2529 72.295 -13.8725 72.4193C-13.7672 72.4534 -12.7664 72.5774 -12.7727 72.5279C-14.3939 72.9233 -15.1831 74.6885 -14.7313 76.3114C-14.5308 77.0288 -14.0476 77.6683 -13.4197 77.9872C-13.0778 78.1609 -12.7021 78.2533 -12.3171 78.2402C-12.2026 78.2366 -11.1402 77.9845 -11.1712 77.9219C-12.5699 78.8578 -12.8208 80.8255 -11.8463 82.1242C-10.8823 83.4081 -9.12842 83.6004 -7.95469 82.363C-7.97096 82.3467 -8.39114 83.1872 -8.42528 83.2907C-8.56091 83.7028 -8.60985 84.1477 -8.55092 84.5723C-8.44128 85.3606 -8.03438 86.0552 -7.43202 86.4944C-6.20401 87.4282 -4.46094 87.128 -3.578 85.7022C-3.58623 85.6973 -3.80881 86.5799 -3.81971 86.6933C-3.8609 87.1139 -3.81127 87.5334 -3.68623 87.9264C-3.46317 88.6256 -2.96129 89.167 -2.35923 89.4965C-1.00243 90.24 0.73846 89.6306 1.43314 88.0893C1.43207 88.0891 1.33673 88.9764 1.34185 89.0924C1.36084 89.5087 1.46567 89.911 1.64055 90.2751C1.96884 90.9585 2.56824 91.4358 3.24821 91.6581C4.64585 92.1285 6.24333 91.3191 6.75203 89.7701C6.75701 89.7714 6.74483 90.6003 6.75968 90.7094C6.81259 91.094 6.94123 91.4612 7.13402 91.7835C7.54731 92.4738 8.22188 92.9284 8.98046 93.0554C9.65619 93.1686 10.3755 93.0516 10.9755 92.6459C11.3038 92.4239 11.5935 92.1291 11.8159 91.7864C11.8856 91.6786 12.2918 90.7403 12.2772 90.7385C12.1797 92.3415 13.3332 93.7003 14.8187 93.7456C15.506 93.7664 16.2184 93.5608 16.7724 93.0793C17.0814 92.8111 17.3396 92.4709 17.5196 92.091C17.574 91.9765 17.8586 90.976 17.836 90.9769C17.9425 92.6432 19.3254 93.7326 20.846 93.5006C21.5486 93.4174 22.2157 93.0207 22.6824 92.4332C22.9448 92.1031 23.1317 91.7187 23.2296 91.3013C23.2576 91.1833 23.3284 90.1334 23.2952 90.1429C23.7235 91.7736 25.3466 92.4773 26.806 91.8221C28.283 91.1588 29.0352 89.3488 28.2809 87.8371C28.2516 87.8571 28.8807 88.5124 28.9606 88.5718C29.2861 88.8123 29.6688 88.947 30.0662 88.99C30.8227 89.0722 31.5922 88.7386 32.1705 88.19C33.3794 87.0166 33.5247 85.0584 32.3185 83.9303C32.3011 83.9537 33.0934 84.3171 33.189 84.342C33.5817 84.4463 33.9932 84.436 34.3908 84.3201C35.1241 84.1069 35.7793 83.5528 36.1529 82.8291C36.9161 81.3502 36.5434 79.5398 35.1424 78.8137C35.1182 78.8723 36.2699 78.9204 36.3994 78.897C36.8843 78.8105 37.3356 78.5756 37.7137 78.227C38.4501 77.5484 38.8494 76.4748 38.7575 75.4621C38.7941 75.8673 38.7198 75.0567 38.7575 75.4621Z" fill="#F3D055"/>
<path d="M35.2567 67.7686C35.1714 66.8542 34.5969 66.0982 33.7831 65.8423C33.7798 65.8564 34.5083 65.801 34.5964 65.7781C34.9209 65.6932 35.2257 65.5256 35.4876 65.2963C35.9613 64.8811 36.257 64.2748 36.3444 63.6372C36.5129 62.407 35.7846 61.2283 34.6561 61.0041C34.6573 60.9981 34.658 60.9924 34.6584 60.9862C35.8981 61.025 36.9016 59.9065 36.934 58.5864C36.9486 57.9917 36.7904 57.4238 36.4398 56.975C36.2396 56.7187 35.9821 56.5199 35.6926 56.393C35.602 56.3533 34.7944 56.1854 34.7966 56.2154C36.0175 55.9478 36.7828 54.6202 36.5263 53.3391C36.2708 52.0634 35.1557 51.2269 33.929 51.5986C33.9327 51.6105 34.5343 51.1487 34.5992 51.0786C34.8149 50.8465 34.9782 50.5688 35.0883 50.2652C35.3104 49.6535 35.2736 48.9577 35.0203 48.3854C34.5038 47.2182 33.2353 46.6816 32.1077 47.3285C32.1098 47.3322 32.58 46.7931 32.6292 46.715C32.809 46.4293 32.9229 46.1079 32.9726 45.772C33.0674 45.1323 32.8945 44.484 32.5411 43.9874C31.8149 42.9541 30.4253 42.7418 29.4469 43.624C29.4536 43.6317 29.8234 42.9494 29.8559 42.8565C29.9714 42.526 30.0113 42.1738 29.9793 41.8287C29.9234 41.2226 29.6313 40.673 29.2054 40.2932C28.2839 39.4615 26.8725 39.5794 26.0845 40.6573C26.087 40.6591 26.3103 39.9692 26.3253 39.8764C26.3794 39.5432 26.3599 39.2084 26.2765 38.8893C26.1254 38.3099 25.7478 37.8306 25.2673 37.5412C24.1832 36.8885 22.757 37.3033 22.1781 38.5751C22.186 38.5783 22.261 37.8044 22.2546 37.7065C22.2338 37.3887 22.1475 37.0857 22.0041 36.813C21.7141 36.2611 21.203 35.8559 20.6214 35.7213C20.0308 35.5851 19.4187 35.6653 18.8853 36.0209C18.6289 36.1919 18.4081 36.4203 18.2383 36.6897C18.1859 36.7725 17.8824 37.4874 17.8909 37.4884C17.9862 36.1346 17.0101 35.1374 15.7941 35.1039C15.2297 35.0883 14.6513 35.3193 14.2203 35.731C13.9823 35.9585 13.7909 36.235 13.6649 36.549C13.6262 36.6451 13.4488 37.4595 13.4636 37.4578C13.2848 36.1311 12.1227 35.3893 10.9182 35.643C10.329 35.7671 9.78528 36.1527 9.44219 36.6925C9.27901 36.9491 9.16456 37.2343 9.10866 37.5364C9.08981 37.638 9.0768 38.4687 9.09222 38.4632C8.6521 37.2187 7.35717 36.7703 6.22115 37.2949C5.6649 37.5519 5.20581 38.0506 4.97502 38.6535C4.8652 38.9398 4.80937 39.2432 4.8147 39.5489C4.81644 39.6514 4.97093 40.4599 4.98533 40.451C4.3021 39.3447 2.93408 39.2153 1.91945 39.9905C0.90102 40.7687 0.628266 42.2929 1.36004 43.3237C1.36421 43.3192 0.806243 42.9389 0.72842 42.9041C0.438484 42.7743 0.117438 42.7171 -0.201378 42.7472C-0.81283 42.8044 -1.35316 43.1339 -1.76866 43.6281C-2.61035 44.6287 -2.55931 46.1684 -1.61844 46.9823C-1.6022 46.9574 -2.39326 46.7191 -2.49225 46.7106C-2.80749 46.6839 -3.12849 46.7359 -3.4268 46.8663C-3.94918 47.0948 -4.35708 47.5194 -4.63041 48.0474C-4.94586 48.6568 -5.02491 49.3904 -4.81036 50.0297C-4.71751 50.3103 -4.57061 50.5663 -4.38044 50.7792C-4.32214 50.8444 -3.78451 51.2686 -3.78182 51.261C-4.81278 50.9373 -5.95788 51.5224 -6.44893 52.5815C-7.04549 53.8688 -6.5781 55.4384 -5.3278 55.9071C-5.32412 55.8927 -6.05079 55.9101 -6.13928 55.9287C-6.43419 55.9897 -6.72033 56.1169 -6.9723 56.3001C-7.47713 56.6669 -7.81745 57.2507 -7.94698 57.8783C-8.07203 58.4855 -8.00508 59.1034 -7.72336 59.6316C-7.5776 59.9053 -7.37123 60.1377 -7.12879 60.3138C-7.05012 60.3705 -6.29226 60.716 -6.28854 60.6809C-7.56395 60.6498 -8.51895 61.7819 -8.56504 63.1213C-8.58646 63.7366 -8.36485 64.3573 -7.97698 64.7862C-7.75561 65.0311 -7.48786 65.2148 -7.18091 65.3151C-7.09629 65.3427 -6.28905 65.4426 -6.29427 65.4024C-7.60156 65.7216 -8.23789 67.1448 -7.87337 68.4536C-7.71173 69.0318 -7.32225 69.5475 -6.81567 69.8047C-6.54006 69.9445 -6.23721 70.0194 -5.92679 70.0087C-5.83433 70.0057 -4.97778 69.8025 -5.00275 69.7522C-6.13065 70.5065 -6.333 72.0932 -5.54714 73.1406C-4.76993 74.1759 -3.35579 74.3309 -2.40905 73.333C-2.42198 73.3198 -2.76098 73.9974 -2.7886 74.0814C-2.89801 74.4134 -2.93733 74.772 -2.88988 75.1144C-2.80133 75.7501 -2.47358 76.3101 -1.98776 76.6644C-0.997572 77.4175 0.407812 77.1752 1.11988 76.0255C1.11334 76.0215 0.933789 76.7333 0.924712 76.8248C0.891565 77.1638 0.932022 77.5024 1.03274 77.8188C1.21243 78.3829 1.61733 78.8193 2.10237 79.0851C3.19673 79.6846 4.60052 79.193 5.16057 77.9506C5.1596 77.9499 5.08285 78.6657 5.08686 78.7594C5.10202 79.0947 5.18702 79.4192 5.32804 79.713C5.59257 80.2638 6.07581 80.6489 6.62401 80.828C7.75097 81.2073 9.03913 80.5549 9.44941 79.3055C9.45368 79.3066 9.44363 79.975 9.45557 80.0629C9.4984 80.3731 9.60209 80.6691 9.75741 80.9292C10.0906 81.4858 10.6346 81.8524 11.2465 81.9547C11.791 82.0461 12.3711 81.9518 12.8551 81.6248C13.1197 81.4457 13.3531 81.2079 13.5323 80.9315C13.5887 80.8447 13.9165 80.0881 13.9044 80.0865C13.826 81.3791 14.7563 82.4749 15.9542 82.5112C16.5084 82.5281 17.0826 82.362 17.5291 81.9743C17.7783 81.7579 17.9866 81.4834 18.1318 81.1771C18.1756 81.0847 18.4052 80.2782 18.3868 80.2789C18.4727 81.6223 19.5876 82.5008 20.8141 82.3135C21.3802 82.2467 21.9186 81.9266 22.2946 81.4533C22.5062 81.1867 22.6569 80.8771 22.736 80.5404C22.7585 80.4453 22.8158 79.5985 22.7888 79.6065C23.134 80.9209 24.443 81.4888 25.6194 80.9604C26.8108 80.4253 27.4171 78.9658 26.8093 77.7469C26.7854 77.7632 27.2926 78.2915 27.3572 78.3394C27.6196 78.5336 27.9282 78.6422 28.2486 78.6768C28.8587 78.743 29.4788 78.4737 29.9454 78.0314C30.9201 77.0854 31.0371 75.5063 30.0647 74.5968C30.0504 74.6155 30.6895 74.9086 30.7666 74.9288C31.083 75.0127 31.4152 75.0045 31.7358 74.9112C32.3267 74.7392 32.8554 74.2925 33.1567 73.7089C33.7721 72.5164 33.4713 71.0567 32.3415 70.4712C32.3222 70.5185 33.2509 70.5568 33.3553 70.5384C33.7461 70.4686 34.1099 70.2792 34.415 69.9982C35.0086 69.4507 35.3307 68.5851 35.2567 67.7686C35.2862 68.0954 35.226 67.4419 35.2567 67.7686Z" fill="#F8E298"/>
<path d="M10.3163 64.6927C15.459 65.5284 19.2896 70.2134 24.3752 71.3415C27.5103 72.0373 30.9503 71.2402 33.5369 69.2187C32.9615 68.8901 32.248 69.0349 31.591 69.1338C28.2868 69.6319 24.8865 68.695 22.0829 66.8886C19.2789 65.0821 17.0409 62.4513 15.3236 59.537C14.8194 58.6812 14.2619 57.7215 13.318 57.4735C12.2165 57.1839 11.1434 57.9905 10.1885 58.6526C4.73952 62.4306 -2.87797 62.4491 -8.21895 58.6977C-8.83444 58.2653 -9.62409 57.7734 -10.2724 58.1753C-10.7564 58.4756 -10.8862 59.1782 -10.7006 59.7205C-10.515 60.2629 -10.0908 60.6744 -9.66025 61.0373C-6.0541 64.0803 -1.14791 65.1173 3.54738 64.8566C5.80758 64.7311 8.08831 64.3305 10.3163 64.6927Z" fill="#F7A80E"/>
<path d="M44.6339 57.4537C42.6107 65.3417 34.8001 70.1534 27.1883 68.201C19.5766 66.2486 15.0459 58.2714 17.0691 50.3834C19.0924 42.4954 26.9034 37.6835 34.5152 39.6359C42.1269 41.5883 46.6571 49.5657 44.6339 57.4537Z" fill="#523B1A"/>
<path d="M42.6703 57.446C40.8374 64.592 33.7608 68.9515 26.8647 67.1827C19.969 65.414 15.8644 58.1865 17.6974 51.0405C19.5304 43.8942 26.607 39.5347 33.5027 41.3034C40.3988 43.0722 44.5034 50.2997 42.6703 57.446Z" fill="#D1B86C"/>
<path d="M42.6703 57.446C40.8374 64.592 33.7608 68.9515 26.8647 67.1827C19.969 65.414 15.8644 58.1865 17.6974 51.0405C19.5304 43.8942 26.607 39.5347 33.5027 41.3034C40.3988 43.0722 44.5034 50.2997 42.6703 57.446Z" fill="#D1B86C"/>
<path d="M41.4743 57.139C39.817 63.6004 33.4186 67.5421 27.1831 65.9427C20.9479 64.3434 17.2367 57.8086 18.894 51.3472C20.5514 44.8854 26.9499 40.9437 33.185 42.543C39.4205 44.1424 43.1318 50.6772 41.4743 57.139Z" fill="#F3ED99"/>
<path d="M34.9579 62.2408C34.1639 65.3363 31.0989 67.2242 28.1118 66.458C25.1251 65.6919 23.3472 62.5618 24.1411 59.4663C24.935 56.3712 28.0002 54.4829 30.9869 55.249C33.974 56.0152 35.7518 59.1457 34.9579 62.2408Z" fill="#D4C18D"/>
<path d="M33.462 61.8565C32.8876 64.0961 30.6703 65.462 28.5091 64.9077C26.3482 64.3534 25.0618 62.0888 25.6363 59.8492C26.2106 57.6099 28.4283 56.2437 30.5892 56.7979C32.7504 57.3523 34.0364 59.6172 33.462 61.8565Z" fill="#2E2227"/>
<path d="M31.9174 58.9278C31.7491 59.5839 31.0996 59.9843 30.4664 59.8219C29.8332 59.6595 29.4563 58.9958 29.6246 58.3397C29.7929 57.6835 30.4427 57.2832 31.0759 57.4456C31.7091 57.608 32.0857 58.2716 31.9174 58.9278Z" fill="white"/>
<path d="M29.1706 44.7091C29.8637 45.8698 28.7891 47.8688 26.7701 49.1737C24.751 50.4789 22.5526 50.5955 21.8598 49.435C21.1667 48.274 22.2413 46.2753 24.2603 44.9704C26.2793 43.6652 28.4775 43.5481 29.1706 44.7091Z" fill="white"/>
<path d="M-11.6418 43.0194C-13.665 50.9074 -9.13473 58.8845 -1.52299 60.8369C6.08876 62.7892 13.8997 57.9777 15.923 50.0897C17.9462 42.2017 13.4156 34.2242 5.80388 32.2718C-1.80787 30.3194 -9.61855 35.1314 -11.6418 43.0194Z" fill="#523B1A"/>
<path d="M-9.91691 43.9573C-11.7498 51.1033 -7.64524 58.3307 -0.749522 60.0994C6.14656 61.8683 13.2232 57.5088 15.0561 50.3628C16.8891 43.2165 12.7845 35.989 5.88844 34.2202C-1.00728 32.4514 -8.08389 36.811 -9.91691 43.9573Z" fill="#D1B86C"/>
<path d="M-9.91691 43.9573C-11.7498 51.1033 -7.64524 58.3307 -0.749522 60.0994C6.14656 61.8683 13.2232 57.5088 15.0561 50.3628C16.8891 43.2165 12.7845 35.989 5.88844 34.2202C-1.00728 32.4514 -8.08389 36.811 -9.91691 43.9573Z" fill="#D1B86C"/>
<path d="M-8.72074 44.2642C-10.3781 50.7256 -6.66685 57.2604 -0.431693 58.8597C5.80382 60.4591 12.2022 56.5174 13.8596 50.056C15.517 43.5942 11.8058 37.0594 5.57028 35.46C-0.664877 33.8607 -7.0633 37.8024 -8.72074 44.2642Z" fill="#F3ED99"/>
<path d="M-1.91159 52.8108C-2.70557 55.9063 -0.92765 59.0364 2.0591 59.8025C5.0462 60.5687 8.11121 58.6808 8.9052 55.5853C9.69909 52.4901 7.92127 49.3597 4.93417 48.5935C1.94742 47.8274 -1.11769 49.7157 -1.91159 52.8108Z" fill="#D4C18D"/>
<path d="M-0.415499 53.1941C-0.989964 55.4338 0.296453 57.6984 2.45732 58.2527C4.61854 58.807 6.83581 57.4411 7.41028 55.2014C7.98465 52.9621 6.69868 50.6973 4.53745 50.1429C2.37659 49.5887 0.158872 50.9549 -0.415499 53.1941Z" fill="#2E2227"/>
<path d="M3.80174 53.01C3.63353 53.6657 4.01045 54.3294 4.64363 54.4918C5.27682 54.6543 5.92665 54.2539 6.09486 53.5981C6.26317 52.942 5.88625 52.2783 5.25306 52.1159C4.61988 51.9535 3.97004 52.3538 3.80174 53.01Z" fill="white"/>
<path d="M1.52304 37.6176C2.2162 38.7782 1.14151 40.7772 -0.877458 42.0821C-2.89652 43.3874 -5.09458 43.5041 -5.78774 42.3434C-6.48081 41.1824 -5.40587 39.1838 -3.38726 37.8789C-1.3682 36.5736 0.830336 36.4566 1.52304 37.6176Z" fill="white"/>
<path d="M18.2644 52.6482C18.0201 52.1678 17.708 51.7123 17.2688 51.4701C16.8423 51.2347 16.276 51.2473 15.8831 51.6047C15.712 51.1018 15.2223 50.8172 14.7355 50.8168C14.2339 50.8165 13.7406 51.0646 13.2943 51.3671C10.9207 52.9761 9.57109 56.1356 9.23508 59.1888C8.89907 62.2419 9.42179 65.2519 9.94191 68.1995C9.98054 68.4167 10.4185 69.8174 11.155 70.0071C11.8914 70.1968 12.9254 69.176 13.0642 69.0043C14.9441 66.6758 16.8561 64.2931 18.0376 61.458C19.2191 58.6229 19.5646 55.2046 18.2644 52.6482Z" fill="#2D1615"/>
<path d="M14.4595 51.296C14.0988 51.2726 13.7642 51.5131 13.4786 51.761C11.4505 53.5241 10.2554 56.1963 9.75524 58.9027C9.20109 61.9022 9.43382 65.0337 10.42 67.8469C10.5909 68.3344 10.8795 68.8859 11.3725 68.9005C11.9386 68.9169 12.2836 68.2338 12.4829 67.6618C14.131 62.9308 15.7143 58.0124 15.4622 53.0402C15.4431 52.6627 15.4109 52.277 15.2598 51.9399C15.1084 51.6026 14.8135 51.3192 14.4595 51.296Z" fill="#EE8B40"/>
<path d="M16.8479 51.9049C16.3495 51.9012 15.9891 52.3903 15.7274 52.8328C13.0466 57.368 11.4808 62.5862 11.2194 67.8554C11.2009 68.2276 11.2214 68.6692 11.5242 68.867C11.9035 69.115 12.3912 68.7866 12.7238 68.4636C15.7433 65.5286 17.7911 61.5468 18.4414 57.3452C18.6978 55.6864 18.704 53.8558 17.7537 52.5142C17.5331 52.2028 17.2246 51.9077 16.8479 51.9049Z" fill="#F2591D"/>
<path d="M14.5665 61.2798C13.5488 65.2474 12.1827 68.325 11.5151 68.1537C10.8477 67.9825 11.1316 64.6274 12.1493 60.6598C13.1671 56.6919 14.5331 53.6143 15.2005 53.7855C15.8681 53.9568 15.5843 57.3119 14.5665 61.2798Z" fill="#F3DE3E"/>
<path d="M14.1308 58.6208C14.4217 58.6035 14.6144 58.3 14.7289 58.0219C15.0911 57.1433 15.1826 56.1525 14.9869 55.2287C14.1686 55.7142 13.6487 56.6583 13.5613 57.6222C13.5411 57.8428 13.5434 58.0732 13.6324 58.2727C13.7218 58.4723 13.9165 58.6337 14.1308 58.6208Z" fill="white"/>
<path d="M13.7639 60.9704C13.7656 60.3818 13.7676 59.7933 13.7693 59.2048C13.3278 59.6895 13.0261 60.3072 12.9123 60.9577C12.8805 61.138 12.864 61.3278 12.9233 61.4985C12.9825 61.6695 13.136 61.8153 13.3129 61.8097C13.4847 61.8046 13.6307 61.6595 13.6965 61.4946C13.7619 61.3295 13.7636 61.1474 13.7639 60.9704Z" fill="white"/>
<path d="M7.91018 115.358C7.35327 114.674 6.29485 114.77 5.47517 115.096C3.61079 115.836 2.13736 117.425 1.16203 119.228C0.186342 121.03 -0.338615 123.045 -0.760178 125.055C-0.823191 125.356 -0.86335 125.723 -0.634243 125.914C-0.3266 126.172 0.120814 125.865 0.407792 125.573C1.92418 124.031 3.44103 122.489 4.95777 120.946C5.76874 120.122 6.58124 119.295 7.30331 118.388C7.65008 117.951 7.9816 117.485 8.13964 116.947C8.29804 116.409 8.25591 115.783 7.91018 115.358Z" fill="#EDA263"/>
<path d="M7.08094 115.296C6.68382 115.194 6.14792 115.258 5.6105 115.472C3.99097 116.114 2.53244 117.517 1.50305 119.419C0.524237 121.228 0.0205553 123.234 -0.377658 125.134C-0.459534 125.524 -0.392278 125.592 -0.38488 125.599L-0.37303 125.606C-0.324324 125.619 -0.127869 125.556 0.136023 125.288L4.68608 120.661C5.47586 119.858 6.292 119.028 7.00316 118.135C7.3166 117.74 7.62671 117.309 7.76608 116.835C7.8729 116.472 7.88762 115.963 7.60913 115.62C7.48062 115.462 7.30279 115.353 7.08094 115.296ZM-0.573937 126.389C-0.687349 126.36 -0.791134 126.307 -0.882806 126.23C-1.32708 125.858 -1.19252 125.217 -1.1416 124.976C-0.750185 123.109 -0.210754 120.942 0.821745 119.035C1.94215 116.964 3.54698 115.432 5.34049 114.719C5.74297 114.559 6.53027 114.32 7.28185 114.513C7.66403 114.611 7.9772 114.807 8.21169 115.095C8.61011 115.585 8.72598 116.337 8.51419 117.058C8.33386 117.669 7.97032 118.18 7.60402 118.64C6.86642 119.567 6.03445 120.413 5.23028 121.231L0.680204 125.858C0.429974 126.112 -0.0662507 126.52 -0.573937 126.389Z" fill="#292625"/>
<path d="M5.82426 118.487C6.02802 118.052 6.217 117.596 6.23969 117.116C5.85439 117.918 5.11464 118.534 4.27554 118.752C4.26867 119.417 4.11067 120.101 3.72204 120.638C3.33366 121.176 2.69011 121.543 2.04951 121.48C1.85219 122.61 1.34708 123.685 0.607422 124.551C1.92193 123.146 3.23642 121.741 4.55128 120.336C4.79399 120.077 5.03736 119.816 5.24403 119.526C5.47382 119.203 5.65574 118.847 5.82426 118.487Z" fill="#DC7029"/>
<path d="M10.4313 116.005C11.2485 115.673 12.1302 116.267 12.692 116.947C13.9694 118.493 14.4962 120.595 14.4839 122.644C14.4714 124.694 13.9617 126.713 13.3635 128.678C13.2741 128.971 13.1323 129.313 12.8395 129.37C12.446 129.448 12.2016 128.963 12.0908 128.57C11.5035 126.488 10.9164 124.406 10.3291 122.324C10.0156 121.211 9.70108 120.096 9.50519 118.952C9.41111 118.403 9.34515 117.834 9.46515 117.287C9.58515 116.739 9.9238 116.211 10.4313 116.005Z" fill="#EDA263"/>
<path d="M11.1878 116.35C10.966 116.293 10.7577 116.303 10.5687 116.379C10.1604 116.546 9.92761 117 9.84638 117.37C9.74072 117.851 9.80487 118.378 9.89024 118.875C10.0828 119.998 10.399 121.12 10.705 122.205L12.4665 128.451C12.5688 128.813 12.7105 128.962 12.7595 128.975C12.7613 128.975 12.7645 128.976 12.7733 128.974C12.7829 128.972 12.8742 128.944 12.991 128.563C13.5563 126.706 14.0805 124.705 14.0927 122.649C14.106 120.486 13.5022 118.554 12.3923 117.211C12.0242 116.766 11.5849 116.452 11.1878 116.35ZM12.5586 129.758C12.0506 129.628 11.8123 129.032 11.7152 128.689L9.95363 122.443C9.6422 121.337 9.32007 120.194 9.1202 119.029C9.02051 118.449 8.94756 117.826 9.08362 117.204C9.24537 116.47 9.70854 115.867 10.2931 115.629C10.6378 115.49 11.0065 115.469 11.3887 115.567C12.1403 115.76 12.7154 116.348 12.9912 116.682C14.2204 118.17 14.8891 120.285 14.8751 122.64C14.8622 124.808 14.2922 126.967 13.7366 128.792C13.6645 129.029 13.4731 129.655 12.9064 129.767C12.7883 129.79 12.6717 129.787 12.5586 129.758Z" fill="#292625"/>
<path d="M12.2125 120.45C11.9595 121.152 11.8884 121.922 12.0084 122.654C12.0506 122.914 12.1191 123.174 12.2622 123.391C12.4058 123.606 12.6349 123.774 12.89 123.785C12.6045 124.423 12.6279 125.154 12.7089 125.846C12.762 126.295 12.8363 126.741 12.9325 127.181C12.8201 127.089 12.758 126.948 12.7008 126.812C12.4036 126.107 12.1276 125.391 11.8514 124.676C11.7267 124.353 11.602 124.029 11.4773 123.706C11.4001 123.506 11.3233 123.306 11.2516 123.104C10.7537 121.695 10.5374 120.176 10.6198 118.668C10.6444 118.22 10.7129 117.732 11.0275 117.416C11.2227 118.509 11.4523 119.671 12.2125 120.45Z" fill="#DC7029"/>
<path d="M10.4773 120.64C9.71953 123.594 7.20043 128.796 5.82918 128.444C4.45757 128.092 4.75358 122.32 5.51138 119.366C6.26908 116.412 7.9948 114.302 9.3664 114.654C10.7377 115.005 11.235 117.686 10.4773 120.64Z" fill="#EDA263"/>
<path d="M9.26606 115.045C8.27024 114.79 6.63878 116.541 5.8894 119.463C5.04041 122.773 5.06423 127.83 5.92993 128.052C6.79527 128.274 9.25053 123.853 10.0995 120.543C10.8489 117.621 10.2612 115.301 9.26606 115.045ZM5.72892 128.835C3.87025 128.359 4.47569 121.832 5.13322 119.269C5.95905 116.049 7.86249 113.851 9.46697 114.262C11.0707 114.673 11.6812 117.517 10.8553 120.737C10.1978 123.3 7.58689 129.312 5.72892 128.835Z" fill="#292625"/>
<path d="M3.92865 117.146C3.89365 117.34 3.97187 117.535 4.06271 117.707C4.14105 117.855 4.24376 118.008 4.40247 118.051C4.65252 118.119 4.88137 117.887 5.04744 117.679C5.26167 117.409 5.47982 117.134 5.60134 116.809C5.72287 116.484 5.73289 116.097 5.54345 115.814C5.13047 116.046 4.73305 116.307 4.35512 116.596C4.16715 116.74 3.97128 116.911 3.92865 117.146Z" fill="#F3ED99"/>
<path d="M3.25643 117.945C3.14367 117.938 3.04792 118.028 2.96997 118.113C2.26576 118.884 1.78479 119.868 1.60531 120.905C1.58623 121.016 1.58068 121.154 1.6725 121.214C1.78393 121.288 1.92484 121.179 2.01702 121.078C2.38351 120.679 2.74991 120.28 3.1164 119.881C3.3185 119.66 3.52913 119.424 3.59188 119.129C3.65428 118.834 3.54737 117.961 3.25643 117.945Z" fill="#F3ED99"/>
<path d="M6.52951 119.643C6.53631 119.884 6.59802 120.153 6.79918 120.272C6.99636 120.388 7.26084 120.308 7.42998 120.146C7.59912 119.985 7.69346 119.759 7.7795 119.539C8.23872 118.36 8.58601 117.136 8.81398 115.891C8.83854 115.758 8.82987 115.574 8.70139 115.55C8.63546 115.538 8.57231 115.581 8.51836 115.622C7.74134 116.226 7.23827 117.134 6.87586 118.063C6.67858 118.569 6.51464 119.102 6.52951 119.643Z" fill="#F3ED99"/>
<path d="M12.9225 118.704C12.6933 118.24 12.438 117.775 12.0503 117.442C11.9969 117.396 11.9342 117.351 11.8648 117.359C11.7426 117.633 11.7492 117.951 11.8242 118.239C11.8992 118.528 12.0379 118.792 12.1751 119.054C12.29 119.272 12.4044 119.49 12.5193 119.709C12.6201 119.901 12.7542 120.117 12.9668 120.133C13.1483 119.954 13.207 119.674 13.1755 119.42C13.144 119.166 13.0348 118.931 12.9225 118.704Z" fill="#F3ED99"/>
<path d="M6.00781 127.4C6.45749 127.507 6.85171 127.072 7.11514 126.674C8.56894 124.478 9.51287 121.929 9.84367 119.307C10.0055 118.023 9.98608 116.604 9.20527 115.608C8.79629 118.35 8.21122 121.067 7.45512 123.735C7.31687 124.224 7.17249 124.712 7.02083 125.197C6.778 125.973 6.50663 126.763 6.00781 127.4Z" fill="#DC7029"/>
<path d="M44.6647 36.9064C44.4707 35.8204 45.6863 35.0567 46.195 34.072C46.9275 32.6535 46.1017 30.9598 45.2229 29.6616C44.3445 28.3635 43.342 26.8652 43.7497 25.3182C43.9428 24.5864 44.4324 23.9745 44.728 23.2784C45.024 22.5823 45.0678 21.6555 44.498 21.1913C43.8293 20.6471 42.8499 21.087 42.0868 21.5065C37.2032 24.19 31.6723 25.5765 26.1811 25.4941C26.1341 27.5725 26.0874 29.6511 26.0408 31.7297C26.0281 32.2828 26.0192 32.8554 26.2266 33.3617C26.5001 34.0295 27.1032 34.4764 27.6801 34.8878C30.1139 36.6233 32.5884 38.3375 35.3178 39.5307C38.0469 40.7239 41.0717 41.3785 44.0266 40.9066C44.9448 40.76 46.0614 40.2359 46.0294 39.2806C45.9979 38.3372 44.8303 37.8324 44.6647 36.9064Z" fill="#F2591D"/>
<path d="M26.5625 25.901L26.4316 31.7322C26.4202 32.239 26.409 32.7631 26.5873 33.1995C26.8093 33.7418 27.316 34.1341 27.9061 34.5548C30.3787 36.3179 32.8186 37.9972 35.4754 39.1589C38.4435 40.457 41.3692 40.9235 43.9736 40.5078C44.5603 40.4141 45.6635 40.0413 45.6383 39.3017C45.6269 38.9517 45.3626 38.6526 45.0568 38.3056C44.7389 37.9452 44.3788 37.5364 44.2801 36.9861C44.1194 36.0865 44.6957 35.3925 45.2036 34.7802C45.4563 34.4759 45.6948 34.1888 45.8505 33.8875C46.3607 32.9001 46.0503 31.5946 44.9011 29.8968C44.0156 28.5879 42.9139 26.9593 43.3728 25.2189C43.5025 24.7268 43.743 24.2988 43.976 23.885C44.1229 23.6243 44.2615 23.3779 44.3707 23.122C44.6011 22.5795 44.6626 21.8437 44.2523 21.5096C43.7784 21.1234 42.9183 21.5031 42.2658 21.8619C37.4253 24.5219 32.0042 25.915 26.5625 25.901ZM38.1899 40.9554C38.1899 40.9554 38.1902 40.9555 38.1899 40.9554C37.1926 40.6996 36.1729 40.3454 35.1597 39.9021C32.4361 38.7115 29.9608 37.009 27.454 35.2214C26.8922 34.8205 26.1929 34.3219 25.8662 33.5242C25.6229 32.9305 25.6372 32.2914 25.65 31.7273L25.7899 25.4916C25.7924 25.3842 25.8359 25.2811 25.912 25.206C25.9875 25.1303 26.0891 25.0889 26.1932 25.0908C31.6343 25.1722 37.0683 23.8103 41.9074 21.1512C42.6109 20.7646 43.4306 20.3949 44.174 20.5856C44.3838 20.6394 44.5753 20.736 44.7436 20.8734C45.478 21.4714 45.4447 22.5909 45.0858 23.435C44.9587 23.7338 44.8024 24.0122 44.6507 24.2815C44.4339 24.6661 44.2295 25.0299 44.127 25.4178C43.7639 26.7948 44.7102 28.1935 45.5449 29.427C46.8764 31.3949 47.2018 32.9744 46.5393 34.2574C46.3425 34.6388 46.0636 34.9745 45.7943 35.2989C45.3448 35.8401 44.9565 36.3079 45.0493 36.8265C45.1081 37.1545 45.3665 37.4469 45.6393 37.7572C45.9954 38.1607 46.3988 38.6176 46.4205 39.2601C46.4611 40.4873 45.1849 41.1287 44.0805 41.3053C42.2291 41.6008 40.2469 41.483 38.1899 40.9554Z" fill="#292625"/>
<path d="M36.9678 26.0819C35.8595 26.7554 34.5935 27.0852 33.3797 27.5243C32.4024 27.8779 31.4505 28.3064 30.5345 28.8049C30.2516 28.9593 29.9364 29.1749 29.9188 29.5007C31.3606 29.5226 32.8037 29.4847 34.2437 29.3884C35.3718 29.3126 36.511 29.2011 37.6249 29.3788C37.7796 29.4036 37.9797 29.5421 37.8841 29.6699C37.4346 30.1118 36.7665 30.2008 36.1486 30.2669C34.9714 30.3922 33.7941 30.5178 32.6168 30.6435C31.9413 30.7156 31.2578 30.7892 30.6163 31.0225C30.2021 31.1734 29.7517 31.4832 29.7617 31.9302C29.7682 32.2358 29.993 32.4835 30.2145 32.6864C31.2108 33.5989 32.4355 34.2503 33.743 34.5625C34.0532 34.6366 34.3795 34.6971 34.6354 34.89C34.891 35.0828 35.0485 35.4585 34.8901 35.7438C34.7142 36.0615 34.2796 36.091 33.9288 36.0347C33.5778 35.9789 33.1906 35.8843 32.8875 36.0775C32.8174 36.1219 32.754 36.183 32.722 36.2604C32.635 36.471 32.8019 36.6952 32.974 36.8379C33.4906 37.2657 34.1479 37.4747 34.7984 37.6286C35.7869 37.8625 36.8009 37.9907 37.818 38.0097C37.4212 38.6555 36.5636 38.8141 35.8234 38.7542C34.5805 38.6541 33.415 38.1294 32.3127 37.5447C30.8825 36.7859 29.5111 35.9131 28.2147 34.9374C27.5898 34.4665 26.9669 33.9537 26.5871 33.2614C26.0023 32.1954 26.0873 30.8593 26.4514 29.6852C26.7861 28.6048 27.3928 27.5424 28.3734 27.0078C29.0152 26.6581 29.7538 26.566 30.471 26.457C32.1002 26.2093 33.7137 25.8441 35.295 25.3651C36.1212 25.1148 37.0085 24.8331 37.8192 25.1129C37.7244 25.5476 37.3435 25.8536 36.9678 26.0819Z" fill="#D34B20"/>
<path d="M0.498918 25.5779C1.192 24.7195 0.493768 23.4649 0.52217 22.357C0.56249 20.7609 2.1016 19.6738 3.49674 18.9589C4.89152 18.2439 6.49144 17.4131 6.8786 15.8608C7.06167 15.1264 6.927 14.3544 7.00293 13.6019C7.07886 12.8494 7.48629 12.0159 8.20953 11.8833C9.05719 11.7281 9.70396 12.5851 10.1709 13.3201C13.16 18.0229 17.3406 21.9004 22.194 24.4713C21.2344 26.3157 20.2751 28.1602 19.3155 30.0046C19.06 30.4955 18.7926 31.0018 18.3668 31.3457C17.806 31.7994 17.0619 31.9008 16.3586 31.9838C13.3895 32.3335 10.3954 32.645 7.42899 32.3773C4.4622 32.1095 1.49578 31.2273 -0.867206 29.3913C-1.60149 28.8209 -2.32761 27.8242 -1.84014 27.0022C-1.35836 26.1904 -0.0919832 26.3099 0.498918 25.5779Z" fill="#F2591D"/>
<path d="M8.58365 12.2916C8.47913 12.2648 8.37693 12.2614 8.27121 12.2806C7.75109 12.3761 7.45077 13.0506 7.39168 13.6371C7.36389 13.9138 7.36668 14.1969 7.36997 14.4957C7.37466 14.9709 7.37993 15.4615 7.25705 15.9554C6.8216 17.7018 5.07165 18.599 3.66591 19.3198C1.84137 20.2552 0.940872 21.2501 0.912781 22.3612C0.904253 22.7002 0.97473 23.0666 1.0498 23.4549C1.20067 24.2362 1.37171 25.1219 0.797524 25.833C0.446487 26.268 -0.0662492 26.4529 -0.518375 26.6157C-0.953468 26.7727 -1.32876 26.9077 -1.50757 27.209C-1.88523 27.8452 -1.0977 28.703 -0.62853 29.0676C1.4539 30.6854 4.24185 31.6844 7.46941 31.9755C10.3577 32.2361 13.3043 31.9384 16.3207 31.5832C17.0404 31.4984 17.673 31.3984 18.1287 31.03C18.4954 30.7333 18.7374 30.2684 18.9717 29.8188L21.663 24.6443C16.8867 22.0375 12.8057 18.2071 9.84248 13.5455C9.51333 13.028 9.07321 12.4172 8.58365 12.2916ZM4.22535 32.2437C2.16829 31.716 0.374487 30.8652 -1.10573 29.7152C-1.98947 29.0287 -2.79944 27.8522 -2.17274 26.7961C-1.8449 26.2433 -1.27137 26.037 -0.764994 25.8547C-0.376168 25.7141 -0.00888409 25.5822 0.200465 25.3229C0.531071 24.913 0.415919 24.316 0.28275 23.6253C0.202877 23.2114 0.11991 22.7829 0.130713 22.3538C0.167502 20.9104 1.213 19.6825 3.32764 18.5985C4.65304 17.9191 6.15532 17.1484 6.50014 15.7671C6.59709 15.3773 6.59264 14.9603 6.58774 14.5185C6.58468 14.2099 6.58142 13.8902 6.6139 13.5671C6.70551 12.6545 7.2152 11.6571 8.14711 11.4866C8.36035 11.4471 8.5748 11.4546 8.78456 11.5084C9.52831 11.6991 10.0685 12.4177 10.4991 13.0951C13.4612 17.7552 17.5688 21.5645 22.377 24.112C22.4692 24.1604 22.5379 24.2456 22.568 24.3483C22.5982 24.4507 22.587 24.5621 22.5376 24.6574L19.6591 30.1907C19.3985 30.6913 19.1037 31.2585 18.6047 31.6617C17.9344 32.2037 17.0815 32.3041 16.3961 32.3851C13.3383 32.7454 10.3488 33.0463 7.38837 32.7789C6.28691 32.6798 5.22294 32.4996 4.22535 32.2437Z" fill="#292625"/>
<path d="M11.9179 19.6566C12.5649 20.7803 13.5159 21.6788 14.3684 22.6478C15.0549 23.4282 15.683 24.262 16.246 25.1398C16.42 25.4114 16.5925 25.7522 16.4508 26.046C15.1764 25.3713 13.9297 24.6435 12.7139 23.8659C11.7615 23.2565 10.8166 22.6105 9.7547 22.2301C9.6072 22.1773 9.36508 22.2024 9.38743 22.3605C9.56868 22.9642 10.1115 23.3638 10.6213 23.7191C11.5929 24.3955 12.5643 25.0723 13.5358 25.7491C14.0936 26.1376 14.6569 26.531 15.1069 27.0442C15.3973 27.3759 15.6431 27.8642 15.4191 28.2513C15.2663 28.516 14.9504 28.625 14.6586 28.6962C13.3457 29.0164 11.9587 28.9979 10.6624 28.6423C10.3547 28.5579 10.0396 28.4539 9.72245 28.4998C9.40564 28.5457 9.08709 28.7993 9.08829 29.1256C9.08985 29.4888 9.45624 29.7237 9.79084 29.8433C10.1253 29.9633 10.5103 30.0667 10.6833 30.382C10.723 30.4547 10.7492 30.5387 10.74 30.622C10.7149 30.8484 10.4608 30.9646 10.2411 31.0068C9.5824 31.1332 8.9057 31 8.26176 30.8219C7.2824 30.5511 6.33185 30.1753 5.43122 29.7024C5.46816 30.4595 6.14393 31.0114 6.8212 31.3151C7.95886 31.8256 9.23299 31.9266 10.4807 31.9447C12.0995 31.968 13.7216 31.863 15.3276 31.6318C16.1021 31.5198 16.8952 31.3703 17.561 30.9462C18.5867 30.2932 19.1553 29.0812 19.4017 27.8769C19.6279 26.7687 19.6075 25.5454 19.0053 24.6048C18.6114 23.9894 18.008 23.5531 17.4318 23.1124C16.1229 22.1111 14.8844 21.0144 13.7289 19.8333C13.1252 19.2163 12.4834 18.5424 11.6377 18.3973C11.5116 18.824 11.6982 19.2755 11.9179 19.6566Z" fill="#D34B20"/>
<path d="M32.0684 25.0085C30.916 22.783 28.464 20.9895 25.7217 20.3666C25.6129 20.3418 25.5005 20.3204 25.3876 20.3028C25.2805 20.264 25.1713 20.2285 25.0644 20.1979C22.3604 19.4239 19.348 19.8158 17.2666 21.2119C18.6882 22.3984 19.4042 24.0844 19.4876 25.6988C19.5714 27.3133 19.0758 28.8688 18.3849 30.3156C18.1265 30.856 17.8501 31.4994 18.2432 32.0321C18.5974 32.5125 19.3266 32.6611 19.9677 32.7603C20.6925 32.8728 21.4979 32.962 22.1732 32.8348C22.7042 33.2714 23.4527 33.5808 24.1426 33.8312C24.7522 34.0527 25.4629 34.2735 26.0046 34.0229C26.6056 33.7451 26.6726 33.0481 26.7066 32.4501C26.7971 30.8493 27.1117 29.2474 27.9619 27.8724C28.8124 26.4976 30.2516 25.3644 32.0684 25.0085Z" fill="#D34B20"/>
<path d="M22.274 32.443C22.327 32.4566 22.3769 32.4819 22.4204 32.5178C22.9144 32.9245 23.6369 33.2174 24.2778 33.4501C24.4615 33.5169 24.6781 33.5928 24.8935 33.6481C25.3145 33.7561 25.6273 33.7582 25.8499 33.6555C26.1926 33.4968 26.2778 33.104 26.316 32.4337C26.4269 30.4753 26.8577 28.9138 27.6329 27.6601C28.5136 26.2357 29.8885 25.1948 31.4609 24.7429C30.2782 22.8363 28.0864 21.3211 25.6313 20.7605C25.5317 20.7381 25.4277 20.7181 25.3234 20.7023C25.2987 20.6979 25.2756 20.692 25.2523 20.684C25.1529 20.6476 25.0521 20.615 24.9533 20.5866C24.8696 20.5627 24.785 20.5395 24.7004 20.5178C22.355 19.9162 19.8131 20.2078 17.9272 21.2715C19.0877 22.4244 19.7919 23.9986 19.8782 25.6711C19.9546 27.1431 19.5806 28.7192 18.7348 30.4891C18.4457 31.0951 18.3313 31.4804 18.5557 31.7841C18.7014 31.9817 18.9766 32.1304 19.3971 32.2383C19.6129 32.2936 19.8394 32.3313 20.0322 32.3611C20.7063 32.4657 21.4802 32.5566 22.1093 32.438C22.1651 32.4276 22.2207 32.4293 22.274 32.443ZM24.6926 34.4314C24.4459 34.3681 24.2073 34.2849 24.007 34.2119C23.3592 33.9763 22.6313 33.6812 22.0645 33.2598C21.3645 33.3563 20.584 33.2645 19.9028 33.1592C19.6922 33.1268 19.4433 33.0849 19.1962 33.0216C18.5997 32.8685 18.1857 32.6257 17.9307 32.2799C17.3739 31.5258 17.8036 30.626 18.0345 30.1422C18.8188 28.5014 19.166 27.0575 19.0972 25.7276C19.0126 24.0908 18.2546 22.5598 17.0177 21.5275C16.921 21.4465 16.8687 21.3228 16.8761 21.1935C16.8842 21.0644 16.9517 20.9459 17.0574 20.8749C19.2237 19.4212 22.3656 19.0079 25.1747 19.809C25.2791 19.8393 25.3843 19.8725 25.4887 19.9099C25.5979 19.9273 25.7058 19.9487 25.8111 19.9722C25.9042 19.9933 25.9963 20.0154 26.0877 20.0388C28.8295 20.7421 31.2532 22.5716 32.4139 24.8138C32.4728 24.927 32.4749 25.0634 32.4192 25.1803C32.3641 25.2973 32.2583 25.3805 32.1349 25.405C30.5539 25.7145 29.1525 26.6917 28.2903 28.0856C27.5898 29.2182 27.1995 30.651 27.0968 32.4667C27.0664 33.0019 27.0103 33.9975 26.1592 34.3909C25.7697 34.571 25.2899 34.5846 24.6926 34.4314Z" fill="#292625"/>
<path d="M20.7898 30.612C21.1742 31.2595 21.8735 31.6933 22.6125 31.7431C23.3519 31.7926 24.1125 31.4568 24.5952 30.8675C24.8832 30.5157 25.0702 30.0913 25.2919 29.6923C26.1056 28.2259 27.3858 27.1038 28.4473 25.8152C28.5963 25.6343 28.7429 25.4469 28.8349 25.2302C29.0969 24.6118 28.8496 23.8715 28.4001 23.3945C27.951 22.9177 27.3366 22.6497 26.7346 22.407C24.9426 21.6839 23.0768 21.0706 21.1439 20.9914C20.5368 20.9665 19.8349 21.0425 19.4759 21.5555C19.2122 21.9323 19.2197 22.4467 19.3525 22.8848C19.4853 23.3229 19.7262 23.7145 19.9067 24.1335C20.3638 25.1951 20.4178 26.3983 20.381 27.5672C20.3481 28.61 20.266 29.7292 20.7898 30.612Z" fill="#F2591D"/>
<path d="M20.7705 21.5618C20.6338 21.6665 20.5314 21.8114 20.4391 21.9586C20.1775 22.3772 19.9744 22.878 20.0776 23.3591C20.175 23.8141 20.526 24.159 20.8875 24.4354C21.3218 24.7675 21.7965 25.044 22.2974 25.2569C22.9665 25.5408 23.7984 25.6878 24.3782 25.2236C25.0651 24.673 24.9935 23.5147 24.4532 22.8303C23.9135 22.1457 23.062 21.8224 22.2456 21.5486C21.7609 21.3862 21.1853 21.2445 20.7705 21.5618Z" fill="#F3D055"/>
<path d="M21.2947 26.8272C21.4649 27.2035 21.7206 27.5702 22.1017 27.7052C22.4827 27.8403 22.9944 27.6358 23.0723 27.2242C23.1624 26.7503 22.6878 26.3937 22.2723 26.1815C22.0961 26.0915 21.9125 26.0024 21.715 25.9953C21.5174 25.9886 21.3013 26.0864 21.224 26.2754C21.1512 26.4531 21.217 26.6545 21.2947 26.8272Z" fill="#F3D055"/>
<path d="M8.11053 14.3117C8.24008 14.8629 8.37343 15.4229 8.64947 15.9111C8.92552 16.3993 9.36997 16.8144 9.91249 16.9108C10.2902 16.6747 10.3827 16.1263 10.2481 15.6984C10.1135 15.2704 9.80893 14.9288 9.53182 14.5836C9.16136 14.1222 8.82639 13.6303 8.53094 13.1144C8.29352 13.1167 8.10083 13.3464 8.04983 13.5866C7.99874 13.8272 8.0547 14.0744 8.11053 14.3117Z" fill="#F3D055"/>
<path d="M40.5762 24.3784C41.6096 24.31 42.5903 23.6051 43.0157 22.6249C41.9686 22.4246 40.8139 22.9762 40.2719 23.9355C40.2213 24.025 40.1741 24.1319 40.2091 24.2276C40.2586 24.364 40.434 24.3878 40.5762 24.3784Z" fill="#F3D055"/>
<path d="M3.91438 20.3371C3.10901 20.5668 2.35544 21.2401 2.2798 22.0963C2.18972 23.1138 3.03105 23.9331 3.85922 24.4757C5.90205 25.8137 8.29158 26.5032 10.6902 26.915C10.7707 26.1994 10.3746 25.5128 9.85513 25.043C9.33519 24.5735 8.6968 24.2704 8.10073 23.9086C6.78434 23.1096 5.64949 22.0002 4.80543 20.6878C4.72227 20.5584 4.63682 20.4219 4.5047 20.3475C4.32851 20.2485 4.1101 20.2817 3.91438 20.3371Z" fill="#F3D055"/>
<path d="M34.3091 32.9908C36.3938 33.7933 38.6268 34.1992 40.8647 34.1814C41.5785 34.1756 42.3067 34.1244 42.9757 33.8547C43.6446 33.5853 44.2537 33.0674 44.4945 32.3697C44.5842 32.11 44.611 31.7941 44.4381 31.5891C44.3152 31.4437 44.1207 31.3895 43.936 31.3531C43.1482 31.1966 42.3357 31.2297 41.531 31.2632C38.8452 31.3757 36.1591 31.4878 33.473 31.5999C33.2221 31.6105 32.8684 31.8005 33.0045 32.0157C33.2423 32.529 33.7919 32.7913 34.3091 32.9908Z" fill="#F3D055"/>
<path d="M4.86231 27.8674C4.91357 27.4415 4.44343 27.1811 4.0529 27.0433C3.70851 26.922 3.36413 26.8006 3.01984 26.6789C2.59584 26.5297 2.14589 26.3782 1.70433 26.4762C1.26241 26.5741 0.855133 27.0245 0.963943 27.4733C1.72523 28.3935 3.0221 28.8003 4.16842 28.4779C4.47923 28.3903 4.82262 28.1964 4.86231 27.8674Z" fill="#F3D055"/>
<path d="M35.8725 35.9813C35.8914 36.1188 35.9948 36.2254 36.1006 36.3107C36.5642 36.6837 37.1546 36.8402 37.727 36.9882C38.5697 37.2055 39.4123 37.4232 40.2546 37.6404C41.1732 37.8776 42.2694 38.0728 42.9795 37.408C43.0488 37.3429 43.1139 37.2681 43.1447 37.1775C43.2766 36.786 42.7285 36.4793 42.7308 36.0669C40.7274 35.8812 38.7235 35.6959 36.7201 35.5103C36.5361 35.4934 36.3443 35.4772 36.1704 35.5452C35.9964 35.6133 35.8467 35.7924 35.8725 35.9813Z" fill="#F3D055"/>
<path d="M34.7335 78.2178C39.8282 75.0262 44.9474 71.8217 50.4383 69.4531C55.9289 67.0847 61.8505 65.5675 67.7501 65.9138C65.6684 67.9608 63.2651 69.6575 60.6669 70.9148C61.3601 70.8464 62.0758 70.7798 62.7343 70.999C63.3926 71.2185 63.984 71.8009 64.0009 72.5179C64.0168 73.1958 63.5418 73.7788 63.0757 74.2663C61.4832 75.9327 59.6568 77.3612 57.6738 78.4919C58.3095 78.6903 58.5724 79.5313 58.3783 80.1934C58.1842 80.8555 57.6659 81.3619 57.1417 81.7971C54.9856 83.5879 52.3499 84.7519 49.6221 85.1183C50.6188 85.6492 51.6153 86.1797 52.6121 86.7106C51.3989 88.2689 49.3231 88.9015 47.41 88.752C45.4971 88.6022 43.709 87.778 42.0182 86.8668C39.3258 85.4152 36.765 83.7096 34.3773 81.7782C33.8284 81.3343 34.0441 78.6496 34.7335 78.2178Z" fill="#F2591D"/>
<path d="M45.7649 88.882C44.3666 88.5233 43.0591 87.8864 41.8324 87.225C39.1241 85.765 36.5337 84.04 34.1328 82.0978C33.9643 81.9615 33.9373 81.708 34.0723 81.5317C34.2072 81.3559 34.4522 81.3225 34.622 81.4595C36.9861 83.3723 39.5371 85.0707 42.2042 86.5083C43.817 87.3779 45.5679 88.2024 47.4462 88.35C49.2248 88.4889 50.9147 87.9144 51.9825 86.8329L49.4382 85.4778C49.2866 85.3969 49.2057 85.2234 49.2378 85.0494C49.2699 84.8755 49.4079 84.7408 49.5782 84.7181C52.2148 84.3645 54.815 83.2161 56.8997 81.4852C57.3529 81.1083 57.8392 80.6467 58.0042 80.0836C58.1362 79.6321 57.9687 79.0076 57.5551 78.8783C57.4052 78.832 57.2989 78.6968 57.2845 78.5356C57.2705 78.3746 57.3507 78.2185 57.4895 78.1398C59.4427 77.0262 61.2298 75.6284 62.7997 73.9853C63.2279 73.5376 63.6222 73.0521 63.6098 72.5349C63.5967 71.9684 63.0818 71.5411 62.6084 71.3836C62.0155 71.1855 61.3453 71.2528 60.6976 71.3171C60.5089 71.3347 60.3356 71.2113 60.2881 71.0224C60.2408 70.8332 60.3327 70.6345 60.5058 70.5505C62.7939 69.4431 64.9057 68.0084 66.794 66.2778C61.7866 66.151 56.3388 67.3424 50.5836 69.8251C45.1083 72.1871 39.9352 75.4277 34.9321 78.5619C34.7458 78.6782 34.5062 78.6183 34.3968 78.4289C34.2871 78.239 34.3489 77.9906 34.5349 77.8742C39.5628 74.7243 44.7618 71.4672 50.2927 69.0818C56.5165 66.3969 62.3996 65.1954 67.7788 65.511C67.9323 65.5213 68.0669 65.623 68.1188 65.7734C68.1706 65.9233 68.1307 66.0921 68.0171 66.204C66.3049 67.8875 64.3991 69.3247 62.335 70.4908C62.5114 70.518 62.6867 70.5582 62.8604 70.6153C63.6065 70.8636 64.3693 71.543 64.3917 72.5014C64.4115 73.3252 63.8771 73.9982 63.3519 74.5475C61.8776 76.0899 60.2188 77.4235 58.4136 78.5182C58.8124 78.9829 58.9279 79.7056 58.7526 80.3046C58.5243 81.0824 57.933 81.6536 57.384 82.11C55.4676 83.7016 53.2265 84.7959 50.8441 85.3122L52.7963 86.3517C52.8994 86.4064 52.9726 86.5065 52.9958 86.6243C53.0187 86.7421 52.9893 86.8653 52.9154 86.9599C51.7258 88.4881 49.6026 89.3292 47.3741 89.1541C46.8246 89.1114 46.2886 89.0163 45.7649 88.882Z" fill="#292625"/>
<path d="M40.9427 78.3376C43.7659 77.0823 46.6454 75.6825 48.6944 73.3078C48.9067 73.0623 49.1138 72.797 49.2021 72.4823C49.2901 72.1672 49.2312 71.7897 48.9827 71.5916C46.4979 72.5748 44.073 73.7265 41.7299 75.0366C40.3145 75.8276 38.7729 76.9082 38.5737 78.5475C39.2647 79.0016 40.1801 78.6768 40.9427 78.3376Z" fill="#F3D055"/>
<path d="M52.6399 71.7694C53.632 71.4026 54.4696 70.5969 54.8941 69.6005C53.825 69.7374 52.7789 70.0902 51.8327 70.634C51.4212 70.8701 50.9766 71.2477 51.0297 71.7258C51.4974 72.0284 52.1137 71.9642 52.6399 71.7694Z" fill="#F3D055"/>
<path d="M60.5132 70.3043C57.7556 70.3701 55.1617 71.6591 52.6699 72.9212C50.5918 73.9734 48.4959 75.0375 46.6743 76.517C46.3335 76.7936 45.9748 77.2851 46.2432 77.6273C46.414 77.845 46.7357 77.8345 47.008 77.7967C48.265 77.6232 49.503 77.2803 50.6805 76.7801C48.8482 77.635 47.0122 78.4924 45.2751 79.5418C44.3532 80.0988 43.4238 80.7499 42.9145 81.7179C42.7224 82.0825 42.6129 82.5747 42.8835 82.8726C43.1343 83.149 43.5693 83.1035 43.9303 83.0107C44.8448 82.7765 45.7127 82.3771 46.575 81.9798C47.5435 81.5336 48.5122 81.0871 49.4807 80.6409C48.2103 81.4337 46.9685 82.2763 45.7591 83.1665C45.0813 83.6656 44.3899 84.2073 44.0093 84.9704C43.9288 85.1319 43.8624 85.3183 43.9148 85.4892C44.0221 85.8407 44.4968 85.8513 44.8482 85.771C47.6813 85.1253 50.0231 83.1011 52.2378 81.1439C52.3833 81.559 52.8932 81.7353 53.3121 81.6268C53.731 81.5182 54.069 81.1974 54.3554 80.8609C55.0023 80.0997 55.4874 79.1938 55.7657 78.227C55.82 78.0391 55.8717 77.8388 56.0081 77.7002C56.1127 77.5935 56.2544 77.5376 56.3908 77.4815C57.8282 76.8897 59.14 75.9649 60.1997 74.7957C60.5394 74.421 60.8418 73.7812 60.4599 73.4665C60.271 73.3108 60.0002 73.3309 59.7573 73.3589C58.3751 73.5184 56.9933 73.6775 55.6111 73.8366C56.8392 72.9901 58.1061 72.2034 59.4054 71.4809L60.5132 70.3043Z" fill="#F7A80E"/>
<path d="M-22.2666 61.0737C-16.7858 58.6905 -11.279 56.2981 -5.52528 54.792C0.22832 53.2862 6.28456 52.6904 12.0526 53.9396C9.70715 55.6504 7.09403 56.9641 4.35193 57.8121C5.04524 57.8507 5.76094 57.8947 6.37884 58.2132C6.9966 58.532 7.49638 59.2004 7.41041 59.9142C7.3291 60.589 6.77689 61.0941 6.24785 61.5062C4.43853 62.9142 2.43305 64.0506 0.316068 64.8678C0.914199 65.162 1.05301 66.0364 0.76684 66.6633C0.481009 67.2904 -0.102848 67.7128 -0.68182 68.0642C-3.06465 69.5091 -5.83036 70.2589 -8.57271 70.2035C-7.6658 70.8831 -6.75873 71.5624 -5.85181 72.242C-7.27125 73.6012 -9.40906 73.9098 -11.2738 73.468C-13.1387 73.0257 -14.784 71.9337 -16.3209 70.7704C-18.7683 68.9172 -21.0491 66.8325 -23.1272 64.5504C-23.6049 64.0258 -23.0082 61.3961 -22.2666 61.0737Z" fill="#F2591D"/>
<path d="M-12.916 73.3443C-12.4188 73.5579 -11.9039 73.7345 -11.3679 73.8614C-9.19563 74.377 -6.98153 73.8688 -5.5897 72.5357C-5.50331 72.4533 -5.45673 72.3356 -5.4624 72.2153C-5.4684 72.0948 -5.5263 71.9843 -5.62009 71.9143L-7.39645 70.5835C-4.97324 70.4373 -2.60652 69.696 -0.489013 68.4117C0.117433 68.044 0.782534 67.5688 1.11911 66.8312C1.37767 66.264 1.36757 65.5297 1.04052 65.0074C2.97715 64.1992 4.80362 63.1306 6.47897 61.8276C7.07543 61.3634 7.69833 60.7782 7.79718 59.9579C7.91189 59.0038 7.25697 58.2128 6.55683 57.852C6.39322 57.7681 6.22627 57.7017 6.05653 57.6478C8.25904 56.8087 10.3438 55.6758 12.2737 54.2687C12.4016 54.1755 12.4652 54.0139 12.4357 53.8572C12.4063 53.7003 12.2884 53.5789 12.1379 53.5448C6.87866 52.4059 0.904915 52.6942 -5.61675 54.4015C-11.412 55.9184 -17.0053 58.3504 -22.4142 60.7025C-22.6143 60.7894 -22.7108 61.0263 -22.6298 61.2315C-22.5487 61.4364 -22.321 61.5325 -22.1209 61.4456C-16.7387 59.1052 -11.1736 56.6855 -5.43592 55.1836C0.594657 53.6048 6.13735 53.2595 11.057 54.1541C8.9465 55.5804 6.65908 56.6792 4.24421 57.4262C4.06148 57.483 3.94244 57.6659 3.96202 57.8609C3.98175 58.0555 4.13604 58.2049 4.32392 58.2161C4.9719 58.2518 5.64184 58.2882 6.19871 58.5754C6.64264 58.8042 7.08916 59.3071 7.02132 59.871C6.95943 60.3862 6.50109 60.8072 6.01488 61.1852C4.23073 62.5739 2.26893 63.6856 0.183409 64.4902C0.0356358 64.5471 -0.0661368 64.6895 -0.0750367 64.8515C-0.0842749 65.0134 0.00114694 65.1638 0.142353 65.2328C0.532027 65.4246 0.607542 66.0696 0.412662 66.4971C0.169123 67.031 -0.37601 67.4139 -0.877101 67.7176C-3.1806 69.1143 -5.90908 69.854 -8.5597 69.8C-8.73051 69.7965 -8.88619 69.9087 -8.94276 70.0763C-8.99899 70.2441 -8.94404 70.4286 -8.80642 70.5319L-6.49112 72.2667C-7.69895 73.1755 -9.44761 73.4858 -11.1816 73.0749C-13.012 72.6404 -14.6214 71.554 -16.0871 70.4436C-18.5114 68.6082 -20.7838 66.5321 -22.8415 64.2719C-22.9889 64.1106 -23.2358 64.1054 -23.394 64.2591C-23.5523 64.4132 -23.562 64.6688 -23.4153 64.8298C-21.3258 67.1247 -19.018 69.2334 -16.5563 71.0973C-15.4414 71.9415 -14.2432 72.774 -12.916 73.3443Z" fill="#292625"/>
<path d="M4.28671 57.1836C1.55803 56.8255 -1.18397 57.7058 -3.82223 58.5749C-6.02169 59.2995 -8.24077 60.0331 -10.2492 61.2208C-10.6248 61.4428 -11.0489 61.8752 -10.8332 62.2557C-10.6957 62.498 -10.3769 62.537 -10.1034 62.5412C-8.83896 62.5621 -7.56877 62.4122 -6.33636 62.0967C-8.26524 62.6634 -10.1988 63.2318 -12.0619 64.0059C-13.0505 64.417 -14.0604 64.9198 -14.7013 65.8017C-14.9425 66.134 -15.1214 66.6052 -14.8971 66.9422C-14.6894 67.2549 -14.2537 67.2766 -13.8847 67.2399C-12.9494 67.148 -12.0361 66.8853 -11.1288 66.6237C-10.1099 66.3298 -9.09078 66.0356 -8.07185 65.7418C-9.43841 66.333 -10.7836 66.978 -12.1036 67.6752C-12.8434 68.0662 -13.6027 68.4972 -14.087 69.1958C-14.1895 69.3437 -14.2816 69.5183 -14.2547 69.6957C-14.1993 70.0608 -13.7323 70.1443 -13.3743 70.1187C-10.4881 69.9133 -7.88942 68.265 -5.42534 66.6639C-5.34092 67.098 -4.86372 67.351 -4.43513 67.3077C-4.00621 67.2645 -3.6269 66.9982 -3.29668 66.7083C-2.54981 66.0527 -1.94176 65.2287 -1.52859 64.3126C-1.44852 64.1345 -1.36845 63.9439 -1.21451 63.8272C-1.09604 63.7375 -0.947992 63.7039 -0.805791 63.669C0.696383 63.3028 2.12232 62.587 3.33496 61.5902C3.7236 61.2708 4.11308 60.6825 3.78151 60.3117C3.61748 60.1283 3.34759 60.1067 3.10442 60.0973C1.71855 60.0432 0.332837 59.9888 -1.05289 59.9344C0.27963 59.2835 1.6412 58.6976 3.02594 58.1805L4.28671 57.1836Z" fill="#F7A80E"/>
<path d="M46.9733 42.2407C48.1345 41.7434 49.3636 41.4205 50.6088 41.2856C50.8184 41.2632 51.0388 41.2475 51.2303 41.3339C51.6649 41.5306 51.7352 42.1859 51.483 42.6089C51.2312 43.0324 50.7709 43.2685 50.3262 43.4568C48.7188 44.1365 46.9819 44.4763 45.2555 44.4486C44.3263 44.4341 43.2702 44.2319 42.8024 43.4114C43.4151 43.1574 44.0975 43.2064 44.7456 43.086C45.5239 42.9413 46.2402 42.5549 46.9733 42.2407Z" fill="#F7A80E"/>
<path d="M24.5284 87.1046C24.4645 87.0478 24.5811 86.7914 24.7863 86.4122C24.9869 86.0277 25.259 85.5074 25.5198 84.913C25.7697 84.3139 25.9586 83.7565 26.0985 83.3455C26.2312 82.9343 26.3361 82.673 26.4207 82.6817C26.4991 82.6892 26.5418 82.9719 26.5092 83.4285C26.4703 83.8826 26.3323 84.5065 26.0628 85.1524C25.7817 85.7934 25.4268 86.3216 25.1265 86.6608C24.8199 86.9964 24.5872 87.1574 24.5284 87.1046Z" fill="#292625"/>
<path d="M27.5871 87.6847C27.4591 87.5517 28.187 86.6119 28.9717 85.3889C29.7253 84.1455 30.2521 83.0739 30.4235 83.1368C30.5608 83.1822 30.2638 84.4037 29.4695 85.7141C28.6422 87.0031 27.6851 87.793 27.5871 87.6847Z" fill="#292625"/>
<path d="M22.2577 109.046C22.214 108.969 22.522 108.69 23.018 108.267C23.5097 107.834 24.1735 107.232 24.8531 106.509C25.5205 105.774 26.0723 105.061 26.4678 104.534C26.8542 104.003 27.1095 103.672 27.1857 103.714C27.254 103.75 27.1273 104.155 26.8194 104.765C26.5031 105.369 25.9783 106.159 25.2795 106.927C24.5686 107.684 23.8283 108.263 23.2588 108.617C22.683 108.964 22.2962 109.114 22.2577 109.046Z" fill="#292625"/>
<path d="M18.6223 110.131C18.5395 109.977 19.139 109.476 19.7288 108.742C20.3184 108.009 20.6847 107.31 20.8476 107.364C20.9218 107.391 20.9209 107.612 20.8251 107.947C20.7242 108.278 20.5101 108.714 20.1832 109.129C19.8481 109.537 19.472 109.835 19.1746 109.999C18.8729 110.159 18.6619 110.201 18.6223 110.131Z" fill="#292625"/>
<path d="M11.7877 112.289C11.6659 112.178 12.16 111.401 12.891 110.553C13.6221 109.705 14.3133 109.108 14.4352 109.219C14.5567 109.331 14.0629 110.108 13.3316 110.956C12.6008 111.803 11.9093 112.4 11.7877 112.289Z" fill="#292625"/>
<path d="M16.8274 112.607C16.8907 112.65 16.7484 113.001 16.4091 113.505C16.0608 114.001 15.4839 114.622 14.7319 115.156C13.9688 115.673 13.1958 115.989 12.6221 116.134C12.0436 116.267 11.677 116.269 11.6634 116.192C11.6463 116.103 11.9769 115.952 12.4927 115.724C13.0064 115.484 13.6954 115.13 14.4063 114.65C15.1056 114.151 15.6838 113.625 16.094 113.224C16.4941 112.816 16.7554 112.557 16.8274 112.607Z" fill="#292625"/>
<path d="M64.985 -2.7008C64.3298 -0.146514 47.7547 -2.19123 27.9631 -7.26773C8.17147 -12.3442 -7.34147 -18.53 -6.6863 -21.0843C-6.03123 -23.6382 10.5439 -21.5935 30.3355 -16.517C50.1271 -11.4405 65.6401 -5.25472 64.985 -2.7008Z" fill="#60827F"/>
<path d="M25.7119 69.1897C25.69 69.2665 25.2494 69.216 24.5635 69.018C23.8818 68.8102 22.9664 68.4227 22.0343 67.8467C21.1114 67.255 20.3603 66.5939 19.8719 66.0649C19.3897 65.5278 19.1471 65.1487 19.2039 65.0941C19.2676 65.0319 19.6168 65.3014 20.1561 65.7412C20.7037 66.1738 21.4637 66.7532 22.35 67.3218C23.2457 67.8747 24.0937 68.3074 24.718 68.6124C25.345 68.9067 25.7374 69.1039 25.7119 69.1897Z" fill="#292625"/>
<path d="M28.8053 71.9002C28.8177 71.976 28.4266 72.1223 27.7641 72.219C27.102 72.3009 26.1665 72.2816 25.173 72.0389C24.1856 71.7715 23.3576 71.3361 22.8176 70.9447C22.2842 70.5397 22.0123 70.223 22.0596 70.1625C22.1147 70.0895 22.4743 70.2787 23.0349 70.5705C23.6054 70.85 24.403 71.1928 25.326 71.444C26.2559 71.67 27.1195 71.7552 27.7543 71.7861C28.3864 71.8018 28.7925 71.8097 28.8053 71.9002Z" fill="#292625"/>
<path d="M0.589543 62.3962C0.596353 62.4376 0.435312 62.5012 0.134875 62.5808C-0.0151187 62.6204 -0.199858 62.6641 -0.415439 62.7113C-0.631235 62.7549 -0.87634 62.8197 -1.15225 62.8377C-2.24987 62.9806 -3.79229 63.0126 -5.46385 62.7503C-7.12928 62.4523 -8.57331 61.919 -9.56054 61.4262C-9.81458 61.319 -10.0239 61.1778 -10.2127 61.0661C-10.4001 60.9517 -10.5598 60.8503 -10.688 60.7636C-10.9441 60.5907 -11.0748 60.4783 -11.0543 60.4411C-11.0091 60.3581 -10.3879 60.6278 -9.39031 61.027C-8.38219 61.4073 -6.96843 61.8563 -5.35872 62.1455C-3.74224 62.3979 -2.25748 62.4356 -1.1779 62.4058C-0.101941 62.3547 0.574825 62.3029 0.589543 62.3962Z" fill="#292625"/>
<path d="M3.03829 64.4981C3.05833 64.5751 2.6359 64.7757 1.9176 64.9924C1.19838 65.1994 0.177122 65.3918 -0.961181 65.4481C-2.10014 65.4878 -3.12789 65.382 -3.85543 65.2358C-4.58212 65.0804 -5.01347 64.9156 -4.99673 64.8371C-4.97924 64.7497 -4.52109 64.7627 -3.79778 64.8057C-3.07211 64.8395 -2.07642 64.8738 -0.975403 64.8358C0.125057 64.7808 1.11741 64.6627 1.84047 64.5678C2.56018 64.4638 3.01678 64.4121 3.03829 64.4981Z" fill="#292625"/>
<path d="M160.798 97.8991C161.435 87.1109 157.533 76.0139 149.618 71.4818C145.55 69.1524 140.808 68.6757 136.175 68.2332C134.693 68.0913 133.102 67.9892 131.644 68.415C130.57 67.3398 129.127 66.6637 127.759 66.0745C123.486 64.2328 119.099 62.3678 114.412 62.4516C105.294 62.6147 96.5324 70.4636 91.8973 80.2261C87.2625 89.9891 86.2051 101.301 86.7931 111.962C87.3303 121.698 90.0603 128.447 95.0663 135.765C99.0679 141.614 105.683 144.192 112.224 144.126C117.926 147.332 124.966 148.256 131.288 145.055C139.199 141.051 144.84 136.45 149.997 128.173C155.644 119.112 160.162 108.688 160.798 97.8991Z" fill="#F2591D"/>
<path d="M112.325 143.735C112.356 143.743 112.387 143.755 112.416 143.772C114.178 144.762 116.029 145.51 117.918 145.995C122.535 147.179 127.1 146.729 131.121 144.694C139.547 140.428 144.921 135.58 149.67 127.96C156.24 117.417 159.853 107.297 160.408 97.8816C161.082 86.4506 156.668 75.9837 149.424 71.8359C147.964 70.9995 146.328 70.3554 144.425 69.8673C141.692 69.1662 138.738 68.8842 136.133 68.6348C134.679 68.4964 133.143 68.3952 131.744 68.8034C131.61 68.8429 131.468 68.8063 131.369 68.7072C130.34 67.6764 128.944 67.0255 127.604 66.4471C125.199 65.4115 122.475 64.2372 119.742 63.5362C117.839 63.0481 116.096 62.8254 114.413 62.8556C106.066 63.0044 97.1595 70.0546 92.2483 80.3989C88.2029 88.9187 86.4993 99.5281 87.1835 111.932C87.6784 120.897 90.055 127.734 95.3872 135.529C97.9318 139.248 101.717 141.839 106.333 143.024C108.222 143.508 110.205 143.743 112.227 143.723C112.26 143.723 112.293 143.727 112.325 143.735ZM117.718 146.778C117.718 146.778 117.718 146.778 117.718 146.778C115.796 146.286 113.913 145.53 112.12 144.531C110.068 144.543 108.054 144.3 106.133 143.807C101.335 142.576 97.3975 139.877 94.7457 136.001C89.3233 128.075 86.9062 121.119 86.4028 111.992C85.7105 99.4467 87.4413 88.7013 91.547 80.0541C96.587 69.4385 105.776 62.2026 114.412 62.0486C116.164 62.0177 117.973 62.2476 119.943 62.7529C122.733 63.4685 125.486 64.655 127.915 65.7021C129.259 66.281 130.657 66.9326 131.759 67.968C133.223 67.5909 134.762 67.6928 136.218 67.8317C138.851 68.083 141.836 68.3684 144.626 69.084C146.596 69.5892 148.292 70.2585 149.813 71.1287C157.309 75.4212 161.88 86.1865 161.188 97.9169C160.625 107.473 156.97 117.725 150.325 128.388C145.491 136.146 140.024 141.08 131.456 145.417C127.266 147.538 122.515 148.009 117.718 146.778Z" fill="#292625"/>
<path d="M88.815 88.1989C81.8692 96.0164 76.8213 105.609 74.2725 115.834C76.3323 113.126 78.3922 110.417 80.4517 107.709C79.0902 111.482 78.1354 115.405 77.6112 119.381C77.4447 120.647 77.4652 122.221 78.5482 122.815C79.8687 123.539 81.3892 122.069 81.961 120.621C82.5324 119.173 82.8568 117.429 84.1583 116.624C83.1437 120.877 84.0411 125.541 86.5431 129.014C87.7224 125.628 88.9015 122.242 90.0808 118.856C90.1288 119.958 90.1843 121.094 90.6384 122.085C91.0929 123.078 92.051 123.901 93.1205 123.829C94.2186 123.756 95.0786 122.803 95.6562 121.828C98.4138 117.17 97.3548 111.249 95.9401 106.059C94.5258 100.869 92.8465 95.3051 94.6086 90.1726L88.815 88.1989Z" fill="#F2591D"/>
<path d="M86.4427 129.405C86.3581 129.384 86.2815 129.332 86.2278 129.258C83.8942 126.019 82.9224 121.819 83.532 117.801C83.1648 118.364 82.9222 119.071 82.6704 119.802C82.5581 120.13 82.4461 120.456 82.3225 120.767C81.9481 121.717 81.0975 122.856 80.0429 123.26C79.4566 123.485 78.8742 123.454 78.3597 123.172C77.3442 122.615 76.9619 121.323 77.2241 119.334C77.647 116.122 78.3508 112.939 79.3204 109.844L74.5785 116.079C74.464 116.23 74.264 116.28 74.0984 116.198C73.9329 116.116 73.8478 115.925 73.8942 115.74C76.4642 105.429 81.5245 95.812 88.5291 87.9295C88.676 87.763 88.9239 87.7508 89.0814 87.8992C89.2398 88.0482 89.2483 88.3032 89.1012 88.4689C82.6188 95.7648 77.8224 104.564 75.1571 114.023L80.1456 107.463C80.2651 107.306 80.4766 107.26 80.6445 107.355C80.8116 107.449 80.8852 107.657 80.818 107.844C79.4671 111.587 78.5185 115.485 77.9988 119.429C77.7848 121.053 78.0332 122.072 78.736 122.458C79.0541 122.631 79.4068 122.648 79.7822 122.504C80.4867 122.234 81.2339 121.4 81.5992 120.475C81.7177 120.174 81.8259 119.86 81.9341 119.544C82.3659 118.288 82.8122 116.99 83.9616 116.278C84.0976 116.194 84.267 116.202 84.3931 116.296C84.5184 116.391 84.5759 116.556 84.538 116.714C83.6063 120.618 84.3158 124.834 86.433 128.143L89.713 118.725C89.7764 118.543 89.955 118.43 90.1397 118.456C90.3225 118.482 90.4632 118.638 90.4715 118.831C90.5175 119.884 90.565 120.974 90.9928 121.908C91.3482 122.684 92.1591 123.49 93.1014 123.427C94.0943 123.36 94.8578 122.408 95.3233 121.622C98.0091 117.086 96.9519 111.267 95.5638 106.174L95.3647 105.447C93.9654 100.34 92.5183 95.0587 94.2404 90.0435C94.3127 89.8327 94.5317 89.7205 94.7401 89.79C94.9434 89.8614 95.0495 90.0905 94.9771 90.3016C93.3387 95.0732 94.7517 100.229 96.1176 105.215L96.3172 105.944C97.7509 111.204 98.833 117.23 95.9887 122.034C95.4244 122.987 94.4718 124.142 93.139 124.231C91.8288 124.32 90.7622 123.306 90.2844 122.263C90.0596 121.772 89.9259 121.25 89.8428 120.726L86.9109 129.144C86.8615 129.285 86.742 129.388 86.5991 129.412C86.546 129.421 86.4928 129.418 86.4427 129.405Z" fill="#292625"/>
</g>
<defs>
<clipPath id="clip0_2856_55351">
<rect width="112.818" height="121.1" fill="white" transform="translate(-27.9121) rotate(14.3861)"/>
</clipPath>
</defs>
</svg>
