<svg width="72" height="73" viewBox="0 0 72 73" fill="none" xmlns="http://www.w3.org/2000/svg">
<g clip-path="url(#clip0_5605_48581)">
<path d="M63.6355 46.0176C62.4189 31.2975 57.8808 19.7071 35.0141 20.2423C11.7011 20.7879 8.13665 32.5684 7.62988 47.3284L63.6355 46.0176Z" fill="#F68A14"/>
<path d="M7.92589 47.0357L63.3259 45.7391C61.9867 30.2263 56.6024 20.0223 35.0211 20.5274C11.0212 21.0891 8.4089 33.8853 7.92589 47.0357ZM63.6422 46.3025L7.63682 47.6132C7.55827 47.615 7.48246 47.5846 7.42723 47.5287C7.37228 47.4728 7.3426 47.3967 7.34506 47.3183C7.56716 40.854 8.35888 33.5366 12.547 28.2771C16.8026 22.9327 24.1496 20.211 35.0077 19.9569C45.6897 19.7069 53.0981 22.0828 57.6569 27.2197C62.2615 32.4083 63.4225 39.9785 63.9198 45.9937C63.9259 46.0722 63.9001 46.1499 63.8476 46.208C63.7948 46.2667 63.7207 46.3006 63.6422 46.3025Z" fill="#292625"/>
<path d="M63.6355 46.0176C62.4189 31.2975 57.8808 19.7071 35.0141 20.2423C11.7011 20.7879 8.13665 32.5684 7.62988 47.3284L63.6355 46.0176Z" fill="#F68A14"/>
<path d="M7.92589 47.0357L63.3259 45.7391C61.9867 30.2263 56.6024 20.0223 35.0211 20.5274C11.0212 21.0891 8.4089 33.8853 7.92589 47.0357ZM63.6422 46.3025L7.63682 47.6132C7.55827 47.615 7.48246 47.5846 7.42723 47.5287C7.37228 47.4728 7.3426 47.3967 7.34506 47.3183C7.56716 40.854 8.35888 33.5366 12.547 28.2771C16.8026 22.9327 24.1496 20.211 35.0077 19.9569C45.6897 19.7069 53.0981 22.0828 57.6569 27.2197C62.2615 32.4083 63.4225 39.9785 63.9198 45.9937C63.9259 46.0722 63.9001 46.1499 63.8476 46.208C63.7948 46.2667 63.7207 46.3006 63.6422 46.3025Z" fill="#292625"/>
<path d="M63.6913 48.3857C62.4747 33.6656 57.9365 22.0752 35.0699 22.6104C11.7569 23.156 8.19244 34.9365 7.68567 49.6965L63.6913 48.3857Z" fill="#F2591D"/>
<path d="M7.9807 49.404L63.3807 48.1075C62.0415 32.5944 56.6573 22.3904 35.0759 22.8955C11.076 23.4572 8.4637 36.2534 7.9807 49.404ZM63.697 48.6709L7.69163 49.9816C7.61308 49.9834 7.53726 49.9527 7.48204 49.8968C7.42708 49.8409 7.3974 49.7649 7.39986 49.6864C7.62197 43.2221 8.41369 35.9047 12.6018 30.6452C16.8574 25.3006 24.2044 22.5792 35.0625 22.3251C45.7445 22.0751 53.1529 24.4506 57.7117 29.5879C62.3163 34.7764 63.4773 42.3466 63.9746 48.3621C63.9807 48.4403 63.9549 48.518 63.9024 48.5764C63.8496 48.6348 63.7755 48.669 63.697 48.6709Z" fill="#292625"/>
<path d="M60.4441 39.4306C58.833 32.2999 54.1076 25.8019 47.9214 24.309C44.7414 23.5417 41.4575 24.1029 38.2545 24.6657C37.2295 24.8459 36.139 25.0715 35.2373 25.6164C34.3111 25.1142 33.2113 24.94 32.1789 24.8079C28.9531 24.3955 25.6466 23.9886 22.506 24.9038C16.3963 26.6845 11.9801 33.3964 10.7044 40.5947C9.42862 47.7929 10.855 55.3417 13.2663 62.1642C15.4688 68.3959 18.6329 74.4115 23.3875 78.2493C27.1878 81.3171 32.1527 82.725 36.5447 81.481C40.9902 82.5182 45.8837 80.8795 49.5361 77.6373C54.1059 73.5813 56.9852 67.4242 58.8937 61.0964C60.9832 54.1685 62.0552 46.5613 60.4441 39.4306Z" fill="#F2591D"/>
<path d="M36.5378 81.1956C36.5616 81.1951 36.5858 81.1975 36.6093 81.2031C37.5608 81.4251 38.5573 81.5256 39.5707 81.5021C39.571 81.5021 39.5712 81.5021 39.5715 81.5021C42.9532 81.423 46.5161 79.9365 49.3468 77.4239C53.2654 73.9456 56.3857 68.4243 58.6205 61.0138C61.0513 52.9549 61.5712 45.7142 60.1657 39.4934C58.4598 31.9423 53.5121 25.9516 47.8541 24.5864C46.7135 24.3111 45.4918 24.1928 44.1192 24.2249C42.1473 24.2711 40.1053 24.63 38.3034 24.9466C37.3 25.1229 36.2479 25.3386 35.3843 25.8604C35.2978 25.9126 35.1901 25.9151 35.1015 25.867C34.2144 25.3865 33.1534 25.2202 32.1426 25.0908C30.3279 24.8589 28.271 24.5958 26.2994 24.642C24.9268 24.6741 23.712 24.8494 22.5853 25.1778C16.9976 26.8062 12.3356 33.0218 10.9847 40.6444C9.87151 46.9241 10.7299 54.1326 13.5347 62.069C16.1143 69.3673 19.4895 74.7363 23.5663 78.0272C26.5114 80.4047 30.1402 81.7228 33.5222 81.6437C34.5356 81.62 35.5263 81.4727 36.4669 81.2064C36.4901 81.1997 36.5139 81.1962 36.5378 81.1956ZM39.5848 82.0726C39.5843 82.0726 39.5846 82.0726 39.584 82.0726C38.5478 82.0966 37.5281 81.9967 36.5513 81.7752C35.5857 82.0421 34.5715 82.1899 33.5356 82.2142C30.0208 82.2964 26.2569 80.9323 23.2084 78.4713C18.9894 75.0659 15.6494 69.7629 12.9976 62.2593C10.1592 54.2286 9.29289 46.9229 10.4234 40.5448C11.8112 32.7133 16.6347 26.3177 22.4257 24.6298C23.6007 24.2874 24.863 24.1048 26.2861 24.0715C28.3005 24.0244 30.38 24.2904 32.2146 24.5248C33.2271 24.6544 34.2903 24.8206 35.2294 25.2905C36.1457 24.7772 37.1997 24.5611 38.205 24.3846C40.0263 24.0646 42.0911 23.7016 44.1058 23.6545C45.5286 23.6212 46.7984 23.7445 47.9878 24.0316C53.8514 25.4467 58.9689 31.6096 60.7218 39.3676C62.1492 45.6859 61.6259 53.0241 59.1663 61.1788C56.8684 68.7977 53.7804 74.2511 49.7251 77.8508C46.7953 80.4514 43.099 81.9903 39.5848 82.0726Z" fill="#292625"/>
<path d="M58.5613 55.5252C58.2241 54.6774 57.4483 54.1119 56.5746 54.0875C56.5752 54.1015 57.2783 53.8528 57.3591 53.8071C57.6553 53.6391 57.9101 53.3977 58.1048 53.1088C58.4571 52.5861 58.581 51.9292 58.4903 51.2983C58.3159 50.0819 57.2711 49.1554 56.0962 49.2454C56.0955 49.2395 56.0946 49.2334 56.0936 49.2275C57.327 48.9312 58.0069 47.596 57.6734 46.3304C57.5229 45.7599 57.2098 45.262 56.7395 44.9288C56.4711 44.7385 56.1623 44.6188 55.8415 44.5758C55.7411 44.5623 54.8981 44.6196 54.9086 44.6476C56.0388 44.0643 56.4261 42.5944 55.8184 41.4432C55.2132 40.2973 53.8813 39.8006 52.7745 40.4848C52.7814 40.4951 53.2469 39.8936 53.2919 39.8093C53.4401 39.5301 53.5244 39.2218 53.5489 38.9031C53.5985 38.2608 53.3694 37.6084 52.961 37.1315C52.1284 36.1589 50.7288 35.9892 49.7959 36.9083C49.7989 36.9115 50.1133 36.2718 50.1402 36.184C50.2384 35.8638 50.2617 35.5268 50.2179 35.1936C50.1344 34.559 49.7841 33.9883 49.2978 33.6102C48.2957 32.822 46.8663 32.9937 46.1456 34.0969C46.1543 34.102 46.3301 33.3529 46.3365 33.2558C46.3589 32.91 46.3007 32.564 46.1738 32.2442C45.9509 31.6819 45.5102 31.2371 44.9851 30.9898C43.8458 30.4459 42.4866 30.9377 42.0078 32.1761C42.0105 32.1771 42.0398 31.4601 42.0291 31.368C41.9902 31.036 41.878 30.7223 41.7075 30.4407C41.3981 29.93 40.893 29.5748 40.3389 29.4286C39.0889 29.0989 37.7973 29.8774 37.5782 31.2442C37.5871 31.2451 37.4462 30.4881 37.413 30.3965C37.3046 30.0994 37.1356 29.8341 36.9185 29.6128C36.4799 29.1656 35.8636 28.9172 35.2527 28.9457C34.6324 28.9744 34.0511 29.2157 33.6233 29.6977C33.4176 29.9294 33.2629 30.2063 33.1701 30.5084C33.1415 30.6014 33.0402 31.3638 33.0488 31.3626C32.7677 30.0477 31.5287 29.3609 30.32 29.6561C29.7593 29.793 29.2528 30.1683 28.9418 30.6766C28.7697 30.9574 28.6577 31.272 28.6201 31.6048C28.6088 31.7068 28.6592 32.5298 28.6733 32.5244C28.1296 31.3091 26.7781 30.9152 25.6601 31.481C25.1135 31.7577 24.684 32.2709 24.4951 32.8772C24.4053 33.1655 24.3713 33.4681 24.3999 33.7705C24.4095 33.8726 24.6266 34.6668 24.6401 34.6579C23.8616 33.5909 22.4601 33.5126 21.4851 34.3175C21.0075 34.7118 20.6926 35.3103 20.6318 35.9462C20.603 36.2486 20.6318 36.5524 20.7217 36.8418C20.7519 36.9394 21.1281 37.6676 21.1396 37.6552C20.1598 36.7855 18.7744 37.0303 17.9885 38.0412C17.1992 39.0563 17.3521 40.5811 18.3595 41.3657C18.3626 41.3605 17.7069 41.1485 17.6205 41.1363C17.2983 41.0904 16.9659 41.1226 16.6599 41.2369C16.0725 41.456 15.6309 41.915 15.3578 42.4972C14.8047 43.6765 15.2815 45.1291 16.4348 45.6508C16.4438 45.6227 15.5975 45.6087 15.4979 45.6274C15.1795 45.6866 14.8771 45.8223 14.6191 46.0268C14.1671 46.385 13.8825 46.8989 13.7589 47.4755C13.6165 48.1406 13.7417 48.8602 14.1304 49.4114C14.2994 49.6533 14.5153 49.8577 14.7619 50.0093C14.8375 50.0556 15.4852 50.3148 15.4859 50.307C14.3792 50.2762 13.4115 51.1414 13.2206 52.282C12.9889 53.6683 13.8844 55.0369 15.2472 55.1471C15.2471 55.1323 14.5351 55.3447 14.4529 55.3858C14.1788 55.5232 13.9318 55.7215 13.7339 55.9638C13.3377 56.4488 13.1635 57.0961 13.2097 57.7287C13.2543 58.3406 13.4919 58.9109 13.9158 59.3383C14.1354 59.5598 14.4034 59.7253 14.6912 59.8276C14.7843 59.8606 15.6276 59.9858 15.6217 59.9513C14.3552 60.2648 13.7265 61.5999 14.0517 62.8877C14.2011 63.4791 14.5917 64.0107 15.0929 64.3149C15.3789 64.4884 15.6941 64.5911 16.0243 64.6041C16.1159 64.6075 16.9395 64.4854 16.9233 64.4488C15.7222 65.1043 15.4886 66.631 16.2105 67.7788C16.5303 68.2862 17.057 68.6723 17.6277 68.7811C17.9384 68.8402 18.2579 68.8297 18.5612 68.7364C18.6515 68.7086 19.4402 68.2847 19.4016 68.2432C18.498 69.2652 18.7379 70.8305 19.803 71.6164C20.8561 72.3931 22.2938 72.1605 22.9512 70.9555C22.9346 70.9465 22.7882 71.6829 22.7841 71.7702C22.768 72.1159 22.8286 72.468 22.9703 72.7813C23.2334 73.3628 23.7122 73.808 24.2894 74.0144C25.4746 74.4651 26.7938 73.8564 27.1776 72.57C27.17 72.5681 27.19 73.2941 27.2065 73.3836C27.2677 73.7157 27.401 74.0269 27.5883 74.3012C27.9213 74.7901 28.4417 75.0969 28.9939 75.2196C30.2391 75.4957 31.4878 74.6503 31.6961 73.3162C31.6951 73.3162 31.8174 74.0183 31.8474 74.1062C31.9551 74.4216 32.1287 74.7078 32.3492 74.9493C32.7627 75.4031 33.346 75.6394 33.9364 75.6629C35.1529 75.7208 36.2427 74.753 36.3016 73.453C36.3058 73.4529 36.4812 74.092 36.5174 74.1725C36.6453 74.4563 36.8296 74.7102 37.055 74.916C37.5376 75.3565 38.1757 75.5591 38.8075 75.4925C39.3699 75.4329 39.9159 75.1868 40.3026 74.7452C40.5142 74.5035 40.6786 74.2145 40.7789 73.9029C40.8104 73.8049 40.9242 72.9963 40.9119 72.9982C41.1923 74.2503 42.4131 75.0435 43.6046 74.7557C44.156 74.6228 44.6766 74.3105 45.0098 73.8208C45.1955 73.5477 45.3248 73.2302 45.3834 72.8997C45.4009 72.8 45.404 71.97 45.3864 71.9755C45.8428 73.2318 47.1859 73.7685 48.3435 73.2603C48.8838 73.0444 49.3258 72.5948 49.5659 72.0428C49.7007 71.7323 49.7637 71.3965 49.7485 71.0549C49.7441 70.9583 49.566 70.1366 49.5417 70.1512C50.2464 71.3103 51.6945 71.4988 52.7088 70.679C53.7356 69.8492 53.9296 68.2964 52.9924 67.2992C52.9733 67.3211 53.6201 67.6877 53.6966 67.716C54.0094 67.8303 54.3438 67.8504 54.6693 67.7974C55.2895 67.6964 55.8268 67.2734 56.1644 66.7266C56.8638 65.5633 56.5422 64.0282 55.3312 63.424C55.3223 63.4457 56.0335 63.5528 56.1155 63.5511C56.4507 63.546 56.776 63.4487 57.0664 63.2738C57.6018 62.9509 57.9994 62.3832 58.1347 61.7467C58.4117 60.4456 57.7107 59.1362 56.4344 58.8829C56.4286 58.9329 57.3549 58.7198 57.4531 58.674C57.819 58.5025 58.1255 58.2244 58.3486 57.8745C58.7828 57.1937 58.8607 56.2828 58.5613 55.5252C58.6811 55.8284 58.441 55.2222 58.5613 55.5252Z" fill="#F7A80E"/>
<path d="M54.7902 51.2125C54.5075 50.5023 53.8575 50.0286 53.1255 50.0082C53.126 50.02 53.7153 49.8115 53.7828 49.7734C54.0311 49.6326 54.2445 49.4303 54.4075 49.1883C54.7025 48.7505 54.8063 48.2001 54.7307 47.6716C54.5845 46.6524 53.709 45.876 52.7248 45.9517C52.7241 45.9466 52.7234 45.9415 52.7225 45.9367C53.7559 45.6884 54.3257 44.57 54.0461 43.5096C53.9201 43.0317 53.6577 42.6144 53.2638 42.3353C53.039 42.176 52.7802 42.0757 52.5114 42.0396C52.4275 42.0284 51.721 42.0763 51.7301 42.0998C52.6768 41.611 53.001 40.3797 52.4918 39.4154C51.9849 38.4551 50.8692 38.039 49.9419 38.6122C49.9477 38.6212 50.3378 38.117 50.3753 38.0463C50.4997 37.8125 50.5703 37.5542 50.5909 37.2873C50.6322 36.7491 50.4405 36.2024 50.0983 35.8029C49.4008 34.9883 48.2282 34.8461 47.4466 35.6161C47.4494 35.6187 47.7126 35.0828 47.7353 35.0093C47.8175 34.741 47.8369 34.4587 47.8001 34.1795C47.7302 33.6479 47.4368 33.1699 47.0295 32.8533C46.19 32.1929 44.9924 32.3366 44.3888 33.2609C44.3959 33.2653 44.5432 32.6376 44.5485 32.5561C44.5672 32.2665 44.5183 31.9764 44.4123 31.7088C44.2256 31.2377 43.8563 30.8648 43.4164 30.6579C42.4618 30.2023 41.3233 30.614 40.9222 31.6517C40.9244 31.6524 40.9489 31.0518 40.9399 30.9747C40.9074 30.6965 40.8135 30.434 40.6706 30.1978C40.4114 29.77 39.9881 29.4725 39.5239 29.35C38.4769 29.0738 37.3945 29.7257 37.2113 30.871C37.2186 30.8717 37.1007 30.2373 37.0729 30.1609C36.9821 29.912 36.8403 29.6896 36.6587 29.5043C36.291 29.1297 35.7748 28.9214 35.2628 28.9452C34.7432 28.9694 34.2563 29.1715 33.898 29.5753C33.7255 29.7694 33.596 30.0015 33.5182 30.2546C33.4943 30.3325 33.4095 30.9713 33.4167 30.9703C33.1811 29.8686 32.1432 29.2931 31.1305 29.5405C30.6608 29.6554 30.2366 29.9698 29.9759 30.3955C29.8317 30.6306 29.7378 30.8943 29.7065 31.1729C29.697 31.2585 29.7392 31.948 29.7511 31.9434C29.2957 30.9253 28.1635 30.5955 27.2269 31.0693C26.7688 31.301 26.409 31.7312 26.2508 32.2391C26.1754 32.4806 26.147 32.7339 26.1709 32.9873C26.1791 33.0728 26.3607 33.7384 26.3721 33.7308C25.72 32.837 24.5457 32.7714 23.7291 33.4456C23.3288 33.776 23.0651 34.2773 23.0142 34.8101C22.9899 35.0635 23.0141 35.318 23.0895 35.5606C23.115 35.6421 23.43 36.2523 23.4397 36.2418C22.6187 35.5131 21.4582 35.7182 20.7997 36.5651C20.1385 37.4156 20.2666 38.6932 21.1106 39.3503C21.1132 39.3459 20.5637 39.1684 20.4913 39.1581C20.2216 39.1198 19.9432 39.1467 19.6866 39.2424C19.1947 39.426 18.8247 39.8105 18.5957 40.2984C18.1325 41.2862 18.532 42.503 19.498 42.9403C19.5057 42.9165 18.7967 42.9049 18.7132 42.9205C18.4463 42.9703 18.1931 43.0838 17.9769 43.2554C17.5984 43.5552 17.3599 43.9858 17.2564 44.4688C17.1372 45.026 17.2419 45.629 17.5674 46.0907C17.7092 46.2936 17.89 46.4646 18.0965 46.5916C18.16 46.6304 18.7026 46.8475 18.7032 46.8411C17.7761 46.8153 16.9653 47.5401 16.8055 48.4956C16.6111 49.657 17.3614 50.8036 18.5031 50.8958C18.5031 50.8834 17.9066 51.0614 17.8377 51.0958C17.6081 51.211 17.4014 51.3769 17.2356 51.58C16.9036 51.9864 16.7575 52.5287 16.7962 53.0586C16.8337 53.5713 17.0326 54.0488 17.3878 54.407C17.5719 54.5925 17.7962 54.7314 18.0374 54.8171C18.1156 54.8448 18.8219 54.9496 18.817 54.9207C17.7558 55.1834 17.2294 56.3016 17.5017 57.3804C17.6267 57.8761 17.9539 58.3213 18.3738 58.5762C18.6135 58.7218 18.8776 58.8077 19.1542 58.8184C19.231 58.8214 19.9209 58.7191 19.9073 58.6885C18.9011 59.2375 18.7054 60.5166 19.3103 61.4781C19.578 61.9032 20.0193 62.2269 20.4976 62.3177C20.7576 62.3675 21.0254 62.3585 21.2795 62.2804C21.3551 62.2571 22.0158 61.902 21.9836 61.8673C21.2265 62.7232 21.4275 64.0346 22.3198 64.693C23.202 65.3438 24.4067 65.1489 24.9574 64.1394C24.9435 64.132 24.8206 64.7488 24.8172 64.8219C24.8039 65.1114 24.8545 65.4066 24.9733 65.6691C25.1937 66.1561 25.5949 66.529 26.0783 66.7021C27.0713 67.0797 28.1763 66.5698 28.4979 65.4921C28.4917 65.4904 28.5083 66.0986 28.5222 66.1737C28.5735 66.4518 28.6853 66.7125 28.8419 66.9424C29.1211 67.3518 29.5571 67.609 30.0196 67.7117C31.0628 67.9432 32.1087 67.2349 32.2835 66.1171C32.2824 66.1171 32.385 66.7054 32.41 66.7789C32.5004 67.0434 32.6458 67.283 32.8305 67.4854C33.1771 67.8655 33.6654 68.0635 34.1602 68.083C35.1794 68.1317 36.0923 67.3207 36.1416 66.2317C36.1454 66.2316 36.292 66.767 36.3226 66.8345C36.4295 67.0723 36.5839 67.2851 36.7728 67.4576C37.1771 67.8267 37.7116 67.9962 38.2409 67.9403C38.7121 67.8903 39.1697 67.6844 39.4934 67.3144C39.6708 67.1119 39.8084 66.8697 39.8927 66.6086C39.9189 66.5267 40.0141 65.8492 40.004 65.8508C40.2388 66.8996 41.2616 67.5641 42.26 67.3232C42.7217 67.2117 43.1579 66.95 43.437 66.5399C43.5928 66.311 43.7011 66.0454 43.7499 65.7682C43.7648 65.6846 43.7674 64.9895 43.7524 64.9941C44.1352 66.0465 45.2602 66.4959 46.2299 66.0705C46.6825 65.8894 47.053 65.5129 47.2538 65.0502C47.3668 64.7901 47.4195 64.5091 47.4069 64.2227C47.4031 64.1417 47.2542 63.4535 47.2339 63.4656C47.8239 64.4365 49.0374 64.5945 49.8869 63.9079C50.7473 63.2129 50.9097 61.9118 50.1246 61.0764C50.1086 61.0947 50.6504 61.4018 50.7146 61.4256C50.9765 61.5212 51.2569 61.5382 51.5295 61.4937C52.0489 61.4091 52.4991 61.0546 52.7818 60.5967C53.3679 59.6221 53.0985 58.3362 52.0837 57.8297C52.0767 57.8479 52.6724 57.9378 52.741 57.9362C53.0218 57.9321 53.2943 57.8505 53.5376 57.7039C53.986 57.4338 54.3193 56.958 54.4326 56.4246C54.6646 55.3347 54.0775 54.2378 53.0081 54.0255C53.0032 54.0675 53.7793 53.889 53.8616 53.8506C54.1681 53.7068 54.4249 53.4739 54.6118 53.1809C54.9753 52.6105 55.0408 51.8473 54.7902 51.2125C54.8903 51.4666 54.689 50.9588 54.7902 51.2125Z" fill="#F3D055"/>
<path d="M51.018 46.9001C50.7902 46.3273 50.266 45.9455 49.676 45.929C49.6765 45.9383 50.1514 45.7704 50.2059 45.7396C50.4061 45.6262 50.5779 45.463 50.7096 45.2679C50.9476 44.9147 51.0311 44.4708 50.9702 44.0448C50.8522 43.2231 50.1466 42.5971 49.3527 42.6581C49.3523 42.6541 49.3517 42.6498 49.351 42.6458C50.1841 42.4456 50.6437 41.5438 50.4182 40.6889C50.3166 40.3036 50.1049 39.9673 49.7874 39.7422C49.606 39.6135 49.3976 39.5325 49.1809 39.5035C49.1129 39.4946 48.5435 39.5332 48.5506 39.5521C49.3139 39.1581 49.5756 38.165 49.1649 37.3874C48.7563 36.6133 47.8568 36.2778 47.109 36.7399C47.1137 36.7471 47.428 36.3407 47.4583 36.2837C47.5585 36.0953 47.6156 35.8869 47.632 35.6718C47.6656 35.2377 47.511 34.7969 47.2349 34.4748C46.6726 33.8178 45.727 33.7033 45.0967 34.324C45.0989 34.3261 45.3112 33.894 45.3294 33.8348C45.3956 33.6184 45.4115 33.3909 45.3818 33.1658C45.3254 32.737 45.0889 32.3517 44.7605 32.0962C44.0833 31.5636 43.1177 31.6796 42.6311 32.425C42.6368 32.4284 42.7556 31.9222 42.76 31.8569C42.7752 31.6232 42.7356 31.3892 42.6501 31.1732C42.4993 30.7936 42.2018 30.4929 41.847 30.3259C41.0774 29.9586 40.1592 30.2908 39.8357 31.1274C39.8376 31.1281 39.8576 30.6436 39.8503 30.5815C39.8239 30.3571 39.7481 30.1455 39.6328 29.9551C39.4239 29.6102 39.0827 29.3704 38.7083 29.2715C37.864 29.0488 36.9914 29.5745 36.8435 30.4978C36.8494 30.4984 36.7546 29.987 36.7319 29.9253C36.6588 29.7246 36.5446 29.5452 36.3979 29.3959C36.1017 29.0938 35.6854 28.9258 35.2725 28.9451C34.8535 28.9646 34.4608 29.1276 34.1718 29.4531C34.033 29.6096 33.9285 29.7968 33.8659 30.0009C33.8465 30.0637 33.778 30.5786 33.7837 30.578C33.5939 29.6897 32.7571 29.2255 31.9407 29.425C31.5619 29.5176 31.2194 29.7713 31.0094 30.1145C30.8934 30.3041 30.8176 30.5166 30.7923 30.7414C30.7845 30.8103 30.8187 31.3663 30.828 31.3626C30.4609 30.5416 29.548 30.2757 28.7927 30.6577C28.4234 30.8446 28.1333 31.1913 28.0058 31.601C27.9449 31.7958 27.9221 32.0001 27.9413 32.2045C27.9478 32.2733 28.0944 32.8101 28.1034 32.8037C27.5777 32.083 26.6309 32.03 25.9722 32.5738C25.6496 32.8404 25.4369 33.2447 25.396 33.6741C25.3764 33.8786 25.396 34.0838 25.4566 34.2792C25.4772 34.345 25.7312 34.8371 25.739 34.8286C25.0769 34.2411 24.1412 34.4063 23.6102 35.0894C23.0772 35.775 23.1804 36.8051 23.861 37.335C23.8631 37.3315 23.4201 37.1886 23.3617 37.1803C23.1442 37.1491 22.9197 37.171 22.7128 37.2481C22.316 37.3962 22.0177 37.7063 21.8333 38.0996C21.4595 38.8961 21.7818 39.8773 22.5607 40.2296C22.567 40.2106 21.9951 40.2015 21.9278 40.2141C21.7128 40.254 21.5087 40.3455 21.3341 40.4838C21.0289 40.7259 20.8366 41.073 20.7532 41.4623C20.6569 41.9116 20.7415 42.3977 21.004 42.7701C21.1183 42.9336 21.2643 43.0717 21.4308 43.1739C21.4817 43.2054 21.9193 43.3804 21.9197 43.3751C21.1722 43.3542 20.5185 43.9386 20.3895 44.7092C20.233 45.6456 20.8378 46.5703 21.7586 46.6446C21.7586 46.6347 21.2775 46.778 21.2218 46.8059C21.0368 46.8988 20.8701 47.0327 20.7363 47.1964C20.4688 47.524 20.3511 47.9611 20.3823 48.3886C20.4123 48.8019 20.5726 49.1872 20.8592 49.4758C21.0075 49.6254 21.1885 49.7374 21.383 49.8064C21.446 49.8288 22.0153 49.9132 22.0116 49.89C21.156 50.102 20.7313 51.0038 20.951 51.8736C21.0518 52.2732 21.3158 52.6321 21.6543 52.8376C21.8475 52.955 22.0605 53.0244 22.2836 53.0331C22.3454 53.0354 22.9017 52.9529 22.8909 52.9282C22.0794 53.3711 21.9216 54.4023 22.4092 55.1778C22.6251 55.5204 22.981 55.7813 23.3666 55.8547C23.5765 55.8947 23.7922 55.8877 23.997 55.8244C24.0583 55.8058 24.591 55.5192 24.5649 55.4914C23.9544 56.1817 24.1165 57.2392 24.836 57.77C25.5474 58.2946 26.5187 58.1374 26.9627 57.3235C26.9515 57.3176 26.8526 57.8149 26.85 57.8738C26.8391 58.1074 26.8798 58.3453 26.9757 58.5568C27.1533 58.9497 27.4766 59.2504 27.8667 59.39C28.6673 59.6945 29.5584 59.2833 29.8179 58.4143C29.8127 58.4128 29.8261 58.9033 29.8372 58.9637C29.8786 59.188 29.9686 59.3985 30.095 59.5838C30.3202 59.9138 30.6717 60.1212 31.0446 60.204C31.8859 60.3905 32.7293 59.8193 32.8699 58.9182C32.8694 58.9183 32.9518 59.3926 32.9723 59.452C33.0451 59.6651 33.1623 59.8583 33.3113 60.0216C33.5907 60.3278 33.9845 60.4877 34.3834 60.5034C35.2052 60.5427 35.9412 59.8889 35.981 59.0108C35.984 59.0107 36.1024 59.4424 36.1271 59.4968C36.2133 59.6884 36.3378 59.86 36.4899 59.999C36.8161 60.2966 37.2471 60.4334 37.6739 60.3882C38.0539 60.3482 38.4229 60.182 38.6839 59.8835C38.8268 59.7204 38.9378 59.525 39.0056 59.3146C39.0268 59.2485 39.1036 58.7023 39.0954 58.7035C39.2849 59.5491 40.1097 60.085 40.9145 59.8906C41.2871 59.8008 41.6386 59.5899 41.8637 59.2589C41.9892 59.0745 42.0765 58.8604 42.1161 58.6369C42.1279 58.5695 42.1301 58.0088 42.1181 58.0126C42.4266 58.8613 43.3337 59.2237 44.1156 58.8806C44.4805 58.7346 44.7792 58.4309 44.9413 58.058C45.0325 57.8483 45.0749 57.6215 45.0647 57.3906C45.0618 57.3254 44.9415 56.7703 44.9251 56.7801C45.4011 57.5631 46.3794 57.6903 47.0644 57.1368C47.7581 56.5763 47.8891 55.5273 47.2561 54.8537C47.2433 54.8685 47.6802 55.116 47.7318 55.1352C47.9432 55.2124 48.1691 55.2259 48.389 55.1902C48.808 55.1219 49.1707 54.836 49.3989 54.4669C49.8714 53.681 49.654 52.6441 48.836 52.2359C48.8301 52.2505 49.3106 52.3227 49.3659 52.3217C49.5924 52.3183 49.8119 52.2528 50.0082 52.1343C50.3698 51.9165 50.6384 51.533 50.7298 51.1029C50.9168 50.224 50.4436 49.3395 49.5812 49.1682C49.5772 49.2022 50.2031 49.0581 50.2694 49.0273C50.5167 48.9114 50.7237 48.7235 50.8743 48.4872C51.1674 48.0271 51.2201 47.4119 51.018 46.9001C51.0989 47.1049 50.9367 46.6955 51.018 46.9001Z" fill="#F8E298"/>
<path d="M40.8363 29.7071C41.7647 28.4356 43.3603 27.832 44.9112 27.5659C46.4621 27.3001 48.0577 27.3027 49.5833 26.9183C51.9039 26.3332 53.9794 24.8273 55.2563 22.8015C55.3805 23.5912 55.5049 24.3811 55.6291 25.1707C56.2194 24.214 57.7452 24.1461 58.5644 24.9157C59.3834 25.6853 59.4962 27.0211 59.0168 28.038C59.2728 28.1142 59.5287 28.1903 59.7847 28.2665C60.423 29.7368 60.3092 31.5114 59.4884 32.8881C58.6676 34.2647 57.1609 35.2074 55.5651 35.3433C53.174 35.5467 51.0122 34.0793 48.8748 32.9869C46.7373 31.8943 43.9353 31.2092 42.0962 32.7525L40.8363 29.7071Z" fill="#F2591D"/>
<path d="M55.2451 35.6462C53.3057 35.6916 51.5341 34.7356 49.8179 33.8098C49.4591 33.616 49.1015 33.4233 48.7451 33.241C47.4769 32.5925 44.3075 31.2688 42.2795 32.9711C42.1582 33.0725 41.9786 33.0563 41.8776 32.9357C41.7764 32.8151 41.7923 32.6351 41.9128 32.534C44.2028 30.6124 47.6344 32.0331 49.0044 32.7329C49.3646 32.917 49.7257 33.1118 50.0884 33.3073C51.8322 34.2483 53.6348 35.2221 55.5406 35.0588C57.0489 34.9306 58.4678 34.0428 59.2437 32.7419C59.9968 31.4785 60.1195 29.8659 59.5736 28.5013L58.9356 28.3117C58.8559 28.2878 58.7901 28.2305 58.7562 28.1545C58.7222 28.0785 58.7234 27.9915 58.7589 27.9163C59.2179 26.942 59.0541 25.7677 58.3693 25.1239C58.01 24.7865 57.4557 24.6209 56.9214 24.6917C56.4566 24.7533 56.0836 24.9768 55.8715 25.3209C55.8089 25.4222 55.6908 25.4746 55.5725 25.4505C55.4558 25.427 55.3658 25.3332 55.3472 25.2153L55.0857 23.5536C53.7581 25.3397 51.8135 26.6503 49.6529 27.1949C48.7311 27.4272 47.7789 27.522 46.858 27.6136C46.2315 27.6758 45.5839 27.7401 44.9592 27.8473C43.1294 28.1613 41.82 28.8435 41.0667 29.8755C40.9734 30.0028 40.7954 30.0306 40.668 29.9374C40.5411 29.8445 40.5133 29.6661 40.6061 29.5388C41.45 28.3832 42.8821 27.6247 44.8626 27.2847C45.5076 27.1743 46.1654 27.1089 46.8018 27.0457C47.7018 26.9562 48.6326 26.8638 49.5136 26.6416C51.7689 26.073 53.7742 24.6179 55.0147 22.6494C55.0783 22.5488 55.1962 22.4975 55.3135 22.5221C55.4296 22.5463 55.519 22.6397 55.5376 22.7572L55.8186 24.543C56.1021 24.3237 56.4558 24.178 56.8467 24.1261C57.5543 24.0333 58.271 24.2493 58.7592 24.708C59.5472 25.4483 59.7952 26.7285 59.3996 27.8543L59.8656 27.993C59.9461 28.0169 60.0124 28.0755 60.0458 28.1525C60.7212 29.7079 60.6011 31.5782 59.7331 33.0344C58.865 34.4902 57.277 35.484 55.5891 35.6277C55.4739 35.6373 55.3593 35.6435 55.2451 35.6462Z" fill="#292625"/>
<path d="M13.6303 74.9072C12.9699 75.5146 11.8814 75.9869 11.242 75.3575C10.9583 75.0779 10.8673 74.6615 10.8012 74.2686C10.4894 72.4165 10.4378 70.5206 10.6489 68.654C10.6343 69.0157 10.6137 69.3969 10.4178 69.7008C10.2218 70.0051 9.78533 70.1855 9.48656 69.9815C9.34181 69.8826 9.25855 69.7175 9.18986 69.5561C8.45588 67.8338 8.73893 65.8762 8.76325 64.0041C8.79787 61.3227 8.27417 58.6709 7.84018 56.0247C7.40621 53.3788 7.06049 50.6761 7.4512 48.0232C7.84164 45.3706 9.05608 42.7393 11.2195 41.1578C10.1572 43.963 11.3786 47.099 12.8838 49.6933C14.6009 52.6528 16.7043 55.3761 18.3764 58.3614C20.0482 61.3467 21.2958 64.7031 21.075 68.1182C21.0326 68.771 20.9318 69.4368 20.618 70.0109C20.0955 68.227 19.3232 66.5166 18.3307 64.9456C19.5094 67.5255 18.4174 70.5306 17.2412 73.1114C17.2373 71.7635 16.8418 70.4188 16.1157 69.2837C16.1044 71.3923 15.1814 73.4804 13.6303 74.9072Z" fill="#F2591D"/>
<path d="M10.8713 69.3005C10.7373 70.9427 10.808 72.5981 11.0812 74.2211C11.1404 74.572 11.2167 74.9329 11.441 75.154C11.5945 75.3048 11.7863 75.3755 12.0276 75.3698C12.4498 75.3599 13.003 75.0957 13.4368 74.6971C14.9243 73.3284 15.8187 71.3041 15.8296 69.2822C15.8304 69.1557 15.9139 69.0448 16.0352 69.0095C16.1572 68.9744 16.2866 69.0232 16.3548 69.1298C16.8999 69.9818 17.2686 70.9604 17.4308 71.966C18.4176 69.6023 19.0397 67.1862 18.0705 65.064C18.008 64.9275 18.0619 64.766 18.1938 64.6944C18.3266 64.6231 18.4904 64.6663 18.5703 64.793C19.4322 66.1568 20.1276 67.6172 20.643 69.144C20.7334 68.7795 20.7694 68.413 20.7896 68.0997C20.9788 65.1775 20.1075 62.0376 18.1267 58.5008C17.251 56.9368 16.2361 55.4154 15.2542 53.9443C14.3688 52.6165 13.4528 51.2437 12.6363 49.8364C10.8516 46.7603 10.2069 44.1768 10.6809 41.976C9.15655 43.4126 8.09835 45.5798 7.73215 48.0648C7.33521 50.7605 7.72457 53.5632 8.12069 55.9785C8.17955 56.3388 8.24056 56.699 8.30131 57.0598C8.68318 59.3243 9.07785 61.6661 9.04734 64.0074C9.04232 64.3891 9.02666 64.7742 9.01101 65.1601C8.9521 66.6201 8.89086 68.1296 9.45114 69.4441C9.50364 69.5672 9.56363 69.689 9.6465 69.7456C9.78662 69.8414 10.0584 69.7303 10.1772 69.546C10.235 69.4566 10.2772 69.3491 10.3061 69.2182C10.3226 69.0191 10.3421 68.8205 10.3648 68.6218C10.3819 68.4695 10.5161 68.3563 10.6698 68.3696C10.8227 68.3813 10.939 68.512 10.9327 68.6655C10.9234 68.8907 10.9126 69.0944 10.8713 69.3005ZM12.041 75.9403C11.6485 75.9495 11.3029 75.8182 11.0415 75.5607C10.6952 75.2198 10.5904 74.7395 10.5193 74.3159C10.2922 72.9675 10.2008 71.5975 10.2469 70.2304C9.94833 70.3901 9.58361 70.3936 9.32491 70.2168C9.12127 70.0774 9.01315 69.8705 8.9266 69.6679C8.31608 68.2351 8.37981 66.6601 8.44153 65.1369C8.45677 64.7564 8.47229 64.3767 8.47715 64.0001C8.50698 61.7101 8.11641 59.3942 7.73915 57.1545C7.67812 56.7933 7.61735 56.432 7.55794 56.0709C7.15492 53.613 6.75925 50.7584 7.16797 47.9816C7.61057 44.9785 9.02573 42.4072 11.0504 40.9272C11.1522 40.8531 11.2909 40.8542 11.3914 40.9308C11.4916 41.0074 11.5299 41.1407 11.4852 41.2588C10.6437 43.4806 11.1817 46.1925 13.1293 49.5499C13.9369 50.9416 14.8476 52.307 15.7285 53.6274C16.7162 55.1078 17.7373 56.6386 18.6242 58.2218C20.6605 61.8579 21.555 65.1012 21.3584 68.1366C21.3206 68.7236 21.2306 69.4828 20.8671 70.1475C20.8118 70.2486 20.7005 70.3074 20.5867 70.2942C20.4719 70.2818 20.3759 70.2017 20.3438 70.091C20.0219 68.9932 19.6064 67.9271 19.1013 66.9042C19.2425 69.0069 18.4089 71.2346 17.4996 73.2298C17.4439 73.3516 17.3114 73.4189 17.1801 73.3903C17.049 73.3619 16.9557 73.2463 16.9552 73.1123C16.9526 72.1429 16.7339 71.1627 16.3295 70.2752C16.0806 72.1091 15.1816 73.8669 13.8227 75.1171C13.2767 75.6193 12.6107 75.927 12.041 75.9403Z" fill="#292625"/>
<path d="M11.312 48.9302C11.0422 48.1053 10.8758 47.2402 10.4874 46.4642C10.3749 46.2389 10.1584 45.9884 9.92169 46.0737C9.80067 46.1173 9.72648 46.2374 9.66991 46.3531C9.2032 47.3056 9.30513 48.4402 9.57646 49.4659C11.1337 55.3519 17.4834 58.9107 19.3798 64.6961C18.8575 61.9542 17.808 59.3136 16.3058 56.9617C14.6023 54.2945 12.2961 51.9389 11.312 48.9302Z" fill="#D34B20"/>
<path d="M12.7591 73.9717C13.1504 73.8345 13.3291 73.3897 13.4391 72.9895C14.4377 69.3613 13.618 65.4679 12.2808 61.9502C12.5135 64.029 11.9012 66.0953 11.4355 68.1345C11.0652 69.7562 10.795 71.5066 11.4344 73.0421C11.549 73.3175 11.6972 73.5879 11.926 73.7794C12.1547 73.9708 12.4778 74.0706 12.7591 73.9717Z" fill="#D34B20"/>
<path d="M9.20945 57.4094C9.48575 60.0804 9.59695 62.7688 9.5423 65.4538C9.53496 65.8161 9.52915 66.1986 9.7037 66.5161C9.87852 66.834 10.3035 67.0444 10.6149 66.8591C10.7601 66.7728 10.8529 66.6197 10.9214 66.4648C11.2888 65.6352 11.1086 64.6767 10.9084 63.7916C10.4228 61.6436 9.85581 59.5141 9.20945 57.4094Z" fill="#D34B20"/>
<path d="M17.1254 67.3677C17.2218 65.736 16.4143 64.1854 15.4574 62.8608C14.8261 61.9875 14.1189 61.1674 13.3297 60.4339C14.8059 62.4873 14.6134 65.4268 16.1816 67.4107C16.2927 67.5512 16.4186 67.6905 16.5858 67.7543C16.7531 67.8178 16.9711 67.7812 17.0641 67.6282C17.1109 67.5511 17.1202 67.4577 17.1254 67.3677Z" fill="#D34B20"/>
<path d="M59.009 73.8452C59.6968 74.4211 60.8065 74.8419 61.4158 74.1833C61.686 73.8907 61.7575 73.4705 61.8051 73.075C62.03 71.2102 61.9928 69.314 61.6946 67.4594C61.7261 67.82 61.7645 68.1998 61.9745 68.4943C62.1844 68.789 62.6289 68.9488 62.9178 68.731C63.0577 68.6254 63.1332 68.4567 63.1943 68.2923C63.8469 66.5375 63.4725 64.5953 63.3607 62.7263C63.2006 60.0496 63.5997 57.3761 63.9094 54.7125C64.2192 52.0492 64.438 49.3332 63.9237 46.7016C63.4096 44.0702 62.0733 41.4985 59.8384 40.02C61.0307 42.7724 59.9573 45.9621 58.5751 48.6239C56.9984 51.6606 55.0244 54.4793 53.4941 57.5396C51.9637 60.5998 50.8746 64.0108 51.2549 67.4119C51.3277 68.062 51.4596 68.7224 51.7999 69.2812C52.2384 67.4748 52.9298 65.7301 53.8478 64.1144C52.7911 66.7466 54.0224 69.6974 55.3181 72.2203C55.2589 70.8736 55.5908 69.5119 56.2633 68.3441C56.3732 70.4499 57.3928 72.4926 59.009 73.8452Z" fill="#F2591D"/>
<path d="M56.2565 68.0589C56.2806 68.0583 56.3053 68.0607 56.3299 68.0665C56.4526 68.0962 56.5412 68.2031 56.548 68.3294C56.6534 70.3486 57.6416 72.3288 59.1918 73.6264C59.6432 74.0043 60.2081 74.2423 60.6306 74.2325C60.8719 74.2268 61.0602 74.1472 61.2065 73.9894C61.4197 73.7587 61.4793 73.3943 61.5222 73.0408C61.7192 71.4067 61.7124 69.7499 61.5017 68.1157C61.4508 67.9118 61.4305 67.7088 61.4107 67.4842C61.3972 67.3312 61.5072 67.1952 61.6594 67.1764C61.8145 67.1561 61.9517 67.2627 61.9759 67.4141C62.0078 67.6115 62.0366 67.8089 62.0624 68.007C62.0974 68.1364 62.1446 68.2419 62.2065 68.3285C62.3338 68.5076 62.611 68.605 62.746 68.503C62.8261 68.4426 62.8803 68.3181 62.927 68.1927C63.4255 66.8531 63.2934 65.3477 63.166 63.8917C63.1323 63.5075 63.0986 63.1238 63.0758 62.7431C62.9361 60.4061 63.2207 58.0483 63.4962 55.7684C63.54 55.4052 63.5841 55.0423 63.6261 54.6796C63.9088 52.2484 64.1666 49.4306 63.644 46.7564C63.1619 44.291 62.0035 42.1759 60.4136 40.8122C60.99 42.9884 60.4669 45.5992 58.8281 48.7554C58.0783 50.1994 57.2276 51.6135 56.4052 52.9814C55.4933 54.4968 54.5506 56.0639 53.7491 57.6673C51.9358 61.2928 51.2124 64.47 51.538 67.38C51.573 67.6922 51.626 68.0566 51.7334 68.4166C52.1768 66.8673 52.8031 65.376 53.6002 63.9733C53.6741 63.8427 53.8358 63.7919 53.9717 63.8572C54.1068 63.9225 54.1682 64.0814 54.1122 64.2207C53.2431 66.3856 53.9775 68.77 55.0741 71.0852C55.1891 70.073 55.5116 69.0783 56.0163 68.2017C56.0671 68.1138 56.1589 68.0611 56.2565 68.0589ZM60.644 74.8029C60.074 74.8163 59.3942 74.5401 58.8257 74.064C57.4098 72.8787 56.4295 71.1649 56.0951 69.3446C55.7392 70.2333 55.5666 71.2025 55.6007 72.1537C55.6052 72.173 55.6078 72.1931 55.6083 72.2137C55.6119 72.371 55.4876 72.5019 55.33 72.5056C55.3292 72.5056 55.3265 72.5057 55.3246 72.5057C55.2174 72.5083 55.1154 72.4497 55.0645 72.3507C54.0629 70.4003 53.126 68.214 53.1684 66.1073C52.7119 67.1527 52.3467 68.2368 52.0766 69.3485C52.0497 69.4605 51.9576 69.5451 51.8434 69.5628C51.7312 69.5813 51.6165 69.5278 51.5565 69.4294C51.1623 68.7824 51.0368 68.0283 50.9717 67.4434C50.6332 64.4207 51.3751 61.1392 53.239 57.4118C54.0509 55.7889 54.9992 54.2119 55.9166 52.687C56.7348 51.3268 57.5806 49.9203 58.3222 48.4924C60.1107 45.0475 60.5212 42.3134 59.5767 40.1334C59.5262 40.0178 59.5582 39.8826 59.6547 39.8014C59.751 39.7202 59.89 39.7124 59.9952 39.7819C62.0872 41.1655 63.621 43.6678 64.2036 46.6469C64.7418 49.4015 64.4801 52.2715 64.1925 54.7456C64.1501 55.1093 64.1063 55.473 64.0622 55.837C63.7899 58.0917 63.5084 60.4233 63.645 62.7091C63.6675 63.0845 63.7007 63.4628 63.734 63.8419C63.8669 65.3608 64.0043 66.9317 63.4615 68.3918C63.3845 68.5981 63.2862 68.8099 63.0893 68.9586C62.8394 69.1473 62.4746 69.161 62.1689 69.0153C62.2789 70.3788 62.2517 71.7516 62.088 73.1091C62.0365 73.5359 61.9537 74.0211 61.6246 74.377C61.3755 74.6465 61.0364 74.7938 60.644 74.8029Z" fill="#292625"/>
<path d="M60.1089 47.7881C60.3398 46.9515 60.4656 46.0794 60.8172 45.2862C60.9191 45.0559 61.1236 44.7955 61.3641 44.8696C61.487 44.9075 61.5667 45.0241 61.6287 45.137C62.1394 46.0666 62.0907 47.2047 61.8676 48.242C60.5874 54.1943 54.4112 58.0463 52.7875 63.9141C53.181 61.1508 54.1057 58.464 55.4963 56.0444C57.0732 53.3004 59.2667 50.8394 60.1089 47.7881Z" fill="#D34B20"/>
<path d="M59.8351 72.8701C59.4377 72.7513 59.2384 72.3154 59.1096 71.9208C57.9427 68.3432 58.5793 64.4158 59.7504 60.8394C59.615 62.9267 60.3236 64.9621 60.8842 66.9774C61.3299 68.58 61.6817 70.3158 61.1148 71.8795C61.013 72.16 60.8778 72.4371 60.6583 72.639C60.4388 72.8409 60.1206 72.9557 59.8351 72.8701Z" fill="#D34B20"/>
<path d="M62.6069 56.1597C62.4558 58.8408 62.4705 61.5314 62.6507 64.2109C62.675 64.5725 62.6987 64.9543 62.5392 65.2796C62.3794 65.6053 61.9648 65.8354 61.6451 65.6649C61.4957 65.5854 61.3962 65.4369 61.3202 65.2853C60.9147 64.4738 61.0498 63.5079 61.2083 62.6144C61.5929 60.4461 62.0597 58.2924 62.6069 56.1597Z" fill="#D34B20"/>
<path d="M55.1649 66.4776C54.9922 64.8522 55.726 63.2655 56.6202 61.8976C57.2099 60.9957 57.8779 60.1435 58.6319 59.3738C57.2534 61.494 57.5832 64.4213 56.1096 66.4764C56.0051 66.6219 55.8859 66.767 55.7218 66.8385C55.5577 66.9097 55.338 66.8835 55.2382 66.7349C55.1879 66.6601 55.1742 66.5673 55.1649 66.4776Z" fill="#D34B20"/>
<path d="M31.261 29.9313C30.2744 28.7047 28.652 28.1764 27.0906 27.9831C25.529 27.7901 23.9353 27.8674 22.3931 27.5548C20.0477 27.0789 17.9042 25.6717 16.534 23.7079C16.4469 24.5025 16.3595 25.2974 16.2724 26.092C15.6378 25.1639 14.1105 25.1675 13.3284 25.9745C12.5463 26.7816 12.4961 28.1212 13.0226 29.1146C12.7704 29.2026 12.5182 29.2907 12.2662 29.3788C11.6974 30.8773 11.8941 32.6446 12.7784 33.9814C13.6624 35.3181 15.2115 36.1893 16.8122 36.2504C19.2103 36.3417 21.301 34.7748 23.385 33.5836C25.4688 32.3922 28.2359 31.5768 30.145 33.0323L31.261 29.9313Z" fill="#F2591D"/>
<path d="M17.1463 36.5377C17.0321 36.5403 16.9173 36.5395 16.8019 36.5353C15.1091 36.4707 13.4763 35.5523 12.5411 34.1387C11.6056 32.7247 11.3984 30.862 12.0002 29.2768C12.0301 29.1983 12.0933 29.1366 12.1728 29.109L12.6315 28.9487C12.184 27.8426 12.3716 26.5525 13.1243 25.7758C13.5903 25.2948 14.2961 25.0458 15.0075 25.1051C15.4005 25.1386 15.7605 25.2677 16.054 25.4734L16.2512 23.6764C16.264 23.5583 16.3491 23.4607 16.4638 23.4312C16.58 23.4011 16.7002 23.4469 16.7682 23.5443C18.0996 25.4527 20.1709 26.8124 22.4502 27.2748C23.3405 27.4556 24.2748 27.5043 25.178 27.5516C25.8167 27.585 26.4768 27.6195 27.126 27.6996C29.1202 27.9467 30.5865 28.6372 31.4836 29.7522C31.5822 29.875 31.5628 30.0545 31.4401 30.1532C31.3175 30.2525 31.1384 30.233 31.0392 30.11C30.2385 29.1144 28.8983 28.4942 27.0561 28.2661C26.4271 28.1882 25.7772 28.1543 25.1485 28.1215C24.2243 28.0731 23.2687 28.0229 22.337 27.834C20.1533 27.3911 18.1495 26.1729 16.7398 24.4509L16.5563 26.1229C16.5432 26.2416 16.4578 26.3395 16.3421 26.3685C16.2258 26.3981 16.1051 26.3512 16.0373 26.253C15.8096 25.9192 15.4265 25.7134 14.9594 25.6736C14.4221 25.6276 13.8767 25.8192 13.5333 26.173C12.879 26.8483 12.7701 28.0289 13.2744 28.9807C13.3134 29.0541 13.3187 29.141 13.2883 29.2185C13.2577 29.296 13.195 29.3562 13.1165 29.3838L12.4883 29.6031C12.0069 30.9917 12.2048 32.5969 13.0163 33.8236C13.8519 35.0869 15.311 35.9073 16.8234 35.9648C18.7371 36.0387 20.4903 34.9817 22.188 33.9601C22.5411 33.7478 22.8927 33.5364 23.2436 33.3356C24.5788 32.5725 27.9404 30.9925 30.3182 32.8052C30.4433 32.9006 30.4678 33.0796 30.3721 33.2048C30.2768 33.33 30.0979 33.3546 29.9726 33.259C27.8669 31.6536 24.7631 33.1242 23.5267 33.8311C23.1791 34.0298 22.8313 34.2391 22.4819 34.4491C20.8109 35.4545 19.0855 36.492 17.1463 36.5377Z" fill="#292625"/>
<path d="M13.9274 32.7445C14.1914 33.6624 14.7455 34.5306 15.5791 34.9963C16.896 35.7319 18.5861 35.3066 19.8526 34.4868C21.1191 33.6668 22.1221 32.5004 23.3268 31.5921C24.6853 30.5677 26.2981 29.8838 27.9783 29.6197C27.2531 29.1419 26.317 29.1337 25.4575 29.2578C24.5983 29.3818 23.7458 29.6216 22.8784 29.5799C21.0587 29.4931 19.5497 28.215 18.1485 27.0498C18.0074 26.9326 17.8387 26.8082 17.6587 26.8435C17.4328 26.888 17.3286 27.1699 17.3734 27.396C17.4184 27.6221 17.5631 27.8131 17.6677 28.0185C17.9216 28.5165 17.7683 29.3244 17.2101 29.3504C16.824 29.3685 16.5501 28.9993 16.3133 28.6937C16.0763 28.3881 15.6818 28.0837 15.3403 28.2646C15.1016 28.3913 15.0269 28.6954 15.0047 28.9649C14.9168 30.0317 15.2751 31.1287 15.9759 31.9376C15.3427 32.0354 14.7027 31.2567 14.1533 31.5861C13.7895 31.8043 13.81 32.3368 13.9274 32.7445Z" fill="#D34B20"/>
<path d="M58.5519 31.7C58.3311 32.6292 57.8182 33.5224 57.0073 34.0265C55.7261 34.823 54.0182 34.4772 52.7147 33.7175C51.4112 32.9576 50.3545 31.8395 49.1087 30.9885C47.704 30.0288 46.061 29.4211 44.3702 29.2359C45.0723 28.7247 46.007 28.6727 46.8711 28.7564C47.7354 28.8401 48.5982 29.0398 49.4624 28.9575C51.276 28.7857 52.7238 27.4384 54.069 26.209C54.2045 26.0852 54.3669 25.9531 54.5484 25.98C54.7764 26.0139 54.8936 26.2906 54.8595 26.5185C54.8252 26.7465 54.6895 26.944 54.5946 27.1541C54.3643 27.6634 54.5552 28.4633 55.114 28.4631C55.5003 28.4632 55.7566 28.0816 55.9791 27.7652C56.2013 27.4488 56.5814 27.1264 56.931 27.2911C57.1754 27.4064 57.2639 27.7067 57.2989 27.9749C57.4367 29.0364 57.1298 30.1489 56.4677 30.9897C57.1047 31.0578 57.7076 30.2501 58.2721 30.5534C58.6456 30.7543 58.6501 31.2872 58.5519 31.7Z" fill="#D34B20"/>
<path d="M42.168 31.3777C42.0943 31.3795 42.0193 31.3525 41.9622 31.2966C41.8497 31.1868 41.8473 31.0059 41.9573 30.8932C43.5636 29.244 46.0388 28.3317 49.314 28.1815C50.3413 28.1346 51.3877 28.1539 52.3975 28.173C53.9476 28.2022 55.5489 28.2321 57.097 28.0179C60.0309 27.612 62.3176 26.2677 63.3704 24.3293C63.4452 24.1909 63.6186 24.1398 63.7572 24.215C63.8955 24.2904 63.9465 24.4637 63.8714 24.6022C62.7309 26.7012 60.2903 28.152 57.1754 28.5831C55.5832 28.8034 53.9588 28.773 52.387 28.7435C51.3855 28.7245 50.3501 28.7055 49.3399 28.7514C46.214 28.8949 43.8676 29.7496 42.3653 31.2915C42.3113 31.347 42.2401 31.376 42.168 31.3777Z" fill="#292625"/>
<path d="M56.0486 32.5065C53.9282 32.5561 51.7761 32.0064 49.9612 30.9269C49.826 30.8466 49.7811 30.6712 49.8619 30.5359C49.9421 30.4003 50.117 30.3557 50.2525 30.4363C52.3977 31.7124 55.0403 32.2082 57.5009 31.7983C59.9623 31.3877 62.3007 30.0606 63.9165 28.1571C64.0186 28.0366 64.1983 28.0228 64.3184 28.1244C64.4383 28.2266 64.453 28.4066 64.3509 28.5266C62.6494 30.5312 60.1869 31.929 57.5948 32.3613C57.085 32.4462 56.5676 32.4943 56.0486 32.5065Z" fill="#292625"/>
<path d="M57.3485 36.6424C56.0496 36.6728 54.7346 36.281 53.6958 35.5074C53.5697 35.4134 53.5433 35.2347 53.6374 35.1082C53.7313 34.982 53.9099 34.9555 54.0362 35.0495C55.44 36.0951 57.4038 36.3678 59.0391 35.744C59.1867 35.6882 59.351 35.7617 59.407 35.9091C59.4633 36.0562 59.3894 36.2212 59.2423 36.2773C58.6393 36.5072 57.9957 36.6273 57.3485 36.6424Z" fill="#292625"/>
<path d="M29.3018 31.6791C29.2297 31.6808 29.1572 31.6551 29.1007 31.6022C27.528 30.1323 25.1441 29.3883 22.0149 29.3912C21.002 29.3929 19.9698 29.46 18.9708 29.5258C17.4029 29.6288 15.7812 29.7352 14.1804 29.5896C11.0485 29.3047 8.54295 27.9697 7.30521 25.9263C7.22373 25.7915 7.26656 25.616 7.40145 25.5342C7.53609 25.4529 7.71171 25.4958 7.79291 25.6302C8.93553 27.5172 11.2823 28.7531 14.232 29.0213C15.7879 29.1629 17.3869 29.0578 18.9336 28.9564C19.942 28.8898 20.9844 28.8211 22.0141 28.8207C25.293 28.8175 27.8079 29.6129 29.4896 31.1853C29.6047 31.2926 29.6109 31.4735 29.5036 31.5885C29.4491 31.6469 29.3756 31.6774 29.3018 31.6791Z" fill="#292625"/>
<path d="M15.4877 33.4559C14.9684 33.468 14.4493 33.4442 13.9361 33.3832C11.3266 33.0727 8.80141 31.7915 7.00801 29.8688C6.90043 29.7537 6.90667 29.5731 7.02191 29.4655C7.13635 29.3583 7.317 29.3638 7.42486 29.4794C9.12774 31.3052 11.5256 32.5214 14.0035 32.8164C16.4804 33.111 19.0971 32.4921 21.18 31.1168C21.3116 31.03 21.4886 31.0664 21.5749 31.198C21.6619 31.3294 21.6253 31.5067 21.494 31.5933C19.7318 32.7565 17.6078 33.4062 15.4877 33.4559Z" fill="#292625"/>
<path d="M14.3831 37.6481C13.7356 37.6632 13.0876 37.5734 12.4742 37.3719C12.325 37.3228 12.2434 37.1615 12.2925 37.0119C12.3416 36.862 12.5025 36.7814 12.6522 36.8297C14.3142 37.3758 16.2636 37.0121 17.6172 35.9019C17.7393 35.8024 17.9189 35.8202 18.0183 35.9419C18.1183 36.0639 18.1005 36.2437 17.9786 36.3434C16.9772 37.1645 15.6817 37.6177 14.3831 37.6481Z" fill="#292625"/>
<path d="M55.6381 38.1232C55.7654 43.5647 51.4612 48.0792 46.0245 48.2064C40.5878 48.3337 36.0771 44.0254 35.9497 38.5839C35.8224 33.1424 40.1266 28.6279 45.5633 28.5007C51 28.3734 55.5107 32.6816 55.6381 38.1232Z" fill="#523B1A"/>
<path d="M54.3293 38.4747C54.4447 43.4048 50.5452 47.4945 45.6195 47.6098C40.694 47.725 36.6075 43.8222 36.4921 38.8921C36.3768 33.9623 40.2762 29.8724 45.2017 29.7571C50.1274 29.6418 54.2139 33.5449 54.3293 38.4747Z" fill="#D1B86C"/>
<path d="M54.3293 38.4747C54.4447 43.4048 50.5452 47.4945 45.6195 47.6098C40.694 47.725 36.6075 43.8222 36.4921 38.8921C36.3768 33.9623 40.2762 29.8724 45.2017 29.7571C50.1274 29.6418 54.2139 33.5449 54.3293 38.4747Z" fill="#D1B86C"/>
<path d="M53.4742 38.4945C53.5785 42.952 50.0527 46.6502 45.5991 46.7544C41.1455 46.8586 37.4505 43.3295 37.3461 38.872C37.2418 34.4144 40.7677 30.7163 45.2213 30.6121C49.6749 30.5078 53.3699 34.037 53.4742 38.4945Z" fill="#F3ED99"/>
<path d="M49.2729 38.5929C49.3229 40.7283 47.6339 42.4998 45.5004 42.5497C43.3672 42.5997 41.5972 40.9091 41.5472 38.7737C41.4972 36.6384 43.1862 34.8669 45.3194 34.8169C47.4529 34.767 49.2229 36.4575 49.2729 38.5929Z" fill="#D4C18D"/>
<path d="M48.2051 38.618C48.2412 40.163 47.0193 41.4446 45.4756 41.4807C43.9322 41.5169 42.6517 40.2938 42.6156 38.7488C42.5794 37.204 43.8013 35.9221 45.3447 35.886C46.8884 35.8499 48.1689 37.0732 48.2051 38.618Z" fill="#2E2227"/>
<path d="M45.3911 37.8638C45.4016 38.3165 45.0437 38.6919 44.5915 38.7025C44.1392 38.713 43.7641 38.3548 43.7535 37.9021C43.7429 37.4495 44.1008 37.0738 44.5531 37.0632C45.0054 37.0526 45.3805 37.4111 45.3911 37.8638Z" fill="white"/>
<path d="M42.9516 32.7349C43.6306 33.3556 43.2883 34.8367 42.1873 36.043C41.0862 37.2493 39.6432 37.7239 38.9645 37.1032C38.2855 36.4825 38.6277 35.0014 39.7288 33.7951C40.8299 32.5888 42.2726 32.1142 42.9516 32.7349Z" fill="white"/>
<path d="M47.3641 45.2528C43.1118 45.3524 39.3924 42.9001 37.6682 39.2935C37.8341 42.208 39.674 44.8926 42.5787 45.9893C45.1519 46.9609 47.921 46.445 49.9429 44.8698C49.1207 45.0995 48.2568 45.232 47.3641 45.2528Z" fill="#D4C18D"/>
<path d="M15.4436 39.0638C15.571 44.5053 20.0814 48.8135 25.5184 48.6863C30.9551 48.5591 35.2593 44.0445 35.132 38.603C35.0046 33.1615 30.4939 28.8533 25.0572 28.9805C19.6202 29.1078 15.3162 33.6223 15.4436 39.0638Z" fill="#523B1A"/>
<path d="M16.768 39.3536C16.8834 44.2836 20.9699 48.1865 25.8954 48.0712C30.8211 47.9559 34.7206 43.8662 34.6052 38.9361C34.4898 34.0063 30.4033 30.1032 25.4776 30.2185C20.5521 30.3338 16.6526 34.4238 16.768 39.3536Z" fill="#D1B86C"/>
<path d="M16.768 39.3536C16.8834 44.2836 20.9699 48.1865 25.8954 48.0712C30.8211 47.9559 34.7206 43.8662 34.6052 38.9361C34.4898 34.0063 30.4033 30.1032 25.4776 30.2185C20.5521 30.3338 16.6526 34.4238 16.768 39.3536Z" fill="#D1B86C"/>
<path d="M17.6212 39.3337C17.7255 43.7912 21.4205 47.3203 25.8741 47.2161C30.328 47.1119 33.8536 43.4138 33.7492 38.9562C33.6449 34.4987 29.9502 30.9696 25.4963 31.0738C21.0427 31.178 17.5168 34.8762 17.6212 39.3337Z" fill="#F3ED99"/>
<path d="M21.8231 39.2352C21.8731 41.3706 23.6431 43.0611 25.7763 43.0112C27.9098 42.9613 29.5988 41.1898 29.5488 39.0544C29.4988 36.919 27.7288 35.2285 25.5953 35.2784C23.4621 35.3284 21.7731 37.0998 21.8231 39.2352Z" fill="#D4C18D"/>
<path d="M22.8914 39.2101C22.9276 40.7551 24.2081 41.9782 25.7515 41.942C27.2952 41.9059 28.5171 40.6243 28.4809 39.0793C28.4448 37.5345 27.1643 36.3112 25.6206 36.3473C24.0772 36.3834 22.8553 37.6653 22.8914 39.2101Z" fill="#2E2227"/>
<path d="M25.6669 38.3254C25.6775 38.7781 26.0528 39.1363 26.5051 39.1257C26.9573 39.1151 27.3153 38.7398 27.3047 38.2871C27.2941 37.8344 26.919 37.4759 26.4667 37.4865C26.0144 37.4971 25.6563 37.8727 25.6669 38.3254Z" fill="white"/>
<path d="M23.204 33.1971C23.883 33.8178 23.5408 35.2989 22.4397 36.5052C21.3386 37.7115 19.8959 38.1861 19.2169 37.5654C18.5379 36.9447 18.8802 35.4636 19.9812 34.2573C21.0823 33.051 22.5253 32.5764 23.204 33.1971Z" fill="white"/>
<path d="M24.0418 45.7987C28.2943 45.6992 31.895 43.0757 33.4485 39.3923C33.4192 42.3113 31.7069 45.0792 28.8567 46.3105C26.3318 47.4014 23.5416 47.0156 21.4482 45.5367C22.2802 45.7277 23.1493 45.8196 24.0418 45.7987Z" fill="#D4C18D"/>
<path d="M37.17 39.8233C36.9173 39.5586 36.6242 39.3222 36.2863 39.2463C35.9581 39.1724 35.5833 39.2835 35.3884 39.5847C35.1801 39.2924 34.8008 39.1982 34.4761 39.2866C34.1419 39.3773 33.8596 39.6267 33.619 39.9021C32.3384 41.3687 32.0301 43.6462 32.3774 45.6712C32.7247 47.6963 33.6358 49.5374 34.5336 51.3389C34.6001 51.4718 35.1539 52.293 35.6799 52.2812C36.2062 52.2695 36.7044 51.425 36.7645 51.2891C37.5815 49.4497 38.4101 47.57 38.6668 45.5313C38.9235 43.4929 38.5144 41.2314 37.17 39.8233Z" fill="#2D1615"/>
<path d="M34.3823 39.645C34.1375 39.6953 33.9596 39.9107 33.8156 40.1222C32.7939 41.6249 32.4975 43.5608 32.6708 45.3926C32.8626 47.4227 33.6032 49.3948 34.7865 51.0252C34.9916 51.3077 35.287 51.61 35.6183 51.5298C35.9984 51.4377 36.1007 50.9354 36.1263 50.5312C36.3397 47.1885 36.4746 43.737 35.3764 40.5845C35.293 40.3453 35.1996 40.1029 35.0358 39.9135C34.8721 39.7243 34.6225 39.5953 34.3823 39.645Z" fill="#EE8B40"/>
<path d="M36.087 39.6028C35.7543 39.6911 35.6058 40.071 35.5143 40.4031C34.5763 43.8076 34.5088 47.4487 35.3202 50.8855C35.3777 51.1285 35.4739 51.4087 35.7127 51.481C36.0117 51.5717 36.2754 51.2715 36.4365 51.0036C37.8993 48.567 38.519 45.6336 38.1662 42.8126C38.0269 41.699 37.6887 40.5205 36.8045 39.83C36.5993 39.67 36.3387 39.5362 36.087 39.6028Z" fill="#F2591D"/>
<path d="M36.321 46.0476C36.3851 48.7849 36.0504 51.0128 35.5737 51.0239C35.0968 51.0351 34.6585 48.8253 34.5945 46.088C34.5304 43.3508 34.8648 41.1229 35.3417 41.1117C35.8184 41.1006 36.2569 43.3104 36.321 46.0476Z" fill="#F3DE3E"/>
<path d="M35.5336 44.4164C35.7241 44.3524 35.7957 44.1222 35.82 43.9224C35.897 43.2913 35.7725 42.6375 35.4695 42.0789C35.0149 42.5398 34.8451 43.2415 34.9673 43.8774C34.9951 44.0231 35.0396 44.1708 35.1364 44.2832C35.2332 44.3953 35.3931 44.4637 35.5336 44.4164" fill="white"/>
<path d="M35.7289 45.9941C35.6199 45.6152 35.511 45.2362 35.4021 44.8575C35.1988 45.2494 35.1131 45.7017 35.1591 46.1409C35.1716 46.2625 35.196 46.3876 35.2675 46.4866C35.339 46.5858 35.4688 46.6518 35.5854 46.6161C35.6989 46.5815 35.769 46.4617 35.7818 46.3438C35.7949 46.2256 35.7616 46.108 35.7289 45.9941" fill="white"/>
<path d="M7.87942 43.801C8.26355 42.4604 9.26265 41.3099 10.5353 40.7424C11.8083 40.1748 13.3311 40.2009 14.5836 40.8117C14.9008 40.9664 15.2155 41.1717 15.3752 41.4864C15.4891 41.7108 15.5131 41.9699 15.5166 42.2216C15.5388 43.8137 14.7787 45.3986 13.5234 46.3768C12.2681 47.3553 10.547 47.7046 9.00996 47.2927C11.2571 48.5447 12.6004 51.2493 12.2414 53.798C12.1125 54.7117 11.7242 55.6686 10.9162 56.1127C10.0237 56.6032 8.88205 56.3145 8.03668 55.7468C6.41817 54.6606 5.54507 52.5646 5.91281 50.6495C5.93263 52.6425 4.82494 54.609 3.11074 55.6237C1.39682 56.6384 -0.858524 56.6627 -2.59413 55.6852C-2.8969 54.2098 -2.56646 52.6148 -1.70261 51.3816C-0.838503 50.1481 0.546809 49.2936 2.03608 49.0757C-0.435968 49.4911 -3.23139 48.2845 -4.20954 45.9746C-4.48127 45.3328 -4.60384 44.577 -4.30228 43.9489C-3.97668 43.2709 -3.23628 42.8946 -2.51158 42.6959C-0.446763 42.1297 1.88978 42.6866 3.47841 44.1234C1.91389 42.0202 1.57651 39.066 2.62706 36.664C3.05379 35.688 3.84013 34.7192 4.90293 34.6632C5.71283 34.6206 6.45271 35.1276 7.01234 35.7151C9.02202 37.8245 9.39604 41.313 7.87942 43.801Z" fill="#F2591D"/>
<path d="M6.11715 51.664C6.15992 53.2048 6.95482 54.6766 8.19617 55.5101C8.75239 55.8835 9.39082 56.09 9.94738 56.077C10.2541 56.0698 10.5343 55.9977 10.7801 55.8629C11.613 55.4047 11.8769 54.3477 11.9599 53.7583C12.3001 51.3429 11.0018 48.7285 8.8721 47.542C8.74653 47.4719 8.69279 47.3193 8.7468 47.1857C8.80054 47.0523 8.94504 46.9797 9.0846 47.0172C9.51811 47.1333 9.97216 47.1868 10.4338 47.176C11.4984 47.1511 12.5339 46.7872 13.3495 46.1517C14.5321 45.2303 15.2536 43.7257 15.2327 42.2257C15.2299 42.0263 15.2146 41.7979 15.1221 41.6156C15.0186 41.4121 14.8083 41.2382 14.4602 41.0684C13.825 40.7587 13.1038 40.6042 12.3746 40.6213C11.777 40.6353 11.1811 40.7674 10.6523 41.0031C9.88932 41.3434 9.20842 41.9237 8.73108 42.6399C8.57587 43.1026 8.37158 43.5431 8.12385 43.9498C8.04918 44.0713 7.89716 44.1202 7.76571 44.0623C7.63508 44.005 7.56702 43.8597 7.60619 43.7224C7.73985 43.2559 7.94423 42.8076 8.21342 42.3897C8.93551 40.1541 8.37254 37.5552 6.80698 35.912C6.37798 35.4619 5.71021 34.929 4.96329 34.9465L4.91881 34.9483C3.75098 35.0098 3.06997 36.3649 2.8892 36.7785C1.87276 39.1024 2.19403 41.9184 3.70813 43.953C3.79565 44.0707 3.77966 44.2356 3.67118 44.3343C3.56298 44.4332 3.39694 44.4331 3.28842 44.3352C2.14375 43.3001 0.576698 42.7276 -1.01123 42.7648C-1.49863 42.7762 -1.97769 42.8457 -2.43532 42.9713C-3.00304 43.1266 -3.74267 43.4438 -4.04422 44.0724C-4.34962 44.7081 -4.11378 45.4672 -3.94624 45.8633C-3.1745 47.6862 -1.06185 48.9225 1.19068 48.8698C1.42285 48.8643 1.65522 48.8447 1.8803 48.8115C1.91477 48.8056 1.95539 48.7992 1.99575 48.7932C2.15163 48.7718 2.29412 48.877 2.31865 49.0313C2.34292 49.1856 2.23823 49.3312 2.08406 49.3571L1.96352 49.376C0.587517 49.6085 -0.665688 50.3998 -1.46828 51.5454C-2.2584 52.6738 -2.57972 54.1423 -2.33846 55.4995C-1.53559 55.9248 -0.613759 56.1373 0.335833 56.1151C1.2798 56.093 2.18961 55.8384 2.96667 55.3783C4.30145 54.5881 5.26406 53.1847 5.54585 51.6204C5.54041 51.2734 5.5699 50.9288 5.63373 50.5957C5.66147 50.4517 5.79214 50.3504 5.93923 50.3655C6.08519 50.3787 6.19748 50.5001 6.19877 50.6469C6.20209 50.9835 6.17468 51.3257 6.11715 51.664ZM9.96073 56.6475C9.2795 56.6634 8.53982 56.4278 7.87894 55.9839C6.83981 55.2866 6.08004 54.1928 5.74126 52.9671C5.24243 54.1749 4.36571 55.2129 3.25687 55.8695C2.3962 56.3788 1.39073 56.6612 0.349185 56.6856C-0.748396 56.7112 -1.8143 56.4516 -2.73307 55.934C-2.8051 55.8935 -2.85583 55.8236 -2.87247 55.7429C-3.18917 54.1996 -2.83874 52.508 -1.93492 51.2177C-1.39165 50.442 -0.661996 49.8131 0.172609 49.3819C-1.90243 49.0987 -3.73112 47.834 -4.47108 46.0858C-4.82542 45.2492 -4.85629 44.4463 -4.55832 43.8253C-4.24576 43.1745 -3.56372 42.6887 -2.58581 42.4207C-2.08367 42.283 -1.55836 42.2068 -1.02458 42.1943C0.221257 42.1652 1.45612 42.4807 2.51713 43.0815C1.5398 41.0588 1.46025 38.6229 2.36667 36.5497C2.93804 35.2433 3.88095 34.4316 4.88884 34.3785L4.94994 34.376C5.90517 34.3536 6.71125 34.9848 7.21945 35.5184C8.66318 37.0335 9.32545 39.2907 9.01963 41.4215C9.43483 41.0303 9.91121 40.7088 10.4201 40.4818C11.0177 40.2154 11.6886 40.0666 12.3612 40.0508C13.1811 40.0316 13.9931 40.2059 14.7094 40.5554C15.0025 40.6983 15.4171 40.9367 15.6303 41.3573C15.7754 41.6438 15.799 41.9528 15.8025 42.2175C15.8259 43.8928 15.0202 45.5727 13.6994 46.6021C12.7152 47.3691 11.4351 47.7822 10.1631 47.7456C11.8978 49.2131 12.8448 51.5653 12.5246 53.838C12.4266 54.5329 12.1053 55.7854 11.0544 56.3631C10.7276 56.5425 10.3597 56.6381 9.96073 56.6475Z" fill="#292625"/>
<path d="M3.08076 40.4758C2.92891 41.0477 3.1171 41.6504 3.32269 42.2053C3.74673 43.3496 4.25296 44.4637 4.83626 45.5355C4.39786 45.6234 3.99198 45.3123 3.63301 45.0461C2.12368 43.9259 0.260896 43.2907 -1.61763 43.2552C-1.39814 43.648 -0.961894 43.8577 -0.552505 44.0433C0.282547 44.4222 1.1176 44.801 1.95238 45.1796C0.665158 44.7356 -0.719471 44.5769 -2.07347 44.7181C-0.89984 45.4547 0.414972 45.9658 1.77785 46.2152C0.452362 46.039 -0.902492 46.0863 -2.21247 46.3548C-2.2601 46.6118 -1.99477 46.8085 -1.7621 46.9274C-0.183149 47.7332 1.57296 48.1888 3.3443 48.252C2.73385 49.0342 1.88794 49.5896 1.11742 50.2144C0.34662 50.8389 -0.389473 51.5939 -0.63548 52.5555C-0.281404 52.6011 0.0440466 52.375 0.329259 52.1602C1.23786 51.4756 2.14647 50.7911 3.05535 50.1067C2.4423 50.8578 1.82924 51.6089 1.21618 52.3599C0.716561 52.9722 0.201833 53.6152 0.0323956 54.387C0.477879 54.43 0.872647 54.1174 1.1956 53.8075C2.24292 52.8033 3.12254 51.6245 3.78737 50.3347C3.98887 51.2767 3.74641 52.2752 3.27573 53.1155C2.80505 53.9559 2.12052 54.6562 1.39719 55.2918C2.26358 54.8089 3.15704 54.3028 3.7481 53.5059C5.1094 51.6706 4.43733 48.9718 5.49454 46.946C5.71865 46.9744 5.85856 47.1982 5.95189 47.4038C6.37582 48.3371 6.51136 49.3718 6.8002 50.3552C7.08904 51.3386 7.5874 52.3346 8.48032 52.8364C8.06647 51.7727 7.74088 50.6745 7.50765 49.5571C7.97114 50.0373 8.21398 50.6827 8.55229 51.2582C8.8906 51.8337 9.40302 52.3871 10.0675 52.4473C9.72346 51.3508 9.23826 50.2987 8.62776 49.3253C8.90641 49.5636 9.18533 49.8017 9.46397 50.0397C9.63478 50.1861 9.95108 50.303 10.0334 50.0935C10.0569 50.0342 10.0468 49.9673 10.0332 49.9048C9.8378 48.9925 9.05878 48.3261 8.26384 47.8386C7.46863 47.3514 6.59211 46.9542 5.96673 46.2619C6.55798 45.9197 7.29733 46.118 7.96461 46.2624C8.8527 46.4548 9.76524 46.5341 10.6732 46.4984C11.1516 46.4794 11.6396 46.4255 12.072 46.22C12.5044 46.0141 12.8767 45.6322 12.9625 45.1609C11.9486 45.2574 10.945 45.4592 9.97248 45.7614C11.3173 45.4129 12.5109 44.5124 13.2159 43.314C13.3498 43.0864 13.4685 42.8063 13.3578 42.5668C13.2442 42.3211 12.925 42.2306 12.6608 42.288C12.3966 42.3455 12.1728 42.5139 11.9522 42.6705C11.2693 43.1553 10.5324 43.5642 9.75989 43.887C10.4469 43.2239 10.9366 42.3584 11.1516 41.4277C10.1424 41.6312 9.42871 42.5159 8.86384 43.3775C8.29923 44.2388 7.74381 45.1837 6.82383 45.6461C7.0609 44.5664 7.29825 43.4866 7.53532 42.4069C7.67084 41.7905 7.80409 41.1342 7.58929 40.5408C7.18563 40.8407 6.86725 41.2544 6.68022 41.7213C6.73908 40.4884 6.79071 39.2106 6.32883 38.0659C6.20324 37.7542 5.9813 37.4173 5.64567 37.4032C5.69049 38.6191 5.61873 39.8394 5.43174 41.0418C5.32179 40.2636 5.13779 39.496 4.88327 38.7529C4.71169 38.2525 4.45678 37.711 3.96031 37.5296C3.58184 39.1348 3.67802 40.849 4.23367 42.4017C3.69874 41.8719 3.38392 41.1651 3.08076 40.4758Z" fill="#F7A80E"/>
<path d="M7.6099 46.4637C7.65195 48.2604 6.53056 49.7443 5.10537 49.7776C3.6799 49.811 2.49032 48.3812 2.44827 46.5845C2.40621 44.7875 3.52761 43.3036 4.95307 43.2703C6.37826 43.2369 7.56784 44.6667 7.6099 46.4637Z" fill="#F2591D"/>
<path d="M4.95985 43.5557C3.69364 43.5853 2.69505 44.9411 2.73336 46.578C2.77167 48.2148 3.83259 49.5222 5.0988 49.4925C6.36447 49.4629 7.36333 48.1073 7.32502 46.4705C7.28672 44.8337 6.22553 43.5261 4.95985 43.5557ZM5.11215 50.063C3.53173 50.1 2.20906 48.5426 2.1634 46.5913C2.11773 44.64 3.36608 43.0222 4.9465 42.9852C6.52639 42.9482 7.84933 44.5059 7.895 46.4572C7.94067 48.4085 6.69203 50.026 5.11215 50.063Z" fill="#292625"/>
<path d="M5.01296 45.8165C5.02941 46.5196 4.68913 47.0978 4.25294 47.108C3.81675 47.1182 3.4498 46.5565 3.43334 45.8535C3.41689 45.1505 3.75717 44.5723 4.19336 44.562C4.62955 44.5518 4.9965 45.1135 5.01296 45.8165Z" fill="#F8E298"/>
<path d="M6.06969 48.7214C6.59433 47.963 6.98405 47.0679 6.93782 46.1468C6.89131 45.2254 6.32443 44.293 5.44259 44.0243C6.31405 45.0418 6.40182 46.5226 6.18249 47.8446C6.10301 48.3225 5.96608 48.8328 5.58519 49.1314C5.79681 49.0849 5.94618 48.8996 6.06969 48.7214Z" fill="#D34B20"/>
<path d="M19.9198 57.828C19.8849 57.8721 19.6722 57.7699 19.3748 57.5352C19.083 57.2959 18.7239 56.9067 18.4217 56.4106C18.1302 55.9084 17.9597 55.4068 17.8888 55.0358C17.8242 54.6626 17.8361 54.4266 17.8914 54.4169C17.9534 54.4053 18.0482 54.6168 18.1818 54.9476C18.3228 55.2781 18.5239 55.7228 18.794 56.189C19.0746 56.649 19.3694 57.0379 19.5921 57.3194C19.8191 57.5949 19.9597 57.7788 19.9198 57.828Z" fill="#292625"/>
<path d="M22.6544 60.6024C22.5504 60.6615 22.1156 60.0896 21.683 59.3252C21.2504 58.5607 20.984 57.8934 21.088 57.8343C21.192 57.7752 21.6271 58.3471 22.0597 59.1115C22.4923 59.876 22.7584 60.5436 22.6544 60.6024Z" fill="#292625"/>
<path d="M23.6815 69.5773C23.6179 69.5761 23.5706 69.2137 23.5072 68.6374C23.4363 68.0608 23.325 67.2708 23.1385 66.4104C22.9393 65.5527 22.702 64.7913 22.5199 64.2395C22.3311 63.6917 22.2188 63.3436 22.2756 63.3155C22.3257 63.2901 22.5364 63.5923 22.8034 64.1236C23.0629 64.6572 23.3554 65.4297 23.5612 66.3154C23.7537 67.2039 23.8196 68.0274 23.8131 68.6209C23.7989 69.2154 23.7374 69.5787 23.6815 69.5773Z" fill="#292625"/>
<path d="M49.9346 62.3883C49.8339 62.3735 49.9791 61.0145 50.5454 59.4347C51.145 57.8675 51.9197 56.7422 52.006 56.7965C52.1243 56.866 51.535 58.06 50.9513 59.5855C50.4004 61.123 50.0695 62.413 49.9346 62.3883Z" fill="#292625"/>
<path d="M47.3047 64.3304C47.1872 64.3081 47.2408 63.5028 47.4243 62.5312C47.6081 61.5598 47.8522 60.7903 47.9696 60.8125C48.0871 60.8347 48.0336 61.6403 47.8497 62.6117C47.6662 63.5833 47.4221 64.3528 47.3047 64.3304Z" fill="#292625"/>
<path d="M45.6508 73.2308C45.5323 73.2129 45.6241 71.9629 45.855 70.4389C46.0863 68.915 46.3694 67.6941 46.4878 67.7122C46.606 67.7301 46.5143 68.9802 46.2833 70.5041C46.0521 72.0278 45.769 73.2487 45.6508 73.2308Z" fill="#292625"/>
<path d="M27.7516 74.4674C27.6417 74.5137 27.3011 73.9552 26.9909 73.2198C26.6811 72.4842 26.519 71.8504 26.6292 71.8038C26.7392 71.7572 27.0798 72.3157 27.3899 73.0513C27.6998 73.7869 27.8619 74.4208 27.7516 74.4674Z" fill="#292625"/>
<path d="M42.1095 64.5811C42.2289 64.5794 42.3464 65.8994 42.3714 67.5299C42.3967 69.1603 42.3204 70.4835 42.2008 70.4853C42.0812 70.4873 41.9639 69.1669 41.9386 67.5365C41.9133 65.9064 41.9899 64.5831 42.1095 64.5811Z" fill="#292625"/>
<path d="M52.7459 47.2827C52.7792 47.3212 52.4315 47.7068 51.7411 48.1777C51.3976 48.4148 50.9624 48.6585 50.4592 48.8889C49.9528 49.1109 49.3771 49.3148 48.7547 49.462C48.1312 49.603 47.5242 49.673 46.9721 49.6962C46.4191 49.7102 45.9208 49.6824 45.5084 49.6201C44.6813 49.5006 44.1996 49.3071 44.2129 49.2579C44.2285 49.1912 44.7295 49.2767 45.5364 49.315C45.9398 49.3372 46.4204 49.3321 46.9505 49.2974C47.4803 49.2536 48.0594 49.1748 48.6572 49.0398C49.2536 48.8983 49.8084 48.7148 50.3036 48.5212C50.7951 48.3196 51.2291 48.1129 51.5818 47.9159C52.2899 47.5267 52.7028 47.2298 52.7459 47.2827Z" fill="#292625"/>
<path d="M52.8518 49.8626C52.8901 49.9758 51.9738 50.3887 50.8049 50.7844C49.6361 51.1804 48.6572 51.4092 48.6189 51.296C48.5806 51.1825 49.4972 50.7699 50.666 50.3739C51.8349 49.9782 52.8134 49.7491 52.8518 49.8626Z" fill="#292625"/>
<path d="M23.5202 50.1889C23.519 50.3087 22.3569 50.3952 20.9244 50.382C19.492 50.3691 18.3317 50.2615 18.3327 50.142C18.3336 50.0222 19.4958 49.9357 20.9282 49.9486C22.361 49.9618 23.5212 50.0691 23.5202 50.1889Z" fill="#292625"/>
<path d="M28.9098 50.467C28.9383 50.5831 27.6497 50.9977 26.0318 51.3926C24.4139 51.7876 23.0793 52.0137 23.0508 51.8973C23.0226 51.7812 24.3112 51.3666 25.9291 50.9717C27.5471 50.5767 28.8816 50.3506 28.9098 50.467Z" fill="#292625"/>
<path d="M64.6432 43.1844C64.3351 41.8278 64.656 40.3415 65.4963 39.2331C66.3362 38.1248 67.6798 37.4149 69.0683 37.3464C69.4198 37.3291 69.7933 37.3571 70.0839 37.5554C70.2913 37.6969 70.4367 37.9115 70.5606 38.1301C71.3448 39.511 71.4413 41.2622 70.8137 42.7213C70.1864 44.1804 68.8494 45.3136 67.3081 45.693C69.8736 45.7063 72.3465 47.4244 73.2565 49.8253C73.5825 50.6859 73.7027 51.7093 73.2096 52.4862C72.6651 53.3441 71.5285 53.6411 70.5167 53.5515C68.5806 53.3804 66.8109 51.9683 66.2126 50.1171C67.1869 51.8499 67.1632 54.102 66.152 55.8133C65.1408 57.5249 63.1812 58.6312 61.1947 58.6117C60.2213 57.4674 59.7445 55.9141 59.9075 54.4205C60.0705 52.9266 60.8711 51.5131 62.0682 50.6061C60.1069 52.1587 57.0839 52.4486 55.1196 50.8995C54.5738 50.4693 54.104 49.8676 54.0657 49.1734C54.0249 48.4242 54.4914 47.7392 55.0293 47.2167C56.5627 45.7286 58.8726 45.0914 60.9509 45.5833C58.5733 44.4976 56.86 42.0771 56.6249 39.4722C56.5293 38.4136 56.7512 37.1885 57.6536 36.6282C58.341 36.2014 59.2312 36.2888 60.0025 36.533C62.772 37.4103 64.7742 40.2799 64.6432 43.1844Z" fill="#F2591D"/>
<path d="M61.329 58.3258C63.167 58.2919 64.9731 57.2495 65.9074 55.6681C66.6946 54.3357 66.8621 52.6463 66.3575 51.1433C66.1861 50.8429 66.0462 50.5272 65.9421 50.2048C65.897 50.0654 65.965 49.9146 66.0989 49.8559C66.2329 49.7969 66.3895 49.8496 66.4617 49.977C66.6263 50.2701 66.7666 50.5823 66.8791 50.9062C67.6561 52.2322 69.0576 53.1362 70.5425 53.2673C70.6771 53.2792 70.8138 53.2838 70.9489 53.2806C71.8647 53.2589 72.6013 52.9139 72.9696 52.3331C73.478 51.5325 73.201 50.4814 72.9906 49.9263C72.1283 47.6515 69.7383 45.9908 67.3072 45.9781C67.1634 45.9775 67.0426 45.8694 67.0256 45.7264C67.0085 45.5835 67.1009 45.4503 67.2407 45.4159C68.6923 45.0587 69.9617 43.983 70.5529 42.6085C71.1436 41.2337 71.0522 39.5718 70.3133 38.2709C70.2156 38.0981 70.0925 37.9058 69.9241 37.7911C69.7494 37.672 69.51 37.6201 69.17 37.6281L69.0829 37.6312C67.7727 37.6962 66.517 38.3592 65.7236 39.4055C65.2204 40.0697 64.9041 40.9043 64.8308 41.7595C64.9171 42.2391 64.9502 42.7227 64.9288 43.1973C64.9225 43.34 64.8115 43.4559 64.6696 43.4686C64.5239 43.4798 64.3978 43.3869 64.3661 43.2478C64.2588 42.7754 64.2221 42.2852 64.2567 41.7904C63.8141 39.4891 62.0744 37.4883 59.9171 36.8051C59.0571 36.5328 58.3172 36.5526 57.8043 36.8706C56.8136 37.4858 56.8691 38.9979 56.9094 39.4464C57.1368 41.9664 58.7702 44.2733 61.07 45.3235C61.2034 45.3845 61.2689 45.5369 61.2212 45.6757C61.1738 45.8145 61.0287 45.8942 60.8862 45.8607C60.4029 45.7464 59.899 45.6946 59.3883 45.7065C57.8304 45.743 56.3141 46.368 55.2285 47.4214C54.8076 47.8305 54.3133 48.4636 54.3512 49.1578C54.3897 49.8601 54.9599 50.41 55.2966 50.6754C56.1312 51.3335 57.1975 51.667 58.379 51.6391C59.616 51.6101 60.8325 51.1878 61.8048 50.4498C61.8319 50.4283 61.8643 50.4033 61.897 50.3787C62.0209 50.2839 62.1985 50.308 62.2942 50.4317C62.3899 50.5553 62.3683 50.733 62.2456 50.8301L62.1494 50.9046C61.0583 51.7697 60.3429 53.0639 60.1916 54.4514C60.0425 55.8174 60.4665 57.2554 61.329 58.3258ZM61.3777 58.8954C61.3158 58.8969 61.2544 58.8975 61.1924 58.8968C61.11 58.8961 61.0319 58.8595 60.9781 58.7966C59.96 57.5994 59.4542 55.952 59.6247 54.3892C59.7272 53.4512 60.0621 52.5515 60.5834 51.7738C59.8871 52.0422 59.143 52.192 58.3926 52.2096C57.0766 52.2406 55.884 51.865 54.9439 51.1237C54.2323 50.5626 53.8195 49.8756 53.7819 49.1889C53.7426 48.4697 54.1056 47.7167 54.8319 47.0119C56.0735 45.8066 57.84 45.114 59.6082 45.1346C57.7833 43.8365 56.5445 41.7456 56.3416 39.4978C56.2135 38.0806 56.6482 36.917 57.5038 36.3858C58.1619 35.9776 59.0633 35.9361 60.0894 36.2608C62.0781 36.8909 63.7408 38.5453 64.497 40.554C64.6721 40.0127 64.9341 39.5035 65.2695 39.0607C66.1636 37.8818 67.5782 37.1343 69.0548 37.0613L69.1567 37.0576C69.6215 37.0467 69.9674 37.1299 70.2451 37.3197C70.5117 37.5014 70.6865 37.7727 70.8091 37.9892C71.6339 39.442 71.7363 41.2985 71.0764 42.8338C70.5794 43.9897 69.6529 44.9564 68.5337 45.5338C70.755 45.982 72.7123 47.5831 73.5239 49.724C73.7718 50.3789 74.0924 51.6284 73.4511 52.6392C72.9787 53.3832 72.0716 53.8249 70.9622 53.8511C70.8062 53.8548 70.6481 53.8496 70.4925 53.8358C69.2503 53.7261 68.0611 53.1359 67.1764 52.2282C67.3199 53.5234 67.0522 54.8517 66.3981 55.9586C65.3719 57.6953 63.4016 58.8481 61.3777 58.8954Z" fill="#292625"/>
<path d="M58.8556 42.3306C58.9799 42.9092 59.421 43.3604 59.8561 43.7612C60.7531 44.5881 61.7098 45.3502 62.716 46.04C62.3655 46.3175 61.8628 46.2251 61.4219 46.1508C59.5689 45.8395 57.6213 46.1206 55.9316 46.9433C56.3055 47.1931 56.7891 47.1815 57.2382 47.1608C58.154 47.1187 59.0699 47.0763 59.9855 47.0342C58.6372 47.2239 57.3318 47.7119 56.1896 48.4536C57.5696 48.5762 58.9726 48.4336 60.3 48.036C59.0392 48.4817 57.8537 49.1401 56.8086 49.9748C56.8829 50.2254 57.2084 50.2801 57.4697 50.2802C59.242 50.28 61.0134 49.8874 62.6201 49.1383C62.4312 50.1128 61.9298 50.9922 61.5269 51.8989C61.1238 52.8059 60.8107 53.8133 61.0281 54.7817C61.3641 54.6616 61.5515 54.312 61.7079 53.991C62.2067 52.9679 62.7056 51.9449 63.2045 50.9219C62.9992 51.8698 62.7939 52.8178 62.5889 53.7658C62.4216 54.5381 62.2549 55.345 62.4544 56.1098C62.8706 55.9457 63.0804 55.4876 63.2276 55.0645C63.7047 53.6937 63.9532 52.2438 63.96 50.7922C64.5671 51.54 64.804 52.5396 64.7665 53.5022C64.7286 54.4648 64.4367 55.4 64.0808 56.2951C64.6334 55.4711 65.1997 54.6137 65.3645 53.635C65.7442 51.3814 63.9204 49.2827 63.9428 46.9971C64.1551 46.9205 64.3814 47.0564 64.558 47.197C65.3592 47.8357 65.9493 48.6958 66.6532 49.4405C67.357 50.1854 68.2529 50.8461 69.2761 50.8872C68.4246 50.1274 67.6362 49.2972 66.9211 48.4078C67.552 48.625 68.0613 49.0894 68.6239 49.4483C69.1865 49.8073 69.8943 50.0672 70.5134 49.8186C69.7094 48.9982 68.7996 48.2817 67.8137 47.6921C68.1703 47.7775 68.5267 47.8631 68.883 47.9485C69.1015 48.0008 69.4364 47.9613 69.4148 47.7373C69.4085 47.6738 69.3691 47.6187 69.3288 47.5691C68.7405 46.8454 67.7443 46.6059 66.8147 46.5331C65.8852 46.4606 64.9241 46.5054 64.0528 46.173C64.424 45.5992 65.1727 45.4399 65.8331 45.265C66.7112 45.0326 67.5602 44.6884 68.3526 44.2435C68.7702 44.0093 69.1807 43.7393 69.4725 43.3595C69.7643 42.9795 69.9225 42.4702 69.7851 42.0111C68.9259 42.5583 68.1231 43.1943 67.3938 43.9056C68.4339 42.9835 69.0884 41.6387 69.1726 40.2506C69.1884 39.9868 69.1671 39.6834 68.9596 39.5202C68.747 39.3531 68.4216 39.4176 68.2123 39.5889C68.0031 39.7603 67.8802 40.0123 67.7547 40.2521C67.3665 40.9944 66.8957 41.6935 66.354 42.3325C66.665 41.4293 66.7083 40.4358 66.4773 39.5087C65.671 40.1489 65.4365 41.2618 65.3245 42.286C65.2122 43.3102 65.1464 44.4042 64.5368 45.2346C64.258 44.1648 63.9792 43.095 63.7004 42.0252C63.5412 41.4147 63.362 40.7694 62.9012 40.3385C62.6779 40.7894 62.5821 41.3023 62.6276 41.8036C62.1203 40.6784 61.5861 39.5164 60.6554 38.7069C60.4019 38.4863 60.0512 38.2872 59.7457 38.427C60.3376 39.4897 60.8276 40.6096 61.2069 41.7657C60.7557 41.1225 60.2435 40.5226 59.6792 39.976C59.2994 39.6083 58.8265 39.2418 58.3019 39.3062C58.6932 40.9082 59.5571 42.3915 60.7566 43.5221C60.0398 43.2933 59.4383 42.8069 58.8556 42.3306Z" fill="#F7A80E"/>
<path d="M66.0929 45.5137C66.135 47.3104 65.0136 48.7942 63.5884 48.8276C62.1629 48.861 60.9734 47.4312 60.9313 45.6345C60.8892 43.8375 62.0106 42.3536 63.4361 42.3203C64.8613 42.2869 66.0509 43.7167 66.0929 45.5137Z" fill="#F2591D"/>
<path d="M63.4437 42.6055C62.1775 42.6352 61.1787 43.991 61.217 45.6278C61.2553 47.2647 62.3165 48.572 63.5827 48.5424C64.8486 48.5128 65.847 47.1572 65.8086 45.5204C65.7703 43.8836 64.7097 42.5759 63.4437 42.6055ZM63.596 49.1129C62.0156 49.1498 60.693 47.5925 60.6473 45.6412C60.6016 43.6899 61.85 42.072 63.4304 42.0351C65.0103 41.9981 66.333 43.5557 66.3786 45.507C66.4243 47.4583 65.1759 49.0759 63.596 49.1129Z" fill="#292625"/>
<path d="M63.4959 44.8665C63.5123 45.5695 63.172 46.1478 62.7359 46.158C62.2997 46.1682 61.9327 45.6065 61.9163 44.9035C61.8998 44.2005 62.2401 43.6222 62.6763 43.612C63.1125 43.6018 63.4794 44.1635 63.4959 44.8665Z" fill="#F8E298"/>
<path d="M64.5523 47.7713C65.077 47.0129 65.4667 46.1178 65.4205 45.1966C65.374 44.2752 64.8071 43.3429 63.9255 43.0741C64.797 44.0917 64.8845 45.5724 64.6651 46.8945C64.5856 47.3723 64.449 47.8827 64.0678 48.1813C64.2795 48.1347 64.4288 47.9495 64.5523 47.7713Z" fill="#D34B20"/>
</g>
<defs>
<clipPath id="clip0_5605_48581">
<rect y="0.294922" width="72" height="72" rx="36" fill="white"/>
</clipPath>
</defs>
</svg>
