<svg width="77" height="73" viewBox="0 0 77 73" fill="none" xmlns="http://www.w3.org/2000/svg">
<g clip-path="url(#clip0_5605_48586)">
<path d="M57.6659 26.4238C52.2917 29.2897 46.2408 30.1444 40.4624 28.8542C38.8135 28.4861 37.1724 27.946 35.501 27.9401C35.3862 27.9395 35.271 27.9427 35.1558 27.9482C35.0402 27.9481 34.9249 27.9503 34.8103 27.9562C33.141 28.0404 31.527 28.6566 29.8972 29.1015C24.1854 30.6606 18.1012 30.0898 12.5987 27.4785C10.2327 40.2621 9.81607 53.6412 11.378 66.6739C12.0795 72.5243 13.2845 78.5787 16.4248 83.0041C18.7731 86.3136 22.0487 88.4359 25.4589 89.4853C28.8693 90.5344 32.4222 90.5691 35.9074 90.1894C36.1388 90.1639 36.374 90.134 36.6103 90.0968C36.8479 90.1229 37.0842 90.1418 37.3165 90.1564C40.8157 90.3727 44.3633 90.1718 47.7206 88.9643C51.0783 87.7565 54.2507 85.4833 56.4416 82.0675C59.3714 77.5001 60.2922 71.396 60.7189 65.5192C61.6695 52.4276 60.6274 39.0827 57.6659 26.4238Z" fill="#F2591D"/>
<path d="M36.604 89.8048C36.6169 89.8045 36.6296 89.8053 36.6425 89.8067C36.8757 89.832 37.1073 89.8508 37.3355 89.8647C38.4326 89.9327 39.4421 89.9544 40.4223 89.9315C43.119 89.8684 45.4743 89.462 47.6228 88.6893C50.1285 87.7881 53.6502 85.8798 56.1969 81.91C59.2356 77.173 60.0546 70.6508 60.4288 65.4979C61.3614 52.65 60.3375 39.2975 57.468 26.8574C53.9943 28.6458 50.1604 29.636 46.3548 29.7251C44.3546 29.7719 42.3512 29.575 40.3996 29.1395C39.9966 29.0492 39.5942 28.9492 39.1918 28.849C37.9819 28.5478 36.7309 28.2364 35.5007 28.2319C35.3914 28.2314 35.2809 28.2346 35.1709 28.2399C35.0325 28.2407 34.9354 28.2424 34.8257 28.2477C33.5971 28.31 32.3617 28.6794 31.1669 29.0368C30.7699 29.1558 30.3729 29.2744 29.9749 29.3835C28.0466 29.9098 26.054 30.2002 24.0535 30.247C20.2483 30.3361 16.372 29.5265 12.8184 27.9023C10.534 40.4634 10.1359 53.8489 11.6685 66.6391C12.2834 71.7688 13.4066 78.2455 16.6635 82.8352C19.3932 86.6816 23 88.423 25.5454 89.206C27.7277 89.8774 30.0997 90.1731 32.7964 90.1099C33.7763 90.087 34.784 90.0181 35.8767 89.8988C36.1035 89.8743 36.3342 89.8447 36.566 89.8085C36.5785 89.8065 36.5911 89.8051 36.604 89.8048ZM40.436 90.5154C40.4357 90.5154 40.436 90.5154 40.436 90.5154C39.4393 90.5387 38.4133 90.5166 37.2997 90.4481C37.0748 90.4338 36.8473 90.4155 36.6178 90.3915C36.3899 90.4262 36.1632 90.4552 35.94 90.4799C34.8303 90.6004 33.8064 90.6705 32.81 90.6939C30.0497 90.7585 27.6171 90.4546 25.374 89.7645C21.5998 88.6031 18.4233 86.3237 16.1877 83.1731C12.8546 78.4764 11.7122 71.9069 11.0895 66.7084C9.53464 53.7346 9.9575 40.1506 12.3128 27.4253C12.3291 27.3359 12.3861 27.2595 12.4666 27.218C12.5478 27.1769 12.6427 27.1754 12.7244 27.2145C16.2894 28.9063 20.2022 29.7529 24.0399 29.6631C25.9934 29.6174 27.9384 29.3336 29.8211 28.8196C30.2148 28.7123 30.6071 28.5948 31 28.4774C32.2278 28.1098 33.4976 27.73 34.7966 27.6644C34.9173 27.6583 35.0372 27.6558 35.1572 27.6563C35.2488 27.6508 35.3824 27.6474 35.5024 27.6479C36.8037 27.6526 38.0893 27.9726 39.3329 28.2824C39.7306 28.3813 40.1285 28.4803 40.5268 28.5691C42.4318 28.9944 44.3882 29.1869 46.3409 29.1412C50.1791 29.0514 54.0481 28.0223 57.5295 26.1659C57.6095 26.1231 57.7044 26.12 57.7868 26.1574C57.8695 26.195 57.93 26.2686 57.9505 26.3572C60.899 38.9579 61.9569 52.5075 61.0104 65.5401C60.6316 70.762 59.7977 77.3777 56.6881 82.2253C54.6022 85.477 51.5356 87.9024 47.8202 89.2392C45.6118 90.0334 43.196 90.4508 40.436 90.5154Z" fill="#292625"/>
<path d="M56.2019 36.3725C54.6698 36.4083 53.1315 36.1671 51.6919 35.6459C51.5404 35.5909 51.4618 35.4235 51.5165 35.2719C51.5714 35.1203 51.7379 35.0416 51.8902 35.0966C54.6313 36.0891 57.7478 36.0167 60.4407 34.8998C62.3754 34.0974 63.8634 32.8246 64.6304 31.3164C65.5097 29.5862 65.3659 27.4538 64.2798 26.1302C64.1772 26.0056 64.1954 25.8213 64.3198 25.719C64.4451 25.6163 64.6284 25.6351 64.7307 25.7593C65.9788 27.2806 66.1475 29.6202 65.1503 31.5812C64.3206 33.2135 62.7273 34.5838 60.6642 35.4392C59.2529 36.0249 57.7303 36.3367 56.2019 36.3725Z" fill="#292625"/>
<path d="M13.1628 38.0036C12.71 38.0142 12.2563 37.9959 11.8056 37.9468C8.80886 37.6218 5.97547 35.9607 4.22638 33.5033C3.49335 32.4735 3.19828 31.562 3.32375 30.7173C3.41345 30.1153 3.80145 29.5423 4.33622 29.2223C4.77055 28.9626 5.24692 28.9042 5.67778 29.0595C5.82951 29.114 5.90811 29.2811 5.85373 29.433C5.79963 29.5849 5.63151 29.6636 5.48059 29.6088C5.21673 29.5147 4.91732 29.5552 4.63571 29.7237C4.25311 29.9525 3.96484 30.3764 3.90126 30.8035C3.79874 31.4913 4.06064 32.2637 4.70168 33.1644C6.35567 35.4882 9.03483 37.0589 11.8684 37.3661C14.7033 37.6724 17.6552 36.714 19.7676 34.7986C19.887 34.6911 20.0712 34.6995 20.1799 34.8189C20.2882 34.9384 20.279 35.1233 20.1597 35.2316C18.2612 36.9524 15.7217 37.9437 13.1628 38.0036Z" fill="#292625"/>
<path d="M10.5083 40.9979C9.05339 41.0319 7.70957 40.4998 6.88993 39.5349C6.78547 39.412 6.80009 39.2275 6.92285 39.1233C7.04614 39.0181 7.22992 39.0339 7.3341 39.1562C8.15742 40.1257 9.61541 40.5854 11.1372 40.3585C12.6117 40.138 13.9559 39.3604 15.0763 38.6293C15.2109 38.541 15.3922 38.5788 15.4799 38.7141C15.5682 38.8492 15.5299 39.0304 15.3949 39.1182C14.2218 39.8843 12.8088 40.6989 11.2238 40.9361C10.9835 40.9719 10.7446 40.9924 10.5083 40.9979Z" fill="#292625"/>
<path d="M9.28938 44.7627C8.30533 44.7858 7.39046 44.5494 6.64598 44.0626C6.5113 43.9745 6.47329 43.7935 6.56156 43.6584C6.6501 43.523 6.8307 43.4855 6.96538 43.5736C7.99454 44.2465 9.48124 44.3614 10.9425 43.8804C12.3029 43.4328 13.5037 42.5811 14.6645 41.7572C14.7963 41.6643 14.9779 41.6955 15.0713 41.8266C15.1645 41.9585 15.1333 42.1406 15.0021 42.2341C13.8056 43.0827 12.5687 43.9602 11.1251 44.4356C10.5026 44.6404 9.88348 44.7488 9.28938 44.7627Z" fill="#292625"/>
<path d="M59.3304 39.3812C59.2819 39.3823 59.2333 39.3832 59.1844 39.3835C56.7826 39.3977 54.3588 38.3672 52.7012 36.6269C52.59 36.5103 52.5944 36.3252 52.7113 36.2142C52.8273 36.1027 53.0122 36.1066 53.1234 36.2241C54.6723 37.8499 56.9367 38.8128 59.1809 38.7996C59.2265 38.7991 59.272 38.7983 59.3173 38.7972C61.5162 38.7458 63.7089 37.7637 65.2074 36.1526C65.317 36.0346 65.5016 36.0278 65.6197 36.138C65.7376 36.2479 65.7444 36.4327 65.6346 36.5507C64.0309 38.2747 61.6838 39.3261 59.3304 39.3812Z" fill="#292625"/>
<path d="M60.6579 42.2327C60.3863 42.2391 60.1143 42.2339 59.8424 42.2166C57.8123 42.0888 55.834 41.3 54.2725 39.9955C54.1487 39.892 54.1321 39.7083 54.2354 39.5841C54.3388 39.46 54.5229 39.4438 54.6464 39.5473C56.1132 40.7727 57.9718 41.5138 59.8793 41.634C61.7856 41.7529 63.723 41.2519 65.3319 40.22C65.4678 40.1336 65.648 40.1722 65.7349 40.3081C65.8218 40.4441 65.7824 40.625 65.6468 40.7117C64.1637 41.6632 62.4183 42.1915 60.6579 42.2327Z" fill="#292625"/>
<path d="M51.8348 34.6892C55.6581 34.9836 59.5369 32.5661 60.9592 29.0018C60.2954 29.147 59.6318 29.292 58.9681 29.4372C59.3698 29.0626 59.7892 28.6593 59.9327 28.1288C60.0763 27.5984 59.8086 26.9176 59.2672 26.8267C58.9188 26.7684 58.5831 26.9603 58.2801 27.1416C53.6166 29.9323 48.4881 31.942 43.1713 33.0626L51.8348 34.6892Z" fill="#F2591D"/>
<path d="M52.6856 35.0041C52.395 35.0109 52.1032 35.0034 51.8116 34.9808C51.651 34.9687 51.5307 34.828 51.5429 34.6673C51.5554 34.5067 51.6942 34.3864 51.8565 34.3986C55.3362 34.665 58.9343 32.5497 60.4591 29.4104L59.0299 29.723C58.8995 29.7505 58.7699 29.6896 58.709 29.5731C58.648 29.4566 58.6721 29.3137 58.7686 29.2241C59.1969 28.8244 59.5335 28.4842 59.65 28.0528C59.7119 27.8235 59.6703 27.5478 59.5435 27.3502C59.4845 27.2578 59.3802 27.1424 59.2181 27.1151C58.9838 27.0764 58.7219 27.2174 58.4287 27.3925C53.7159 30.2126 48.6026 32.2166 43.2301 33.3484C43.0722 33.3818 42.9177 33.2807 42.8847 33.1229C42.8516 32.9652 42.9526 32.8103 43.1102 32.7769C48.4191 31.6584 53.4725 29.678 58.1292 26.8913C58.433 26.71 58.8473 26.4618 59.3148 26.5391C59.6056 26.5878 59.8612 26.764 60.035 27.0347C60.2496 27.3702 60.318 27.8184 60.2134 28.2056C60.1379 28.4852 59.9989 28.7308 59.8332 28.9493L60.8961 28.717C61.0013 28.6939 61.1109 28.7309 61.1809 28.8136C61.2507 28.8958 61.2693 29.0103 61.2291 29.1107C59.8581 32.5463 56.3564 34.9182 52.6856 35.0041Z" fill="#292625"/>
<path d="M18.6448 35.6869C14.8395 36.1598 10.8521 33.9264 9.26467 30.4325C9.93426 30.5466 10.6038 30.6603 11.2737 30.7743C10.8549 30.4189 10.4171 30.0357 10.2489 29.5125C10.0809 28.9894 10.3162 28.2968 10.8528 28.1807C11.1981 28.1061 11.5424 28.2822 11.8535 28.4491C16.6425 31.0183 21.8596 32.7861 27.223 33.6564L18.6448 35.6869Z" fill="#F2591D"/>
<path d="M17.8083 36.0408C14.1375 36.1267 10.5294 33.9212 8.999 30.5532C8.95442 30.4551 8.96738 30.3399 9.03319 30.2543C9.09901 30.1686 9.20731 30.1268 9.31343 30.1444L10.3855 30.327C10.21 30.1165 10.06 29.8779 9.97121 29.6016C9.84862 29.2203 9.89599 28.7691 10.0947 28.4242C10.2553 28.1454 10.5024 27.9577 10.7912 27.8951C11.2532 27.7961 11.6794 28.0244 11.9914 28.1913C16.7737 30.7574 21.9139 32.4989 27.2695 33.3681C27.4286 33.394 27.5367 33.5438 27.5108 33.7029C27.4854 33.8624 27.3348 33.9728 27.1762 33.9446C21.7566 33.0651 16.555 31.3025 11.7157 28.7062C11.4151 28.545 11.1474 28.415 10.9144 28.466C10.7538 28.5009 10.6547 28.6213 10.6001 28.7161C10.483 28.9197 10.454 29.1971 10.5269 29.4229C10.6637 29.8492 11.0161 30.1727 11.4624 30.5514C11.5626 30.6367 11.5937 30.7783 11.5383 30.8978C11.4828 31.0167 11.3565 31.0837 11.2245 31.0623L9.7822 30.8169C11.4524 33.8814 15.1442 35.8283 18.609 35.3971C18.771 35.3763 18.9146 35.4911 18.9345 35.6509C18.9542 35.8109 18.8409 35.9567 18.681 35.9767C18.3906 36.0126 18.0992 36.034 17.8083 36.0408Z" fill="#292625"/>
<path d="M60.3708 60.6955C60.0064 59.7793 59.1679 59.1683 58.2236 59.1417C58.2245 59.1571 58.9842 58.8884 59.0715 58.8388C59.3918 58.6574 59.6668 58.3965 59.8772 58.0843C60.258 57.5195 60.3919 56.8095 60.2941 56.1278C60.1055 54.8132 58.9764 53.8121 57.7066 53.9094C57.7059 53.9028 57.7049 53.8965 57.7039 53.89C59.0369 53.5697 59.7716 52.1268 59.4109 50.7593C59.2485 50.1428 58.91 49.6047 58.4022 49.2448C58.1121 49.0391 57.7782 48.9095 57.4317 48.8632C57.3229 48.8488 56.412 48.9105 56.4234 48.9407C57.6447 48.3103 58.0631 46.722 57.4063 45.4779C56.7524 44.2396 55.3135 43.7028 54.1172 44.4422C54.1246 44.4536 54.6278 43.8034 54.6762 43.7122C54.8366 43.4105 54.9276 43.0773 54.9542 42.7331C55.0077 42.0388 54.7603 41.3337 54.3188 40.8183C53.4192 39.7676 51.9067 39.584 50.8984 40.5774C50.9018 40.5806 51.2414 39.8895 51.2705 39.7945C51.3766 39.4486 51.4019 39.0844 51.3545 38.7244C51.2643 38.0387 50.8858 37.4218 50.3603 37.0134C49.2773 36.1615 47.7325 36.3469 46.9537 37.5391C46.9632 37.5449 47.1532 36.7353 47.1601 36.6304C47.1843 36.2567 47.1212 35.8825 46.9843 35.537C46.7433 34.9295 46.2672 34.4488 45.6997 34.1815C44.4686 33.5939 42.9997 34.1251 42.4822 35.4634C42.4853 35.4645 42.5171 34.6896 42.5054 34.5901C42.4633 34.2316 42.3422 33.8926 42.1577 33.5883C41.8233 33.0361 41.2775 32.6526 40.6789 32.4946C39.3282 32.1382 37.9322 32.9793 37.6955 34.4564C37.7049 34.4573 37.5531 33.6392 37.517 33.5406C37.4 33.2193 37.2173 32.9326 36.9827 32.6935C36.5085 32.2105 35.8427 31.9419 35.1825 31.9725C34.5119 32.0038 33.8838 32.2642 33.4215 32.7853C33.1992 33.0357 33.0322 33.335 32.9319 33.6613C32.901 33.7618 32.7916 34.5858 32.8009 34.5845C32.4972 33.1637 31.1583 32.4212 29.852 32.7403C29.2462 32.8883 28.6986 33.2941 28.3625 33.843C28.1768 34.1466 28.0555 34.4864 28.015 34.846C28.0028 34.9562 28.0574 35.8458 28.0726 35.84C27.485 34.5267 26.0246 34.1011 24.8165 34.7123C24.2255 35.0113 23.7616 35.566 23.5573 36.2213C23.4605 36.5327 23.4237 36.8598 23.4544 37.1866C23.4649 37.2968 23.6994 38.1551 23.714 38.1454C22.8727 36.9925 21.3581 36.9075 20.3047 37.7775C19.7883 38.2037 19.4484 38.8503 19.3827 39.5375C19.3514 39.8644 19.3824 40.1927 19.4798 40.5056C19.5124 40.6109 19.9191 41.3978 19.9314 41.3846C18.8724 40.4445 17.3753 40.709 16.5259 41.8017C15.6732 42.8984 15.8386 44.5464 16.9271 45.3942C16.9302 45.3884 16.2217 45.1596 16.1283 45.1464C15.7804 45.0968 15.4213 45.1316 15.0903 45.255C14.4555 45.4917 13.9784 45.9876 13.6832 46.6169C13.0856 47.8914 13.6009 49.4609 14.8472 50.0248C14.8569 49.9943 13.9425 49.9794 13.8345 49.9995C13.4906 50.0637 13.1638 50.2101 12.885 50.4312C12.3966 50.8183 12.0889 51.3735 11.9555 51.9966C11.8015 52.7152 11.937 53.4931 12.3567 54.0886C12.5397 54.3504 12.773 54.5711 13.0393 54.7347C13.1212 54.785 13.8208 55.0651 13.8217 55.0566C12.626 55.0233 11.5801 55.9582 11.3739 57.1908C11.1231 58.6889 12.091 60.1678 13.5638 60.2867C13.5637 60.271 12.7942 60.5004 12.7052 60.545C12.4092 60.6935 12.1423 60.9075 11.9285 61.1694C11.5004 61.6936 11.312 62.393 11.362 63.0769C11.4102 63.7378 11.6667 64.354 12.1251 64.8159C12.3624 65.0552 12.6519 65.2345 12.9628 65.3448C13.0636 65.3807 13.9747 65.5157 13.9684 65.4785C12.5996 65.8175 11.9206 67.2602 12.272 68.6515C12.4333 69.2908 12.8553 69.8652 13.397 70.1941C13.7061 70.3817 14.0467 70.4927 14.4037 70.5066C14.5024 70.5103 15.3927 70.3785 15.375 70.3388C14.0773 71.0471 13.8246 72.6966 14.6048 73.9373C14.9501 74.4854 15.5195 74.9029 16.1364 75.0204C16.4721 75.0843 16.8172 75.0729 17.1449 74.9721C17.2424 74.9418 18.0947 74.4838 18.0533 74.4391C17.0767 75.5434 17.3359 77.235 18.4867 78.0842C19.6249 78.9237 21.1786 78.6722 21.8892 77.37C21.8711 77.3606 21.7129 78.1563 21.7085 78.2503C21.6912 78.6239 21.7566 79.0047 21.9098 79.3432C22.1941 79.9714 22.7111 80.4525 23.3349 80.6757C24.6159 81.1629 26.0414 80.5051 26.4562 79.1148C26.4482 79.1128 26.4695 79.8974 26.4874 79.994C26.5535 80.3527 26.6976 80.6893 26.9 80.9857C27.2599 81.5137 27.8223 81.8455 28.419 81.978C29.7645 82.2765 31.1138 81.3628 31.3389 79.9211C31.3378 79.9212 31.4701 80.6798 31.5025 80.775C31.6192 81.1157 31.8066 81.4252 32.0447 81.6862C32.4919 82.1761 33.1219 82.4318 33.7598 82.457C35.0745 82.5197 36.2521 81.4737 36.3158 80.069C36.3205 80.0689 36.5099 80.7595 36.549 80.8468C36.6872 81.1532 36.8863 81.4278 37.1299 81.6502C37.6517 82.1263 38.341 82.3451 39.0238 82.2728C39.6316 82.2086 40.222 81.9427 40.6394 81.4655C40.868 81.2043 41.0458 80.8918 41.1543 80.5551C41.1884 80.4494 41.3112 79.5753 41.2978 79.5776C41.601 80.9305 42.9203 81.7878 44.2079 81.4768C44.8036 81.3332 45.3663 80.9955 45.7262 80.4663C45.9271 80.1711 46.0668 79.8284 46.1301 79.4711C46.149 79.3632 46.1525 78.4664 46.1331 78.4726C46.6267 79.8302 48.0779 80.4099 49.3289 79.8609C49.9126 79.6274 50.3905 79.1416 50.6497 78.545C50.7954 78.2094 50.8635 77.8467 50.8471 77.4774C50.8425 77.3731 50.6501 76.4853 50.6238 76.5008C51.3851 77.7534 52.9503 77.9569 54.0462 77.0714C55.1559 76.1746 55.3653 74.4967 54.3525 73.4189C54.3322 73.4425 55.0309 73.8389 55.1137 73.8694C55.4516 73.9929 55.8131 74.0146 56.1649 73.9575C56.835 73.8481 57.4157 73.391 57.7805 72.8001C58.5363 71.5433 58.1886 69.8842 56.8799 69.2311C56.8705 69.2547 57.639 69.3705 57.7277 69.3687C58.0899 69.3633 58.4414 69.258 58.7552 69.0688C59.3338 68.7202 59.7634 68.1067 59.9098 67.4187C60.2089 66.0127 59.4517 64.5978 58.0722 64.324C58.0658 64.3783 59.0672 64.1479 59.1729 64.0982C59.5686 63.9128 59.8998 63.6123 60.1408 63.2343C60.6099 62.4987 60.6942 61.5143 60.3708 60.6955C60.5001 61.0231 60.2404 60.368 60.3708 60.6955Z" fill="#F7A80E"/>
<path d="M56.2963 56.035C55.9911 55.2675 55.2886 54.7555 54.4976 54.7333C54.4982 54.7462 55.1348 54.5211 55.2077 54.4798C55.476 54.3276 55.7064 54.109 55.8829 53.8476C56.2019 53.3743 56.314 52.7795 56.232 52.2085C56.0741 51.1071 55.1281 50.2683 54.0644 50.3498C54.0638 50.3443 54.0628 50.3391 54.0619 50.3337C55.1785 50.0654 55.7944 48.8567 55.4922 47.7107C55.356 47.1945 55.0725 46.7436 54.647 46.4419C54.4039 46.2698 54.1243 46.1612 53.834 46.1224C53.7431 46.1102 52.9796 46.1619 52.9893 46.1875C54.0123 45.6593 54.3631 44.3284 53.8129 43.2863C53.265 42.2488 52.0593 41.7991 51.0574 42.4187C51.0637 42.4281 51.485 41.8835 51.5255 41.807C51.6599 41.5543 51.7363 41.2752 51.7584 40.9867C51.8032 40.4053 51.5961 39.8146 51.2263 39.3828C50.4724 38.5023 49.2052 38.3487 48.3606 39.1808C48.3635 39.1837 48.6481 38.6047 48.6726 38.5252C48.7613 38.2351 48.7825 37.9302 48.7427 37.6285C48.6672 37.054 48.3501 36.5374 47.9099 36.1951C47.0026 35.4815 45.7083 35.6368 45.056 36.6356C45.0641 36.6404 45.2231 35.962 45.2287 35.8742C45.2491 35.5613 45.1962 35.2476 45.0816 34.9582C44.8796 34.4493 44.4809 34.0464 44.0056 33.8226C42.9741 33.3304 41.7435 33.7755 41.3101 34.8967C41.3126 34.8974 41.3391 34.2483 41.3292 34.165C41.2942 33.8646 41.1925 33.5806 41.038 33.3257C40.7581 32.8631 40.3009 32.5418 39.7991 32.4093C38.6675 32.111 37.4982 32.8155 37.2998 34.0532C37.3078 34.0538 37.1806 33.3684 37.1503 33.2856C37.0521 33.0166 36.8993 32.7764 36.7027 32.576C36.3055 32.1712 35.7476 31.9463 35.1944 31.9721C34.6329 31.9982 34.1065 32.2166 33.7194 32.653C33.5332 32.8626 33.3933 33.1135 33.3091 33.387C33.2833 33.4711 33.1913 34.1614 33.1993 34.1604C32.9449 32.9698 31.8233 32.3481 30.7291 32.6153C30.2213 32.7393 29.7628 33.0792 29.4811 33.5392C29.3254 33.7935 29.2238 34.0781 29.19 34.3793C29.1795 34.4718 29.2252 35.2169 29.238 35.2119C28.7461 34.1118 27.5225 33.7552 26.5104 34.2672C26.0152 34.5179 25.6265 34.9826 25.4554 35.5315C25.3742 35.7926 25.3436 36.0662 25.3692 36.3401C25.378 36.4325 25.5746 37.1518 25.5868 37.1435C24.8819 36.1776 23.6131 36.1064 22.7304 36.8352C22.2981 37.1924 22.0132 37.7342 21.958 38.3098C21.9317 38.5836 21.9579 38.8586 22.0393 39.1208C22.0669 39.2089 22.4074 39.8682 22.4179 39.8569C21.5307 39.0695 20.2765 39.2912 19.5648 40.2065C18.8505 41.1254 18.989 42.5061 19.9007 43.2163C19.9037 43.2115 19.31 43.0196 19.2317 43.0085C18.9403 42.9669 18.6395 42.9962 18.3621 43.0995C17.8303 43.298 17.4306 43.7135 17.1835 44.2406C16.6827 45.3081 17.1143 46.6231 18.1583 47.0955C18.1665 47.0701 17.4004 47.0575 17.3102 47.0744C17.0221 47.1282 16.7482 47.2508 16.5145 47.436C16.1055 47.7602 15.8476 48.2255 15.736 48.7475C15.6068 49.3496 15.7203 50.001 16.0722 50.5C16.2253 50.7193 16.4207 50.9044 16.6439 51.0415C16.7124 51.0833 17.2986 51.318 17.2993 51.3108C16.2975 51.2829 15.4213 52.0663 15.2487 53.0989C15.0386 54.3539 15.8493 55.593 17.0833 55.6925C17.0833 55.6793 16.4387 55.8716 16.3641 55.9088C16.116 56.0333 15.8926 56.2128 15.7133 56.4322C15.3548 56.8712 15.1969 57.4572 15.2386 58.03C15.2793 58.5839 15.494 59.1002 15.8778 59.4869C16.0769 59.6875 16.3193 59.8377 16.5798 59.93C16.6643 59.9601 17.4275 60.0734 17.4223 60.0421C16.2755 60.3259 15.7066 61.5347 16.0011 62.7004C16.1363 63.2358 16.4897 63.717 16.9437 63.9924C17.2024 64.1496 17.488 64.2427 17.787 64.2544C17.8697 64.2574 18.6153 64.147 18.6008 64.1139C17.5134 64.7071 17.3019 66.0891 17.9553 67.1285C18.2447 67.5878 18.7218 67.9374 19.2384 68.0358C19.5197 68.0894 19.8089 68.0799 20.0834 67.9952C20.1652 67.9702 20.8791 67.5863 20.8442 67.5489C20.0262 68.4741 20.2433 69.8912 21.2075 70.6026C22.161 71.3058 23.4628 71.095 24.0577 70.0044C24.0427 69.9963 23.9101 70.663 23.9064 70.7417C23.8921 71.0548 23.9467 71.3736 24.075 71.6572C24.3133 72.1837 24.7467 72.5866 25.2691 72.7736C26.3421 73.1816 27.5364 72.6307 27.884 71.4662C27.8771 71.4644 27.8952 72.1216 27.9103 72.2026C27.9656 72.503 28.0861 72.7849 28.2556 73.0335C28.5575 73.4757 29.0283 73.7535 29.5284 73.8644C30.6556 74.1147 31.7859 73.3493 31.9746 72.1415C31.9737 72.1415 32.0844 72.7771 32.1116 72.8567C32.2094 73.1424 32.3662 73.4014 32.5657 73.6202C32.9402 74.0308 33.4683 74.2448 34.0028 74.2659C35.1042 74.3184 36.0908 73.442 36.144 72.2654C36.1478 72.2653 36.3066 72.844 36.3393 72.9168C36.4552 73.1738 36.622 73.4038 36.826 73.59C37.2631 73.9887 37.8406 74.1722 38.4125 74.1115C38.9219 74.0576 39.4162 73.835 39.7662 73.4352C39.9577 73.2163 40.1067 72.9545 40.1975 72.6726C40.2259 72.584 40.3288 71.852 40.3178 71.8537C40.5717 72.9871 41.6769 73.7051 42.7556 73.4449C43.2547 73.3244 43.7261 73.0416 44.0276 72.5981C44.1959 72.351 44.313 72.0638 44.3659 71.7644C44.3819 71.6742 44.3846 70.9228 44.3685 70.9278C44.782 72.0652 45.9979 72.5509 47.0458 72.0911C47.5349 71.8952 47.935 71.4885 48.1523 70.9885C48.2745 70.7075 48.3314 70.4036 48.3175 70.0943C48.3138 70.0067 48.1526 69.263 48.1306 69.2761C48.7686 70.3255 50.0795 70.496 50.9978 69.754C51.9272 69.0029 52.103 67.597 51.2543 66.6943C51.2372 66.714 51.8227 67.046 51.8922 67.0715C52.1752 67.1748 52.4779 67.1933 52.7728 67.1452C53.3341 67.0537 53.8207 66.6708 54.1262 66.1759C54.7594 65.1228 54.4683 63.7331 53.3717 63.1858C53.364 63.2055 54.0079 63.3025 54.0817 63.3011C54.3856 63.2964 54.6798 63.2085 54.9426 63.0498C55.4275 62.7576 55.7873 62.2438 55.91 61.6674C56.1605 60.4895 55.5263 59.3043 54.3708 59.0746C54.3652 59.1201 55.2042 58.9274 55.2927 58.8857C55.6243 58.7304 55.9018 58.4785 56.1036 58.1618C56.4966 57.5456 56.5671 56.7209 56.2963 56.035C56.4045 56.3095 56.1871 55.7606 56.2963 56.035Z" fill="#F3D055"/>
<path d="M52.2195 51.3745C51.9733 50.7556 51.4068 50.3429 50.7692 50.3249C50.7697 50.3353 51.283 50.1537 51.3418 50.1205C51.5583 49.9978 51.7439 49.8214 51.8861 49.6106C52.1432 49.2289 52.2336 48.7495 52.1676 48.2891C52.0403 47.4009 51.2777 46.7246 50.4198 46.7902C50.4195 46.7859 50.4188 46.7818 50.4179 46.7774C51.3183 46.5609 51.8147 45.5864 51.5712 44.6624C51.4616 44.2462 51.2328 43.8825 50.8897 43.6393C50.6937 43.5004 50.4682 43.4128 50.2341 43.3815C50.1608 43.3717 49.5454 43.4135 49.553 43.434C50.378 43.0082 50.6607 41.9351 50.2171 41.0949C49.7752 40.2583 48.8033 39.8958 47.9951 40.3951C48.0002 40.4027 48.34 39.9635 48.3726 39.902C48.481 39.6983 48.5424 39.4732 48.5603 39.2406C48.5966 38.7717 48.4295 38.2953 48.1314 37.9472C47.5237 37.2373 46.5018 37.1134 45.8207 37.7845C45.823 37.7866 46.0525 37.3196 46.0722 37.2556C46.1439 37.0217 46.1609 36.7759 46.1289 36.5327C46.0678 36.0694 45.8123 35.6527 45.4574 35.3769C44.7257 34.8012 43.6822 34.9265 43.1561 35.7319C43.1625 35.7359 43.2908 35.189 43.2955 35.118C43.3118 34.8657 43.2694 34.613 43.1766 34.3794C43.0138 33.9691 42.6924 33.6443 42.309 33.464C41.4774 33.0668 40.485 33.4259 40.1355 34.3299C40.1377 34.3307 40.1589 33.8072 40.151 33.7398C40.1226 33.4976 40.0409 33.2686 39.9164 33.0632C39.6905 32.6901 39.3217 32.4311 38.9172 32.3243C38.0047 32.0835 37.0617 32.6519 36.9019 33.6496C36.9083 33.6503 36.8058 33.0976 36.7815 33.0308C36.7023 32.8139 36.5788 32.6203 36.4205 32.4589C36.1001 32.1322 35.6503 31.9509 35.2043 31.9715C34.7515 31.9928 34.327 32.1688 34.0148 32.5207C33.8648 32.6899 33.752 32.892 33.6841 33.1126C33.6632 33.1805 33.5892 33.737 33.5955 33.7361C33.3904 32.7763 32.4861 32.2748 31.6037 32.4903C31.1942 32.5903 30.8245 32.8644 30.5973 33.2352C30.472 33.4401 30.39 33.6698 30.3628 33.9128C30.3544 33.9872 30.3912 34.5882 30.4016 34.5841C30.0046 33.697 29.018 33.4095 28.202 33.8224C27.8029 34.0244 27.4893 34.3992 27.3514 34.8418C27.2858 35.0522 27.261 35.2729 27.2818 35.4939C27.2888 35.5682 27.4473 36.1482 27.4573 36.1414C26.8889 35.3627 25.8659 35.3053 25.154 35.893C24.8054 36.1809 24.5757 36.6177 24.5314 37.0821C24.5102 37.3027 24.5313 37.5245 24.5969 37.736C24.6189 37.8069 24.8935 38.3385 24.9021 38.3295C24.1866 37.6947 23.1754 37.8734 22.6016 38.6115C22.0256 39.3524 22.1373 40.4655 22.8725 41.0383C22.8746 41.0344 22.396 40.8796 22.3329 40.8706C22.0979 40.8374 21.8552 40.8607 21.6317 40.9442C21.2031 41.104 20.8806 41.4391 20.6813 41.8642C20.2775 42.725 20.6255 43.7853 21.4675 44.1663C21.4741 44.1458 20.8564 44.1355 20.7834 44.1491C20.551 44.1924 20.3304 44.2916 20.142 44.4408C19.812 44.7022 19.6042 45.0775 19.5141 45.4981C19.4101 45.9837 19.5015 46.5092 19.7852 46.9114C19.9088 47.0883 20.0663 47.2374 20.2463 47.348C20.3014 47.3819 20.7743 47.5712 20.7747 47.5654C19.9669 47.5428 19.2607 48.1744 19.1212 49.007C18.9519 50.0189 19.6057 51.0182 20.6006 51.0985C20.6004 51.0878 20.0807 51.2426 20.0207 51.2729C19.8207 51.3732 19.6404 51.5178 19.496 51.6946C19.2067 52.0487 19.0796 52.5214 19.1132 52.9831C19.1459 53.4297 19.319 53.8461 19.6286 54.1579C19.7889 54.3196 19.9845 54.4406 20.1946 54.5154C20.2627 54.5393 20.8782 54.6307 20.8738 54.6055C19.9492 54.8344 19.4904 55.8089 19.728 56.7489C19.8369 57.1808 20.1219 57.5688 20.4879 57.7908C20.6968 57.9175 20.9267 57.9927 21.168 58.0021C21.2345 58.0047 21.8359 57.9156 21.824 57.8887C20.9473 58.3673 20.7768 59.4815 21.3038 60.3197C21.5371 60.6899 21.9217 60.9719 22.3385 61.0512C22.5652 61.0943 22.7984 61.0869 23.0197 61.0185C23.0857 60.9983 23.6613 60.6888 23.6332 60.6587C22.9735 61.4046 23.1486 62.5473 23.9261 63.121C24.695 63.6881 25.7445 63.5181 26.2244 62.6385C26.2125 62.6319 26.1053 63.1695 26.1024 63.2333C26.0908 63.4856 26.135 63.7426 26.2383 63.9713C26.4306 64.3957 26.7797 64.7206 27.2012 64.8715C28.0663 65.2006 29.0292 64.7562 29.3096 63.8172C29.304 63.8157 29.3186 64.3457 29.3306 64.4111C29.3752 64.6533 29.4728 64.8808 29.6093 65.0809C29.8527 65.4377 30.2324 65.6616 30.6354 65.7511C31.5445 65.9529 32.4559 65.3355 32.608 64.3619C32.6072 64.3617 32.6966 64.8743 32.7184 64.9386C32.7971 65.1687 32.9239 65.3776 33.0848 65.5541C33.3866 65.8851 33.8124 66.0579 34.2433 66.0747C35.1314 66.1171 35.927 65.4107 35.9699 64.4616C35.9732 64.4615 36.1011 64.9282 36.1274 64.9869C36.221 65.1941 36.3555 65.3795 36.5199 65.5298C36.8722 65.8513 37.3381 65.9993 37.7993 65.9503C38.2099 65.9069 38.6084 65.7274 38.8908 65.4051C39.0451 65.2286 39.1651 65.0175 39.2383 64.7902C39.2614 64.7187 39.3445 64.1284 39.3354 64.1297C39.5402 65.0436 40.4316 65.6227 41.3014 65.4127C41.7038 65.3156 42.0837 65.0874 42.3269 64.7302C42.4625 64.5309 42.557 64.2992 42.5997 64.0577C42.6125 63.9849 42.6148 63.3792 42.6017 63.3833C42.9351 64.3002 43.9154 64.692 44.7606 64.321C45.1548 64.1634 45.4777 63.8351 45.6527 63.4323C45.7512 63.2054 45.7971 62.9606 45.786 62.7111C45.783 62.6405 45.6531 62.0406 45.6352 62.0515C46.1495 62.8974 47.2068 63.0351 47.947 62.4368C48.6967 61.8309 48.8382 60.6973 48.1542 59.9694C48.1403 59.9854 48.6123 60.253 48.6685 60.2737C48.8967 60.3571 49.1408 60.372 49.3785 60.3332C49.8312 60.2594 50.2232 59.9504 50.4697 59.5514C50.9803 58.7024 50.7454 57.5817 49.8614 57.1404C49.8549 57.1563 50.3743 57.2345 50.4339 57.2334C50.6787 57.2296 50.9162 57.1586 51.1282 57.0308C51.5189 56.7952 51.8093 56.3809 51.9082 55.9161C52.1103 54.9663 51.5987 54.0107 50.6669 53.8256C50.6625 53.8622 51.3389 53.7065 51.4104 53.6732C51.6776 53.548 51.9013 53.3449 52.0642 53.0896C52.3809 52.5925 52.4378 51.9275 52.2195 51.3745C52.3068 51.5959 52.1314 51.1534 52.2195 51.3745Z" fill="#F8E298"/>
<path d="M33.6406 54.1336C37.5123 53.7047 41.2174 56.2092 45.1071 55.9948C47.5051 55.8628 49.8208 54.6332 51.2746 52.7201C50.7939 52.6047 50.3094 52.8455 49.8563 53.0432C47.578 54.0383 44.9403 54.0547 42.5566 53.3495C40.1725 52.6444 38.0294 51.2551 36.2038 49.5665C35.6678 49.0707 35.0724 48.513 34.3427 48.526C33.491 48.541 32.8814 49.3123 32.3277 49.9601C29.168 53.6563 23.6871 55.1649 19.0832 53.6059C18.5527 53.4263 17.8847 53.2394 17.4991 53.646C17.2114 53.9498 17.2599 54.4637 17.5032 54.8043C17.7464 55.1448 18.135 55.3476 18.5184 55.5153C21.73 56.9225 25.4721 56.6799 28.8 55.5767C30.4021 55.0457 31.9632 54.3194 33.6406 54.1336Z" fill="#F7A80E"/>
<path d="M56.887 42.3633C57.0246 48.2437 52.3735 53.1221 46.4983 53.2596C40.6231 53.3971 35.7485 48.7416 35.6109 42.8612C35.4733 36.9808 40.1247 32.1022 45.9999 31.9646C51.8751 31.8271 56.7494 36.4829 56.887 42.3633Z" fill="#523B1A"/>
<path d="M55.4718 42.7431C55.5965 48.0704 51.3825 52.4903 46.0597 52.6149C40.7371 52.7395 36.3209 48.5215 36.1962 43.1942C36.0716 37.8667 40.2856 33.4468 45.6081 33.3222C50.9309 33.1976 55.3472 37.4156 55.4718 42.7431Z" fill="#D1B86C"/>
<path d="M55.4718 42.7431C55.5965 48.0704 51.3825 52.4903 46.0597 52.6149C40.7371 52.7395 36.3209 48.5215 36.1962 43.1942C36.0716 37.8667 40.2856 33.4468 45.6081 33.3222C50.9309 33.1976 55.3472 37.4156 55.4718 42.7431Z" fill="#D1B86C"/>
<path d="M54.5476 42.7645C54.6603 47.5815 50.8501 51.5778 46.0371 51.6905C41.2245 51.8031 37.2315 47.9894 37.1188 43.1724C37.006 38.3552 40.8162 34.3589 45.6289 34.2462C50.4418 34.1336 54.4348 37.9473 54.5476 42.7645Z" fill="#F3ED99"/>
<path d="M53.3096 39.3736C53.3636 41.6813 51.5383 43.5954 49.2327 43.6494C46.9274 43.7033 45.0146 41.8767 44.9606 39.569C44.9066 37.2616 46.7318 35.3472 49.0372 35.2932C51.3428 35.2393 53.2556 37.0662 53.3096 39.3736Z" fill="#D4C18D"/>
<path d="M52.1558 39.4006C52.1949 41.0702 50.8745 42.4551 49.2064 42.4941C47.5385 42.5332 46.1545 41.2116 46.1154 39.542C46.0763 37.8726 47.397 36.4874 49.0649 36.4484C50.733 36.4094 52.1167 37.7312 52.1558 39.4006Z" fill="#2E2227"/>
<path d="M50.4504 37.6682C50.4618 38.1573 50.0751 38.5632 49.5864 38.5746C49.0977 38.5861 48.6921 38.1987 48.6807 37.7096C48.6692 37.2204 49.0562 36.8145 49.5449 36.8031C50.0337 36.7917 50.4389 37.179 50.4504 37.6682Z" fill="white"/>
<path d="M43.1767 36.5408C43.9104 37.2115 43.5406 38.8121 42.3507 40.1156C41.1608 41.4194 39.6015 41.9321 38.868 41.2614C38.1344 40.5905 38.5041 38.9901 39.694 37.6866C40.8839 36.3828 42.443 35.8698 43.1767 36.5408Z" fill="white"/>
<path d="M47.9447 50.0679C43.3494 50.1754 39.3298 47.5255 37.4668 43.6281C37.646 46.7774 39.6345 49.6787 42.7733 50.8638C45.5539 51.9136 48.5462 51.3564 50.7312 49.6539C49.8428 49.9023 48.9093 50.0453 47.9447 50.0679Z" fill="#D4C18D"/>
<path d="M13.4502 43.3798C13.5878 49.2602 18.462 53.9156 24.3372 53.7781C30.2124 53.6406 34.8639 48.7622 34.7262 42.8818C34.5886 37.0014 29.714 32.3457 23.8389 32.4832C17.9637 32.6207 13.3125 37.4994 13.4502 43.3798Z" fill="#523B1A"/>
<path d="M14.8814 43.6933C15.0061 49.0205 19.4223 53.2385 24.7448 53.1139C30.0676 52.9893 34.2817 48.5694 34.157 43.2422C34.0323 37.9146 29.6161 33.6967 24.2933 33.8212C18.9708 33.9458 14.7567 38.3658 14.8814 43.6933Z" fill="#D1B86C"/>
<path d="M14.8814 43.6933C15.0061 49.0205 19.4223 53.2385 24.7448 53.1139C30.0676 52.9893 34.2817 48.5694 34.157 43.2422C34.0323 37.9146 29.6161 33.6967 24.2933 33.8212C18.9708 33.9458 14.7567 38.3658 14.8814 43.6933Z" fill="#D1B86C"/>
<path d="M15.8049 43.6715C15.9176 48.4884 19.9106 52.3021 24.7233 52.1895C29.5362 52.0768 33.3464 48.0805 33.2337 43.2636C33.121 38.4464 29.128 34.6326 24.315 34.7452C19.5024 34.8579 15.6922 38.8543 15.8049 43.6715Z" fill="#F3ED99"/>
<path d="M23.6459 40.0678C23.6999 42.3754 25.6127 44.2021 27.918 44.1482C30.2237 44.0942 32.0489 42.18 31.9949 39.8724C31.9409 37.565 30.0281 35.7381 27.7225 35.792C25.4171 35.846 23.5919 37.7604 23.6459 40.0678Z" fill="#D4C18D"/>
<path d="M24.7997 40.0409C24.8388 41.7105 26.2228 43.0321 27.8907 42.993C29.5588 42.954 30.8792 41.5691 30.8401 39.8995C30.8011 38.2301 29.4173 36.9083 27.7492 36.9473C26.0813 36.9863 24.7607 38.3715 24.7997 40.0409Z" fill="#2E2227"/>
<path d="M27.7995 39.0847C27.8109 39.5736 28.2164 39.9609 28.7052 39.9495C29.1939 39.9381 29.5809 39.5322 29.5694 39.0433C29.558 38.5541 29.1524 38.1668 28.6637 38.1782C28.175 38.1897 27.788 38.5956 27.7995 39.0847Z" fill="white"/>
<path d="M21.8368 37.0399C22.5704 37.7106 22.2007 39.3112 21.0108 40.6147C19.8209 41.9185 18.2618 42.4312 17.5281 41.7606C16.7945 41.0896 17.1644 39.4893 18.3541 38.1858C19.544 36.882 21.1034 36.369 21.8368 37.0399Z" fill="white"/>
<path d="M22.7414 50.6577C27.3368 50.5502 31.228 47.7152 32.9066 43.7349C32.875 46.889 31.0244 49.8802 27.9445 51.2109C25.216 52.3896 22.2009 51.973 19.9387 50.3746C20.8378 50.5811 21.7769 50.6803 22.7414 50.6577Z" fill="#D4C18D"/>
<path d="M36.929 44.2006C36.6559 43.9146 36.3392 43.6593 35.974 43.5772C35.6193 43.4973 35.2141 43.6172 35.0035 43.9429C34.7786 43.6269 34.3685 43.5252 34.0179 43.6205C33.6567 43.7188 33.3516 43.9881 33.0915 44.286C31.7077 45.8705 31.3746 48.3318 31.7498 50.5201C32.125 52.7084 33.1097 54.698 34.08 56.6449C34.1517 56.7883 34.7502 57.6759 35.3188 57.6632C35.8874 57.6504 36.4256 56.7378 36.4908 56.5912C37.3737 54.6035 38.2687 52.5718 38.5464 50.369C38.824 48.1663 38.3819 45.7223 36.929 44.2006Z" fill="#2D1615"/>
<path d="M33.9164 44.008C33.6519 44.0626 33.4597 44.2955 33.3041 44.5239C32.2002 46.1477 31.8799 48.2399 32.0668 50.2194C32.2741 52.4132 33.0746 54.5443 34.3533 56.3061C34.5749 56.6115 34.8942 56.9382 35.2521 56.8515C35.663 56.7517 35.7733 56.2091 35.8012 55.7724C36.0316 52.1601 36.1774 48.4304 34.9909 45.0236C34.9009 44.7649 34.7998 44.5032 34.6228 44.2985C34.4456 44.0938 34.176 43.9547 33.9164 44.008Z" fill="#EE8B40"/>
<path d="M35.7581 43.9622C35.3985 44.0575 35.2378 44.4682 35.1389 44.8272C34.1254 48.5062 34.0527 52.4409 34.9296 56.155C34.9914 56.4174 35.0955 56.7203 35.3534 56.7983C35.6767 56.8963 35.9615 56.5722 36.1357 56.2823C37.7165 53.6492 38.3861 50.4793 38.005 47.431C37.8544 46.2276 37.4888 44.9539 36.5335 44.2079C36.3117 44.0347 36.0299 43.8902 35.7581 43.9622Z" fill="#F2591D"/>
<path d="M36.011 50.9267C36.0802 53.8845 35.7187 56.292 35.2034 56.3041C34.6883 56.3162 34.2145 53.9282 34.1453 50.9704C34.0761 48.0124 34.4376 45.6048 34.9527 45.5928C35.468 45.5807 35.9418 47.9687 36.011 50.9267Z" fill="#F3DE3E"/>
<path d="M35.1598 49.164C35.3658 49.0949 35.4432 48.8461 35.4694 48.6303C35.5526 47.9485 35.4182 47.2418 35.0906 46.638C34.5995 47.1362 34.416 47.8945 34.5479 48.5818C34.578 48.7391 34.6262 48.8987 34.7306 49.0199C34.8353 49.1411 35.0081 49.2151 35.1598 49.164" fill="white"/>
<path d="M35.3703 50.8692C35.2526 50.4598 35.1351 50.0503 35.0173 49.6409C34.7974 50.0646 34.7051 50.5531 34.7546 51.0277C34.7681 51.1592 34.7946 51.2944 34.8718 51.4014C34.949 51.5087 35.0891 51.5799 35.2153 51.5412C35.338 51.504 35.4137 51.3744 35.4278 51.2469C35.4415 51.1193 35.4059 50.9923 35.3703 50.8692" fill="white"/>
<path d="M52.7557 28.0741C52.3965 27.3573 53.1173 26.5877 53.2846 25.8034C53.5253 24.6735 52.5883 23.6583 51.6932 22.9285C50.7983 22.1987 49.7737 21.354 49.7546 20.1986C49.7456 19.6519 49.9745 19.1305 50.0467 18.5885C50.1191 18.0466 49.9632 17.3937 49.4591 17.1829C48.8677 16.936 48.2514 17.434 47.7868 17.8755C44.8129 20.6998 41.1109 22.7497 37.1405 23.7706C37.5267 25.2246 37.9133 26.6787 38.2999 28.1327C38.4026 28.5197 38.5119 28.9194 38.7635 29.2307C39.0955 29.6412 39.62 29.8333 40.1185 30.0061C42.2217 30.7346 44.3499 31.4402 46.5563 31.7337C48.7624 32.0272 51.0726 31.8883 53.1048 30.98C53.7363 30.6978 54.4343 30.1143 54.2182 29.4565C54.0048 28.8069 53.0621 28.6853 52.7557 28.0741Z" fill="#F2591D"/>
<path d="M37.4966 23.9785L38.581 28.0577C38.6753 28.4122 38.7731 28.7787 38.9897 29.047C39.2591 29.3804 39.7033 29.5536 40.2132 29.7301C42.3499 30.4702 44.4461 31.1584 46.5938 31.4443C48.9933 31.7638 51.1941 31.5136 52.9853 30.7132C53.3888 30.5328 54.1077 30.0571 53.9401 29.5479C53.8612 29.3068 53.6104 29.1508 53.3201 28.9697C53.0183 28.7816 52.6764 28.5681 52.4941 28.205C52.1966 27.6112 52.4712 27.0156 52.7132 26.4903C52.8337 26.2291 52.9473 25.9827 52.9985 25.7427C53.1663 24.9562 52.6789 24.1096 51.5083 23.1551C50.6062 22.4191 49.4838 21.5034 49.4624 20.2035C49.4563 19.8359 49.5429 19.4912 49.6271 19.1578C49.6801 18.9477 49.7301 18.7493 49.757 18.55C49.8133 18.1276 49.7088 17.6041 49.3458 17.4524C48.9266 17.277 48.384 17.7098 47.9868 18.0874C45.0392 20.8868 41.4176 22.9197 37.4966 23.9785ZM48.9114 32.16C48.9114 32.16 48.9117 32.16 48.9114 32.16C48.1417 32.178 47.3358 32.1321 46.5167 32.0229C44.315 31.7301 42.1887 31.0327 40.0224 30.2823C39.5369 30.1139 38.9326 29.9047 38.5362 29.4143C38.241 29.0494 38.1221 28.6024 38.0173 28.2077L36.8576 23.8456C36.8377 23.7705 36.8482 23.6903 36.8878 23.6232C36.9268 23.5557 36.9916 23.507 37.0669 23.4879C41.0011 22.476 44.6383 20.4623 47.5851 17.6637C48.0135 17.2568 48.5289 16.8389 49.1027 16.8255C49.2646 16.8217 49.4221 16.8512 49.571 16.9137C50.2207 17.1851 50.423 17.9699 50.3351 18.6271C50.3041 18.8598 50.2478 19.084 50.193 19.301C50.1146 19.6109 50.041 19.9039 50.0456 20.1937C50.0625 21.2222 51.0265 22.0086 51.8769 22.7021C53.2333 23.8086 53.7869 24.8427 53.5692 25.8646C53.5046 26.1684 53.3716 26.4565 53.2433 26.7348C53.0291 27.1993 52.8441 27.6007 53.0157 27.943C53.1243 28.1595 53.3695 28.312 53.6286 28.4741C53.9666 28.6847 54.3494 28.9231 54.4949 29.3654C54.7722 30.2105 53.9829 30.9069 53.2235 31.2465C51.9502 31.8155 50.4992 32.1229 48.9114 32.16Z" fill="#292625"/>
<path d="M45.0253 22.0612C44.3634 22.7469 43.5185 23.2248 42.7334 23.7683C42.1011 24.2061 41.5024 24.6908 40.9436 25.2173C40.7712 25.3801 40.5878 25.5919 40.6409 25.8218C41.6835 25.5539 42.7149 25.2442 43.7322 24.8945C44.5292 24.6203 45.3269 24.3191 46.1648 24.2239C46.2812 24.2107 46.4533 24.2677 46.4102 24.3754C46.176 24.7708 45.7129 24.9638 45.2813 25.1311C44.4591 25.4494 43.6368 25.7679 42.8145 26.0864C42.3427 26.2692 41.8654 26.4546 41.4507 26.7426C41.183 26.9289 40.9213 27.2327 41.0189 27.5415C41.0853 27.7526 41.2972 27.8806 41.4978 27.9782C42.3995 28.4168 43.413 28.6292 44.4175 28.5894C44.6559 28.58 44.903 28.558 45.1263 28.6418C45.3493 28.7257 45.5386 28.9559 45.4822 29.1853C45.4198 29.4407 45.1129 29.5465 44.8489 29.5763C44.5849 29.6064 44.287 29.6167 44.1078 29.8105C44.0663 29.8552 44.033 29.9101 44.0256 29.9702C44.0056 30.1336 44.171 30.2567 44.3238 30.3221C44.7822 30.518 45.2977 30.5343 45.7972 30.5135C46.5562 30.482 47.3122 30.372 48.0483 30.1855C47.8932 30.7123 47.3078 30.9909 46.7627 31.0947C45.8475 31.2691 44.9023 31.1333 43.9905 30.9433C42.8074 30.6967 41.6435 30.3593 40.5129 29.9356C39.9677 29.731 39.4156 29.4968 39.0022 29.0902C38.3657 28.464 38.1568 27.5186 38.1816 26.6309C38.2043 25.8142 38.4263 24.9566 39.0243 24.3924C39.4157 24.0233 39.9289 23.8142 40.4233 23.5976C41.5463 23.1055 42.6342 22.5349 43.6759 21.8913C44.2202 21.5552 44.8021 21.1851 45.4424 21.2204C45.462 21.5412 45.2496 21.8287 45.0253 22.0612Z" fill="#D34B20"/>
<path d="M18.6658 28.8719C18.9913 28.139 18.235 27.404 18.0315 26.6284C17.7379 25.511 18.6264 24.4531 19.4864 23.6822C20.3461 22.9113 21.3302 22.0196 21.2952 20.8646C21.2785 20.3181 21.0255 19.8079 20.9281 19.2699C20.8307 18.732 20.9555 18.0725 21.4495 17.8384C22.0284 17.564 22.6673 18.0327 23.1521 18.452C26.2549 21.1341 30.0487 23.0085 34.0629 23.8426C33.7447 25.3131 33.4269 26.7836 33.1088 28.2541C33.024 28.6455 32.9338 29.0499 32.6967 29.3726C32.3846 29.7981 31.8694 30.0147 31.3798 30.2105C29.3127 31.0366 27.2199 31.841 25.0299 32.2374C22.8396 32.6339 20.5255 32.6031 18.453 31.7909C17.809 31.5386 17.0847 30.9883 17.2695 30.3212C17.4523 29.6623 18.3883 29.4967 18.6658 28.8719Z" fill="#F2591D"/>
<path d="M21.8013 18.0488C21.7206 18.0507 21.6463 18.0684 21.5741 18.1025C21.2189 18.271 21.139 18.7989 21.215 19.2181C21.2509 19.4159 21.3101 19.6121 21.3729 19.8192C21.4723 20.1486 21.5753 20.4886 21.5866 20.856C21.6261 22.1555 20.5475 23.1228 19.681 23.8999C18.5564 24.9083 18.1091 25.7768 18.3135 26.5546C18.3759 26.792 18.5007 27.0328 18.6332 27.288C18.8998 27.8014 19.202 28.3836 18.9323 28.9906C18.7674 29.3619 18.4356 29.5911 18.143 29.7931C17.8615 29.9876 17.6185 30.1552 17.5507 30.3997C17.4074 30.9161 18.1478 31.3577 18.5593 31.519C20.3857 32.2348 22.595 32.3817 24.9777 31.9503C27.11 31.5643 29.1714 30.7788 31.2714 29.9395C31.7725 29.7393 32.2078 29.5455 32.4613 29.2C32.6654 28.9217 32.7457 28.5511 32.8235 28.1926L33.7154 24.0672C29.7495 23.1929 26.0369 21.3317 22.9611 18.6732C22.6195 18.3781 22.1791 18.0399 21.8013 18.0488ZM22.6961 32.7737C21.1084 32.8109 19.6448 32.5717 18.3466 32.0629C17.5715 31.7592 16.7505 31.1005 16.9883 30.2433C17.1126 29.7947 17.4839 29.5387 17.8116 29.3125C18.0632 29.1384 18.3009 28.9746 18.3993 28.7533C18.5544 28.4034 18.3509 28.0111 18.1154 27.5571C17.9742 27.285 17.8279 27.0035 17.7489 26.703C17.4836 25.6925 17.9882 24.6336 19.2917 23.4649C20.1087 22.7324 21.0345 21.9017 21.0036 20.8738C20.9946 20.5838 20.9071 20.2948 20.8143 19.9887C20.7497 19.7747 20.6828 19.5532 20.6408 19.3222C20.5223 18.6698 20.6877 17.8764 21.3242 17.5749C21.4698 17.5056 21.6257 17.4687 21.7876 17.4649C22.3617 17.4514 22.8958 17.8448 23.3428 18.2312C26.4175 20.8889 30.145 22.7302 34.1219 23.557C34.198 23.5725 34.2647 23.6182 34.3072 23.6837C34.3496 23.7489 34.3641 23.8286 34.3478 23.9045L33.3937 28.3161C33.3072 28.7152 33.2096 29.1673 32.9318 29.5456C32.5588 30.054 31.9649 30.2913 31.4878 30.4822C29.359 31.3331 27.2673 32.1292 25.0817 32.5247C24.2686 32.6721 23.4661 32.7557 22.6961 32.7737Z" fill="#292625"/>
<path d="M25.6905 22.5136C26.3834 23.1677 27.2498 23.6055 28.0595 24.1117C28.7115 24.5194 29.3323 24.9756 29.9151 25.4753C30.0952 25.6299 30.2883 25.8329 30.2457 26.065C29.1917 25.8462 28.147 25.5851 27.1144 25.2833C26.3055 25.0467 25.4946 24.7832 24.6531 24.7273C24.5362 24.7196 24.367 24.7845 24.415 24.89C24.6676 25.2741 25.1391 25.4452 25.578 25.5922C26.4143 25.8716 27.2506 26.1513 28.0869 26.431C28.567 26.5915 29.0521 26.7544 29.4798 27.0227C29.756 27.1963 30.0316 27.4874 29.9486 27.8005C29.8921 28.0145 29.6867 28.1523 29.4909 28.2591C28.6104 28.7395 27.608 28.999 26.6027 29.0063C26.3642 29.008 26.1163 28.9976 25.8972 29.0918C25.6783 29.1859 25.5003 29.4248 25.5671 29.6513C25.6416 29.9035 25.9529 29.9949 26.218 30.0123C26.4831 30.03 26.7812 30.0263 26.9695 30.2115C27.0127 30.2542 27.0486 30.3075 27.0588 30.3672C27.0865 30.5295 26.927 30.6602 26.7774 30.7327C26.3286 30.9498 25.8145 30.9902 25.3148 30.9928C24.5549 30.9968 23.7946 30.9223 23.0505 30.7704C23.2301 31.2894 23.8283 31.5404 24.3773 31.6185C25.2996 31.75 26.2374 31.57 27.1394 31.3376C28.3097 31.0359 29.4564 30.6444 30.5661 30.1683C31.101 29.9384 31.6419 29.6787 32.0355 29.2531C32.6421 28.5978 32.8064 27.6437 32.7404 26.7582C32.6793 25.9434 32.4174 25.0971 31.7937 24.5615C31.3857 24.2111 30.863 24.0263 30.359 23.8331C29.2143 23.3941 28.1008 22.8749 27.0301 22.2808C26.4707 21.9705 25.8724 21.6281 25.2342 21.6933C25.2296 22.0146 25.4552 22.2919 25.6905 22.5136Z" fill="#D34B20"/>
<path d="M41.2811 22.2772C40.0015 20.9565 37.8735 20.1912 35.7731 20.2967C35.6897 20.3009 35.6045 20.3081 35.5196 20.318C35.4347 20.3121 35.3489 20.3088 35.2657 20.3086C33.1624 20.3015 31.0726 21.1655 29.8562 22.5446C31.1196 23.0902 31.9759 24.1216 32.3623 25.2274C32.7489 26.3333 32.7065 27.5118 32.5015 28.6532C32.4247 29.0796 32.3557 29.5811 32.7464 29.8742C33.0986 30.1386 33.6536 30.0987 34.1352 30.0418C34.6799 29.9776 35.2778 29.8815 35.7383 29.6605C36.2089 29.8597 36.8104 29.9278 37.3577 29.9663C37.8414 30.0006 38.3977 30.0146 38.7371 29.734C39.1137 29.4229 39.0211 28.9252 38.9247 28.5029C38.6662 27.3723 38.569 26.1971 38.9032 25.0743C39.2377 23.9516 40.0449 22.8813 41.2811 22.2772Z" fill="#D34B20"/>
<path d="M35.7317 29.3683C35.7726 29.3673 35.8137 29.3751 35.8523 29.3916C36.2901 29.5772 36.8695 29.639 37.378 29.6749C37.5238 29.6852 37.6951 29.6955 37.8614 29.6916C38.1863 29.684 38.412 29.624 38.5515 29.5089C38.7662 29.3313 38.7481 29.0416 38.6401 28.5681C38.3241 27.185 38.3187 26.015 38.6234 24.9913C38.9696 23.8282 39.7492 22.8347 40.79 22.2118C39.553 21.1187 37.6687 20.4959 35.7876 20.5883C35.7114 20.5922 35.6325 20.5988 35.5542 20.6083C35.5355 20.6101 35.5177 20.6105 35.4993 20.6096C35.4203 20.6037 35.3412 20.6009 35.2643 20.6005C35.1992 20.6004 35.1336 20.6008 35.0683 20.6023C33.258 20.6447 31.4868 21.3465 30.3439 22.4563C31.4125 23.0298 32.2377 23.9858 32.6379 25.1314C32.9904 26.1397 33.0398 27.3087 32.7885 28.7051C32.7028 29.183 32.6983 29.4733 32.9213 29.6404C33.0661 29.7492 33.2943 29.7985 33.619 29.7909C33.7855 29.787 33.9562 29.7687 34.101 29.7516C34.6076 29.6919 35.1832 29.6032 35.6121 29.3972C35.6502 29.379 35.6906 29.3692 35.7317 29.3683ZM37.8751 30.2755C37.6846 30.28 37.496 30.269 37.337 30.2576C36.823 30.221 36.2392 30.1588 35.746 29.9772C35.2615 30.1817 34.681 30.2711 34.1692 30.3318C34.011 30.3506 33.8233 30.3704 33.6326 30.3748C33.1722 30.3856 32.825 30.2981 32.5715 30.1078C32.0182 29.6929 32.1457 28.9831 32.2142 28.6014C32.4472 27.3069 32.4054 26.235 32.087 25.324C31.6953 24.2029 30.84 23.2875 29.7408 22.8128C29.6548 22.7755 29.5921 22.6998 29.5713 22.6085C29.551 22.5172 29.5757 22.4215 29.6375 22.3514C30.9034 20.9155 33.082 20.0113 35.2666 20.0165C35.3479 20.0171 35.4303 20.0195 35.5131 20.025C35.5952 20.0157 35.6772 20.0094 35.7578 20.005C35.8291 20.0014 35.8999 19.9986 35.9704 19.997C38.0867 19.9475 40.2016 20.7433 41.4905 22.074C41.5558 22.1411 41.5849 22.2355 41.5684 22.3277C41.5524 22.4199 41.493 22.4985 41.4091 22.5397C40.3333 23.0653 39.5218 24.0198 39.1828 25.158C38.9073 26.0828 38.9159 27.1555 39.209 28.4377C39.2953 28.8158 39.4561 29.5188 38.9228 29.9594C38.6788 30.1611 38.3361 30.2647 37.8751 30.2755Z" fill="#292625"/>
<path d="M34.2934 28.3869C34.7011 28.7615 35.2923 28.9257 35.8344 28.8152C36.3768 28.7044 36.8566 28.3216 37.085 27.8172C37.2213 27.5162 37.2701 27.1844 37.3491 26.8635C37.6386 25.6844 38.3335 24.653 38.8373 23.5489C38.9081 23.3939 38.9758 23.2348 38.9982 23.0661C39.0619 22.5848 38.7341 22.1187 38.3141 21.8755C37.8944 21.6322 37.3978 21.5666 36.9153 21.5161C35.4788 21.3653 34.0115 21.3054 32.6038 21.6299C32.1616 21.7317 31.6716 21.9224 31.5168 22.3495C31.4031 22.6632 31.5125 23.0193 31.6966 23.2977C31.8808 23.5762 32.1335 23.8011 32.3481 24.0569C32.8918 24.7051 33.1739 25.5309 33.3836 26.3507C33.5707 27.0819 33.7378 27.8761 34.2934 28.3869Z" fill="#F2591D"/>
<path d="M32.4499 22.0995C32.3726 22.1991 32.3282 22.32 32.2915 22.4404C32.1878 22.7827 32.1428 23.1707 32.3143 23.4849C32.4764 23.7821 32.7989 23.9529 33.115 24.0741C33.4948 24.2196 33.8925 24.3186 34.2962 24.3682C34.8353 24.4342 35.464 24.3731 35.7877 23.9365C36.1709 23.4189 35.8853 22.6278 35.358 22.2581C34.8309 21.8882 34.1525 21.8307 33.5093 21.8007C33.1275 21.783 32.6845 21.7975 32.4499 22.0995Z" fill="#F3D055"/>
<path d="M33.8917 25.6567C34.0904 25.8848 34.3486 26.0895 34.6502 26.1086C34.9519 26.1276 35.279 25.885 35.2519 25.5836C35.221 25.2364 34.8071 25.0818 34.4651 25.0159C34.3201 24.9879 34.1698 24.9621 34.0262 24.9959C33.8826 25.0301 33.7468 25.1404 33.7293 25.287C33.7128 25.4248 33.8009 25.5519 33.8917 25.6567Z" fill="#F3D055"/>
<path d="M21.8694 19.5459C22.0741 19.9036 22.2833 20.2667 22.5807 20.5518C22.8781 20.837 23.2821 21.0383 23.6922 20.9987C23.9164 20.7605 23.8722 20.3611 23.6887 20.09C23.5053 19.819 23.217 19.6413 22.9477 19.4558C22.5877 19.2078 22.2471 18.9317 21.93 18.631C21.7596 18.6793 21.6673 18.8768 21.6791 19.0538C21.6909 19.231 21.7812 19.3919 21.8694 19.5459Z" fill="#F3D055"/>
<path d="M47.28 20.1685C48.0103 19.9181 48.5739 19.2355 48.682 18.4707C47.8876 18.5371 47.1677 19.1472 46.9714 19.9205C46.953 19.9926 46.9407 20.0762 46.9852 20.1359C47.0484 20.221 47.1795 20.203 47.28 20.1685Z" fill="#F3D055"/>
<path d="M20.066 24.5584C19.5325 24.8761 19.126 25.4922 19.2446 26.1022C19.3854 26.8271 20.1568 27.2315 20.8628 27.4461C22.6041 27.975 24.4639 27.985 26.2742 27.8003C26.1875 27.2871 25.7636 26.8875 25.2946 26.663C24.8253 26.4388 24.3044 26.3534 23.8021 26.219C22.6928 25.922 21.6514 25.3737 20.7784 24.6271C20.6924 24.5536 20.6033 24.4754 20.4931 24.4497C20.3462 24.4155 20.1957 24.4814 20.066 24.5584Z" fill="#F3D055"/>
<path d="M44.508 27.3858C46.1712 27.5342 47.861 27.3779 49.4688 26.9261C49.9816 26.782 50.4955 26.6034 50.9227 26.2845C51.3498 25.9659 51.6837 25.4863 51.716 24.954C51.7281 24.7559 51.6836 24.531 51.5177 24.4225C51.3998 24.3456 51.2488 24.3461 51.1085 24.3571C50.5096 24.403 49.9313 24.5855 49.3586 24.7668C47.4476 25.3724 45.5362 25.9778 43.6249 26.5831C43.4464 26.6398 43.2301 26.8413 43.3716 26.9641C43.6466 27.2743 44.0953 27.3487 44.508 27.3858Z" fill="#F3D055"/>
<path d="M22.2704 29.6065C22.2212 29.3004 21.8301 29.2117 21.521 29.1926C21.2485 29.1759 20.9761 29.1592 20.7036 29.1422C20.3681 29.1217 20.0135 29.1048 19.7154 29.2596C19.417 29.4144 19.2148 29.8074 19.3839 30.0981C20.118 30.5882 21.134 30.6164 21.8942 30.1671C22.1003 30.0452 22.3083 29.843 22.2704 29.6065Z" fill="#F3D055"/>
<path d="M46.2376 29.1577C46.279 29.2496 46.375 29.3034 46.4685 29.3419C46.8776 29.5101 47.3343 29.503 47.7764 29.4935C48.4271 29.4791 49.0778 29.465 49.7281 29.4506C50.4375 29.4351 51.2662 29.3555 51.6431 28.7539C51.6799 28.6951 51.7116 28.6303 51.7155 28.5612C51.7313 28.2632 51.2747 28.1577 51.193 27.8705C49.713 28.1349 48.2327 28.3995 46.7527 28.6639C46.6168 28.6882 46.4755 28.7146 46.364 28.7961C46.2525 28.8776 46.1809 29.0315 46.2376 29.1577Z" fill="#F3D055"/>
<path d="M53.9552 58.7408C56.9783 55.5219 60.0165 52.2891 63.4913 49.5644C66.9659 46.84 70.9229 44.6226 75.2406 43.7048C74.1555 45.5365 72.7681 47.1879 71.1515 48.572C71.6367 48.3883 72.1386 48.2015 72.657 48.2246C73.1754 48.2479 73.7189 48.5366 73.876 49.0317C74.0245 49.4998 73.8003 49.9983 73.5633 50.4287C72.7535 51.8998 71.7272 53.2514 70.528 54.4268C71.0258 54.4398 71.385 54.9728 71.3791 55.4712C71.3732 55.9695 71.1024 56.4233 70.8129 56.8288C69.6224 58.497 67.96 59.8236 66.07 60.6139C66.895 60.7873 67.7197 60.9603 68.5447 61.1337C67.9861 62.4551 66.6194 63.3024 65.2118 63.5742C63.8041 63.8457 62.3501 63.6238 60.9485 63.3225C58.7166 62.8421 56.528 62.1594 54.4184 61.2857C53.9335 61.0849 53.5462 59.1763 53.9552 58.7408Z" fill="#F2591D"/>
<path d="M64.0529 63.9875C62.9736 64.0128 61.9034 63.8268 60.8865 63.6079C58.6414 63.1248 56.4276 62.4344 54.3063 61.5558C54.1575 61.4941 54.0867 61.3232 54.1483 61.1742C54.2099 61.0254 54.3796 60.9541 54.5296 61.016C56.6184 61.8814 58.7984 62.5611 61.0093 63.0367C62.3463 63.3245 63.7737 63.5538 65.1559 63.2876C66.4646 63.0349 67.5652 62.3037 68.1155 61.3422L66.0096 60.8999C65.8841 60.8734 65.7908 60.7687 65.7787 60.6415C65.7667 60.5142 65.8388 60.3936 65.9568 60.3443C67.7838 59.5808 69.4238 58.272 70.575 56.6594C70.8251 56.3084 71.082 55.8921 71.0869 55.4682C71.0907 55.1285 70.8438 54.7272 70.5199 54.7186C70.4026 54.7159 70.2988 54.6427 70.2559 54.5335C70.2132 54.4243 70.2394 54.3001 70.3234 54.2181C71.5047 53.0605 72.5088 51.738 73.3071 50.2875C73.5249 49.8922 73.7107 49.4773 73.5972 49.1202C73.4733 48.7291 73.0162 48.5331 72.6435 48.5165C72.1765 48.4953 71.7076 48.6736 71.2542 48.8456C71.1219 48.8948 70.9722 48.8431 70.8999 48.7211C70.8275 48.5989 70.8535 48.4427 70.9612 48.3504C72.3848 47.1312 73.6153 45.7193 74.6251 44.1455C70.9941 45.0406 67.3124 46.9386 63.6705 49.7944C60.2056 52.5115 57.1359 55.7799 54.1672 58.9409C54.0565 59.0584 53.8719 59.0638 53.7548 58.9536C53.6374 58.8431 53.6318 58.6583 53.7421 58.5409C56.7256 55.3641 59.8106 52.0791 63.3107 49.3349C67.2493 46.2465 71.2424 44.256 75.1792 43.4192C75.2918 43.3962 75.4093 43.4404 75.4771 43.5348C75.5446 43.6288 75.55 43.754 75.4909 43.854C74.5984 45.3605 73.5166 46.7338 72.2662 47.9497C72.3987 47.9339 72.5331 47.9275 72.6697 47.9331C73.257 47.9592 73.9436 48.2817 74.1534 48.9434C74.3342 49.5122 74.0854 50.0849 73.8184 50.5699C73.0686 51.9315 72.1438 53.1843 71.0653 54.2997C71.4463 54.5444 71.6756 55.0241 71.6705 55.4749C71.6633 56.0604 71.353 56.5736 71.0499 56.9986C69.9919 58.4813 68.5994 59.682 66.9884 60.5087L68.6041 60.8479C68.6894 60.8657 68.7624 60.9209 68.8029 60.9983C68.8431 61.0757 68.8469 61.1671 68.8128 61.2473C68.2652 62.5432 66.9065 63.5448 65.2665 63.8607C64.8623 63.9389 64.4571 63.978 64.0529 63.9875Z" fill="#292625"/>
<path d="M58.4496 57.6049C60.2286 56.1779 62.019 54.6394 63.0143 52.5864C63.1175 52.374 63.213 52.1489 63.213 51.9129C63.2127 51.6765 63.094 51.4257 62.875 51.3368C61.2847 52.5082 59.7715 53.7849 58.3492 55.1557C57.49 55.9834 56.5984 57.0373 56.7864 58.2159C57.3757 58.3959 57.9691 57.9904 58.4496 57.6049Z" fill="#F3D055"/>
<path d="M65.5446 50.742C66.1848 50.2923 66.625 49.5678 66.7293 48.7918C65.9871 49.0969 65.3052 49.5476 64.7339 50.1114C64.4854 50.3563 64.2415 50.706 64.3764 51.028C64.7743 51.1464 65.2051 50.9808 65.5446 50.742Z" fill="#F3D055"/>
<path d="M70.9167 48.1779C68.9445 48.7651 67.3374 50.1704 65.7983 51.5371C64.5148 52.6765 63.2208 53.8277 62.2083 55.2139C62.0189 55.4731 61.8599 55.8852 62.1223 56.0703C62.2893 56.1881 62.5188 56.1176 62.7072 56.0379C63.5772 55.6705 64.3993 55.189 65.146 54.6101C63.9995 55.5642 62.8509 56.5207 61.8123 57.5912C61.2611 58.1595 60.7235 58.7945 60.5524 59.5674C60.4878 59.8586 60.5084 60.2222 60.7635 60.3762C61 60.519 61.3039 60.402 61.5451 60.2667C62.1563 59.9242 62.7004 59.4762 63.241 59.0307C63.8482 58.5304 64.4553 58.0298 65.0625 57.5294C64.308 58.33 63.5842 59.1596 62.8934 60.0158C62.5062 60.4959 62.1179 61.0081 61.9981 61.6133C61.9728 61.7414 61.9627 61.884 62.035 61.9925C62.1832 62.2158 62.5272 62.1299 62.764 62.0051C64.6734 61 65.9503 59.133 67.1493 57.3377C67.338 57.5976 67.7408 57.6201 68.0204 57.4624C68.3001 57.3047 68.4786 57.0153 68.6168 56.7252C68.9287 56.069 69.0949 55.3441 69.0999 54.6173C69.1009 54.4761 69.0977 54.3267 69.1679 54.2035C69.2217 54.1089 69.3124 54.0421 69.3992 53.9764C70.3146 53.2828 71.0722 52.3824 71.5988 51.3615C71.7677 51.0344 71.8561 50.5302 71.5175 50.3864C71.35 50.3153 71.1591 50.3825 70.9899 50.4496C70.0269 50.8319 69.0641 51.2139 68.1011 51.5959C68.8142 50.7663 69.5674 49.9707 70.3569 49.2133L70.9167 48.1779Z" fill="#F7A80E"/>
<path d="M19.265 59.5527C16.0946 56.4787 12.9085 53.3916 9.31007 50.8325C5.71161 48.2736 1.65546 46.2437 -2.70047 45.5289C-1.5312 47.3079 -0.067754 48.8925 1.61186 50.1995C1.11855 50.0387 0.608163 49.8756 0.0914419 49.9229C-0.425272 49.9704 -0.954698 50.2843 -1.08847 50.7862C-1.21492 51.2607 -0.967385 51.7482 -0.71075 52.167C0.167311 53.5986 1.25568 54.9007 2.50832 56.0187C2.01193 56.0551 1.67802 56.6042 1.70724 57.1018C1.73618 57.5993 2.02818 58.0399 2.33607 58.4314C3.60354 60.0421 5.32625 61.2895 7.25115 61.9905C6.43516 62.2023 5.61916 62.4137 4.80317 62.6255C5.42294 63.9193 6.82806 64.7018 8.2466 64.9074C9.66541 65.1127 11.1075 64.8231 12.4934 64.4565C14.7007 63.8723 16.8547 63.0879 18.9211 62.1164C19.3961 61.8932 19.694 59.9686 19.265 59.5527Z" fill="#F2591D"/>
<path d="M9.4225 65.266C9.01829 65.2755 8.61174 65.2553 8.204 65.1962C6.55131 64.9573 5.14721 64.0204 4.53956 62.7515C4.50176 62.673 4.50126 62.5815 4.53785 62.5023C4.57471 62.4231 4.64501 62.3646 4.72934 62.3428L6.32748 61.9284C4.67956 61.178 3.23241 60.0437 2.10615 58.6122C1.78355 58.2023 1.44929 57.7045 1.415 57.1191C1.38882 56.669 1.59508 56.1792 1.96455 55.9169C0.835089 54.8534 -0.147025 53.645 -0.960268 52.32C-1.24972 51.848 -1.52476 51.2878 -1.37105 50.711C-1.19209 50.0401 -0.521384 49.6858 0.0641054 49.6323C0.200826 49.62 0.335096 49.6204 0.467933 49.63C-0.838307 48.4742 -1.98286 47.1531 -2.94514 45.6897C-3.0089 45.5928 -3.00937 45.4672 -2.9463 45.3701C-2.88323 45.2727 -2.76826 45.2231 -2.65417 45.2407C1.31754 45.8925 5.39964 47.694 9.47835 50.5947C13.1028 53.1722 16.3384 56.3093 19.4672 59.343C19.5829 59.4552 19.5859 59.64 19.4738 59.7559C19.3617 59.8715 19.177 59.8747 19.0613 59.7625C15.9479 56.7438 12.7287 53.6226 9.14024 51.0706C5.36866 48.3883 1.60222 46.6646 -2.0667 45.9404C-0.983826 47.4652 0.311103 48.818 1.79021 49.9692C1.90208 50.0564 1.93535 50.2112 1.86882 50.3367C1.80229 50.4619 1.6543 50.5206 1.5204 50.4776C1.05945 50.3271 0.58301 50.1711 0.117253 50.2139C-0.253986 50.2479 -0.701391 50.465 -0.807152 50.8616C-0.903832 51.2238 -0.698845 51.6296 -0.462784 52.014C0.403008 53.4258 1.46766 54.6996 2.70178 55.8007C2.78927 55.8786 2.82152 56.0015 2.78376 56.1126C2.74627 56.2237 2.64596 56.3016 2.52892 56.3098C2.20549 56.3336 1.97791 56.7459 1.99765 57.0851C2.0224 57.5089 2.29817 57.9124 2.56474 58.2511C3.79003 59.808 5.48955 61.0387 7.3502 61.7159C7.4701 61.7596 7.54808 61.8767 7.54201 62.0044C7.53566 62.1321 7.44733 62.241 7.32344 62.2733L5.24034 62.8137C5.83495 63.7484 6.96858 64.4273 8.28767 64.6185C9.6803 64.8198 11.0959 64.5242 12.418 64.1739C14.6042 63.5954 16.7501 62.8145 18.7964 61.8523C18.9428 61.7838 19.1161 61.8467 19.1846 61.9924C19.2531 62.1384 19.1904 62.3125 19.0446 62.381C16.9668 63.3579 14.7875 64.1512 12.5674 64.7387C11.5618 65.0049 10.5015 65.2408 9.4225 65.266Z" fill="#292625"/>
<path d="M14.722 58.6283C12.8782 57.2861 11.0178 55.833 9.92753 53.8288C9.81477 53.6215 9.70857 53.4011 9.69783 53.1653C9.68709 52.9293 9.79394 52.6731 10.0083 52.5741C11.6519 53.6698 13.2229 54.8743 14.708 56.177C15.6047 56.9637 16.5449 57.9747 16.412 59.1609C15.8321 59.3682 15.2203 58.9909 14.722 58.6283Z" fill="#F3D055"/>
<path d="M7.31383 52.1048C6.6533 51.6855 6.1797 50.9824 6.03921 50.2121C6.79482 50.4821 7.49733 50.9004 8.09443 51.4369C8.35386 51.6699 8.61382 52.0079 8.4941 52.3358C8.10248 52.4727 7.66444 52.3274 7.31383 52.1048Z" fill="#F3D055"/>
<path d="M1.82681 49.7948C3.8243 50.2891 5.4951 51.6177 7.09669 52.9109C8.43186 53.989 9.77827 55.0784 10.8548 56.4157C11.0562 56.6658 11.2342 57.07 10.9808 57.2672C10.8192 57.3927 10.5866 57.333 10.395 57.2622C9.50875 56.9358 8.66482 56.4934 7.89211 55.95C9.0817 56.8494 10.2741 57.7511 11.3616 58.7719C11.9386 59.3138 12.5055 59.9229 12.7126 60.687C12.7904 60.9748 12.7871 61.339 12.5395 61.5047C12.31 61.6585 12.0006 61.5558 11.7537 61.4319C11.1272 61.1184 10.5624 60.6964 10.0015 60.2767C9.37163 59.8053 8.74172 59.3336 8.11183 58.8622C8.90316 59.6266 9.665 60.4214 10.3951 61.2444C10.8043 61.7058 11.2162 62.1994 11.3639 62.7983C11.3951 62.9251 11.4119 63.067 11.3451 63.1788C11.2074 63.4087 10.8595 63.3391 10.6172 63.2255C8.66286 62.3108 7.30023 60.5056 6.01855 58.7683C5.84197 59.0368 5.44099 59.0781 5.15426 58.9336C4.86725 58.7892 4.67535 58.5085 4.52402 58.2251C4.18174 57.5843 3.98185 56.8679 3.94262 56.1422C3.9352 56.0011 3.93115 55.8517 3.85559 55.732C3.79742 55.64 3.70343 55.5776 3.61385 55.5159C2.66705 54.8659 1.86817 54.0019 1.29411 53.0068C1.1101 52.6879 0.998463 52.1885 1.32997 52.029C1.49396 51.9502 1.6878 52.0083 1.85969 52.0675C2.83953 52.4043 3.81935 52.7408 4.79918 53.0773C4.04776 52.282 3.25846 51.5225 2.4344 50.8028L1.82681 49.7948Z" fill="#F7A80E"/>
<path d="M55.496 31.3289C56.2316 30.7552 57.0512 30.2894 57.9206 29.9511C58.0669 29.8944 58.2225 29.8402 58.3778 29.8627C58.7305 29.9141 58.9135 30.3558 58.8175 30.6993C58.7218 31.0432 58.4381 31.2977 58.156 31.5159C57.136 32.304 55.9541 32.8813 54.7054 33.201C54.0335 33.3733 53.2322 33.4402 52.7296 32.9617C53.1194 32.6648 53.6206 32.5649 54.0629 32.3539C54.594 32.1005 55.0317 31.6912 55.496 31.3289Z" fill="#F7A80E"/>
<path d="M14.6189 33.0131C13.8458 32.4525 13.0892 31.6919 12.1349 31.7074C12.0037 31.7096 11.8628 31.7316 11.7686 31.8229C11.5229 32.0603 11.7906 32.4593 12.0471 32.685C12.7294 33.2849 13.4288 33.8956 14.2698 34.2381C15.1111 34.5809 16.1352 34.6119 16.8765 34.0867C16.0667 33.871 15.2974 33.5051 14.6189 33.0131Z" fill="#F7A80E"/>
<path d="M14.4814 30.6909C14.959 31.1441 15.3734 31.6637 15.7093 32.2302C14.4733 31.8576 13.3672 31.0673 12.6137 30.0187C13.2704 29.7835 13.9751 30.2106 14.4814 30.6909Z" fill="#F7A80E"/>
<path d="M24.0457 70.3801C24.0027 70.4165 23.6759 70.1106 23.2188 69.5505C22.7699 68.9851 22.2165 68.1467 21.7357 67.1502C21.2705 66.1462 20.9734 65.1864 20.821 64.4804C20.6781 63.7715 20.649 63.3248 20.7045 63.3144C20.769 63.3019 20.9071 63.7243 21.1233 64.3978C21.3496 65.0693 21.6843 65.9843 22.1363 66.9603C22.6037 67.929 23.0989 68.768 23.4743 69.369C23.8575 69.9635 24.0964 70.3379 24.0457 70.3801Z" fill="#292625"/>
<path d="M26.2432 70.327C26.2044 70.3705 26.0224 70.2797 25.7751 70.0695C25.5328 69.8556 25.2403 69.5088 25.0033 69.0721C24.7749 68.6307 24.6521 68.1938 24.6114 67.873C24.5761 67.5504 24.6033 67.3486 24.661 67.3406C24.7242 67.3315 24.807 67.5125 24.9152 67.7955C25.0292 68.0784 25.1861 68.4594 25.3949 68.8643C25.6126 69.264 25.8398 69.608 26.0096 69.8612C26.1832 70.1097 26.2863 70.2798 26.2432 70.327Z" fill="#292625"/>
<path d="M48.4037 66.922C48.3462 66.895 48.3783 66.6939 48.4495 66.39C48.5161 66.0834 48.6069 65.6682 48.6746 65.2039C48.7334 64.7384 48.7567 64.3138 48.7744 64.0006C48.7868 63.6887 48.8095 63.4865 48.8722 63.4759C48.9301 63.4658 49.018 63.6539 49.0868 63.9777C49.1507 64.301 49.1774 64.7618 49.1139 65.2637C49.0411 65.7644 48.8923 66.2013 48.7446 66.496C48.5917 66.7895 48.4567 66.9471 48.4037 66.922Z" fill="#292625"/>
<path d="M50.7224 66.7247C50.6033 66.6574 50.9375 65.8612 51.2553 64.857C51.5465 63.8447 51.7093 62.9964 51.8454 63.0064C51.9534 63.011 51.9865 63.9185 51.6795 64.9853C51.3443 66.0437 50.8149 66.7808 50.7224 66.7247Z" fill="#292625"/>
<path d="M22.1669 78.2595C22.1237 78.3029 21.833 78.0613 21.3946 77.6313C20.9312 77.2225 20.4302 76.5354 19.872 75.782C19.3943 74.9748 18.9558 74.2464 18.759 73.6602C18.5328 73.0889 18.423 72.7274 18.4796 72.7041C18.5362 72.6808 18.7476 72.9979 19.041 73.5236C19.3055 74.0654 19.777 74.7493 20.241 75.5365C20.7862 76.2698 21.2336 76.97 21.63 77.4241C22.0005 77.8985 22.2103 78.2165 22.1669 78.2595Z" fill="#292625"/>
<path d="M45.6344 54.2367C45.6341 54.2944 45.3067 54.3458 44.7729 54.3429C44.24 54.3323 43.5026 54.2426 42.715 54.0253C41.931 53.7952 41.2565 53.4832 40.7979 53.2114C40.3422 52.9327 40.0908 52.7168 40.1207 52.6677C40.154 52.612 40.4599 52.7307 40.9371 52.9306C41.4188 53.1238 42.0832 53.3773 42.8363 53.5984C43.5929 53.8069 44.291 53.9411 44.8021 54.0306C45.313 54.1121 45.6354 54.1721 45.6344 54.2367Z" fill="#292625"/>
<path d="M48.4099 55.5134C48.4341 55.5637 48.1822 55.7421 47.7247 55.9394C47.2645 56.1264 46.587 56.2967 45.8227 56.3231C45.0577 56.3311 44.3735 56.191 43.9056 56.025C43.4396 55.8482 43.1798 55.6814 43.2017 55.6301C43.2266 55.5685 43.5237 55.6294 43.9863 55.7222C44.4537 55.8044 45.0972 55.8861 45.8126 55.8795C46.5278 55.854 47.1669 55.7436 47.6301 55.6405C48.0884 55.5272 48.3824 55.453 48.4099 55.5134Z" fill="#292625"/>
<path d="M26.1734 54.4476C26.1866 54.4751 26.0835 54.5508 25.8833 54.6652C25.7833 54.7222 25.6591 54.7889 25.5135 54.864C25.3669 54.9367 25.2035 55.0298 25.0085 55.0965C24.2471 55.4114 23.143 55.7365 21.8864 55.8824C20.6271 56.0023 19.4795 55.9151 18.6691 55.7664C18.4645 55.7418 18.2853 55.6847 18.1267 55.6442C17.9687 55.6015 17.8332 55.5623 17.7234 55.5272C17.5041 55.4573 17.3872 55.4048 17.3945 55.375C17.4102 55.3084 17.912 55.3739 18.711 55.4555C19.5137 55.5219 20.6224 55.5564 21.8399 55.4413C23.0548 55.2994 24.1314 55.034 24.9027 54.8014C25.6671 54.5545 26.1439 54.3857 26.1734 54.4476Z" fill="#292625"/>
<path d="M28.3606 55.4279C28.3906 55.4775 28.127 55.6999 27.6536 55.9916C27.1776 56.2767 26.4811 56.611 25.6729 56.8736C24.8609 57.1248 24.0995 57.2531 23.5461 57.2944C22.9915 57.3291 22.6476 57.2992 22.6438 57.2413C22.6387 57.1771 22.9712 57.0962 23.5007 56.9841C24.03 56.8651 24.7539 56.6934 25.5389 56.4508C26.3202 56.1965 27.0108 55.9195 27.5122 55.7116C28.0094 55.4979 28.3277 55.3723 28.3606 55.4279Z" fill="#292625"/>
</g>
<defs>
<clipPath id="clip0_5605_48586">
<rect y="1" width="72" height="72" rx="36" fill="white"/>
</clipPath>
</defs>
</svg>
