<svg width="72" height="73" viewBox="0 0 72 73" fill="none" xmlns="http://www.w3.org/2000/svg">
<g clip-path="url(#clip0_5605_48579)">
<path d="M29.3522 27.2778L39.4139 27.0423C48.0771 27.3924 54.0173 32.5384 57.4685 36.8793L60.9921 36.7969C60.9981 36.267 54.1429 21.5295 39.2709 20.9286L34.3227 21.0444L34.1574 21.0482L29.2092 21.164C14.3815 22.4601 8.22593 37.5021 8.25406 38.0311L11.7776 37.9487C15.022 33.4511 20.715 28.0328 29.3522 27.2778Z" fill="#F3ED99"/>
<path d="M57.5299 36.7466L60.8252 36.6695C60.5578 35.8983 58.822 32.3969 55.5563 28.9171C52.35 25.5035 46.9217 21.3694 39.2649 21.0599L29.2111 21.2954C21.5851 21.9623 16.3561 26.3459 13.3155 29.9057C10.2136 33.5345 8.64357 37.1133 8.41251 37.8961L11.7078 37.819C14.9399 33.359 20.6112 27.91 29.3402 27.1471L39.4097 26.9111C48.1727 27.2649 54.0953 32.4426 57.5299 36.7466ZM60.994 36.9283L57.4705 37.0107C57.4311 37.0116 57.3913 36.9934 57.3643 36.9615C53.9698 32.6899 48.0974 27.525 39.408 27.1737L29.3542 27.4092C20.6986 28.1662 15.0768 33.6001 11.8833 38.0259C11.8604 38.059 11.8215 38.0791 11.7795 38.0801L8.25599 38.1625C8.18515 38.1642 8.12611 38.1091 8.12182 38.0382C8.10263 37.6669 9.76035 33.6838 13.0611 29.8003C16.1395 26.1749 21.44 21.7111 29.1971 21.0333L39.2666 20.7973C47.0574 21.1116 52.5584 25.3226 55.8056 28.7999C59.2844 32.5248 61.1266 36.426 61.1222 36.7978C61.1239 36.8687 61.0675 36.9265 60.994 36.9283Z" fill="#292625"/>
<path d="M29.3517 27.278L39.4134 27.0425C49.435 27.4475 55.8161 34.2713 58.9105 38.8418L61.0382 38.792C61.0442 38.2619 54.1891 23.5244 39.317 22.9234L34.3688 23.0392L34.2035 23.0431L29.2553 23.1589C14.4276 24.4549 8.27206 39.497 8.3002 40.0262L10.4306 39.9764C13.3077 35.2661 19.36 28.1513 29.3517 27.278Z" fill="#2E2227"/>
<path d="M17.361 46.8315C14.819 53.5255 9.54652 57.7306 5.58412 56.2237C1.62434 54.7168 0.471219 48.0689 3.01315 41.3749C5.55508 34.6809 10.8276 30.4761 14.7874 31.983C18.7498 33.4898 19.9003 40.1378 17.361 46.8315Z" fill="#F2591D"/>
<path d="M12.9783 31.9578C9.36023 32.0424 5.36982 35.9558 3.27552 41.4743C0.79297 48.0135 1.87174 54.5131 5.68317 55.9628C6.22084 56.167 6.79538 56.2634 7.39357 56.2494C11.0142 56.1646 15.0046 52.2512 17.0989 46.7327C18.3105 43.5412 18.7143 40.2659 18.2376 37.5101C17.7701 34.8064 16.5083 32.9366 14.6886 32.244C14.1536 32.0401 13.5764 31.9438 12.9783 31.9578ZM7.40663 56.8074C6.7376 56.823 6.08928 56.7147 5.48538 56.4848C1.38788 54.9257 0.159792 48.1032 2.75373 41.2758C4.92719 35.5505 9.12678 31.4893 12.9652 31.3995C13.6368 31.3837 14.2825 31.4924 14.8864 31.7221C16.8994 32.4874 18.2855 34.509 18.7867 37.4148C19.2813 40.2679 18.8669 43.6475 17.6207 46.931C15.4472 52.6563 11.2477 56.7175 7.40663 56.8074Z" fill="#292625"/>
<path d="M17.9474 47.5394C15.1632 54.8738 16.8626 65.68 7.5449 59.0098C5.03447 57.0672 4.43083 50.7916 7.21503 43.4574C9.99924 36.1233 14.5493 31.4438 17.623 32.2186C28.4867 34.9573 20.7316 40.2052 17.9474 47.5394Z" fill="#F3ED99"/>
<path d="M16.8628 32.2673C13.7879 32.3393 9.78241 37.0651 7.33689 43.5041C4.4439 51.1256 5.32463 57.1278 7.62383 58.9061C9.59946 60.3189 11.1378 60.9933 12.3263 60.9655C14.8582 60.9063 15.5119 57.5455 16.2661 53.654C16.6691 51.5807 17.0862 49.4367 17.8256 47.493C18.5722 45.5215 19.6945 43.6747 20.6828 42.0454C22.2626 39.4438 23.625 37.197 22.9093 35.4463C22.3665 34.1259 20.6286 33.1119 17.5892 32.3462C17.3595 32.288 17.1147 32.2614 16.8628 32.2673ZM12.3325 61.2281C11.0836 61.2573 9.49239 60.5668 7.46864 59.1168C5.0919 57.278 4.1531 51.1505 7.09319 43.4107C9.57322 36.8761 13.6795 32.0791 16.8567 32.0047C17.1322 31.9982 17.4006 32.0274 17.6541 32.0914C20.8203 32.8899 22.5692 33.9241 23.1511 35.3466C23.9195 37.2201 22.5216 39.5195 20.9065 42.1818C19.9233 43.8015 18.8086 45.6371 18.0693 47.5863C17.3399 49.5088 16.9251 51.6417 16.5245 53.7041C15.7467 57.7071 15.0742 61.1639 12.3325 61.2281Z" fill="#292625"/>
<path d="M21.3748 49.0642C18.5906 56.3984 13.9307 61.4301 10.9669 60.303C8.00564 59.1758 7.85823 52.3164 10.6424 44.9822C13.4293 37.648 18.0865 32.6163 21.0504 33.7434C24.0142 34.8706 24.159 41.73 21.3748 49.0642Z" fill="#2E2227"/>
<path d="M54.7632 45.9561C57.6155 52.5239 63.079 56.4777 66.9665 54.7871C70.8515 53.0966 71.6923 46.402 68.84 39.8343C65.9877 33.2666 60.5243 29.313 56.6393 31.0035C52.7517 32.6941 51.9135 39.3886 54.7632 45.9561Z" fill="#F2591D"/>
<path d="M58.4431 30.8937C57.8475 30.9076 57.2755 31.0309 56.7506 31.2596C53.0112 32.8863 52.235 39.4291 55.0208 45.8452C57.3709 51.2594 61.5401 54.9819 65.1607 54.8974C65.7589 54.8834 66.3283 54.7602 66.8532 54.5312C68.6411 53.7545 69.8114 51.8275 70.1519 49.1051C70.5018 46.3297 69.9426 43.0769 68.583 39.9459C66.2329 34.5314 62.0637 30.809 58.4431 30.8937ZM65.1738 55.4554C61.3327 55.5453 56.9477 51.6847 54.5088 46.0677C51.601 39.3693 52.5059 32.4966 56.5286 30.7475C57.1211 30.4898 57.761 30.3511 58.43 30.3354C62.2711 30.2455 66.6561 34.1058 69.095 39.7232C70.4934 42.9448 71.0655 46.3015 70.7075 49.1746C70.3402 52.1007 69.0502 54.185 67.0778 55.0433C66.4827 55.3013 65.8428 55.4398 65.1738 55.4554Z" fill="#292625"/>
<path d="M54.2112 46.6906C57.3355 53.8868 56.1436 64.7607 65.139 57.6618C67.5558 55.604 67.8652 49.307 64.7409 42.1111C61.6167 34.9152 56.8527 30.4537 53.8186 31.3715C43.0949 34.6154 51.087 39.4948 54.2112 46.6906Z" fill="#F3ED99"/>
<path d="M54.5812 31.3846C54.3293 31.3905 54.0861 31.4285 53.8593 31.4974C50.859 32.4045 49.1705 33.4986 48.69 34.843C48.0571 36.6253 49.523 38.8059 51.2228 41.331C52.2862 42.912 53.4937 44.7043 54.3318 46.6386C55.1613 48.5456 55.6782 50.6675 56.1778 52.7199C57.1132 56.5719 57.9235 59.8984 60.4553 59.8392C61.6438 59.8114 63.1489 59.0657 65.0588 57.5588C67.2671 55.6782 67.8688 49.6413 64.6224 42.1635C61.8783 35.846 57.6561 31.3126 54.5812 31.3846ZM60.4614 60.1018C57.7197 60.1659 56.8862 56.7443 55.922 52.7819C55.4253 50.7407 54.9113 48.6295 54.0927 46.7433C53.2604 44.8308 52.0637 43.0493 51.0058 41.4774C49.2679 38.8936 47.7639 36.6621 48.4438 34.755C48.9586 33.3065 50.6545 32.1917 53.7825 31.2459C54.0327 31.1702 54.2996 31.1285 54.575 31.122C57.7523 31.0477 62.0784 35.6474 64.8615 42.0588C68.1604 49.6526 67.5093 55.8173 65.2237 57.762C63.2648 59.3084 61.7077 60.0726 60.4614 60.1018Z" fill="#292625"/>
<path d="M50.8593 48.3742C53.9835 55.5701 58.8737 60.3784 61.779 59.1139C64.6869 57.8493 64.5132 50.9905 61.3863 43.7947C58.2621 36.5988 53.3719 31.7906 50.4666 33.0551C47.5588 34.3197 47.7324 41.1784 50.8593 48.3742Z" fill="#2E2227"/>
<path d="M58.7516 50.6748C60.6765 48.9106 62.1982 46.6267 63.1467 44.0822C59.581 45.0566 55.5592 43.7046 53.1002 40.7057C54.5612 40.5467 56.0663 40.9203 57.3248 41.7534C56.3492 39.0984 54.4591 36.8542 52.1189 35.5674C53.6384 35.4359 55.19 35.7835 56.5417 36.5571C50.4051 32.5568 42.8335 31.2871 35.901 33.0967C35.8358 33.1135 35.7706 33.1316 35.7053 33.1494C35.6394 33.1346 35.5734 33.1196 35.5074 33.1059C28.5005 31.6225 20.9966 33.2451 15.0539 37.5281C16.3679 36.692 17.9016 36.2723 19.4255 36.3325C17.1455 37.7274 15.3651 40.0576 14.5147 42.7554C15.7303 41.8643 17.2188 41.4207 18.6857 41.5111C16.3697 44.6218 12.4155 46.1605 8.80818 45.3539C9.87466 47.8513 11.5014 50.0615 13.5068 51.7337C12.1907 51.8097 11.7325 53.6533 11.6506 55.0895C11.35 60.3009 11.3029 65.5815 12.2811 70.6987C13.2592 75.8158 15.3315 80.7985 18.7794 84.4361C22.2246 88.0738 27.1495 90.2145 31.8687 89.3957C33.6073 89.0941 35.295 88.4124 36.9849 87.8217C38.7005 88.3327 40.4209 88.9346 42.1691 89.1546C46.924 89.7517 51.7434 87.383 55.0147 83.5881C58.286 79.7932 60.1255 74.7189 60.8632 69.5617C61.6009 64.4044 61.3069 59.1317 60.7628 53.9401C60.6111 52.5093 60.0672 50.6892 58.7516 50.6748Z" fill="#F2591D"/>
<path d="M36.9778 87.5427C37.0066 87.542 37.0356 87.5458 37.0647 87.5543C37.3845 87.6498 37.7071 87.7484 38.0297 87.8476C39.3941 88.2675 40.806 88.7019 42.2041 88.8778C42.7675 88.9484 43.3457 88.9775 43.9229 88.964C47.8138 88.8732 51.8813 86.7953 54.8024 83.4059C57.7799 79.9524 59.7807 75.1515 60.5861 69.5221C61.3646 64.0898 60.9713 58.6117 60.4846 53.9691C60.3326 52.5192 59.7974 50.9655 58.7471 50.9544C58.6316 50.9531 58.5302 50.8819 58.4883 50.7749C58.449 50.6679 58.4777 50.5466 58.5625 50.4692C60.3306 48.8474 61.7524 46.785 62.6907 44.4788C62.1421 44.5938 61.5793 44.6585 61.0099 44.6718C57.9245 44.744 54.8883 43.3277 52.8832 40.883C52.8184 40.8039 52.8027 40.6952 52.8399 40.6003C52.8796 40.5053 52.9673 40.4394 53.0695 40.4284C54.3106 40.2924 55.6157 40.5356 56.7604 41.106C55.7467 38.8447 54.0379 36.942 51.9849 35.8121C51.8759 35.7532 51.8205 35.6302 51.8466 35.5098C51.87 35.3895 51.9729 35.3001 52.0934 35.2894C52.6829 35.2385 53.274 35.2568 53.8587 35.3405C50.0763 33.449 45.8324 32.4782 41.6398 32.5763C39.7167 32.6214 37.8092 32.8872 35.9724 33.3669L35.7793 33.419C35.735 33.431 35.6904 33.4321 35.6455 33.4221L35.4503 33.3791C33.593 32.9859 31.6752 32.8096 29.752 32.8546C25.5594 32.9527 21.363 34.121 17.6759 36.1874C18.2534 36.0764 18.8456 36.0302 19.4342 36.0537C19.5577 36.0587 19.662 36.1432 19.6937 36.2623C19.7254 36.3814 19.6732 36.5069 19.5697 36.5708C17.5691 37.7955 15.9538 39.776 15.047 42.0823C16.1638 41.4589 17.4535 41.155 18.7023 41.2327C18.8048 41.2389 18.8955 41.3007 18.9396 41.3937C18.9812 41.4868 18.9706 41.5961 18.9096 41.6782C17.0211 44.2137 14.0518 45.7705 10.9664 45.843C10.3997 45.8563 9.83437 45.818 9.28102 45.7288C10.3262 47.9888 11.8429 49.9825 13.6849 51.5195C13.7733 51.5928 13.8076 51.7126 13.7707 51.8215C13.7365 51.9303 13.6359 52.0062 13.5232 52.0128C12.4746 52.073 12.0127 53.6501 11.9287 55.1055C11.6597 59.7657 11.5231 65.2566 12.5549 70.6462C13.6228 76.2318 15.846 80.9341 18.9817 84.2442C22.0582 87.493 26.2185 89.3783 30.1094 89.2873C30.6866 89.2738 31.2602 89.2178 31.8223 89.1208C33.2106 88.8797 34.6006 88.3797 35.9439 87.8964C36.2615 87.7825 36.5765 87.6688 36.8941 87.5583C36.9201 87.5485 36.9489 87.5434 36.9778 87.5427ZM43.936 89.5222C43.3325 89.5364 42.7254 89.5059 42.1357 89.4317C40.6876 89.2499 39.2518 88.8084 37.8637 88.3814C37.5728 88.2918 37.282 88.2022 36.9912 88.1152C36.7048 88.2159 36.4184 88.3191 36.1321 88.4219C34.7654 88.9134 33.3545 89.4215 31.9165 89.6709C31.3283 89.7727 30.7259 89.8314 30.1224 89.8455C26.0768 89.9402 21.7601 87.99 18.576 84.6284C15.3676 81.2406 13.0948 76.442 12.0061 70.7513C10.965 65.3014 11.1006 59.7678 11.3714 55.0734C11.4756 53.2464 12.0425 52.0033 12.9202 51.597C11.0676 49.9426 9.56128 47.8328 8.5503 45.4637C8.51129 45.3674 8.52705 45.2561 8.59341 45.1755C8.65978 45.0951 8.76658 45.0587 8.86949 45.0815C9.54506 45.2331 10.2475 45.3012 10.9533 45.2847C13.6871 45.2205 16.3264 43.9215 18.1166 41.7821C16.8995 41.8224 15.6809 42.2471 14.6769 42.9808C14.5814 43.0522 14.4476 43.0527 14.3514 42.9824C14.2526 42.9119 14.2103 42.7865 14.247 42.6714C15.0144 40.2415 16.5312 38.0891 18.4792 36.6368C17.324 36.7437 16.2016 37.1291 15.2032 37.7639C15.0765 37.8449 14.9076 37.8102 14.8233 37.6847C14.739 37.5598 14.7692 37.3899 14.8905 37.3017C19.1965 34.1972 24.4707 32.4196 29.739 32.2963C31.7067 32.2502 33.6666 32.4308 35.5661 32.8328L35.698 32.862L35.8311 32.8266C37.7097 32.3362 39.659 32.0641 41.6268 32.0181C46.8819 31.8951 52.2202 33.4167 56.6612 36.3033C56.7541 36.3466 56.8219 36.4404 56.8245 36.5507C56.8281 36.7048 56.7051 36.8328 56.5529 36.8363C56.5503 36.8361 56.5477 36.8367 56.5477 36.8365C56.4978 36.8376 56.4477 36.8259 56.4024 36.7997C55.3754 36.2123 54.2362 35.8798 53.0773 35.827C55.0751 37.1775 56.6852 39.2379 57.5676 41.6089C57.5922 41.6491 57.609 41.6963 57.6102 41.7469C57.6138 41.9011 57.4908 42.029 57.336 42.0326C57.336 42.0326 57.3334 42.033 57.3308 42.0328C57.2757 42.0341 57.2202 42.0185 57.1722 41.9863C56.135 41.3004 54.8978 40.9331 53.6802 40.9498C55.5684 43.0033 58.2656 44.1774 60.9969 44.1135C61.7052 44.097 62.4038 43.9957 63.0715 43.813C63.1732 43.7854 63.279 43.8171 63.3517 43.8939C63.4217 43.9714 63.4427 44.0818 63.4056 44.1799C62.5092 46.5936 61.1032 48.7715 59.33 50.5109C60.2258 50.8756 60.8476 52.091 61.0398 53.9109C61.5299 58.5876 61.9242 64.1088 61.1392 69.6014C60.3179 75.3365 58.2721 80.2362 55.2257 83.7707C52.2023 87.2776 47.9816 89.4276 43.936 89.5222Z" fill="#292625"/>
<path d="M30.342 36.1704C31.9129 35.9907 33.5416 36.3771 34.8639 37.2432C34.4703 35.6809 32.962 34.6043 31.3965 34.2285C29.831 33.8529 28.1948 34.0435 26.5919 34.2001C27.2894 34.3916 27.9578 34.6862 28.5706 35.0718C25.9337 34.9049 23.2531 35.5578 20.9906 36.9173C21.6816 36.9442 22.3752 36.9711 23.0689 36.9982C21.1085 37.6968 19.2185 38.5941 17.4403 39.6717C21.4996 38.4771 25.9565 38.6797 29.8938 40.2376C29.919 38.7352 28.4897 37.6722 27.2137 36.8784C28.9912 36.7776 30.793 37.1588 32.3766 37.9706C31.7496 37.3156 31.0687 36.7125 30.342 36.1704Z" fill="#D34B20"/>
<path d="M40.8419 35.9244C39.2644 35.8184 37.6555 36.2806 36.3752 37.2076C36.6952 35.6287 38.1516 34.4827 39.6951 34.034C41.2413 33.5856 42.8873 33.6995 44.4958 33.7809C43.808 34.0048 43.1541 34.3304 42.56 34.7442C45.1862 34.4541 47.8945 34.9809 50.2181 36.2331C49.5291 36.2923 48.8374 36.3516 48.1458 36.4111C50.1367 37.0172 52.0667 37.8251 53.8933 38.8184C49.7826 37.815 45.3401 38.2259 41.4799 39.9662C41.3844 38.4666 42.7624 37.338 43.9999 36.4853C42.2197 36.4678 40.4376 36.9328 38.8938 37.8179C39.4894 37.1342 40.1414 36.4999 40.8419 35.9244Z" fill="#D34B20"/>
<path d="M52.8416 46.9404C52.8262 46.3945 52.8415 45.8159 53.1326 45.3532C53.335 45.029 53.6654 44.7882 54.036 44.6949C54.1195 44.6738 54.2084 44.6599 54.2926 44.6669C54.4477 44.6795 54.5861 44.7562 54.7242 44.827C56.2336 45.6096 58.014 45.8598 59.6836 45.5241C59.8694 45.7239 59.8665 46.0501 59.7383 46.2919C59.6101 46.5335 59.3804 46.7046 59.1422 46.8421C58.72 47.0884 58.2488 47.2537 57.7622 47.3263C58.1784 47.6116 58.2467 48.2884 57.8956 48.6514C57.6802 48.8732 57.3674 48.964 57.07 49.0459C56.6814 49.1532 56.2928 49.2603 55.9041 49.3674C55.2625 49.5443 54.5551 49.7167 53.9526 49.4325C53.5199 49.228 53.2161 48.8092 53.0533 48.3577C52.8904 47.9062 52.8581 47.4201 52.8416 46.9404Z" fill="#F7A80E"/>
<path d="M15.8137 50.5925C16.1057 50.6193 16.4048 50.61 16.6837 50.5267C17.6431 50.2428 18.174 49.1476 18.1374 48.1472C18.0983 47.1471 17.6225 46.2218 17.1503 45.3406C15.6772 46.555 13.6032 46.9966 11.7669 46.4868C12.1786 47.2533 12.9826 47.7337 13.8006 48.029C13.978 48.0932 14.2026 48.2661 14.0906 48.4185C13.7938 48.2959 13.4124 48.4887 13.3357 48.799C13.2543 49.1377 13.4957 49.4681 13.7558 49.7001C14.3241 50.2049 15.0561 50.5225 15.8137 50.5925Z" fill="#F7A80E"/>
<path d="M59.8122 64.6074C59.4647 63.7781 58.6669 63.2256 57.7659 63.2026C57.7663 63.2165 58.4903 62.9723 58.5733 62.9275C58.8792 62.7627 59.1414 62.5261 59.3448 62.2431C59.7082 61.7312 59.8349 61.0882 59.7443 60.4708C59.5642 59.2806 58.4903 58.3751 57.2796 58.4646C57.2769 58.4589 57.2767 58.4529 57.2766 58.4471C58.5482 58.1557 59.25 56.8481 58.9087 55.6099C58.7538 55.0518 58.43 54.5649 57.9473 54.2394C57.6699 54.0535 57.3522 53.9367 57.0231 53.895C56.9178 53.882 56.0502 53.9388 56.0613 53.9664C57.2266 53.3942 57.6261 51.9553 57.0012 50.8293C56.3791 49.7086 55.0079 49.2241 53.866 49.8948C53.8741 49.9051 54.3538 49.3159 54.4018 49.2333C54.5529 48.9599 54.6403 48.6581 54.6671 48.3461C54.718 47.7175 54.4826 47.0793 54.0648 46.6127C53.2078 45.6622 51.7654 45.4979 50.802 46.3985C50.8047 46.4016 51.1313 45.7752 51.1582 45.6892C51.2585 45.3757 51.2849 45.0459 51.2405 44.7198C51.1551 44.0989 50.7929 43.5409 50.2934 43.1713C49.2621 42.4012 47.7881 42.571 47.0443 43.6515C47.0549 43.6565 47.2372 42.9231 47.2429 42.8281C47.2665 42.4897 47.206 42.1508 47.0753 41.8383C46.8472 41.2882 46.3934 40.8535 45.8522 40.6121C44.6795 40.0812 43.2785 40.5641 42.7845 41.7767C42.7871 41.7776 42.818 41.0759 42.808 40.9858C42.7663 40.661 42.6514 40.3541 42.477 40.0787C42.1582 39.5793 41.6381 39.2323 41.0678 39.0898C39.7819 38.7686 38.4478 39.5321 38.2219 40.87C38.2297 40.8709 38.0864 40.1302 38.0528 40.0406C37.941 39.75 37.7669 39.4905 37.544 39.2743C37.0928 38.8371 36.457 38.5948 35.8277 38.6234C35.1878 38.6523 34.5896 38.8891 34.1492 39.3613C33.9366 39.5883 33.7776 39.8595 33.6821 40.1552C33.6501 40.2464 33.5468 40.9926 33.5547 40.9914C33.2673 39.7049 31.9916 39.0343 30.7462 39.3246C30.1666 39.4593 29.6449 39.8272 29.3232 40.325C29.1458 40.6001 29.0297 40.9081 28.9927 41.2337C28.9793 41.3336 29.0296 42.139 29.0452 42.1337C28.4871 40.945 27.0947 40.5611 25.9422 41.1162C25.3789 41.3876 24.9365 41.8904 24.7404 42.484C24.6473 42.7663 24.6122 43.0624 24.6401 43.3584C24.6503 43.4583 24.8733 44.2352 24.8862 44.2265C24.0874 43.1832 22.6418 43.1083 21.6365 43.8972C21.1442 44.2836 20.8192 44.8698 20.7551 45.4922C20.7252 45.7882 20.7558 46.0854 20.8464 46.3686C20.8776 46.4638 21.2644 47.1762 21.2772 47.1641C20.2677 46.3141 18.84 46.5554 18.031 47.5456C17.2143 48.5401 17.3726 50.0321 18.409 50.7987C18.4116 50.7937 17.7373 50.5869 17.6478 50.5751C17.316 50.5306 16.9728 50.5625 16.6578 50.6747C16.0512 50.8899 15.5971 51.3396 15.3138 51.9098C14.7423 53.0645 15.2323 54.4855 16.4203 54.9945C16.4302 54.9672 15.5583 54.9545 15.4538 54.973C15.127 55.0313 14.8151 55.1645 14.5494 55.3649C14.0825 55.716 13.7897 56.2192 13.6612 56.7834C13.5137 57.4348 13.6404 58.1389 14.0415 58.6776C14.2151 58.9144 14.4376 59.1142 14.6905 59.2622C14.7703 59.3074 15.4351 59.5603 15.4376 59.5527C14.2976 59.5239 13.2989 60.3718 13.0993 61.4884C12.8607 62.8452 13.7819 64.1836 15.1862 64.2897C15.1858 64.2753 14.4504 64.484 14.3674 64.5243C14.0844 64.6592 13.8291 64.8535 13.6246 65.0909C13.2157 65.566 13.0363 66.1997 13.0823 66.8187C13.1278 67.4175 13.3718 67.9751 13.8069 68.3929C14.0351 68.6096 14.3093 68.7713 14.6056 68.8711C14.7035 68.9032 15.57 69.0248 15.5639 68.9911C14.2586 69.2993 13.6093 70.6067 13.9433 71.8666C14.096 72.4453 14.4993 72.965 15.0155 73.2621C15.3082 73.4316 15.6335 73.5317 15.975 73.5439C16.0696 73.5472 16.9173 73.4268 16.9007 73.3909C15.6636 74.0339 15.4203 75.5283 16.1632 76.6507C16.4898 77.147 17.0342 77.5241 17.6221 77.6299C17.941 77.6873 18.2716 77.6767 18.5818 77.5849C18.6757 77.5577 19.4902 77.1419 19.4499 77.1013C18.5178 78.1026 18.7636 79.6342 19.8579 80.402C20.9441 81.1609 22.4245 80.9316 23.103 79.7515C23.0871 79.7427 22.9333 80.4636 22.9301 80.5488C22.9144 80.887 22.9749 81.2319 23.1212 81.5382C23.3918 82.107 23.885 82.5422 24.4777 82.7435C25.6982 83.1831 27.0597 82.5858 27.4555 81.3264C27.4476 81.3245 27.4669 82.0351 27.4847 82.1227C27.5474 82.4475 27.6831 82.752 27.8758 83.0202C28.2204 83.498 28.755 83.7978 29.3248 83.9169C30.6069 84.1859 31.8948 83.3571 32.111 82.0512C32.1084 82.0512 32.2347 82.7382 32.2656 82.8242C32.3752 83.1327 32.555 83.4125 32.7811 83.6487C33.2062 84.0923 33.8075 84.3228 34.4144 84.3449C35.6679 84.4004 36.7929 83.4518 36.855 82.1795C36.8602 82.1794 37.0402 82.8047 37.0762 82.8835C37.2087 83.161 37.3982 83.4093 37.6287 83.6104C38.127 84.0409 38.7827 84.2384 39.4348 84.1722C40.0136 84.1134 40.5776 83.8719 40.9769 83.4393C41.1945 83.2025 41.3638 82.9192 41.4669 82.6144C41.5014 82.5185 41.6194 81.727 41.6063 81.7288C41.8922 82.9539 43.1494 83.7287 44.3792 83.4456C44.9458 83.3149 45.482 83.0083 45.8278 82.5289C46.0184 82.2614 46.1529 81.9506 46.2136 81.627C46.2323 81.5294 46.2343 80.7172 46.216 80.7226C46.6858 81.9515 48.0684 82.4751 49.2616 81.9764C49.8184 81.7642 50.2754 81.3239 50.5226 80.7834C50.6625 80.4793 50.7283 80.1507 50.7126 79.8163C50.7078 79.7216 50.5262 78.9179 50.5003 78.9322C51.2251 80.0657 52.7178 80.2481 53.7622 79.4449C54.822 78.6316 55.0227 77.1117 54.0601 76.1368C54.0396 76.1583 54.7043 76.5164 54.7837 76.544C55.1066 76.6554 55.4509 76.6747 55.7857 76.6225C56.4265 76.5229 56.9785 76.1079 57.3283 75.5727C58.0498 74.4334 57.7206 72.9314 56.473 72.3413C56.4656 72.3627 57.1978 72.4667 57.2818 72.465C57.6282 72.4595 57.9619 72.364 58.2624 72.1925C58.8142 71.8758 59.2238 71.3197 59.3641 70.6967C59.6519 69.423 58.9316 68.1424 57.6159 67.896C57.6092 67.945 58.565 67.7353 58.6664 67.6904C59.0431 67.5221 59.3596 67.2496 59.5904 66.9068C60.0368 66.24 60.1183 65.3485 59.8122 64.6074C59.9347 64.904 59.6872 64.311 59.8122 64.6074Z" fill="#F7A80E"/>
<path d="M55.9309 60.3915C55.6416 59.6967 54.9719 59.2339 54.218 59.2145C54.2183 59.2264 54.8252 59.0217 54.8952 58.984C55.1518 58.8461 55.3703 58.6479 55.538 58.4109C55.843 57.9821 55.9512 57.443 55.8734 56.9262C55.7241 55.9289 54.8243 55.1702 53.8101 55.2454C53.8074 55.2405 53.8073 55.2355 53.8072 55.2307C54.8725 54.9864 55.4612 53.8912 55.1744 52.8538C55.0453 52.3862 54.7732 51.9783 54.3678 51.7056C54.1384 51.5499 53.871 51.4518 53.5945 51.417C53.5077 51.4062 52.779 51.454 52.79 51.4769C53.7659 50.9974 54.0999 49.792 53.5764 48.8489C53.0557 47.9097 51.9069 47.5039 50.9514 48.0659C50.9569 48.0747 51.3601 47.5808 51.3978 47.5116C51.5263 47.2826 51.5992 47.0297 51.6219 46.7685C51.6647 46.2418 51.4685 45.707 51.1154 45.3164C50.3985 44.52 49.1904 44.3822 48.3838 45.1368C48.3864 45.1393 48.6577 44.6146 48.6823 44.5426C48.7654 44.28 48.7878 44.0036 48.7499 43.7304C48.6773 43.2103 48.3776 42.7428 47.9582 42.4331C47.0926 41.7879 45.8595 41.9302 45.2349 42.8355C45.2429 42.8398 45.3965 42.2254 45.4025 42.1456C45.4222 41.8622 45.3709 41.5783 45.2624 41.3163C45.0705 40.8557 44.6892 40.4913 44.2382 40.2893C43.2539 39.8446 42.0794 40.2489 41.6674 41.2648C41.6674 41.2656 41.6957 40.6777 41.686 40.6023C41.6534 40.3301 41.5555 40.0733 41.4084 39.8423C41.1413 39.424 40.7066 39.1334 40.2287 39.014C39.1488 38.745 38.0349 39.3843 37.8433 40.5054C37.8512 40.506 37.7316 39.8853 37.701 39.8106C37.6087 39.5671 37.4645 39.3495 37.2765 39.1684C36.8978 38.8024 36.3654 38.5991 35.8383 38.623C35.3033 38.6474 34.8013 38.8456 34.4326 39.2413C34.2533 39.4315 34.1195 39.6588 34.0386 39.9066C34.0142 39.9828 33.9264 40.6081 33.9343 40.6071C33.6938 39.5292 32.6253 38.9673 31.581 39.2106C31.0954 39.3236 30.659 39.6318 30.3905 40.0487C30.241 40.279 30.1446 40.5371 30.1116 40.8098C30.1005 40.8936 30.1451 41.5684 30.1555 41.5639C29.6886 40.568 28.5234 40.2464 27.5577 40.7114C27.0853 40.9387 26.7119 41.3602 26.5503 41.8574C26.4718 42.0939 26.4409 42.3419 26.4677 42.5898C26.4749 42.6734 26.6607 43.3246 26.6737 43.317C26.0022 42.443 24.7932 42.3802 23.9503 43.0412C23.5378 43.3651 23.2658 43.856 23.2124 44.3775C23.1867 44.6256 23.2109 44.8746 23.2873 45.1119C23.3154 45.1917 23.6392 45.7884 23.6494 45.7782C22.8032 45.066 21.6083 45.2681 20.9268 46.0978C20.2454 46.9309 20.3771 48.1808 21.2452 48.8231C21.2478 48.8189 20.682 48.6458 20.6082 48.6357C20.3291 48.5986 20.0436 48.6253 19.778 48.7193C19.2703 48.8996 18.888 49.2763 18.6524 49.754C18.1737 50.7213 18.5848 51.9116 19.5792 52.3382C19.5865 52.3152 18.8565 52.3047 18.7702 52.3201C18.4957 52.3691 18.2359 52.4805 18.0114 52.6487C17.6219 52.9426 17.3745 53.3643 17.2674 53.8371C17.1437 54.3826 17.252 54.9722 17.5855 55.424C17.7319 55.6223 17.9195 55.7895 18.1298 55.9136C18.1963 55.9515 18.7552 56.1633 18.755 56.157C17.8016 56.1328 16.965 56.8431 16.7979 57.7784C16.5961 58.9153 17.3679 60.0365 18.5434 60.1254C18.5457 60.1132 17.9303 60.2882 17.8576 60.3219C17.6214 60.4349 17.4099 60.5975 17.2387 60.7965C16.8962 61.1947 16.7433 61.7256 16.7843 62.244C16.8223 62.7458 17.0249 63.2129 17.3901 63.563C17.5807 63.7443 17.8122 63.88 18.061 63.9635C18.1403 63.9905 18.8672 64.092 18.864 64.064C17.7701 64.3224 17.2261 65.4173 17.5054 66.4728C17.6323 66.9577 17.9706 67.3931 18.4017 67.6421C18.6491 67.7839 18.9215 67.8679 19.2052 67.8781C19.284 67.881 19.9957 67.78 19.9819 67.7501C18.9445 68.2886 18.7427 69.5405 19.3633 70.4808C19.6381 70.8966 20.0918 71.2128 20.5848 71.3011C20.8537 71.3495 21.1291 71.3404 21.3924 71.2636C21.468 71.2408 22.1502 70.8922 22.1179 70.8585C21.3369 71.6971 21.5428 72.9802 22.4609 73.6235C23.3683 74.2594 24.6108 74.0671 25.1783 73.0785C25.165 73.0712 25.0373 73.6751 25.0338 73.7467C25.0194 74.03 25.0708 74.3188 25.1923 74.5756C25.4187 75.0519 25.8315 75.4164 26.329 75.5852C27.3535 75.9535 28.4916 75.4532 28.8239 74.3981C28.8186 74.3964 28.8352 74.9916 28.85 75.0651C28.901 75.3372 29.0172 75.5922 29.1774 75.817C29.465 76.2173 29.9145 76.4685 30.3894 76.5685C31.463 76.7937 32.5441 76.0992 32.7233 75.0052C32.7233 75.0052 32.8286 75.5808 32.8539 75.6527C32.9466 75.9112 33.0964 76.1457 33.2848 76.3436C33.6427 76.7151 34.1459 76.9083 34.6556 76.9269C35.7041 76.9733 36.6463 76.1785 36.7001 75.1126C36.7028 75.1125 36.8541 75.6363 36.8846 75.7023C36.995 75.9349 37.1548 76.1429 37.3477 76.3116C37.7631 76.6723 38.3156 76.8375 38.8603 76.7822C39.3448 76.7328 39.8178 76.5307 40.1506 76.1682C40.3349 75.9697 40.4764 75.7326 40.5623 75.477C40.5893 75.3968 40.6893 74.7336 40.6788 74.7352C40.9207 75.7613 41.9728 76.4104 43.0016 76.1735C43.4768 76.0638 43.9275 75.8071 44.2147 75.4055C44.3749 75.1813 44.4869 74.9209 44.5383 74.6499C44.5548 74.568 44.5572 73.8877 44.5416 73.8923C44.9358 74.9217 46.0933 75.3602 47.0942 74.9426C47.5599 74.7649 47.9424 74.396 48.1497 73.9429C48.2671 73.6882 48.321 73.4129 48.3092 73.1328C48.3047 73.0536 48.1525 72.3803 48.1317 72.3921C48.7367 73.3417 49.9872 73.4948 50.864 72.8219C51.7511 72.1403 51.9208 70.867 51.1115 70.0504C51.0962 70.0684 51.6545 70.3683 51.7207 70.3914C51.988 70.4847 52.2771 70.5011 52.5596 70.4572C53.0932 70.3737 53.5575 70.0263 53.8516 69.5778C54.454 68.6233 54.1804 67.3649 53.1346 66.8707C53.1271 66.8885 53.7408 66.9758 53.8116 66.9741C54.1003 66.9697 54.3819 66.8896 54.6332 66.7458C55.0943 66.4806 55.4377 66.0149 55.5568 65.4927C55.7969 64.4258 55.1917 63.353 54.0922 63.1465C54.0853 63.1877 54.8871 63.012 54.9702 62.9744C55.2871 62.8332 55.5522 62.605 55.745 62.318C56.1204 61.7593 56.1869 61.0124 55.9309 60.3915C56.0339 60.64 55.828 60.1432 55.9309 60.3915Z" fill="#F2CC46"/>
<path d="M52.0495 56.1753C51.8159 55.6151 51.2769 55.242 50.6675 55.2266C50.6677 55.2358 51.1574 55.0709 51.2144 55.0406C51.4218 54.9291 51.5992 54.7694 51.7339 54.5784C51.9804 54.2324 52.0674 53.7979 52.0051 53.381C51.8839 52.577 51.1582 51.9653 50.3406 52.0259C50.3379 52.0218 50.3378 52.0178 50.3377 52.0139C51.1967 51.8169 51.6696 50.9338 51.44 50.0974C51.334 49.7205 51.119 49.3916 50.7909 49.1717C50.6042 49.046 50.3897 48.967 50.166 48.9388C50.0949 48.9302 49.5104 48.9686 49.5161 48.9872C50.305 48.6006 50.5737 47.6285 50.1516 46.868C49.7323 46.1109 48.8058 45.7836 48.0341 46.2368C48.0396 46.2437 48.3636 45.8457 48.3965 45.7898C48.4998 45.6053 48.558 45.4013 48.5741 45.1908C48.6114 44.7658 48.4517 44.3347 48.1687 44.0198C47.5892 43.3775 46.6153 43.2666 45.9654 43.8748C45.9681 43.8768 46.1866 43.4537 46.2062 43.3957C46.2748 43.1839 46.2906 42.9613 46.2592 42.741C46.2021 42.3215 45.9596 41.9446 45.6204 41.695C44.9231 41.1746 43.9282 41.2893 43.4255 42.0191C43.4335 42.0226 43.5558 41.5271 43.5595 41.4632C43.5752 41.2345 43.5357 41.0055 43.4468 40.7943C43.2937 40.4229 42.9875 40.129 42.6215 39.966C41.8282 39.6075 40.8829 39.9336 40.5477 40.7528C40.5503 40.7535 40.5707 40.2793 40.564 40.2185C40.5379 39.999 40.4596 39.7919 40.3397 39.6058C40.1244 39.2682 39.7751 39.0339 39.3895 38.9378C38.5182 38.721 37.6194 39.2365 37.4672 40.1402C37.4725 40.1408 37.3742 39.6405 37.3517 39.5801C37.2763 39.3838 37.1593 39.2084 37.0089 39.0624C36.7027 38.7671 36.2736 38.6032 35.8488 38.6226C35.4187 38.6422 35.013 38.8022 34.7133 39.1211C34.5725 39.2744 34.4639 39.4577 34.3977 39.6576C34.3782 39.7191 34.3086 40.2231 34.3138 40.2224C34.1176 39.3534 33.2565 38.9001 32.4158 39.0963C32.0241 39.1874 31.6729 39.4358 31.455 39.772C31.336 39.9579 31.2569 40.166 31.2305 40.386C31.2216 40.4535 31.258 40.9975 31.2684 40.9939C30.8899 40.1909 29.9494 39.9317 29.1706 40.3065C28.789 40.4899 28.4898 40.8295 28.3601 41.2306C28.2963 41.4213 28.2721 41.6213 28.2925 41.8213C28.2993 41.8886 28.4481 42.4138 28.4585 42.4075C27.917 41.7029 26.9419 41.6521 26.264 42.1851C25.9288 42.4465 25.7097 42.8423 25.667 43.2626C25.6481 43.4628 25.6659 43.6633 25.7281 43.8547C25.7507 43.9191 26.0113 44.4004 26.019 44.3921C25.3388 43.8179 24.3739 43.9808 23.8252 44.6499C23.2765 45.3215 23.3815 46.3295 24.0814 46.8473C24.0839 46.8438 23.6265 46.7042 23.5686 46.6964C23.3421 46.6662 23.1116 46.6879 22.8981 46.7636C22.4894 46.909 22.1815 47.2125 21.991 47.598C21.605 48.3779 21.9372 49.3378 22.738 49.6816C22.7455 49.6631 22.1546 49.6548 22.0867 49.6669C21.8645 49.7066 21.6539 49.7963 21.4734 49.9319C21.1586 50.1692 20.9618 50.5091 20.8736 50.8903C20.7763 51.33 20.8609 51.8057 21.132 52.1698C21.2486 52.3297 21.3987 52.4647 21.5717 52.5644C21.6223 52.5953 22.0726 52.766 22.0751 52.7607C21.3054 52.7412 20.6311 53.314 20.4965 54.0683C20.3342 54.9848 20.9565 55.8891 21.9032 55.9607C21.903 55.951 21.4075 56.0919 21.3504 56.1192C21.1609 56.2104 20.9881 56.3416 20.8501 56.5019C20.5741 56.8229 20.4528 57.2508 20.4836 57.6692C20.5141 58.0736 20.6804 58.4504 20.9732 58.7326C21.1262 58.8788 21.3125 58.9882 21.5136 59.0555C21.5771 59.0774 22.1644 59.1593 22.1613 59.1365C21.2789 59.345 20.8402 60.2281 21.0648 61.0791C21.1685 61.47 21.4418 61.8209 21.7904 62.0217C21.9874 62.1363 22.2068 62.204 22.438 62.2122C22.5011 62.2144 23.0741 62.133 23.063 62.1088C22.2279 62.5432 22.0625 63.5526 22.5633 64.311C22.7864 64.646 23.152 64.901 23.55 64.9723C23.7662 65.0111 23.9892 65.0038 24.2003 64.9419C24.2629 64.9233 24.8128 64.6424 24.786 64.6152C24.156 65.2915 24.322 66.3263 25.0613 66.845C25.7925 67.3575 26.7943 67.2025 27.2534 66.4053C27.2428 66.3995 27.1387 66.8865 27.1374 66.944C27.1244 67.1727 27.1666 67.4055 27.2659 67.6123C27.4482 67.9967 27.7806 68.2905 28.1828 68.4267C29.0061 68.7235 29.926 68.3202 30.1922 67.4695C30.1869 67.468 30.2008 67.948 30.2127 68.0071C30.2545 68.2266 30.3486 68.4322 30.4788 68.6136C30.7095 68.9364 31.0713 69.1389 31.4564 69.2195C32.3217 69.401 33.1906 68.841 33.338 67.9589C33.338 67.9589 33.4224 68.4231 33.4421 68.4812C33.5179 68.6896 33.6378 68.8786 33.7912 69.0382C34.0791 69.3375 34.4843 69.4936 34.8942 69.5084C35.7404 69.5459 36.4998 68.9052 36.5426 68.0455C36.5453 68.0455 36.668 68.468 36.6929 68.5212C36.7813 68.7086 36.9086 68.8764 37.0667 69.0122C37.4016 69.3031 37.8457 69.4365 38.2857 69.3917C38.6759 69.3521 39.058 69.1889 39.3268 68.8965C39.4727 68.7368 39.589 68.5454 39.6576 68.3394C39.6797 68.2748 39.7617 67.74 39.7513 67.7413C39.9465 68.5686 40.7962 69.0921 41.6238 68.9008C42.0077 68.8125 42.3703 68.6057 42.6042 68.2815C42.7339 68.1008 42.8235 67.8912 42.863 67.6724C42.8772 67.6064 42.8801 67.0577 42.8671 67.0615C43.1832 67.8917 44.1181 68.2453 44.924 67.9085C45.3013 67.7651 45.6093 67.4676 45.7766 67.1024C45.869 66.8971 45.9136 66.6751 45.9031 66.4492C45.9016 66.3854 45.7787 65.8422 45.7605 65.8519C46.2509 66.6176 47.2566 66.7409 47.9632 66.1984C48.6801 65.649 48.8162 64.6222 48.1655 63.9638C48.1501 63.9783 48.602 64.22 48.655 64.2387C48.872 64.314 49.1059 64.3269 49.3309 64.2917C49.7624 64.2243 50.1365 63.9442 50.3722 63.5826C50.8608 62.8129 50.6376 61.7984 49.7961 61.3998C49.7885 61.4142 50.2837 61.4843 50.3414 61.4833C50.575 61.4796 50.8018 61.4152 51.0039 61.2991C51.3769 61.0854 51.6542 60.7098 51.7494 60.2887C51.9419 59.4285 51.4544 58.5634 50.5658 58.3968C50.564 58.43 51.209 58.2882 51.2766 58.258C51.5312 58.1441 51.7448 57.9602 51.8995 57.7287C52.2039 57.2781 52.2581 56.6759 52.0495 56.1753C52.133 56.3757 51.9661 55.9752 52.0495 56.1753Z" fill="#F8E298"/>
<path d="M30.1203 48.1271C31.1806 48.3416 32.2382 48.6663 33.1268 49.284C34.0154 49.9017 34.7201 50.8476 34.8503 51.9223C35.0389 53.4767 34.0357 54.9164 32.9571 56.0507C30.9151 58.1975 28.2574 59.9444 25.3036 60.1441C26.4909 59.7293 27.5912 59.0724 28.5217 58.2251C26.3874 59.4553 23.7019 59.6784 21.3927 58.8174C22.8166 59.2034 24.3802 59.0483 25.7009 58.3897C23.8787 58.8207 21.8711 58.2859 20.4563 57.0563C19.0441 55.8266 18.2414 53.946 18.2579 52.0721C18.2634 51.2971 18.4255 50.4806 18.9422 49.9044C19.3235 49.4807 19.8558 49.2307 20.3837 49.0184C23.4524 47.7855 26.8813 47.4717 30.1203 48.1271Z" fill="#F7A80E"/>
<path d="M42.0972 47.8468C41.0481 48.1107 40.0041 48.4846 39.1454 49.1431C38.2893 49.8016 37.6296 50.7795 37.5499 51.8591C37.4342 53.4207 38.501 54.8119 39.6315 55.8944C41.7717 57.9434 44.5082 59.5641 47.4708 59.6253C46.2653 59.2665 45.1329 58.6619 44.1664 57.859C46.3559 58.988 49.0489 59.0852 51.3127 58.1171C49.9084 58.5693 48.3419 58.4875 46.9918 57.8914C48.8322 58.2366 50.8125 57.6086 52.1657 56.3142C53.5214 55.0197 54.2352 53.1037 54.131 51.2325C54.0867 50.4587 53.8893 49.6507 53.3461 49.0993C52.9455 48.6938 52.3994 48.469 51.8622 48.2817C48.7417 47.1936 45.3019 47.0406 42.0972 47.8468Z" fill="#F7A80E"/>
<path d="M55.3373 45.7888C55.462 51.114 51.2523 55.532 45.9315 55.6565C40.6108 55.7811 36.1964 51.5649 36.0718 46.2397C35.9472 40.9142 40.1594 36.4964 45.4802 36.3719C50.801 36.2474 55.2127 40.4633 55.3373 45.7888Z" fill="#523B1A"/>
<path d="M54.056 46.1329C54.1689 50.9573 50.3538 54.9599 45.5316 55.0728C40.7119 55.1855 36.7138 51.3659 36.6009 46.5414C36.4879 41.717 40.303 37.7144 45.1227 37.6016C49.9449 37.4888 53.9431 41.3085 54.056 46.1329Z" fill="#D1B86C"/>
<path d="M54.056 46.1329C54.1689 50.9573 50.3538 54.9599 45.5316 55.0728C40.7119 55.1855 36.7138 51.3659 36.6009 46.5414C36.4879 41.717 40.303 37.7144 45.1227 37.6016C49.9449 37.4888 53.9431 41.3085 54.056 46.1329Z" fill="#D1B86C"/>
<path d="M53.2197 46.1525C53.3218 50.5147 49.8731 54.1338 45.5126 54.2358C41.1547 54.3378 37.5405 50.8841 37.4384 46.5218C37.3363 42.1595 40.785 38.5405 45.1429 38.4385C49.5034 38.3364 53.1176 41.7902 53.2197 46.1525Z" fill="#F3ED99"/>
<path d="M49.0199 42.465C49.0688 44.5547 47.4162 46.2884 45.3277 46.3372C43.2419 46.3861 41.51 44.7316 41.4611 42.6419C41.4122 40.5524 43.0648 38.8188 45.1506 38.77C47.2391 38.7211 48.971 40.3755 49.0199 42.465Z" fill="#D4C18D"/>
<path d="M47.9761 42.4894C48.0115 44.0014 46.8149 45.2556 45.3036 45.291C43.795 45.3263 42.5411 44.1294 42.5058 42.6174C42.4704 41.1056 43.6669 39.8514 45.1755 39.8161C46.6867 39.7807 47.9407 40.9776 47.9761 42.4894Z" fill="#2E2227"/>
<path d="M45.2206 41.7513C45.2309 42.1943 44.8825 42.5617 44.4391 42.572C43.9957 42.5824 43.6305 42.2318 43.6201 41.7888C43.6098 41.3458 43.9582 40.9785 44.4016 40.9681C44.845 40.9577 45.2102 41.3083 45.2206 41.7513Z" fill="white"/>
<path d="M40.2042 42.2248C41.0852 42.4041 41.5436 43.8198 41.2259 45.3866C40.9055 46.9537 39.9343 48.0784 39.0507 47.8991C38.1697 47.7195 37.7139 46.3038 38.0317 44.737C38.3494 43.1699 39.3232 42.0452 40.2042 42.2248" fill="white"/>
<path d="M47.2416 52.7662C43.0778 52.8637 39.4384 50.4639 37.7519 46.9342C37.9131 49.7865 39.7151 52.4137 42.5569 53.487C45.0756 54.4378 47.786 53.9329 49.7634 52.3914C48.9601 52.6162 48.1126 52.7459 47.2416 52.7662Z" fill="#D4C18D"/>
<path d="M16.0013 46.7095C16.1259 52.0347 20.5402 56.2509 25.861 56.1263C31.1818 56.0018 35.394 51.5838 35.2694 46.2585C35.1447 40.9331 30.7304 36.7172 25.4097 36.8417C20.0889 36.9662 15.8766 41.384 16.0013 46.7095Z" fill="#523B1A"/>
<path d="M17.2993 46.993C17.4122 51.8174 21.4104 55.6371 26.2301 55.5243C31.0523 55.4114 34.8674 51.4089 34.7545 46.5844C34.6416 41.76 30.6435 37.9403 25.8212 38.0532C21.0015 38.166 17.1864 42.1685 17.2993 46.993Z" fill="#D1B86C"/>
<path d="M17.2993 46.993C17.4122 51.8174 21.4104 55.6371 26.2301 55.5243C31.0523 55.4114 34.8674 51.4089 34.7545 46.5844C34.6416 41.76 30.6435 37.9403 25.8212 38.0532C21.0015 38.166 17.1864 42.1685 17.2993 46.993Z" fill="#D1B86C"/>
<path d="M18.1359 46.9735C18.238 51.3357 21.8522 54.7895 26.2101 54.6875C30.5706 54.5854 34.0193 50.9664 33.9172 46.6041C33.8151 42.2419 30.2009 38.7881 25.8404 38.8902C21.4825 38.9921 18.0339 42.6112 18.1359 46.9735Z" fill="#F3ED99"/>
<path d="M22.1586 43.0936C22.2075 45.1834 23.9394 46.8378 26.0253 46.789C28.1137 46.7401 29.7663 45.0065 29.7174 42.9167C29.6685 40.8272 27.9366 39.1728 25.8482 39.2217C23.7623 39.2705 22.1097 41.0041 22.1586 43.0936Z" fill="#D4C18D"/>
<path d="M23.2023 43.0691C23.2377 44.5812 24.4916 45.778 26.0002 45.7427C27.5114 45.7074 28.708 44.4531 28.6726 42.9411C28.6372 41.4293 27.3833 40.2325 25.8721 40.2678C24.3635 40.3031 23.1669 41.5573 23.2023 43.0691Z" fill="#2E2227"/>
<path d="M25.9185 42.2031C25.9289 42.6461 26.2967 42.9967 26.7401 42.9863C27.1835 42.9759 27.5319 42.6086 27.5215 42.1656C27.5112 41.7226 27.1459 41.372 26.7025 41.3823C26.2591 41.3927 25.9081 41.7601 25.9185 42.2031Z" fill="white"/>
<path d="M20.477 43.2393C21.3715 43.3219 21.9808 44.6794 21.8343 46.2716C21.6878 47.8638 20.8423 49.088 19.9478 49.0055C19.0507 48.9232 18.4441 47.5656 18.5905 45.9731C18.7344 44.381 19.5799 43.157 20.477 43.2393Z" fill="white"/>
<path d="M24.4161 53.3004C28.5798 53.203 32.103 50.6355 33.6225 47.0308C33.5949 49.8875 31.9179 52.5962 29.1294 53.8012C26.6579 54.8688 23.9268 54.4913 21.8795 53.0439C22.6924 53.2309 23.5424 53.3208 24.4161 53.3004Z" fill="#D4C18D"/>
<path d="M37.2652 47.4528C37.0177 47.1937 36.7314 46.9624 36.3989 46.8879C36.0795 46.8158 35.7119 46.9245 35.522 47.2193C35.3158 46.9332 34.9461 46.841 34.6279 46.9275C34.3018 47.0163 34.024 47.2604 33.7888 47.5299C32.5361 48.9652 32.2339 51.194 32.5743 53.1758C32.9147 55.1575 33.8047 56.9593 34.6834 58.7223C34.7494 58.8524 35.2906 59.6558 35.8075 59.6445C36.3217 59.6329 36.8091 58.8065 36.8663 58.6735C37.6668 56.8734 38.4769 55.0337 38.7295 53.0388C38.9795 51.044 38.5812 48.8305 37.2652 47.4528Z" fill="#2D1615"/>
<path d="M34.5369 47.2783C34.2965 47.3275 34.1229 47.5384 33.9807 47.7453C32.9835 49.2158 32.6919 51.1105 32.8624 52.9031C33.0481 54.8898 33.7731 56.8197 34.9314 58.4153C35.1321 58.6918 35.4225 58.9877 35.7462 58.9091C36.1169 58.819 36.2182 58.3274 36.2431 57.9319C36.4527 54.6606 36.5836 51.2829 35.5087 48.1977C35.4271 47.9637 35.3375 47.7264 35.1756 47.5411C35.0164 47.3556 34.772 47.2297 34.5369 47.2783Z" fill="#EE8B40"/>
<path d="M36.2056 47.2369C35.8795 47.3233 35.7334 47.6951 35.6438 48.0201C34.7269 51.3519 34.6607 54.9151 35.456 58.2785C35.5115 58.5163 35.6045 58.7905 35.8398 58.8612C36.1306 58.9501 36.3889 58.6563 36.5482 58.3941C37.9781 56.0096 38.5856 53.1388 38.2401 50.3782C38.1043 49.2883 37.7728 48.135 36.9065 47.4593C36.7059 47.3027 36.4509 47.1718 36.2056 47.2369Z" fill="#F2591D"/>
<path d="M36.4344 53.5438C36.4971 56.2226 36.1675 58.4029 35.7031 58.4138C35.2361 58.4247 34.8075 56.2621 34.7448 53.5834C34.6821 50.9046 35.0091 48.7243 35.4761 48.7134C35.9405 48.7025 36.3717 50.8651 36.4344 53.5438Z" fill="#F3DE3E"/>
<path d="M35.6619 51.9478C35.8495 51.8851 35.9203 51.6598 35.942 51.4643C36.0194 50.8467 35.8968 50.2069 35.6005 49.6602C35.1543 50.1113 34.9892 50.798 35.1088 51.4203C35.1357 51.5628 35.1785 51.7074 35.273 51.8174C35.37 51.927 35.5265 51.994 35.6619 51.9478" fill="white"/>
<path d="M35.8536 53.4918C35.7478 53.1209 35.642 52.75 35.5336 52.3795C35.3352 52.763 35.2511 53.2056 35.2979 53.6354C35.3085 53.7544 35.3324 53.8768 35.4029 53.9737C35.4734 54.0708 35.601 54.1354 35.713 54.1004C35.8251 54.0665 35.8932 53.9493 35.9063 53.8337C35.9193 53.7183 35.8851 53.6032 35.8536 53.4918" fill="white"/>
<path d="M60.4199 52.5467C63.8406 58.6153 65.717 65.5453 65.8328 72.5113C64.8791 70.4603 63.9255 68.4096 62.9718 66.3586C63.296 68.9916 63.3217 71.661 63.0553 74.3001C62.97 75.14 62.7127 76.1513 61.8989 76.3727C60.905 76.6426 60.1216 75.4699 59.9639 74.4521C59.8062 73.4345 59.8628 72.2624 59.1189 71.5502C59.1367 74.4407 57.8152 77.3121 55.6066 79.1773C55.3467 76.8205 55.0841 74.4641 54.8242 72.1074C54.6202 72.8105 54.4087 73.5335 53.9522 74.1051C53.4957 74.6765 52.7277 75.0644 52.0273 74.8593C51.3057 74.6487 50.8788 73.907 50.6468 73.193C49.5301 69.7828 51.1535 66.1255 52.9019 62.9924C54.6504 59.8593 56.6305 56.525 56.253 52.9566L60.4199 52.5467Z" fill="#F2591D"/>
<path d="M55.6138 79.4565C55.5771 79.4574 55.5401 79.4509 55.5057 79.4367C55.4103 79.3985 55.3426 79.3105 55.3323 79.208L54.687 73.3942C54.5525 73.7055 54.3863 74.0076 54.1696 74.2796C53.6876 74.8837 52.8145 75.3799 51.9476 75.1275C51.07 74.87 50.6108 73.9806 50.3818 73.2798C49.2283 69.7576 50.8869 66.0341 52.6579 62.8564L52.9049 62.4173C54.5881 59.4097 56.3266 56.3002 55.9761 52.9861C55.9593 52.8327 56.069 52.6954 56.2235 52.6789C56.3806 52.6608 56.5145 52.7738 56.5312 52.9271C56.9017 56.4179 55.1177 59.6065 53.3917 62.6902L53.1447 63.1287C51.4316 66.2008 49.825 69.7889 50.9106 73.1061C51.0999 73.6791 51.4581 74.4022 52.1057 74.5912C52.7189 74.7713 53.379 74.3746 53.7335 73.9307C54.162 73.3944 54.3636 72.7008 54.5579 72.0299C54.5943 71.9019 54.7157 71.8181 54.8473 71.8292C54.9814 71.8408 55.0862 71.9442 55.1024 72.0768L55.8249 78.6079C57.7382 76.7933 58.856 74.1947 58.8414 71.5518C58.8388 71.4397 58.9073 71.3382 59.0086 71.2938C59.1126 71.2496 59.2312 71.271 59.3118 71.3485C59.9723 71.9807 60.067 72.886 60.161 73.7616C60.1845 73.9804 60.208 74.1988 60.2392 74.4098C60.341 75.0572 60.7079 75.7026 61.1317 75.979C61.3557 76.1259 61.5902 76.1672 61.8276 76.1033C62.3493 75.9608 62.6709 75.3447 62.7797 74.272C63.044 71.6553 63.016 69.0043 62.695 66.3926C62.6787 66.2563 62.765 66.1279 62.8953 66.0902C63.0283 66.0521 63.1663 66.1164 63.2244 66.2409L65.5103 71.1532C65.1909 64.6865 63.3595 58.3287 60.1796 52.6838C60.103 52.5495 60.1489 52.3792 60.2836 52.3035C60.4183 52.2279 60.5901 52.2753 60.6641 52.4094C64.1124 58.5313 65.9971 65.4808 66.1116 72.5067C66.1147 72.6386 66.0229 72.7542 65.895 72.7837C65.767 72.8138 65.6343 72.7486 65.579 72.6293L63.4118 67.967C63.5742 70.0845 63.548 72.2173 63.3349 74.3284C63.2005 75.6545 62.741 76.4329 61.9741 76.6422C61.5828 76.7477 61.1875 76.6808 60.8277 76.4472C60.2625 76.0792 59.8141 75.3128 59.6899 74.4949C59.6559 74.2753 59.6296 74.0486 59.6059 73.8208C59.5551 73.3333 59.5047 72.8624 59.3614 72.4574C59.1323 75.1196 57.8346 77.6607 55.7881 79.3907C55.7392 79.4326 55.6768 79.4551 55.6138 79.4565Z" fill="#292625"/>
<path d="M11.9141 53.6818C8.78363 59.9038 7.2309 66.914 7.44375 73.8778C8.30041 71.7844 9.15707 69.6913 10.0111 67.598C9.81313 70.2432 9.9097 72.911 10.2992 75.5348C10.4238 76.3697 10.728 77.3679 11.5513 77.5509C12.5567 77.7741 13.2871 76.566 13.3944 75.5419C13.5043 74.5181 13.3956 73.3499 14.1053 72.6036C14.2227 75.4918 15.6771 78.2983 17.968 80.0581C18.12 77.6917 18.2694 75.3256 18.4214 72.9592C18.6555 73.6521 18.9032 74.3644 19.3859 74.9141C19.8687 75.4635 20.6513 75.8151 21.344 75.5774C22.0523 75.3333 22.444 74.5724 22.6449 73.8483C23.6009 70.3895 21.8056 66.8123 19.9151 63.7643C18.022 60.7164 15.8855 57.4785 16.0983 53.8963L11.9141 53.6818Z" fill="#F2591D"/>
<path d="M17.9738 80.3372C17.9108 80.3386 17.85 80.319 17.7965 80.2796C15.6714 78.6475 14.2589 76.1695 13.9029 73.521C13.7812 73.9319 13.7529 74.4047 13.7224 74.8939C13.7093 75.1228 13.6963 75.3503 13.6726 75.5716C13.5842 76.3945 13.1747 77.181 12.6248 77.5751C12.2789 77.8252 11.8871 77.9105 11.4913 77.8234C10.7129 77.6503 10.2201 76.8941 10.0238 75.5758C9.71217 73.4762 9.58621 71.347 9.6468 69.225L7.70009 73.9836C7.65044 74.1053 7.52349 74.1766 7.39168 74.1527C7.2625 74.1291 7.168 74.0178 7.16492 73.886C6.95066 66.8624 8.50558 59.8327 11.6637 53.5559C11.734 53.4185 11.9007 53.3633 12.0388 53.4324C12.1769 53.5016 12.2307 53.6696 12.1631 53.8073C9.25078 59.5948 7.71875 66.0315 7.70227 72.5059L9.75324 67.4921C9.80539 67.365 9.94288 67.2942 10.0749 67.3261C10.2095 67.3576 10.299 67.4819 10.2891 67.6188C10.0932 70.2416 10.1867 72.891 10.5758 75.4935C10.7346 76.56 11.0821 77.1603 11.6125 77.2782C11.85 77.331 12.0824 77.2788 12.3018 77.1215C12.7123 76.8255 13.0485 76.1637 13.1173 75.5123C13.1412 75.2997 13.1545 75.0808 13.1651 74.8607C13.218 73.9819 13.2729 73.0733 13.9005 72.411C13.9774 72.3298 14.0975 72.3029 14.2008 72.3422C14.3067 72.3818 14.3773 72.48 14.3825 72.592C14.489 75.233 15.7298 77.7764 17.7232 79.4994L18.1419 72.9413C18.1493 72.8084 18.2518 72.6999 18.3826 72.6823C18.5135 72.6646 18.6413 72.743 18.6836 72.8692C18.9091 73.53 19.1404 74.2132 19.5935 74.7294C19.9683 75.1563 20.6489 75.5205 21.2531 75.313C21.8885 75.0942 22.215 74.3551 22.3747 73.7736C23.304 70.4095 21.5313 66.9003 19.6763 63.9117L19.4117 63.4844C17.5433 60.485 15.6121 57.3836 15.8189 53.8796C15.8284 53.7257 15.9543 53.6071 16.1146 53.6173C16.2671 53.6266 16.3857 53.7586 16.3762 53.9128C16.1784 57.2393 18.0631 60.2637 19.8851 63.1888L20.1498 63.6169C22.0702 66.7085 23.8985 70.3504 22.9111 73.9224C22.7151 74.6332 22.3006 75.5431 21.4334 75.8413C20.5819 76.1343 19.6866 75.6791 19.1742 75.0984C18.945 74.8368 18.7648 74.5431 18.6186 74.2383L18.2459 80.0757C18.2378 80.1786 18.1769 80.2696 18.0834 80.3123C18.0471 80.3281 18.0105 80.3363 17.9738 80.3372Z" fill="#292625"/>
<path d="M15.774 56.7817C15.4251 60.8311 16.4937 64.9892 18.749 68.3686C18.9802 68.7137 19.3488 69.0955 19.7393 68.9553C20.1063 68.8232 20.1735 68.3308 20.1303 67.9409C19.9585 66.3219 19.0561 64.8909 18.3031 63.4477C17.4154 61.7467 16.2767 58.6331 15.774 56.7817Z" fill="#F2CC46"/>
<path d="M21.8731 73.3804C21.9661 72.6439 21.888 71.8858 21.6432 71.1851C21.5449 70.9088 21.4203 70.634 21.2056 70.4339C20.9936 70.2336 20.6759 70.1215 20.3999 70.215C20.2096 71.397 20.4936 72.6486 21.1729 73.6335C21.2544 73.7512 21.3597 73.8761 21.5042 73.8814C21.7328 73.8902 21.8443 73.6076 21.8731 73.3804Z" fill="#F2CC46"/>
<path d="M57.1129 55.8143C57.6508 59.8429 56.7779 64.0465 54.6831 67.5277C54.4683 67.8832 54.1181 68.2818 53.7214 68.16C53.346 68.0453 53.2584 67.5566 53.2808 67.1651C53.3792 65.5398 54.2137 64.0681 54.8984 62.5912C55.7056 60.8506 56.6973 57.6871 57.1129 55.8143Z" fill="#F2CC46"/>
<path d="M51.7977 72.68C51.6703 71.9486 51.7129 71.1878 51.9246 70.4763C52.0073 70.1959 52.1215 69.9155 52.3266 69.7055C52.5291 69.4955 52.8385 69.3688 53.1213 69.4491C53.3666 70.621 53.1415 71.8845 52.509 72.9001C52.4331 73.0214 52.3311 73.1512 52.1896 73.1632C51.9617 73.1827 51.8371 72.9056 51.7977 72.68Z" fill="#F2CC46"/>
<path d="M9.96691 34.9985C9.91203 34.5602 9.38388 34.3143 8.95013 34.4006C8.51901 34.4869 8.17197 34.8011 7.85367 35.1091C6.85012 36.0861 5.9035 37.1395 5.21007 38.356C4.51401 39.5722 4.08202 40.9667 4.15938 42.3656C4.17147 42.5455 4.19437 42.7397 4.3208 42.8699C4.48767 43.0457 4.78408 43.0356 4.99381 42.9117C5.20354 42.7875 5.343 42.5775 5.47469 42.3721C6.8317 40.2339 7.82847 37.8459 9.5008 35.9458C9.74118 35.673 10.0121 35.3592 9.96691 34.9985Z" fill="white"/>
<path d="M8.05841 43.836C8.11846 43.9339 8.23247 43.9822 8.33845 44.0241C8.86307 44.2315 9.38508 44.4387 9.90971 44.6461C11.0428 41.9138 12.691 39.4297 14.3238 36.9645C13.6966 36.635 13.0894 36.2656 12.5077 35.8594C11.5868 36.8914 10.8398 38.0634 10.0979 39.2294C9.24963 40.5577 8.389 41.921 8.04434 43.4582C8.0158 43.5845 7.99282 43.7253 8.05841 43.836" fill="white"/>
<path d="M58.859 34.0694C58.5497 33.5288 58.0851 33.0794 57.535 32.7914C57.1842 32.6089 56.798 32.486 56.498 32.229C55.9255 32.6659 55.2825 33.0107 54.6002 33.246C55.3564 33.8122 56.0184 34.5071 56.5461 35.2925C57.3162 34.8848 58.0863 34.4771 58.859 34.0694" fill="white"/>
<path d="M62.9772 35.8459C62.839 34.2065 61.5946 32.8533 60.1988 31.9877C59.9085 31.8087 59.6079 31.6429 59.2803 31.5509C58.9209 31.4508 58.5453 31.4415 58.1755 31.4565C58.0496 31.4618 57.8779 31.527 57.9096 31.6492C57.9213 31.6965 57.964 31.7289 58.0041 31.7576C59.6761 32.9844 61.1573 34.4715 62.3779 36.1495C62.4565 36.258 62.5538 36.3781 62.6878 36.3816C62.919 36.388 62.9957 36.0754 62.9772 35.8459" fill="white"/>
<path d="M29.5056 71.3221C29.6214 71.336 29.657 71.8467 29.5822 72.463C29.51 73.0795 29.3587 73.5678 29.2402 73.5543C29.1244 73.5405 29.0888 73.0297 29.1636 72.4132C29.2358 71.7969 29.3872 71.3086 29.5056 71.3221Z" fill="#292625"/>
<path d="M26.8987 68.7441C27.0123 68.773 26.9388 69.4463 26.737 70.2479C26.5327 71.0496 26.2769 71.6759 26.1634 71.6473C26.0498 71.6184 26.1233 70.9451 26.3251 70.1435C26.5295 69.3418 26.7852 68.7155 26.8987 68.7441Z" fill="#292625"/>
<path d="M44.2099 72.1567C44.0948 72.1736 43.9319 71.7184 43.8449 71.1401C43.7605 70.5614 43.7859 70.0787 43.901 70.0615C44.0161 70.0446 44.179 70.4996 44.2661 71.0782C44.3505 71.6566 44.325 72.1396 44.2099 72.1567Z" fill="#292625"/>
<path d="M46.8248 71.0439C46.7069 71.0535 46.5727 70.5916 46.525 70.0123C46.4773 69.4328 46.5344 68.9554 46.6497 68.9456C46.7676 68.936 46.8992 69.398 46.9495 69.9772C46.9972 70.5567 46.9401 71.0344 46.8248 71.0439Z" fill="#292625"/>
<path d="M45.1128 60.5847C45.1109 60.6139 45.0272 60.6282 44.8724 60.6284C44.7962 60.6286 44.7043 60.6253 44.5939 60.6186C44.486 60.6096 44.36 60.6099 44.2279 60.571C43.6899 60.4672 42.9643 60.1967 42.273 59.7079C41.5969 59.1982 41.118 58.5878 40.8547 58.1066C40.7759 57.9936 40.739 57.8723 40.6972 57.7719C40.6581 57.6703 40.6245 57.582 40.6018 57.5093C40.5564 57.3634 40.5439 57.2789 40.5699 57.2675C40.5985 57.256 40.6604 57.3182 40.7498 57.4377C40.7958 57.4973 40.8474 57.5716 40.9046 57.6582C40.9643 57.7435 41.0167 57.8485 41.1056 57.9452C41.4198 58.3606 41.8968 58.8914 42.5222 59.3655C43.1628 59.8177 43.8154 60.1098 44.3051 60.2812C44.4245 60.3367 44.5405 60.3553 44.6409 60.3858C44.7387 60.4137 44.8259 60.4403 44.8974 60.4649C45.0377 60.5142 45.1148 60.5555 45.1128 60.5847Z" fill="#292625"/>
<path d="M47.4385 59.4329C47.458 59.4834 47.2771 59.6027 46.9462 59.7079C46.6124 59.8038 46.1253 59.8519 45.5981 59.7618C45.0733 59.6567 44.6323 59.436 44.3571 59.2275C44.0868 59.01 43.9594 58.8341 43.9952 58.7935C44.036 58.7453 44.2245 58.8344 44.5112 58.9699C44.803 59.0983 45.2081 59.2499 45.675 59.3449C46.1441 59.4238 46.5747 59.4273 46.8946 59.4125C47.2091 59.3883 47.4187 59.3734 47.4385 59.4329Z" fill="#292625"/>
<path d="M28.0672 61.2374C28.0091 61.1132 28.9628 60.583 30.0282 59.7846C31.072 58.9564 31.828 58.1707 31.935 58.2568C31.9779 58.2944 31.8286 58.5299 31.5481 58.8848C31.2865 59.2588 30.8104 59.6682 30.2881 60.1206C29.7171 60.511 29.2004 60.8659 28.771 61.0247C28.3552 61.2065 28.092 61.2905 28.0672 61.2374Z" fill="#292625"/>
<path d="M22.5556 61.1393C22.5397 61.0233 23.5216 60.8043 24.7439 60.6509C25.9663 60.4972 26.971 60.4669 26.9868 60.5831C27 60.6992 26.0207 60.9179 24.7958 61.0716C23.5735 61.2253 22.5688 61.2556 22.5556 61.1393Z" fill="#292625"/>
</g>
<defs>
<clipPath id="clip0_5605_48579">
<rect y="0.294922" width="72" height="72" rx="36" fill="white"/>
</clipPath>
</defs>
</svg>
