<svg width="72" height="73" viewBox="0 0 72 73" fill="none" xmlns="http://www.w3.org/2000/svg">
<g clip-path="url(#clip0_5605_48582)">
<path d="M5.79118 51.8039C7.34309 52.5167 8.89525 53.2296 10.4474 53.9424C11.3387 45.8238 14.2425 37.9345 18.8264 31.1776C19.5604 33.8565 20.2947 36.5352 21.0288 39.2141C31.2581 36.5078 41.6677 34.4832 52.1652 33.1579C49.6478 23.803 43.9309 15.5976 37.3398 8.5023C35.1738 6.17077 32.7023 3.82641 29.5744 3.24865C26.5112 2.68287 23.3269 3.97511 20.9811 6.02589C18.635 8.07668 17.0041 10.8139 15.564 13.5782C9.4343 25.3438 6.06118 38.5373 5.79118 51.8039Z" fill="#F2591D"/>
<path d="M6.06002 51.6352L10.2251 53.5481C11.1682 45.5065 14.0625 37.7276 18.6071 31.0284C18.6652 30.9428 18.767 30.8982 18.8698 30.9158C18.9718 30.9326 19.055 31.0074 19.0823 31.1075L21.2151 38.8902C31.2442 36.249 41.5404 34.2453 51.8288 32.933C49.5879 24.8399 44.7823 16.9042 37.1454 8.68305C35.1026 6.48359 32.6602 4.08883 29.5265 3.50996C29.0014 3.41304 28.4571 3.37028 27.9077 3.38314C25.6222 3.43663 23.1612 4.47281 21.1557 6.22601C18.7961 8.2886 17.187 11.0376 15.7994 13.7009C9.72162 25.3672 6.35536 38.4808 6.06002 51.6352ZM10.4538 54.2079C10.4138 54.2089 10.374 54.2008 10.3369 54.1837L5.68063 52.0454C5.58447 52.0012 5.52379 51.9044 5.52605 51.7986C5.79689 38.5041 9.18646 25.2452 15.3288 13.4555C16.7405 10.7459 18.3812 7.94647 20.8065 5.82586C22.904 3.9923 25.4877 2.90852 27.8952 2.85217C28.4809 2.83847 29.062 2.8841 29.6229 2.98742C32.7596 3.56698 35.279 5.89348 37.5339 8.32138C45.3234 16.7069 50.1931 24.8085 52.4214 33.0888C52.4414 33.163 52.4285 33.2423 52.3856 33.306C52.3429 33.3697 52.2747 33.4118 52.1985 33.4216C41.7457 34.741 31.2813 36.7761 21.0966 39.4707C20.9549 39.5082 20.8114 39.4249 20.7729 39.2843L18.7239 31.8076C14.3458 38.4274 11.578 46.0782 10.7111 53.9713C10.7019 54.0562 10.6525 54.1313 10.5783 54.1736C10.5396 54.1955 10.4967 54.2069 10.4538 54.2079Z" fill="#292625"/>
<path d="M6.75653 40.6102C6.56093 41.8962 6.39263 43.1863 6.25512 44.4797C8.23051 44.5754 10.0957 45.3799 11.8591 46.4362C12.1652 45.2947 12.5137 44.1646 12.8988 43.047C11.1107 41.5156 9.01236 40.4419 6.75653 40.6102Z" fill="white"/>
<path d="M6.5493 44.2327C8.1562 44.362 9.80629 44.9389 11.6951 46.0312C11.9587 45.0759 12.259 44.1033 12.5898 43.1327C10.7018 41.5549 8.82165 40.7912 6.98775 40.8629C6.81803 41.9961 6.67073 43.1271 6.5493 44.2327ZM11.8661 46.7016C11.8167 46.7028 11.767 46.6902 11.7237 46.664C9.67439 45.4365 7.93289 44.8268 6.24295 44.7449C6.16997 44.7416 6.10178 44.7079 6.0543 44.6526C6.00656 44.597 5.98413 44.5243 5.99216 44.4516C6.12724 43.1823 6.29642 41.8764 6.49505 40.5703C6.51366 40.4479 6.61458 40.3546 6.7377 40.3455C6.84936 40.3371 6.95985 40.3318 7.07089 40.3292C9.04944 40.2829 11.0686 41.1295 13.0722 42.8453C13.1552 42.9163 13.1861 43.0306 13.1503 43.1338C12.7608 44.264 12.4129 45.3981 12.116 46.5051C12.0946 46.5853 12.0365 46.6511 11.9596 46.6822C11.9294 46.6946 11.8978 46.7009 11.8661 46.7016Z" fill="#292625"/>
<path d="M9.14434 29.7055C8.66359 31.3855 8.23086 33.0794 7.85109 34.7853C10.2911 35.6283 12.8642 36.7034 14.7909 38.338C15.4255 36.9598 16.124 35.611 16.88 34.2959C14.9397 31.7422 12.2288 29.8332 9.14434 29.7055Z" fill="white"/>
<path d="M8.16197 34.612C10.2138 35.3304 12.7308 36.3453 14.6947 37.9149C15.2624 36.7051 15.8892 35.497 16.562 34.3172C14.5212 31.6934 11.9699 30.1626 9.34166 29.9822C8.90276 31.53 8.50624 33.0854 8.16197 34.612ZM14.7972 38.6032C14.7328 38.6047 14.6694 38.5829 14.6195 38.5404C12.6173 36.842 9.90443 35.7755 7.76468 35.0361C7.63707 34.9921 7.5628 34.8592 7.59217 34.7273C7.96561 33.0496 8.4021 31.3353 8.88955 29.6322C8.92299 29.5144 9.03713 29.4308 9.15544 29.44C12.0637 29.5606 14.882 31.2279 17.0912 34.1349C17.1557 34.2199 17.1633 34.3354 17.1101 34.4281C16.3537 35.744 15.6546 37.0968 15.0321 38.449C14.9974 38.5243 14.9292 38.5791 14.8483 38.597C14.8316 38.6009 14.8142 38.6028 14.7972 38.6032Z" fill="#292625"/>
<path d="M19.2529 32.7322C20.4413 25.9468 23.2392 19.892 26.8644 13.819C29.1013 10.3471 31.9925 8.05165 35.2342 6.39022C33.584 4.89076 31.7363 3.64783 29.5748 3.24861C28.4402 3.03902 27.2893 3.08543 26.1702 3.32978C19.4195 10.8773 18.1743 21.4776 18.9587 31.6593C19.0567 32.0169 19.1547 32.3747 19.2529 32.7322" fill="white"/>
<path d="M26.3102 3.57155C20.602 9.99665 18.2803 19.1383 19.2136 31.5133C20.3659 25.8603 22.6843 20.3039 26.6362 13.6828C28.6339 10.5821 31.296 8.17706 34.7705 6.33251C32.9449 4.7317 31.2707 3.83206 29.5265 3.51004C28.5022 3.32085 27.4104 3.34189 26.3102 3.57155ZM19.2588 32.9979C19.1371 33.0007 19.0288 32.9205 18.9966 32.8028L18.7026 31.7297C18.6982 31.7133 18.6953 31.6966 18.694 31.6799C17.7343 19.2233 20.1829 9.62539 25.9723 3.15291C26.0096 3.1113 26.0591 3.08265 26.1135 3.07063C27.3102 2.80922 28.5035 2.7808 29.6229 2.9875C31.5587 3.34527 33.3984 4.36374 35.4121 6.1938C35.4767 6.25226 35.5084 6.339 35.4969 6.42523C35.4855 6.51171 35.4323 6.58691 35.3549 6.62671C31.7975 8.44996 29.0928 10.8495 27.0869 13.9629C22.9013 20.9758 20.5644 26.781 19.5139 32.7782C19.4925 32.9007 19.389 32.9918 19.2651 32.9977C19.2628 32.9978 19.2606 32.9978 19.2588 32.9979Z" fill="#292625"/>
<path d="M34.143 19.8405C38.1147 18.1223 42.0516 18.2098 45.8432 19.3023C44.3073 16.9163 42.6059 14.6254 40.7906 12.4316C39.0076 12.8199 37.2895 13.4344 35.6795 14.3272C28.2045 18.2895 22.0517 25.347 19.5151 33.6912C19.6175 34.0644 19.7199 34.4379 19.822 34.8111C22.8924 28.387 27.751 22.4908 34.143 19.8405" fill="white"/>
<path d="M19.7916 33.6952L19.892 34.0627C23.3822 27.0631 28.387 21.9396 34.0413 19.5952C35.9905 18.752 38.0449 18.2988 40.1435 18.2497C41.7782 18.2114 43.4898 18.4178 45.2407 18.8636C43.893 16.82 42.3645 14.759 40.6896 12.7261C38.9255 13.1247 37.2839 13.7411 35.808 14.5596C28.2161 18.5836 22.2352 25.7322 19.7916 33.6952ZM19.8281 35.0765C19.8184 35.0768 19.8084 35.0765 19.7984 35.0755C19.6881 35.0656 19.5956 34.9883 19.5662 34.8812L19.2593 33.7614C19.246 33.7133 19.2468 33.662 19.2614 33.6139C21.7312 25.4891 27.8224 18.1915 35.5551 14.0924C37.1158 13.2273 38.8598 12.5802 40.7343 12.1723C40.8304 12.1505 40.9319 12.1859 40.9948 12.2621C42.8735 14.5324 44.5713 16.8399 46.0421 19.1207C46.0849 19.1667 46.1118 19.228 46.1134 19.296C46.1168 19.4426 46.0011 19.5642 45.8543 19.5677C45.8526 19.5677 45.8508 19.5677 45.8493 19.5678C45.8229 19.5684 45.7961 19.565 45.7697 19.5574C43.8355 18.9999 41.9466 18.7388 40.1559 18.7807C38.1257 18.8282 36.1381 19.2668 34.2483 20.0844C28.542 22.45 23.5049 27.7204 20.0615 34.9256C20.018 35.0166 19.9274 35.0742 19.8281 35.0765Z" fill="#292625"/>
<path d="M12.1251 21.0483C14.896 24.3764 16.4274 28.5887 17.733 32.8668C17.8333 32.7048 17.9364 32.5444 18.0385 32.3836C17.343 26.7891 16.6926 21.218 14.3096 16.1015C13.5315 17.7278 12.8006 19.3767 12.1251 21.0483" fill="white"/>
<path d="M12.4314 21.0013C14.8569 23.9632 16.3334 27.5243 17.7116 31.8989C17.0774 26.7885 16.41 21.5164 14.3046 16.7323C13.6301 18.1654 13.0013 19.5983 12.4314 21.0013ZM17.7399 33.1322C17.7265 33.1325 17.713 33.1318 17.6994 33.1302C17.5963 33.1166 17.5104 33.0439 17.4799 32.9441C16.0194 28.1589 14.5155 24.3335 11.9222 21.2184C11.8595 21.1431 11.8433 21.0395 11.8802 20.9487C12.5377 19.3208 13.2748 17.6515 14.071 15.9866C14.1153 15.8941 14.216 15.837 14.3116 15.8358C14.4145 15.8364 14.5075 15.8959 14.5509 15.9891C16.8974 21.027 17.5876 26.5891 18.255 31.9679L18.3024 32.3509C18.3098 32.4119 18.2963 32.4737 18.2633 32.5257L18.1662 32.6782C18.0969 32.7875 18.0273 32.8966 17.959 33.0066C17.9116 33.0837 17.8285 33.1301 17.7399 33.1322Z" fill="#292625"/>
<path d="M18.4741 29.6878C18.4704 29.6879 18.4666 29.688 18.4629 29.6878C18.3165 29.6853 18.1998 29.564 18.2024 29.4175C18.2977 24.2311 20.187 19.1878 23.5218 15.2169C23.6166 15.1042 23.7838 15.0901 23.8958 15.1844C24.0079 15.2788 24.0223 15.4463 23.928 15.5585C20.671 19.4368 18.8263 24.3621 18.7332 29.4274C18.7305 29.5701 18.6156 29.6845 18.4741 29.6878Z" fill="#292625"/>
<path d="M52.9731 37.6102C42.0828 35.4363 31.4262 35.686 20.6497 38.3666C19.6208 38.6431 18.549 38.079 18.2489 37.0737C17.395 34.2149 16.5414 31.3561 15.6875 28.4974C15.3874 27.4921 16.1268 26.3798 17.3475 26.0518C30.0992 22.8509 42.8079 22.5535 55.6954 25.1543C56.9301 25.4248 57.7208 26.5013 57.468 27.5196C56.7488 30.4151 56.0298 33.3107 55.3109 36.2063C55.0578 37.2245 54.0136 37.8382 52.9731 37.6102Z" fill="#F2591D"/>
<path d="M36.7621 35.9024C42.1146 35.7771 47.586 36.264 53.0245 37.3497C53.9483 37.551 54.842 36.9916 55.0528 36.142L57.2101 27.4555C57.3009 27.089 57.2307 26.6931 57.012 26.3409C56.7261 25.8803 56.2254 25.5424 55.6384 25.4137C49.2481 24.1241 42.7995 23.5449 36.4761 23.6929C30.1529 23.8408 23.7385 24.7212 17.4116 26.3093C16.8354 26.4643 16.351 26.825 16.0872 27.2984C15.8852 27.6607 15.8334 28.0595 15.9415 28.4213L18.5026 36.9974C18.7142 37.7061 19.3966 38.1885 20.1616 38.1706C20.3026 38.1673 20.4435 38.147 20.5807 38.1103C25.9674 36.77 31.4101 36.0276 36.7621 35.9024ZM53.4629 37.9224C53.28 37.9267 53.096 37.909 52.9161 37.8695C47.5202 36.7926 42.0878 36.309 36.7745 36.4333C31.4614 36.5577 26.0578 37.2949 20.7133 38.6244C20.5401 38.671 20.3572 38.6972 20.1741 38.7015C19.1707 38.725 18.2742 38.087 17.9941 37.1495L15.433 28.5734C15.2837 28.0729 15.3513 27.5283 15.6238 27.0396C15.9573 26.4416 16.5602 25.9882 17.2784 25.7952C23.6476 24.1963 30.101 23.3108 36.4636 23.1619C42.8265 23.013 49.3143 23.5956 55.7475 24.8941C56.4781 25.054 57.1017 25.4787 57.4626 26.0605C57.7579 26.5358 57.8509 27.0769 57.7252 27.5836L55.5679 36.2701C55.3322 37.2195 54.4665 37.899 53.4629 37.9224Z" fill="#292625"/>
<path d="M21.7364 35.4169C21.8852 36.0347 21.4874 36.6595 20.8501 36.8248C20.2128 36.9902 19.5607 36.6379 19.3908 36.0256C18.7399 33.6789 18.0888 31.3321 17.4379 28.9851C17.268 28.3729 17.7157 27.7129 18.4406 27.5248C19.1655 27.3367 19.876 27.6961 20.025 28.3139C20.5955 30.6815 21.166 33.0493 21.7364 35.4169Z" fill="#F8E298"/>
<path d="M25.7394 34.5723C25.8524 35.1974 25.4206 35.798 24.7767 35.9257C24.133 36.0537 23.5037 35.6639 23.3696 35.043C22.8552 32.6624 22.3406 30.282 21.8263 27.9013C21.6921 27.2805 22.1752 26.6477 22.9075 26.5021C23.6399 26.3565 24.3271 26.757 24.4401 27.3821C24.8732 29.7789 25.3063 32.1755 25.7394 34.5723Z" fill="#F8E298"/>
<path d="M29.7768 33.961C29.8537 34.5917 29.389 35.1663 28.74 35.2567C28.0912 35.3471 27.4868 34.9215 27.3887 34.2938C27.0121 31.8876 26.6354 29.4813 26.2588 27.0751C26.1607 26.4474 26.6779 25.8438 27.416 25.7409C28.1541 25.6381 28.8161 26.0774 28.8927 26.7081C29.1875 29.1257 29.482 31.5435 29.7768 33.961Z" fill="#F8E298"/>
<path d="M33.8366 33.5838C33.8772 34.2179 33.3809 34.7647 32.7287 34.8177C32.0766 34.8705 31.4983 34.4107 31.4363 33.7785C31.1986 31.3546 30.9608 28.9307 30.7231 26.5068C30.6611 25.8745 31.2112 25.3017 31.9531 25.2416C32.6949 25.1815 33.33 25.6581 33.3706 26.2922C33.5258 28.7227 33.6813 31.1533 33.8366 33.5838Z" fill="#F8E298"/>
<path d="M37.9083 33.4403C37.9124 34.0757 37.3855 34.593 36.7317 34.6083C36.0779 34.6236 35.5274 34.1315 35.5018 33.4966C35.4034 31.0632 35.3052 28.6296 35.2071 26.196C35.1812 25.5611 35.7631 25.0209 36.5069 25.0035C37.2508 24.9861 37.8572 25.4985 37.8614 26.1338C37.8769 28.5694 37.8927 31.005 37.9083 33.4403Z" fill="#F8E298"/>
<path d="M41.9829 33.5315C41.9506 34.166 41.3944 34.6523 40.7405 34.6301C40.0866 34.6077 39.5653 34.0846 39.5761 33.4494C39.6175 31.0142 39.6591 28.5791 39.7008 26.1439C39.7114 25.5087 40.3235 25.0028 41.0673 25.0281C41.8112 25.0535 42.3877 25.6 42.3552 26.2345C42.2311 28.6668 42.107 31.0992 41.9829 33.5315Z" fill="#F8E298"/>
<path d="M46.0509 33.8571C45.9821 34.4887 45.3982 34.9421 44.7459 34.8822C44.0936 34.8222 43.6024 34.27 43.6497 33.6364C43.831 31.2077 44.0121 28.7788 44.1935 26.3501C44.2408 25.7165 44.8812 25.2467 45.6233 25.3148C46.3654 25.3832 46.9103 25.9619 46.8417 26.5935C46.578 29.0146 46.3143 31.436 46.0509 33.8571Z" fill="#F8E298"/>
<path d="M50.0994 34.4176C49.9945 35.044 49.3844 35.4629 48.7352 35.3651C48.086 35.2676 47.6265 34.6879 47.7102 34.0582C48.0307 31.6437 48.3512 29.2295 48.6717 26.8151C48.7553 26.1854 49.423 25.7532 50.1614 25.8644C50.8998 25.9755 51.4119 26.585 51.307 27.2115C50.9045 29.6136 50.5019 32.0155 50.0994 34.4176Z" fill="#F8E298"/>
<path d="M54.1203 35.2128C53.9793 35.8323 53.3441 36.2148 52.7 36.0794C52.0557 35.9441 51.6288 35.3386 51.7488 34.7145C52.2076 32.3228 52.6667 29.9309 53.1258 27.5391C53.2458 26.9151 53.9387 26.5228 54.6716 26.6768C55.4045 26.8309 55.8825 27.4691 55.7415 28.0887C55.2011 30.4635 54.6607 32.8382 54.1203 35.2128Z" fill="#F8E298"/>
<path d="M12.1698 53.3317C12.2374 56.2208 9.95208 58.6178 7.06572 58.6854C4.17911 58.7529 1.78417 56.4655 1.71656 53.5763C1.64895 50.6874 3.93426 48.2904 6.82086 48.2229C9.70722 48.1553 12.1022 50.4428 12.1698 53.3317Z" fill="white"/>
<path d="M6.82743 48.4885C4.0918 48.5525 1.91834 50.8322 1.98242 53.5702C2.04651 56.3085 4.32423 58.484 7.05987 58.42C9.79551 58.3559 11.969 56.0763 11.9049 53.338C11.8408 50.5999 9.56307 48.4245 6.82743 48.4885ZM7.07229 58.9509C4.0442 59.0218 1.5231 56.6136 1.45216 53.5826C1.38123 50.5519 3.78692 48.0284 6.81501 47.9575C9.84335 47.8866 12.3645 50.2948 12.4354 53.3256C12.5063 56.3566 10.1006 58.8801 7.07229 58.9509Z" fill="#292625"/>
<path d="M10.9501 54.0241C10.5988 55.2373 9.84413 56.33 8.83447 57.0878C9.49741 56.9623 10.0811 56.5236 10.4453 55.9553C10.8095 55.3868 10.9644 54.6992 10.9501 54.0241Z" fill="#D3CFD2"/>
<path d="M7.92156 50.1478C9.31456 50.9516 10.198 52.5672 10.1235 54.175C10.3901 53.3284 10.395 52.3767 10.0083 51.5778C9.6216 50.779 8.80812 50.1683 7.92156 50.1478Z" fill="#D3CFD2"/>
<path d="M8.41612 56.0191C8.93527 55.7028 9.20536 55.071 9.20711 54.463C9.2091 53.8547 8.97791 53.2678 8.68087 52.7373C8.56048 52.5222 8.39781 52.2924 8.1536 52.2586C8.606 53.464 8.99566 54.8695 8.41612 56.0191Z" fill="#D3CFD2"/>
<path d="M4.92713 55.8765C5.24827 55.922 5.57515 55.8823 5.89441 55.8259C6.47524 55.7236 7.04606 55.5665 7.5977 55.358C7.36946 55.7831 7.03325 56.1498 6.62947 56.4139C6.46668 56.5204 6.29055 56.6115 6.10026 56.6525C5.83967 56.7085 5.56707 56.6677 5.31092 56.5937C4.58045 56.3829 3.93312 55.895 3.5288 55.2505C3.96463 55.5242 4.4176 55.804 4.92713 55.8765Z" fill="#D3CFD2"/>
<path d="M6.27676 57.1141C6.83031 57.2646 7.43967 57.1973 7.94723 56.93C7.99903 56.9028 8.07488 56.8793 8.10526 56.9293C8.11981 56.9535 8.11454 56.9844 8.10719 57.0118C8.0009 57.4093 7.56942 57.6631 7.15862 57.6487C6.74783 57.6343 6.37026 57.3973 6.09619 57.0906C6.15635 57.0797 6.21772 57.0982 6.27676 57.1141Z" fill="#D3CFD2"/>
<path d="M5.22576 54.9733C5.05967 55.1096 4.81908 55.1242 4.61362 55.0611C4.40841 54.9982 4.2311 54.8681 4.06197 54.7356C3.68708 54.4418 3.32027 54.1093 3.12881 53.6732C2.80969 52.9462 3.04702 52.0883 3.44339 51.4008C3.39122 52.052 3.34326 52.7336 3.59975 53.3343C3.8623 53.9487 4.98299 54.3507 5.22576 54.9733Z" fill="#D3CFD2"/>
<path d="M6.83271 51.1203C6.45642 50.7453 5.86914 50.6146 5.35657 50.7535C4.84401 50.8924 4.41494 51.2816 4.18472 51.7605C3.99542 51.3636 4.1389 50.859 4.45916 50.5576C4.77943 50.2562 5.24057 50.1392 5.6795 50.1609C5.95795 50.1744 6.24119 50.243 6.46674 50.4069C6.69204 50.5711 6.85117 50.842 6.83271 51.1203Z" fill="#D3CFD2"/>
<path d="M64.0662 60.7776C63.2658 61.3876 62.3343 61.9214 61.3283 61.9077C59.6665 61.8851 58.4091 60.4227 57.5504 58.9984C55.7394 55.9951 54.6306 52.5703 54.3373 49.0747C60.1285 46.8576 64.9317 42.1784 67.3035 36.4444C68.9708 37.886 69.2335 40.6818 67.8632 42.4092C68.7184 41.6122 70.2277 42.623 70.3074 43.7896C70.3871 44.9565 69.6073 45.9865 68.8695 46.8934C70.0514 48.3199 70.1458 50.5422 69.0904 52.0642C68.6555 55.4797 66.8035 58.6922 64.0662 60.7776Z" fill="#F2591D"/>
<path d="M54.6193 49.2505C54.9336 52.6335 56.0237 55.9527 57.7776 58.8617C58.8802 60.6898 60.0763 61.6254 61.332 61.6425C62.1185 61.654 62.9269 61.3123 63.9057 60.5667C66.6049 58.5101 68.3987 55.399 68.8272 52.0312C68.8324 51.9886 68.8482 51.9482 68.8723 51.9132C69.8626 50.4858 69.7738 48.4006 68.6652 47.0631C68.5845 46.9656 68.5837 46.8244 68.6638 46.726C69.4305 45.783 70.1127 44.8504 70.0433 43.8078C69.9941 43.09 69.2508 42.3747 68.5696 42.3906C68.3677 42.3954 68.1909 42.467 68.0445 42.6036C67.9426 42.6987 67.7853 42.6986 67.6835 42.6045C67.5817 42.51 67.5695 42.3531 67.6559 42.2443C68.87 40.7156 68.7238 38.3118 67.3975 36.9022C64.9862 42.4505 60.2442 47.0368 54.6193 49.2505ZM61.4384 62.173C61.4004 62.1739 61.3627 62.174 61.325 62.1734C59.8732 62.1539 58.5268 61.1319 57.3234 59.1362C55.4934 56.1008 54.3695 52.6294 54.0729 49.0971C54.0632 48.9794 54.1322 48.8691 54.2428 48.827C59.936 46.6472 64.7268 41.9803 67.0584 36.3432C67.0907 36.2644 67.1593 36.2061 67.242 36.1864C67.3261 36.1665 67.4123 36.1882 67.4767 36.2437C69.0365 37.5918 69.4409 40.0395 68.526 41.8609C69.5099 41.8149 70.5031 42.7555 70.5718 43.7719C70.6515 44.938 69.9613 45.955 69.2093 46.8962C70.3205 48.3953 70.3848 50.6078 69.345 52.1617C68.8843 55.6455 67.0218 58.86 64.2272 60.9895C63.1937 61.7766 62.3077 62.1527 61.4384 62.173Z" fill="#292625"/>
<path d="M63.4583 57.2497C63.6265 57.7711 63.4127 58.3398 63.1232 58.8047C62.832 59.2718 62.4375 59.7051 61.9171 59.8832C61.117 60.1568 60.2009 59.7369 59.6903 59.0627C59.1797 58.3884 59.0062 57.5164 58.9595 56.6718C58.9352 56.2341 58.9438 55.7798 59.1235 55.3803C59.1657 55.2861 59.2212 55.1918 59.3101 55.1398C59.3936 55.0911 59.4943 55.0862 59.5902 55.075C60.4069 54.9792 61.0754 54.3465 61.4677 53.6234C62.2279 52.2227 62.0995 50.3863 61.152 49.1053C62.7848 48.0043 64.1194 46.4647 64.9782 44.6914C65.1335 44.3704 65.2824 44.0305 65.5554 43.8015C66.266 45.2427 66.0796 47.0828 65.0944 48.352C66.1672 48.5421 66.9065 49.6648 66.9088 50.755C66.9113 51.8455 66.314 52.8635 65.5398 53.6306C66.0622 54.3385 66.1202 55.3587 65.6814 56.1214C65.2429 56.8841 64.3324 57.3462 63.4583 57.2497Z" fill="#D34B20"/>
<path d="M8.47663 62.0788C9.30469 62.6506 10.2601 63.1403 11.2644 63.0796C12.9234 62.9793 14.1109 61.4596 14.9021 59.9967C16.5706 56.912 17.518 53.4391 17.6474 49.9336C11.7589 47.9898 6.74173 43.5404 4.10458 37.9236C2.50577 39.4417 2.37443 42.2468 3.82445 43.9081C2.93291 43.1521 1.47241 44.2323 1.44809 45.4013C1.42352 46.5706 2.25018 47.5631 3.02932 48.4345C1.91623 49.9147 1.92535 52.139 3.05084 53.61C3.64453 57.0014 5.6448 60.1237 8.47663 62.0788Z" fill="#F2591D"/>
<path d="M3.11776 43.9225C2.43653 43.9384 1.72752 44.6877 1.7124 45.407C1.69091 46.4518 2.41604 47.3514 3.2262 48.2576C3.31055 48.3521 3.31659 48.4931 3.24057 48.5943C2.19673 49.9824 2.20538 52.0693 3.26081 53.4487C3.28657 53.4826 3.30398 53.5222 3.31121 53.5645C3.8968 56.9086 5.8341 59.9324 8.62659 61.8605C9.59879 62.5317 10.4019 62.8362 11.154 62.8186C11.1946 62.8247 11.2163 62.8167 11.2478 62.8147C12.5013 62.7388 13.6521 61.7483 14.668 59.8706C16.2838 56.8828 17.2177 53.5162 17.3732 50.1223C11.6511 48.1738 6.69949 43.8144 4.03153 38.3853C2.77214 39.8554 2.74037 42.2636 4.02337 43.7334C4.11496 43.8382 4.11015 43.9955 4.01261 44.0947C3.9158 44.1934 3.75843 44.2006 3.65222 44.1109C3.49913 43.9813 3.31938 43.9178 3.11776 43.9225ZM11.1669 63.3496C11.1666 63.3496 11.1666 63.3496 11.1664 63.3496C10.297 63.3699 9.39412 63.0357 8.32524 62.2978C5.43402 60.3014 3.42297 57.1776 2.79975 53.7192C1.68774 52.2159 1.64943 50.0027 2.68999 48.453C1.89333 47.5481 1.15776 46.5645 1.18209 45.3959C1.2032 44.3776 2.15588 43.3937 3.13628 43.3913C2.13722 41.6147 2.4261 39.1508 3.92161 37.7311C3.98316 37.6727 4.06819 37.647 4.1532 37.663C4.23671 37.6788 4.30815 37.7338 4.34416 37.8109C6.93664 43.3328 11.9405 47.7705 17.7297 49.6816C17.8421 49.7185 17.9163 49.8254 17.9118 49.9435C17.781 53.4858 16.8208 57.006 15.1348 60.1236C14.0258 62.1734 12.7287 63.2573 11.2796 63.3447C11.242 63.3471 11.2043 63.3487 11.1669 63.3496Z" fill="#292625"/>
<path d="M8.7803 58.5294C8.63663 59.058 8.87689 59.6161 9.18804 60.0669C9.5005 60.5199 9.91516 60.9343 10.4433 61.0878C11.255 61.3237 12.1507 60.8614 12.6293 60.164C13.1078 59.4666 13.24 58.5874 13.2474 57.7416C13.2512 57.3032 13.2211 56.8499 13.0232 56.4592C12.9763 56.3671 12.9168 56.2755 12.8253 56.2277C12.7398 56.1829 12.639 56.1828 12.5424 56.176C11.7224 56.1185 11.0248 55.5179 10.5991 54.8139C9.77446 53.4503 9.81677 51.6099 10.7033 50.2859C9.02057 49.2625 7.61535 47.7871 6.67452 46.0558C6.5044 45.7425 6.33982 45.41 6.05638 45.1939C5.414 46.6668 5.68651 48.4962 6.73002 49.718C5.66729 49.958 4.98129 51.114 5.02975 52.2032C5.07846 53.2926 5.72279 54.2815 6.53208 55.0115C6.04337 55.7432 6.03307 56.765 6.50682 57.5063C6.98057 58.2476 7.91191 58.6666 8.7803 58.5294Z" fill="#D34B20"/>
<path d="M61.3094 60.1498C60.6474 53.5724 58.861 46.7664 54.2736 42.0099C50.5725 38.1722 45.1926 36.0174 39.8684 36.24C38.6818 36.2895 37.4611 36.4857 36.3196 36.8595C35.1619 36.5395 33.9332 36.4006 32.7457 36.4067C27.4168 36.4334 22.1436 38.8376 18.6262 42.8442C14.2666 47.8101 12.8003 54.6922 12.4467 61.2934C12.1862 66.1561 12.4582 71.1291 14.1197 75.7059C15.7815 80.2828 18.9663 84.4511 23.3693 86.5232C23.5463 86.1727 23.7234 85.8222 23.9004 85.4714C24.251 87.2347 25.5792 88.7699 27.2728 89.3688C28.9663 89.9679 30.9633 89.6093 32.343 88.4582C34.017 88.8208 35.8277 89.1523 37.5423 89.1027C39.2573 89.072 41.0504 88.6562 42.7059 88.2157C44.1377 89.3009 46.1495 89.5657 47.8129 88.8881C49.4766 88.2106 50.7315 86.615 50.9993 84.8372C51.1925 85.1793 51.3858 85.5211 51.579 85.8629C55.8805 83.5872 58.8665 79.2744 60.3124 74.6249C61.758 69.9753 61.7973 64.995 61.3094 60.1498Z" fill="#F2591D"/>
<path d="M42.6997 87.9501C42.7588 87.9487 42.8179 87.9674 42.866 88.004C43.7424 88.6682 44.8554 89.0192 45.9995 88.9924C46.6004 88.9784 47.1774 88.8607 47.7133 88.6422C49.2956 87.9977 50.4827 86.4885 50.7372 84.7976C50.754 84.6855 50.8401 84.5967 50.9512 84.5761C51.0643 84.5555 51.1749 84.6079 51.2307 84.7063L51.6823 85.5054C55.4996 83.3954 58.5448 79.4166 60.0594 74.5458C61.3132 70.5134 61.6266 65.9476 61.0459 60.1764C60.2314 52.0902 57.9541 46.2081 54.0829 42.1943C50.4499 38.4272 45.1182 36.2837 39.8796 36.5053C38.6611 36.5563 37.4589 36.7659 36.4024 37.1119C36.3531 37.1281 36.2994 37.1293 36.2494 37.1155C35.1776 36.8192 33.9667 36.6662 32.7472 36.6722C27.5151 36.693 22.2783 39.0865 18.8258 43.0194C15.1464 47.2105 13.1467 53.1924 12.7119 61.3076C12.4016 67.0988 12.9281 71.645 14.3695 75.6151C16.1101 80.4097 19.3379 84.2417 23.2502 86.1708L23.6637 85.3515C23.715 85.2506 23.8235 85.1923 23.9367 85.2084C24.0487 85.2238 24.1385 85.3084 24.1606 85.4196C24.4942 87.0965 25.7508 88.5485 27.3616 89.1185C27.9071 89.3116 28.4887 89.4022 29.0899 89.3882C30.234 89.3614 31.3288 88.9587 32.1735 88.2542C32.2359 88.2015 32.3193 88.1811 32.3994 88.1987C34.0415 88.5543 35.7928 88.8779 37.4729 88.8386L37.5351 88.8372L37.5999 88.8356C39.2798 88.7963 41.014 88.3912 42.6377 87.9591C42.6581 87.9536 42.679 87.9506 42.6997 87.9501ZM46.0119 89.5234C44.7935 89.5519 43.6056 89.1911 42.651 88.505C41.0312 88.933 39.3047 89.327 37.6123 89.3666L37.5475 89.3681L37.4853 89.3696C35.7928 89.4092 34.0497 89.0964 32.4116 88.7447C31.4902 89.4747 30.3205 89.8906 29.1023 89.9191C28.4365 89.9347 27.7913 89.8339 27.1845 89.6192C25.6244 89.0672 24.3644 87.7678 23.8258 86.2078L23.6065 86.643C23.5419 86.7712 23.3871 86.825 23.2566 86.7634C19.1141 84.814 15.6932 80.8166 13.8709 75.7964C12.4042 71.757 11.8676 67.1441 12.1822 61.279C12.6236 53.0403 14.6662 46.9528 18.4268 42.6689C21.9779 38.624 27.3552 36.1689 32.7445 36.141C34.0012 36.1348 35.2013 36.2832 36.3133 36.5825C37.4102 36.2315 38.602 36.0271 39.8574 35.9745C45.248 35.7467 50.7284 37.9509 54.4647 41.8255C58.4217 45.9285 60.7471 51.9137 61.5737 60.1231C62.1621 65.9678 61.8418 70.6007 60.5659 74.7036C58.9803 79.8035 55.7501 83.9566 51.7034 86.0976C51.5766 86.1653 51.4195 86.1188 51.3484 85.9937L51.1085 85.5693C50.644 87.1527 49.4461 88.5097 47.9135 89.134C47.3173 89.3769 46.6777 89.5078 46.0119 89.5234Z" fill="#292625"/>
<path d="M59.5789 66.9359C59.2493 66.1472 58.4898 65.6218 57.6336 65.6001C57.6342 65.613 58.3236 65.3808 58.4025 65.3382C58.6932 65.1814 58.9431 64.9564 59.134 64.6873C59.4799 64.2004 59.6022 63.5888 59.514 63.0017C59.3445 61.8696 58.3219 61.0084 57.1704 61.0936C57.1695 61.0881 57.1686 61.0824 57.1678 61.0769C58.3767 60.7997 59.0446 59.5562 58.7192 58.3785C58.5725 57.8477 58.266 57.3846 57.8059 57.075C57.5431 56.8982 57.2404 56.7871 56.9264 56.7475C56.8277 56.735 56.0016 56.7894 56.0119 56.8154C57.12 56.2712 57.5011 54.9026 56.9071 53.8317C56.3154 52.7658 55.011 52.305 53.9254 52.9431C53.9324 52.9527 54.3891 52.3923 54.4332 52.3138C54.579 52.0537 54.6616 51.7667 54.6861 51.47C54.7356 50.8721 54.5119 50.2651 54.1123 49.8216C53.2974 48.9174 51.9261 48.761 51.0108 49.6176C51.0139 49.6205 51.3228 49.0248 51.3491 48.943C51.4457 48.6448 51.4688 48.3312 51.4264 48.021C51.3451 47.4305 51.0027 46.8997 50.5266 46.5483C49.5454 45.8158 48.1446 45.9773 47.4371 47.0049C47.4457 47.0097 47.6186 46.3122 47.625 46.2218C47.6474 45.8999 47.5907 45.5779 47.4669 45.2804C47.2489 44.7573 46.8178 44.3438 46.3036 44.1142C45.1877 43.6093 43.8552 44.0685 43.3846 45.2218C43.3874 45.2227 43.417 44.5553 43.4065 44.4696C43.3688 44.1606 43.2591 43.8688 43.0924 43.6068C42.7897 43.1319 42.2951 42.8019 41.7524 42.6664C40.5279 42.3609 39.2613 43.087 39.0452 44.3595C39.0537 44.3603 38.9168 43.6558 38.8841 43.5706C38.7783 43.2942 38.613 43.0475 38.4005 42.8418C37.971 42.426 37.3677 42.1955 36.7688 42.2228C36.161 42.2502 35.5911 42.4755 35.1714 42.9246C34.9695 43.1405 34.8177 43.3984 34.7264 43.6797C34.6982 43.7663 34.598 44.4761 34.6065 44.4749C34.3324 43.2513 33.1193 42.6135 31.9346 42.8896C31.3851 43.0177 30.8882 43.3677 30.5827 43.8411C30.4138 44.1027 30.3036 44.3957 30.2666 44.7054C30.2554 44.8004 30.3037 45.5664 30.3176 45.5614C29.7863 44.4308 28.4622 44.0657 27.3663 44.5936C26.8301 44.8518 26.4086 45.33 26.2228 45.8946C26.1345 46.163 26.1009 46.4447 26.1284 46.7262C26.1379 46.8212 26.3497 47.5601 26.3627 47.5518C25.6012 46.5596 24.2279 46.4883 23.2717 47.2386C22.8032 47.6062 22.4939 48.1637 22.4336 48.7556C22.405 49.0371 22.4328 49.3198 22.5208 49.5892C22.5504 49.6799 22.918 50.3573 22.9295 50.3457C21.97 49.5373 20.6125 49.7668 19.8408 50.7087C19.0665 51.6544 19.2146 53.0735 20.2006 53.8026C20.2037 53.7978 19.5615 53.6012 19.4768 53.5899C19.1612 53.5476 18.8356 53.5779 18.5353 53.6847C17.9596 53.8893 17.5264 54.317 17.258 54.8593C16.7147 55.9576 17.1802 57.3091 18.3096 57.7934C18.3187 57.7672 17.4895 57.7551 17.3916 57.7727C17.0795 57.8282 16.7832 57.9548 16.53 58.1457C16.0869 58.4794 15.8072 58.958 15.6854 59.4949C15.5451 60.1142 15.6672 60.7837 16.0472 61.2964C16.2127 61.5214 16.4242 61.7114 16.6654 61.8522C16.7395 61.8952 17.3739 62.1357 17.3747 62.1284C16.2902 62.1011 15.3409 62.9075 15.1528 63.9694C14.9238 65.26 15.7997 66.5329 17.1351 66.6338C17.135 66.6201 16.4371 66.8186 16.3563 66.857C16.0877 66.9852 15.8456 67.1701 15.6514 67.3957C15.2625 67.8477 15.0911 68.4504 15.1356 69.0391C15.1786 69.6086 15.4108 70.1392 15.8255 70.5365C16.0406 70.7424 16.3031 70.8962 16.5849 70.9911C16.6763 71.0217 17.5021 71.1373 17.4966 71.1052C16.2551 71.3986 15.6376 72.6418 15.9548 73.8401C16.1005 74.3904 16.4825 74.8848 16.9733 75.1674C17.2534 75.3285 17.5623 75.4238 17.8859 75.4354C17.9753 75.4386 18.7828 75.324 18.7668 75.2899C17.5892 75.9014 17.3585 77.3227 18.0646 78.3902C18.3772 78.8622 18.893 79.221 19.4521 79.3216C19.7565 79.3762 20.0696 79.3661 20.3669 79.2789C20.4554 79.2529 21.2286 78.8574 21.191 78.8188C20.3043 79.7712 20.5376 81.2278 21.5803 81.9581C22.6114 82.6799 24.0206 82.4617 24.6662 81.3394C24.6501 81.331 24.5056 82.0166 24.5015 82.0979C24.4853 82.4196 24.5444 82.7473 24.6828 83.0387C24.9399 83.5797 25.4085 83.9936 25.974 84.185C27.1347 84.6031 28.4282 84.0351 28.8059 82.8373C28.7984 82.8355 28.8172 83.5112 28.8331 83.5946C28.8928 83.9035 29.0231 84.1931 29.2061 84.4482C29.5321 84.9029 30.0416 85.1878 30.5825 85.3014C31.8024 85.5572 33.0271 84.7686 33.2327 83.5266C33.2317 83.5266 33.3506 84.18 33.38 84.2618C33.4855 84.5552 33.655 84.8214 33.8707 85.046C34.2756 85.4678 34.8467 85.6871 35.4252 85.7083C36.6173 85.7609 37.6863 84.8587 37.7454 83.6486C37.7496 83.6485 37.9208 84.2432 37.9563 84.3181C38.081 84.5821 38.2613 84.8183 38.482 85.0095C38.9545 85.419 39.5796 85.6071 40.1988 85.5441C40.75 85.488 41.2854 85.2583 41.6647 84.8468C41.8722 84.6216 42.0337 84.3524 42.1323 84.0622C42.1633 83.971 42.2758 83.2182 42.2636 83.22C42.537 84.3851 43.7325 85.1221 44.9004 84.8528C45.4408 84.7285 45.9512 84.4371 46.2784 83.9809C46.4607 83.7265 46.5878 83.4309 46.6455 83.1232C46.6628 83.0303 46.667 82.2578 46.6494 82.263C47.0954 83.4318 48.4109 83.9298 49.5458 83.4554C50.0753 83.2538 50.5092 82.8349 50.7448 82.3208C50.8774 82.0316 50.9395 81.719 50.925 81.401C50.9209 81.3111 50.7475 80.5465 50.7236 80.5601C51.4127 81.6382 52.8317 81.8119 53.8264 81.0477C54.8335 80.2742 55.0253 78.8286 54.1081 77.9015C54.0896 77.9219 54.7227 78.2625 54.7977 78.2887C55.1041 78.3947 55.4318 78.413 55.751 78.3633C56.3587 78.2686 56.8855 77.8742 57.2171 77.3649C57.9038 76.2813 57.5905 74.8528 56.4042 74.2918C56.3957 74.312 57.0926 74.4109 57.1727 74.4093C57.5014 74.4041 57.8201 74.3132 58.1049 74.1501C58.6299 73.8489 59.0202 73.32 59.1537 72.7274C59.4264 71.516 58.7413 70.2981 57.4907 70.0637C57.4848 70.1103 58.3931 69.9109 58.489 69.8682C58.848 69.7081 59.1486 69.4489 59.3676 69.1229C59.7937 68.4887 59.8713 67.6408 59.5789 66.9359C59.6958 67.2181 59.4612 66.6541 59.5789 66.9359Z" fill="#F7A80E"/>
<path d="M55.1793 64.1813C54.9143 63.5465 54.3032 63.1238 53.6144 63.1064C53.6149 63.1169 54.1696 62.93 54.2332 62.8957C54.4669 62.7696 54.6679 62.5887 54.8216 62.3722C55.0998 61.9804 55.1979 61.4883 55.1272 61.0161C54.9908 60.1052 54.1681 59.4125 53.2417 59.4809C53.2411 59.4765 53.2405 59.472 53.2397 59.4678C54.2124 59.2446 54.7497 58.2442 54.4879 57.2967C54.3698 56.8699 54.1234 56.4971 53.753 56.2481C53.5415 56.1059 53.2982 56.0164 53.0455 55.9846C52.9662 55.9747 52.3016 56.0182 52.3101 56.0393C53.2014 55.6013 53.5079 54.5004 53.0299 53.6389C52.5539 52.7812 51.5046 52.4107 50.6313 52.9239C50.6369 52.9318 51.0044 52.4809 51.0398 52.4176C51.157 52.2084 51.2235 51.9777 51.2434 51.7391C51.2828 51.2579 51.1031 50.7696 50.7815 50.4127C50.126 49.6854 49.0228 49.5595 48.2864 50.2487C48.289 50.2509 48.5374 49.7718 48.5586 49.7061C48.6364 49.4661 48.6549 49.2138 48.6209 48.9642C48.5556 48.4892 48.2799 48.0621 47.8971 47.7794C47.1076 47.1902 45.9806 47.32 45.4114 48.1467C45.4183 48.1508 45.5577 47.5895 45.5627 47.5169C45.5809 47.2579 45.5351 46.9988 45.4354 46.7595C45.2603 46.3385 44.9132 46.0058 44.4997 45.8213C43.6018 45.415 42.5299 45.7845 42.1514 46.7124C42.1536 46.7131 42.1773 46.176 42.1689 46.1073C42.1386 45.8586 42.0505 45.624 41.9163 45.4132C41.6729 45.0308 41.2749 44.7655 40.8382 44.6566C39.8532 44.411 38.834 44.9948 38.6602 46.0187C38.6672 46.0193 38.5571 45.4526 38.5308 45.384C38.4457 45.1616 38.3127 44.9631 38.1418 44.7976C37.7962 44.4634 37.3107 44.2778 36.8291 44.2996C36.34 44.3218 35.8816 44.5029 35.5438 44.8642C35.3816 45.0379 35.2594 45.2457 35.186 45.4718C35.1634 45.5415 35.0827 46.1124 35.0894 46.1115C34.8691 45.1271 33.8931 44.6139 32.9401 44.8362C32.4978 44.9392 32.098 45.2209 31.8524 45.6015C31.7166 45.8121 31.6279 46.0476 31.5981 46.2969C31.5889 46.3734 31.628 46.9897 31.6392 46.9854C31.2117 46.0761 30.1467 45.7824 29.2648 46.2069C28.8335 46.4146 28.4945 46.7994 28.3451 47.2537C28.274 47.4695 28.2471 47.696 28.2691 47.9227C28.2766 47.999 28.4468 48.5935 28.4576 48.5867C27.8448 47.7887 26.7401 47.7311 25.9708 48.3348C25.5939 48.6305 25.345 49.0791 25.2965 49.5553C25.2736 49.7817 25.2959 50.0091 25.3666 50.2259C25.3906 50.2988 25.6862 50.8439 25.6955 50.8344C24.9237 50.184 23.8315 50.3688 23.2108 51.1265C22.5877 51.8872 22.7068 53.0289 23.5003 53.6156C23.5027 53.6116 22.9859 53.4535 22.9178 53.4443C22.6641 53.4105 22.402 53.4349 22.1603 53.5205C21.6973 53.6853 21.3488 54.0293 21.1328 54.4657C20.6956 55.3493 21.0703 56.4363 21.979 56.8261C21.986 56.8049 21.3189 56.7953 21.2404 56.8094C20.9895 56.854 20.7509 56.9558 20.5473 57.1092C20.1906 57.378 19.9657 57.7631 19.8679 58.1947C19.755 58.6928 19.853 59.2318 20.1587 59.644C20.292 59.8253 20.4619 59.978 20.6563 60.0911C20.7158 60.126 21.2261 60.3194 21.2268 60.3134C20.3544 60.2914 19.5906 60.9402 19.4391 61.7946C19.2549 62.8327 19.9597 63.8568 21.0339 63.9379C21.0339 63.9271 20.4724 64.0867 20.4075 64.1177C20.1914 64.2207 19.9967 64.3695 19.8404 64.551C19.5276 64.9145 19.3896 65.3995 19.4254 65.8732C19.4601 66.3312 19.6466 66.7579 19.9804 67.0777C20.1536 67.2433 20.3647 67.367 20.5914 67.4434C20.6649 67.468 21.3292 67.5609 21.3249 67.5352C20.3259 67.771 19.8293 68.7715 20.0846 69.7353C20.2015 70.1781 20.5089 70.5758 20.904 70.8032C21.1292 70.9328 21.3775 71.0095 21.6378 71.0189C21.71 71.0215 22.3595 70.9293 22.3467 70.9018C21.3994 71.3938 21.2137 72.5369 21.7816 73.396C22.0332 73.7754 22.4481 74.0643 22.8979 74.145C23.1429 74.189 23.3949 74.1809 23.6339 74.1108C23.7051 74.0899 24.3273 73.7717 24.2968 73.7407C23.5837 74.5068 23.7712 75.6787 24.6101 76.266C25.4396 76.8468 26.5733 76.6714 27.0927 75.7684C27.0795 75.7617 26.9634 76.3134 26.9602 76.3784C26.9472 76.6374 26.9946 76.9012 27.1059 77.1355C27.3129 77.5707 27.6899 77.9037 28.1447 78.0577C29.0786 78.3942 30.119 77.9373 30.423 76.9736C30.417 76.972 30.432 77.5157 30.445 77.5826C30.4928 77.8311 30.5976 78.0643 30.745 78.2695C31.0072 78.6352 31.417 78.8645 31.8523 78.9558C32.8336 79.1615 33.8187 78.5272 33.9843 77.528C33.9833 77.528 34.0793 78.0538 34.1028 78.1195C34.1874 78.3556 34.324 78.5698 34.4975 78.7504C34.8233 79.0897 35.2826 79.2661 35.7481 79.2832C36.7071 79.3254 37.5672 78.5996 37.6146 77.6262C37.6181 77.6261 37.7556 78.1047 37.7842 78.1647C37.8848 78.3773 38.0298 78.5673 38.2072 78.7211C38.5874 79.0505 39.0901 79.2017 39.5882 79.1511C40.0318 79.1059 40.4627 78.9212 40.7678 78.5902C40.9345 78.4089 41.0645 78.1922 41.144 77.9589C41.169 77.8856 41.2592 77.28 41.2495 77.2815C41.4696 78.2187 42.4313 78.8114 43.3709 78.595C43.8055 78.4949 44.2162 78.2604 44.4793 77.8936C44.626 77.6888 44.7283 77.4512 44.7747 77.2035C44.7887 77.1287 44.7919 76.5074 44.7778 76.5115C45.1368 77.4519 46.1948 77.8525 47.1079 77.4707C47.534 77.3086 47.8829 76.9716 48.0725 76.5578C48.1792 76.3254 48.2292 76.0738 48.2175 75.818C48.214 75.7456 48.0745 75.1306 48.0553 75.1416C48.6099 76.0087 49.7512 76.1484 50.5515 75.5339C51.3618 74.9115 51.5161 73.7486 50.7781 73.0027C50.7633 73.0191 51.2727 73.293 51.3332 73.3141C51.5796 73.3993 51.8431 73.4144 52.0998 73.3744C52.5889 73.298 53.0126 72.9807 53.2794 72.5711C53.8318 71.6993 53.5797 70.5502 52.6256 70.0987C52.6187 70.1149 53.1791 70.1945 53.2438 70.1932C53.5081 70.1891 53.7645 70.1161 53.9936 69.9845C54.4159 69.7425 54.73 69.3171 54.8374 68.8403C55.0568 67.8658 54.5056 66.8859 53.4995 66.6973C53.4949 66.7349 54.2254 66.5743 54.3027 66.54C54.5913 66.4111 54.8334 66.2028 55.0095 65.9405C55.3524 65.4302 55.4145 64.748 55.1793 64.1813C55.2735 64.408 55.0846 63.9544 55.1793 64.1813Z" fill="#F3D055"/>
<path d="M52.159 60.899C51.9378 60.3689 51.4275 60.016 50.8524 60.0015C50.8529 60.0102 51.3159 59.8542 51.3689 59.8257C51.5641 59.7204 51.7319 59.5693 51.8602 59.3884C52.0925 59.0613 52.1745 58.6506 52.1156 58.2564C52.0017 57.4959 51.3148 56.9175 50.5412 56.9746C50.5408 56.9708 50.5402 56.9671 50.5396 56.9634C51.3517 56.7772 51.8003 55.942 51.5815 55.151C51.4831 54.7945 51.2773 54.4834 50.9681 54.2755C50.7915 54.1567 50.5883 54.082 50.3775 54.0554C50.3111 54.047 49.7562 54.0835 49.7633 54.101C50.5075 53.7355 50.7634 52.8162 50.3643 52.0971C49.9671 51.3809 49.091 51.0713 48.3617 51.5C48.3664 51.5066 48.6731 51.1301 48.7029 51.0772C48.8006 50.9027 48.8563 50.71 48.8726 50.5107C48.9059 50.1091 48.7556 49.7013 48.4872 49.4035C47.9399 48.796 47.0189 48.6909 46.404 49.2663C46.406 49.2683 46.6136 48.8681 46.6313 48.8132C46.696 48.613 46.7118 48.4022 46.6832 48.194C46.6288 47.7974 46.3985 47.441 46.0788 47.2048C45.4197 46.7127 44.4787 46.8212 44.0038 47.5115C44.0093 47.5149 44.1257 47.0464 44.1298 46.9855C44.1449 46.7693 44.1069 46.553 44.0236 46.353C43.8773 46.0019 43.5877 45.724 43.2423 45.5699C42.4928 45.2309 41.5977 45.5392 41.2818 46.3138C41.2836 46.3145 41.3033 45.8662 41.2964 45.8086C41.2711 45.6011 41.1974 45.4051 41.0854 45.2291C40.8822 44.91 40.5499 44.6884 40.1853 44.5974C39.363 44.3923 38.5121 44.88 38.3671 45.7348C38.3726 45.7351 38.2806 45.262 38.2588 45.2048C38.1878 45.0193 38.0766 44.8535 37.934 44.7153C37.6456 44.436 37.2402 44.281 36.8379 44.2994C36.4297 44.318 36.047 44.4691 35.7649 44.7709C35.6295 44.916 35.5275 45.0893 35.4662 45.2781C35.4473 45.3363 35.3798 45.8129 35.3856 45.8123C35.2016 44.9904 34.3866 44.562 33.591 44.7473C33.2217 44.8334 32.8879 45.0686 32.6829 45.3865C32.5694 45.5621 32.4954 45.759 32.4706 45.967C32.4631 46.0309 32.4956 46.5454 32.5047 46.5419C32.1479 45.7826 31.2586 45.5373 30.5224 45.8919C30.1624 46.0652 29.8793 46.3865 29.7546 46.7657C29.6952 46.946 29.6726 47.1352 29.691 47.3242C29.6973 47.388 29.8397 47.8845 29.8486 47.8788C29.3369 47.2123 28.4145 47.1644 27.7721 47.6685C27.4576 47.9155 27.2499 48.2897 27.2092 48.6875C27.19 48.8766 27.2089 49.0663 27.2678 49.2474C27.2877 49.3081 27.5348 49.7631 27.5423 49.7555C26.898 49.2125 25.986 49.3666 25.4678 49.9992C24.9476 50.6346 25.0471 51.5876 25.7094 52.0774C25.7116 52.0741 25.2801 51.9422 25.2232 51.9346C25.0113 51.9063 24.7926 51.9267 24.5908 51.9981C24.2043 52.1356 23.9131 52.4228 23.7329 52.7871C23.3679 53.5248 23.6808 54.4326 24.4394 54.7579C24.4452 54.7403 23.8883 54.7323 23.8226 54.7439C23.613 54.7813 23.4141 54.8664 23.244 54.9946C22.9462 55.2187 22.7585 55.5402 22.6768 55.9007C22.5824 56.3167 22.6643 56.7664 22.9198 57.1107C23.031 57.2621 23.1728 57.3897 23.335 57.4841C23.3846 57.5132 23.8108 57.6746 23.8112 57.6696C23.083 57.6512 22.4453 58.1929 22.3189 58.9063C22.1652 59.773 22.7534 60.6281 23.6504 60.6958C23.6504 60.6868 23.1816 60.82 23.1273 60.8458C22.9468 60.9319 22.7842 61.056 22.6537 61.2077C22.3926 61.5112 22.2775 61.9159 22.3075 62.3116C22.3364 62.694 22.4921 63.0502 22.771 63.3173C22.9153 63.4556 23.0914 63.5589 23.2809 63.6224C23.3421 63.6433 23.8969 63.7207 23.8932 63.6993C23.0594 63.8963 22.6445 64.7314 22.8576 65.5363C22.9554 65.9058 23.2121 66.2379 23.5418 66.4276C23.7299 66.5359 23.9373 66.6 24.1547 66.6077C24.2147 66.6098 24.7572 66.5329 24.7464 66.5101C23.9553 66.9207 23.8004 67.8754 24.2746 68.5925C24.4847 68.9095 24.8312 69.1505 25.2068 69.2179C25.4111 69.2546 25.6214 69.2479 25.821 69.1893C25.8805 69.1717 26.3999 68.9061 26.3748 68.8802C25.7791 69.5199 25.9358 70.4983 26.6361 70.9889C27.3288 71.4738 28.2754 71.3272 28.7089 70.5733C28.698 70.5678 28.6009 71.0282 28.5982 71.0827C28.5876 71.2989 28.6269 71.5188 28.7201 71.7148C28.8929 72.0781 29.2075 72.3561 29.5873 72.4847C30.3671 72.7656 31.2357 72.3841 31.4893 71.5796C31.4845 71.5782 31.4969 72.0322 31.5077 72.0881C31.5478 72.2956 31.6352 72.4902 31.7583 72.6615C31.9772 72.9668 32.3195 73.1582 32.6828 73.2344C33.5022 73.4061 34.3247 72.8766 34.4627 72.0425C34.4622 72.0425 34.5422 72.4812 34.5619 72.5362C34.6324 72.7335 34.7465 72.9122 34.8913 73.063C35.1634 73.3463 35.5468 73.4937 35.9356 73.5079C36.7362 73.5431 37.4543 72.937 37.4939 72.1245C37.4969 72.1244 37.6116 72.5238 37.6355 72.5742C37.7193 72.7514 37.8406 72.91 37.9887 73.0385C38.306 73.3137 38.7258 73.4398 39.1418 73.3973C39.5119 73.3597 39.8716 73.2056 40.1263 72.9292C40.2658 72.7778 40.3742 72.5971 40.4405 72.4021C40.4613 72.3409 40.5369 71.8354 40.5287 71.8365C40.7125 72.6189 41.5153 73.1139 42.2998 72.9333C42.6628 72.8496 43.0055 72.654 43.2253 72.3477C43.3479 72.1766 43.4331 71.9782 43.472 71.7714C43.4835 71.7092 43.4864 71.1903 43.4747 71.1938C43.7742 71.9787 44.6576 72.3132 45.4199 71.9947C45.7758 71.8592 46.067 71.5777 46.2255 71.2324C46.3145 71.0382 46.3561 70.8283 46.3463 70.6146C46.3437 70.5542 46.227 70.0407 46.211 70.0498C46.6739 70.7739 47.6271 70.8908 48.2952 70.3776C48.9716 69.858 49.1005 68.8869 48.4844 68.2641C48.472 68.2779 48.8973 68.5065 48.9477 68.5241C49.1533 68.5953 49.3736 68.6079 49.5877 68.5744C49.9962 68.5108 50.35 68.2457 50.5727 67.9038C51.0338 67.1761 50.8234 66.2164 50.0268 65.8395C50.0209 65.8531 50.4891 65.9197 50.543 65.9184C50.7636 65.915 50.9777 65.854 51.1691 65.7443C51.5216 65.5421 51.7837 65.1869 51.8735 64.7887C52.0567 63.9753 51.5964 63.1572 50.7566 62.9997C50.7525 63.031 51.3626 62.897 51.4271 62.8683C51.6683 62.7607 51.8702 62.5868 52.0171 62.3679C52.3035 61.9419 52.3553 61.3722 52.159 60.899C52.2375 61.0883 52.0799 60.7094 52.159 60.899Z" fill="#F8E298"/>
<path d="M27.2165 39.3735C24.944 39.873 23.1089 41.4943 21.3838 43.057C19.3086 44.9368 17.2334 46.8165 15.1582 48.6963C15.6654 49.2147 16.4524 49.4404 17.157 49.27C16.311 50.013 15.4276 50.8123 15.094 51.8882C14.7604 52.964 15.2416 54.3756 16.3393 54.6251C16.1506 55.4901 15.6642 56.2567 15.3449 57.0823C15.0259 57.9079 14.8944 58.8996 15.3864 59.6352C15.8785 60.3709 17.1781 60.5199 17.5864 59.7347C17.4051 60.4591 17.2222 61.2018 17.2993 61.9447C17.3766 62.6875 17.7675 63.4433 18.449 63.748C19.1303 64.0524 20.0838 63.7224 20.2648 62.9978C19.9511 64.1549 20.717 65.4936 21.8728 65.8084C23.0287 66.1235 24.3667 65.358 24.6822 64.2013C24.5524 65.2159 25.4938 66.2269 26.5141 66.1691C27.5342 66.1112 28.355 65 28.1116 64.0066C28.5672 64.7626 29.5897 65.1185 30.4158 64.8088C31.2417 64.4991 31.7787 63.5582 31.6258 62.6887C32.4909 63.0502 33.5624 62.846 34.2342 62.1918C34.9063 61.5376 35.1397 60.4711 34.8024 59.5956C36.6492 58.4316 37.3808 55.7884 36.3956 53.8393C37.3147 52.9557 37.5116 51.5662 37.5123 50.2907C37.5134 47.4174 36.731 44.4658 34.8829 42.267C33.0348 40.068 30.0206 38.7571 27.2165 39.3735Z" fill="#F7A80E"/>
<path d="M45.1186 38.9546C47.412 39.3472 49.3212 40.8808 51.1173 42.3611C53.2781 44.1418 55.439 45.9224 57.5999 47.703C57.1175 48.2446 56.3421 48.5069 55.6303 48.3696C56.5099 49.0722 57.4297 49.8293 57.8135 50.8884C58.1971 51.9475 57.7824 53.38 56.6977 53.6806C56.9266 54.5358 57.4484 55.2788 57.8056 56.0886C58.1631 56.8983 58.3407 57.8828 57.8838 58.6406C57.4267 59.3985 56.1353 59.6082 55.6907 58.8429C55.9059 59.558 56.1233 60.2914 56.0809 61.0371C56.0387 61.7827 55.6835 62.5559 55.017 62.8921C54.3505 63.2281 53.3829 62.9431 53.1679 62.2277C53.5354 63.3689 52.8332 64.742 51.6934 65.1105C50.5535 65.4793 49.1811 64.7772 48.8119 63.6366C48.9888 64.644 48.0959 65.698 47.074 65.6879C46.0524 65.6778 45.1802 64.6062 45.3771 63.6025C44.9571 64.379 43.9527 64.7824 43.1129 64.5117C42.2732 64.2409 41.693 63.3262 41.8048 62.4504C40.9579 62.8521 39.8779 62.6982 39.176 62.0762C38.4744 61.4541 38.1913 60.3997 38.4871 59.5094C36.5881 58.4331 35.7336 55.827 36.6265 53.8339C35.6671 52.9943 35.4051 51.6155 35.3451 50.3415C35.2095 47.4714 35.853 44.4864 37.5959 42.2035C39.3391 39.9205 42.289 38.47 45.1186 38.9546Z" fill="#F7A80E"/>
<path d="M17.1267 54.0924C16.9697 51.1176 19.3112 48.4337 22.0964 47.384C24.8816 46.334 27.9906 46.6153 30.8995 47.2449C32.4024 47.5701 34.0276 48.085 34.835 49.3946C35.1936 49.9762 35.3502 50.6617 35.4166 51.3419C35.6432 53.6648 34.8279 56.0698 33.2359 57.7749C32.0439 59.052 30.4835 59.9141 28.9333 60.7181C27.5164 61.4529 25.9817 62.177 24.3961 61.998C25.8735 61.2875 27.3509 60.5769 28.828 59.8664C25.6595 61.4662 21.6675 61.2974 18.6444 59.4365C19.8993 60.1206 21.4062 60.3287 22.7991 60.01C21.6723 60.1803 20.4811 59.8701 19.5802 59.1715C18.7627 58.5374 18.204 57.6234 17.7918 56.674C17.4358 55.8546 17.1738 54.9847 17.1267 54.0924Z" fill="#F2591D"/>
<path d="M55.9763 53.1831C55.994 50.2042 53.5295 47.6328 50.698 46.7145C47.8667 45.7959 44.7745 46.2224 41.898 46.9874C40.412 47.3825 38.8129 47.9729 38.0674 49.3188C37.7364 49.9166 37.612 50.6087 37.5775 51.2912C37.4601 53.6222 38.3868 55.9864 40.057 57.6151C41.3074 58.8351 42.9063 59.6233 44.4926 60.3538C45.942 61.0216 47.509 61.6731 49.0845 61.4201C47.5757 60.7795 46.0667 60.1388 44.5577 59.4982C47.7979 60.9479 51.7775 60.5926 54.71 58.5924C53.4885 59.3344 51.9933 59.6128 50.5867 59.3596C51.7202 59.477 52.8959 59.1114 53.7629 58.3714C54.5501 57.6997 55.0651 56.7606 55.4327 55.7929C55.7497 54.9579 55.9708 54.0766 55.9763 53.1831Z" fill="#F2591D"/>
<path d="M58.023 40.7826C57.6027 41.0028 57.1827 41.2228 56.7627 41.4428C57.6988 41.4821 58.5867 42.0998 58.9494 42.9647C58.5006 42.9777 58.0517 42.991 57.6029 43.0042C58.8157 43.1168 59.7535 44.4617 59.4407 45.6398C52.4701 43.6399 44.9113 43.745 37.999 45.9382C39.6832 42.489 43.1099 40.0336 46.8531 39.1961C50.5963 38.3583 54.5976 39.055 58.023 40.7826Z" fill="#F2591D"/>
<path d="M48.3352 43.9576C52.0432 43.8709 55.7073 44.3239 59.2308 45.3044C59.2664 44.892 59.1428 44.4561 58.8765 44.0743C58.552 43.6086 58.0787 43.3148 57.5786 43.2683C57.4392 43.2553 57.3338 43.1358 57.338 42.9955C57.3424 42.8552 57.4552 42.7426 57.5954 42.7386L58.5123 42.7116C58.1223 42.1338 57.4458 41.737 56.7516 41.7081C56.6319 41.7031 56.53 41.618 56.5041 41.5009C56.4776 41.3836 56.5332 41.2634 56.6398 41.2074L57.4347 40.7912C54.965 39.631 52.3202 39.0515 49.753 39.1115C48.784 39.1342 47.828 39.2498 46.9113 39.4549C43.3 40.2631 40.2123 42.501 38.5299 45.4968C41.6937 44.5536 44.9892 44.0359 48.3352 43.9576ZM59.4474 45.9051C59.4207 45.9057 59.3941 45.9024 59.368 45.895C55.809 44.874 52.1013 44.4008 48.3476 44.4886C44.8357 44.5708 41.3811 45.1437 38.0793 46.1913C37.9782 46.2229 37.8676 46.192 37.7981 46.1114C37.729 46.0311 37.7141 45.917 37.7608 45.8214C39.43 42.4028 42.8075 39.8291 46.7953 38.9366C47.7461 38.724 48.7369 38.6041 49.7406 38.5806C52.558 38.5146 55.4634 39.1941 58.1425 40.5455C58.2314 40.5904 58.2877 40.681 58.2883 40.7805C58.2894 40.8802 58.2344 40.9717 58.1463 41.0179L57.5519 41.3292C58.2775 41.5856 58.8932 42.1442 59.1944 42.8616C59.2282 42.9423 59.2202 43.0347 59.1729 43.1082C59.1255 43.1818 59.0449 43.2275 58.9576 43.23L58.8139 43.2341C58.9996 43.3837 59.1676 43.5637 59.3115 43.7702C59.7259 44.3643 59.8665 45.0707 59.6974 45.7078C59.6793 45.7767 59.634 45.8355 59.5722 45.8707C59.5335 45.8926 59.4906 45.9041 59.4474 45.9051Z" fill="#292625"/>
<path d="M14.6164 41.7985C15.0463 41.9988 15.4761 42.1989 15.9063 42.399C14.9729 42.4821 14.1148 43.1406 13.7928 44.0215C14.2418 44.0135 14.6908 44.0058 15.1397 43.998C13.9336 44.1672 13.0597 45.5546 13.4272 46.7167C20.2967 44.3929 27.8524 44.1443 34.8596 46.0117C33.0157 42.6451 29.4782 40.3527 25.6999 39.6912C21.9216 39.0294 17.9573 39.9126 14.6164 41.7985Z" fill="#F2591D"/>
<path d="M14.2183 43.7484L15.1357 43.7324C15.276 43.7299 15.3938 43.8371 15.4048 43.977C15.4156 44.1169 15.3159 44.2412 15.177 44.2607C14.6796 44.3306 14.2208 44.6462 13.9182 45.1266C13.6703 45.5204 13.5673 45.9616 13.6221 46.3719C17.0959 45.2276 20.7347 44.6037 24.4426 44.5169C27.7888 44.4386 31.1047 44.8015 34.3088 45.5957C32.4884 42.6818 29.2994 40.5909 25.6545 39.9525C24.7292 39.7905 23.7685 39.7198 22.7996 39.7424C20.2324 39.8025 17.6176 40.5052 15.2051 41.7796L16.0187 42.1582C16.1277 42.2088 16.1889 42.3264 16.1679 42.445C16.1472 42.5632 16.0497 42.653 15.9301 42.6635C15.2382 42.7249 14.5811 43.1529 14.2183 43.7484ZM13.4339 46.9821C13.3904 46.9831 13.347 46.9736 13.3076 46.9536C13.2442 46.9213 13.1962 46.8647 13.1749 46.7967C12.9759 46.1682 13.0833 45.456 13.4697 44.8432C13.6038 44.6301 13.7632 44.4425 13.9415 44.2844L13.798 44.287C13.7106 44.2885 13.6278 44.2467 13.5772 44.1754C13.5266 44.1042 13.5142 44.0122 13.5442 43.9301C13.8112 43.1994 14.4002 42.6126 15.1132 42.3225L14.5049 42.0394C14.4148 41.9973 14.3555 41.9085 14.3517 41.8088C14.3476 41.7095 14.3998 41.6163 14.4866 41.5673C17.0993 40.092 19.9699 39.2774 22.7872 39.2115C23.7908 39.188 24.7865 39.2614 25.7461 39.4293C29.7711 40.1343 33.2653 42.5472 35.0925 45.8839C35.1437 45.9772 35.1341 46.0919 35.0689 46.1754C35.0034 46.2594 34.8944 46.2954 34.7917 46.2683C31.4447 45.3763 27.9672 44.9657 24.455 45.0479C20.7013 45.1357 17.02 45.7819 13.5127 46.9682C13.4869 46.9768 13.4606 46.9815 13.4339 46.9821Z" fill="#292625"/>
<path d="M24.9304 41.9589C25.0519 42.4438 24.6537 42.8937 24.2722 43.2168C23.6306 43.7605 22.9094 44.2572 22.0829 44.4097C21.2665 44.56 20.4314 44.3614 19.6023 44.3226C18.0619 44.2505 16.5554 44.7313 15.0883 45.2064C15.8187 44.1788 17.1803 43.8668 18.4182 43.6311C17.5427 43.5199 16.654 43.5125 15.7767 43.609C17.1142 42.7491 18.4765 41.8778 20.0053 41.4412C20.6982 41.2433 21.4146 41.1383 22.1323 41.073C22.8501 41.0078 23.6019 40.9872 24.2602 41.2816C24.5602 41.4158 24.8503 41.6397 24.9304 41.9589Z" fill="#D34B20"/>
<path d="M47.3292 41.4348C47.2306 41.9249 47.6494 42.3556 48.0453 42.6605C48.7117 43.1737 49.4553 43.636 50.2883 43.7497C51.1106 43.8617 51.9355 43.6242 52.7618 43.5467C54.2974 43.4025 55.8247 43.8123 57.3125 44.2183C56.5346 43.226 55.1601 42.978 53.9123 42.8006C54.7819 42.6485 55.6693 42.5995 56.5502 42.6549C55.1738 41.8584 53.772 41.0519 52.2245 40.6872C51.5231 40.522 50.8026 40.4506 50.0828 40.419C49.3625 40.3874 48.6106 40.402 47.9671 40.7269C47.6734 40.875 47.3941 41.1121 47.3292 41.4348Z" fill="#D34B20"/>
<path d="M55.3207 49.0381C55.4392 54.1029 51.4333 58.3049 46.3727 58.4233C41.3124 58.5417 37.114 54.5318 36.9955 49.467C36.8769 44.4022 40.8832 40.2003 45.9435 40.0818C51.004 39.9634 55.2022 43.9734 55.3207 49.0381Z" fill="#523B1A"/>
<path d="M54.1026 49.3652C54.21 53.954 50.5805 57.7606 45.9961 57.8679C41.4114 57.9752 37.6078 54.3425 37.5004 49.7538C37.393 45.1653 41.0225 41.3585 45.6072 41.2512C50.1916 41.1439 53.9952 44.7768 54.1026 49.3652Z" fill="#D1B86C"/>
<path d="M54.1026 49.3652C54.21 53.954 50.5805 57.7606 45.9961 57.8679C41.4114 57.9752 37.6078 54.3425 37.5004 49.7538C37.393 45.1653 41.0225 41.3585 45.6072 41.2512C50.1916 41.1439 53.9952 44.7768 54.1026 49.3652Z" fill="#D1B86C"/>
<path d="M53.3069 49.3838C53.404 53.5327 50.1223 56.9748 45.977 57.0718C41.8315 57.1689 38.3924 53.8841 38.2953 49.7351C38.1982 45.5862 41.4799 42.1441 45.6254 42.0471C49.7707 41.9501 53.2098 45.2349 53.3069 49.3838Z" fill="#F3ED99"/>
<path d="M49.3972 49.4752C49.4438 51.4628 47.8717 53.1116 45.8862 53.1581C43.9004 53.2046 42.2529 51.6311 42.2064 49.6435C42.1599 47.656 43.7319 46.0072 45.7177 45.9607C47.7033 45.9142 49.3507 47.4877 49.3972 49.4752Z" fill="#D4C18D"/>
<path d="M48.4025 49.4986C48.4361 50.9367 47.2988 52.1296 45.8623 52.1632C44.4254 52.1968 43.2336 51.0585 43.1999 49.6204C43.1663 48.1825 44.3036 46.9894 45.7404 46.9558C47.1769 46.9222 48.3688 48.0608 48.4025 49.4986Z" fill="#2E2227"/>
<path d="M45.7834 48.7968C45.7933 49.2181 45.4599 49.5675 45.0389 49.5774C44.618 49.5872 44.2689 49.2538 44.259 48.8325C44.2491 48.4111 44.5823 48.0615 45.0032 48.0516C45.4242 48.0418 45.7735 48.3755 45.7834 48.7968Z" fill="white"/>
<path d="M43.5125 44.023C44.1445 44.6007 43.826 45.9794 42.8011 47.1021C41.7763 48.2249 40.4335 48.6666 39.8015 48.0889C39.1695 47.5112 39.4881 46.1326 40.5129 45.0098C41.5377 43.8871 42.8808 43.4453 43.5125 44.023Z" fill="white"/>
<path d="M47.6199 55.6744C43.6618 55.767 40.1999 53.4846 38.5951 50.1276C38.7495 52.8403 40.462 55.3391 43.1656 56.3599C45.5607 57.2642 48.138 56.784 50.0199 55.3179C49.2547 55.5317 48.4506 55.655 47.6199 55.6744Z" fill="#D4C18D"/>
<path d="M17.9092 49.9135C18.0277 54.9783 22.2261 58.9883 27.2864 58.8699C32.3467 58.7514 36.3529 54.5494 36.2344 49.4847C36.1159 44.4199 31.9175 40.4099 26.8572 40.5284C21.7969 40.6468 17.7906 44.8488 17.9092 49.9135Z" fill="#523B1A"/>
<path d="M19.142 50.1834C19.2494 54.7722 23.053 58.4048 27.6376 58.2975C32.2221 58.1902 35.8516 54.3836 35.7442 49.7949C35.6368 45.2064 31.8332 41.5735 27.2488 41.6808C22.6641 41.7881 19.0346 45.5949 19.142 50.1834Z" fill="#D1B86C"/>
<path d="M19.142 50.1834C19.2494 54.7722 23.053 58.4048 27.6376 58.2975C32.2221 58.1902 35.8516 54.3836 35.7442 49.7949C35.6368 45.2064 31.8332 41.5735 27.2488 41.6808C22.6641 41.7881 19.0346 45.5949 19.142 50.1834Z" fill="#D1B86C"/>
<path d="M19.9367 50.1649C20.0338 54.3138 23.473 57.5986 27.6183 57.5016C31.7635 57.4046 35.0453 53.9625 34.9482 49.8136C34.8511 45.6646 31.4119 42.3798 27.2666 42.4769C23.1214 42.5739 19.8396 46.016 19.9367 50.1649Z" fill="#F3ED99"/>
<path d="M23.8471 50.0733C23.8936 52.0608 25.541 53.6343 27.5268 53.5878C29.5123 53.5414 31.0844 51.8925 31.0379 49.905C30.9913 47.9175 29.3439 46.344 27.3584 46.3904C25.3726 46.4369 23.8005 48.0857 23.8471 50.0733Z" fill="#D4C18D"/>
<path d="M24.8414 50.05C24.8751 51.4881 26.0669 52.6264 27.5037 52.5928C28.9403 52.5592 30.0776 51.3663 30.0439 49.9282C30.0103 48.4904 28.8184 47.3518 27.3819 47.3854C25.945 47.419 24.8078 48.6122 24.8414 50.05Z" fill="#2E2227"/>
<path d="M27.4256 49.2263C27.4355 49.6477 27.7846 49.9811 28.2056 49.9712C28.6265 49.9614 28.9596 49.612 28.9498 49.1907C28.9399 48.7693 28.5908 48.4356 28.1699 48.4455C27.7489 48.4553 27.4158 48.805 27.4256 49.2263Z" fill="white"/>
<path d="M25.1323 44.453C25.764 45.0307 25.4455 46.4094 24.4206 47.5321C23.3958 48.6549 22.0529 49.0966 21.4209 48.5189C20.7892 47.9412 21.1078 46.5626 22.1326 45.4398C23.1572 44.3171 24.5003 43.8753 25.1323 44.453" fill="white"/>
<path d="M25.9123 56.1823C29.8701 56.0896 33.2215 53.6477 34.6675 50.2194C34.6402 52.9363 33.0464 55.5125 30.3935 56.6586C28.0434 57.674 25.4465 57.3149 23.498 55.9384C24.2724 56.1162 25.0813 56.2017 25.9123 56.1823Z" fill="#D4C18D"/>
<path d="M38.1313 50.6206C37.8963 50.3742 37.6235 50.1542 37.3088 50.0836C37.0033 50.0147 36.6545 50.1181 36.473 50.3985C36.2791 50.1264 35.9261 50.0387 35.6241 50.121C35.3128 50.2055 35.0501 50.4375 34.8261 50.6939C33.6342 52.059 33.3475 54.1788 33.6705 56.0636C33.9937 57.9485 34.8418 59.6622 35.6777 61.3389C35.7393 61.4626 36.255 62.227 36.7446 62.216C37.2342 62.205 37.6979 61.419 37.7539 61.2925C38.5142 59.5805 39.2855 57.8309 39.5245 55.9334C39.7637 54.0361 39.3828 51.9312 38.1313 50.6206Z" fill="#2D1615"/>
<path d="M35.5366 50.4547C35.3087 50.5015 35.1431 50.702 35.0094 50.8988C34.0585 52.2975 33.7826 54.0994 33.9436 55.8044C34.1221 57.6939 34.8117 59.5295 35.9131 61.047C36.1037 61.3099 36.3787 61.5914 36.687 61.5167C37.0408 61.4309 37.136 60.9634 37.1601 60.5873C37.3585 57.476 37.484 54.2634 36.4621 51.3291C36.3845 51.1065 36.2973 50.8809 36.1449 50.7046C35.9924 50.5285 35.7602 50.4085 35.5366 50.4547Z" fill="#EE8B40"/>
<path d="M37.1236 50.4153C36.814 50.4976 36.6754 50.8511 36.5903 51.1603C35.7172 54.3291 35.6544 57.7181 36.4097 60.917C36.4631 61.1431 36.5529 61.4039 36.7749 61.4712C37.0533 61.5556 37.2989 61.2763 37.4486 61.0269C38.8104 58.759 39.3869 56.0287 39.0586 53.403C38.9292 52.3665 38.6142 51.2696 37.7912 50.6269C37.6005 50.4779 37.3576 50.3534 37.1236 50.4153Z" fill="#F2591D"/>
<path d="M37.3402 56.4139C37.3999 58.9617 37.0884 61.0353 36.6447 61.0457C36.201 61.0561 35.7929 58.9993 35.7332 56.4516C35.6736 53.9038 35.9851 51.8302 36.4288 51.8198C36.8724 51.8094 37.2806 53.8662 37.3402 56.4139Z" fill="#F3DE3E"/>
<path d="M36.6082 54.8957C36.7856 54.8361 36.8523 54.6219 36.8749 54.436C36.9465 53.8485 36.8307 53.24 36.5486 52.7201C36.1255 53.1491 35.9675 53.8022 36.0812 54.394C36.1071 54.5296 36.1485 54.6671 36.2386 54.7717C36.3287 54.876 36.4774 54.9398 36.6082 54.8957" fill="white"/>
<path d="M36.7899 56.3641C36.6885 56.0114 36.5871 55.6587 36.4858 55.3062C36.2966 55.671 36.2168 56.0919 36.2596 56.5007C36.2715 56.6139 36.2941 56.7303 36.3605 56.8225C36.427 56.9149 36.5478 56.9763 36.6564 56.943C36.762 56.9108 36.8276 56.7993 36.8395 56.6896C36.8514 56.5796 36.8206 56.4701 36.7899 56.3641" fill="white"/>
<path d="M27.6307 69.3946C27.5429 69.4406 27.1646 68.8607 26.9882 68.0355C26.8367 67.2054 26.9656 66.5249 27.0642 66.5341C27.1875 66.5412 27.2427 67.1851 27.3836 67.957C27.5474 68.7246 27.7418 69.341 27.6307 69.3946Z" fill="#292625"/>
<path d="M29.6551 71.2232C29.5449 71.2392 29.3544 70.5555 29.2296 69.6961C29.1047 68.8366 29.0928 68.1269 29.2028 68.1109C29.313 68.0948 29.5035 68.7785 29.6282 69.638C29.7532 70.4974 29.7651 71.2074 29.6551 71.2232Z" fill="#292625"/>
<path d="M48.8505 74.8929C48.7956 74.8734 48.807 74.6898 48.84 74.4114C48.8678 74.1306 48.9011 73.7505 48.899 73.3292C48.8872 72.9079 48.8411 72.5291 48.8038 72.2494C48.7614 71.9722 48.7439 71.789 48.798 71.7677C48.8473 71.7478 48.9606 71.8981 49.0787 72.1747C49.1913 72.4522 49.2895 72.8618 49.3021 73.3223C49.3051 73.7832 49.2206 74.1955 49.1174 74.4768C49.0086 74.7572 48.9001 74.9112 48.8505 74.8929Z" fill="#292625"/>
<path d="M52.6364 71.4318C52.5151 71.4157 52.5079 70.7751 52.443 70C52.3573 69.2268 52.2407 68.5971 52.3566 68.5576C52.4504 68.5227 52.7524 69.1344 52.8444 69.9608C52.9134 70.7896 52.7351 71.448 52.6364 71.4318Z" fill="#292625"/>
<path d="M18.0089 68.9952C17.9093 69.0157 17.6723 68.2434 17.6394 67.2546C17.626 66.2653 17.8266 65.4825 17.9271 65.4986C18.0468 65.5155 18.0293 66.2941 18.0424 67.2451C18.0739 68.1957 18.1277 68.9726 18.0089 68.9952Z" fill="#292625"/>
<path d="M20.2979 70.8157C20.1997 70.8435 19.9147 70.1155 19.8126 69.164C19.7289 68.2109 19.8676 67.4415 19.9694 67.4498C20.0895 67.4575 20.1333 68.2092 20.2139 69.1249C20.3119 70.0389 20.4143 70.7847 20.2979 70.8157Z" fill="#292625"/>
<path d="M47.0797 62.6863C47.0855 62.7324 46.6805 62.8403 46.0086 62.8158C45.6731 62.8062 45.2752 62.7478 44.8435 62.6397C44.4141 62.523 43.9522 62.3519 43.4969 62.1115C43.0445 61.8654 42.6462 61.5756 42.3113 61.2826C41.982 60.9827 41.7128 60.6836 41.5189 60.4095C41.1261 59.8632 40.9912 59.4663 41.0329 59.4453C41.0889 59.414 41.3103 59.7547 41.7399 60.2294C41.9525 60.4686 42.2282 60.7313 42.5518 60.9993C42.881 61.2607 43.2615 61.524 43.6871 61.7557C44.1158 61.982 44.5455 62.1529 44.9455 62.2822C45.3478 62.4032 45.719 62.4875 46.0359 62.5318C46.6688 62.6267 47.0747 62.6222 47.0797 62.6863Z" fill="#292625"/>
<path d="M49.0479 61.7641C49.0526 61.8165 48.7946 61.8892 48.3657 61.9323C47.9374 61.969 47.3376 61.9553 46.6885 61.8381C46.0413 61.7103 45.4778 61.5043 45.0923 61.3137C44.7084 61.117 44.4949 60.9551 44.5185 60.908C44.5443 60.8555 44.7998 60.9249 45.1967 61.0483C45.5967 61.1659 46.1458 61.3195 46.7631 61.4418C47.3826 61.5532 47.95 61.6106 48.3653 61.6472C48.7797 61.6772 49.043 61.7055 49.0479 61.7641Z" fill="#292625"/>
<path d="M53.5052 60.1678C53.5293 60.2152 53.3702 60.3504 53.0758 60.509C52.7802 60.6621 52.3431 60.822 51.8398 60.9105C51.3351 60.9903 50.8697 60.9812 50.5403 60.9321C50.2107 60.8779 50.0164 60.8017 50.0234 60.7491C50.031 60.6914 50.2347 60.6667 50.5513 60.647C50.8691 60.6223 51.3009 60.587 51.7736 60.5127C52.2445 60.4295 52.6644 60.3227 52.9729 60.243C53.2788 60.1586 53.4795 60.1157 53.5052 60.1678Z" fill="#292625"/>
<path d="M27.8283 62.2365C27.8105 62.1792 28.0869 62.0403 28.5212 61.8222C28.9528 61.5947 29.5315 61.26 30.1231 60.8196C30.7044 60.3657 31.1803 59.896 31.5143 59.5401C31.8396 59.1792 32.0467 58.9492 32.0974 58.9817C32.1407 59.0087 32.0167 59.297 31.7364 59.7188C31.4488 60.1341 30.9796 60.6631 30.3673 61.1403C29.745 61.6046 29.1107 61.9169 28.6342 62.0839C28.1536 62.2426 27.843 62.2856 27.8283 62.2365Z" fill="#292625"/>
<path d="M23.3611 62.4525C23.3411 62.3431 24.1566 62.1026 25.1824 61.9156C26.2084 61.7284 27.0561 61.6656 27.0761 61.7754C27.0959 61.8848 26.2806 62.1253 25.2549 62.3123C24.2289 62.4995 23.3812 62.5623 23.3611 62.4525Z" fill="#292625"/>
<path d="M17.8409 61.8447C17.8395 61.7332 18.8443 61.6323 20.0849 61.619C21.3252 61.6059 22.3317 61.6853 22.3331 61.7968C22.3342 61.9082 21.3296 62.0092 20.0891 62.0224C18.8485 62.0357 17.842 61.9561 17.8409 61.8447Z" fill="#292625"/>
</g>
<defs>
<clipPath id="clip0_5605_48582">
<rect y="0.294922" width="72" height="72" rx="36" fill="white"/>
</clipPath>
</defs>
</svg>
