<svg width="72" height="73" viewBox="0 0 72 73" fill="none" xmlns="http://www.w3.org/2000/svg">
<g clip-path="url(#clip0_5605_48583)">
<path d="M66.8921 32.0641C68.1214 31.2487 67.982 29.3751 66.6281 28.7904C62.246 26.8978 59.3166 22.2801 53.5768 16.3479C46.89 9.43717 36.223 9.96191 34.6056 10.085C32.9839 10.0377 22.3041 10.0126 15.9479 17.2286C10.4919 23.4227 7.78168 28.1725 3.49297 30.268C2.16788 30.9154 2.11627 32.7935 3.38242 33.5505L14.4788 40.1843L35.1758 34.4469L56.1182 39.2098L66.8921 32.0641Z" fill="#2E2227"/>
<path d="M63.5547 48.7502C61.7433 40.733 56.4305 33.4272 49.4749 31.7486C45.8996 30.8859 42.2075 31.5167 38.6061 32.1498C37.4536 32.3522 36.2276 32.606 35.2138 33.2183C34.1725 32.6541 32.9359 32.4579 31.7752 32.3097C28.1484 31.8458 24.4305 31.3883 20.8996 32.4174C14.0301 34.4195 9.06488 41.9659 7.63052 50.059C6.19646 58.1525 7.8003 66.6398 10.5113 74.3105C12.9877 81.3169 16.4891 85.686 21.8347 90.0014C26.1076 93.4506 31.6647 93.9696 36.6029 92.5706C41.6011 93.737 47.1278 92.9586 51.2347 89.3133C56.3726 84.7526 59.666 80.2244 61.8116 73.1099C64.1611 65.3207 65.3661 56.7677 63.5547 48.7502Z" fill="#F2591D"/>
<path d="M36.5963 92.2638C36.622 92.2632 36.6481 92.2655 36.6733 92.2716C38.218 92.6319 39.7787 92.7965 41.3121 92.7606C45.0591 92.6729 48.4201 91.4013 51.0319 89.0836C56.5044 84.2255 59.5428 79.5718 61.5188 73.021C64.2523 63.958 64.8369 55.8148 63.2558 48.8178C61.3368 40.3229 55.7701 33.5833 49.4037 32.0473C48.12 31.7375 46.7449 31.6044 45.2002 31.6405C42.9817 31.6925 40.6857 32.0961 38.6597 32.4519C37.5297 32.6509 36.345 32.8942 35.3728 33.4813C35.28 33.5378 35.1642 33.5405 35.0683 33.4884C34.0703 32.9474 32.8752 32.7598 31.7371 32.6139C29.6967 32.3533 27.3843 32.0575 25.1661 32.1094C23.6214 32.1456 22.254 32.3429 20.9862 32.7124C14.6986 34.5445 9.45337 41.5372 7.93357 50.1126C6.68154 57.1756 7.64678 65.2825 10.8012 74.208C13.0815 80.6592 16.334 85.1657 22.0281 89.7624C24.7452 91.9554 28.162 93.0684 31.909 92.9807C33.4421 92.9448 34.9936 92.7073 36.5198 92.2751C36.5447 92.2679 36.5707 92.2644 36.5963 92.2638ZM41.3267 93.3746C41.3265 93.3746 41.3268 93.3746 41.3265 93.3746C39.7671 93.4111 38.1808 93.2474 36.6109 92.8877C35.0594 93.3205 33.4827 93.5582 31.9233 93.5947C28.0294 93.6858 24.4744 92.5258 21.6429 90.2404C15.8526 85.5662 12.5439 80.9804 10.2228 74.4128C7.03219 65.3859 6.05872 57.174 7.32936 50.0053C8.88893 41.205 14.3081 34.0185 20.8145 32.1225C22.1342 31.7382 23.5528 31.5328 25.1517 31.4954C27.4161 31.4424 29.7531 31.7411 31.8146 32.005C32.9548 32.1508 34.1519 32.3384 35.2063 32.8677C36.235 32.2896 37.422 32.0462 38.5538 31.8472C40.6007 31.4872 42.9212 31.0795 45.1858 31.0265C46.7845 30.9891 48.2114 31.1279 49.5477 31.4501C56.1357 33.0399 61.8851 39.965 63.8543 48.6825C65.459 55.7841 64.8707 64.0325 62.1059 73.1986C60.0948 79.8675 57.0043 84.6031 51.4391 89.5431C48.7175 91.9585 45.2206 93.2835 41.3267 93.3746Z" fill="#292625"/>
<path d="M63.145 64.5307C62.7658 63.5772 61.8934 62.9417 60.9111 62.9141C60.9118 62.93 61.7024 62.6505 61.793 62.599C62.1264 62.41 62.4125 62.1386 62.6316 61.8139C63.0278 61.2261 63.167 60.4876 63.0652 59.7783C62.8689 58.4105 61.6943 57.3688 60.3732 57.4702C60.3724 57.4633 60.3714 57.4567 60.3704 57.4501C61.7571 57.1168 62.5217 55.6156 62.1466 54.1925C61.9774 53.5514 61.6253 52.9915 61.0969 52.617C60.7951 52.403 60.4478 52.268 60.0872 52.2198C59.9739 52.2049 59.0261 52.2689 59.0381 52.3007C60.3087 51.6448 60.7441 49.9921 60.0607 48.6978C59.3804 47.4093 57.8833 46.8508 56.6387 47.62C56.6465 47.6319 57.1697 46.9553 57.2203 46.8605C57.3871 46.5468 57.4817 46.2002 57.5095 45.842C57.565 45.1197 57.3077 44.386 56.8484 43.8497C55.9122 42.7564 54.3385 42.5656 53.2896 43.5992C53.2931 43.6026 53.6467 42.8835 53.677 42.7848C53.7873 42.4244 53.8133 42.0459 53.7641 41.671C53.6704 40.9577 53.2765 40.3159 52.7299 39.8909C51.603 39.0047 49.9959 39.1975 49.1856 40.4379C49.1953 40.4441 49.393 39.6017 49.4 39.4926C49.4255 39.1036 49.3598 38.7144 49.2171 38.3548C48.9664 37.7229 48.4711 37.2227 47.8808 36.9447C46.5996 36.3331 45.0716 36.8859 44.5334 38.2786C44.5363 38.2794 44.5694 37.4733 44.5572 37.3698C44.5135 36.9966 44.3875 36.6441 44.1956 36.3273C43.8478 35.7531 43.2798 35.3537 42.6569 35.1894C41.2517 34.8186 39.7991 35.6938 39.553 37.2306C39.5628 37.2315 39.4046 36.3804 39.3673 36.2776C39.2454 35.9435 39.0554 35.6451 38.8114 35.3965C38.318 34.8937 37.6252 34.6142 36.9382 34.6462C36.2408 34.6787 35.5872 34.9498 35.1061 35.4919C34.8749 35.7525 34.7012 36.064 34.5968 36.4034C34.5646 36.5082 34.4507 37.3653 34.4602 37.364C34.1443 35.8854 32.7514 35.1132 31.3924 35.445C30.7619 35.599 30.1923 36.0213 29.8425 36.5924C29.6492 36.9081 29.5232 37.2619 29.4812 37.6359C29.4683 37.7507 29.5252 38.6764 29.5409 38.67C28.9298 37.3038 27.41 36.8608 26.153 37.4968C25.5384 37.808 25.0556 38.3851 24.8432 39.0669C24.7422 39.3908 24.704 39.731 24.7362 40.071C24.7469 40.1857 24.991 41.079 25.0061 41.0685C24.1306 39.8693 22.555 39.781 21.4588 40.686C20.9218 41.1295 20.568 41.8024 20.4995 42.5172C20.4671 42.8575 20.4993 43.1989 20.6005 43.5245C20.6345 43.6338 21.0576 44.4527 21.0706 44.4388C19.9687 43.4607 18.4112 43.7361 17.5274 44.8728C16.64 46.014 16.8121 47.7285 17.9446 48.6105C17.948 48.6047 17.2108 48.3665 17.1137 48.3526C16.7516 48.3012 16.378 48.3374 16.0337 48.4657C15.3733 48.712 14.877 49.2282 14.5698 49.883C13.9477 51.2089 14.484 52.8418 15.7805 53.4284C15.7908 53.3967 14.8393 53.3814 14.7272 53.4022C14.3693 53.469 14.0293 53.6214 13.739 53.8513C13.2311 54.2542 12.9109 54.8318 12.7721 55.4801C12.6118 56.2279 12.7528 57.0369 13.1897 57.6564C13.38 57.9288 13.6225 58.1586 13.8999 58.329C13.9848 58.381 14.7129 58.6726 14.7138 58.6636C13.4695 58.6289 12.3815 59.6016 12.167 60.8842C11.9061 62.4427 12.9131 63.9816 14.4453 64.1053C14.4452 64.0891 13.6447 64.3278 13.5522 64.3741C13.244 64.5285 12.9666 64.7514 12.744 65.0239C12.2986 65.5692 12.1028 66.2968 12.1547 67.0082C12.2049 67.696 12.4716 68.337 12.9483 68.8177C13.1955 69.0668 13.4967 69.2531 13.8201 69.368C13.9252 69.4052 14.8729 69.546 14.8665 69.5071C13.4424 69.8598 12.7358 71.3605 13.1015 72.8084C13.2692 73.4734 13.7084 74.0712 14.272 74.4131C14.5935 74.6085 14.9479 74.7239 15.3193 74.7383C15.4221 74.7422 16.3483 74.605 16.33 74.5638C14.9796 75.3008 14.7169 77.0171 15.5284 78.3077C15.8879 78.8781 16.4801 79.3125 17.1219 79.4347C17.4711 79.5011 17.8306 79.4895 18.1714 79.3845C18.2729 79.3532 19.1597 78.8764 19.1164 78.83C18.1004 79.9788 18.37 81.739 19.5675 82.6224C20.7515 83.496 22.3683 83.2342 23.1075 81.8796C23.0888 81.8696 22.9239 82.6973 22.9193 82.7954C22.9015 83.1839 22.9694 83.5799 23.1289 83.9322C23.4246 84.5859 23.9627 85.0866 24.6117 85.3187C25.9444 85.8256 27.4274 85.1413 27.8593 83.695C27.8506 83.6926 27.8731 84.509 27.8917 84.6094C27.9605 84.9829 28.1104 85.3328 28.3206 85.6414C28.6955 86.1906 29.2805 86.5359 29.9013 86.6736C31.3014 86.9845 32.7051 86.0335 32.9394 84.5337C32.9382 84.5338 33.0756 85.3232 33.1094 85.4218C33.2309 85.7767 33.4258 86.0984 33.6735 86.3701C34.1387 86.8799 34.7943 87.1457 35.4581 87.1721C36.8262 87.2372 38.0512 86.1491 38.1174 84.6877C38.1223 84.6875 38.3193 85.4059 38.3601 85.4966C38.5039 85.8157 38.7112 86.1013 38.9646 86.3326C39.5072 86.828 40.2245 87.0556 40.935 86.9803C41.5672 86.9135 42.1815 86.6371 42.6159 86.1405C42.8538 85.8685 43.0388 85.5434 43.1516 85.1932C43.1868 85.0834 43.3148 84.1742 43.301 84.1762C43.6163 85.5837 44.989 86.4757 46.3289 86.1522C46.9484 86.0027 47.5338 85.6515 47.9084 85.1009C48.1175 84.7937 48.2627 84.4372 48.3285 84.0655C48.3484 83.9532 48.3517 83.02 48.3319 83.0265C48.8451 84.4389 50.3551 85.0422 51.6566 84.4711C52.2641 84.228 52.761 83.7225 53.0309 83.1018C53.1827 82.7529 53.2532 82.3753 53.2362 81.9911C53.2313 81.8825 53.0313 80.9587 53.0039 80.9753C53.7961 82.2782 55.4245 82.4901 56.5648 81.5687C57.7192 80.6358 57.9373 78.8899 56.8835 77.7687C56.8621 77.7932 57.5893 78.2053 57.6755 78.2371C58.0269 78.3656 58.4031 78.3886 58.7692 78.3288C59.4664 78.2151 60.0703 77.7395 60.45 77.1249C61.2362 75.8171 60.8747 74.0908 59.5131 73.4115C59.5033 73.4358 60.303 73.5563 60.3951 73.5545C60.772 73.5488 61.1375 73.4394 61.4641 73.2425C62.066 72.8799 62.513 72.2415 62.6654 71.5256C62.9768 70.063 62.1888 68.5906 60.7538 68.3058C60.747 68.3623 61.7886 68.1226 61.8988 68.0709C62.3104 67.878 62.655 67.5654 62.9057 67.1723C63.3939 66.4066 63.4816 65.3825 63.145 64.5307C63.2797 64.8714 63.0094 64.1899 63.145 64.5307Z" fill="#F7A80E"/>
<path d="M58.9043 59.682C58.5868 58.8832 57.8559 58.3507 57.0328 58.3275C57.0334 58.3407 57.6958 58.1065 57.7719 58.0637C58.0508 57.9054 58.2906 57.6779 58.4742 57.4057C58.806 56.9133 58.9226 56.2945 58.8374 55.7006C58.6731 54.5546 57.689 53.6818 56.5823 53.7667C56.5815 53.7612 56.5808 53.7554 56.5798 53.75C57.7415 53.4708 58.3822 52.2132 58.0678 51.021C57.9262 50.4839 57.6311 50.0146 57.1884 49.701C56.9356 49.5217 56.6445 49.4089 56.3425 49.3683C56.2478 49.3557 55.4539 49.4096 55.4637 49.4359C56.5281 48.8865 56.893 47.5019 56.3205 46.4177C55.7507 45.3382 54.4962 44.8705 53.4534 45.5148C53.46 45.5247 53.8986 44.9582 53.9409 44.8786C54.0805 44.6158 54.1598 44.3253 54.1831 44.0251C54.2295 43.42 54.0139 42.8055 53.6292 42.3562C52.845 41.4403 51.5267 41.2804 50.6479 42.1462C50.6508 42.149 50.9471 41.5465 50.9723 41.4639C51.0646 41.1623 51.0866 40.8448 51.0455 40.5311C50.9668 39.9333 50.6369 39.3957 50.1787 39.0397C49.2349 38.2972 47.8883 38.4587 47.2096 39.4979C47.2178 39.5029 47.3835 38.7974 47.3894 38.7059C47.4106 38.38 47.3557 38.0539 47.2363 37.753C47.0261 37.2233 46.6113 36.8042 46.1167 36.5712C45.0434 36.0592 43.7631 36.5223 43.3122 37.6888C43.3149 37.6896 43.3424 37.0142 43.3322 36.9274C43.2955 36.615 43.1901 36.3196 43.0291 36.0543C42.7378 35.573 42.2623 35.2385 41.7402 35.1011C40.5628 34.7905 39.3459 35.5235 39.1399 36.8111C39.148 36.8118 39.0155 36.0988 38.9843 36.0126C38.8822 35.7326 38.7231 35.4829 38.5184 35.2744C38.1052 34.8532 37.5249 34.6192 36.9492 34.6459C36.3649 34.6732 35.8176 34.9001 35.4145 35.3543C35.2209 35.5727 35.0752 35.8336 34.9877 36.1179C34.9609 36.2056 34.8654 36.9239 34.8735 36.9225C34.6086 35.6841 33.4417 35.0369 32.3031 35.315C31.7752 35.4441 31.2979 35.7977 31.0047 36.2762C30.8429 36.5409 30.7373 36.8373 30.7021 37.1505C30.6914 37.2467 30.739 38.022 30.7522 38.0168C30.24 36.872 28.967 36.5013 27.9141 37.034C27.3988 37.2945 26.9946 37.7779 26.8166 38.3494C26.732 38.6207 26.7 38.9058 26.7268 39.1906C26.736 39.2867 26.9403 40.0349 26.9531 40.0263C26.2196 39.0213 24.8996 38.9476 23.9813 39.7057C23.5315 40.0772 23.2349 40.641 23.1776 41.2399C23.1505 41.5249 23.1774 41.8109 23.2623 42.0838C23.2908 42.1753 23.6452 42.8614 23.6562 42.8496C22.733 42.0303 21.4282 42.2611 20.6877 43.2132C19.9443 44.1692 20.0886 45.6058 21.0373 46.3448C21.04 46.3398 20.4224 46.1401 20.3413 46.1285C20.038 46.0856 19.7249 46.1157 19.4364 46.2233C18.8831 46.4296 18.4673 46.8621 18.2099 47.4105C17.6888 48.5214 18.138 49.8893 19.2244 50.3809C19.2328 50.3544 18.4359 50.3412 18.3419 50.3588C18.042 50.4146 17.7572 50.5424 17.514 50.735C17.0885 51.0724 16.8203 51.5563 16.704 52.0995C16.5697 52.7259 16.6877 53.404 17.0539 53.9231C17.2131 54.1511 17.4165 54.3437 17.6488 54.4863C17.72 54.53 18.33 54.774 18.3307 54.7668C17.2883 54.7377 16.3768 55.5526 16.197 56.6269C15.9784 57.9327 16.8222 59.222 18.1057 59.3255C18.1056 59.3119 17.435 59.5117 17.3576 59.5505C17.0994 59.6799 16.8667 59.8668 16.6803 60.0949C16.3073 60.5518 16.1431 61.1613 16.1865 61.7573C16.2286 62.3337 16.4522 62.8706 16.8517 63.2733C17.0587 63.4821 17.311 63.638 17.582 63.7342C17.6699 63.7654 18.4641 63.8832 18.4584 63.851C17.2654 64.1462 16.6735 65.4038 16.9796 66.6167C17.1203 67.1737 17.4883 67.6743 17.9604 67.9609C18.2299 68.1245 18.5266 68.2213 18.8379 68.2334C18.924 68.2369 19.7 68.1216 19.6845 68.0873C18.5533 68.7047 18.3331 70.1426 19.0132 71.2237C19.3143 71.7015 19.8105 72.0656 20.3481 72.1677C20.6408 72.2236 20.9417 72.2137 21.2272 72.1258C21.3123 72.0995 22.0551 71.7001 22.019 71.6611C21.1678 72.6236 21.3937 74.0982 22.3968 74.8385C23.3889 75.5701 24.7431 75.3508 25.3624 74.216C25.3469 74.2077 25.2086 74.9013 25.2051 74.9831C25.1899 75.3089 25.2467 75.6404 25.3804 75.9358C25.6282 76.4834 26.0789 76.9026 26.6228 77.0973C27.7391 77.5217 28.9817 76.9485 29.3434 75.7367C29.3361 75.7349 29.355 76.4187 29.3705 76.503C29.4281 76.8158 29.5536 77.1091 29.73 77.3673C30.0439 77.8279 30.534 78.1166 31.0541 78.2322C32.2269 78.4926 33.403 77.6961 33.5994 76.4396C33.5982 76.4396 33.7136 77.101 33.7418 77.1836C33.8435 77.4809 34.0068 77.7504 34.2143 77.9779C34.6039 78.4051 35.1534 78.6278 35.7094 78.6498C36.8555 78.7044 37.8819 77.7927 37.9373 76.5684C37.9413 76.5683 38.1064 77.1704 38.1405 77.2462C38.2611 77.5136 38.4347 77.7528 38.6468 77.9464C39.1015 78.3614 39.7025 78.5523 40.2975 78.4892C40.8274 78.4332 41.3417 78.2015 41.7058 77.7855C41.9052 77.5578 42.06 77.2857 42.1547 76.9922C42.1843 76.8999 42.2912 76.1382 42.2797 76.14C42.5441 77.3191 43.6939 78.0664 44.8162 77.7957C45.3356 77.6702 45.8259 77.3758 46.1396 76.9148C46.3149 76.6576 46.4366 76.3588 46.4917 76.0472C46.5083 75.9531 46.5111 75.1717 46.4945 75.177C46.9246 76.3601 48.1895 76.8654 49.2798 76.387C49.7886 76.1833 50.2052 75.76 50.4312 75.24C50.558 74.9475 50.6173 74.6314 50.6032 74.3095C50.599 74.2183 50.4314 73.4446 50.4086 73.4584C51.0722 74.55 52.4362 74.7276 53.3914 73.9556C54.3588 73.1741 54.5414 71.7114 53.6588 70.772C53.6408 70.7927 54.25 71.1379 54.3222 71.1645C54.6166 71.2721 54.9318 71.2913 55.2384 71.2414C55.8225 71.1462 56.3286 70.7474 56.6466 70.2328C57.3052 69.1369 57.0025 67.691 55.8615 67.1219C55.8533 67.1423 56.5235 67.243 56.6005 67.2415C56.9163 67.2367 57.2225 67.1452 57.4961 66.9804C58.0003 66.6765 58.375 66.1415 58.5024 65.5418C58.7633 64.3165 58.1033 63.0832 56.9009 62.8444C56.8951 62.8916 57.7681 62.6908 57.8604 62.6477C58.2051 62.4861 58.4937 62.2242 58.7037 61.8948C59.1129 61.2535 59.1863 60.3955 58.9043 59.682C59.0172 59.9675 58.7908 59.3963 58.9043 59.682Z" fill="#F2CC46"/>
<path d="M54.6633 54.8331C54.4072 54.1889 53.8179 53.7597 53.1543 53.7409C53.1549 53.7518 53.6889 53.5628 53.7501 53.5281C53.9753 53.4006 54.1688 53.2172 54.3166 52.9979C54.584 52.6009 54.6782 52.1017 54.6093 51.6227C54.4768 50.6988 53.6834 49.9949 52.7911 50.0635C52.7904 50.0589 52.7897 50.0545 52.789 50.0499C53.7258 49.8249 54.2423 48.8106 53.9888 47.8493C53.8745 47.4162 53.6367 47.038 53.2796 46.7851C53.0759 46.6405 52.8411 46.5495 52.5978 46.5167C52.5213 46.5067 51.8811 46.55 51.8891 46.5715C52.7475 46.1283 53.0415 45.0118 52.5799 44.1377C52.1204 43.2671 51.1088 42.89 50.2681 43.4096C50.2735 43.4175 50.6269 42.9608 50.6612 42.8967C50.7737 42.6845 50.8375 42.4504 50.8564 42.2084C50.8941 41.7206 50.7202 41.225 50.4097 40.8627C49.7775 40.1241 48.7146 39.9953 48.0059 40.6932C48.0083 40.6958 48.247 40.2099 48.2673 40.1433C48.3419 39.8999 48.3596 39.6441 48.3263 39.3908C48.263 38.9092 47.9971 38.4756 47.6277 38.1883C46.8665 37.5897 45.7807 37.72 45.2336 38.5581C45.24 38.562 45.3737 37.9928 45.3783 37.9193C45.3956 37.6565 45.3513 37.3937 45.2549 37.1509C45.0856 36.7237 44.7508 36.3859 44.352 36.1982C43.4866 35.7853 42.4545 36.1585 42.0908 37.0993C42.0928 37.0998 42.115 36.5554 42.107 36.4854C42.0775 36.2332 41.9922 35.9951 41.8627 35.7811C41.6276 35.3933 41.2442 35.1234 40.8233 35.0124C39.8739 34.7622 38.8928 35.3533 38.7265 36.3914C38.7332 36.3921 38.6264 35.8169 38.6008 35.7476C38.5188 35.5218 38.3902 35.3205 38.2255 35.1524C37.8921 34.8126 37.4243 34.6239 36.9602 34.6457C36.489 34.6674 36.0475 34.8506 35.7226 35.2168C35.5665 35.3927 35.449 35.6032 35.3784 35.8326C35.3567 35.9033 35.2799 36.4822 35.2862 36.4814C35.0728 35.4828 34.1318 34.961 33.2137 35.185C32.788 35.2892 32.4031 35.5745 32.1671 35.9603C32.0363 36.1735 31.9513 36.4124 31.9228 36.6651C31.914 36.7427 31.9523 37.368 31.9631 37.3637C31.5503 36.4406 30.5239 36.1415 29.6747 36.5712C29.2592 36.7811 28.9331 37.1711 28.7897 37.6319C28.7215 37.8508 28.6957 38.0803 28.7173 38.3101C28.7246 38.3877 28.8897 38.9909 28.8999 38.984C28.3084 38.1737 27.244 38.1143 26.5036 38.7257C26.1407 39.0252 25.9019 39.4796 25.8554 39.9627C25.8337 40.1924 25.8555 40.423 25.9239 40.6428C25.9467 40.7168 26.2325 41.2699 26.2412 41.2607C25.497 40.5999 24.445 40.7861 23.8479 41.5537C23.2484 42.3248 23.3647 43.4829 24.1296 44.0788C24.1319 44.0747 23.6341 43.9138 23.5683 43.9044C23.3238 43.8697 23.0712 43.8941 22.8388 43.981C22.3926 44.1472 22.0574 44.4958 21.8498 44.9381C21.4296 45.834 21.7918 46.9369 22.6678 47.3334C22.6748 47.3118 22.0319 47.3015 21.9563 47.3157C21.7145 47.3606 21.4848 47.4637 21.2886 47.6191C20.9456 47.891 20.7293 48.2812 20.6356 48.7192C20.5273 49.2243 20.6224 49.7708 20.9177 50.1896C21.0462 50.3732 21.21 50.5286 21.3972 50.6436C21.4546 50.6789 21.9466 50.8758 21.9471 50.8697C21.1066 50.8463 20.3716 51.5033 20.2267 52.3699C20.0507 53.4227 20.7307 54.4621 21.7657 54.5457C21.7658 54.5347 21.225 54.6959 21.1625 54.7271C20.9545 54.8314 20.7669 54.982 20.6164 55.1661C20.3158 55.5344 20.1832 56.0262 20.2185 56.5068C20.2524 56.9712 20.4326 57.4045 20.7546 57.729C20.9214 57.8974 21.125 58.0232 21.3437 58.1007C21.4144 58.126 22.0547 58.2208 22.0503 58.1946C21.0884 58.433 20.6109 59.4469 20.8578 60.4248C20.9714 60.8741 21.2679 61.2778 21.6486 61.5087C21.866 61.6406 22.1054 61.7188 22.3562 61.7286C22.4256 61.7313 23.0514 61.6383 23.0389 61.6106C22.1266 62.1084 21.9494 63.2679 22.4975 64.1397C22.7404 64.525 23.1405 64.8184 23.5738 64.9011C23.8099 64.9458 24.0525 64.9378 24.2827 64.8668C24.3515 64.8459 24.9503 64.5238 24.9212 64.4924C24.2349 65.2685 24.4169 66.4574 25.2261 67.0543C26.0258 67.6444 27.1179 67.4675 27.617 66.5524C27.6045 66.5458 27.4934 67.105 27.4903 67.1712C27.478 67.4336 27.5241 67.7013 27.6316 67.9392C27.8316 68.3807 28.195 68.719 28.6334 68.8757C29.5336 69.2182 30.5356 68.7558 30.8271 67.7789C30.8213 67.7773 30.8366 68.3286 30.8491 68.3968C30.8955 68.6488 30.9968 68.8851 31.1389 69.0936C31.3921 69.4648 31.7873 69.6977 32.2067 69.7911C33.1523 70.0007 34.1007 69.3587 34.2589 68.3456C34.258 68.3453 34.351 68.8786 34.374 68.9454C34.4558 69.1851 34.5874 69.4025 34.7548 69.5858C35.0692 69.9304 35.5119 70.1099 35.9605 70.1277C36.8845 70.1717 37.7121 69.4366 37.7569 68.4492C37.76 68.4492 37.8932 68.9347 37.9207 68.9959C38.0178 69.2115 38.1577 69.4044 38.3289 69.5605C38.6956 69.8953 39.1802 70.0489 39.66 69.9981C40.0871 69.9531 40.5019 69.7663 40.7955 69.4309C40.9564 69.2471 41.0812 69.0277 41.1573 68.791C41.1813 68.7167 41.2677 68.1024 41.2582 68.104C41.4713 69.0547 42.3986 69.6572 43.3036 69.4389C43.7224 69.3378 44.1176 69.1005 44.3708 68.7285C44.5117 68.5212 44.61 68.2802 44.6544 68.0292C44.6679 67.9534 44.6702 67.3231 44.6567 67.3272C45.0036 68.2814 46.0237 68.6889 46.9027 68.3031C47.3129 68.1389 47.6488 67.7975 47.831 67.3783C47.9335 67.1424 47.9815 66.8876 47.9696 66.6278C47.9664 66.5544 47.8315 65.9305 47.813 65.9417C48.3481 66.8218 49.448 66.9651 50.2181 66.3425C50.998 65.7122 51.1453 64.5329 50.4335 63.7754C50.4192 63.7922 50.9105 64.0706 50.9687 64.092C51.206 64.1787 51.4602 64.1941 51.7073 64.1539C52.1784 64.077 52.5863 63.7557 52.8428 63.3405C53.3739 62.4571 53.1298 61.2913 52.2099 60.8322C52.2033 60.8486 52.7434 60.9301 52.8057 60.9287C53.0603 60.925 53.3071 60.851 53.5278 60.7181C53.9344 60.4731 54.2364 60.0418 54.3394 59.5583C54.5495 58.5703 54.0173 57.5756 53.0479 57.3833C53.0433 57.4213 53.7471 57.2595 53.8217 57.2245C54.0995 57.0943 54.3325 56.8831 54.5018 56.6173C54.8313 56.1004 54.8907 55.4084 54.6633 54.8331C54.7542 55.0633 54.5719 54.6029 54.6633 54.8331Z" fill="#F8E298"/>
<path d="M53.9334 58.2193C53.5559 58.3637 53.1339 58.3897 52.7415 58.2929C54.958 57.281 57.0183 55.7983 58.3526 53.7584C59.6873 51.7185 60.2161 49.0738 59.3933 46.7787C59.444 47.899 59.1218 49.033 58.4898 49.9592C59.1706 47.9337 58.7989 45.6722 57.9255 43.7221C57.0521 41.772 55.7122 40.0747 54.3862 38.3996C53.6963 37.528 52.9945 36.6449 52.0938 35.9941C51.3907 35.486 50.5838 35.1336 49.7523 34.8875C47.0107 34.0758 44.0116 34.4158 41.3513 35.465C40.6095 35.7577 39.8843 36.1064 39.2394 36.5758C38.5561 37.0735 37.973 37.6995 37.466 38.376C34.9691 41.7063 34.3761 46.0614 34.0858 50.2148C33.8496 53.5918 33.7719 57.0709 34.8927 60.2647C35.1049 60.8692 35.3739 61.4807 35.8547 61.9035C36.3358 62.3266 37.0795 62.51 37.6287 62.1807C38.0644 61.9197 38.2801 61.4176 38.5097 60.9643C38.8392 60.3139 39.2488 59.7041 39.7267 59.1534C39.8721 58.9859 40.0296 58.8195 40.2322 58.729C40.8888 58.4353 41.567 59.0396 42.0944 59.5292C43.7312 61.0482 45.9716 61.8968 48.203 61.8431C46.7363 61.3593 45.3958 60.4963 44.348 59.3609C45.9285 60.0405 47.6501 60.4583 49.3656 60.3343C51.0815 60.2104 52.7904 59.506 53.9334 58.2193Z" fill="#F2591D"/>
<path d="M17.7629 59.0655C18.1467 59.1921 18.5693 59.1984 18.9569 59.0833C16.6952 58.1762 14.5681 56.7915 13.1398 54.8163C11.7112 52.841 11.0592 50.224 11.7738 47.8928C11.7755 49.0143 12.1501 50.132 12.8248 51.0276C12.0503 49.0362 12.3155 46.7598 13.097 44.771C13.8782 42.7822 15.1372 41.024 16.3834 39.2887C17.0315 38.3858 17.6915 37.4708 18.5605 36.7786C19.2391 36.2382 20.0285 35.8484 20.8479 35.5637C23.5486 34.6246 26.5603 34.824 29.2664 35.7475C30.0214 36.0052 30.7621 36.3196 31.4281 36.7583C32.1342 37.2235 32.7456 37.8216 33.284 38.4736C35.9339 41.6834 36.73 46.0061 37.2143 50.1413C37.6083 53.5035 37.8486 56.9752 36.8784 60.2179C36.6947 60.8317 36.4547 61.4552 35.9942 61.9C35.5334 62.3451 34.7991 62.5631 34.235 62.2599C33.7874 62.0195 33.5484 61.5281 33.2978 61.086C32.9385 60.4518 32.5006 59.8618 31.9977 59.334C31.8447 59.1735 31.6796 59.0147 31.473 58.9337C30.803 58.6711 30.1541 59.3064 29.6502 59.8201C28.086 61.4141 25.888 62.3665 23.6565 62.4173C25.099 61.8654 26.3974 60.9406 27.3912 59.7574C25.8443 60.5103 24.1441 61.0081 22.4243 60.9646C20.7048 60.921 18.9645 60.2974 17.7629 59.0655Z" fill="#F2591D"/>
<path d="M58.5369 46.8947C58.6801 53.0131 53.841 58.0886 47.728 58.2317C41.6154 58.3747 36.5438 53.5311 36.4006 47.4128C36.2575 41.2947 41.0969 36.2189 47.2095 36.0758C53.3224 35.9327 58.3938 40.7767 58.5369 46.8947Z" fill="#523B1A"/>
<path d="M57.0646 47.2901C57.1943 52.8328 52.81 57.4313 47.2719 57.5609C41.7341 57.6905 37.1395 53.3021 37.0097 47.7594C36.88 42.2164 41.2643 37.6179 46.8022 37.4883C52.3403 37.3587 56.9349 41.7471 57.0646 47.2901Z" fill="#D1B86C"/>
<path d="M57.0646 47.2901C57.1943 52.8328 52.81 57.4313 47.2719 57.5609C41.7341 57.6905 37.1395 53.3021 37.0097 47.7594C36.88 42.2164 41.2643 37.6179 46.8022 37.4883C52.3403 37.3587 56.9349 41.7471 57.0646 47.2901Z" fill="#D1B86C"/>
<path d="M56.1038 47.3126C56.2211 52.3242 52.257 56.4823 47.2495 56.5995C42.2421 56.7167 38.0878 52.7486 37.9705 47.737C37.8532 42.7251 41.8173 38.5673 46.8248 38.4501C51.8322 38.3329 55.9865 42.3007 56.1038 47.3126Z" fill="#F3ED99"/>
<path d="M51.3805 47.4229C51.4367 49.8236 49.5379 51.8154 47.1391 51.8716C44.7405 51.9277 42.7503 50.0269 42.6942 47.6262C42.638 45.2252 44.537 43.2334 46.9356 43.1772C49.3344 43.1211 51.3243 45.0219 51.3805 47.4229Z" fill="#D4C18D"/>
<path d="M50.1786 47.4511C50.2192 49.1881 48.8451 50.629 47.1097 50.6696C45.3743 50.7102 43.9346 49.3352 43.8939 47.5982C43.8533 45.861 45.2271 44.4201 46.9625 44.3794C48.6979 44.3388 50.1379 45.7139 50.1786 47.4511Z" fill="#2E2227"/>
<path d="M47.0149 46.6032C47.0268 47.1121 46.6244 47.5345 46.116 47.5464C45.6075 47.5583 45.1855 47.1552 45.1736 46.6463C45.1617 46.1374 45.5644 45.715 46.0728 45.7031C46.5813 45.6912 47.003 46.0943 47.0149 46.6032Z" fill="white"/>
<path d="M44.2728 40.8366C45.036 41.5345 44.6512 43.1997 43.4131 44.5559C42.1753 45.9122 40.5531 46.446 39.7895 45.7481C39.0263 45.0502 39.4112 43.385 40.6492 42.0288C41.887 40.6722 43.5092 40.1387 44.2728 40.8366" fill="white"/>
<path d="M49.2327 54.9111C44.4515 55.023 40.2695 52.2658 38.3311 48.2109C38.5175 51.4876 40.5864 54.5061 43.8521 55.7393C46.745 56.8315 49.8583 56.2515 52.1318 54.4803C51.2073 54.7386 50.236 54.8876 49.2327 54.9111Z" fill="#D4C18D"/>
<path d="M13.3439 47.9525C13.4871 54.0708 18.5584 58.9144 24.6713 58.7714C30.7839 58.6283 35.6233 53.5527 35.4802 47.4344C35.337 41.3163 30.2654 36.4724 24.1528 36.6155C18.0398 36.7585 13.2007 41.8344 13.3439 47.9525Z" fill="#523B1A"/>
<path d="M14.8334 48.2783C14.9631 53.821 19.5577 58.2094 25.0955 58.0798C30.6336 57.9502 35.018 53.3517 34.8882 47.8089C34.7585 42.2659 30.1639 37.8775 24.6258 38.0071C19.0879 38.1368 14.7036 42.7353 14.8334 48.2783Z" fill="#D1B86C"/>
<path d="M14.8334 48.2783C14.9631 53.821 19.5577 58.2094 25.0955 58.0798C30.6336 57.9502 35.018 53.3517 34.8882 47.8089C34.7585 42.2659 30.1639 37.8775 24.6258 38.0071C19.0879 38.1368 14.7036 42.7353 14.8334 48.2783Z" fill="#D1B86C"/>
<path d="M15.7932 48.2561C15.9105 53.2676 20.0651 57.2357 25.0723 57.1186C30.0797 57.0014 34.0439 52.8433 33.9266 47.8317C33.8093 42.8198 29.655 38.852 24.6475 38.9692C19.6404 39.0864 15.6759 43.2442 15.7932 48.2561Z" fill="#F3ED99"/>
<path d="M20.5168 48.1457C20.573 50.5463 22.5632 52.4472 24.9617 52.391C27.3605 52.3349 29.2596 50.343 29.2034 47.9424C29.1472 45.5414 27.157 43.6406 24.7582 43.6967C22.3597 43.7528 20.4606 45.7447 20.5168 48.1457Z" fill="#D4C18D"/>
<path d="M21.7177 48.1174C21.7583 49.8543 23.198 51.2294 24.9334 51.1888C26.6692 51.1482 28.0429 49.7073 28.0023 47.9703C27.9616 46.233 26.5219 44.858 24.7862 44.8986C23.0508 44.9392 21.677 46.3801 21.7177 48.1174Z" fill="#2E2227"/>
<path d="M24.8393 47.1221C24.8512 47.631 25.2732 48.0341 25.7817 48.0222C26.2901 48.0103 26.6928 47.5879 26.6809 47.079C26.669 46.5701 26.247 46.1671 25.7385 46.179C25.2301 46.1909 24.8274 46.6132 24.8393 47.1221Z" fill="white"/>
<path d="M22.0699 41.3564C22.8331 42.0543 22.4483 43.7195 21.2105 45.0757C19.9724 46.4319 18.3502 46.9658 17.5869 46.2679C16.8237 45.5699 17.2085 43.9048 18.4463 42.5486C19.6844 41.192 21.3066 40.6585 22.0699 41.3564" fill="white"/>
<path d="M23.0121 55.5247C27.7933 55.4128 31.8417 52.463 33.5882 48.3218C33.5553 51.6036 31.6299 54.7156 28.4255 56.1002C25.5866 57.3266 22.4496 56.8929 20.0957 55.23C21.0313 55.4448 22.0084 55.5482 23.0121 55.5247Z" fill="#D4C18D"/>
<path d="M37.7715 48.8066C37.4873 48.5089 37.1581 48.2433 36.7778 48.1577C36.4089 48.0747 35.9874 48.1996 35.7681 48.5382C35.5344 48.2096 35.1077 48.1037 34.7428 48.203C34.367 48.3051 34.0496 48.5853 33.7788 48.8954C32.3391 50.5439 31.9926 53.1048 32.3831 55.3815C32.7736 57.6584 33.7979 59.7284 34.8073 61.7536C34.8818 61.9033 35.5049 62.8265 36.0961 62.8135C36.6877 62.8002 37.2478 61.8505 37.3156 61.6981C38.2341 59.6298 39.1654 57.5161 39.4545 55.2244C39.743 52.9324 39.283 50.3895 37.7715 48.8066Z" fill="#2D1615"/>
<path d="M34.6374 48.606C34.3621 48.6627 34.1622 48.9049 34.0006 49.1428C32.8518 50.8322 32.5184 53.0087 32.713 55.0684C32.9287 57.3508 33.7616 59.5683 35.0922 61.4014C35.3225 61.7191 35.6547 62.0589 36.0273 61.9687C36.4545 61.8651 36.5695 61.3003 36.5984 60.846C36.8382 57.0877 36.9899 53.2069 35.7552 49.6626C35.6614 49.3935 35.5563 49.1211 35.3723 48.9081C35.188 48.6951 34.9075 48.5503 34.6374 48.606Z" fill="#EE8B40"/>
<path d="M36.5544 48.5586C36.1803 48.6578 36.0133 49.085 35.9103 49.4585C34.8556 53.2861 34.7799 57.3801 35.6924 61.2443C35.7568 61.5173 35.8649 61.8324 36.1333 61.9137C36.4695 62.0156 36.7662 61.6784 36.9471 61.3768C38.5919 58.6372 39.2885 55.339 38.8921 52.1675C38.7354 50.9153 38.3551 49.5903 37.361 48.8142C37.1304 48.6341 36.8374 48.4837 36.5544 48.5586Z" fill="#F2591D"/>
<path d="M36.8164 55.8045C36.8884 58.8819 36.5122 61.3869 35.9764 61.3994C35.4402 61.4119 34.9472 58.9273 34.8752 55.8499C34.8032 52.7726 35.1794 50.2676 35.7155 50.255C36.2514 50.2425 36.7444 52.7271 36.8164 55.8045Z" fill="#F3DE3E"/>
<path d="M35.9319 53.9704C36.1461 53.8984 36.2264 53.6396 36.2538 53.415C36.3402 52.7056 36.2006 51.9702 35.8597 51.3424C35.3486 51.8607 35.1578 52.6494 35.2952 53.3646C35.3264 53.5283 35.3765 53.6944 35.4854 53.8205C35.5941 53.9468 35.7737 54.0235 35.9319 53.9704Z" fill="white"/>
<path d="M36.1502 55.7445C36.0279 55.3185 35.9053 54.8925 35.7827 54.4665C35.5543 54.9071 35.4579 55.4156 35.5096 55.9094C35.5238 56.0461 35.551 56.1868 35.6316 56.2982C35.7118 56.4096 35.8577 56.4839 35.989 56.4438C36.1165 56.4047 36.1954 56.2699 36.2099 56.1375C36.2244 56.0048 36.1872 55.8725 36.1502 55.7445Z" fill="white"/>
<path d="M33.9586 23.2981C35.5132 23.0825 37.0678 22.8673 38.6225 22.652C38.5232 21.2987 37.9402 19.986 37.0032 19.0057C38.2647 18.3211 39.0219 16.8082 38.8139 15.387C38.606 13.9657 37.4477 12.7335 36.0428 12.4392C34.8024 12.1796 33.5043 12.609 32.4322 13.2855C31.7118 13.7404 31.0476 14.3261 30.6603 15.0854C30.2893 15.8127 30.1966 16.6778 30.4051 17.4673C30.555 18.0354 30.884 18.588 31.4096 18.8494C32.0771 19.1814 32.8883 18.9789 33.6077 19.1739C33.34 20.2962 33.1821 21.4445 33.1366 22.5972C33.1285 22.8031 33.133 23.0339 33.2776 23.1808C33.4456 23.3514 33.7215 23.3308 33.9586 23.2981" fill="white"/>
<path d="M31.3796 16.6332C31.5493 16.7775 31.7875 16.8123 32.0101 16.8019C32.3842 16.7842 32.7524 16.6531 33.0535 16.4299C33.238 16.2932 33.3999 16.1189 33.4905 15.9079C33.5812 15.6968 33.5941 15.4463 33.494 15.2397C33.3553 14.9539 33.0214 14.7991 32.7042 14.8042C32.3867 14.8093 32.0857 14.9496 31.8219 15.1259C31.5689 15.2951 31.332 15.5105 31.2194 15.7934C31.1067 16.0761 31.1475 16.4363 31.3796 16.6332Z" fill="#2E2227"/>
<path d="M37.617 14.7804C37.4797 14.453 37.1593 14.249 36.8931 14.0145C36.7351 13.8751 36.5751 13.711 36.366 13.6852C36.1761 13.662 35.9945 13.7598 35.8283 13.8545C35.6226 13.9714 35.4144 14.0904 35.2456 14.2562C35.0768 14.4223 34.9495 14.6434 34.9461 14.8802C34.9417 15.175 35.1269 15.4403 35.3421 15.6416C35.6178 15.8993 35.963 16.092 36.3369 16.1411C36.7105 16.1904 37.1119 16.0839 37.3809 15.8199C37.6502 15.5555 37.7626 15.1281 37.617 14.7804Z" fill="#2E2227"/>
<path d="M34.6893 21.9761C34.7097 21.1315 34.7303 20.2872 34.7507 19.4429C34.622 19.4477 34.4934 19.4524 34.3647 19.4572C34.327 20.3122 34.289 21.1674 34.2512 22.0225C34.3972 22.0069 34.5433 21.9916 34.6893 21.9761Z" fill="#2E2227"/>
<path d="M35.2958 19.2891C35.3424 20.122 35.4415 20.9519 35.5924 21.7723C35.7816 21.7531 35.9709 21.7339 36.1604 21.715C35.9773 20.8634 35.794 20.012 35.6109 19.1606C35.506 19.2035 35.401 19.2461 35.2958 19.2891Z" fill="#2E2227"/>
<path d="M36.6805 19.3542C36.6448 19.236 36.6077 19.1097 36.5135 19.0298C36.4192 18.9503 36.2478 18.9508 36.1946 19.0622C36.3878 19.976 36.6623 20.8729 37.014 21.7383C37.2412 21.6009 37.5101 21.5333 37.7752 21.5471C37.29 20.8851 36.9183 20.1402 36.6805 19.3542Z" fill="#2E2227"/>
<path d="M34.4063 16.494C34.0925 16.8669 33.9209 17.357 33.9343 17.8442C33.9366 17.93 33.9447 18.0176 33.9792 18.0963C34.0134 18.1752 34.0774 18.2448 34.1602 18.2677C34.243 18.2904 34.3336 18.2631 34.4041 18.2138C34.4745 18.1644 34.5281 18.0953 34.5787 18.0256C34.6475 17.9309 34.713 17.8323 34.7998 17.7543C34.8869 17.676 34.9999 17.619 35.1168 17.6266C35.2278 17.6342 35.3263 17.6978 35.4319 17.7334C35.5379 17.7688 35.6752 17.7656 35.7366 17.6725C35.7845 17.5998 35.7658 17.5028 35.7393 17.4196C35.6059 17.0011 35.3144 16.6352 34.9365 16.4117C34.8416 16.3558 34.7313 16.307 34.6242 16.3329C34.535 16.3543 34.4655 16.4239 34.4063 16.494Z" fill="#2E2227"/>
<path d="M34.7938 29.2657C34.7961 29.5855 34.8354 29.9085 34.7799 30.2234C34.7243 30.5385 34.5495 30.8564 34.2529 30.9755C34.1053 31.0347 33.9319 31.0379 33.7904 30.9646C33.6145 30.8734 33.512 30.6773 33.4826 30.4812C33.4529 30.2848 33.4855 30.0852 33.5181 29.8894C33.2098 29.9038 32.8869 29.8469 32.6392 29.6632C32.3915 29.4791 32.2379 29.1492 32.3219 28.8519C32.4059 28.5549 32.766 28.3485 33.0457 28.4787C33.2138 28.5571 33.3413 28.7367 33.5265 28.7434C33.6534 28.7482 33.7656 28.6681 33.8666 28.5912C35.1948 27.584 39.1349 24.361 40.3953 23.2695C40.3041 23.0725 40.2221 22.8626 40.2329 22.6456C40.244 22.4289 40.3709 22.2043 40.5791 22.1428C40.8065 22.0759 41.0528 22.2259 41.1742 22.4297C41.296 22.6338 41.3219 22.8785 41.345 23.1146C41.493 22.9834 41.7733 23.0925 41.7935 23.2894C42.1175 23.3058 42.4384 23.3743 42.7409 23.4914C42.6694 23.646 42.6828 23.824 42.666 23.9934C42.6495 24.1629 42.5842 24.3499 42.4279 24.4168C42.293 24.4746 42.1387 24.4227 42.0013 24.3708C41.7429 24.2731 41.4628 24.1742 41.1963 24.2469C41.0342 24.2911 40.896 24.3946 40.7624 24.496C39.6424 25.3464 35.8897 28.3846 34.7938 29.2657" fill="white"/>
<path d="M37.9516 29.4571C38.0009 29.773 38.0143 30.0981 38.1198 30.3999C38.2256 30.7017 38.4491 30.9875 38.7611 31.057C38.9164 31.0918 39.0882 31.0667 39.2159 30.9715C39.3748 30.8531 39.4444 30.6431 39.4417 30.4446C39.4394 30.2462 39.3748 30.0544 39.3113 29.8666C39.6179 29.8308 39.9272 29.7227 40.142 29.5009C40.3568 29.2795 40.4552 28.9292 40.3242 28.6494C40.1935 28.3698 39.8049 28.2243 39.5497 28.3979C39.3966 28.5023 39.2996 28.7005 39.118 28.7369C38.9935 28.762 38.8697 28.7011 38.7577 28.6418C37.2843 27.862 32.876 25.3178 31.4562 24.4445C31.5145 24.2354 31.5613 24.015 31.5156 23.8025C31.4699 23.5903 31.3082 23.3892 31.093 23.3624C30.8576 23.333 30.6388 23.5207 30.5519 23.7415C30.4647 23.9623 30.4785 24.2085 30.4936 24.4451C30.3265 24.3395 30.0674 24.4924 30.0792 24.69C29.7624 24.7584 29.4565 24.878 29.1771 25.0426C29.2725 25.1834 29.2882 25.3613 29.3319 25.5259C29.3756 25.6902 29.4701 25.8645 29.6353 25.9052C29.7779 25.9403 29.9216 25.8644 30.0487 25.7909C30.2883 25.6526 30.5485 25.5096 30.8235 25.5384C30.9905 25.5559 31.1434 25.6358 31.2919 25.7144C32.5343 26.3725 36.7277 28.7648 37.9516 29.4571" fill="white"/>
<path d="M23.6493 33.0961C22.7345 32.465 21.5042 32.4857 20.4418 32.8103C19.3794 33.1348 18.4217 33.7262 17.4113 34.1885C14.0039 35.7478 9.92823 35.7689 6.50442 34.2453C6.77734 35.1122 7.3517 35.881 8.10586 36.3875C6.87179 36.2858 5.63744 36.1841 4.40338 36.0823C4.07446 36.0551 3.71198 36.037 3.44842 36.2362C2.89207 36.6566 3.27633 37.5677 3.81337 38.0129C4.35014 38.4584 5.06299 38.8532 5.15281 39.5452C4.9344 39.157 4.29187 39.1891 4.0283 39.5481C3.76473 39.9071 3.84557 40.4373 4.11658 40.7907C4.38759 41.1444 4.80733 41.351 5.22766 41.4972C7.24113 42.1971 9.50094 41.74 11.4191 40.8102C13.3375 39.8805 15.0015 38.5122 16.7389 37.2764C18.4761 36.0405 20.3609 34.9055 22.4626 34.552L23.6493 33.0961Z" fill="#F2591D"/>
<path d="M7.49914 42.1401C6.66173 42.1597 5.86299 42.0431 5.12741 41.7876C4.75714 41.659 4.22442 41.4353 3.87332 40.9783C3.5493 40.5556 3.41364 39.8667 3.78103 39.3665C3.94528 39.1431 4.20953 38.9982 4.49836 38.966C4.34226 38.8098 4.14972 38.6626 3.95188 38.5118C3.83753 38.4249 3.72434 38.3379 3.61747 38.2497C3.23588 37.9332 2.85685 37.3561 2.86966 36.781C2.87701 36.4534 3.01325 36.1803 3.26376 35.991C3.63485 35.7109 4.11214 35.7497 4.42834 35.7764L7.18518 36.0035C6.74304 35.5301 6.40777 34.9603 6.21188 34.3375C6.17569 34.2222 6.21058 34.0968 6.30022 34.0161C6.39016 33.936 6.51932 33.9159 6.62931 33.9648C9.97289 35.4531 13.9556 35.4318 17.2842 33.9096C17.6092 33.7604 17.9371 33.5941 18.2541 33.4329C18.922 33.0936 19.6125 32.7428 20.3521 32.5166C21.672 32.1129 22.9376 32.2321 23.8236 32.8437C23.963 32.9398 23.9981 33.1312 23.9017 33.271C23.8062 33.4099 23.6148 33.4459 23.4751 33.3492C22.745 32.8452 21.672 32.7559 20.5313 33.1039C19.8427 33.3145 19.2059 33.6381 18.5319 33.9804C18.2092 34.1443 17.8757 34.3139 17.5392 34.468C14.2823 35.9576 10.4257 36.0747 7.07702 34.812C7.36337 35.3396 7.77537 35.7955 8.27696 36.1323C8.39284 36.2105 8.44187 36.357 8.39588 36.489C8.3496 36.6212 8.21853 36.7075 8.08077 36.6934L4.37799 36.3882C4.08322 36.3639 3.80318 36.3529 3.63325 36.4814C3.53395 36.5565 3.48632 36.6559 3.48323 36.7952C3.47623 37.1003 3.70235 37.5224 4.00915 37.7764C4.10956 37.8599 4.21656 37.9412 4.32387 38.0234C4.81333 38.3968 5.36834 38.8202 5.45714 39.5059C5.47586 39.6517 5.38903 39.7904 5.2498 39.837C5.1097 39.8833 4.9576 39.8242 4.8856 39.6958C4.83107 39.5991 4.71567 39.5781 4.6512 39.5745C4.50053 39.5641 4.35045 39.628 4.27546 39.7301C4.0894 39.9838 4.18043 40.3698 4.36002 40.6043C4.55061 40.8526 4.85824 41.044 5.32835 41.2072C7.04432 41.8037 9.15967 41.5646 11.2857 40.5341C12.7382 39.8299 14.0753 38.8459 15.3688 37.8941C15.7647 37.6025 16.1612 37.3106 16.5611 37.0261C18.1932 35.8652 20.1645 34.6273 22.412 34.2494C22.5794 34.2209 22.7373 34.3342 22.7652 34.5015C22.7934 34.6687 22.6807 34.8271 22.5136 34.855C20.3887 35.2125 18.4917 36.4064 16.9167 37.527C16.5194 37.8093 16.1257 38.0991 15.732 38.389C14.4167 39.3572 13.0563 40.3582 11.553 41.087C10.1738 41.7553 8.79104 42.1099 7.49914 42.1401Z" fill="#292625"/>
<path d="M47.9199 32.5281C48.8038 31.8549 50.0338 31.818 51.1102 32.0925C52.1866 32.367 53.1712 32.9129 54.2019 33.3275C57.6785 34.7257 61.7509 34.5561 65.0994 32.8739C64.8676 33.7526 64.3296 34.5475 63.6 35.0888C64.8282 34.9294 66.0562 34.77 67.2841 34.6107C67.6117 34.568 67.9726 34.533 68.2452 34.7197C68.8209 35.1137 68.4794 36.0418 67.9641 36.5116C67.4485 36.9817 66.7549 37.4094 66.6975 38.1049C66.8975 37.7069 67.5408 37.7089 67.8209 38.0552C68.1013 38.4014 68.0454 38.9347 67.7909 39.3005C67.5367 39.6665 67.1274 39.8925 66.7141 40.0582C64.7356 40.8515 62.4568 40.5006 60.4973 39.6616C58.5377 38.8226 56.8113 37.5337 55.0182 36.3805C53.2251 35.2272 51.289 34.1817 49.1731 33.9269L47.9199 32.5281Z" fill="#F2591D"/>
<path d="M64.4765 40.8066C63.1846 40.8369 61.7871 40.5477 60.3778 39.944C58.8423 39.2867 57.4366 38.3504 56.0772 37.4447C55.6704 37.1737 55.2638 36.9026 54.8535 36.6391C53.2277 35.5935 51.277 34.4896 49.1379 34.2319C48.9694 34.2119 48.8495 34.0589 48.8698 33.8905C48.8901 33.7222 49.0434 33.6015 49.2108 33.6222C51.4738 33.8946 53.5006 35.0389 55.1855 36.1222C55.5983 36.3876 56.0077 36.6606 56.4171 36.9334C57.7534 37.8237 59.1351 38.7441 60.619 39.3792C62.7908 40.3095 64.9153 40.449 66.6013 39.7732C67.0632 39.5882 67.3619 39.3827 67.5406 39.1253C67.7091 38.883 67.7816 38.4932 67.5839 38.2484C67.5039 38.15 67.349 38.0932 67.2016 38.1106C67.1374 38.1173 67.0228 38.1437 66.9731 38.2428C66.9072 38.3744 66.7577 38.4406 66.6159 38.4008C66.4744 38.3608 66.3812 38.2263 66.3933 38.0798C66.45 37.3907 66.9842 36.9418 67.4557 36.5459C67.5593 36.4588 67.6624 36.3726 67.7588 36.2845C68.0534 36.0164 68.2595 35.5841 68.2383 35.2798C68.2284 35.1407 68.1764 35.0437 68.0735 34.9733C67.8977 34.8528 67.6193 34.877 67.3249 34.9151L63.6407 35.3931C63.5043 35.414 63.3691 35.3336 63.3167 35.2036C63.2645 35.074 63.3064 34.9253 63.4188 34.8418C63.9041 34.4819 64.294 34.0072 64.5553 33.4668C61.2685 34.8852 57.4115 34.9488 54.0888 33.6126C53.7452 33.4745 53.4041 33.3206 53.0741 33.172C52.3848 32.8616 51.7338 32.5682 51.0356 32.39C49.8804 32.096 48.8128 32.2352 48.1068 32.7727C47.9721 32.8759 47.7792 32.8494 47.677 32.7146C47.5742 32.5794 47.6006 32.3866 47.735 32.2841C48.5917 31.632 49.8504 31.4538 51.1871 31.795C51.9368 31.9864 52.6429 32.3045 53.326 32.6121C53.6505 32.7583 53.9855 32.9091 54.3174 33.0429C57.7133 34.408 61.6929 34.2426 64.9632 32.5996C65.0705 32.5456 65.2005 32.5596 65.2941 32.6355C65.3877 32.7119 65.4284 32.8355 65.3973 32.9524C65.2311 33.5836 64.9226 34.1685 64.5031 34.6621L67.246 34.3063C67.5603 34.2649 68.0361 34.2037 68.4196 34.4661C68.6787 34.6435 68.8275 34.91 68.8505 35.2368C68.8902 35.8107 68.5383 36.405 68.1719 36.7389C68.0696 36.8321 67.9603 36.9242 67.8501 37.0163C67.6599 37.1763 67.4741 37.3323 67.3255 37.4956C67.6155 37.5143 67.8865 37.6466 68.0611 37.8622C68.4512 38.3446 68.3479 39.0391 68.0443 39.4762C67.7147 39.9495 67.193 40.1978 66.8291 40.3435C66.1066 40.6332 65.3139 40.787 64.4765 40.8066Z" fill="#292625"/>
<path d="M6.99096 56.5229C3.39362 63.6715 1.61044 71.7254 1.85398 79.7258C2.83796 77.321 3.82194 74.9159 4.80563 72.5112C4.57677 75.5502 4.68776 78.6151 5.13596 81.6296C5.27881 82.5888 5.62901 83.7357 6.57516 83.9459C7.72883 84.2024 8.56771 82.8142 8.69292 81.638C8.81783 80.4615 8.69259 79.1193 9.50693 78.2622C9.64262 81.5802 11.3136 84.8045 13.9461 86.8264C14.1192 84.1077 14.2923 81.3893 14.4655 78.6706C14.7361 79.4665 15.0195 80.2852 15.5742 80.9163C16.1291 81.5477 17.0296 81.9517 17.8241 81.6786C18.6398 81.3979 19.0885 80.524 19.3185 79.6918C20.4165 75.7181 18.3561 71.6086 16.1818 68.1068C14.0078 64.605 11.5538 60.8849 11.797 56.7694L6.99096 56.5229Z" fill="#F2591D"/>
<path d="M13.954 87.1335C13.8853 87.1351 13.8164 87.1133 13.7599 87.0698C11.3047 85.1845 9.67611 82.3149 9.28366 79.252C9.1253 79.7394 9.09179 80.306 9.05673 80.8929C9.04122 81.1554 9.02567 81.4167 8.9984 81.6702C8.91685 82.4419 8.51488 83.45 7.80219 83.9626C7.4061 84.2481 6.95856 84.3459 6.50899 84.2457C5.62175 84.0483 5.05783 83.1833 4.83342 81.6749C4.47096 79.2398 4.32736 76.768 4.40369 74.3056L2.13862 79.8422C2.08401 79.9762 1.9432 80.054 1.80025 80.0279C1.6576 80.0023 1.55254 79.8802 1.54828 79.7353C1.3026 71.6679 3.08992 63.5933 6.71791 56.3851C6.79375 56.2331 6.97886 56.173 7.12962 56.2489C7.28125 56.3251 7.34187 56.5098 7.26573 56.6613C3.90841 63.3329 2.14711 70.7552 2.13962 78.2196L4.52239 72.3947C4.57947 72.2552 4.72983 72.178 4.87701 72.2125C5.02362 72.2469 5.12353 72.3835 5.11233 72.5341C4.88523 75.5494 4.99547 78.5943 5.44021 81.5844C5.6235 82.816 6.02806 83.5094 6.64219 83.6461C6.91994 83.7075 7.1905 83.6466 7.44405 83.4638C7.92022 83.1215 8.30855 82.357 8.38855 81.6055C8.4143 81.361 8.42949 81.1093 8.44436 80.8564C8.50422 79.8487 8.56617 78.8075 9.28527 78.0504C9.37037 77.9608 9.50018 77.9312 9.61582 77.9744C9.73088 78.018 9.80935 78.1262 9.81425 78.2495C9.93867 81.2959 11.3719 84.2307 13.6784 86.2129L14.16 78.6512C14.1692 78.5051 14.2805 78.3857 14.4258 78.3664C14.5698 78.3477 14.7095 78.4329 14.7566 78.5716C15.0155 79.3325 15.2831 80.1192 15.8054 80.7133C16.2394 81.2071 17.0248 81.6291 17.7248 81.3882C18.4623 81.1343 18.8382 80.2811 19.0234 79.6101C20.0929 75.7402 18.0557 71.7052 15.9222 68.2689L15.6167 67.7782C13.4718 64.334 11.2536 60.7726 11.4915 56.7511C11.5014 56.5821 11.6434 56.4548 11.8159 56.4626C11.9851 56.4728 12.1141 56.6183 12.1042 56.7876C11.8779 60.6138 14.0435 64.0906 16.1375 67.4533L16.4435 67.9446C18.6472 71.494 20.7474 75.6755 19.6148 79.7739C19.3901 80.5872 18.9144 81.6282 17.9243 81.9687C16.9511 82.3039 15.928 81.7831 15.3446 81.1194C15.0699 80.8065 14.8578 80.4528 14.6835 80.087L14.253 86.8459C14.2455 86.959 14.1769 87.0589 14.0737 87.1058C14.0354 87.1232 13.9947 87.1325 13.954 87.1335Z" fill="#292625"/>
<path d="M64.2944 55.182C68.2222 62.1544 70.3802 70.1161 70.5127 78.1191C69.4158 75.763 68.3204 73.4066 67.2253 71.0505C67.5961 74.0755 67.6286 77.1422 67.3219 80.1744C67.2241 81.1393 66.9279 82.3013 65.9926 82.5555C64.8522 82.8657 63.9493 81.5182 63.7692 80.3492C63.5894 79.1798 63.6517 77.8332 62.7982 77.0151C62.8179 80.3359 61.2996 83.6348 58.7645 85.7777C58.4644 83.0701 58.1643 80.3627 57.8642 77.6551C57.631 78.4628 57.3863 79.2938 56.8617 79.9502C56.3369 80.6069 55.4564 81.0526 54.6499 80.8169C53.822 80.5747 53.3329 79.7227 53.0642 78.9023C51.7815 74.9843 53.6474 70.7828 55.6555 67.1831C57.6633 63.5834 59.9406 59.7526 59.5051 55.653L64.2944 55.182Z" fill="#F2591D"/>
<path d="M58.772 86.0846C58.7316 86.0855 58.6904 86.0781 58.6511 86.0625C58.5459 86.0205 58.4726 85.924 58.4602 85.8113L57.7136 79.0803C57.5567 79.4538 57.3616 79.8167 57.1016 80.1421C56.5495 80.8321 55.552 81.4005 54.5642 81.1112C53.5598 80.8177 53.0356 79.8001 52.7728 78.9979C51.45 74.9564 53.3526 70.6818 55.3878 67.0332L55.6697 66.529C57.6046 63.0718 59.6052 59.4971 59.2005 55.6854C59.1826 55.5168 59.3044 55.3654 59.4729 55.3473C59.6457 55.3308 59.7929 55.4519 59.8107 55.6203C60.2359 59.6265 58.1868 63.2882 56.205 66.8291L55.9238 67.3328C53.9531 70.8648 52.1071 74.9904 53.3562 78.8066C53.5729 79.4682 53.9883 80.3031 54.736 80.522C55.448 80.729 56.2119 80.2713 56.6222 79.758C57.1171 79.1396 57.347 78.3418 57.5697 77.57C57.61 77.4289 57.7459 77.3376 57.8905 77.3492C58.0366 77.3617 58.1531 77.4757 58.1692 77.6212L59.0043 85.1518C61.2152 83.0639 62.5098 80.0656 62.4919 77.0167C62.4908 76.8933 62.5641 76.7815 62.6773 76.7326C62.7905 76.684 62.9215 76.7075 63.0107 76.793C63.7644 77.5157 63.875 78.5529 63.982 79.5563C64.0086 79.8083 64.0353 80.059 64.0727 80.3023C64.1878 81.0495 64.6118 81.795 65.1032 82.1144C65.3656 82.2854 65.6387 82.3333 65.9124 82.259C66.52 82.0937 66.8914 81.3822 67.0169 80.1433C67.3209 77.1346 67.2889 74.088 66.921 71.0875C66.9025 70.9377 66.9959 70.7965 67.141 70.7553C67.2867 70.714 67.4399 70.7841 67.5035 70.9208L70.1576 76.6278C69.8001 69.1719 67.6934 61.8401 64.0274 55.3329C63.944 55.1852 63.9962 54.9978 64.1438 54.9146C64.2911 54.8314 64.4783 54.8831 64.5617 55.0314C68.5227 62.062 70.6849 70.0441 70.8189 78.1141C70.8194 78.2592 70.7213 78.386 70.5806 78.4182C70.4399 78.4513 70.2939 78.3798 70.2331 78.2486L67.7117 72.824C67.9032 75.2796 67.8754 77.755 67.6272 80.2053C67.4739 81.7225 66.9511 82.613 66.0735 82.8517C65.6294 82.9722 65.178 82.8958 64.7687 82.6297C64.0329 82.151 63.5844 81.1628 63.4663 80.3957C63.4275 80.1432 63.3998 79.8832 63.372 79.6214C63.3095 79.0372 63.2492 78.473 63.0685 77.9935C62.8192 81.0712 61.327 84.0138 58.9629 86.0119C58.9085 86.058 58.841 86.0827 58.772 86.0846Z" fill="#292625"/>
<path d="M53.9079 73.9609C53.6785 75.204 53.5855 76.4988 53.9003 77.723C53.9746 78.0123 54.075 78.3027 54.2646 78.5334C54.4539 78.764 54.7479 78.9267 55.0441 78.8915C55.3922 78.8504 55.6635 78.5478 55.7782 78.2166C55.8928 77.885 55.8824 77.5252 55.8777 77.1745C55.8572 75.6821 55.9619 74.188 56.1907 72.7129C56.2871 72.0919 56.3931 71.4066 56.0565 70.8761C55.939 70.6904 55.7287 70.5249 55.5164 70.5818C55.403 70.6122 55.315 70.7001 55.2368 70.7881C54.4648 71.6552 54.1184 72.8186 53.9079 73.9609Z" fill="#F79074"/>
<path d="M59.9822 62.7396C60.134 62.0474 60.2262 61.289 59.9011 60.6597C58.9703 62.9794 57.9614 65.2681 56.8768 67.5197C56.4944 68.3141 56.0934 69.143 56.1123 70.0243C56.1202 70.3847 56.3452 70.8456 56.6948 70.7591C56.8963 70.7093 57.0048 70.4961 57.0875 70.3054C57.43 69.516 57.7724 68.7266 58.1148 67.9375C58.8487 66.2457 59.5869 64.5408 59.9822 62.7396Z" fill="#F79074"/>
<path d="M14.1323 68.7717C14.3983 68.8744 14.6894 68.6081 14.7255 68.325C14.7616 68.0421 14.6268 67.7684 14.4958 67.5148C13.5976 65.7769 12.6995 64.0389 11.8013 62.3009C11.592 61.8957 11.3824 61.4903 11.2006 61.0721C10.8371 60.2356 10.5866 59.3502 10.458 58.4473C10.3859 62.0658 11.6102 65.6971 13.8584 68.5319C13.9349 68.6281 14.0178 68.7276 14.1323 68.7717Z" fill="#F79074"/>
<path d="M17.0274 79.6831C17.1812 79.8512 17.4036 79.989 17.6265 79.9422C17.8518 79.895 17.9977 79.6795 18.1006 79.4734C18.8369 77.9936 18.5442 76.2206 18.0947 74.6299C17.6807 73.1647 17.1419 71.7209 16.3186 70.4406C15.962 69.8863 15.4933 69.3268 14.8447 69.2102C14.6835 69.1811 14.5038 69.1859 14.373 69.2846C14.0963 69.4936 14.2171 69.9283 14.369 70.24C14.8804 71.2892 15.4601 72.3113 15.8319 73.4178C16.2902 74.7817 16.4186 76.2334 16.4783 77.6711C16.5079 78.3813 16.5472 79.1595 17.0274 79.6831Z" fill="#F79074"/>
<path d="M12.0954 26.7455C11.7162 27.2476 11.3949 27.7906 11.0413 28.3113C10.2788 29.4339 9.33933 30.4739 8.14041 31.1088C7.13256 31.6428 5.96418 31.8678 4.83043 31.7466C4.5213 31.7137 4.11743 31.4819 4.25877 31.2046C7.60778 29.2733 10.5804 26.6908 12.9617 23.6436C13.4658 22.9989 13.9699 22.3109 14.6989 21.9398C14.8359 22.8709 14.4383 23.8058 13.895 24.5736C13.352 25.3417 12.6619 25.9945 12.0954 26.7455Z" fill="#60827F"/>
<path d="M17.8385 19.4052C17.675 19.5526 17.4969 19.7027 17.2801 19.7399C17.0636 19.777 16.8037 19.6519 16.7755 19.4335C16.76 19.3137 16.815 19.1968 16.8699 19.0889C17.303 18.2375 17.8196 17.4287 18.4098 16.6777C18.9212 16.0274 19.6284 15.365 20.4477 15.4753C20.5471 16.2043 20.1096 16.8911 19.6531 17.4679C19.1031 18.1624 18.4955 18.8113 17.8385 19.4052Z" fill="#60827F"/>
<path d="M22.3448 70.9765C22.2352 71.0438 21.5172 70.0729 20.7412 68.8077C19.9653 67.5428 19.4249 66.4625 19.5348 66.3952C19.6444 66.3276 20.3623 67.2986 21.1383 68.5638C21.9143 69.8289 22.4543 70.9089 22.3448 70.9765Z" fill="#292625"/>
<path d="M24.3969 71.2035C24.3487 71.2419 24.1945 71.14 24.0017 70.9197C23.8137 70.6973 23.6028 70.3465 23.4595 69.9221C23.3245 69.4953 23.2872 69.0873 23.3073 68.7967C23.3325 68.5051 23.3969 68.3316 23.4584 68.3342C23.5252 68.3364 23.5783 68.5083 23.6358 68.7722C23.6986 69.0366 23.7814 69.3924 23.9021 69.7771C24.0321 70.159 24.1756 70.4949 24.2811 70.7453C24.3908 70.9918 24.4497 71.1621 24.3969 71.2035Z" fill="#292625"/>
<path d="M26.0928 73.3287C25.9641 73.3303 25.8514 72.6203 25.8407 71.7429C25.8299 70.8655 25.9258 70.153 26.0546 70.1514C26.183 70.1499 26.2961 70.8598 26.3068 71.7372C26.3172 72.6146 26.2216 73.3271 26.0928 73.3287Z" fill="#292625"/>
<path d="M31.1684 75.3421C31.132 75.3883 30.9335 75.2996 30.6748 75.0646C30.4255 74.8234 30.1491 74.4103 29.9987 73.8933C29.8652 73.3717 29.8928 72.8754 29.9846 72.5407C30.0877 72.2065 30.2135 72.0293 30.2682 72.0503C30.3337 72.0733 30.3236 72.2816 30.3106 72.5891C30.3083 72.9013 30.3349 73.3202 30.4482 73.7701C30.5796 74.215 30.77 74.5893 30.9307 74.8569C31.0984 75.1148 31.2131 75.289 31.1684 75.3421Z" fill="#292625"/>
<path d="M43.6505 73.4965C43.523 73.4787 43.5225 72.7166 43.6496 71.7944C43.7767 70.8719 43.9833 70.1386 44.1108 70.1561C44.2382 70.1737 44.2384 70.9357 44.1113 71.8582C43.9842 72.7807 43.7779 73.514 43.6505 73.4965Z" fill="#292625"/>
<path d="M47.9839 72.6816C47.8521 72.6263 48.1367 71.6759 48.3963 70.4916C48.6283 69.3017 48.7444 68.3165 48.8874 68.318C49.0017 68.3162 49.0947 69.3448 48.8527 70.5864C48.5816 71.8218 48.0881 72.7289 47.9839 72.6816Z" fill="#292625"/>
<path d="M51.3713 69.8545C51.3139 69.8186 51.4428 69.5018 51.6619 69.0086C51.8752 68.5109 52.1594 67.826 52.4208 67.0497C52.6701 66.2694 52.847 65.5492 52.9701 65.0218C53.0856 64.4946 53.1697 64.1632 53.2374 64.1683C53.2981 64.1727 53.3304 64.5164 53.2958 65.0711C53.2544 65.6243 53.1227 66.3857 52.8636 67.1951C52.5926 68.0011 52.2478 68.692 51.9534 69.1621C51.6525 69.6295 51.4229 69.8871 51.3713 69.8545Z" fill="#292625"/>
<path d="M50.5442 59.4695C50.5725 59.5182 50.2877 59.7621 49.7333 59.9924C49.4574 60.1096 49.1124 60.2084 48.7208 60.2782C48.3284 60.3403 47.8891 60.3685 47.4304 60.3365C46.9719 60.2992 46.5419 60.2053 46.1631 60.0847C45.7865 59.9568 45.4605 59.8069 45.2053 59.6496C44.6916 59.3383 44.4468 59.0545 44.4821 59.0106C44.5253 58.9532 44.8347 59.1367 45.3541 59.3551C45.6125 59.467 45.9292 59.5752 46.2848 59.6726C46.6429 59.7622 47.0416 59.8367 47.4654 59.8715C47.8897 59.9006 48.295 59.8874 48.6623 59.8525C49.0289 59.8098 49.3581 59.7504 49.6304 59.679C50.1766 59.5411 50.5101 59.4061 50.5442 59.4695Z" fill="#292625"/>
<path d="M49.1935 63.5428C49.2038 63.6029 49.0381 63.6895 48.7458 63.7463C48.4539 63.7965 48.0352 63.7927 47.5936 63.6767C47.1553 63.5503 46.7935 63.3389 46.5684 63.1468C46.3464 62.9482 46.2482 62.7887 46.2878 62.7424C46.3314 62.6908 46.5004 62.7559 46.7449 62.8681C46.9946 62.9755 47.3313 63.1147 47.7174 63.2271C48.1066 63.3284 48.467 63.3812 48.7364 63.4168C49.0038 63.4455 49.1827 63.476 49.1935 63.5428Z" fill="#292625"/>
<path d="M23.1326 59.603C23.1474 59.6541 22.6663 59.863 21.8305 59.9635C21.6221 59.9872 21.3924 60.0087 21.1452 60.0058C20.8972 60.0168 20.6336 59.9941 20.3557 59.9752C19.802 59.9165 19.1973 59.7974 18.5862 59.5927C17.9778 59.3803 17.4267 59.1037 16.953 58.8108C16.7216 58.6552 16.4994 58.5119 16.3103 58.3513C16.1128 58.2019 15.9445 58.0443 15.7941 57.8978C15.1947 57.3062 14.942 56.8463 14.9849 56.8149C15.0435 56.7679 15.3842 57.1471 16.0121 57.6503C16.1697 57.7752 16.3421 57.9113 16.54 58.0405C16.7298 58.1805 16.9493 58.3046 17.1745 58.4426C17.6362 58.7006 18.1614 58.9501 18.7369 59.151C19.3151 59.3447 19.8831 59.4695 20.4058 59.5483C20.6683 59.5772 20.9178 59.6138 21.1535 59.619C21.389 59.6383 21.6084 59.6364 21.8096 59.6343C22.6139 59.6212 23.115 59.53 23.1326 59.603Z" fill="#292625"/>
<path d="M21.1404 61.588C21.1522 61.647 20.8653 61.7606 20.3769 61.8535C19.8886 61.9378 19.1962 61.9731 18.441 61.8769C17.6874 61.7665 17.0298 61.5467 16.5822 61.3343C16.1367 61.1136 15.8907 60.9269 15.918 60.8731C15.9481 60.8117 16.2415 60.8909 16.698 61.0253C17.1583 61.1521 17.7914 61.3098 18.5041 61.4148C19.2185 61.5053 19.8709 61.5235 20.3481 61.5251C20.8238 61.518 21.1279 61.5207 21.1404 61.588Z" fill="#292625"/>
</g>
<defs>
<clipPath id="clip0_5605_48583">
<rect y="0.294922" width="72" height="72" rx="36" fill="white"/>
</clipPath>
</defs>
</svg>
