<svg width="72" height="73" viewBox="0 0 72 73" fill="none" xmlns="http://www.w3.org/2000/svg">
<g clip-path="url(#clip0_5605_48584)">
<path d="M4.97219 61.3326C3.08415 62.8549 1.61701 64.8978 0.776613 67.1761C0.441033 68.0888 0.201624 69.0364 0.027832 69.993C0.698197 69.88 0.971335 69.0934 1.28694 68.4912C1.60267 67.8947 2.06781 67.3954 2.48868 66.8669C3.75636 65.2661 4.61876 63.3453 4.97219 61.3326Z" fill="#F2CC46"/>
<path d="M18.647 23.495C19.7064 28.2465 19.7195 33.2323 18.6536 37.9826C18.2639 39.7264 17.7562 41.6672 18.6641 43.2059C19.5125 44.6451 21.288 45.1836 22.8904 45.6601C32.9714 48.663 42.5973 53.8732 53.1066 54.3385C53.0946 47.3054 55.2735 40.2841 59.2633 34.4956C60.6732 32.4497 62.3835 30.3204 62.2899 27.8363C62.2191 25.972 61.1202 24.3083 59.9046 22.8938C55.8962 18.226 50.2464 15.1372 44.2923 13.6001C38.3354 12.0629 32.0753 12.0049 25.9669 12.7216C23.0105 13.0687 19.6272 13.9191 18.3827 16.6268C17.4079 18.7498 18.1386 21.2144 18.647 23.495Z" fill="#B69547"/>
<path d="M31.9121 12.5834C30.0222 12.6277 28.0338 12.771 26.0013 13.0095C23.4443 13.3099 19.8971 14.0242 18.6475 16.7482C17.81 18.5699 18.2984 20.6919 18.7715 22.7439C18.8259 22.9747 18.8776 23.2045 18.9293 23.4321C20.0008 28.2362 20.0019 33.2899 18.9361 38.0462L18.8771 38.3181C18.4991 39.9801 18.1115 41.6986 18.9145 43.0584C19.7118 44.4112 21.4432 44.9276 22.9715 45.3824C26.1983 46.3432 29.4253 47.547 32.5451 48.7107C39.0706 51.1455 45.8161 53.6619 52.8192 54.0342C52.8684 47.0581 55.0673 40.0725 59.0255 34.3314C59.1731 34.1164 59.326 33.9003 59.479 33.6832C60.7578 31.8596 62.0815 29.9736 62.0018 27.8472C61.9264 25.907 60.6439 24.1987 59.6859 23.0826C55.9801 18.7666 50.4868 15.4987 44.2202 13.8809C40.4838 12.9163 36.3429 12.4797 31.9121 12.5834ZM53.3974 54.6416L53.0946 54.6282C45.8911 54.3095 39.0028 51.7392 32.3426 49.2538C29.231 48.0934 26.015 46.8932 22.8074 45.9382C21.1776 45.4525 19.3282 44.9021 18.4146 43.3534C17.4953 41.7951 17.93 39.88 18.3101 38.1904L18.3719 37.9195C19.4205 33.2457 19.416 28.2797 18.3627 23.5582C18.3138 23.3319 18.2622 23.1038 18.2078 22.8744C17.7134 20.7274 17.2009 18.5072 18.1214 16.506C19.4928 13.5171 23.2378 12.7505 25.9333 12.4337C27.9848 12.1932 29.9923 12.0486 31.8986 12.004C36.3811 11.8991 40.5766 12.3416 44.3651 13.3198C50.7441 14.9667 56.3424 18.2997 60.1267 22.7049C61.1407 23.8868 62.4993 25.7038 62.5789 27.8253C62.6659 30.1468 61.2869 32.114 59.9527 34.0163C59.7997 34.2323 59.6494 34.4469 59.5019 34.6606C55.5515 40.3893 53.3827 47.3776 53.3958 54.3384L53.3974 54.6416Z" fill="#292625"/>
<path d="M20.1233 21.4723C20.0434 22.9485 20.7989 24.3778 21.8637 25.4023C22.9285 26.4268 24.2794 27.0999 25.6389 27.6737C35.1906 31.6994 46.0141 31.5014 55.8377 34.7988C57.1311 33.9477 58.517 32.9747 58.9481 31.4864C59.253 30.4242 58.9995 29.2585 58.4673 28.2906C57.9324 27.3227 57.1399 26.5247 56.3162 25.7875C52.7121 22.5583 48.3393 20.2469 43.7378 18.7595C39.1336 17.2718 34.2948 16.5901 29.4621 16.401C27.4904 16.3239 25.4553 16.3388 23.631 17.0917C21.8067 17.8445 20.227 19.5003 20.1233 21.4723Z" fill="#947535"/>
<path d="M20.2558 32.134C19.549 30.2244 18.8292 28.2261 19.0625 26.2028C19.1416 25.5061 19.3432 24.8087 19.7523 24.2395C20.3407 23.4215 21.2889 22.9523 22.2257 22.5808C29.126 19.8408 36.9271 20.7823 44.1199 22.622C45.644 23.0126 47.1745 23.4458 48.5808 24.1555C49.8436 24.793 50.9861 25.6422 52.1071 26.5048C53.6414 27.683 55.1942 28.95 56.063 30.6777C56.9373 32.4122 57.0265 34.4762 56.5584 36.361C56.0875 38.2458 55.0978 39.9666 53.9104 41.5026C52.1992 43.7134 50.0042 45.6236 47.3809 46.5817C43.2527 48.0885 38.6407 47.0827 34.5232 45.5518C29.5564 43.7053 24.6294 40.8813 22.0335 36.2573C21.2999 34.9507 20.7764 33.5389 20.2558 32.134Z" fill="#2E2227"/>
<path d="M31.9584 19.571C32.3831 18.8605 33.3076 18.6613 34.1314 18.5828C37.6194 18.2503 41.1928 18.8834 44.3561 20.3938C45.0367 20.7193 45.7355 21.1191 46.0997 21.782C46.5438 22.5936 46.3764 23.5902 46.1823 24.4944C45.5921 27.2198 44.8349 29.9058 44.0775 32.5896C41.7606 32.3198 39.8138 30.7482 37.5927 30.0319C36.1623 29.5699 34.6451 29.4726 33.1482 29.3118C32.6947 29.263 32.2136 29.1968 31.8607 28.9053C31.2994 28.4396 31.2771 27.5996 31.3063 26.8699C31.3871 24.8502 31.5061 22.8321 31.6633 20.8169C31.6995 20.3873 31.7381 19.9411 31.9584 19.571Z" fill="#F3ED99"/>
<path d="M35.5069 18.7919C35.0576 18.8024 34.6032 18.8289 34.1573 18.8715C33.5021 18.934 32.5848 19.0899 32.2072 19.7197C32.0158 20.0419 31.9822 20.4659 31.9528 20.84C31.7952 22.8405 31.6766 24.8731 31.5955 26.8816C31.566 27.5993 31.6018 28.3138 32.0464 28.6822C32.327 28.9153 32.7427 28.9768 33.1797 29.0241C33.401 29.0478 33.6249 29.0701 33.8461 29.0925C35.1189 29.2211 36.4353 29.3537 37.6818 29.7562C38.5933 30.0496 39.459 30.4848 40.2999 30.9058C41.4937 31.5046 42.6242 32.0724 43.8685 32.2682C44.5879 29.7108 45.3272 27.071 45.8976 24.4334C46.0869 23.5581 46.2399 22.6434 45.8443 21.9215C45.5226 21.3318 44.8791 20.9645 44.2316 20.6554C41.5312 19.366 38.5134 18.7215 35.5069 18.7919ZM44.2894 32.9061L44.0435 32.8775C42.6037 32.7099 41.2996 32.0562 40.0395 31.4241C39.2207 31.0126 38.3742 30.5879 37.5067 30.3079C36.3151 29.9243 35.0315 29.7945 33.7888 29.6695C33.5649 29.6467 33.3409 29.6244 33.1196 29.6001C32.5897 29.5432 32.0838 29.4643 31.6781 29.1288C31.039 28.5997 30.9831 27.7247 31.0174 26.8583C31.0983 24.8427 31.2194 22.8021 31.3768 20.7943C31.4079 20.3785 31.4503 19.8612 31.7125 19.4223C32.2211 18.5669 33.32 18.3688 34.103 18.2943C34.5624 18.2506 35.0304 18.2232 35.4934 18.2124C38.5897 18.1399 41.6978 18.8038 44.4809 20.1323C45.2166 20.4835 45.9514 20.9094 46.3528 21.6432C46.8424 22.5404 46.6687 23.6171 46.4645 24.5559C45.872 27.295 45.1021 30.0265 44.3574 32.6683L44.2894 32.9061Z" fill="#292625"/>
<path d="M34.4789 20.5195C35.9959 19.9086 37.6772 19.6816 39.2961 19.932C40.9123 20.1822 42.4635 20.9171 43.6374 22.0588C43.721 22.1411 43.8076 22.2318 43.8348 22.347C43.859 22.4482 43.8342 22.5541 43.8093 22.6553C43.3139 24.6533 42.8211 26.651 42.3257 28.6488C41.6931 28.3955 41.0121 28.2882 40.3366 28.1824C38.1515 27.8397 35.9637 27.4971 33.7786 27.1545C33.659 25.1888 33.7 23.2139 33.8994 21.2547C33.9124 21.1145 33.9281 20.9693 34.0016 20.849C34.1039 20.6811 34.2953 20.5928 34.4789 20.5195Z" fill="#2E2227"/>
<path d="M63.989 39.9855C65.3613 42.8526 65.3697 46.2393 64.9129 49.4257C64.2881 53.8136 62.7798 58.1733 59.9811 61.5343C54.5163 68.0961 45.0592 69.6314 37.0098 67.6307C28.9632 65.6299 21.9409 60.7136 15.0219 56.0174C11.4945 53.622 7.84294 51.1603 5.50412 47.5089C2.0594 42.1257 2.24093 34.3978 6.11802 29.2657C9.25249 25.118 14.3427 22.9246 19.3719 22.5432C24.401 22.162 29.4057 23.4153 34.1542 25.1291C38.8999 26.8428 43.4849 29.0239 48.2765 30.6012C51.2448 31.5787 54.3004 32.3269 57.1276 33.6792C59.9576 35.0313 62.6023 37.083 63.989 39.9855Z" fill="#D1B86C"/>
<path d="M20.6331 22.7712C20.2165 22.781 19.8001 22.8017 19.3948 22.8324C13.9659 23.2436 9.21307 25.6522 6.35084 29.4407C2.5635 34.4494 2.31202 41.9822 5.74826 47.3525C8.03619 50.9253 11.6272 53.3633 15.102 55.7211L16.0101 56.3383C22.5943 60.8133 29.4027 65.4409 37.0794 67.3494C39.4501 67.9384 41.8787 68.2085 44.2969 68.1519C50.7401 68.0011 56.2312 65.5851 59.7587 61.3491C62.2553 58.3535 63.9377 54.2166 64.6257 49.3849C65.1736 45.553 64.8792 42.5193 63.7275 40.111C62.2147 36.9447 59.2348 35.0081 57.0028 33.9408C54.9747 32.9699 52.7792 32.2992 50.6551 31.6507C49.8427 31.4028 49.0057 31.1466 48.1847 30.8768C45.4772 29.9851 42.7948 28.8847 40.2005 27.8208C38.1949 26.9986 36.1233 26.1482 34.0541 25.4019C28.8302 23.5154 24.5655 22.6792 20.6331 22.7712ZM44.3105 68.7314C41.8405 68.7892 39.36 68.5135 36.94 67.912C29.1619 65.9783 22.3092 61.3215 15.6835 56.8178L14.7753 56.2009C11.2535 53.8103 7.61261 51.3383 5.26239 47.6655C1.69891 42.0977 1.96023 34.2859 5.88762 29.091C8.85029 25.1701 13.7592 22.6782 19.3486 22.2545C19.7675 22.2229 20.1947 22.2017 20.6196 22.1918C24.6255 22.098 28.9558 22.9449 34.2512 24.8565C36.3313 25.6072 38.4085 26.4599 40.4196 27.2844C43.0029 28.3445 45.677 29.4407 48.3653 30.326C49.1808 30.5941 50.0151 30.8495 50.8247 31.0962C52.968 31.751 55.1854 32.4283 57.2549 33.4178C59.5696 34.5252 62.6631 36.542 64.2502 39.8606C65.4535 42.3755 65.7641 45.5179 65.1998 49.4669C64.4952 54.4051 62.7688 58.642 60.2033 61.7202C56.5672 66.0867 50.9225 68.5767 44.3105 68.7314Z" fill="#292625"/>
<path d="M58.882 61.8569C58.691 62.076 58.4946 62.3018 58.2304 62.4203C57.9661 62.5388 57.6169 62.5178 57.4318 62.2936C57.1541 61.9535 57.4176 61.4546 57.6708 61.0966C58.7577 59.5701 59.7227 57.9592 60.5581 56.2826C60.9354 55.526 61.2852 54.7548 61.5581 53.9543C61.8767 53.0168 62.0856 52.0457 62.2644 51.0718C62.6827 48.8017 62.9422 46.5029 63.0436 44.1969C63.4275 44.1866 63.6822 44.5905 63.8052 44.9547C64.2648 46.3152 64.0543 47.8012 63.8122 49.2165C63.5126 50.9681 63.1666 52.7126 62.7684 54.4441C62.568 55.3103 62.3566 56.1737 62.0986 57.0244C61.8962 57.6924 61.6638 58.3583 61.2935 58.9509C61.0335 59.3668 60.7126 59.7395 60.3915 60.11C59.8875 60.6923 59.3861 61.2746 58.882 61.8569Z" fill="#B69547"/>
<path d="M61.4851 40.4526C62.7428 43.0821 62.7501 46.1884 62.3335 49.1108C61.7574 53.1354 60.3769 57.134 57.8088 60.2169C52.7944 66.2353 44.1218 67.6434 36.7412 65.8084C29.3578 63.9732 22.9172 59.464 16.5713 55.1569C13.3347 52.9599 9.98759 50.7021 7.84386 47.3529C4.68476 42.4154 4.84858 35.3275 8.40591 30.6204C11.2814 26.8161 15.9481 24.8044 20.5611 24.4548C25.1741 24.1052 29.7649 25.2545 34.1204 26.8265C38.4732 28.3982 42.678 30.3989 47.0714 31.8454C49.7953 32.7419 52.5988 33.4281 55.1918 34.6683C57.7848 35.9087 60.2103 37.7904 61.4851 40.4526Z" fill="#2E2227"/>
<path d="M55.0262 59.3839C54.8252 57.8979 54.6211 56.3957 54.7715 54.904C54.9244 53.4037 55.4302 51.9637 55.7143 50.4824C56.9966 43.8009 53.1306 36.4839 46.8905 33.7844L48.5778 35.6807C46.6317 33.9067 43.4789 33.7765 40.7376 33.8867C39.2078 33.9482 37.6189 34.0491 36.1256 34.3925C34.7606 33.6991 33.2426 33.2175 31.7721 32.7886C29.1383 32.0195 26.0472 31.3853 23.7333 32.6372L25.8278 31.2041C19.121 32.3178 13.606 38.4853 13.2392 45.2791C13.1572 46.785 13.3018 48.3047 13.0888 49.7977C12.8756 51.2819 12.3173 52.691 11.7641 54.0844C9.24776 60.4283 6.72492 66.9599 6.64761 73.7853C6.57302 80.6107 9.46552 87.8951 15.4521 91.167C19.5287 93.3965 24.4762 93.486 29.0247 92.4769C33.1986 94.5544 38.02 95.6617 42.5155 94.4825C49.1124 92.7518 53.6744 86.3808 55.2437 79.7383C56.8157 73.0961 55.9392 66.1479 55.0262 59.3839Z" fill="#F2591D"/>
<path d="M29.0177 92.187C29.0667 92.1859 29.1106 92.1963 29.1547 92.2174C32.5236 93.8943 35.9466 94.7425 39.0538 94.67C40.2221 94.6427 41.3628 94.4851 42.4406 94.2021C48.3254 92.6586 53.2408 86.9548 54.9613 79.6717C56.5605 72.9089 55.5918 65.7439 54.7381 59.4227C54.5372 57.9373 54.3295 56.4013 54.4845 54.8746C54.5797 53.9331 54.8142 53.0094 55.0385 52.1164C55.1782 51.5634 55.3228 50.9919 55.4295 50.4276C56.5903 44.3776 53.4248 37.769 48.1083 34.7199L48.7939 35.4879C48.8947 35.6033 48.8906 35.7782 48.7814 35.8869C48.6695 35.995 48.4952 35.9989 48.3811 35.8949C46.577 34.2504 43.6907 34.1017 41.3759 34.1558C41.1635 34.1608 40.9566 34.1676 40.747 34.176C39.0102 34.2461 37.5687 34.3576 36.1893 34.6748C36.1242 34.69 36.0559 34.6818 35.9953 34.651C34.7323 34.01 33.362 33.5541 31.6912 33.0669C30.2674 32.6513 28.4117 32.1793 26.6715 32.2201C25.574 32.2458 24.6582 32.4657 23.8699 32.8924C23.7353 32.9651 23.5653 32.9197 23.486 32.7882C23.4039 32.6563 23.4407 32.4849 23.5695 32.3979L24.4169 31.8177C18.5244 33.4934 13.8583 39.1428 13.5282 45.2946C13.498 45.8682 13.4982 46.4578 13.5006 47.0278C13.5058 47.9491 13.5091 48.9017 13.3757 49.8386C13.1578 51.358 12.5867 52.7983 12.0334 54.1911C9.68177 60.1196 7.0162 66.839 6.93907 73.7885C6.85537 81.2727 10.2524 87.9941 15.5903 90.9127C18.0165 92.24 20.8923 92.8744 24.1357 92.7984C25.6934 92.762 27.318 92.5587 28.9634 92.1938C28.9824 92.1898 28.9987 92.1875 29.0177 92.187ZM39.0674 95.2495C35.8948 95.3235 32.4117 94.4704 28.988 92.782C27.3398 93.1407 25.7124 93.3413 24.1492 93.3779C20.8024 93.4562 17.8306 92.7979 15.3107 91.4213C9.78782 88.4018 6.27433 81.4777 6.35852 73.7819C6.43586 66.725 9.12472 59.9524 11.4944 53.9774C12.0347 52.6156 12.593 51.2076 12.8016 49.7563C12.9305 48.8617 12.925 47.9306 12.923 47.0301C12.9204 46.4517 12.9173 45.854 12.9498 45.2634C13.3221 38.3522 18.9565 32.051 25.78 30.918C25.9103 30.8961 26.0428 30.9697 26.0948 31.0961C26.1441 31.2223 26.1011 31.3665 25.9885 31.4435L25.5594 31.7375C25.9096 31.6818 26.2767 31.6495 26.6579 31.6406C28.4771 31.598 30.3903 32.0829 31.8553 32.5103C33.2929 32.9302 34.8082 33.4115 36.1619 34.087C37.6419 33.7589 39.2281 33.6574 40.7253 33.597C40.9349 33.5883 41.1472 33.5814 41.3624 33.5764C43.1406 33.5347 45.2459 33.6117 47.0155 34.3612L46.6741 33.977C46.5818 33.8755 46.5755 33.7249 46.6547 33.6145C46.7339 33.5044 46.8801 33.4647 47.004 33.5182C53.3515 36.2645 57.3029 43.7399 55.9988 50.537C55.8871 51.1178 55.7426 51.6974 55.6004 52.2582C55.3783 53.1312 55.1515 54.034 55.0608 54.9331C54.9124 56.3918 55.1165 57.8929 55.3112 59.3449C56.1742 65.7161 57.1498 72.9376 55.5258 79.805C53.7556 87.2943 48.6751 93.1653 42.5873 94.7627C41.4661 95.0573 40.282 95.2211 39.0674 95.2495Z" fill="#292625"/>
<path d="M32.6319 39.84C32.7804 37.1064 30.3296 34.8416 27.7268 33.9971C25.124 33.1526 22.3183 33.3034 19.6093 32.9269C16.9002 32.5504 14.0157 31.4278 12.7734 28.9888C12.1278 29.9265 12.1429 31.2717 12.813 32.1931C12.3981 32.1616 12.0055 31.9223 11.7875 31.5688C11.5176 32.2618 11.6762 33.1019 12.1795 33.6484C11.8235 33.5735 11.4702 33.4989 11.1143 33.4243C10.3783 35.1588 11.8778 37.4091 13.7603 37.3958C13.2962 37.8242 13.125 38.5427 13.346 39.1351C16.6666 38.4026 19.9783 37.6327 23.2836 36.8252L32.6319 39.84Z" fill="#F7A80E"/>
<path d="M32.6393 40.1301C32.6311 40.1303 32.6229 40.13 32.6147 40.1296C32.4565 40.1208 32.3334 39.984 32.3433 39.824C32.4842 37.2283 30.0849 35.0664 27.6385 34.2725C25.9692 33.7313 24.1679 33.6038 22.4239 33.4804C21.485 33.4143 20.5162 33.3456 19.5703 33.214C17.6814 32.9519 14.3898 32.1331 12.7798 29.5838C12.4549 30.3705 12.5455 31.3314 13.0467 32.0227C13.1142 32.1141 13.1198 32.2359 13.0648 32.3345C13.0099 32.4332 12.9023 32.4913 12.7904 32.4822C12.4874 32.459 12.1959 32.3453 11.9519 32.165C11.9246 32.6296 12.0804 33.113 12.3935 33.4517C12.4801 33.5444 12.4942 33.6817 12.4314 33.7912C12.3713 33.9006 12.2445 33.9576 12.1213 33.9318L11.3026 33.7595C11.1005 34.4379 11.2442 35.2229 11.6961 35.905C12.2016 36.6628 12.975 37.1119 13.7596 37.1063C13.8795 37.1052 13.9875 37.1782 14.0309 37.2895C14.0744 37.4009 14.0474 37.528 13.9594 37.6092C13.6447 37.8991 13.4921 38.3665 13.5566 38.7921C16.7633 38.0827 20.0099 37.3269 23.2149 36.5439C23.3694 36.507 23.5269 36.6012 23.5632 36.7566C23.6023 36.912 23.5079 37.0688 23.3507 37.1069C20.0536 37.9133 16.7067 38.6908 13.4077 39.4182C13.2695 39.4495 13.126 39.3719 13.0765 39.2367C12.8818 38.7149 12.9413 38.1144 13.2134 37.6316C12.4358 37.4733 11.7129 36.9734 11.2159 36.2266C10.6031 35.3058 10.4659 34.216 10.848 33.3112C10.9022 33.1834 11.0395 33.1128 11.1737 33.1405L11.5652 33.2227C11.3262 32.6719 11.2975 32.0279 11.5186 31.4642C11.5571 31.3619 11.6508 31.2907 11.7623 31.2804C11.8738 31.2696 11.9758 31.3234 12.0352 31.4167C12.0777 31.4863 12.1283 31.55 12.1868 31.607C11.8712 30.6932 11.9851 29.6234 12.5359 28.8242C12.5938 28.7403 12.6908 28.6927 12.7918 28.6996C12.8928 28.7065 12.9841 28.7663 13.0298 28.8572C14.3977 31.5381 17.7633 32.3778 19.6495 32.6402C20.5762 32.7688 21.5369 32.8366 22.4649 32.9024C24.2416 33.028 26.0811 33.1581 27.8164 33.7216C30.4741 34.5836 33.0803 36.9678 32.919 39.8563C32.9116 40.0084 32.7891 40.1266 32.6393 40.1301Z" fill="#292625"/>
<path d="M14.1082 34.1094C14.3372 34.8123 14.9256 35.3878 15.6309 35.6034C15.4918 35.8292 15.1579 35.7691 14.8979 35.7182C14.6406 35.6672 14.2665 35.7482 14.2781 36.0128C14.284 36.1501 14.4036 36.2534 14.5171 36.3306C14.9712 36.6382 15.5147 36.8112 16.0627 36.8227C15.7473 36.8533 15.4552 37.0619 15.3257 37.3499C17.4219 37.7364 19.5527 37.0391 21.5662 36.3374C23.5797 35.6358 25.6907 34.9093 27.7992 35.2365C26.5215 34.6643 25.1199 34.3837 23.719 34.3674C21.852 34.3457 20.0067 34.7843 18.1377 34.7901C16.77 34.7943 15.3995 34.5629 14.1082 34.1094Z" fill="#F2CC46"/>
<path d="M38.9526 40.6146C39.4645 37.9251 42.3888 36.3191 45.1199 36.1276C47.8483 35.9361 50.5351 36.7601 53.2557 37.0488C55.9764 37.3377 59.0434 36.9441 60.8397 34.8772C61.2406 35.9428 60.9005 37.2446 60.0294 37.9773C60.437 38.0465 60.8779 37.9091 61.1736 37.6191C61.2671 38.3566 60.912 39.1334 60.2922 39.542C60.6549 39.5553 61.0176 39.5686 61.3803 39.5819C61.6745 41.4432 59.6763 43.2648 57.8534 42.7974C58.2009 43.3252 58.1964 44.0638 57.838 44.5855C54.7918 43.0731 51.7638 41.5262 48.7514 39.9454L38.9526 40.6146Z" fill="#F7A80E"/>
<path d="M57.8449 44.8754C57.7986 44.8765 57.7521 44.8667 57.7107 44.8453C54.67 43.3364 51.6117 41.7741 48.6158 40.2019C48.4751 40.1275 48.422 39.9526 48.495 39.8107C48.568 39.6691 48.7438 39.6142 48.8872 39.6886C51.7948 41.2159 54.7649 42.7336 57.7175 44.2024C57.8825 43.8044 57.8465 43.3144 57.612 42.9569C57.547 42.8569 57.5494 42.7268 57.618 42.6292C57.6865 42.5319 57.8081 42.4873 57.926 42.5167C58.6853 42.7122 59.5432 42.462 60.2182 41.8487C60.8211 41.2965 61.1474 40.5689 61.1172 39.8627L60.28 39.8318C60.1545 39.8271 60.0462 39.7413 60.0134 39.6202C59.9779 39.4988 60.0267 39.3692 60.1313 39.3C60.5177 39.0469 60.7856 38.6157 60.8702 38.1577C60.5923 38.2736 60.2799 38.3136 59.979 38.2634C59.8695 38.2444 59.7777 38.1629 59.7479 38.0539C59.7181 37.9447 59.7563 37.8282 59.8418 37.7558C60.4964 37.2057 60.8157 36.295 60.6897 35.4528C58.5124 37.5385 55.1202 37.5388 53.2245 37.3369C52.2739 37.2362 51.3163 37.0688 50.3915 36.9066C48.6679 36.6055 46.8868 36.2951 45.1404 36.4167C42.5752 36.5967 39.7225 38.1149 39.2373 40.669C39.2083 40.826 39.0554 40.9307 38.8994 40.8992C38.7406 40.8694 38.639 40.7177 38.668 40.5602C39.2091 37.7186 42.3113 36.034 45.0996 35.8387C46.9195 35.711 48.7334 36.0283 50.4899 36.3357C51.4065 36.4961 52.3558 36.6618 53.2873 36.7608C55.1775 36.9615 58.6487 36.9596 60.62 34.687C60.6864 34.6099 60.7891 34.5748 60.8903 34.5918C60.9915 34.6099 61.0749 34.6796 61.1098 34.7748C61.4526 35.6831 61.3059 36.7488 60.7772 37.5594C60.8471 37.5182 60.914 37.4689 60.9726 37.4116C61.0499 37.3351 61.1664 37.3089 61.2681 37.3456C61.3725 37.3813 61.4482 37.4731 61.4616 37.5821C61.5383 38.1822 61.3566 38.8009 60.9918 39.2777L61.39 39.2923C61.529 39.2975 61.6431 39.3999 61.6654 39.5365C61.8216 40.507 61.4233 41.5316 60.6069 42.277C59.9426 42.8816 59.1243 43.1928 58.3306 43.1588C58.4766 43.6923 58.3925 44.2899 58.0763 44.7495C58.0237 44.8287 57.9348 44.8733 57.8449 44.8754Z" fill="#292625"/>
<path d="M44.7269 37.738C46.7556 36.9855 49.004 37.3548 51.1401 37.7013C53.2762 38.0479 55.5529 38.3456 57.5324 37.4718C57.8048 37.352 58.0794 37.2081 58.3763 37.2058C58.6732 37.2035 58.9967 37.4032 59.0118 37.6998C59.0218 37.8938 58.9006 38.0687 58.7705 38.2146C58.3698 38.6729 57.8411 39.0191 57.2596 39.2048C57.4946 39.3479 57.7922 39.2572 58.061 39.2163C58.3325 39.1756 58.6829 39.2467 58.741 39.5143C58.7897 39.7335 58.6008 39.9288 58.4213 40.0615C57.9177 40.4302 57.3296 40.6807 56.7163 40.7864C57.0816 40.6781 57.5873 40.6302 57.7344 40.981C57.8152 41.1736 57.7253 41.4053 57.5733 41.5466C57.4186 41.6877 57.2131 41.7563 57.01 41.8101C54.879 42.3812 52.6021 41.7276 50.6151 40.7648C48.628 39.8017 46.7889 38.5267 44.7269 37.738Z" fill="#F2CC46"/>
<path d="M55.0704 74.3175C54.8394 73.4134 54.1013 72.726 53.182 72.5672C53.1797 72.5814 53.9611 72.4396 54.0529 72.4061C54.3906 72.2828 54.6965 72.0793 54.9465 71.8187C55.396 71.3476 55.6235 70.7063 55.6219 70.0587C55.6172 68.8095 54.6489 67.7178 53.3907 67.6278C53.3906 67.6218 53.3931 67.6155 53.393 67.6095C54.7419 67.501 55.6585 66.2638 55.4913 64.9407C55.4174 64.3443 55.1593 63.7959 54.7111 63.3889C54.455 63.1563 54.1459 62.9884 53.814 62.8961C53.7098 62.8672 52.8089 62.795 52.8151 62.8249C54.097 62.4122 54.7259 60.9947 54.2525 59.7444C53.782 58.4999 52.4467 57.7962 51.1727 58.3136C51.1785 58.3252 51.76 57.7923 51.8208 57.7143C52.0192 57.4565 52.1539 57.1597 52.2282 56.8432C52.3741 56.2052 52.2298 55.5145 51.8684 54.9724C51.1314 53.8674 49.6728 53.4818 48.5494 54.2622C48.5522 54.2656 48.9797 53.6712 49.0213 53.5871C49.1722 53.2803 49.2488 52.9452 49.2517 52.6037C49.2555 51.9535 48.9711 51.3261 48.5109 50.8713C47.5678 49.9252 46.0299 49.8781 45.1024 50.8761C45.1107 50.8827 45.4098 50.1568 45.4293 50.0604C45.5057 49.7163 45.4946 49.3593 45.4076 49.0186C45.2547 48.4194 44.8557 47.9046 44.3358 47.5756C43.2099 46.8539 41.6989 47.1394 41.0097 48.3104C41.0124 48.3117 41.1483 47.5957 41.1515 47.5015C41.1599 47.1621 41.0867 46.8297 40.9487 46.5204C40.6958 45.9593 40.2143 45.525 39.6503 45.293C38.3765 44.7698 36.8915 45.3535 36.4597 46.6936C36.4679 46.6956 36.4305 45.9133 36.4092 45.8164C36.3391 45.5012 36.1988 45.2085 36.002 44.9527C35.603 44.436 34.9874 44.0918 34.3373 44.0262C33.6764 43.9602 33.0261 44.1131 32.5018 44.532C32.2504 44.7332 32.0438 44.9878 31.9034 45.2772C31.8592 45.3663 31.637 46.1168 31.6479 46.1168C31.5451 44.7524 30.3338 43.8718 29.0122 43.9829C28.3976 44.0344 27.8079 44.3337 27.4018 44.7964C27.1789 45.0523 27.0143 45.3512 26.9239 45.6798C26.8963 45.7808 26.8286 46.6158 26.8449 46.6124C26.4492 45.3074 25.0782 44.7041 23.8096 45.1009C23.1902 45.2948 22.6612 45.7449 22.3696 46.3252C22.2316 46.6012 22.1514 46.8998 22.1369 47.2083C22.1311 47.3121 22.2432 48.1439 22.2594 48.1367C21.5939 46.945 20.1211 46.6509 18.9704 47.3102C18.4085 47.6332 17.9854 48.186 17.8258 48.8159C17.7511 49.1155 17.7365 49.4251 17.79 49.7298C17.806 49.8323 18.0969 50.6221 18.1103 50.6114C17.2035 49.5867 15.7003 49.62 14.7185 50.5151C13.7341 51.4141 13.6697 52.9698 14.6209 53.913C14.6235 53.9083 13.9622 53.5946 13.8717 53.5689C13.5371 53.4737 13.1797 53.4547 12.8407 53.5227C12.1871 53.6525 11.6513 54.0458 11.2744 54.5891C10.5154 55.6893 10.8047 57.2223 11.9492 57.9236C11.9622 57.8969 11.0678 57.7528 10.9589 57.7562C10.6131 57.767 10.2746 57.8567 9.97059 58.0228C9.44062 58.3134 9.06203 58.7859 8.84626 59.3462C8.5971 59.9929 8.62265 60.7352 8.95308 61.3487C9.09562 61.6181 9.29467 61.8567 9.53344 62.0466C9.60565 62.1049 10.2517 62.4651 10.2542 62.4571C9.08875 62.2561 7.93672 62.9768 7.56505 64.0939C7.11454 65.4513 7.85836 66.9644 9.28544 67.2845C9.28782 67.2697 8.50281 67.3737 8.40812 67.4023C8.09975 67.4985 7.80926 67.6596 7.56358 67.8729C7.0722 68.2992 6.79252 68.9229 6.74762 69.5659C6.70223 70.1877 6.86908 70.7971 7.25667 71.2918C7.45613 71.5481 7.71438 71.7558 8.00391 71.9026C8.09767 71.9503 8.97283 72.2053 8.96928 72.1699C7.58248 72.2905 6.72063 73.5357 6.87469 74.8795C6.94364 75.497 7.27908 76.091 7.76487 76.4737C8.04246 76.6922 8.35933 76.8438 8.70686 76.9074C8.80264 76.9251 9.69374 76.929 9.68192 76.8895C8.3143 77.3638 7.83982 78.862 8.43344 80.1266C8.6972 80.6855 9.19864 81.1546 9.78634 81.3514C10.1049 81.4585 10.4464 81.4971 10.7804 81.4497C10.8809 81.4357 11.7784 81.1308 11.7446 81.0833C10.6346 81.9716 10.6587 83.5814 11.6673 84.5347C12.6676 85.4772 14.2231 85.464 15.099 84.3543C15.0824 84.3426 14.8185 85.0601 14.8015 85.1472C14.7333 85.4921 14.7445 85.8554 14.8477 86.192C15.0395 86.8166 15.4822 87.3375 16.0613 87.6338C17.2505 88.2686 18.7368 87.8597 19.3319 86.6259C19.3237 86.6228 19.2373 87.3555 19.2422 87.4478C19.2584 87.7908 19.3534 88.1242 19.5104 88.4287C19.7901 88.9709 20.2951 89.3592 20.8612 89.5673C22.1392 90.0362 23.587 89.3784 24.0032 88.0697C24.0032 88.0694 24.0283 88.794 24.0469 88.8868C24.1146 89.2204 24.2555 89.5348 24.4527 89.8114C24.8245 90.3306 25.4071 90.6579 26.0283 90.7718C27.3065 91.0171 28.6037 90.2117 28.8567 88.9144C28.8621 88.9151 28.9541 89.5844 28.9807 89.6708C29.0723 89.9757 29.2315 90.2591 29.4388 90.5006C29.8841 91.0176 30.5287 91.3191 31.2079 91.3487C31.8134 91.3755 32.4254 91.2123 32.9014 90.8278C33.1607 90.6172 33.378 90.3519 33.529 90.0544C33.5786 89.9608 33.8189 89.1656 33.8053 89.1657C33.9174 90.4666 35.0903 91.4515 36.3957 91.3454C36.9968 91.2964 37.5934 91.0624 38.0191 90.6215C38.2558 90.3757 38.4423 90.0766 38.5519 89.7533C38.585 89.6557 38.7099 88.8224 38.6909 88.8253C38.9891 90.1579 40.3308 90.9034 41.6309 90.5706C42.2354 90.4364 42.7686 90.0525 43.1053 89.5346C43.2946 89.2433 43.4096 88.9156 43.4451 88.5697C43.4537 88.4722 43.3874 87.619 43.3604 87.63C43.9351 88.903 45.4379 89.3148 46.6321 88.6471C47.8424 87.9708 48.278 86.4399 47.4337 85.2941C47.4096 85.3132 48.0418 85.7808 48.1191 85.821C48.4308 85.9839 48.7839 86.0555 49.1353 86.0522C49.8055 86.0458 50.4378 85.7032 50.8757 85.2059C51.7882 84.1444 51.6746 82.5522 50.4817 81.7587C50.4713 81.7791 51.2066 81.9962 51.294 82.007C51.6493 82.0535 52.0079 82.0058 52.3427 81.8744C52.9555 81.6324 53.4613 81.1228 53.6975 80.504C54.1829 79.2389 53.6373 77.8156 52.3243 77.3647C52.3091 77.4144 53.3211 77.3425 53.432 77.3112C53.8435 77.1952 54.2113 76.9627 54.4982 76.6457C55.0587 76.0279 55.2746 75.1246 55.0704 74.3175C55.1542 74.6403 54.9893 73.994 55.0704 74.3175Z" fill="#F7A80E"/>
<path d="M51.7183 69.4044C51.5235 68.647 50.9052 68.0714 50.1337 67.9383C50.134 67.9503 50.7878 67.8314 50.8662 67.8031C51.1499 67.6999 51.4047 67.5295 51.6122 67.3114C51.9898 66.9167 52.1816 66.3793 52.1798 65.8366C52.1744 64.7901 51.3628 63.8756 50.312 63.8003C50.3119 63.7952 50.3118 63.79 50.3117 63.7848C51.4403 63.694 52.2089 62.6574 52.0713 61.5491C52.0078 61.0496 51.7927 60.5899 51.4169 60.2488C51.2025 60.0542 50.9431 59.9136 50.6634 59.8361C50.5783 59.8119 49.8222 59.7516 49.8282 59.7766C50.9018 59.431 51.4299 58.2432 51.0321 57.196C50.6371 56.1532 49.5198 55.5638 48.4537 55.9973C48.4566 56.007 48.9448 55.5603 48.995 55.4951C49.1617 55.2793 49.273 55.0304 49.3349 54.7655C49.4587 54.2308 49.3361 53.6523 49.0339 53.1979C48.4156 52.2723 47.1955 51.9494 46.2544 52.603C46.2572 52.6059 46.6161 52.108 46.6499 52.0377C46.7774 51.7805 46.8389 51.4998 46.8431 51.2136C46.8467 50.6687 46.6083 50.1433 46.2233 49.7623C45.431 48.9698 44.144 48.9304 43.3679 49.7664C43.3735 49.772 43.6235 49.1637 43.6407 49.0829C43.7048 48.7947 43.6951 48.4958 43.623 48.21C43.4941 47.7083 43.1598 47.277 42.7228 47.0012C41.7823 46.3967 40.5154 46.6358 39.9362 47.617C39.939 47.618 40.053 47.0181 40.0566 46.9392C40.0636 46.6549 40.0025 46.3762 39.8847 46.1174C39.6748 45.6473 39.2712 45.2834 38.798 45.0891C37.7306 44.6507 36.4886 45.1396 36.1253 46.2624C36.1335 46.2641 36.1018 45.6087 36.0835 45.5273C36.0256 45.2633 35.9082 45.0182 35.7424 44.8039C35.408 44.371 34.8945 44.0825 34.3482 44.0279C33.7938 43.9725 33.2491 44.1006 32.8105 44.4514C32.5992 44.62 32.4271 44.8335 32.3074 45.0757C32.271 45.1502 32.0868 45.7791 32.095 45.7791C32.0083 44.636 30.9938 43.8984 29.887 43.9913C29.373 44.0345 28.8775 44.2855 28.5378 44.6731C28.3494 44.8875 28.2136 45.1377 28.1383 45.413C28.1157 45.4976 28.0585 46.197 28.0721 46.1943C27.7386 45.1011 26.5906 44.5957 25.5275 44.9282C25.0082 45.0906 24.5647 45.4675 24.3226 45.9537C24.2082 46.1849 24.1405 46.4352 24.1274 46.6935C24.124 46.7806 24.2166 47.4774 24.2301 47.4713C23.6727 46.4729 22.4381 46.2266 21.4755 46.779C21.0023 47.0494 20.648 47.5129 20.516 48.0404C20.4537 48.2914 20.4407 48.5508 20.4849 48.8061C20.5005 48.8919 20.7421 49.5536 20.7555 49.5445C19.9943 48.6861 18.7361 48.7139 17.9117 49.4641C17.0874 50.217 17.0335 51.5205 17.8285 52.3105C17.8339 52.3065 17.2773 52.0438 17.2032 52.0224C16.9234 51.9422 16.6233 51.9266 16.3386 51.9834C15.7907 52.0923 15.3434 52.4218 15.0271 52.877C14.392 53.7987 14.6346 55.0829 15.5911 55.6703C15.6042 55.6479 14.8548 55.5275 14.7622 55.5302C14.4736 55.5391 14.1893 55.6145 13.9337 55.7536C13.4898 55.9969 13.1748 56.3928 12.9923 56.8624C12.7843 57.4039 12.8043 58.0261 13.0807 58.54C13.2004 58.7657 13.3685 58.9655 13.5684 59.1247C13.6295 59.1734 14.1706 59.4749 14.1732 59.4683C13.1938 59.3001 12.2298 59.9041 11.9192 60.8397C11.5426 61.977 12.1663 63.2444 13.3605 63.5124C13.363 63.5003 12.7056 63.5871 12.6272 63.6113C12.3675 63.6919 12.1227 63.8269 11.917 64.0054C11.5058 64.3627 11.2701 64.8853 11.2336 65.424C11.1968 65.9449 11.3368 66.4554 11.6598 66.8697C11.8283 67.0845 12.0449 67.2584 12.2876 67.3814C12.3648 67.4213 13.0973 67.6352 13.0966 67.6055C11.9355 67.7065 11.2106 68.7494 11.3405 69.8754C11.399 70.3925 11.6804 70.8905 12.0857 71.211C12.3188 71.3939 12.5861 71.521 12.8762 71.5743C12.9583 71.589 13.7022 71.5923 13.6933 71.5592C12.5473 71.9567 12.1516 73.2117 12.6477 74.271C12.8685 74.7393 13.2864 75.1323 13.7807 75.2972C14.0471 75.3869 14.334 75.4192 14.6137 75.3797C14.6979 75.3679 15.4494 75.1125 15.4185 75.0726C14.4904 75.8167 14.5111 77.1654 15.3581 77.964C16.194 78.7536 17.4989 78.7426 18.2292 77.8131C18.218 77.8032 17.995 78.4043 17.9804 78.4772C17.9245 78.7662 17.9343 79.0704 18.02 79.3525C18.1821 79.8759 18.552 80.3123 19.0373 80.5603C20.0334 81.0922 21.2788 80.7497 21.7777 79.7159C21.7722 79.7133 21.6994 80.3273 21.7012 80.4047C21.7161 80.692 21.7962 80.9713 21.9275 81.2263C22.1616 81.6806 22.5861 82.0058 23.0588 82.1802C24.1279 82.5732 25.3412 82.0218 25.6915 80.9257C25.6915 80.9254 25.7112 81.5323 25.7266 81.6102C25.7849 81.8895 25.9028 82.1529 26.069 82.3846C26.3789 82.8197 26.8649 83.0939 27.3875 83.1894C28.4577 83.3948 29.5454 82.7203 29.757 81.6334C29.7625 81.6339 29.8383 82.1944 29.8591 82.267C29.9386 82.5223 30.0695 82.7598 30.2432 82.9622C30.6184 83.3949 31.1584 83.6476 31.7257 83.6728C32.233 83.695 32.7475 83.5581 33.146 83.236C33.3626 83.0599 33.5454 82.8375 33.673 82.5882C33.7121 82.5098 33.9118 81.8438 33.9009 81.8438C33.9945 82.9338 34.9783 83.7587 36.0716 83.6698C36.5774 83.6288 37.0769 83.4328 37.4334 83.0634C37.6329 82.8574 37.7851 82.607 37.8796 82.3362C37.9076 82.2543 38.0112 81.5562 37.9949 81.5585C38.2445 82.6751 39.3681 83.2995 40.4596 83.0206C40.9638 82.9082 41.4113 82.5868 41.6927 82.1529C41.8505 81.9089 41.9476 81.6342 41.9789 81.3447C41.9852 81.2627 41.9303 80.5481 41.906 80.5571C42.3887 81.6236 43.6474 81.9686 44.648 81.4093C45.6619 80.8429 46.027 79.5602 45.3206 78.6001C45.2992 78.6162 45.8288 79.0079 45.8923 79.0416C46.157 79.1781 46.45 79.2383 46.7442 79.2355C47.3081 79.2302 47.8354 78.943 48.2044 78.5264C48.9683 77.6369 48.8717 76.3031 47.8752 75.6384C47.8647 75.6555 48.4821 75.8374 48.5531 75.8464C48.851 75.8855 49.1525 75.8455 49.4306 75.7353C49.9463 75.5326 50.3695 75.1058 50.5672 74.5873C50.9756 73.5275 50.5172 72.3351 49.4158 71.9575C49.4031 71.999 50.2518 71.9387 50.3438 71.9126C50.6903 71.8153 50.9964 71.6208 51.2381 71.355C51.7083 70.8375 51.8895 70.0806 51.7183 69.4044C51.7873 69.675 51.6493 69.1336 51.7183 69.4044Z" fill="#F2CC46"/>
<path d="M48.3636 64.4911C48.2076 63.8806 47.709 63.4161 47.088 63.3087C47.0882 63.3185 47.6146 63.2228 47.6767 63.2C47.9064 63.1167 48.113 62.9793 48.2805 62.8033C48.5837 62.485 48.7398 62.0519 48.7377 61.6142C48.7343 60.7705 48.0794 60.0328 47.2306 59.9723C47.2305 59.9682 47.2304 59.9641 47.2303 59.9597C48.1414 59.8866 48.7621 59.0509 48.6486 58.1569C48.5983 57.7542 48.4261 57.3835 48.1227 57.1086C47.9501 56.9517 47.7404 56.8383 47.5155 56.7759C47.4442 56.7563 46.8354 56.7076 46.8413 56.7279C47.7067 56.4491 48.1312 55.4915 47.8117 54.647C47.495 53.806 46.5929 53.3308 45.7319 53.6803C45.7348 53.6882 46.1296 53.328 46.1693 53.2755C46.3042 53.1013 46.3948 52.901 46.4443 52.6871C46.5432 52.2561 46.4451 51.7896 46.1995 51.4233C45.7025 50.6768 44.7182 50.4162 43.9594 50.9434C43.9622 50.9458 44.2498 50.5445 44.2784 50.4876C44.3799 50.2801 44.4318 50.0539 44.4345 49.8232C44.4379 49.3837 44.2427 48.9601 43.9331 48.6529C43.2969 48.0139 42.258 47.982 41.6307 48.6561C41.6363 48.6606 41.8373 48.1702 41.8522 48.1049C41.9039 47.8727 41.8956 47.6316 41.8357 47.4015C41.7336 46.9967 41.4639 46.6487 41.1126 46.4265C40.3519 45.9392 39.3319 46.1319 38.8654 46.9231C38.8682 46.9238 38.9604 46.4401 38.9616 46.3765C38.9672 46.1473 38.9183 45.9226 38.8235 45.7138C38.6539 45.3348 38.3282 45.0414 37.9458 44.8848C37.0874 44.5313 36.0858 44.9256 35.7909 45.8308C35.7991 45.8323 35.7731 45.3038 35.7579 45.2382C35.7093 45.0252 35.6175 44.8275 35.4827 44.655C35.213 44.3057 34.7988 44.0732 34.3591 44.029C33.9112 43.9844 33.4722 44.0876 33.1192 44.3705C32.948 44.5065 32.8103 44.6785 32.7141 44.8739C32.6828 44.9341 32.5366 45.4412 32.5421 45.4413C32.4714 44.5196 31.6537 43.9246 30.7617 43.9997C30.3457 44.0345 29.9472 44.2367 29.6738 44.5493C29.5226 44.7222 29.4101 44.9239 29.3499 45.146C29.3324 45.214 29.2857 45.7783 29.2965 45.7758C29.0307 44.8944 28.1029 44.4868 27.2482 44.7547C26.8289 44.8859 26.4709 45.1899 26.2757 45.582C26.182 45.7683 26.1268 45.97 26.118 46.1783C26.1142 46.2487 26.19 46.8104 26.2008 46.8055C25.7515 46.0006 24.755 45.8019 23.978 46.2475C23.5989 46.4655 23.3134 46.839 23.2062 47.2645C23.1537 47.4667 23.145 47.6761 23.1797 47.882C23.1923 47.951 23.3873 48.4845 23.398 48.4774C22.7851 47.7851 21.7693 47.8075 21.105 48.4124C20.4407 49.0195 20.3972 50.0705 21.0388 50.7078C21.0415 50.7044 20.5951 50.4926 20.5348 50.4752C20.3071 50.4107 20.067 50.3981 19.8365 50.4438C19.3944 50.5316 19.0328 50.7975 18.7798 51.1643C18.2659 51.9077 18.4618 52.943 19.2358 53.4169C19.2435 53.3987 18.6391 53.3016 18.5683 53.3038C18.3341 53.3111 18.1039 53.3716 17.8995 53.4839C17.539 53.6802 17.2849 53.9995 17.1384 54.3779C16.9716 54.8146 16.9887 55.3163 17.211 55.7305C17.3079 55.9126 17.4424 56.0736 17.6035 56.2021C17.6507 56.2416 18.0896 56.4847 18.0895 56.4793C17.3016 56.3436 16.5228 56.8307 16.2735 57.5851C15.968 58.502 16.4714 59.5241 17.4356 59.7402C17.4381 59.7303 16.9057 59.8006 16.8435 59.82C16.6352 59.8849 16.4388 59.9937 16.2733 60.1377C15.9394 60.4259 15.7504 60.8473 15.7197 61.2816C15.6913 61.7014 15.8045 62.113 16.0657 62.4473C16.2006 62.6203 16.3755 62.7607 16.5713 62.8601C16.6347 62.8921 17.2246 63.0646 17.224 63.0406C16.2859 63.122 15.7034 63.9631 15.8064 64.871C15.8543 65.2879 16.0817 65.6892 16.4092 65.9477C16.5952 66.0953 16.8102 66.1977 17.0455 66.2407C17.1112 66.2528 17.7107 66.2554 17.7046 66.2286C16.7802 66.5491 16.4606 67.561 16.8621 68.4153C17.0398 68.7929 17.3769 69.1098 17.7751 69.2426C17.9894 69.3151 18.2188 69.3413 18.447 69.3093C18.5121 69.2998 19.1204 69.0939 19.0951 69.0617C18.349 69.6617 18.3635 70.7492 19.0461 71.3932C19.7204 72.0298 20.772 72.021 21.3621 71.2711C21.351 71.2635 21.1743 71.7481 21.162 71.8068C21.1157 72.0399 21.1242 72.2852 21.1949 72.5126C21.3247 72.9345 21.6218 73.2864 22.0134 73.4867C22.8163 73.9154 23.8207 73.6391 24.2235 72.8058C24.218 72.8038 24.1588 73.2988 24.163 73.3611C24.1711 73.5927 24.2363 73.8181 24.342 74.0237C24.5331 74.3899 24.8743 74.6521 25.2564 74.7926C26.1194 75.1095 27.0953 74.6651 27.3771 73.7811C27.3771 73.7809 27.394 74.2703 27.4063 74.3332C27.4525 74.5585 27.5474 74.7706 27.6825 74.9576C27.9333 75.3084 28.3253 75.5294 28.744 75.6066C29.6089 75.7721 30.4845 75.2283 30.6574 74.3518C30.6601 74.3523 30.7225 74.8043 30.7402 74.8626C30.8022 75.0686 30.9103 75.26 31.0503 75.4231C31.35 75.7722 31.7853 75.9761 32.2463 75.9962C32.6527 76.0142 33.067 75.9039 33.3879 75.6441C33.5644 75.502 33.71 75.3229 33.8143 75.1217C33.8455 75.0585 34.0074 74.5213 33.9992 74.5215C34.0743 75.4003 34.8691 76.0657 35.7475 75.9939C36.1554 75.9609 36.5605 75.8027 36.845 75.5051C37.0073 75.3388 37.1307 75.1368 37.2046 74.9185C37.2276 74.8525 37.3125 74.2896 37.2989 74.2915C37.4998 75.1917 38.408 75.6951 39.2856 75.4703C39.6949 75.3798 40.0539 75.1205 40.2828 74.7707C40.409 74.5738 40.4883 74.3524 40.5101 74.119C40.5167 74.0529 40.4732 73.4768 40.4543 73.4841C40.8423 74.3439 41.857 74.6223 42.6638 74.1712C43.4815 73.7143 43.7761 72.6801 43.2048 71.9061C43.1888 71.9191 43.6158 72.235 43.6682 72.2621C43.8806 72.3719 44.116 72.4204 44.3557 72.4184C44.808 72.4141 45.2358 72.1826 45.5304 71.8465C46.1484 71.1293 46.0715 70.0539 45.2661 69.518C45.2582 69.5318 45.7548 69.6784 45.8122 69.6858C46.0527 69.7169 46.2972 69.6848 46.5213 69.5961C46.937 69.4325 47.2777 69.0883 47.4369 68.6703C47.7657 67.8158 47.3944 66.8542 46.5072 66.5496C46.4998 66.5831 47.1826 66.5346 47.2584 66.5135C47.5372 66.4353 47.7842 66.2781 47.9781 66.0639C48.3552 65.6468 48.5017 65.0366 48.3636 64.4911C48.4205 64.7093 48.3095 64.2728 48.3636 64.4911Z" fill="#F8E298"/>
<path d="M23.6313 40.9816C25.998 40.8171 28.5776 40.79 30.4826 42.2023C31.5834 43.0178 32.3227 44.2215 33.0152 45.403C33.5742 46.3516 34.1403 47.3708 34.1061 48.4706C34.0896 48.9311 33.9694 49.3823 33.8133 49.8152C33.4524 50.8111 32.8937 51.7353 32.1817 52.5178C31.1297 53.6709 29.7703 54.4947 28.3951 55.2275C26.487 56.2427 24.4153 57.1336 22.2583 57.0589C23.239 56.7008 24.1932 56.2615 25.1049 55.7474C24.0558 55.7435 23.0412 56.2827 22.0001 56.1579C21.4782 56.0959 20.9961 55.8713 20.5249 55.6426C18.987 54.8962 17.3848 53.9615 16.7131 52.39C17.9462 54.0833 20.1104 55.0483 22.1952 54.8326C20.5729 54.9011 19.0033 54.0782 17.8912 52.8961C16.7763 51.7141 16.0734 50.2031 15.5578 48.6631C15.3205 47.9528 15.118 47.2171 15.1304 46.4679C15.1577 44.6058 16.5473 42.9773 18.2089 42.1396C19.8705 41.302 21.776 41.1109 23.6313 40.9816Z" fill="#F2591D"/>
<path d="M45.5769 43.4093C43.2051 43.3554 40.627 43.4493 38.7902 44.9492C37.7287 45.8151 37.0465 47.0522 36.4073 48.2647C35.8961 49.2382 35.3783 50.2829 35.4639 51.3802C35.5019 51.8394 35.6431 52.2841 35.8193 52.7093C36.2264 53.6875 36.8277 54.5843 37.5754 55.3329C38.6802 56.4355 40.0768 57.1948 41.4847 57.8624C43.4382 58.787 45.5494 59.5803 47.7005 59.4048C46.7041 59.0927 45.7304 58.6988 44.7956 58.2278C45.8434 58.1747 46.8822 58.6661 47.9162 58.4927C48.4346 58.4061 48.9057 58.1592 49.3657 57.9087C50.867 57.0914 52.4238 56.0825 53.0212 54.4816C51.8687 56.2307 49.7519 57.2956 47.6593 57.1779C49.2831 57.1705 50.8125 56.2748 51.8681 55.042C52.9264 53.8091 53.5579 52.2671 54.0009 50.7047C54.2047 49.9838 54.3726 49.2397 54.3251 48.4917C54.2107 46.6328 52.7464 45.0711 51.0475 44.3121C49.3486 43.5531 47.4361 43.4514 45.5769 43.4093Z" fill="#F2591D"/>
<path d="M55.1974 48.3162C54.5248 53.8043 49.5373 57.7087 44.053 57.0369C38.5714 56.3654 34.6699 51.3719 35.3398 45.8839C36.0124 40.3959 41 36.4914 46.4843 37.1632C51.9658 37.8348 55.8673 42.8283 55.1974 48.3162Z" fill="#523B1A"/>
<path d="M53.8287 48.4772C53.2203 53.4491 48.701 56.9864 43.7332 56.3778C38.7653 55.7692 35.2317 51.2455 35.8402 46.2733C36.4486 41.3014 40.9679 37.7643 45.9357 38.3726C50.9035 38.9812 54.4371 43.5052 53.8287 48.4772Z" fill="#D1B86C"/>
<path d="M53.8287 48.4772C53.2203 53.4491 48.701 56.9864 43.7332 56.3778C38.7653 55.7692 35.2317 51.2455 35.8402 46.2733C36.4486 41.3014 40.9679 37.7643 45.9357 38.3726C50.9035 38.9812 54.4371 43.5052 53.8287 48.4772Z" fill="#D1B86C"/>
<path d="M52.967 48.3716C52.4183 52.867 48.3297 56.0654 43.8374 55.5152C39.3477 54.9649 36.1513 50.8746 36.7 46.3788C37.2514 41.8833 41.3373 38.685 45.8296 39.2352C50.3193 39.7855 53.5157 43.8758 52.967 48.3716Z" fill="#F3ED99"/>
<path d="M45.1089 48.7167C44.8459 50.8702 42.8873 52.4024 40.7368 52.1388C38.5862 51.875 37.0554 49.9156 37.3183 47.7621C37.5813 45.6086 39.5399 44.0764 41.6904 44.34C43.841 44.6036 45.3718 46.5632 45.1089 48.7167Z" fill="#D4C18D"/>
<path d="M44.0328 48.5848C43.8431 50.1427 42.4249 51.2512 40.8701 51.0606C39.3125 50.8699 38.2058 49.4521 38.3955 47.894C38.5852 46.3362 40.0033 45.2276 41.5582 45.4182C43.1157 45.6089 44.2225 47.0267 44.0328 48.5848Z" fill="#2E2227"/>
<path d="M41.3152 47.4127C41.2577 47.8692 40.843 48.1942 40.3867 48.1383C39.9303 48.0825 39.6073 47.667 39.662 47.2106C39.7194 46.7538 40.1341 46.4291 40.5905 46.485C41.0468 46.5408 41.3699 46.9563 41.3152 47.4127Z" fill="white"/>
<path d="M43.2373 41.0347C43.8291 41.7585 43.2661 43.1966 41.9828 44.2471C40.6995 45.2977 39.1798 45.5626 38.588 44.8388C37.9961 44.1152 38.5592 42.6768 39.8425 41.6263C41.1257 40.5757 42.6454 40.3111 43.2373 41.0347Z" fill="white"/>
<path d="M45.8328 54.2655C41.5454 53.74 38.1671 50.7284 36.9619 46.8499C36.7013 49.8035 38.1577 52.7726 40.9155 54.3021C43.3586 55.657 46.217 55.5457 48.4811 54.2597C47.62 54.3696 46.7346 54.3756 45.8328 54.2655Z" fill="#D4C18D"/>
<path d="M14.6577 43.3501C13.9878 48.8381 17.8893 53.8316 23.3709 54.5034C28.8551 55.175 33.8454 51.2707 34.5153 45.7827C35.1852 40.2947 31.2837 35.3013 25.8021 34.6294C20.3179 33.9579 15.3303 37.8621 14.6577 43.3501Z" fill="#523B1A"/>
<path d="M15.947 43.8366C15.3413 48.8084 18.8749 53.3324 23.8428 53.9408C28.8106 54.5494 33.3299 51.012 33.9383 46.0401C34.544 41.0682 31.0104 36.5442 26.0426 35.9359C21.0748 35.3273 16.5555 38.8646 15.947 43.8366Z" fill="#D1B86C"/>
<path d="M15.947 43.8366C15.3413 48.8084 18.8749 53.3324 23.8428 53.9408C28.8106 54.5494 33.3299 51.012 33.9383 46.0401C34.544 41.0682 31.0104 36.5442 26.0426 35.9359C21.0748 35.3273 16.5555 38.8646 15.947 43.8366Z" fill="#D1B86C"/>
<path d="M16.81 43.942C16.2586 48.4376 19.4551 52.5282 23.9474 53.0784C28.4398 53.6286 32.5256 50.4303 33.0743 45.9346C33.6231 41.4391 30.4293 37.3484 25.937 36.7982C21.4446 36.248 17.3588 39.4463 16.81 43.942Z" fill="#F3ED99"/>
<path d="M17.4256 45.3256C17.1627 47.4791 18.6935 49.4385 20.8441 49.702C22.9973 49.9655 24.9532 48.4335 25.2162 46.2799C25.4819 44.1264 23.951 42.167 21.7978 41.9035C19.6472 41.64 17.6886 43.1721 17.4256 45.3256Z" fill="#D4C18D"/>
<path d="M18.502 45.4574C18.3123 47.0155 19.4191 48.4331 20.9766 48.6238C22.5342 48.8145 23.9497 47.7061 24.1394 46.148C24.3318 44.5898 23.2223 43.1723 21.6675 42.9815C20.1099 42.7908 18.6944 43.8993 18.502 45.4574Z" fill="#2E2227"/>
<path d="M19.2222 45.6043C19.1647 46.0608 19.4905 46.4761 19.9468 46.532C20.4032 46.5878 20.8179 46.2629 20.8726 45.8064C20.9273 45.35 20.6043 44.9346 20.1479 44.8787C19.6916 44.8228 19.2769 45.1475 19.2222 45.6043Z" fill="white"/>
<path d="M23.3196 38.5951C23.9114 39.3187 23.3511 40.757 22.0651 41.8076C20.7818 42.8581 19.2622 43.1228 18.6703 42.3992C18.0812 41.6753 18.6415 40.2373 19.9248 39.1867C21.2081 38.1362 22.7305 37.8712 23.3196 38.5951Z" fill="white"/>
<path d="M22.3138 51.3841C26.6012 51.9093 30.6063 49.8021 32.7075 46.3285C32.2502 49.2581 30.1215 51.7882 27.078 52.6067C24.3784 53.3318 21.6323 52.5337 19.7429 50.7393C20.5513 51.0536 21.4121 51.2737 22.3138 51.3841Z" fill="#D4C18D"/>
<path d="M36.3843 47.3092C36.1702 47.006 35.9102 46.7255 35.5803 46.5993C35.2614 46.4769 34.8703 46.5333 34.6288 46.8076C34.4631 46.4831 34.0945 46.3324 33.7549 46.3737C33.4071 46.4159 33.085 46.6247 32.8046 46.8663C31.3006 48.1519 30.6583 50.3956 30.7099 52.482C30.7614 54.5685 31.4073 56.5532 32.0441 58.4955C32.091 58.639 32.5291 59.5459 33.0593 59.6114C33.5894 59.677 34.2143 58.9013 34.293 58.774C35.3861 57.045 36.4946 55.2775 37.0524 53.2665C37.6075 51.2556 37.5283 48.9222 36.3843 47.3092Z" fill="#2D1615"/>
<path d="M33.6077 46.7198C33.3547 46.7347 33.1439 46.9248 32.9685 47.1163C31.7224 48.4763 31.1403 50.3785 31.045 52.2453C30.9381 54.3139 31.3958 56.4047 32.3455 58.2176C32.5082 58.5317 32.7615 58.879 33.1068 58.8469C33.501 58.8101 33.6776 58.3206 33.7635 57.9182C34.4677 54.5899 35.1117 51.1405 34.4697 47.8107C34.4202 47.5579 34.3624 47.3005 34.2266 47.086C34.0881 46.8717 33.8581 46.7055 33.6077 46.7198Z" fill="#EE8B40"/>
<path d="M35.329 46.9282C34.9812 46.968 34.7771 47.3281 34.6347 47.6483C33.1939 50.9323 32.5899 54.582 32.9025 58.1557C32.9247 58.4082 32.978 58.704 33.2094 58.8117C33.4959 58.9468 33.8058 58.684 34.0071 58.4383C35.8349 56.2045 36.8879 53.3471 36.9484 50.4601C36.9708 49.3202 36.8029 48.086 36.0153 47.2623C35.8337 47.071 35.5926 46.8983 35.329 46.9282Z" fill="#F2591D"/>
<path d="M34.6181 53.4401C34.2795 56.2005 33.6168 58.3906 33.1359 58.3315C32.655 58.2727 32.5388 55.9871 32.8775 53.2266C33.2134 50.4662 33.876 48.2761 34.357 48.3349C34.8379 48.394 34.9541 50.6794 34.6181 53.4401Z" fill="#F3DE3E"/>
<path d="M34.0642 51.6844C34.265 51.6481 34.3715 51.4272 34.4241 51.2301C34.5948 50.6073 34.5654 49.9317 34.3441 49.3257C33.8194 49.722 33.5465 50.4023 33.5755 51.0594C33.5817 51.21 33.6044 51.365 33.6864 51.492C33.7657 51.6192 33.9177 51.7113 34.0642 51.6844" fill="white"/>
<path d="M34.0292 53.2993C33.9764 52.9027 33.9235 52.5058 33.8678 52.1089C33.6066 52.4731 33.4535 52.9149 33.4367 53.3631C33.4315 53.4871 33.4372 53.6165 33.4943 53.7267C33.5514 53.8369 33.6732 53.9221 33.7954 53.9034C33.9149 53.8854 34.0022 53.7753 34.0322 53.6584C34.0622 53.5418 34.0457 53.419 34.0292 53.2993" fill="white"/>
<path d="M14.0237 51.0799C5.47344 56.5527 -0.819696 65.4443 -3.14685 75.3307C-0.981831 73.5352 0.891599 71.3895 2.37794 69.0026C2.46193 70.0301 1.72812 70.9246 1.40773 71.9043C1.08735 72.8841 1.60374 74.3416 2.61866 74.1652C3.00401 74.0983 3.30233 73.8053 3.57644 73.5261C4.9576 72.1169 6.33876 70.7073 7.71992 69.2981C6.98113 70.0967 7.45925 71.5489 8.4507 71.9994C9.43942 72.4497 10.6512 72.0703 11.4626 71.3464C12.274 70.6224 12.7653 69.6142 13.2135 68.6224C15.3815 63.8101 16.9649 58.5835 16.5855 53.3181L14.0237 51.0799Z" fill="#F7A80E"/>
<path d="M-3.14078 75.6207C-3.19524 75.622 -3.2501 75.6074 -3.29985 75.5772C-3.40493 75.5115 -3.4569 75.3857 -3.42704 75.2644C-1.07786 65.2717 5.22589 56.3676 13.8674 50.8359C14.0016 50.7491 14.1796 50.7893 14.2672 50.9239C14.3521 51.0588 14.3127 51.2378 14.1785 51.3242C5.91827 56.6129 -0.176192 65.0294 -2.64613 74.5196C-0.791102 72.8675 0.812818 70.9637 2.13115 68.8493C2.19679 68.7434 2.32362 68.691 2.44421 68.7209C2.56751 68.7505 2.65443 68.8546 2.66551 68.9789C2.72683 69.7362 2.40462 70.4056 2.09007 71.0528C1.93413 71.3752 1.78597 71.6803 1.6816 71.9945C1.5062 72.5331 1.62941 73.2564 1.96267 73.6416C2.13352 73.84 2.33705 73.9214 2.56768 73.8795C2.85262 73.8302 3.10058 73.5984 3.36935 73.3234L7.51282 69.0951C7.62461 68.982 7.80438 68.9789 7.91865 69.0883C8.03292 69.1975 8.03988 69.3787 7.93088 69.4949C7.59871 69.8548 7.63135 70.3176 7.68065 70.5611C7.78534 71.076 8.13398 71.5369 8.56914 71.7356C9.49452 72.1569 10.5909 71.7344 11.2688 71.1303C12.0348 70.4458 12.5003 69.4971 12.9484 68.5032C15.5231 62.7868 16.6195 57.8266 16.2965 53.3388C16.2846 53.1792 16.4067 53.0406 16.5644 53.0292C16.7113 53.0184 16.8639 53.1376 16.8731 53.2975C17.2039 57.8836 16.0906 62.9353 13.4772 68.7414C13.0213 69.7524 12.5037 70.8036 11.655 71.5628C10.8355 72.2921 9.4903 72.7916 8.3281 72.2632C7.71944 71.986 7.25561 71.3775 7.11384 70.6756C7.09236 70.5727 7.07908 70.471 7.074 70.3705L3.7821 73.7291C3.51863 73.9976 3.1594 74.3655 2.66822 74.4509C2.23128 74.5252 1.82721 74.3735 1.52196 74.0206C1.05425 73.4793 0.890838 72.5513 1.13243 71.814C1.24682 71.4625 1.4106 71.1254 1.56919 70.7999C1.60549 70.7207 1.64452 70.6427 1.68085 70.5649C0.356435 72.4195 -1.20111 74.0926 -2.96251 75.5541C-3.01329 75.5967 -3.07543 75.6189 -3.14078 75.6207Z" fill="#292625"/>
<path d="M53.7059 55.9412C60.6822 63.316 64.6499 73.4644 64.5252 83.6208C62.8592 81.3559 61.5574 78.8215 60.6909 76.146C60.3596 77.1227 60.8554 78.1678 60.9313 79.1958C61.0071 80.2241 60.1545 81.5141 59.2129 81.0979C58.8549 80.9402 58.6341 80.5832 58.4355 80.2467C57.4365 78.5454 56.4349 76.8442 55.4332 75.143C55.9569 76.0961 55.1425 77.3901 54.0736 77.5883C53.0047 77.7868 51.9211 77.126 51.3089 76.2275C50.6966 75.3291 50.4611 74.2318 50.2671 73.1615C49.3227 67.9679 49.0451 62.5133 50.6797 57.4945L53.7059 55.9412Z" fill="#F7A80E"/>
<path d="M64.5316 83.9106C64.439 83.9128 64.3508 83.8701 64.2918 83.7927C62.9353 81.9492 61.8286 79.9491 60.9888 77.8293C61.0044 77.9141 61.0227 77.9995 61.0411 78.0858C61.1148 78.44 61.1942 78.806 61.2192 79.175C61.2755 79.9485 60.8923 80.8094 60.308 81.222C59.9274 81.4908 59.4953 81.541 59.0933 81.3631C58.639 81.1618 58.378 80.718 58.1878 80.3941L55.8014 76.3395C55.771 76.4357 55.7351 76.5317 55.6883 76.6264C55.3846 77.2735 54.7855 77.7514 54.1262 77.8735C52.8728 78.1063 51.6877 77.2971 51.0698 76.3914C50.4265 75.4487 50.179 74.3044 49.9818 73.2133C48.8406 66.9468 48.9784 61.7759 50.402 57.4048C50.4529 57.2528 50.6172 57.1698 50.7682 57.2189C50.9192 57.2688 51.0021 57.4322 50.9539 57.5847C49.5608 61.8615 49.429 66.9401 50.5516 73.1094C50.7456 74.1821 50.9687 75.2151 51.5471 76.0641C52.0606 76.8146 53.0246 77.4888 54.023 77.3032C54.4923 77.2161 54.9416 76.853 55.1675 76.3784C55.2712 76.1537 55.4162 75.7123 55.18 75.2826C55.1032 75.1439 55.1509 74.9694 55.2907 74.8911C55.4278 74.8121 55.6033 74.8593 55.6828 74.9959L58.685 80.0996C58.8808 80.4318 59.0646 80.7163 59.3289 80.8332C59.5436 80.9279 59.761 80.8997 59.9754 80.7485C60.3909 80.4551 60.683 79.7826 60.6425 79.2171C60.6185 78.8874 60.5481 78.5561 60.4745 78.2057C60.3272 77.5015 60.1712 76.7732 60.4159 76.0532C60.454 75.935 60.5559 75.8639 60.692 75.8561C60.8173 75.8567 60.9254 75.9376 60.9664 76.0564C61.733 78.4261 62.8316 80.6617 64.2365 82.7129C64.1242 72.906 60.2366 63.2671 53.495 56.1406C53.3833 56.0243 53.3899 55.8406 53.5045 55.7308C53.6218 55.6206 53.8044 55.625 53.9161 55.7419C60.9678 63.1957 64.9413 73.3584 64.8164 83.6244C64.8139 83.7488 64.732 83.8585 64.613 83.8967C64.5887 83.9052 64.5588 83.91 64.5316 83.9106Z" fill="#292625"/>
<path d="M13.1151 62.7974C12.7823 61.8493 13.2899 60.8355 13.7375 59.9367C14.5626 58.285 15.2388 56.5579 15.7504 54.7841C15.9621 56.9636 15.7335 59.1848 15.0849 61.2751C14.844 62.044 14.447 62.8925 13.6699 63.1016C13.5561 63.132 13.4284 63.1457 13.3236 63.0903C13.216 63.0325 13.1559 62.9131 13.1151 62.7974Z" fill="#F8E298"/>
<path d="M9.38134 71.2607C9.79675 71.314 10.2176 71.1326 10.5326 70.8571C10.8504 70.5816 11.0763 70.2199 11.283 69.8542C11.5158 69.4392 11.7265 69.0121 11.9179 68.5753C12.0315 68.309 12.1358 67.9921 11.9937 67.7404C11.8488 67.4883 11.4985 67.4188 11.2199 67.5065C10.944 67.594 10.7227 67.8004 10.5121 68.0015C9.82185 68.6612 9.10853 69.3834 8.89601 70.3151C8.82687 70.6208 8.84664 71.0002 9.10947 71.1702C9.18972 71.2229 9.28569 71.2482 9.38134 71.2607Z" fill="#F8E298"/>
<path d="M4.60702 65.398C4.50269 65.8302 4.41792 66.2822 4.51255 66.7166C4.54002 66.8425 4.61431 66.9902 4.74496 66.9841C4.81028 66.981 4.86374 66.9369 4.91451 66.8943C6.20193 65.7875 7.14629 64.3423 8.04996 62.9047C9.42909 60.7103 10.799 58.3564 10.8855 55.7652C10.3626 56.1249 9.92114 56.5874 9.47958 57.0466C8.97693 57.5732 8.47429 58.1004 8.00509 58.6593C6.37763 60.6048 5.20321 62.9307 4.60702 65.398Z" fill="#F2CC46"/>
<path d="M2.82546 71.8238C2.79794 71.9286 2.77073 72.046 2.82202 72.1421C2.91902 72.3281 3.19869 72.286 3.38722 72.1922C3.8639 71.953 4.24708 71.5606 4.61122 71.1698C6.67919 68.953 8.58447 66.4218 9.20984 63.4548C7.84709 64.6029 6.50713 65.7925 5.36759 67.1639C4.22805 68.5353 3.28924 70.1019 2.82546 71.8238Z" fill="#F2CC46"/>
<path d="M6.91785 29.7089C4.49709 32.9179 3.67542 37.2771 4.76056 41.1485C4.28111 36.3799 6.0427 31.4336 9.4265 28.0434C8.38891 28.0663 7.54416 28.878 6.91785 29.7089Z" fill="#B69547"/>
<path d="M51.0086 66.7756C51.0914 67.1723 51.2126 67.5772 51.476 67.8844C51.602 68.0287 51.7683 68.1525 51.9593 68.1619C52.3685 68.1826 52.6053 67.7069 52.6967 67.3058C53.3441 64.4637 52.1534 61.5544 51.9655 58.6454C51.1416 61.2797 50.4332 64.0758 51.0086 66.7756Z" fill="#F8E298"/>
<path d="M52.0123 74.8413C52.1694 75.1534 52.4335 75.4908 52.7814 75.4557C53.0125 75.4325 53.1986 75.2373 53.2752 75.0181C53.3519 74.7987 53.3408 74.5585 53.3136 74.3276C53.1521 72.9009 52.5027 71.5801 51.8327 70.3118C51.2425 71.7539 51.3094 73.4505 52.0123 74.8413Z" fill="#F8E298"/>
<path d="M56.6255 74.1616C55.3382 70.3824 54.2779 66.5259 53.4508 62.6198C53.3788 64.6653 53.4544 66.7309 53.918 68.7245C54.3815 70.7179 55.2522 72.6452 56.6255 74.1616Z" fill="#F2CC46"/>
<path d="M59.8045 73.8772C59.1783 70.6395 57.2113 67.8558 55.5292 65.02C55.9473 67.7499 56.8785 70.4004 58.256 72.7932C58.594 73.3809 59.1461 74.0361 59.8045 73.8772Z" fill="#F2CC46"/>
<path d="M62.2952 76.448C61.849 71.0052 59.4317 65.7449 55.5916 61.866C57.8253 66.7267 60.0616 71.5873 62.2952 76.448Z" fill="#F2CC46"/>
<path d="M22.5351 66.5315C22.6401 66.5912 22.4091 67.2002 22.0193 67.8914C21.6295 68.5825 21.2273 69.0943 21.1196 69.0344C21.0147 68.9746 21.2457 68.3657 21.6355 67.6745C22.0253 66.9833 22.4275 66.4716 22.5351 66.5315Z" fill="#292625"/>
<path d="M17.0188 68.5874C17.1185 68.656 16.6721 69.4879 16.0188 70.4454C15.3627 71.4027 14.7529 72.1233 14.6532 72.0547C14.5535 71.9862 14.9999 71.1543 15.6533 70.197C16.3093 69.2395 16.9191 68.5189 17.0188 68.5874Z" fill="#292625"/>
<path d="M42.6812 60.4634C42.6607 60.5165 42.3732 60.4594 41.9332 60.2854C41.5012 60.1046 40.9269 59.7839 40.3632 59.3313C39.8074 58.869 39.3789 58.3693 39.1163 57.9789C38.8564 57.5836 38.7438 57.313 38.7921 57.2818C38.8458 57.2462 39.0495 57.4522 39.357 57.784C39.6726 58.1118 40.1133 58.5509 40.6413 58.9907C41.1773 59.42 41.6948 59.7643 42.0766 60.0087C42.4636 60.2457 42.7071 60.4036 42.6812 60.4634Z" fill="#292625"/>
<path d="M42.4498 62.3475C42.4592 62.3999 42.2465 62.5088 41.8679 62.5146C41.68 62.5193 41.4558 62.4853 41.2143 62.4135C40.9782 62.3353 40.7274 62.2149 40.4919 62.0458C40.2617 61.8729 40.0716 61.6698 39.9252 61.467C39.7841 61.2601 39.684 61.0565 39.6307 60.8753C39.5214 60.5122 39.5622 60.2761 39.6138 60.2706C39.6817 60.2608 39.7519 60.4672 39.9166 60.7522C40.0787 61.0386 40.3541 61.397 40.7533 61.6904C41.1525 61.981 41.5784 62.1369 41.8988 62.2049C42.2193 62.2751 42.4374 62.2812 42.4498 62.3475Z" fill="#292625"/>
<path d="M26.2398 56.7475C26.2709 56.7928 26.0498 57.0104 25.6283 57.2808C25.2012 57.5411 24.5565 57.8207 23.8026 57.972C23.0428 58.1049 22.3419 58.0785 21.8494 57.991C21.3594 57.892 21.0731 57.7697 21.0855 57.716C21.1003 57.6515 21.4058 57.6643 21.8803 57.681C22.3572 57.6867 23.0106 57.663 23.7216 57.5392C24.4267 57.397 25.0429 57.1821 25.4856 57.0032C25.9226 56.8152 26.2031 56.6927 26.2398 56.7475Z" fill="#292625"/>
</g>
<defs>
<clipPath id="clip0_5605_48584">
<rect y="0.294922" width="72" height="72" rx="36" fill="white"/>
</clipPath>
</defs>
</svg>
